<svg height="440" viewBox="0 0 800 440" width="800" xmlns="http://www.w3.org/2000/svg"><g fill="none" fill-rule="evenodd"><path d="m108.725106 91.8c0 6.16-2.66 12.34-7.98 18.54-5.3199996 6.2-12.2599996 11.02-20.8199996 14.46s-18 5.16-28.32 5.16c4.08 8.48 9.76 17 17.04 25.56s12.96 12.84 17.04 12.84c3.84 0 5.76-1.92 5.76-5.76 0-1.92-1.12-3.88-3.36-5.88l-1.2-1.56c0-1.12.38-2.08 1.14-2.88s1.66-1.2 2.7-1.2c1.92 0 3.96 1.42 6.12 4.26s3.2399996 5.58 3.2399996 8.22c0 10.4-6.7999996 15.6-20.3999996 15.6-8.4 0-17.04-4.36-25.92-13.08s-16-19.64-21.36-32.76l-13.44 38.88c-.32 1.12-1.6 2.08-3.84 2.88s-4.48 1.2-6.72000002 1.2c-2.08 0-4.02-.34-5.82-1.02s-2.66-1.7-2.58-3.06l44.40000002-135.24c1.44-4.32 2.16-7.92 2.16-10.8 0-3.12-3.52-5.08-10.56-5.88-1.44-.16-2.16-1.16-2.16-3 0-1.92.56-2.88 1.68-2.88 5.12-.96 11.2-2.76 18.24-5.4s12.4-5.12 16.08-7.44c1.6-1.04 2.96-1.56 4.08-1.56 1.6 0 2.4.88 2.4 2.64 0 1.92-.4 4-1.2 6.24l-29.28 85.32c8.16-9.76 15.34-16.52 21.54-20.28s12.86-5.64 19.98-5.64c6.4 0 11.56 2.2 15.4799996 6.6 3.92 4.4 5.88 10.04 5.88 16.92zm-20.8799996 3.12c0-7.68-3.44-11.52-10.32-11.52-4.4 0-9.5 1.94-15.3 5.82s-11.1 8.76-15.9 14.64-7.2 10.34-7.2 13.38c0 3.52 2.64 5.28 7.92 5.28 27.2 0 40.8-9.2 40.8-27.6z" fill="var(--illustration-black)" fill-rule="nonzero" transform="translate(184 81)"/><path d="m171.191111 211.68c0 6.24-2.48 11.2-7.44 14.88-5.36 4-12.96 6-22.8 6-13.76 0-28.68-6.08-44.7599999-18.24-13.52-10.24-26.64-23.72-39.36-40.44-11.2-14.72-19.32-28.2-24.36-40.44l-13.44 38.88c-.32 1.2-1.64 2.18-3.96 2.94s-4.52 1.14-6.59999999 1.14c-2.24 0-4.28-.36-6.12-1.08-1.84-.72-2.6-1.72-2.28-3l44.39999999-135.36c.72-2.24 1.26-4.26 1.62-6.06s.54-3.38.54-4.74c0-3.12-3.52-5.04-10.56-5.76-1.44 0-2.16-1.04-2.16-3.12 0-1.68.56-2.64 1.68-2.88 5.44-.96 11.56-2.72 18.36-5.28s12.12-5.04 15.96-7.44c.64-.48 1.28-.88 1.92-1.2s1.36-.48 2.16-.48c1.6 0 2.4.96 2.4 2.88 0 .88-.1 1.82-.3 2.82s-.5 2.06-.9 3.18l-29.28 85.44c7.44-8.8 13.92-15.04 19.44-18.72 6.88-4.64 14.24-6.96 22.08-6.96 6.64 0 11.92 2.24 15.8399999 6.72 3.68 4.24 5.52 9.76 5.52 16.56 0 8.88-4.84 17.16-14.5199999 24.84-11.2 8.88-25.4 13.32-42.6 13.32 5.04 10.32 12.4 22 22.08 35.04 11.76 15.84 23.44 28.48 35.0399999 37.92 14.48 11.84 27.68 17.76 39.6 17.76 4.8 0 8.56-.86 11.28-2.58s4.08-4.22 4.08-7.5c0-1.84-1-3.72-3-5.64l-1.56-1.8c0-1.12.36-2.08 1.08-2.88s1.56-1.2 2.52-1.2c1.92 0 3.8 1.4 5.64 4.2s2.76 5.56 2.76 8.28zm-83.2799999-116.64c0-3.6-.9-6.42-2.7-8.46s-4.34-3.06-7.62-3.06c-7.2 0-15.52 4.56-24.96 13.68-8.96 8.64-13.44 15.36-13.44 20.16 0 1.68.62 2.98 1.86 3.9s3.26 1.38 6.06 1.38c15.68 0 26.84-3.04 33.48-9.12 4.88-4.48 7.32-10.64 7.32-18.48z" fill="var(--illustration-black)" fill-rule="nonzero" transform="translate(454 81)"/><g fill="var(--illustration-accent)"><text font-family="SFProText-Regular, SF Pro Text" font-size="16"><tspan x="473.679688" y="355">Character variant</tspan></text><text font-family="SFProText-Regular, SF Pro Text" font-size="16"><tspan x="165.316406" y="355">Standard character</tspan></text><path d="m558.834697 313.886543-.053573.998564c.43669.023164.876413.034893 1.318876.034893.211862 0 .423096-.002689.63367-.008035l-.025459-.999676c-.202403.005138-.40515.007711-.608211.007711-.423243 0-.845103-.011179-1.265303-.033457zm5.900204.595652-.188552-.982063c-.626577.119959-1.259315.214518-1.897105.283284l.107615.994193c.667754-.072008 1.327468-.170846 1.978042-.295414zm-9.701336-1.109508-.214382.97675c.647332.142207 1.304257.258817 1.969659.348714l.13445-.990921c-.635828-.085886-1.266117-.197542-1.889727-.334543zm13.601487.019662-.348609-.937268c-.5988.222557-1.207024.420613-1.823412.593567l.270358.96276c.645047-.181002 1.279328-.387748 1.901663-.619059zm-17.284466-1.154839-.372182.928159c.615932.247233 1.244234.470173 1.883718.667634l.29568-.955288c-.611504-.188802-1.214335-.402515-1.807216-.640505zm20.93716-.559284-.49791-.867229c-.554494.318598-1.12185.614444-1.700734.886701l.425882.904779c.604857-.284483 1.196187-.592976 1.772762-.924251zm-24.362783-1.153812-.518969.854794c.568713.345181 1.152594.667868 1.750407.966825l.447226-.89442c-.572022-.286062-1.132023-.595417-1.678664-.927199zm27.67608-1.130639-.632494-.774566c-.49524.405108-1.006731.789926-1.533159 1.153395l.568061.822986c.54919-.379179 1.082139-.780203 1.597592-1.201815zm-30.808484-1.142549-.650975.759099c.505087.43398 1.028059.847729 1.567659 1.239991l.587646-.809119c-.517303-.376067-1.01918-.773088-1.50433-1.189971zm33.651924-1.591041-.748264-.663401c-.42429.478924-.8679.940487-1.329633 1.383456l.691933.721962c.481216-.461641.943625-.942735 1.385964-1.442017zm-36.355534-1.144522-.766404.642359c.429069.511393.878642 1.005003 1.347454 1.479563l.711268-.702921c-.449799-.455321-.880962-.928741-1.292318-1.419001zm38.781591-2.095889-.847128-.531389c-.340021.54213-.702073 1.070221-1.085154 1.582942l.800998.598666c.398756-.533693.776268-1.084184 1.131284-1.650219zm-40.987705-1.012471-.859193.511652c.341186.574086.70516 1.133043 1.090675 1.675625l.814991-.579473c-.370534-.521513-.719682-1.057892-1.046473-1.607804zm42.838351-2.561538-.922931-.384964c-.246281.59037-.516624 1.170131-.810258 1.73796l.888173.45951c.305396-.590563.587475-1.195138.845016-1.812506zm-44.532059-.912652-.931972.362532c.242614.623958.510056 1.235517.801112 1.833462l.898847-.438262c-.279826-.574915-.536067-1.161265-.767987-1.757732zm45.76287-2.891479-.97363-.228135c-.146459.623754-.3183 1.240172-.514981 1.848025l.951226.308493c.204496-.631944.384012-1.275126.537385-1.928383zm-46.861861-.822939-.979108.203341c.136207.656594.298692 1.303565.486305 1.939764l.959143-.282924c-.180601-.612424-.336218-1.232886-.46634-1.860181zm47.454653-3.140781-.99775-.067045c-.04281.64081-.111476 1.277274-.205648 1.908324l.989021.147769c.097738-.654907.169555-1.318282.214377-1.989048zm-47.926526-.722466-.999222.03944c.026299.672072.079671 1.337191.159054 1.994298l.992665-.120898c-.07645-.633048-.12739-1.271006-.152497-1.91284zm47.98013-1.21902c-.007631-.672797-.04238-1.33908-.103207-1.997806l-.995773.091839c.058624.634851.091736 1.274121.099038 1.91681zm-48.820056-2.687615c-.079399.65678-.132811 1.321565-.159178 1.993298l.999225.039359c.025184-.641678.076189-1.279479.152692-1.912371zm48.441635-1.35094c-.117605-.660735-.261694-1.312305-.431132-1.953575l-.966707.255887c.163065.617198.30099 1.241875.4133 1.872854zm-47.636728-2.571714c-.186299.636561-.347453 1.283859-.482316 1.940747l.979508.201404c.128803-.627412.283096-1.248034.462373-1.860663zm46.599791-1.337239c-.224879-.630591-.474864-1.249262-.748752-1.85481l-.911108.412167c.263442.582457.503003 1.17576.717985 1.778607zm-45.147112-2.432002c-.289862.598681-.556076 1.210945-.797428 1.835579l.932936.360043c.230647-.5969.485631-1.183726.764218-1.759165zm43.483734-1.239288c-.325312-.584185-.673829-1.153676-1.044305-1.707228l-.830835.556519c.355823.531677.689834 1.077644 1.0011 1.636564zm-41.461825-2.192376c-.38351.544336-.745406 1.104995-1.084439 1.68073l.861555.507664c.324709-.551425.671849-1.089391 1.040452-1.612562zm39.225035-1.147108c-.41549-.522226-.851856-1.0271-1.307837-1.51336l-.730049.683395c.437837.466878.85656.951356 1.255023 1.452159zm-36.633572-1.954747c-.468072.474945-.916901.968907-1.345221 1.480621l.76679.641898c.410782-.490764.841394-.964709 1.290665-1.420577zm33.924946-.937839c-.492844-.44799-1.004025-.876164-1.532283-1.283263l-.610577.791957c.506641.390433.997286.801364 1.470652 1.231669zm-30.935672-1.644307c-.538538.394427-1.060369.810318-1.564232 1.246412l.654476.756083c.483818-.418743.984443-.817672 1.500576-1.195691zm27.736817-.81636c-.558958-.361042-1.133554-.699948-1.722548-1.015479l-.472217.881482c.563867.30207 1.115124.627093 1.652432.974161zm-24.307127-1.286625c-.596493.301316-1.17899.626306-1.746255.973733l.522236.852802c.545358-.334012 1.104161-.64565 1.675072-.934038zm20.791783-.59707c-.609171-.264861-1.231207-.505685-1.864912-.721274l-.322644.94652c.606001.206148 1.202752.437 1.788961.691881zm-17.053825-.917164c-.639511.199157-1.267781.423813-1.88362.672777l.37459.927191c.592446-.239514 1.194898-.454762 1.806076-.645105zm13.238572-.377826c-.643229-.160324-1.296515-.295227-1.958731-.403579l-.161429.986884c.63255.1035 1.259058.232659 1.87836.387021zm-9.287976-.50001c-.665068.090745-1.321642.208181-1.968607.351191l.216094.976373c.623064-.13772 1.252824-.25013 1.888139-.336804zm3.343187-.226198c-.431638 0-.860669.011162-1.28682.033214l.052027.998645.616313-.023885.61848-.007974c.642738 0 1.282242.025779 1.917527.077052l.079895-.996803c-.658791-.053155-1.324943-.080249-1.997422-.080249z" fill-rule="nonzero"/></g></g></svg>