<svg height="507" viewBox="0 0 800 507" width="800" xmlns="http://www.w3.org/2000/svg"><g fill="none" fill-rule="evenodd"><path d="m131 194h539v162h-539z" fill="var(--illustration-gray)"/><path d="m130.5 95.5h539v316h-539z" stroke="var(--illustration-accent)"/><path d="m400-139.5v540" stroke="var(--illustration-accent)" transform="matrix(0 -1 1 0 269.5 530.5)"/><path d="m400-76.5v540" stroke="var(--illustration-accent)" transform="matrix(0 -1 1 0 206.5 593.5)"/><path d="m400 95.5v540" stroke="var(--illustration-accent)" transform="matrix(0 -1 1 0 34.5 765.5)"/><path d="m314 366h173v3h-173z" fill="var(--illustration-black)"/><g stroke="var(--illustration-accent)" transform="matrix(0 -1 1 0 165 412)"><path d="m158.5-158v317" transform="matrix(0 -1 1 0 158 159)"/><path d="m158.5-148v317" transform="matrix(0 -1 1 0 148 169)"/></g><g stroke="var(--illustration-accent)" transform="matrix(0 -1 1 0 211 412)"><path d="m158.5-158v317" transform="matrix(0 -1 1 0 158 159)"/><path d="m158.5-148v317" transform="matrix(0 -1 1 0 148 169)"/></g><g stroke="var(--illustration-accent)" transform="matrix(0 -1 1 0 533 412)"><path d="m158.5-158v317" transform="matrix(0 -1 1 0 158 159)"/><path d="m158.5-148v317" transform="matrix(0 -1 1 0 148 169)"/></g><g stroke="var(--illustration-accent)" transform="matrix(0 -1 1 0 579 412)"><path d="m158.5-158v317" transform="matrix(0 -1 1 0 158 159)"/><path d="m158.5-148v317" transform="matrix(0 -1 1 0 148 169)"/></g><g stroke="var(--illustration-accent)" transform="matrix(0 -1 1 0 625 412)"><path d="m158.5-158v317" transform="matrix(0 -1 1 0 158 159)"/><path d="m158.5-148v317" transform="matrix(0 -1 1 0 148 169)"/></g><path d="m101 66h598v375h-598z" stroke="var(--illustration-black)" stroke-width="2"/><g fill="var(--illustration-black)"><path d="m314 131h173v3h-173z"/><path d="m314 141h173v3h-173z"/><path d="m314 151h173v3h-173z"/><path d="m314 161h173v3h-173z"/><path d="m314 171h173v3h-173z"/><path d="m314 181h115v3h-115z"/></g><g fill="var(--illustration-black)"><path d="m222 131h81v3h-81z"/><path d="m222 141h81v3h-81z"/><path d="m241 151h62v3h-62z"/></g><g stroke="var(--illustration-accent)" transform="matrix(0 -1 1 0 257 412)"><path d="m158.5-158v317" transform="matrix(0 -1 1 0 158 159)"/><path d="m158.5-148v317" transform="matrix(0 -1 1 0 148 169)"/></g><g stroke="var(--illustration-accent)" transform="matrix(0 -1 1 0 303 412)"><path d="m158.5-158v317" transform="matrix(0 -1 1 0 158 159)"/><path d="m158.5-148v317" transform="matrix(0 -1 1 0 148 169)"/></g><g stroke="var(--illustration-accent)" transform="matrix(0 -1 1 0 349 412)"><path d="m158.5-158v317" transform="matrix(0 -1 1 0 158 159)"/><path d="m158.5-148v317" transform="matrix(0 -1 1 0 148 169)"/></g><g stroke="var(--illustration-accent)" transform="matrix(0 -1 1 0 395 412)"><path d="m158.5-158v317" transform="matrix(0 -1 1 0 158 159)"/><path d="m158.5-148v317" transform="matrix(0 -1 1 0 148 169)"/></g><g stroke="var(--illustration-accent)" transform="matrix(0 -1 1 0 441 412)"><path d="m158.5-158v317" transform="matrix(0 -1 1 0 158 159)"/><path d="m158.5-148v317" transform="matrix(0 -1 1 0 148 169)"/></g><g stroke="var(--illustration-accent)" transform="matrix(0 -1 1 0 487 412)"><path d="m158.5-158v317" transform="matrix(0 -1 1 0 158 159)"/><path d="m158.5-148v317" transform="matrix(0 -1 1 0 148 169)"/></g><g fill="var(--illustration-accent)"><path d="m626 95h9v317h-9z" fill-opacity=".5" opacity=".25"/><path d="m258 95h9v317h-9z" fill-opacity=".5" opacity=".25"/><path d="m304 95h9v317h-9z" fill-opacity=".5" opacity=".25"/><path d="m350 95h9v317h-9z" fill-opacity=".5" opacity=".25"/><path d="m396 95h9v317h-9z" fill-opacity=".5" opacity=".25"/><path d="m442 95h9v317h-9z" fill-opacity=".5" opacity=".25"/><path d="m488 95h9v317h-9z" fill-opacity=".5" opacity=".25"/><path d="m534 95h9v317h-9z" fill-opacity=".5" opacity=".25"/><path d="m580 95h9v317h-9z" fill-opacity=".5" opacity=".25"/><path d="m166 95h9v317h-9z" fill-opacity=".5" opacity=".25"/><path d="m212 95h9v317h-9z" fill-opacity=".5" opacity=".25"/><text font-family="SFCompactRounded-Semibold, SF Compact Rounded" font-size="10" font-weight="500" transform="translate(124 79)"><tspan x="3.949219" y="10">1</tspan></text><text font-family="SFCompactRounded-Semibold, SF Compact Rounded" font-size="10" font-weight="500" transform="translate(164 79)"><tspan x="3.214355" y="10">2</tspan></text><text font-family="SFCompactRounded-Semibold, SF Compact Rounded" font-size="10" font-weight="500" transform="translate(210 79)"><tspan x="3.158203" y="10">3</tspan></text><text font-family="SFCompactRounded-Semibold, SF Compact Rounded" font-size="10" font-weight="500" transform="translate(256 79)"><tspan x="3.060547" y="10">4</tspan></text><text font-family="SFCompactRounded-Semibold, SF Compact Rounded" font-size="10" font-weight="500" transform="translate(302 79)"><tspan x="3.04834" y="10">5</tspan></text><text font-family="SFCompactRounded-Semibold, SF Compact Rounded" font-size="10" font-weight="500" transform="translate(348 79)"><tspan x="3.145996" y="10">6</tspan></text><text font-family="SFCompactRounded-Semibold, SF Compact Rounded" font-size="10" font-weight="500" transform="translate(394 79)"><tspan x="3.304688" y="10">7</tspan></text><text font-family="SFCompactRounded-Semibold, SF Compact Rounded" font-size="10" font-weight="500" transform="translate(440 79)"><tspan x="3.028809" y="10">8</tspan></text><text font-family="SFCompactRounded-Semibold, SF Compact Rounded" font-size="10" font-weight="500" transform="translate(486 79)"><tspan x="3.145996" y="10">9</tspan></text><text font-family="SFCompactRounded-Semibold, SF Compact Rounded" font-size="10" font-weight="500" transform="translate(532 79)"><tspan x="1.041504" y="10">10</tspan></text><text font-family="SFCompactRounded-Semibold, SF Compact Rounded" font-size="10" font-weight="500" transform="translate(578 79)"><tspan x="1.898438" y="10">11</tspan></text><text font-family="SFCompactRounded-Semibold, SF Compact Rounded" font-size="10" font-weight="500" transform="translate(624 79)"><tspan x="1.163574" y="10">12</tspan></text><text font-family="SFCompactRounded-Semibold, SF Compact Rounded" font-size="10" font-weight="500" transform="translate(664 79)"><tspan x="1.107422" y="10">13</tspan></text></g></g></svg>