<?xml version="1.0" encoding="UTF-8"?>
<svg width="800px" height="507px" viewBox="0 0 800 507" version="1.1" xmlns="http://www.w3.org/2000/svg" xmlns:xlink="http://www.w3.org/1999/xlink">
    <title>css-grid-layout copy</title>
    <g id="css-grid-layout-copy" stroke="none" stroke-width="1" fill="none" fill-rule="evenodd">
        <rect id="Rectangle" stroke="#E6594C" x="130.5" y="95.5" width="539" height="316"></rect>
        <line x1="400" y1="-139.5" x2="400" y2="400.5" id="Line" stroke="#E6594C" transform="translate(400.000000, 130.500000) rotate(-90.000000) translate(-400.000000, -130.500000) "></line>
        <line x1="400" y1="-46.5" x2="400" y2="493.5" id="Line" stroke="#E6594C" transform="translate(400.000000, 223.500000) rotate(-90.000000) translate(-400.000000, -223.500000) "></line>
        <line x1="400" y1="43.5" x2="400" y2="583.5" id="Line-Copy" stroke="#E6594C" transform="translate(400.000000, 313.500000) rotate(-90.000000) translate(-400.000000, -313.500000) "></line>
        <line x1="400" y1="56.5" x2="400" y2="596.5" id="Line-Copy" stroke="#E6594C" transform="translate(400.000000, 326.500000) rotate(-90.000000) translate(-400.000000, -326.500000) "></line>
        <g id="Group-Copy-7" transform="translate(170.500000, 253.500000) rotate(-90.000000) translate(-170.500000, -253.500000) translate(12.000000, 248.000000)" stroke="#E6594C">
            <line x1="158.5" y1="-158" x2="158.5" y2="159" id="Line" transform="translate(158.500000, 0.500000) rotate(-90.000000) translate(-158.500000, -0.500000) "></line>
            <line x1="158.5" y1="-148" x2="158.5" y2="169" id="Line-Copy" transform="translate(158.500000, 10.500000) rotate(-90.000000) translate(-158.500000, -10.500000) "></line>
        </g>
        <g id="Group-Copy-8" transform="translate(216.500000, 253.500000) rotate(-90.000000) translate(-216.500000, -253.500000) translate(58.000000, 248.000000)" stroke="#E6594C">
            <line x1="158.5" y1="-158" x2="158.5" y2="159" id="Line" transform="translate(158.500000, 0.500000) rotate(-90.000000) translate(-158.500000, -0.500000) "></line>
            <line x1="158.5" y1="-148" x2="158.5" y2="169" id="Line-Copy" transform="translate(158.500000, 10.500000) rotate(-90.000000) translate(-158.500000, -10.500000) "></line>
        </g>
        <g id="Group-Copy-15" transform="translate(538.500000, 253.500000) rotate(-90.000000) translate(-538.500000, -253.500000) translate(380.000000, 248.000000)" stroke="#E6594C">
            <line x1="158.5" y1="-158" x2="158.5" y2="159" id="Line" transform="translate(158.500000, 0.500000) rotate(-90.000000) translate(-158.500000, -0.500000) "></line>
            <line x1="158.5" y1="-148" x2="158.5" y2="169" id="Line-Copy" transform="translate(158.500000, 10.500000) rotate(-90.000000) translate(-158.500000, -10.500000) "></line>
        </g>
        <g id="Group-Copy-16" transform="translate(584.500000, 253.500000) rotate(-90.000000) translate(-584.500000, -253.500000) translate(426.000000, 248.000000)" stroke="#E6594C">
            <line x1="158.5" y1="-158" x2="158.5" y2="159" id="Line" transform="translate(158.500000, 0.500000) rotate(-90.000000) translate(-158.500000, -0.500000) "></line>
            <line x1="158.5" y1="-148" x2="158.5" y2="169" id="Line-Copy" transform="translate(158.500000, 10.500000) rotate(-90.000000) translate(-158.500000, -10.500000) "></line>
        </g>
        <g id="Group-Copy-17" transform="translate(630.500000, 253.500000) rotate(-90.000000) translate(-630.500000, -253.500000) translate(472.000000, 248.000000)" stroke="#E6594C">
            <line x1="158.5" y1="-158" x2="158.5" y2="159" id="Line" transform="translate(158.500000, 0.500000) rotate(-90.000000) translate(-158.500000, -0.500000) "></line>
            <line x1="158.5" y1="-148" x2="158.5" y2="169" id="Line-Copy" transform="translate(158.500000, 10.500000) rotate(-90.000000) translate(-158.500000, -10.500000) "></line>
        </g>
        <rect id="Rectangle" stroke="#262626" stroke-width="2" x="101" y="66" width="598" height="375"></rect>
        <g id="Group-3" transform="translate(314.000000, 131.000000)" fill="#262626">
            <rect id="Rectangle" x="0" y="0" width="173" height="3"></rect>
            <rect id="Rectangle" x="0" y="10" width="173" height="3"></rect>
            <rect id="Rectangle" x="0" y="20" width="173" height="3"></rect>
            <rect id="Rectangle" x="0" y="30" width="173" height="3"></rect>
            <rect id="Rectangle" x="0" y="40" width="173" height="3"></rect>
            <rect id="Rectangle" x="0" y="50" width="173" height="3"></rect>
            <rect id="Rectangle-Copy" x="0" y="60" width="173" height="3"></rect>
            <rect id="Rectangle-Copy-2" x="0" y="70" width="173" height="3"></rect>
            <rect id="Rectangle" x="0" y="80" width="115" height="3"></rect>
        </g>
        <g id="Group-4" transform="translate(222.000000, 131.000000)" fill="#262626">
            <rect id="Rectangle" x="0" y="0" width="81" height="3"></rect>
            <rect id="Rectangle" x="0" y="10" width="81" height="3"></rect>
            <rect id="Rectangle" x="19" y="20" width="62" height="3"></rect>
        </g>
        <g id="Group-4" transform="translate(222.000000, 327.000000)" fill="#262626">
            <rect id="Rectangle" x="0" y="0" width="81" height="3"></rect>
            <rect id="Rectangle" x="0" y="10" width="81" height="3"></rect>
            <rect id="Rectangle" x="19" y="20" width="62" height="3"></rect>
        </g>
        <g id="Group-Copy-6" transform="translate(314.000000, 314.000000)" fill="#101727">
            <rect id="Rectangle" x="0" y="0" width="113" height="3"></rect>
        </g>
        <g id="Group-Copy-6" transform="translate(314.000000, 327.000000)" fill="#262626">
            <rect id="Rectangle" x="0" y="0" width="173" height="3"></rect>
            <rect id="Rectangle" x="0" y="10" width="173" height="3"></rect>
            <rect id="Rectangle" x="0" y="20" width="173" height="3"></rect>
            <rect id="Rectangle" x="0" y="30" width="173" height="3"></rect>
            <rect id="Rectangle" x="0" y="40" width="173" height="3"></rect>
            <rect id="Rectangle" x="0" y="50" width="115" height="3"></rect>
        </g>
        <rect id="Rectangle" fill="#D4D4D4" x="314" y="224" width="173" height="81"></rect>
        <g id="Group-Copy-9" transform="translate(262.500000, 253.500000) rotate(-90.000000) translate(-262.500000, -253.500000) translate(104.000000, 248.000000)" stroke="#E6594C">
            <line x1="158.5" y1="-158" x2="158.5" y2="159" id="Line" transform="translate(158.500000, 0.500000) rotate(-90.000000) translate(-158.500000, -0.500000) "></line>
            <line x1="158.5" y1="-148" x2="158.5" y2="169" id="Line-Copy" transform="translate(158.500000, 10.500000) rotate(-90.000000) translate(-158.500000, -10.500000) "></line>
        </g>
        <g id="Group-Copy-10" transform="translate(308.500000, 253.500000) rotate(-90.000000) translate(-308.500000, -253.500000) translate(150.000000, 248.000000)" stroke="#E6594C">
            <line x1="158.5" y1="-158" x2="158.5" y2="159" id="Line" transform="translate(158.500000, 0.500000) rotate(-90.000000) translate(-158.500000, -0.500000) "></line>
            <line x1="158.5" y1="-148" x2="158.5" y2="169" id="Line-Copy" transform="translate(158.500000, 10.500000) rotate(-90.000000) translate(-158.500000, -10.500000) "></line>
        </g>
        <g id="Group-Copy-11" transform="translate(354.500000, 253.500000) rotate(-90.000000) translate(-354.500000, -253.500000) translate(196.000000, 248.000000)" stroke="#E6594C">
            <line x1="158.5" y1="-158" x2="158.5" y2="159" id="Line" transform="translate(158.500000, 0.500000) rotate(-90.000000) translate(-158.500000, -0.500000) "></line>
            <line x1="158.5" y1="-148" x2="158.5" y2="169" id="Line-Copy" transform="translate(158.500000, 10.500000) rotate(-90.000000) translate(-158.500000, -10.500000) "></line>
        </g>
        <g id="Group-Copy-12" transform="translate(400.500000, 253.500000) rotate(-90.000000) translate(-400.500000, -253.500000) translate(242.000000, 248.000000)" stroke="#E6594C">
            <line x1="158.5" y1="-158" x2="158.5" y2="159" id="Line" transform="translate(158.500000, 0.500000) rotate(-90.000000) translate(-158.500000, -0.500000) "></line>
            <line x1="158.5" y1="-148" x2="158.5" y2="169" id="Line-Copy" transform="translate(158.500000, 10.500000) rotate(-90.000000) translate(-158.500000, -10.500000) "></line>
        </g>
        <g id="Group-Copy-13" transform="translate(446.500000, 253.500000) rotate(-90.000000) translate(-446.500000, -253.500000) translate(288.000000, 248.000000)" stroke="#E6594C">
            <line x1="158.5" y1="-158" x2="158.5" y2="159" id="Line" transform="translate(158.500000, 0.500000) rotate(-90.000000) translate(-158.500000, -0.500000) "></line>
            <line x1="158.5" y1="-148" x2="158.5" y2="169" id="Line-Copy" transform="translate(158.500000, 10.500000) rotate(-90.000000) translate(-158.500000, -10.500000) "></line>
        </g>
        <g id="Group-Copy-14" transform="translate(492.500000, 253.500000) rotate(-90.000000) translate(-492.500000, -253.500000) translate(334.000000, 248.000000)" stroke="#E6594C">
            <line x1="158.5" y1="-158" x2="158.5" y2="159" id="Line" transform="translate(158.500000, 0.500000) rotate(-90.000000) translate(-158.500000, -0.500000) "></line>
            <line x1="158.5" y1="-148" x2="158.5" y2="169" id="Line-Copy" transform="translate(158.500000, 10.500000) rotate(-90.000000) translate(-158.500000, -10.500000) "></line>
        </g>
        <rect id="Rectangle-Copy-12" fill-opacity="0.5" fill="#E6594C" opacity="0.25" style="mix-blend-mode: multiply;" x="626" y="95" width="9" height="317"></rect>
        <rect id="Rectangle-Copy-4" fill-opacity="0.5" fill="#E6594C" opacity="0.25" style="mix-blend-mode: multiply;" x="258" y="95" width="9" height="317"></rect>
        <rect id="Rectangle-Copy-5" fill-opacity="0.5" fill="#E6594C" opacity="0.25" style="mix-blend-mode: multiply;" x="304" y="95" width="9" height="317"></rect>
        <rect id="Rectangle-Copy-6" fill-opacity="0.5" fill="#E6594C" opacity="0.25" style="mix-blend-mode: multiply;" x="350" y="95" width="9" height="317"></rect>
        <rect id="Rectangle-Copy-7" fill-opacity="0.5" fill="#E6594C" opacity="0.25" style="mix-blend-mode: multiply;" x="396" y="95" width="9" height="317"></rect>
        <rect id="Rectangle-Copy-8" fill-opacity="0.5" fill="#E6594C" opacity="0.25" style="mix-blend-mode: multiply;" x="442" y="95" width="9" height="317"></rect>
        <rect id="Rectangle-Copy-9" fill-opacity="0.5" fill="#E6594C" opacity="0.25" style="mix-blend-mode: multiply;" x="488" y="95" width="9" height="317"></rect>
        <rect id="Rectangle-Copy-10" fill-opacity="0.5" fill="#E6594C" opacity="0.25" style="mix-blend-mode: multiply;" x="534" y="95" width="9" height="317"></rect>
        <rect id="Rectangle-Copy-11" fill-opacity="0.5" fill="#E6594C" opacity="0.25" style="mix-blend-mode: multiply;" x="580" y="95" width="9" height="317"></rect>
        <rect id="Rectangle" fill-opacity="0.5" fill="#E6594C" opacity="0.25" style="mix-blend-mode: multiply;" x="166" y="95" width="9" height="317"></rect>
        <rect id="Rectangle-Copy-3" fill-opacity="0.5" fill="#E6594C" opacity="0.25" style="mix-blend-mode: multiply;" x="212" y="95" width="9" height="317"></rect>
    </g>
</svg>