<svg height="440" viewBox="0 0 800 440" width="800" xmlns="http://www.w3.org/2000/svg"><g fill="none" fill-rule="evenodd"><g fill="var(--illustration-black)" fill-rule="nonzero" transform="translate(149 104)"><path d="m73.8 144.6c0 9.76-3.84 17.96-11.52 24.6s-16.96 9.96-27.84 9.96c-3.84 0-9.76-.84-17.76-2.52-6-1.2-10.08-1.8-12.24-1.8-.64-5.6-2.12-14.12-4.44-25.56 0-1.2 1.16-1.8 3.48-1.8 1.92 0 3.08.64 3.48 1.92 1.84 5.92 5.48 11.08 10.92 15.48s11.04 6.6 16.8 6.6c6 0 10.66-1.64 13.98-4.92s4.98-7.88 4.98-13.8c0-3.76-1.38-7.08-4.14-9.96s-8.74-6.44-17.94-10.68c-12.08-5.52-20.06-10.72-23.94-15.6s-5.82-10.72-5.82-17.52c0-8.4 3.64-15.62 10.92-21.66s15.88-9.06 25.8-9.06c4.16 0 10 .72 17.52 2.16 4.16.8 6.88 1.2 8.16 1.2.24 9.44.76 17.48 1.56 24.12 0 1.2-1.16 1.8-3.48 1.8-2 0-3.12-.64-3.36-1.92-.88-5.84-3.08-10.58-6.6-14.22s-7.72-5.46-12.6-5.46c-12.48 0-18.72 5.44-18.72 16.32 0 3.68 1.48 7.08 4.44 10.2s9.4 7.16 19.32 12.12c11.84 5.92 19.64 11.04 23.4 15.36s5.64 9.2 5.64 14.64z"/><path d="m203.28 123.24c0 14.72-5.2 27.72-15.6 39s-22.44 16.92-36.12 16.92c-7.6 0-14.96-1.6-22.08-4.8-4.88-2.24-9.2-3.36-12.96-3.36-6 0-9.96 2.56-11.88 7.68-.4.96-1.4 1.44-3 1.44-2.08 0-3.12-.64-3.12-1.92.64-6.72.96-14.8.96-24.24v-117c0-6.48-.82-10.72-2.46-12.72s-5.22-3.28-10.74-3.84c-1.28 0-1.92-.96-1.92-2.88 0-2.24.64-3.36 1.92-3.36 14.24-3.68 24.36-7.92 30.36-12.72 1.2-.96 2.2-1.44 3-1.44 2.24 0 3.36.64 3.36 1.92-1.28 17.44-1.92 31.44-1.92 42v35.88c7.52-7.52 16.72-11.28 27.6-11.28 16.24 0 29.4 4.92 39.48 14.76s15.12 23.16 15.12 39.96zm-24.12.96c0-14.72-2.92-26.24-8.76-34.56s-14.04-12.48-24.6-12.48c-5.68 0-11.22 2.14-16.62 6.42s-8.1 8.54-8.1 12.78v55.44c0 4.24 3.22 8.54 9.66 12.9s12.42 6.54 17.94 6.54c9.6 0 17.08-4.28 22.44-12.84s8.04-19.96 8.04-34.2z"/></g><path d="m194.28 123c0 14.8-5.22 27.82-15.66 39.06s-22.58 16.86-36.42 16.86c-7.52 0-14.8-1.56-21.84-4.68-4.96-2.16-9.28-3.24-12.96-3.24-5.92 0-9.92 2.48-12 7.44-.4.96-1.4 1.44-3 1.44-1.92 0-2.88-.64-2.88-1.92.64-6.72.96-14.8.96-24.24v-117c0-14.24-7.52-21.36-22.56-21.36-18.72 0-28.08 12-28.08 36v96.84c0 8.08.84 13.3 2.52 15.66s5.88 3.94 12.6 4.74c1.28 0 1.92 1.12 1.92 3.36s-.64 3.36-1.92 3.36c-3.28 0-7.32-.24-12.12-.72-5.28-.48-9.88-.72-13.8-.72s-8.72.24-14.4.72c-5.12.48-9.36.72-12.72.72-1.28 0-1.92-1.12-1.92-3.36s.64-3.36 1.92-3.36c6.96-.8 11.42-2.4 13.38-4.8s2.94-7.6 2.94-15.6v-57.12c0-2.24-.96-3.36-2.88-3.36h-12.24c-1.6 0-2.4-1.04-2.4-3.12 0-2 .72-3.2 2.16-3.6 10.24-2.72 15.36-4.96 15.36-6.72 0-12.16 2.96-24.1 8.88-35.82s13.74-20.9 23.46-27.54 20.38-9.96 31.98-9.96c7.36 0 13.6 1.52 18.72 4.56 2.48-1.44 4.6-2.84 6.36-4.2 1.12-.88 2.08-1.32 2.88-1.32 2.24 0 3.36.64 3.36 1.92-1.28 13.12-1.92 27.04-1.92 41.76v35.88c7.52-7.52 16.64-11.28 27.36-11.28 16.4 0 29.66 4.92 39.78 14.76s15.18 23.16 15.18 39.96zm-24.48.96c0-14.8-2.9-26.34-8.7-34.62s-14.02-12.42-24.66-12.42c-5.52 0-10.98 2.16-16.38 6.48s-8.1 8.56-8.1 12.72v55.44c0 4.32 3.2 8.64 9.6 12.96s12.4 6.48 18 6.48c9.6 0 17.04-4.24 22.32-12.72s7.92-19.92 7.92-34.32z" fill="var(--illustration-black)" fill-rule="nonzero" transform="translate(457.36 104.24)"/><g fill="var(--illustration-accent)"><text font-family="SFProText-Regular, SF Pro Text" font-size="16"><tspan x="497.249219" y="332.12">Historical form</tspan></text><text font-family="SFProText-Regular, SF Pro Text" font-size="16"><tspan x="194.546094" y="332.12">Standard form</tspan></text><path d="m552.834697 139.886543-.053573.998564c.43669.023164.876413.034893 1.318876.034893.211862 0 .423096-.002689.63367-.008035l-.025459-.999676c-.202403.005138-.40515.007711-.608211.007711-.423243 0-.845103-.011179-1.265303-.033457zm5.900204.595652-.188552-.982063c-.626577.119959-1.259315.214518-1.897105.283284l.107615.994193c.667754-.072008 1.327468-.170846 1.978042-.295414zm-9.701336-1.109508-.214382.97675c.647332.142207 1.304257.258817 1.969659.348714l.13445-.990921c-.635828-.085886-1.266117-.197542-1.889727-.334543zm13.601487.019662-.348609-.937268c-.5988.222557-1.207024.420613-1.823412.593567l.270358.96276c.645047-.181002 1.279328-.387748 1.901663-.619059zm-17.284466-1.154839-.372182.928159c.615932.247233 1.244234.470173 1.883718.667634l.29568-.955288c-.611504-.188802-1.214335-.402515-1.807216-.640505zm20.93716-.559284-.49791-.867229c-.554494.318598-1.12185.614444-1.700734.886701l.425882.904779c.604857-.284483 1.196187-.592976 1.772762-.924251zm-24.362783-1.153812-.518969.854794c.568713.345181 1.152594.667868 1.750407.966825l.447226-.89442c-.572022-.286062-1.132023-.595417-1.678664-.927199zm27.67608-1.130639-.632494-.774566c-.49524.405108-1.006731.789926-1.533159 1.153395l.568061.822986c.54919-.379179 1.082139-.780203 1.597592-1.201815zm-30.808484-1.142549-.650975.759099c.505087.43398 1.028059.847729 1.567659 1.239991l.587646-.809119c-.517303-.376067-1.01918-.773088-1.50433-1.189971zm33.651924-1.591041-.748264-.663401c-.42429.478924-.8679.940487-1.329633 1.383456l.691933.721962c.481216-.461641.943625-.942735 1.385964-1.442017zm-36.355534-1.144522-.766404.642359c.429069.511393.878642 1.005003 1.347454 1.479563l.711268-.702921c-.449799-.455321-.880962-.928741-1.292318-1.419001zm38.781591-2.095889-.847128-.531389c-.340021.54213-.702073 1.070221-1.085154 1.582942l.800998.598666c.398756-.533693.776268-1.084184 1.131284-1.650219zm-40.987705-1.012471-.859193.511652c.341186.574086.70516 1.133043 1.090675 1.675625l.814991-.579473c-.370534-.521513-.719682-1.057892-1.046473-1.607804zm42.838351-2.561538-.922931-.384964c-.246281.59037-.516624 1.170131-.810258 1.73796l.888173.45951c.305396-.590563.587475-1.195138.845016-1.812506zm-44.532059-.912652-.931972.362532c.242614.623958.510056 1.235517.801112 1.833462l.898847-.438262c-.279826-.574915-.536067-1.161265-.767987-1.757732zm45.76287-2.891479-.97363-.228135c-.146459.623754-.3183 1.240172-.514981 1.848025l.951226.308493c.204496-.631944.384012-1.275126.537385-1.928383zm-46.861861-.822939-.979108.203341c.136207.656594.298692 1.303565.486305 1.939764l.959143-.282924c-.180601-.612424-.336218-1.232886-.46634-1.860181zm47.454653-3.140781-.99775-.067045c-.04281.64081-.111476 1.277274-.205648 1.908324l.989021.147769c.097738-.654907.169555-1.318282.214377-1.989048zm-47.926526-.722466-.999222.03944c.026299.672072.079671 1.337191.159054 1.994298l.992665-.120898c-.07645-.633048-.12739-1.271006-.152497-1.91284zm47.98013-1.21902c-.007631-.672797-.04238-1.33908-.103207-1.997806l-.995773.091839c.058624.634851.091736 1.274121.099038 1.91681zm-48.820056-2.687615c-.079399.65678-.132811 1.321565-.159178 1.993298l.999225.039359c.025184-.641678.076189-1.279479.152692-1.912371zm48.441635-1.35094c-.117605-.660735-.261694-1.312305-.431132-1.953575l-.966707.255887c.163065.617198.30099 1.241875.4133 1.872854zm-47.636728-2.571714c-.186299.636561-.347453 1.283859-.482316 1.940747l.979508.201404c.128803-.627412.283096-1.248034.462373-1.860663zm46.599791-1.337239c-.224879-.630591-.474864-1.249262-.748752-1.85481l-.911108.412167c.263442.582457.503003 1.17576.717985 1.778607zm-45.147112-2.432002c-.289862.598681-.556076 1.210945-.797428 1.835579l.932936.360043c.230647-.5969.485631-1.183726.764218-1.759165zm43.483734-1.239288c-.325312-.584185-.673829-1.153676-1.044305-1.707228l-.830835.556519c.355823.531677.689834 1.077644 1.0011 1.636564zm-41.461825-2.192376c-.38351.544336-.745406 1.104995-1.084439 1.68073l.861555.507664c.324709-.551425.671849-1.089391 1.040452-1.612562zm39.225035-1.147108c-.41549-.522226-.851856-1.0271-1.307837-1.51336l-.730049.683395c.437837.466878.85656.951356 1.255023 1.452159zm-36.633572-1.9547468c-.468072.474945-.916901.9689068-1.345221 1.4806208l.76679.641898c.410782-.490764.841394-.964709 1.290665-1.420577zm33.924946-.9378393c-.492844-.4479899-1.004025-.8761637-1.532283-1.2832627l-.610577.7919571c.506641.3904327.997286.8013633 1.470652 1.2316682zm-30.935672-1.6443071c-.538538.3944271-1.060369.8103178-1.564232 1.2464125l.654476.7560827c.483818-.4187427.984443-.8176716 1.500576-1.1956912zm27.736817-.81636c-.558958-.3610418-1.133554-.6999483-1.722548-1.0154793l-.472217.8814823c.563867.3020702 1.115124.6270935 1.652432.9741608zm-24.307127-1.286625c-.596493.3013166-1.17899.6263061-1.746255.9737335l.522236.8528012c.545358-.3340119 1.104161-.6456493 1.675072-.9340376zm20.791783-.5970695c-.609171-.264861-1.231207-.5056848-1.864912-.7212742l-.322644.9465204c.606001.2061471 1.202752.4369993 1.788961.6918808zm-17.053825-.9171646c-.639511.1991574-1.267781.4238132-1.88362.6727777l.37459.9271907c.592446-.2395142 1.194898-.4547624 1.806076-.6451053zm13.238572-.3778261c-.643229-.1603237-1.296515-.2952261-1.958731-.4035785l-.161429.9868843c.63255.1034998 1.259058.2326591 1.87836.3870203zm-9.287976-.5000097c-.665068.0907456-1.321642.208181-1.968607.3511915l.216094.9763727c.623064-.1377199 1.252824-.25013 1.888139-.336804zm3.343187-.2261979c-.431638 0-.860669.0111622-1.28682.0332137l.052027.9986457.616313-.0238855.61848-.0079739c.642738 0 1.282242.0257794 1.917527.0770524l.079895-.9968035c-.658791-.0531552-1.324943-.0802489-1.997422-.0802489z" fill-rule="nonzero"/><path d="m469.167334 203.798016-.1509-.988549c-.619161.094699-1.245785.15439-1.877862.178417l.03759.999294c.674191-.025614 1.338614-.089366 1.991172-.189162zm-5.825076-1.099663-.189966.981791c.64842.125612 1.30961.215428 1.981431.267308l.076862-.997041c-.629829-.048643-1.253302-.132906-1.868327-.252058zm9.727036.026827-.37555-.926802c-.582015.235881-1.177707.438348-1.78464.606213l.26634.963879c.647106-.178966 1.279163-.39417 1.89385-.64329zm-13.332764-1.17034-.410667.911786c.605439.272458 1.229169.511492 1.86884.714751l.302385-.953186c-.599949-.190656-1.18763-.415536-1.760558-.673351zm16.865547-.763305-.578274-.815843c-.513482.363599-1.047287.697626-1.598834 1.000256l.480871.876791c.586683-.3219 1.15291-.67645 1.696237-1.061204zm-20.102504-1.166293-.606459.795114c.529138.403804 1.081983.778123 1.656084 1.120506l.512277-.85882c-.540255-.322195-1.061744-.675101-1.561902-1.0568zm23.055578-1.471097-.745538-.666463c-.419259.469353-.864956.91459-1.334741 1.333362l.665279.746595c.498036-.443946.970529-.915937 1.415-1.413494zm-25.802542-1.177-.772108.635492c.423912.515129.876692 1.005607 1.355866 1.46896l.69547-.718556c-.452311-.437353-.879478-.900123-1.279228-1.385896zm28.129539-2.125127-.878603-.477555c-.300645.552502-.632739 1.087368-.994468 1.602019l.817905.575353c.382801-.544606.735338-1.112026 1.055166-1.699817zm-30.159257-1.002573-.894828.446411c.298381.598674.630056 1.177844.992601 1.735085l.838404-.54505c-.342988-.527156-.655618-1.073499-.936177-1.636446zm31.654913-2.707885-.96451-.264044c-.166696.607436-.36803 1.203681-.60282 1.786297l.927719.373278c.247934-.615287.461912-1.247905.639611-1.895531zm-32.94393-.865399-.973792.227443c.153147.654352.343012 1.294575.567303 1.918375l.941009-.338384c-.212393-.590712-.390928-1.193983-.53452-1.807434zm33.553035-3.092968-.999306-.037253c-.024305.632022-.084268 1.258581-.179235 1.877668l.988572.150748c.100066-.652546.164088-1.316966.189969-1.991163zm-33.986837-.732462-1.000072-.003731v.053c0 .669305.037574 1.329834.110727 1.979593l.993704-.112041c-.051172-.454559-.083642-.912594-.09718-1.373353zm33.947148-1.320018c-.052023-.672171-.142022-1.333696-.267854-1.982431l-.981784.189998c.119336.615163.203766 1.238785.252555 1.868772zm-34.483861-2.648294c-.151202.643646-.266871 1.300988-.344825 1.969843l.993317.115421c.073081-.626934.181703-1.246578.325051-1.856758zm33.70785-1.319608c-.20454-.639429-.444848-1.262863-.718571-1.86795l-.910695.413081c.258926.572471.484941 1.159752.676749 1.759355zm-32.341151-2.462668c-.296496.59451-.560155 1.208266-.788602 1.838891l.940321.34029c.214348-.59167.462453-1.169973.742917-1.732384zm30.705438-1.159938c-.342872-.574137-.717695-1.126987-1.122015-1.656095l-.794188.607672c.381979.499911.735182 1.02117 1.057686 1.561209zm-28.526149-2.187803c-.424449.513081-.82019 1.050779-1.184762 1.610634l.837872.545867c.3432-.52705.716309-1.034217 1.117307-1.51896zm26.084823-1.003019c-.463157-.479958-.953497-.93351-1.468539-1.358178l-.635889.771781c.485486.400315.947931.828035 1.384922 1.280883zm-23.158979-1.80175c-.531945.403418-1.040109.836559-1.522018 1.296949l.691165.722696c.454991-.434644.934359-.843125 1.435634-1.223253zm20.090753-.730219c-.55788-.36269-1.137721-.694447-1.737092-.99284l-.445793.895137c.563217.280387 1.109833.592871 1.637264.935736zm-16.699081-1.28449c-.610629.274748-1.202656.583495-1.773668.923831l.512288.858814c.540121-.321908 1.098294-.612715 1.671945-.870813zm13.066184-.515912c-.623868-.22307-1.264101-.411727-1.91841-.563683l-.226376.97404c.613699.142518 1.217265.319991 1.808321.531339zm-9.219694-.701222c-.660204.127052-1.307205.291206-1.938748.490207l.300227.953868c.598409-.188574 1.208278-.342921 1.82729-.462054zm3.326647-.31579v1c.633159 0 1.261717.035616 1.88375.106263l.112887-.993608c-.655251-.074421-1.321479-.112655-1.996637-.112655zm-.024032.000016c-.424413.000571-.845286.016249-1.262109.046527l.072071.9974c.395227-.028719.792733-.043408 1.192045-.043927z" fill-rule="nonzero"/><path d="m508.167334 290.798016-.1509-.988549c-.619161.094699-1.245785.15439-1.877862.178417l.03759.999294c.674191-.025614 1.338614-.089366 1.991172-.189162zm-5.825076-1.099663-.189966.981791c.64842.125612 1.30961.215428 1.981431.267308l.076862-.997041c-.629829-.048643-1.253302-.132906-1.868327-.252058zm9.727036.026827-.37555-.926802c-.582015.235881-1.177707.438348-1.78464.606213l.26634.963879c.647106-.178966 1.279163-.39417 1.89385-.64329zm-13.332764-1.17034-.410667.911786c.605439.272458 1.229169.511492 1.86884.714751l.302385-.953186c-.599949-.190656-1.18763-.415536-1.760558-.673351zm16.865547-.763305-.578274-.815843c-.513482.363599-1.047287.697626-1.598834 1.000256l.480871.876791c.586683-.3219 1.15291-.67645 1.696237-1.061204zm-20.102504-1.166293-.606459.795114c.529138.403804 1.081983.778123 1.656084 1.120506l.512277-.85882c-.540255-.322195-1.061744-.675101-1.561902-1.0568zm23.055578-1.471097-.745538-.666463c-.419259.469353-.864956.91459-1.334741 1.333362l.665279.746595c.498036-.443946.970529-.915937 1.415-1.413494zm-25.802542-1.177-.772108.635492c.423912.515129.876692 1.005607 1.355866 1.46896l.69547-.718556c-.452311-.437353-.879478-.900123-1.279228-1.385896zm28.129539-2.125127-.878603-.477555c-.300645.552502-.632739 1.087368-.994468 1.602019l.817905.575353c.382801-.544606.735338-1.112026 1.055166-1.699817zm-30.159257-1.002573-.894828.446411c.298381.598674.630056 1.177844.992601 1.735085l.838404-.54505c-.342988-.527156-.655618-1.073499-.936177-1.636446zm31.654913-2.707885-.96451-.264044c-.166696.607436-.36803 1.203681-.60282 1.786297l.927719.373278c.247934-.615287.461912-1.247905.639611-1.895531zm-32.94393-.865399-.973792.227443c.153147.654352.343012 1.294575.567303 1.918375l.941009-.338384c-.212393-.590712-.390928-1.193983-.53452-1.807434zm33.553035-3.092968-.999306-.037253c-.024305.632022-.084268 1.258581-.179235 1.877668l.988572.150748c.100066-.652546.164088-1.316966.189969-1.991163zm-33.986837-.732462-1.000072-.003731v.053c0 .669305.037574 1.329834.110727 1.979593l.993704-.112041c-.051172-.454559-.083642-.912594-.09718-1.373353zm33.947148-1.320018c-.052023-.672171-.142022-1.333696-.267854-1.982431l-.981784.189998c.119336.615163.203766 1.238785.252555 1.868772zm-34.483861-2.648294c-.151202.643646-.266871 1.300988-.344825 1.969843l.993317.115421c.073081-.626934.181703-1.246578.325051-1.856758zm33.70785-1.319608c-.20454-.639429-.444848-1.262863-.718571-1.86795l-.910695.413081c.258926.572471.484941 1.159752.676749 1.759355zm-32.341151-2.462668c-.296496.59451-.560155 1.208266-.788602 1.838891l.940321.34029c.214348-.59167.462453-1.169973.742917-1.732384zm30.705438-1.159938c-.342872-.574137-.717695-1.126987-1.122015-1.656095l-.794188.607672c.381979.499911.735182 1.02117 1.057686 1.561209zm-28.526149-2.187803c-.424449.513081-.82019 1.050779-1.184762 1.610634l.837872.545867c.3432-.52705.716309-1.034217 1.117307-1.51896zm26.084823-1.003019c-.463157-.479958-.953497-.93351-1.468539-1.358178l-.635889.771781c.485486.400315.947931.828035 1.384922 1.280883zm-23.158979-1.80175c-.531945.403418-1.040109.836559-1.522018 1.296949l.691165.722696c.454991-.434644.934359-.843125 1.435634-1.223253zm20.090753-.730219c-.55788-.36269-1.137721-.694447-1.737092-.99284l-.445793.895137c.563217.280387 1.109833.592871 1.637264.935736zm-16.699081-1.28449c-.610629.274748-1.202656.583495-1.773668.923831l.512288.858814c.540121-.321908 1.098294-.612715 1.671945-.870813zm13.066184-.515912c-.623868-.22307-1.264101-.411727-1.91841-.563683l-.226376.97404c.613699.142518 1.217265.319991 1.808321.531339zm-9.219694-.701222c-.660204.127052-1.307205.291206-1.938748.490207l.300227.953868c.598409-.188574 1.208278-.342921 1.82729-.462054zm3.326647-.31579v1c.633159 0 1.261717.035616 1.88375.106263l.112887-.993608c-.655251-.074421-1.321479-.112655-1.996637-.112655zm-.024032.000016c-.424413.000571-.845286.016249-1.262109.046527l.072071.9974c.395227-.028719.792733-.043408 1.192045-.043927z" fill-rule="nonzero"/></g></g></svg>