<svg height="440" viewBox="0 0 800 440" width="800" xmlns="http://www.w3.org/2000/svg"><g fill="none" fill-rule="evenodd"><path d="m129 135.62 541.774355.5" stroke="var(--illustration-accent)" stroke-linecap="square"/><path d="m128.500462 195.119539-.000923 1 3 .002768.000921-1zm4.999998.004614-.000923 1 3 .002768.000921-.999999zm4.999997.004615-.000922 1 3 .002768.000921-1zm4.999998.004614-.000923 1 3 .002768.000922-.999999zm4.999998.004615-.000923 1 3 .002768.000922-1zm4.999998.004614-.000923 1 3 .002768.000922-.999999zm4.999998.004615-.000923 1 3 .002768.000922-1zm4.999998.004614-.000923 1 3 .002768.000921-.999999zm4.999998.004614-.000923 1 3 .002769.000921-1zm4.999997.004615-.000922 1 3 .002768.000921-.999999zm4.999998.004614-.000923 1 3 .002769.000922-1zm4.999998.004615-.000923 1 3 .002768.000922-.999999zm4.999998.004614-.000923 1 3 .002769.000922-1zm4.999998.004615-.000923 1 3 .002768.000922-1zm4.999998.004614-.000923 1 3 .002769.000922-1zm4.999998.004615-.000923 1 3 .002768.000921-1zm4.999998.004614-.000923 1 3 .002768.000921-.999999zm4.999997.004615-.000922 1 3 .002768.000921-1zm4.999998.004614-.000923 1 3 .002768.000922-.999999zm4.999998.004615-.000923 1 3 .002768.000922-1zm4.999998.004614-.000923 1 3 .002768.000922-.999999zm4.999998.004615-.000923 1 3 .002768.000922-1zm4.999998.004614-.000923 1 3 .002768.000922-.999999zm4.999998.004614-.000923 1 3 .002769.000921-1zm4.999998.004615-.000923 1 3 .002768.000921-.999999zm4.999997.004614-.000922 1 3 .002769.000921-1zm4.999998.004615-.000923 1 3 .002768.000922-.999999zm4.999998.004614-.000923 1 3 .002769.000922-1zm4.999998.004615-.000923 1 3 .002768.000922-1zm4.999998.004614-.000923 1 3 .002769.000922-1zm4.999998.004615-.000923 1 3 .002768.000922-1zm4.999998.004614-.000923 1 3 .002768.000921-.999999zm4.999998.004615-.000923 1 3 .002768.000921-1zm4.999997.004614-.000923 1 3 .002768.000922-.999999zm4.999998.004615-.000923 1 3 .002768.000922-1zm4.999998.004614-.000923 1 3 .002768.000922-.999999zm4.999998.004615-.000923 1 3 .002768.000922-1zm4.999998.004614-.000923 1 3 .002768.000922-.999999zm4.999998.004614-.000923 1 3 .002769.000921-1zm4.999998.004615-.000923 1 3 .002768.000921-.999999zm4.999997.004614-.000922 1 3 .002769.000921-1zm4.999998.004615-.000923 1 3 .002768.000922-.999999zm4.999998.004614-.000923 1 3 .002769.000922-1zm4.999998.004615-.000923 1 3 .002768.000922-1zm4.999998.004614-.000923 1 3 .002768.000922-.999999zm4.999998.004615-.000923 1 3 .002768.000922-1zm4.999998.004614-.000923 1 3 .002768.000921-.999999zm4.999998.004615-.000923 1 3 .002768.000921-1zm4.999997.004614-.000922 1 3 .002768.000921-.999999zm4.999998.004615-.000923 1 3 .002768.000922-1zm4.999998.004614-.000923 1 3 .002768.000922-.999999zm4.999998.004614-.000923 1 3 .002769.000922-1zm4.999998.004615-.000923 1 3 .002768.000922-.999999zm4.999998.004614-.000923 1 3 .002769.000922-1zm4.999998.004615-.000923 1 3 .002768.000921-.999999zm4.999998.004614-.000923 1 3 .002769.000921-1zm4.999997.004615-.000922 1 3 .002768.000921-1zm4.999998.004614-.000923 1 3 .002769.000922-1zm4.999998.004615-.000923 1 3 .002768.000922-1zm4.999998.004614-.000923 1 3 .002768.000922-.999999zm4.999998.004615-.000923 1 3 .002768.000922-1zm4.999998.004614-.000923 1 3 .002768.000921-.999999zm4.999998.004615-.000923 1 3 .002768.000921-1zm4.999998.004614-.000923 1 3 .002768.000921-.999999zm4.999997.004615-.000923 1 3 .002768.000922-1zm4.999998.004614-.000923 1 3 .002768.000922-.999999zm4.999998.004614-.000923 1 3 .002769.000922-1zm4.999998.004615-.000923 1 3 .002768.000922-.999999zm4.999998.004614-.000923 1 3 .002769.000922-1zm4.999998.004615-.000923 1 3 .002768.000921-.999999zm4.999998.004614-.000923 1 3 .002769.000921-1zm4.999997.004615-.000922 1 3 .002768.000921-1zm4.999998.004614-.000923 1 3 .002769.000922-1zm4.999998.004615-.000923 1 3 .002768.000922-1zm4.999998.004614-.000923 1 3 .002768.000922-.999999zm4.999998.004615-.000923 1 3 .002768.000922-1zm4.999998.004614-.000923 1 3 .002768.000922-.999999zm4.999998.004615-.000923 1 3 .002768.000921-1zm4.999998.004614-.000923 1 3 .002768.000921-.999999zm4.999997.004615-.000922 1 3 .002768.000921-1zm4.999998.004614-.000923 1 3 .002768.000922-.999999zm4.999998.004614-.000923 1 3 .002769.000922-1zm4.999998.004615-.000923 1 3 .002768.000922-.999999zm4.999998.004614-.000923 1 3 .002769.000922-1zm4.999998.004615-.000923 1 3 .002768.000922-.999999zm4.999998.004614-.000923 1 3 .002769.000921-1zm4.999998.004615-.000923 1 3 .002768.000921-1zm4.999997.004614-.000922 1 3 .002768.000921-.999999zm4.999998.004615-.000923 1 3 .002768.000922-1zm4.999998.004614-.000923 1 3 .002768.000922-.999999zm4.999998.004615-.000923 1 3 .002768.000922-1zm4.999998.004614-.000923 1 3 .002768.000922-.999999zm4.999998.004615-.000923 1 3 .002768.000921-1zm4.999998.004614-.000923 1 3 .002768.000921-.999999zm4.999998.004615-.000923 1 3 .002768.000921-1zm4.999997.004614-.000923 1 3 .002768.000922-.999999zm4.999998.004614-.000923 1 3 .002769.000922-1zm4.999998.004615-.000923 1 3 .002768.000922-.999999zm4.999998.004614-.000923 1 3 .002769.000922-1zm4.999998.004615-.000923 1 3 .002768.000922-.999999zm4.999998.004614-.000923 1 3 .002769.000921-1zm4.999998.004615-.000923 1 3 .002768.000921-1zm4.999997.004614-.000922 1 3 .002768.000921-.999999zm4.999998.004615-.000923 1 3 .002768.000922-1zm4.999998.004614-.000923 1 3 .002768.000922-.999999zm4.999998.004615-.000923 1 3 .002768.000922-1zm4.999998.004614-.000923 1 3 .002768.000922-.999999zm4.999998.004615-.000923 1 3 .002768.000922-1zm4.999998.004614-.000923 1 2.774584.00256.000923-.999999z" fill="var(--illustration-accent)" fill-rule="nonzero"/><path d="m129 280.62 541.774355.5" stroke="var(--illustration-accent)" stroke-linecap="square"/><text fill="var(--illustration-accent)" font-family="SFProText-Regular, SF Pro Text" font-size="16"><tspan x="509.777344" y="331">Petite caps</tspan></text><text fill="var(--illustration-accent)" font-family="SFProText-Regular, SF Pro Text" font-size="16"><tspan x="212.269531" y="331">Small caps</tspan></text><g fill="var(--illustration-black)" fill-rule="nonzero"><g transform="translate(129 134)"><path d="m6.26215139 149c-1.87144754 0-3.38300132-.251568-4.53466135-.754703-1.15166003-.503136-1.72749004-1.185963-1.72749004-2.048481 0-1.006271.61181939-1.904727 1.83545817-2.695369 1.22363878-.790641 2.98711819-1.545345 5.29043824-2.26411 3.74289509-1.150024 7.19787519-2.87506 10.36494029-5.175108 3.167065-2.300049 5.9022576-6.109503 8.2055776-11.428365 4.0308101-9.200193 7.7377158-17.825374 11.1207172-25.8755427 3.3830013-8.0501689 6.5860558-15.9565847 9.6091633-23.7192475 3.0231076-7.7626628 6.1541833-15.8487699 9.3932271-24.2583213 3.2390438-8.4095513 6.6580345-17.573806 10.2569721-27.4927641.7197875-2.0125422 1.3675963-4.0250844 1.9434263-6.0376266s.9357238-4.1688374 1.0796813-6.4688857c1.2956175-.431259 2.5912351-.86251807 3.8868526-1.29377711 1.2956175-.43125905 2.591235-1.07814762 3.8868526-1.9406657 1.2956175-.86251809 2.1953519-2.15629523 2.6992032-3.88133141.5038512-1.72503618.9717131-2.8750603 1.4035856-3.45007236.1439575-.14375301.3239044-.21562952.5398407-.21562952.2159362 0 .3958831.14375302.5398406.43125905.287915.57501205.5398406 1.29377713.7557769 2.15629522.2159362.86251809.4678619 1.72503618.7557769 2.58755427 3.4549801 10.92522916 7.0539176 22.06608776 10.7968127 33.42257596s7.3778216 22.3176556 10.9047806 32.8835022 6.766003 20.0535456 9.717132 28.4630969c2.951129 8.4095514 5.290438 15.2018814 7.017928 20.3769904 2.015405 5.75012 4.174768 10.062711 6.478088 12.937771s4.714608 4.887602 7.233864 6.037626c2.519257 1.150025 5.21846 2.012543 8.09761 2.587555 2.447277.431259 4.246746 1.114086 5.398406 2.04848 1.15166.934395 1.72749 1.904728 1.72749 2.910999 0 .862518-.57583 1.43753-1.72749 1.725036s-2.663214.431259-4.534661.431259c-2.015405 0-4.750598-.107815-8.205578-.323444-3.45498-.21563-7.125896-.431259-11.012749-.646889-3.886852-.215629-7.48579-.323444-10.796813-.323444-2.735192 0-5.542363 0-8.421514 0-2.87915 0-5.542363.035938-7.989641.107815-2.4472775.071876-4.5346613.107814-6.2621514.107814-1.8714475 0-3.3830013-.215629-4.5346613-.646888-1.1516601-.431259-1.7274901-1.078148-1.7274901-1.940666 0-1.006271.7197875-1.868789 2.1593626-2.587554 1.439575-.718765 3.0950863-1.221901 4.9665338-1.509407 4.7505977-.718765 8.1335994-1.940666 10.1490044-3.665702s3.023107-3.737578 3.023107-6.037626c0-2.156296-.467862-5.282924-1.403585-9.379885-.935724-4.09696-2.051395-8.481427-3.347012-13.1534-1.2956179-4.671973-2.5192567-8.804873-3.6709167-12.398698-.2879151-1.1500241-.8277557-1.8328509-1.619522-2.0484804-.7917662-.2156295-2.1953519-.3234443-4.2107569-.3234443h-40.8119522c-.57583 0-1.1876494.2515678-1.8354582.7547033-.6478088.5031356-1.2596281 1.5453449-1.8354582 3.1266281-.4318725 1.4375302-1.15166 3.7016403-2.1593625 6.7923303-1.0077025 3.090689-2.0154051 6.361071-3.0231076 9.811143s-1.8714475 6.540762-2.591235 9.272069c-.7197876 2.731308-1.0796813 4.456344-1.0796813 5.175109 0 3.162566 1.2236388 5.786059 3.6709163 7.870478 2.4472776 2.084418 5.3984064 3.557887 8.8533865 4.420405 4.7505976 1.293777 7.1258964 2.731307 7.1258964 4.31259 0 .862518-.57583 1.473469-1.7274901 1.832851-1.15166.359383-2.6632138.539074-4.5346613.539074s-4.6066401-.071877-8.2055777-.21563-7.4138114-.215629-11.4446215-.215629c-4.7505976 0-9.3572377.215629-13.8199203.646888s-8.49349272.646889-12.09243031.646889zm50.52908371-61.8856729h33.4701195c2.015405 0 3.0231076-.3593826 3.0231076-1.0781476 0-.2875061-.0359894-.6109504-.1079682-.9703329-.0719787-.3593825-.1799469-.7547033-.3239044-1.1859624l-16.8430278-52.6136034c-.8637451-2.5875543-1.5115538-3.8813315-1.9434263-3.8813315-.287915 0-.8637451 1.2219007-1.7274901 3.6657019l-19.6501992 52.829233c-.287915.8625181-.4318725 1.4375302-.4318725 1.7250362 0 .7187651.3958831 1.1500241 1.1876494 1.2937771.7917663.1437531 1.9074369.2156296 3.347012.2156296z"/><path d="m160.656574 148.568741c-.719788 0-1.619522-.21563-2.699203-.646889-1.079682-.431259-1.619522-1.078147-1.619522-1.940665 0-1.150024.57583-1.976604 1.72749-2.47974 1.15166-.503135 2.30332-.82658 3.45498-.970333 3.742895-.718765 7.053917-1.868789 9.933067-3.450072 2.879151-1.581283 4.318726-4.31259 4.318726-8.193922v-58.8668595c0-4.4563435-.935724-7.9064158-2.807172-10.3502171-1.871447-2.4438012-5.110491-4.0250844-9.717131-4.7438495-1.295618-.287506-2.483267-.7906416-3.562948-1.5094066-1.079682-.7187651-1.619522-1.5812832-1.619522-2.5875543 0-.8625181.53984-1.5094067 1.619522-1.9406657 1.079681-.4312591 1.979415-.6468886 2.699203-.6468886 2.87915 0 5.326427.0718765 7.341832.2156295 2.015405.1437531 4.030811.3234443 6.046216.5390739 2.015405.2156295 4.246746.3234442 6.694023.3234442 3.023108 0 6.442099-.1796912 10.256973-.5390738 3.814873-.3593825 7.953652-.5390738 12.416334-.5390738 10.796813 0 19.650199 1.7250362 26.56016 5.1751086 6.90996 3.4500723 10.36494 9.2001929 10.36494 17.2503618 0 6.1813796-1.223639 10.8533526-3.670917 14.0159189-2.447277 3.1625663-5.7583 5.5344911-9.933067 7.1157743-.287915.143753-.467862.3953207-.539841.7547033-.071979.3593825.107968.6109503.539841.7547033 3.023107.8625181 6.118194 2.0844187 9.285259 3.6657019s5.830279 3.9532082 7.989641 7.1157742c2.159363 3.162566 3.239044 7.61891 3.239044 13.36903 0 6.756392-2.015405 12.290883-6.046215 16.603474-4.03081 4.31259-9.357238 7.475156-15.979283 9.487699-6.622045 2.012542-13.963878 3.018813-22.025498 3.018813-1.007703 0-2.951129-.107815-5.830279-.323444-2.87915-.21563-5.938247-.431259-9.177291-.646889-3.239044-.215629-5.938247-.323444-8.097609-.323444-3.886853 0-7.881674.107815-11.984462.323444-4.102789.21563-7.161886.431259-9.177291.646889-2.015405.215629-2.015405.323444 0 .323444zm46.426295-6.468886c7.341832 0 12.920185-2.156295 16.735059-6.468885 3.814874-4.312591 5.722311-9.487699 5.722311-15.525326 0-5.750121-1.223639-10.134588-3.670916-13.153401-2.447278-3.018813-5.866269-5.067294-10.256972-6.145441-4.390704-1.0781479-9.537185-1.6172217-15.439443-1.6172217-1.439575 0-2.807171.2515678-4.102788.7547033-1.295618.5031354-2.303321 1.2219004-3.023108 2.1562954-.719788.934394-1.079681 2.120357-1.079681 3.557887v23.719247c0 3.593826 1.511553 6.612639 4.534661 9.05644 3.023108 2.443802 6.550066 3.665702 10.580877 3.665702zm-7.989642-49.3791604c3.742895 0 7.593758-.3593825 11.55259-1.0781476 3.958831-.718765 7.305843-2.3719247 10.041036-4.959479 2.735192-2.5875543 4.102788-6.6126387 4.102788-12.0752532 0-2.8750603-.467861-5.6423059-1.403585-8.3017367-.935724-2.6594307-2.807172-4.8516642-5.614343-6.5767004s-7.017928-2.5875543-12.632271-2.5875543c-4.03081 0-7.233864.5031356-9.609163 1.5094067s-3.562948 2.7313073-3.562948 5.1751085v23.503618c0 2.1562952.683798 3.5938254 2.051394 4.3125904 1.367596.7187651 3.059097 1.0781476 5.074502 1.0781476z"/></g><g transform="translate(433 134)"><path d="m6.26215139 149c-1.87144754 0-3.38300132-.251568-4.53466135-.754703-1.15166003-.503136-1.72749004-1.185963-1.72749004-2.048481 0-1.006271.61181939-1.904727 1.83545817-2.695369 1.22363878-.790641 2.98711819-1.545345 5.29043824-2.26411 3.74289509-1.150024 7.19787519-2.87506 10.36494029-5.175108 3.167065-2.300049 5.9022576-6.109503 8.2055776-11.428365 4.0308101-9.200193 7.7377158-17.825374 11.1207172-25.8755427 3.3830013-8.0501689 6.5860558-15.9565847 9.6091633-23.7192475 3.0231076-7.7626628 6.1541833-15.8487699 9.3932271-24.2583213 3.2390438-8.4095513 6.6580345-17.573806 10.2569721-27.4927641.7197875-2.0125422 1.3675963-4.0250844 1.9434263-6.0376266s.9357238-4.1688374 1.0796813-6.4688857c1.2956175-.431259 2.5912351-.86251807 3.8868526-1.29377711 1.2956175-.43125905 2.591235-1.07814762 3.8868526-1.9406657 1.2956175-.86251809 2.1953519-2.15629523 2.6992032-3.88133141.5038512-1.72503618.9717131-2.8750603 1.4035856-3.45007236.1439575-.14375301.3239044-.21562952.5398407-.21562952.2159362 0 .3958831.14375302.5398406.43125905.287915.57501205.5398406 1.29377713.7557769 2.15629522.2159362.86251809.4678619 1.72503618.7557769 2.58755427 3.4549801 10.92522916 7.0539176 22.06608776 10.7968127 33.42257596s7.3778216 22.3176556 10.9047806 32.8835022 6.766003 20.0535456 9.717132 28.4630969c2.951129 8.4095514 5.290438 15.2018814 7.017928 20.3769904 2.015405 5.75012 4.174768 10.062711 6.478088 12.937771s4.714608 4.887602 7.233864 6.037626c2.519257 1.150025 5.21846 2.012543 8.09761 2.587555 2.447277.431259 4.246746 1.114086 5.398406 2.04848 1.15166.934395 1.72749 1.904728 1.72749 2.910999 0 .862518-.57583 1.43753-1.72749 1.725036s-2.663214.431259-4.534661.431259c-2.015405 0-4.750598-.107815-8.205578-.323444-3.45498-.21563-7.125896-.431259-11.012749-.646889-3.886852-.215629-7.48579-.323444-10.796813-.323444-2.735192 0-5.542363 0-8.421514 0-2.87915 0-5.542363.035938-7.989641.107815-2.4472775.071876-4.5346613.107814-6.2621514.107814-1.8714475 0-3.3830013-.215629-4.5346613-.646888-1.1516601-.431259-1.7274901-1.078148-1.7274901-1.940666 0-1.006271.7197875-1.868789 2.1593626-2.587554 1.439575-.718765 3.0950863-1.221901 4.9665338-1.509407 4.7505977-.718765 8.1335994-1.940666 10.1490044-3.665702s3.023107-3.737578 3.023107-6.037626c0-2.156296-.467862-5.282924-1.403585-9.379885-.935724-4.09696-2.051395-8.481427-3.347012-13.1534-1.2956179-4.671973-2.5192567-8.804873-3.6709167-12.398698-.2879151-1.1500241-.8277557-1.8328509-1.619522-2.0484804-.7917662-.2156295-2.1953519-.3234443-4.2107569-.3234443h-40.8119522c-.57583 0-1.1876494.2515678-1.8354582.7547033-.6478088.5031356-1.2596281 1.5453449-1.8354582 3.1266281-.4318725 1.4375302-1.15166 3.7016403-2.1593625 6.7923303-1.0077025 3.090689-2.0154051 6.361071-3.0231076 9.811143s-1.8714475 6.540762-2.591235 9.272069c-.7197876 2.731308-1.0796813 4.456344-1.0796813 5.175109 0 3.162566 1.2236388 5.786059 3.6709163 7.870478 2.4472776 2.084418 5.3984064 3.557887 8.8533865 4.420405 4.7505976 1.293777 7.1258964 2.731307 7.1258964 4.31259 0 .862518-.57583 1.473469-1.7274901 1.832851-1.15166.359383-2.6632138.539074-4.5346613.539074s-4.6066401-.071877-8.2055777-.21563-7.4138114-.215629-11.4446215-.215629c-4.7505976 0-9.3572377.215629-13.8199203.646888s-8.49349272.646889-12.09243031.646889zm50.52908371-61.8856729h33.4701195c2.015405 0 3.0231076-.3593826 3.0231076-1.0781476 0-.2875061-.0359894-.6109504-.1079682-.9703329-.0719787-.3593825-.1799469-.7547033-.3239044-1.1859624l-16.8430278-52.6136034c-.8637451-2.5875543-1.5115538-3.8813315-1.9434263-3.8813315-.287915 0-.8637451 1.2219007-1.7274901 3.6657019l-19.6501992 52.829233c-.287915.8625181-.4318725 1.4375302-.4318725 1.7250362 0 .7187651.3958831 1.1500241 1.1876494 1.2937771.7917663.1437531 1.9074369.2156296 3.347012.2156296z"/><path d="m163.463745 148.568741c-.863745 0-1.907437-.071877-3.131076-.21563-1.223638-.143753-1.835458-.718765-1.835458-1.725036 0-1.150024.539841-1.976604 1.619522-2.479739 1.079681-.503136 2.195352-.970333 3.347012-1.401592 2.159363-.718765 4.246746-1.401592 6.262151-2.048481 2.015405-.646888 3.023108-2.479739 3.023108-5.498552v-58.435601c0-3.3063194-.791766-5.7141824-2.375299-7.223589-1.583532-1.5094067-3.45498-2.551616-5.614342-3.1266281-1.15166-.431259-2.267331-.9343946-3.347012-1.5094066-1.079682-.5750121-1.619522-1.3656537-1.619522-2.3719248 0-1.1500241.683798-1.7609744 2.051394-1.8328509s2.33931-.1078148 2.91514-.1078148c2.87915 0 4.966533.0359383 6.262151.1078148 1.295617.0718765 2.519256.1796912 3.670916.3234442 1.15166.1437531 2.807172.2156296 4.966534.2156296 2.015405 0 3.814874-.0718765 5.398407-.2156296 1.583532-.143753 3.383001-.287506 5.398406-.431259s4.462682-.2156295 7.341833-.2156295c10.94077 0 19.794156 1.6172214 26.560159 4.8516642 6.766003 3.2344429 10.149004 8.4454897 10.149004 15.6331404 0 5.7501206-1.583533 10.3142788-4.750598 13.6924747-3.167065 3.3781958-7.053917 5.6423054-11.660557 6.7923304-.57583.143753-.935724.287506-1.079682.431259-.143957.143753.215937.359382 1.079682.646888 2.735192.431259 5.686321 1.43753 8.853386 3.018813 3.167065 1.581284 5.866268 3.773517 8.09761 6.576701 2.231341 2.803184 3.347011 6.289194 3.347011 10.458032 0 6.756391-1.799468 12.039315-5.398406 15.84877-3.598937 3.809455-8.457503 6.468885-14.575697 7.978292s-13.064144 2.26411-20.837849 2.26411c-1.439575 0-3.886852-.21563-7.341832-.646889s-6.837982-.646888-10.149004-.646888c-3.167065 0-6.514077.107815-10.041036.323444-3.526959.21563-6.082205.431259-7.665737.646889-1.583533.215629-1.223639.323444 1.079681.323444zm36.277291-7.115774c7.197875 0 12.776228-1.473469 16.73506-4.420405 3.958831-2.946937 5.938247-7.367343 5.938247-13.261216 0-7.331404-2.447278-12.219006-7.341833-14.662808-4.894555-2.443801-11.156707-3.665702-18.786454-3.665702-2.30332 0-4.282736.359383-5.938247 1.078148-1.655512.718765-2.483267 2.156295-2.483267 4.312591v19.837916c0 3.593825.971713 6.289194 2.915139 8.086107 1.943427 1.796912 4.930545 2.695369 8.961355 2.695369zm-5.614343-42.4790162c9.069323 0 15.5834-1.6172214 19.542231-4.8516643 3.958832-3.2344428 5.938247-7.0079594 5.938247-11.3205499 0-4.1688374-1.475564-7.7267245-4.426693-10.6736613-2.951129-2.9469369-8.745418-4.4204053-17.382868-4.4204053-4.030811 0-6.694024.6109504-7.989642 1.832851-1.295617 1.2219006-1.943426 2.982875-1.943426 5.2829233v18.7597684c0 2.7313073.827755 4.3125905 2.483267 4.7438495 1.655511.4312591 2.915139.6468886 3.778884.6468886z"/></g></g></g></svg>