<svg height="440" viewBox="0 0 800 440" width="800" xmlns="http://www.w3.org/2000/svg"><g fill="none" fill-rule="evenodd"><g fill="var(--illustration-accent)" fill-opacity=".25"><path d="m152 143h52v155h-52z"/><path d="m212 143h102v155h-102z"/><path d="m322 143h98v155h-98z"/><path d="m428 143h117v155h-117z"/><path d="m553 143h95v155h-95z"/></g><g fill="var(--illustration-black)" fill-rule="nonzero" transform="translate(156 143)"><path d="m39.0577526.21648045-11.2210118 3.89664804-27.8367408 8.65921791 2.15788688 8.6592178 28.69989552-9.0921787v93.0865925c0 12.339385 0 37.018156-.4315774 46.326815h10.3578571c-.2157887-5.412011-.4315774-20.349162-.4315774-27.709497v-96.3337988c0-2.3812849.2157887-24.67877094.4315774-26.41061452z"/><path d="m75.4882853 142.877095c14.2420535-14.28771 27.4051637-28.142458 37.5472317-39.399441 23.08939-26.1941344 35.173556-43.9455311 35.173556-64.2946931 0-23.1634078-16.39994-39.1829609-41.647217-39.1829609-14.242053 0-28.9156838 6.49441341-41.4314277 16.452514l4.5315624 8.0097765c11.6525892-9.9581006 24.5999105-15.37011173 36.2524993-15.37011173 20.284137 0 32.368304 13.20530723 32.368304 31.17318433 0 24.8952514-22.226235 49.7905028-77.8997168 105.2094969l1.7263095 6.927375c13.5946873-.649442 28.4841068-.865922 44.6682583-.865922 16.831518 0 31.28936.21648 45.099836.649441 0-3.463687.431577-6.710894 1.078943-9.9581-24.59991.865921-53.0840169.649441-77.4681387.649441z"/><path d="m171.687062 148.722067c11.652589 4.329609 22.873601 6.277933 34.741978 6.277933 30.857783 0 52.436652-16.885475 52.436652-42.213687 0-19.6997208-14.457842-33.9874303-43.373527-38.9664806 21.794658-5.6284916 40.136696-17.9678771 40.136696-40.2653631 0-18.400838-16.184151-33.5544693-41.215639-33.5544693-13.16311 0-27.620952 4.97905028-39.705119 13.6382682l4.099985 8.2262569c10.573646-8.0097765 23.952545-12.77234633 34.957768-12.77234633 20.068348 0 31.936726 11.90642463 31.936726 25.76117323 0 19.4832402-21.147292 32.9050279-55.457693 38.1005586l1.726309 6.7108939c35.820923.2164804 56.968214 12.5558659 56.968214 33.7709495 0 20.132682-17.263095 32.472067-43.589315 32.472067-11.652589 0-23.305178-2.597765-34.957767-6.927374z"/><path d="m350.275034 151.752793h10.142068c-.215789-5.412011-.431577-17.318435-.431577-24.895251v-20.998603c8.19997 0 16.184151.21648 22.873601.43296.215788-3.680167.431577-5.628491 1.294732-9.3086588-7.121027.2164805-15.536786.4329609-24.168333.4329609v-66.0265363c0-2.1648045.215788-28.1424581.431577-30.09078212l-6.689449-.86592179c-1.294733 1.94832403-14.026265 18.40083801-15.968363 20.78212291l-61.499776 78.7988822 2.805252 6.494414c14.457843-.649441 34.526191-.865922 51.14192-.865922h20.715714v5.844972c0 12.772347-.215789 30.740224-.647366 40.265363zm-61.283988-54.3365919 61.715565-79.2318436.215789 79.2318436c-3.452619.2164805-7.552604.2164805-10.142069.2164805-9.710491 0-42.078794 0-51.789285-.2164805z"/><path d="m487 109.322626c0-27.925978-21.147291-43.2960897-56.968214-43.2960897-3.23683 0-7.984181.4329609-10.789434.6494414l2.373675-53.9036313c7.552605 0 21.363081-.2164805 28.484107-.2164805 12.731533 0 22.010447.4329609 31.936726.4329609.431578-2.5977653.863155-6.71089384 1.72631-9.7416201-11.436801.4329609-20.284137.4329609-34.310402.4329609-14.242053 0-23.305178 0-35.605133-.21648045l-1.72631 1.51536313c.215789 7.36033522 0 17.31843572-.431577 25.97765362l-1.078944 21.2150838c-.215788 9.0921788-.863154 17.1019553-1.294732 22.9469274l1.294732 1.0824022c6.905238-.8659218 12.515744-1.2988827 17.047307-1.2988827 30.426205 0 49.415609 10.6075419 49.415609 34.8533524 0 22.297486-18.557827 36.152234-43.589315 36.152234-11.221011 0-21.578869-1.948324-31.289359-5.628491l1.294732 9.74162c9.063125 3.247206 18.989404 4.97905 30.426205 4.97905 30.426205 0 53.084017-17.751397 53.084017-45.677374z"/></g></g></svg>