<svg height="507" viewBox="0 0 800 507" width="800" xmlns="http://www.w3.org/2000/svg"><g fill="none" fill-rule="evenodd"><path d="m91 79h278v136h-278z" stroke="var(--illustration-black)" stroke-width="2"/><path d="m90 216h280v30h-280z" fill="var(--illustration-accent)" fill-opacity=".5" opacity=".25" transform="matrix(1 0 0 -1 0 462)"/><path d="m90 261h280v30h-280z" fill="var(--illustration-accent)" fill-opacity=".5" opacity=".25" transform="matrix(1 0 0 -1 0 552)"/><path d="m91 292h278v136h-278z" stroke="var(--illustration-black)" stroke-width="2"/><g fill="var(--illustration-accent)"><path d="m235 218.5v1h-4v20.091l3.564212-6.336131.245131-.435787.871575.490261-.24513.435788-4.5 8-.435788.774733-.435788-.774733-4.5-8-.24513-.435788.871575-.490261.245131.435787 3.564212 6.336131v-20.091h-4v-1z" fill-rule="nonzero"/><path d="m226 288.5v-1h4v-20.092l-3.564212 6.337131-.245131.435787-.871575-.490261.24513-.435788 4.5-8 .435788-.774733.435788.774733 4.5 8 .24513.435788-.871575.490261-.245131-.435787-3.564212-6.337131v20.092h4v1z" fill-rule="nonzero"/><text font-family="SFCompactRounded-Semibold, SF Compact Rounded" font-size="10" font-weight="500"><tspan x="240" y="234">30px</tspan></text><text font-family="SFCompactRounded-Semibold, SF Compact Rounded" font-size="10" font-weight="500"><tspan x="240" y="281">30px</tspan></text></g><path d="m431 102h278v136h-278z" stroke="var(--illustration-black)" stroke-width="2"/><path d="m430 239h280v30h-280z" fill="var(--illustration-accent)" fill-opacity=".5" opacity=".25" transform="matrix(1 0 0 -1 0 508)"/><path d="m431 270h278v136h-278z" stroke="var(--illustration-black)" stroke-width="2"/><path d="m566 266.5v-1h4v-23h-4v-1h9v1h-4v23h4v1z" fill="var(--illustration-accent)" fill-rule="nonzero"/><text fill="var(--illustration-accent)" font-family="SFCompactRounded-Semibold, SF Compact Rounded" font-size="10" font-weight="500"><tspan x="578" y="257">30px</tspan></text></g></svg>