<svg height="440" viewBox="0 0 800 440" width="800" xmlns="http://www.w3.org/2000/svg"><g fill="none" fill-rule="evenodd"><text fill="var(--illustration-accent)" font-family="SFProText-Regular, SF Pro Text" font-size="16"><tspan x="482.558594" y="309">Alternate styleset</tspan></text><text fill="var(--illustration-accent)" font-family="SFProText-Regular, SF Pro Text" font-size="16"><tspan x="178.679688" y="309">Standard styleset</tspan></text><g fill-rule="nonzero"><path d="m171.24 18.96c0 12-3.8 25.58-11.4 40.74s-16.82 27.48-27.66 36.96-21.46 14.22-31.86 14.22c-9.76 0-16.64-5.6-20.64-16.8-13.6 11.2-24.88 16.8-33.84 16.8-7.28 0-13.02-2.4-17.22-7.2s-6.3-11.2-6.3-19.2c0-9.6 3.62-21.1 10.86-34.5s15.3-24.06 24.18-31.98c-3.2 1.28-6.24 1.92-9.12 1.92-2.48 0-5.88-.64-10.2-1.92-3.84-1.28-6.76-1.92-8.76-1.92-5.2 0-9.26.92-12.18 2.76s-4.38 4.28-4.38 7.32c0 1.44.8 3.2 2.4 5.28 2.24 2.88 3.36 5.68 3.36 8.4 0 5.44-2.8 8.16-8.4 8.16-2.8 0-5.18-1.16-7.14-3.48s-2.94-5.48-2.94-9.48c0-6.88 3.84-14.44 11.52-22.68s14.72-12.36 21.12-12.36c3.44 0 7.76.72 12.96 2.16 4.16 1.12 7.36 1.68 9.6 1.68 2.8 0 6.08-.48 9.84-1.44 1.52-.48 2.56-.72 3.12-.72 1.04 0 1.98.44 2.82 1.32s1.26 1.8 1.26 2.76c0 1.84-2.36 5.8-7.08 11.88-8.8 11.2-14.82 21.14-18.06 29.82s-4.86 17.74-4.86 27.18c0 11.04 4.64 16.56 13.92 16.56 7.44 0 14.4-2.24 20.88-6.72-.48-3.36-.72-6.96-.72-10.8 0-17.36 3.96-33.98 11.88-49.86s16.4-23.82 25.44-23.82c7.84 0 11.76 5.68 11.76 17.04 0 19.76-10.36 40.88-31.08 63.36 2.4 7.2 7.88 10.8 16.44 10.8 11.68 0 21.8-5.78 30.36-17.34s12.84-24.58 12.84-39.06c0-4.96-1.24-9.8-3.72-14.52-1.68-3.12-2.52-5.8-2.52-8.04 0-3.6 1.06-6.54 3.18-8.82s4.98-3.42 8.58-3.42c3.52 0 6.36 1.74 8.52 5.22s3.24 8.06 3.24 13.74zm-54.96 1.68c0-4.32-1.68-6.48-5.04-6.48-5.68 0-10.56 3.98-14.64 11.94s-6.12 17.98-6.12 30.06c0 5.44.56 10.4 1.68 14.88 7.44-8.64 13.32-17.44 17.64-26.4s6.48-16.96 6.48-24z" fill="var(--illustration-black)" transform="translate(148 149.92)"/><path d="m221.04 20.88c0 11.44-3.5 24.44-10.5 39s-15.74 26.76-26.22 36.6c-11.6 10.88-22.96 16.32-34.08 16.32-4.96 0-9.18-1.46-12.66-4.38s-6.22-7.06-8.22-12.42c-6.4 5.28-12.52 9.4-18.36 12.36s-11 4.44-15.48 4.44c-7.52 0-13.4-2.56-17.64-7.68-3.92-4.72-5.88-10.96-5.88-18.72 0-9.92 3.88-21.88 11.64-35.88 7.12-12.88 14.92-23.08 23.4-30.6-4.56 2-9.12 3.46-13.68 4.38s-10.08 1.38-16.56 1.38c-3.76 0-8.34-.86-13.74-2.58s-10.66-3.42-15.78-5.1c-6.48-1.76-12.8-2.64-18.96-2.64-5.04 0-8.86.78-11.46 2.34s-3.9 3.98-3.9 7.26c0 1.28.92 3.2 2.76 5.76s2.76 5.12 2.76 7.68c0 2.72-.72 4.8-2.16 6.24s-3.44 2.16-6 2.16c-2.48 0-4.68-.92-6.6-2.76-2.48-2.4-3.72-5.8-3.72-10.2 0-8.32 3.8-16.04 11.4-23.16s15.4-10.68 23.4-10.68c5.44 0 11.76.92 18.96 2.76 15.92 4.08 25.04 6.12 27.36 6.12 6.72 0 13.28-.52 19.68-1.56 5.68-1.2 11.36-2.44 17.04-3.72 1.04 0 1.98.42 2.82 1.26s1.26 1.78 1.26 2.82c0 1.84-2.56 6.04-7.68 12.6-6.72 8.56-11.56 15.96-14.52 22.2-5.2 10.8-7.8 22.16-7.8 34.08 0 5.36 1.22 9.46 3.66 12.3s5.94 4.26 10.5 4.26c3.68 0 7.32-.6 10.92-1.8s6.92-2.84 9.96-4.92c-.32-1.36-.56-3.04-.72-5.04s-.24-3.92-.24-5.76c0-17.2 3.94-33.74 11.82-49.62s16.42-23.82 25.62-23.82c3.68 0 6.6 1.42 8.76 4.26s3.24 7.02 3.24 12.54c0 10.08-3.04 20.92-9.12 32.52-5.36 10.32-12.8 20.6-22.32 30.84 1.2 3.52 3.24 6.2 6.12 8.04s6.36 2.76 10.44 2.76c12 0 22.36-6.04 31.08-18.12 8.24-11.44 12.36-24.2 12.36-38.28 0-4.32-.64-7.96-1.92-10.92-3.04-7.04-4.56-10.92-4.56-11.64 0-3.44 1-6.3 3-8.58s4.92-3.42 8.76-3.42c3.6 0 6.46 1.62 8.58 4.86s3.18 7.86 3.18 13.86zm-54.72 1.92c0-2.08-.42-3.72-1.26-4.92s-2.18-1.8-4.02-1.8c-5.36 0-10.08 3.64-14.16 10.92-4.48 8-6.72 18.36-6.72 31.08 0 2.4.16 5 .48 7.8s.72 5.16 1.2 7.08c7.52-8.48 13.48-17.16 17.88-26.04s6.6-16.92 6.6-24.12z" fill="var(--illustration-black)" transform="translate(430 147)"/><path d="m478.834697 179.886543-.053573.998564c.43669.023164.876413.034893 1.318876.034893.211862 0 .423096-.002689.63367-.008035l-.025459-.999676c-.202403.005138-.40515.007711-.608211.007711-.423243 0-.845103-.011179-1.265303-.033457zm5.900204.595652-.188552-.982063c-.626577.119959-1.259315.214518-1.897105.283284l.107615.994193c.667754-.072008 1.327468-.170846 1.978042-.295414zm-9.701336-1.109508-.214382.97675c.647332.142207 1.304257.258817 1.969659.348714l.13445-.990921c-.635828-.085886-1.266117-.197542-1.889727-.334543zm13.601487.019662-.348609-.937268c-.5988.222557-1.207024.420613-1.823412.593567l.270358.96276c.645047-.181002 1.279328-.387748 1.901663-.619059zm-17.284466-1.154839-.372182.928159c.615932.247233 1.244234.470173 1.883718.667634l.29568-.955288c-.611504-.188802-1.214335-.402515-1.807216-.640505zm20.93716-.559284-.49791-.867229c-.554494.318598-1.12185.614444-1.700734.886701l.425882.904779c.604857-.284483 1.196187-.592976 1.772762-.924251zm-24.362783-1.153812-.518969.854794c.568713.345181 1.152594.667868 1.750407.966825l.447226-.89442c-.572022-.286062-1.132023-.595417-1.678664-.927199zm27.67608-1.130639-.632494-.774566c-.49524.405108-1.006731.789926-1.533159 1.153395l.568061.822986c.54919-.379179 1.082139-.780203 1.597592-1.201815zm-30.808484-1.142549-.650975.759099c.505087.43398 1.028059.847729 1.567659 1.239991l.587646-.809119c-.517303-.376067-1.01918-.773088-1.50433-1.189971zm33.651924-1.591041-.748264-.663401c-.42429.478924-.8679.940487-1.329633 1.383456l.691933.721962c.481216-.461641.943625-.942735 1.385964-1.442017zm-36.355534-1.144522-.766404.642359c.429069.511393.878642 1.005003 1.347454 1.479563l.711268-.702921c-.449799-.455321-.880962-.928741-1.292318-1.419001zm38.781591-2.095889-.847128-.531389c-.340021.54213-.702073 1.070221-1.085154 1.582942l.800998.598666c.398756-.533693.776268-1.084184 1.131284-1.650219zm-40.987705-1.012471-.859193.511652c.341186.574086.70516 1.133043 1.090675 1.675625l.814991-.579473c-.370534-.521513-.719682-1.057892-1.046473-1.607804zm42.838351-2.561538-.922931-.384964c-.246281.59037-.516624 1.170131-.810258 1.73796l.888173.45951c.305396-.590563.587475-1.195138.845016-1.812506zm-44.532059-.912652-.931972.362532c.242614.623958.510056 1.235517.801112 1.833462l.898847-.438262c-.279826-.574915-.536067-1.161265-.767987-1.757732zm45.76287-2.891479-.97363-.228135c-.146459.623754-.3183 1.240172-.514981 1.848025l.951226.308493c.204496-.631944.384012-1.275126.537385-1.928383zm-46.861861-.822939-.979108.203341c.136207.656594.298692 1.303565.486305 1.939764l.959143-.282924c-.180601-.612424-.336218-1.232886-.46634-1.860181zm47.454653-3.140781-.99775-.067045c-.04281.64081-.111476 1.277274-.205648 1.908324l.989021.147769c.097738-.654907.169555-1.318282.214377-1.989048zm-47.926526-.722466-.999222.03944c.026299.672072.079671 1.337191.159054 1.994298l.992665-.120898c-.07645-.633048-.12739-1.271006-.152497-1.91284zm47.98013-1.21902c-.007631-.672797-.04238-1.33908-.103207-1.997806l-.995773.091839c.058624.634851.091736 1.274121.099038 1.91681zm-48.820056-2.687615c-.079399.65678-.132811 1.321565-.159178 1.993298l.999225.039359c.025184-.641678.076189-1.279479.152692-1.912371zm48.441635-1.35094c-.117605-.660735-.261694-1.312305-.431132-1.953575l-.966707.255887c.163065.617198.30099 1.241875.4133 1.872854zm-47.636728-2.571714c-.186299.636561-.347453 1.283859-.482316 1.940747l.979508.201404c.128803-.627412.283096-1.248034.462373-1.860663zm46.599791-1.337239c-.224879-.630591-.474864-1.249262-.748752-1.85481l-.911108.412167c.263442.582457.503003 1.17576.717985 1.778607zm-45.147112-2.432002c-.289862.598681-.556076 1.210945-.797428 1.835579l.932936.360043c.230647-.5969.485631-1.183726.764218-1.759165zm43.483734-1.239288c-.325312-.584185-.673829-1.153676-1.044305-1.707228l-.830835.556519c.355823.531677.689834 1.077644 1.0011 1.636564zm-41.461825-2.192376c-.38351.544336-.745406 1.104995-1.084439 1.68073l.861555.507664c.324709-.551425.671849-1.089391 1.040452-1.612562zm39.225035-1.147108c-.41549-.522226-.851856-1.0271-1.307837-1.51336l-.730049.683395c.437837.466878.85656.951356 1.255023 1.452159zm-36.633572-1.954747c-.468072.474945-.916901.968907-1.345221 1.480621l.76679.641898c.410782-.490764.841394-.964709 1.290665-1.420577zm33.924946-.937839c-.492844-.44799-1.004025-.876164-1.532283-1.283263l-.610577.791957c.506641.390433.997286.801364 1.470652 1.231669zm-30.935672-1.644307c-.538538.394427-1.060369.810318-1.564232 1.246412l.654476.756083c.483818-.418743.984443-.817672 1.500576-1.195691zm27.736817-.81636c-.558958-.361042-1.133554-.699948-1.722548-1.015479l-.472217.881482c.563867.30207 1.115124.627093 1.652432.974161zm-24.307127-1.286625c-.596493.301316-1.17899.626306-1.746255.973733l.522236.852802c.545358-.334012 1.104161-.64565 1.675072-.934038zm20.791783-.59707c-.609171-.264861-1.231207-.505685-1.864912-.721274l-.322644.94652c.606001.206148 1.202752.437 1.788961.691881zm-17.053825-.917164c-.639511.199157-1.267781.423813-1.88362.672777l.37459.927191c.592446-.239514 1.194898-.454762 1.806076-.645105zm13.238572-.377826c-.643229-.160324-1.296515-.295227-1.958731-.403579l-.161429.986884c.63255.1035 1.259058.232659 1.87836.387021zm-9.287976-.50001c-.665068.090745-1.321642.208181-1.968607.351191l.216094.976373c.623064-.13772 1.252824-.25013 1.888139-.336804zm3.343187-.226198c-.431638 0-.860669.011162-1.28682.033214l.052027.998645.616313-.023885.61848-.007974c.642738 0 1.282242.025779 1.917527.077052l.079895-.996803c-.658791-.053155-1.324943-.080249-1.997422-.080249z" fill="var(--illustration-accent)"/></g></g></svg>