<svg height="440" viewBox="0 0 800 440" width="800" xmlns="http://www.w3.org/2000/svg"><g fill="none" fill-rule="evenodd"><path d="m137 135.62 526.7806.5" stroke="var(--illustration-accent)" stroke-linecap="square"/><path d="m136.500475 195.119526-.000949 1 3 .002847.000947-1zm4.999998.004745-.00095 1 3 .002847.000948-.999999zm4.999997.004746-.000949 1 3 .002847.000948-.999999zm4.999998.004746-.000949 1 3 .002847.000948-.999999zm4.999998.004746-.000949 1 3 .002847.000947-1zm4.999998.004746-.00095 1 3 .002847.000948-1zm4.999997.004745-.000949 1 3 .002848.000948-1zm4.999998.004746-.000949 1 3 .002847.000948-.999999zm4.999998.004746-.000949 1 3 .002847.000947-.999999zm4.999998.004746-.00095 1 3 .002847.000948-1zm4.999997.004746-.000949 1 3 .002847.000948-1zm4.999998.004746-.000949 1 3 .002847.000948-1zm4.999998.004745-.000949 1 3 .002847.000947-.999999zm4.999998.004746-.00095 1 3 .002847.000948-.999999zm4.999997.004746-.000949 1 3 .002847.000948-1zm4.999998.004746-.000949 1 3 .002847.000948-1zm4.999998.004746-.000949 1 3 .002847.000947-1zm4.999998.004745-.00095 1 3 .002847.000948-.999999zm4.999997.004746-.000949 1 3 .002847.000948-.999999zm4.999998.004746-.000949 1 3 .002847.000948-1zm4.999998.004746-.000949 1 3 .002847.000947-1zm4.999998.004746-.00095 1 3 .002847.000948-1zm4.999997.004745-.000949 1 3 .002847.000948-.999999zm4.999998.004746-.000949 1 3 .002847.000948-.999999zm4.999998.004746-.000949 1 3 .002847.000947-1zm4.999997.004746-.000949 1 3 .002847.000948-1zm4.999998.004746-.000949 1 3 .002847.000948-1zm4.999998.004745-.000949 1 3 .002847.000948-.999999zm4.999998.004746-.000949 1 3 .002847.000947-.999999zm4.999997.004746-.000949 1 3 .002847.000948-.999999zm4.999998.004746-.000949 1 3 .002847.000948-1zm4.999998.004746-.000949 1 3 .002847.000948-1zm4.999998.004745-.000949 1 3 .002847.000947-.999999zm4.999997.004746-.000949 1 3 .002847.000948-.999999zm4.999998.004746-.000949 1 3 .002847.000948-.999999zm4.999998.004746-.000949 1 3 .002847.000948-1zm4.999998.004746-.000949 1 3 .002847.000947-1zm4.999997.004745-.000949 1 3 .002848.000948-1zm4.999998.004746-.000949 1 3 .002847.000948-.999999zm4.999998.004746-.000949 1 3 .002847.000948-.999999zm4.999998.004746-.000949 1 3 .002847.000947-1zm4.999997.004746-.000949 1 3 .002847.000948-1zm4.999998.004746-.000949 1 3 .002847.000948-1zm4.999998.004745-.000949 1 3 .002847.000948-.999999zm4.999998.004746-.000949 1 3 .002847.000947-.999999zm4.999997.004746-.000949 1 3 .002847.000948-1zm4.999998.004746-.000949 1 3 .002847.000948-1zm4.999998.004746-.000949 1 3 .002847.000948-1zm4.999998.004745-.000949 1 3 .002847.000947-.999999zm4.999997.004746-.000949 1 3 .002847.000948-.999999zm4.999998.004746-.000949 1 3 .002847.000948-1zm4.999998.004746-.000949 1 3 .002847.000948-1zm4.999998.004746-.000949 1 3 .002847.000947-1zm4.999997.004745-.000949 1 3 .002847.000948-.999999zm4.999998.004746-.000949 1 3 .002847.000948-.999999zm4.999998.004746-.000949 1 3 .002847.000948-1zm4.999998.004746-.000949 1 3 .002847.000947-1zm4.999997.004746-.000949 1 3 .002847.000948-1zm4.999998.004745-.000949 1 3 .002847.000948-.999999zm4.999998.004746-.000949 1 3 .002847.000948-.999999zm4.999998.004746-.000949 1 3 .002847.000947-.999999zm4.999997.004746-.000949 1 3 .002847.000948-1zm4.999998.004746-.000949 1 3 .002847.000948-1zm4.999998.004745-.000949 1 3 .002847.000948-.999999zm4.999998.004746-.00095 1 3 .002847.000948-.999999zm4.999997.004746-.000949 1 3 .002847.000948-.999999zm4.999998.004746-.000949 1 3 .002847.000948-1zm4.999998.004746-.000949 1 3 .002847.000948-1zm4.999998.004745-.00095 1 3 .002848.000948-1zm4.999997.004746-.000949 1 3 .002847.000948-.999999zm4.999998.004746-.000949 1 3 .002847.000948-.999999zm4.999998.004746-.000949 1 3 .002847.000948-1zm4.999998.004746-.00095 1 3 .002847.000948-1zm4.999997.004746-.000949 1 3 .002847.000948-1zm4.999998.004745-.000949 1 3 .002847.000948-.999999zm4.999998.004746-.000949 1 3 .002847.000948-.999999zm4.999998.004746-.00095 1 3 .002847.000948-1zm4.999997.004746-.000949 1 3 .002847.000948-1zm4.999998.004746-.000949 1 3 .002847.000948-1zm4.999998.004745-.000949 1 3 .002847.000948-.999999zm4.999998.004746-.00095 1 3 .002847.000948-.999999zm4.999997.004746-.000949 1 3 .002847.000948-1zm4.999998.004746-.000949 1 3 .002847.000948-1zm4.999998.004746-.000949 1 3 .002847.000948-1zm4.999998.004745-.00095 1 3 .002847.000948-.999999zm4.999997.004746-.000949 1 3 .002847.000948-.999999zm4.999998.004746-.000949 1 3 .002847.000948-.999999zm4.999998.004746-.000949 1 3 .002847.000948-1zm4.999998.004746-.00095 1 3 .002847.000948-1zm4.999997.004745-.000949 1 3 .002847.000948-.999999zm4.999998.004746-.000949 1 3 .002847.000948-.999999zm4.999998.004746-.000949 1 3 .002847.000947-.999999zm4.999998.004746-.00095 1 3 .002847.000948-1zm4.999997.004746-.000949 1 3 .002847.000948-1zm4.999998.004745-.000949 1 3 .002848.000948-1zm4.999998.004746-.000949 1 3 .002847.000947-.999999zm4.999998.004746-.00095 1 3 .002847.000948-.999999zm4.999997.004746-.000949 1 3 .002847.000948-1zm4.999998.004746-.000949 1 3 .002847.000948-1zm4.999998.004746-.000949 1 3 .002847.000947-1zm4.999998.004745-.00095 1 3 .002847.000948-.999999zm4.999997.004746-.000949 1 3 .002847.000948-.999999zm4.999998.004746-.000949 1 3 .002847.000948-1zm4.999998.004746-.000949 1 3 .002847.000947-1zm4.999998.004746-.00095 1 3 .002847.000948-1zm4.999997.004745-.000949 1 2.780836.002639.000949-.999999z" fill="var(--illustration-accent)" fill-rule="nonzero"/><path d="m137 280.62 526.7806.5" stroke="var(--illustration-accent)" stroke-linecap="square"/><text fill="var(--illustration-accent)" font-family="SFProText-Regular, SF Pro Text" font-size="16"><tspan x="517.289062" y="331">All petite caps</tspan></text><text fill="var(--illustration-accent)" font-family="SFProText-Regular, SF Pro Text" font-size="16"><tspan x="220.269531" y="331">Small caps</tspan></text><g fill="var(--illustration-black)" fill-rule="nonzero"><g transform="translate(137 134)"><path d="m6.26215139 149c-1.87144754 0-3.38300132-.251568-4.53466135-.754703-1.15166003-.503136-1.72749004-1.185963-1.72749004-2.048481 0-1.006271.61181939-1.904727 1.83545817-2.695369 1.22363878-.790641 2.98711819-1.545345 5.29043824-2.26411 3.74289509-1.150024 7.19787519-2.87506 10.36494029-5.175108 3.167065-2.300049 5.9022576-6.109503 8.2055776-11.428365 4.0308101-9.200193 7.7377158-17.825374 11.1207172-25.8755427 3.3830013-8.0501689 6.5860558-15.9565847 9.6091633-23.7192475 3.0231076-7.7626628 6.1541833-15.8487699 9.3932271-24.2583213 3.2390438-8.4095513 6.6580345-17.573806 10.2569721-27.4927641.7197875-2.0125422 1.3675963-4.0250844 1.9434263-6.0376266s.9357238-4.1688374 1.0796813-6.4688857c1.2956175-.431259 2.5912351-.86251807 3.8868526-1.29377711 1.2956175-.43125905 2.591235-1.07814762 3.8868526-1.9406657 1.2956175-.86251809 2.1953519-2.15629523 2.6992032-3.88133141.5038512-1.72503618.9717131-2.8750603 1.4035856-3.45007236.1439575-.14375301.3239044-.21562952.5398407-.21562952.2159362 0 .3958831.14375302.5398406.43125905.287915.57501205.5398406 1.29377713.7557769 2.15629522.2159362.86251809.4678619 1.72503618.7557769 2.58755427 3.4549801 10.92522916 7.0539176 22.06608776 10.7968127 33.42257596s7.3778216 22.3176556 10.9047806 32.8835022 6.766003 20.0535456 9.717132 28.4630969c2.951129 8.4095514 5.290438 15.2018814 7.017928 20.3769904 2.015405 5.75012 4.174768 10.062711 6.478088 12.937771s4.714608 4.887602 7.233864 6.037626c2.519257 1.150025 5.21846 2.012543 8.09761 2.587555 2.447277.431259 4.246746 1.114086 5.398406 2.04848 1.15166.934395 1.72749 1.904728 1.72749 2.910999 0 .862518-.57583 1.43753-1.72749 1.725036s-2.663214.431259-4.534661.431259c-2.015405 0-4.750598-.107815-8.205578-.323444-3.45498-.21563-7.125896-.431259-11.012749-.646889-3.886852-.215629-7.48579-.323444-10.796813-.323444-2.735192 0-5.542363 0-8.421514 0-2.87915 0-5.542363.035938-7.989641.107815-2.4472775.071876-4.5346613.107814-6.2621514.107814-1.8714475 0-3.3830013-.215629-4.5346613-.646888-1.1516601-.431259-1.7274901-1.078148-1.7274901-1.940666 0-1.006271.7197875-1.868789 2.1593626-2.587554 1.439575-.718765 3.0950863-1.221901 4.9665338-1.509407 4.7505977-.718765 8.1335994-1.940666 10.1490044-3.665702s3.023107-3.737578 3.023107-6.037626c0-2.156296-.467862-5.282924-1.403585-9.379885-.935724-4.09696-2.051395-8.481427-3.347012-13.1534-1.2956179-4.671973-2.5192567-8.804873-3.6709167-12.398698-.2879151-1.1500241-.8277557-1.8328509-1.619522-2.0484804-.7917662-.2156295-2.1953519-.3234443-4.2107569-.3234443h-40.8119522c-.57583 0-1.1876494.2515678-1.8354582.7547033-.6478088.5031356-1.2596281 1.5453449-1.8354582 3.1266281-.4318725 1.4375302-1.15166 3.7016403-2.1593625 6.7923303-1.0077025 3.090689-2.0154051 6.361071-3.0231076 9.811143s-1.8714475 6.540762-2.591235 9.272069c-.7197876 2.731308-1.0796813 4.456344-1.0796813 5.175109 0 3.162566 1.2236388 5.786059 3.6709163 7.870478 2.4472776 2.084418 5.3984064 3.557887 8.8533865 4.420405 4.7505976 1.293777 7.1258964 2.731307 7.1258964 4.31259 0 .862518-.57583 1.473469-1.7274901 1.832851-1.15166.359383-2.6632138.539074-4.5346613.539074s-4.6066401-.071877-8.2055777-.21563-7.4138114-.215629-11.4446215-.215629c-4.7505976 0-9.3572377.215629-13.8199203.646888s-8.49349272.646889-12.09243031.646889zm50.52908371-61.8856729h33.4701195c2.015405 0 3.0231076-.3593826 3.0231076-1.0781476 0-.2875061-.0359894-.6109504-.1079682-.9703329-.0719787-.3593825-.1799469-.7547033-.3239044-1.1859624l-16.8430278-52.6136034c-.8637451-2.5875543-1.5115538-3.8813315-1.9434263-3.8813315-.287915 0-.8637451 1.2219007-1.7274901 3.6657019l-19.6501992 52.829233c-.287915.8625181-.4318725 1.4375302-.4318725 1.7250362 0 .7187651.3958831 1.1500241 1.1876494 1.2937771.7917663.1437531 1.9074369.2156296 3.347012.2156296z"/><path d="m160.656574 148.568741c-.719788 0-1.619522-.21563-2.699203-.646889-1.079682-.431259-1.619522-1.078147-1.619522-1.940665 0-1.150024.57583-1.976604 1.72749-2.47974 1.15166-.503135 2.30332-.82658 3.45498-.970333 3.742895-.718765 7.053917-1.868789 9.933067-3.450072 2.879151-1.581283 4.318726-4.31259 4.318726-8.193922v-58.8668595c0-4.4563435-.935724-7.9064158-2.807172-10.3502171-1.871447-2.4438012-5.110491-4.0250844-9.717131-4.7438495-1.295618-.287506-2.483267-.7906416-3.562948-1.5094066-1.079682-.7187651-1.619522-1.5812832-1.619522-2.5875543 0-.8625181.53984-1.5094067 1.619522-1.9406657 1.079681-.4312591 1.979415-.6468886 2.699203-.6468886 2.87915 0 5.326427.0718765 7.341832.2156295 2.015405.1437531 4.030811.3234443 6.046216.5390739 2.015405.2156295 4.246746.3234442 6.694023.3234442 3.023108 0 6.442099-.1796912 10.256973-.5390738 3.814873-.3593825 7.953652-.5390738 12.416334-.5390738 10.796813 0 19.650199 1.7250362 26.56016 5.1751086 6.90996 3.4500723 10.36494 9.2001929 10.36494 17.2503618 0 6.1813796-1.223639 10.8533526-3.670917 14.0159189-2.447277 3.1625663-5.7583 5.5344911-9.933067 7.1157743-.287915.143753-.467862.3953207-.539841.7547033-.071979.3593825.107968.6109503.539841.7547033 3.023107.8625181 6.118194 2.0844187 9.285259 3.6657019s5.830279 3.9532082 7.989641 7.1157742c2.159363 3.162566 3.239044 7.61891 3.239044 13.36903 0 6.756392-2.015405 12.290883-6.046215 16.603474-4.03081 4.31259-9.357238 7.475156-15.979283 9.487699-6.622045 2.012542-13.963878 3.018813-22.025498 3.018813-1.007703 0-2.951129-.107815-5.830279-.323444-2.87915-.21563-5.938247-.431259-9.177291-.646889-3.239044-.215629-5.938247-.323444-8.097609-.323444-3.886853 0-7.881674.107815-11.984462.323444-4.102789.21563-7.161886.431259-9.177291.646889-2.015405.215629-2.015405.323444 0 .323444zm46.426295-6.468886c7.341832 0 12.920185-2.156295 16.735059-6.468885 3.814874-4.312591 5.722311-9.487699 5.722311-15.525326 0-5.750121-1.223639-10.134588-3.670916-13.153401-2.447278-3.018813-5.866269-5.067294-10.256972-6.145441-4.390704-1.0781479-9.537185-1.6172217-15.439443-1.6172217-1.439575 0-2.807171.2515678-4.102788.7547033-1.295618.5031354-2.303321 1.2219004-3.023108 2.1562954-.719788.934394-1.079681 2.120357-1.079681 3.557887v23.719247c0 3.593826 1.511553 6.612639 4.534661 9.05644 3.023108 2.443802 6.550066 3.665702 10.580877 3.665702zm-7.989642-49.3791604c3.742895 0 7.593758-.3593825 11.55259-1.0781476 3.958831-.718765 7.305843-2.3719247 10.041036-4.959479 2.735192-2.5875543 4.102788-6.6126387 4.102788-12.0752532 0-2.8750603-.467861-5.6423059-1.403585-8.3017367-.935724-2.6594307-2.807172-4.8516642-5.614343-6.5767004s-7.017928-2.5875543-12.632271-2.5875543c-4.03081 0-7.233864.5031356-9.609163 1.5094067s-3.562948 2.7313073-3.562948 5.1751085v23.503618c0 2.1562952.683798 3.5938254 2.051394 4.3125904 1.367596.7187651 3.059097 1.0781476 5.074502 1.0781476z"/></g><g transform="translate(478 192)"><path d="m4.31054461 91c-.7184241 0-1.61645423-.1084071-2.69409038-.3252212-1.07763615-.2168142-1.61645423-.7588496-1.61645423-1.6261062 0-1.1563422.53881808-1.9874632 1.61645423-2.4933629s2.19119351-.9756637 3.34067207-1.409292c3.44843569-1.0117994 6.0347625-2.0235988 7.7589803-3.0353982s3.1251448-2.2765487 4.202781-3.7942478 2.1193511-3.649705 3.1251448-6.3960177l19.1819236-49.8672567c.7184241-2.3126843 1.2572421-4.4446902 1.6164542-6.3960177.359212-1.9513274.6825029-4.0110619.9698725-6.17920349 1.0057938-.28908555 2.3348784-1.30088496 3.9872538-3.03539823 1.6523754-1.73451328 2.7659328-2.96312685 3.3406721-3.68584071 1.2931634-1.5899705 2.2630359-2.49336283 2.9096176-2.71017699s1.1853998.32522124 1.6164542 1.62610619l23.4924682 65.47787613c1.580533 4.4808259 3.340672 8.3112094 5.2804171 11.4911504s4.9930475 5.3480826 9.1599073 6.5044248c1.1494786.2890855 2.2630359.7227139 3.3406721 1.300885 1.0776361.578171 1.6164542 1.4454277 1.6164542 2.6017699 0 .8672566-.5388181 1.409292-1.6164542 1.6261062-1.0776362.2168141-1.9756663.3252212-2.6940904.3252212-2.8736964 0-5.1008111-.1084071-6.6813442-.3252212-1.580533-.2168142-3.0892236-.3974927-4.5260718-.5420354-1.4368482-.1445428-3.4484357-.2168142-6.0347625-.2168142-2.2989571 0-4.0231749.0722714-5.1726535.2168142-1.1494786.1445427-2.3707995.3252212-3.6639629.5420354-1.2931634.2168141-3.4484357.3252212-6.4658169.3252212-.7184241 0-1.6164543-.1084071-2.6940904-.3252212-1.0776362-.2168142-1.6164542-.7588496-1.6164542-1.6261062 0-1.1563422.538818-2.0235989 1.6164542-2.6017699 1.0776361-.5781711 2.1911935-1.0117995 3.3406721-1.300885 2.0115875-.5781711 3.4125144-1.4454277 4.202781-2.6017699.7902665-1.1563422.6825029-3.3244838-.3232909-6.5044248l-3.8794901-12.1415929h-28.8806489l-3.0173813 8.238938c-1.0057937 3.0353983-1.0417149 5.3842183-.1077636 7.0464602.9339514 1.6622419 2.4067208 2.9269912 4.4183082 3.7942478 2.0115875.8672566 3.9513326 1.5899705 5.8192353 2.1681416 1.1494785.4336283 2.2630359.9033923 3.340672 1.409292 1.0776362.5058997 1.6164543 1.3370207 1.6164543 2.4933629 0 .8672566-.5388181 1.409292-1.6164543 1.6261062-1.0776361.2168141-1.9756662.3252212-2.6940903.3252212-2.8736964 0-5.1726536-.1084071-6.8968714-.3252212-1.7242179-.2168142-3.3047509-.3974927-4.7415991-.5420354-1.4368482-.1445428-3.3765933-.2168142-5.8192352-.2168142-2.2989571 0-4.202781.0722714-5.7114716.2168142-1.5086906.1445427-3.0892237.3252212-4.7415991.5420354-1.65237543.2168141-3.98725376.3252212-7.00463499.3252212zm30.17381229-35.5575221h23.2769409l-9.6987254-30.3539823c-.5747393-1.5899705-1.0057937-2.3849558-1.2931634-2.3849558-.2873696 0-.7184241.7949853-1.2931633 2.3849558z"/><path d="m111.212051 91c-.862109 0-1.903824-.0722714-3.125145-.2168142-1.221321-.1445427-1.831981-.7227138-1.831981-1.7345132 0-1.1563422.538818-1.9874632 1.616454-2.4933629s2.191193-.9756637 3.340672-1.409292c2.155272-.7227139 4.238702-1.409292 6.25029-2.0597345 2.011587-.6504425 3.017381-2.4933628 3.017381-5.5287611v-58.7566371c0-3.3244838-.790267-5.7455753-2.3708-7.2632744s-3.448435-2.5656342-5.603708-3.14380529c-1.149478-.43362832-2.263036-.93952802-3.340672-1.51769912-1.077636-.57817109-1.616454-1.37315634-1.616454-2.38495575 0-1.15634218.682503-1.77064897 2.047509-1.84292035 1.365006-.07227139 2.334878-.10840708 2.909617-.10840708 2.873697 0 4.957127.03613569 6.25029.10840708 1.293163.07227138 2.514484.18067846 3.663963.32522124 1.149479.14454277 2.801854.21681416 4.957126.21681416 2.011588 0 3.807648-.07227139 5.388181-.21681416 1.580533-.14454278 3.376593-.28908555 5.388181-.43362832 2.011587-.14454277 4.454229-.21681416 7.327926-.21681416 10.920046 0 19.756662 1.62610619 26.509849 4.87831858 6.753187 3.25221237 10.12978 8.49188787 10.12978 15.71902657 0 5.7817109-1.580533 10.3709439-4.741599 13.7676991s-7.040556 5.6733038-11.638471 6.829646c-.574739.1445428-.933951.2890856-1.077636.4336283-.143685.1445428.215527.361357 1.077636.6504425 2.730012.4336283 5.675551 1.4454277 8.836617 3.0353982s5.855156 3.7942478 8.082271 6.6128319 3.340672 6.3237463 3.340672 10.5154867c0 6.7935104-1.79606 12.1054573-5.388181 15.9358407-3.59212 3.8303835-8.441483 6.5044248-14.548088 8.0221239s-13.039397 2.2765487-20.798378 2.2765487c-1.436848 0-3.87949-.2168142-7.327925-.6504425-3.448436-.4336283-6.825029-.6504425-10.12978-.6504425-3.161066 0-6.501738.1084071-10.022016.3252213-3.520279.2168141-6.070684.4336283-7.651217.6504425-1.580533.2168141-1.221321.3252212 1.077636.3252212zm36.208575-7.1548673c7.184241 0 12.752028-1.4815634 16.70336-4.4446902 3.951333-2.9631269 5.926999-7.4078171 5.926999-13.3340708 0-7.3716814-2.442642-12.2861357-7.327926-14.7433629-4.885284-2.4572271-11.135573-3.6858407-18.750869-3.6858407-2.298957 0-4.274623.361357-5.926999 1.0840708-1.652375.7227139-2.478563 2.1681416-2.478563 4.3362832v19.9469027c0 3.6135693.969873 6.3237463 2.909618 8.130531 1.939745 1.8067846 4.921205 2.7101769 8.94438 2.7101769zm-5.603708-42.7123893c9.052143 0 15.553882-1.6261062 19.505214-4.8783186 3.951333-3.2522124 5.926999-7.0464602 5.926999-11.3827434 0-4.1917404-1.472769-7.769174-4.418308-10.7323009-2.945539-2.9631268-8.728853-4.44469023-17.349942-4.44469023-4.023175 0-6.681344.61430683-7.974508 1.84292033-1.293163 1.2286136-1.939745 2.9992626-1.939745 5.3119469v18.8628319c0 2.7463127.826188 4.3362832 2.478563 4.7699115 1.652376.4336283 2.909618.6504425 3.771727.6504425z"/></g></g></g></svg>