<svg height="440" viewBox="0 0 800 440" width="800" xmlns="http://www.w3.org/2000/svg"><g fill="none" fill-rule="evenodd"><text fill="var(--illustration-accent)" font-family="SFProText-Regular, SF Pro Text" font-size="16"><tspan x="356.761719" y="331">Annotations</tspan></text><g fill="var(--illustration-black)"><g transform="translate(135 125)"><path d="m96.2851658 149.786822c-5.8728125 1.392886-11.8359644 2.013304-17.871995 2.004236-15.6613395-.100957-30.2052049-4.051924-42.9202692-13.450657-17.1629455-12.686493-26.19991038-30.10559-28.3642574-51.2578961-1.33231464-13.0188608.17005041-25.7145232 5.2996515-37.7882388 9.6670625-22.7545451 26.7024701-36.6016497 50.7570123-41.56041528 15.608958-3.21746717 30.931715-1.80853593 45.533276 4.58208278 19.415354 8.497139 32.254161 23.2435451 38.168727 43.6631153 6.729138 23.229792 4.157884 45.4571341-9.291282 65.7949491-9.871274 14.928253-24.035563 23.915157-41.3108632 28.012824m-17.793043-149.78681688c-44.5038637.01528638-78.55797763 34.32704078-78.49202717 79.08429358.06690142 44.7381513 33.97070287 78.8367323 78.46545677 78.9155663 44.5334706.078563 78.5435536-34.126987 78.5344456-78.98586-.009112-44.8718622-33.947075-79.029276-78.5078752-79.01399988"/><path d="m84.9950732 73.4206697c0 9.9612311.0464499 19.9224623-.0418809 29.8821703-.0167524 1.807187.5718657 2.232138 2.2646186 2.19863 4.9465242-.096719 9.8968558.03427 14.8426181-.071587 1.577771-.034271 2.139738.534616 2.247105 2.002908.097469 1.323595.252048 2.664705.586334 3.944891.370837 1.421836-.259662 1.605373-1.430807 1.593188-3.6154701-.03884-7.2317022-.012947-10.8471728-.012947-11.7997751 0-23.5995501-.040362-35.3985638.042077-1.7970746.011994-2.2372056-.557654-2.2166459-2.257461.0647252-5.273817.0038074-5.273817 5.2891868-5.273817 4.9480471 0 9.8960942-.035031 14.8433799.021324 1.2960259.015231 1.7650928-.362503 1.7628084-1.717322-.0380736-17.447386-.0357892-34.8947718-.0030459-52.3421576.0022845-1.41879-.3731214-1.603088-1.6204131-1.0418168-5.665354 2.5497096-11.3748735 5.0011777-17.0318514 7.5676417-1.3280077.6023956-1.9090111.6671284-2.1427831-1.0600943-.7340593-5.4147059-.7987844-5.4078519 4.2345476-7.6773067 5.6036748-2.5276243 11.2187717-5.0308787 16.8117859-7.5821114 2.3240135-1.0600944 4.7454955-.4622682 7.1235736-.5239547.948033-.02437.7081692.8994047.7119766 1.4736225.0243671 3.806287.014468 7.6133355.0152294 11.4196225z"/></g><path d="m103.982569 114.119306c-16.9549887-.038983-33.9099778-.045096-50.8657264-.018353-1.333675.002292-1.8683602-.468369-1.6860812-1.779495.0174684-.124542 0-.253668.0022785-.381266.0394938-2.668096-.66304-5.669321.3326593-7.908016.9615219-2.161524 3.6524163-3.558989 5.6187515-5.2513807 8.7007864-7.4877833 17.4342311-14.9365994 26.1099541-22.4526529 2.6453247-2.2906504 5.0377371-4.8555981 6.5741976-8.0677043 3.2840607-6.8704232-.2544312-14.0739762-7.8091381-15.9703719-4.8865974-1.2263156-9.6623083-.6853614-14.3658672.9481978-3.9653287 1.3775993-7.712682 3.2136343-11.2056042 5.5424877-1.1802568.7869813-1.5683593.5294933-1.7384864-.8053187-.3440517-2.7124113-.7830404-5.4125976-1.1787378-8.1188964-.1048105-.7159237-.107089-1.361554.6326601-1.8291585 10.972439-6.9422447 22.7036145-10.4347607 35.3818815-6.0024515 15.7967577 5.5210941 19.6853777 23.353479 8.1980001 35.8435598-5.53065 6.0131484-12.1549743 10.7403846-18.404867 15.9084831-3.8058346 3.1479252-7.6671123 6.2263205-11.6916817 9.4888555.9584839.478301 1.6579798.309444 2.3286147.310208 10.502311.012989 21.0046219.049664 31.5054136-.033619 1.623803-.012225 2.212412.478301 2.398489 2.053028.275697 2.33191.75266 4.641662 1.194687 6.951413.221013 1.152202-.093418 1.575491-1.331397 1.572451m-25.5623571-114.11924338c-44.4996312.05354693-78.28884951 34.06871228-78.41984839 78.94269148-.12874876 44.7402689 33.95819199 79.0709909 78.49655749 79.0572419 44.611277-.015285 78.537205-34.172566 78.503053-79.0389045-.034203-44.8793276-34.004941-79.01445029-78.5797621-78.96102888" transform="translate(327 125)"/><g transform="translate(519 130)"><path d="m132.611253 131.327999c.002299 1.828575-.361673 2.477399-2.394549 2.473613-37.7273586-.067714-75.4554838-.049458-113.1828428-.05098-2.4504853-.00076-2.4589141-.007606-2.4596804-2.542813-.0015325-19.200032-.0015325-38.4008232-.0015325-57.6016149 0-19.2639246 0-38.5278493.0015325-57.7925346 0-2.6165956.0068963-2.6219201 2.5799825-2.6219201 37.664526-.0007606 75.3275195.0144521 112.9912797-.0433715 1.915639-.0030274 2.476538.4533555 2.473485 2.4043927-.057482 38.5917429-.054417 77.1834858-.007675 115.7752284m14.388747-128.50603104c0-2.80143073-.003065-2.80675519-2.769248-2.80675519-47.2373564-.00608511-94.4754794-.01140958-141.71360247-.01521277-2.51178574 0-2.51714953.00608511-2.51714953 2.51999457.00383128 47.27214683.00842881 94.54353293.01532511 141.81567943 0 2.662234.00536379 2.664326 2.69645333 2.664326h141.71360256c2.570021 0 2.574619-.002852 2.574619-2.553272 0-23.635313 0-47.2713867 0-70.90746 0-23.5721798 0-47.1451203 0-70.71730004"/><path d="m85.4049476 89.4742556c-.8535663 2.7932875-2.8207817 4.4974212-5.5489522 5.3399742-5.0071768 1.545822-10.183369 1.0214146-15.3086251 1.0754537-1.1244538.0114167-.9284269-.8410307-.9322857-1.498633-.0185222-2.7247873-.0084893-5.4495745-.0077176-8.1743618 0-2.7247873.0077176-5.4495745-.0047635-8.1751229-.0029541-.822764.0379492-1.5077664 1.1870994-1.4796051 4.1049897.1027503 8.2285017-.2793288 12.3064799.4734127 6.7675607 1.2489877 10.1694774 6.3522555 8.3087648 12.4388822m-20.3759992-40.3161959c1.6044883.0380557 3.211292.0106556 4.8165521.0091333 2.309105.0167445 4.6205253-.0829614 6.9087927.3904514 4.1906551.8676697 6.51288 3.472201 6.7374621 7.6217932.2029728 3.7758854-1.9209099 6.7609735-5.7874259 7.9856056-4.2508523 1.3456491-8.648339.8707141-13.0018354.9026809-.8335005.0060889-1.0943552-.4718905-1.0928117-1.2208265.0077176-4.8140445.0208375-9.6280891-.0116607-14.4413725-.0076333-1.0541425.514848-1.2695377 1.4309268-1.2474654m29.1061447 23.724677c-1.5659004-.9491088-3.2938703-1.639439-4.9608712-2.455353.3225955-.63553.9438621-.7101191 1.4223531-.9734645 9.508079-5.2395071 11.351813-18.8596379 3.4582551-26.2622303-4.2076338-3.9448526-9.5520696-5.3978188-15.158132-5.8171925-9.5621025-.7154469-19.1519883-.1461338-28.726439-.3562012-1.7001865-.0372946-2.1694164.4528627-2.1655576 2.1273129.0540231 22.2557275.0571102 44.511455-.0046663 66.7671829-.0053666 1.752845.6020083 2.102196 2.2126707 2.086727 7.392686-.074343 14.7876873-.022587 22.1811451-.05227 4.9593278-.019789 9.8970462-.298357 14.6811845-1.75589 7.5053629-2.286385 13.0404235-6.4763167 14.5106255-14.6088173 1.494899-8.2649343-1.070431-14.8303016-7.4505679-18.699804"/></g></g></g></svg>