<svg height="366" viewBox="0 0 800 366" width="800" xmlns="http://www.w3.org/2000/svg"><g fill="none" fill-rule="evenodd"><g fill="var(--illustration-black)" fill-rule="nonzero" transform="translate(134 76)"><path d="m93.84 11.28c0 3.28-1.24 5.86-3.72 7.74s-5.88 2.82-10.2 2.82c-3.84 0-7.72-1.48-11.64-4.44-3.28-2.48-6.2-3.72-8.76-3.72-5.44 0-10.08 3.02-13.92 9.06s-5.76 14.22-5.76 24.54v27.96h26.88c1.92 0 2.88 2.16 2.88 6.48s-.96 6.48-2.88 6.48l-27.12-.96v60.24c0 7.84.96 12.96 2.88 15.36s6.32 4.04 13.2 4.92c1.28.16 1.92 1.24 1.92 3.24 0 2.24-.64 3.36-1.92 3.36-3.28 0-7.44-.24-12.48-.72-5.68-.48-10.48-.72-14.4-.72-4 0-8.8.24-14.4.72-5.04.48-9.2.72-12.48.72-1.28 0-1.92-1.12-1.92-3.36 0-2 .64-3.08 1.92-3.24 6.8-.88 11.18-2.52 13.14-4.92s2.94-7.52 2.94-15.36v-57.36c0-2.24-.96-3.36-2.88-3.36h-12.24c-1.6 0-2.4-1.04-2.4-3.12s.72-3.28 2.16-3.6c10.24-2.32 15.36-4.56 15.36-6.72 0-19.36 5.9-36.42 17.7-51.18s25.42-22.14 40.86-22.14c5.36 0 9.58 1 12.66 3s4.62 4.76 4.62 8.28z"/><path d="m174.24 11.28c0 3.28-1.24 5.86-3.72 7.74s-5.88 2.82-10.2 2.82c-3.84 0-7.72-1.48-11.64-4.44-3.28-2.48-6.2-3.72-8.76-3.72-5.44 0-10.08 3.02-13.92 9.06s-5.76 14.22-5.76 24.54v27.96h26.88c1.92 0 2.88 2.16 2.88 6.48s-.96 6.48-2.88 6.48l-27.12-.96v60.24c0 7.84.96 12.96 2.88 15.36s6.32 4.04 13.2 4.92c1.28.16 1.92 1.24 1.92 3.24 0 2.24-.64 3.36-1.92 3.36-3.28 0-7.44-.24-12.48-.72-5.68-.48-10.48-.72-14.4-.72-4 0-8.8.24-14.4.72-5.04.48-9.2.72-12.48.72-1.28 0-1.92-1.12-1.92-3.36 0-2 .64-3.08 1.92-3.24 6.8-.88 11.18-2.52 13.14-4.92s2.94-7.52 2.94-15.36v-57.36c0-2.24-.96-3.36-2.88-3.36h-12.24c-1.6 0-2.4-1.04-2.4-3.12s.72-3.28 2.16-3.6c10.24-2.32 15.36-4.56 15.36-6.72 0-19.36 5.9-36.42 17.7-51.18s25.42-22.14 40.86-22.14c5.36 0 9.58 1 12.66 3s4.62 4.76 4.62 8.28z"/><path d="m198.12 25.92c0 3.36-1.22 6.28-3.66 8.76s-5.38 3.72-8.82 3.72-6.38-1.24-8.82-3.72-3.66-5.4-3.66-8.76c0-3.52 1.2-6.48 3.6-8.88s5.36-3.6 8.88-3.6c3.44 0 6.38 1.2 8.82 3.6s3.66 5.36 3.66 8.88zm16.8 145.08c0 2.24-.64 3.36-1.92 3.36-3.28 0-7.48-.24-12.6-.72-5.76-.48-10.6-.72-14.52-.72-4 0-8.8.24-14.4.72-5.04.48-9.2.72-12.48.72-1.28 0-1.92-1.12-1.92-3.36 0-2 .64-3.08 1.92-3.24 6.8-.88 11.18-2.52 13.14-4.92s2.94-7.52 2.94-15.36v-44.4c0-6.4-.82-10.6-2.46-12.6s-5.22-3.32-10.74-3.96c-1.28 0-1.92-1.04-1.92-3.12 0-1.92.64-2.88 1.92-2.88 8.4-2.16 15.28-4.46 20.64-6.9s8.72-4.46 10.08-6.06c.8-.96 1.68-1.44 2.64-1.44 2.24 0 3.36.64 3.36 1.92-1.28 17.92-1.92 31.84-1.92 41.76v37.68c0 7.84.98 12.96 2.94 15.36s6.42 4.04 13.38 4.92c1.28.16 1.92 1.24 1.92 3.24z"/></g><path d="m197.28 171.12c0 2.24-.64 3.36-1.92 3.36-3.2 0-7.52-.2-12.96-.6s-10.16-.6-14.16-.6c-3.84 0-8.48.2-13.92.6s-9.76.6-12.96.6c-1.28 0-1.92-1.12-1.92-3.36 0-1.92.64-2.96 1.92-3.12 6.88-.88 11.32-2.56 13.32-5.04s3-7.6 3-15.36v-47.76c0-4.72-.98-7.98-2.94-9.78s-5.46-2.7-10.5-2.7h-37.2v60.24c0 7.76 1 12.88 3 15.36s6.44 4.16 13.32 5.04c1.28.16 1.92 1.2 1.92 3.12 0 2.24-.64 3.36-1.92 3.36-3.2 0-7.52-.2-12.96-.6s-10.16-.6-14.16-.6c-3.84 0-8.48.2-13.92.6s-9.76.6-12.96.6c-1.28 0-1.92-1.12-1.92-3.36 0-1.92.64-2.96 1.92-3.12 6.88-.88 11.32-2.56 13.32-5.04s3-7.6 3-15.36v-60.24h-45.84v60.24c0 7.76.96 12.88 2.88 15.36s6.32 4.16 13.2 5.04c1.28.16 1.92 1.2 1.92 3.12 0 2.24-.64 3.36-1.92 3.36-3.2 0-7.52-.2-12.96-.6s-10.16-.6-14.16-.6c-3.84 0-8.48.2-13.92.6s-9.76.6-12.96.6c-1.28 0-1.92-1.12-1.92-3.36 0-1.92.64-2.96 1.92-3.12 6.88-.88 11.32-2.56 13.32-5.04s3-7.6 3-15.36v-57.12c0-2.4-.96-3.6-2.88-3.6h-12.24c-1.76 0-2.64-1.04-2.64-3.12 0-2.16.72-3.36 2.16-3.6 10.32-2.24 15.48-4.4 15.48-6.48.08-17.36 6.46-33.02 19.14-46.98s27.78-20.94 45.3-20.94c4.4 0 8.72.82 12.96 2.46s7.56 3.74 9.96 6.3l3.24 3.24c11.84-11.84 25.52-17.76 41.04-17.76 6.96 0 13.22 1.7 18.78 5.1s8.34 7.14 8.34 11.22c0 6.24-4 9.36-12 9.36-2.88 0-6.8-1.84-11.76-5.52s-10.96-5.52-18-5.52c-18.4 0-27.6 11.92-27.6 35.76v24.96h36.72c7.04 0 12.86-.48 17.46-1.44s8.74-2.84 12.42-5.64c1.6-1.2 2.76-1.8 3.48-1.8 2.24 0 3.36.64 3.36 1.92 0 3.04-.32 9.64-.96 19.8s-.96 17.48-.96 21.96v37.44c0 7.76 1 12.88 3 15.36s6.44 4.16 13.32 5.04c1.28.16 1.92 1.2 1.92 3.12zm-100.08-139.68c-6.88-7.36-16.72-11.04-29.52-11.04-18.56 0-27.84 11.92-27.84 35.76v19.2h45.84v-1.68c0-16.16 3.84-30.24 11.52-42.24z" fill="var(--illustration-black)" fill-rule="nonzero" transform="translate(451 76)"/><g fill="var(--illustration-accent)"><text font-family="SFProText-Regular, SF Pro Text" font-size="16"><tspan x="160.046875" y="297">Common ligatures off</tspan></text><text font-family="SFProText-Regular, SF Pro Text" font-size="16"><tspan x="469.667969" y="297">Common ligatures on</tspan></text><path d="m614.234697 112.966543-.053573.998564c.43669.023164.876413.034893 1.318876.034893.211862 0 .423096-.002689.63367-.008035l-.025459-.999676c-.202403.005138-.40515.007711-.608211.007711-.423243 0-.845103-.011179-1.265303-.033457zm5.900204.595652-.188552-.982063c-.626577.119959-1.259315.214518-1.897105.283284l.107615.994193c.667754-.072008 1.327468-.170846 1.978042-.295414zm-9.701336-1.109508-.214382.97675c.647332.142207 1.304257.258817 1.969659.348714l.13445-.990921c-.635828-.085886-1.266117-.197542-1.889727-.334543zm13.601487.019662-.348609-.937268c-.5988.222557-1.207024.420613-1.823412.593567l.270358.96276c.645047-.181002 1.279328-.387748 1.901663-.619059zm-17.284466-1.154839-.372182.928159c.615932.247233 1.244234.470173 1.883718.667634l.29568-.955288c-.611504-.188802-1.214335-.402515-1.807216-.640505zm20.93716-.559284-.49791-.867229c-.554494.318598-1.12185.614444-1.700734.886701l.425882.904779c.604857-.284483 1.196187-.592976 1.772762-.924251zm-24.362783-1.153812-.518969.854794c.568713.345181 1.152594.667868 1.750407.966825l.447226-.89442c-.572022-.286062-1.132023-.595417-1.678664-.927199zm27.67608-1.130639-.632494-.774566c-.49524.405108-1.006731.789926-1.533159 1.153395l.568061.822986c.54919-.379179 1.082139-.780203 1.597592-1.201815zm-30.808484-1.142549-.650975.759099c.505087.43398 1.028059.847729 1.567659 1.239991l.587646-.809119c-.517303-.376067-1.01918-.773088-1.50433-1.189971zm33.651924-1.591041-.748264-.663401c-.42429.478924-.8679.940487-1.329633 1.383456l.691933.721962c.481216-.461641.943625-.942735 1.385964-1.442017zm-36.355534-1.144522-.766404.642359c.429069.511393.878642 1.005003 1.347454 1.479563l.711268-.702921c-.449799-.455321-.880962-.928741-1.292318-1.419001zm38.781591-2.095889-.847128-.531389c-.340021.54213-.702073 1.070221-1.085154 1.582942l.800998.598666c.398756-.533693.776268-1.084184 1.131284-1.650219zm-40.987705-1.012471-.859193.511652c.341186.574086.70516 1.133043 1.090675 1.675625l.814991-.579473c-.370534-.521513-.719682-1.057892-1.046473-1.607804zm42.838351-2.5615382-.922931-.3849641c-.246281.5903705-.516624 1.1701318-.810258 1.7379603l.888173.45951c.305396-.590563.587475-1.1951375.845016-1.8125062zm-44.532059-.9126517-.931972.3625315c.242614.6239585.510056 1.2355171.801112 1.8334624l.898847-.4382621c-.279826-.5749154-.536067-1.1612644-.767987-1.7577318zm45.76287-2.8914793-.97363-.2281349c-.146459.6237542-.3183 1.2401719-.514981 1.8480249l.951226.3084932c.204496-.6319437.384012-1.2751262.537385-1.9283832zm-46.861861-.8229393-.979108.2033412c.136207.6565946.298692 1.3035657.486305 1.9397645l.959143-.2829239c-.180601-.6124244-.336218-1.2328865-.46634-1.8601818zm47.454653-3.1407804-.99775-.0670456c-.04281.6408108-.111476 1.2772743-.205648 1.9083244l.989021.1477696c.097738-.6549075.169555-1.3182827.214377-1.9890484zm-47.926526-.7224656-.999222.0394396c.026299.6720717.079671 1.3371911.159054 1.9942982l.992665-.1208987c-.07645-.6330477-.12739-1.2710053-.152497-1.9128391zm47.98013-1.2190201c-.007631-.6727971-.04238-1.3390799-.103207-1.9978066l-.995773.0918395c.058624.6348503.091736 1.2741208.099038 1.9168098zm-48.820056-2.6876153c-.079399.6567798-.132811 1.3215654-.159178 1.9932983l.999225.0393589c.025184-.6416779.076189-1.2794792.152692-1.912371zm48.441635-1.3509399c-.117605-.6607347-.261694-1.3123055-.431132-1.9535755l-.966707.2558876c.163065.6171974.30099 1.2418748.4133 1.8728534zm-47.636728-2.5717139c-.186299.6365608-.347453 1.2838592-.482316 1.9407471l.979508.2014036c.128803-.6274123.283096-1.2480338.462373-1.8606627zm46.599791-1.3372391c-.224879-.6305914-.474864-1.2492626-.748752-1.85481l-.911108.4121669c.263442.5824572.503003 1.1757603.717985 1.7786069zm-45.147112-2.4320018c-.289862.5986803-.556076 1.2109443-.797428 1.8355786l.932936.3600433c.230647-.5968999.485631-1.1837262.764218-1.7591648zm43.483734-1.2392887c-.325312-.5841843-.673829-1.1536754-1.044305-1.7072273l-.830835.5565188c.355823.5316767.689834 1.0776441 1.0011 1.6365635zm-41.461825-2.1923753c-.38351.5443357-.745406 1.104995-1.084439 1.6807297l.861555.5076641c.324709-.5514254.671849-1.0893917 1.040452-1.6125621zm39.225035-1.1471089c-.41549-.5222254-.851856-1.0270994-1.307837-1.5133595l-.730049.6833952c.437837.4668778.85656.9513562 1.255023 1.4521586zm-36.633572-1.9547463c-.468072.474945-.916901.9689066-1.345221 1.4806208l.76679.6418975c.410782-.4907633.841394-.9647082 1.290665-1.4205765zm33.924946-.9378393c-.492844-.4479899-1.004025-.8761637-1.532283-1.2832627l-.610577.7919571c.506641.3904327.997286.8013633 1.470652 1.2316682zm-30.935672-1.6443071c-.538538.3944271-1.060369.8103178-1.564232 1.2464125l.654476.7560827c.483818-.4187427.984443-.8176716 1.500576-1.1956912zm27.736817-.81636c-.558958-.3610418-1.133554-.6999483-1.722548-1.0154793l-.472217.8814823c.563867.3020702 1.115124.6270935 1.652432.9741608zm-24.307127-1.286625c-.596493.3013166-1.17899.6263061-1.746255.9737335l.522236.8528012c.545358-.3340119 1.104161-.6456493 1.675072-.9340376zm20.791783-.5970695c-.609171-.264861-1.231207-.5056848-1.864912-.7212742l-.322644.9465204c.606001.2061471 1.202752.4369993 1.788961.6918808zm-17.053825-.9171646c-.639511.1991574-1.267781.4238132-1.88362.6727777l.37459.9271907c.592446-.2395142 1.194898-.4547624 1.806076-.6451053zm13.238572-.3778261c-.643229-.1603237-1.296515-.2952261-1.958731-.4035785l-.161429.9868843c.63255.1034998 1.259058.2326591 1.87836.3870203zm-9.287976-.5000097c-.665068.0907456-1.321642.208181-1.968607.3511915l.216094.9763727c.623064-.1377199 1.252824-.25013 1.888139-.336804zm3.343187-.2261979c-.431638 0-.860669.0111622-1.28682.0332137l.052027.9986457.616313-.0238855.61848-.0079739c.642738 0 1.282242.0257794 1.917527.0770524l.079895-.9968035c-.658791-.0531552-1.324943-.0802489-1.997422-.0802489z" fill-rule="nonzero"/><path d="m601.167334 173.798016-.1509-.988549c-.619161.094699-1.245785.15439-1.877862.178417l.03759.999294c.674191-.025614 1.338614-.089366 1.991172-.189162zm-5.825076-1.099663-.189966.981791c.64842.125612 1.30961.215428 1.981431.267308l.076862-.997041c-.629829-.048643-1.253302-.132906-1.868327-.252058zm9.727036.026827-.37555-.926802c-.582015.235881-1.177707.438348-1.78464.606213l.26634.963879c.647106-.178966 1.279163-.39417 1.89385-.64329zm-13.332764-1.17034-.410667.911786c.605439.272458 1.229169.511492 1.86884.714751l.302385-.953186c-.599949-.190656-1.18763-.415536-1.760558-.673351zm16.865547-.763305-.578274-.815843c-.513482.363599-1.047287.697626-1.598834 1.000256l.480871.876791c.586683-.3219 1.15291-.67645 1.696237-1.061204zm-20.102504-1.166293-.606459.795114c.529138.403804 1.081983.778123 1.656084 1.120506l.512277-.85882c-.540255-.322195-1.061744-.675101-1.561902-1.0568zm23.055578-1.471097-.745538-.666463c-.419259.469353-.864956.91459-1.334741 1.333362l.665279.746595c.498036-.443946.970529-.915937 1.415-1.413494zm-25.802542-1.177-.772108.635492c.423912.515129.876692 1.005607 1.355866 1.46896l.69547-.718556c-.452311-.437353-.879478-.900123-1.279228-1.385896zm28.129539-2.125127-.878603-.477555c-.300645.552502-.632739 1.087368-.994468 1.602019l.817905.575353c.382801-.544606.735338-1.112026 1.055166-1.699817zm-30.159257-1.002573-.894828.446411c.298381.598674.630056 1.177844.992601 1.735085l.838404-.54505c-.342988-.527156-.655618-1.073499-.936177-1.636446zm31.654913-2.707885-.96451-.264044c-.166696.607436-.36803 1.203681-.60282 1.786297l.927719.373278c.247934-.615287.461912-1.247905.639611-1.895531zm-32.94393-.865399-.973792.227443c.153147.654352.343012 1.294575.567303 1.918375l.941009-.338384c-.212393-.590712-.390928-1.193983-.53452-1.807434zm33.553035-3.092968-.999306-.037253c-.024305.632022-.084268 1.258581-.179235 1.877668l.988572.150748c.100066-.652546.164088-1.316966.189969-1.991163zm-33.986837-.732462-1.000072-.003731v.053c0 .669305.037574 1.329834.110727 1.979593l.993704-.112041c-.051172-.454559-.083642-.912594-.09718-1.373353zm33.947148-1.320018c-.052023-.672171-.142022-1.333696-.267854-1.982431l-.981784.189998c.119336.615163.203766 1.238785.252555 1.868772zm-34.483861-2.648294c-.151202.643646-.266871 1.300988-.344825 1.969843l.993317.115421c.073081-.626934.181703-1.246578.325051-1.856758zm33.70785-1.319608c-.20454-.639429-.444848-1.262863-.718571-1.86795l-.910695.413081c.258926.572471.484941 1.159752.676749 1.759355zm-32.341151-2.462668c-.296496.59451-.560155 1.208266-.788602 1.838891l.940321.34029c.214348-.59167.462453-1.169973.742917-1.732384zm30.705438-1.159938c-.342872-.574137-.717695-1.126987-1.122015-1.656095l-.794188.607672c.381979.499911.735182 1.02117 1.057686 1.561209zm-28.526149-2.187803c-.424449.513081-.82019 1.050779-1.184762 1.610634l.837872.545867c.3432-.52705.716309-1.034217 1.117307-1.51896zm26.084823-1.003019c-.463157-.479958-.953497-.93351-1.468539-1.358178l-.635889.771781c.485486.400315.947931.828035 1.384922 1.280883zm-23.158979-1.80175c-.531945.403418-1.040109.836559-1.522018 1.296949l.691165.722696c.454991-.434644.934359-.843125 1.435634-1.223253zm20.090753-.730219c-.55788-.36269-1.137721-.694447-1.737092-.99284l-.445793.895137c.563217.280387 1.109833.592871 1.637264.935736zm-16.699081-1.28449c-.610629.274748-1.202656.583495-1.773668.923831l.512288.858814c.540121-.321908 1.098294-.612715 1.671945-.870813zm13.066184-.515912c-.623868-.22307-1.264101-.411727-1.91841-.563683l-.226376.97404c.613699.142518 1.217265.319991 1.808321.531339zm-9.219694-.701222c-.660204.127052-1.307205.291206-1.938748.490207l.300227.953868c.598409-.188574 1.208278-.342921 1.82729-.462054zm3.326647-.31579v1c.633159 0 1.261717.035616 1.88375.106263l.112887-.993608c-.655251-.074421-1.321479-.112655-1.996637-.112655zm-.024032.000016c-.424413.000571-.845286.016249-1.262109.046527l.072071.9974c.395227-.028719.792733-.043408 1.192045-.043927z" fill-rule="nonzero"/><path d="m535.167334 173.798016-.1509-.988549c-.619161.094699-1.245785.15439-1.877862.178417l.03759.999294c.674191-.025614 1.338614-.089366 1.991172-.189162zm-5.825076-1.099663-.189966.981791c.64842.125612 1.30961.215428 1.981431.267308l.076862-.997041c-.629829-.048643-1.253302-.132906-1.868327-.252058zm9.727036.026827-.37555-.926802c-.582015.235881-1.177707.438348-1.78464.606213l.26634.963879c.647106-.178966 1.279163-.39417 1.89385-.64329zm-13.332764-1.17034-.410667.911786c.605439.272458 1.229169.511492 1.86884.714751l.302385-.953186c-.599949-.190656-1.18763-.415536-1.760558-.673351zm16.865547-.763305-.578274-.815843c-.513482.363599-1.047287.697626-1.598834 1.000256l.480871.876791c.586683-.3219 1.15291-.67645 1.696237-1.061204zm-20.102504-1.166293-.606459.795114c.529138.403804 1.081983.778123 1.656084 1.120506l.512277-.85882c-.540255-.322195-1.061744-.675101-1.561902-1.0568zm23.055578-1.471097-.745538-.666463c-.419259.469353-.864956.91459-1.334741 1.333362l.665279.746595c.498036-.443946.970529-.915937 1.415-1.413494zm-25.802542-1.177-.772108.635492c.423912.515129.876692 1.005607 1.355866 1.46896l.69547-.718556c-.452311-.437353-.879478-.900123-1.279228-1.385896zm28.129539-2.125127-.878603-.477555c-.300645.552502-.632739 1.087368-.994468 1.602019l.817905.575353c.382801-.544606.735338-1.112026 1.055166-1.699817zm-30.159257-1.002573-.894828.446411c.298381.598674.630056 1.177844.992601 1.735085l.838404-.54505c-.342988-.527156-.655618-1.073499-.936177-1.636446zm31.654913-2.707885-.96451-.264044c-.166696.607436-.36803 1.203681-.60282 1.786297l.927719.373278c.247934-.615287.461912-1.247905.639611-1.895531zm-32.94393-.865399-.973792.227443c.153147.654352.343012 1.294575.567303 1.918375l.941009-.338384c-.212393-.590712-.390928-1.193983-.53452-1.807434zm33.553035-3.092968-.999306-.037253c-.024305.632022-.084268 1.258581-.179235 1.877668l.988572.150748c.100066-.652546.164088-1.316966.189969-1.991163zm-33.986837-.732462-1.000072-.003731v.053c0 .669305.037574 1.329834.110727 1.979593l.993704-.112041c-.051172-.454559-.083642-.912594-.09718-1.373353zm33.947148-1.320018c-.052023-.672171-.142022-1.333696-.267854-1.982431l-.981784.189998c.119336.615163.203766 1.238785.252555 1.868772zm-34.483861-2.648294c-.151202.643646-.266871 1.300988-.344825 1.969843l.993317.115421c.073081-.626934.181703-1.246578.325051-1.856758zm33.70785-1.319608c-.20454-.639429-.444848-1.262863-.718571-1.86795l-.910695.413081c.258926.572471.484941 1.159752.676749 1.759355zm-32.341151-2.462668c-.296496.59451-.560155 1.208266-.788602 1.838891l.940321.34029c.214348-.59167.462453-1.169973.742917-1.732384zm30.705438-1.159938c-.342872-.574137-.717695-1.126987-1.122015-1.656095l-.794188.607672c.381979.499911.735182 1.02117 1.057686 1.561209zm-28.526149-2.187803c-.424449.513081-.82019 1.050779-1.184762 1.610634l.837872.545867c.3432-.52705.716309-1.034217 1.117307-1.51896zm26.084823-1.003019c-.463157-.479958-.953497-.93351-1.468539-1.358178l-.635889.771781c.485486.400315.947931.828035 1.384922 1.280883zm-23.158979-1.80175c-.531945.403418-1.040109.836559-1.522018 1.296949l.691165.722696c.454991-.434644.934359-.843125 1.435634-1.223253zm20.090753-.730219c-.55788-.36269-1.137721-.694447-1.737092-.99284l-.445793.895137c.563217.280387 1.109833.592871 1.637264.935736zm-16.699081-1.28449c-.610629.274748-1.202656.583495-1.773668.923831l.512288.858814c.540121-.321908 1.098294-.612715 1.671945-.870813zm13.066184-.515912c-.623868-.22307-1.264101-.411727-1.91841-.563683l-.226376.97404c.613699.142518 1.217265.319991 1.808321.531339zm-9.219694-.701222c-.660204.127052-1.307205.291206-1.938748.490207l.300227.953868c.598409-.188574 1.208278-.342921 1.82729-.462054zm3.326647-.31579v1c.633159 0 1.261717.035616 1.88375.106263l.112887-.993608c-.655251-.074421-1.321479-.112655-1.996637-.112655zm-.024032.000016c-.424413.000571-.845286.016249-1.262109.046527l.072071.9974c.395227-.028719.792733-.043408 1.192045-.043927z" fill-rule="nonzero"/><path d="m559.167334 119.798016-.1509-.988549c-.619161.094699-1.245785.15439-1.877862.178417l.03759.999294c.674191-.025614 1.338614-.089366 1.991172-.189162zm-5.825076-1.099663-.189966.981791c.64842.125612 1.30961.215428 1.981431.267308l.076862-.997041c-.629829-.048643-1.253302-.132906-1.868327-.252058zm9.727036.026827-.37555-.926802c-.582015.235881-1.177707.438348-1.78464.606213l.26634.963879c.647106-.178966 1.279163-.39417 1.89385-.64329zm-13.332764-1.17034-.410667.911786c.605439.272458 1.229169.511492 1.86884.714751l.302385-.953186c-.599949-.190656-1.18763-.415536-1.760558-.673351zm16.865547-.763305-.578274-.815843c-.513482.363599-1.047287.697626-1.598834 1.000256l.480871.876791c.586683-.3219 1.15291-.67645 1.696237-1.061204zm-20.102504-1.166293-.606459.795114c.529138.403804 1.081983.778123 1.656084 1.120506l.512277-.85882c-.540255-.322195-1.061744-.675101-1.561902-1.0568zm23.055578-1.471097-.745538-.666463c-.419259.469353-.864956.91459-1.334741 1.333362l.665279.746595c.498036-.443946.970529-.915937 1.415-1.413494zm-25.802542-1.177-.772108.635492c.423912.515129.876692 1.005607 1.355866 1.46896l.69547-.718556c-.452311-.437353-.879478-.900123-1.279228-1.385896zm28.129539-2.125127-.878603-.477555c-.300645.552502-.632739 1.087368-.994468 1.602019l.817905.575353c.382801-.544606.735338-1.112026 1.055166-1.699817zm-30.159257-1.002573-.894828.446411c.298381.598674.630056 1.177844.992601 1.735085l.838404-.54505c-.342988-.527156-.655618-1.073499-.936177-1.636446zm31.654913-2.707885-.96451-.264044c-.166696.607436-.36803 1.203681-.60282 1.786297l.927719.373278c.247934-.615287.461912-1.247905.639611-1.895531zm-32.94393-.865399-.973792.227443c.153147.654352.343012 1.294575.567303 1.918375l.941009-.338384c-.212393-.590712-.390928-1.193983-.53452-1.807434zm33.553035-3.092968-.999306-.037253c-.024305.632022-.084268 1.258581-.179235 1.877668l.988572.150748c.100066-.652546.164088-1.316966.189969-1.991163zm-33.986837-.732462-1.000072-.003731v.053c0 .669305.037574 1.329834.110727 1.979593l.993704-.112041c-.051172-.454559-.083642-.912594-.09718-1.373353zm33.947148-1.320018c-.052023-.672171-.142022-1.3336957-.267854-1.9824311l-.981784.1899977c.119336.6151633.203766 1.2387854.252555 1.8687724zm-34.483861-2.6482938c-.151202.6436458-.266871 1.3009878-.344825 1.9698428l.993317.115421c.073081-.6269337.181703-1.2465778.325051-1.8567581zm33.70785-1.3196086c-.20454-.6394284-.444848-1.2628628-.718571-1.8679496l-.910695.4130807c.258926.5724718.484941 1.1597527.676749 1.7593548zm-32.341151-2.4626681c-.296496.594511-.560155 1.2082667-.788602 1.8388918l.940321.3402895c.214348-.5916694.462453-1.1699726.742917-1.7323841zm30.705438-1.159937c-.342872-.5741376-.717695-1.1269877-1.122015-1.6560953l-.794188.6076718c.381979.4999114.735182 1.0211703 1.057686 1.5612093zm-28.526149-2.1878034c-.424449.5130808-.82019 1.050779-1.184762 1.6106335l.837872.5458672c.3432-.5270498.716309-1.0342173 1.117307-1.5189599zm26.084823-1.0030196c-.463157-.4799571-.953497-.9335094-1.468539-1.3581776l-.635889.7717808c.485486.4003155.947931.8280353 1.384922 1.2808838zm-23.158979-1.8017493c-.531945.4034182-1.040109.8365589-1.522018 1.2969486l.691165.7226965c.454991-.4346444.934359-.843125 1.435634-1.2232532zm20.090753-.7302188c-.55788-.3626904-1.137721-.6944476-1.737092-.9928403l-.445793.8951364c.563217.2803874 1.109833.5928713 1.637264.9357364zm-16.699081-1.2844902c-.610629.274748-1.202656.5834952-1.773668.9238304l.512288.8588139c.540121-.3219079 1.098294-.6127142 1.671945-.8708125zm13.066184-.5159124c-.623868-.2230703-1.264101-.4117269-1.91841-.5636832l-.226376.97404c.613699.1425186 1.217265.3199919 1.808321.5313392zm-9.219694-.7012222c-.660204.1270521-1.307205.2912062-1.938748.4902075l.300227.953868c.598409-.188574 1.208278-.3429207 1.82729-.462054zm3.326647-.3157896v1c.633159 0 1.261717.0356159 1.88375.1062625l.112887-.9936079c-.655251-.0744207-1.321479-.1126546-1.996637-.1126546zm-.024032.0000161c-.424413.0005705-.845286.0162491-1.262109.0465269l.072071.9973996c.395227-.0287181.792733-.0434072 1.192045-.0439265z" fill-rule="nonzero"/></g></g></svg>