<svg height="507" viewBox="0 0 800 507" width="800" xmlns="http://www.w3.org/2000/svg"><g fill="none" fill-rule="evenodd"><path d="m131 194h539v162h-539z" fill="var(--illustration-gray)"/><path d="m130.5 95.5h539v316h-539z" stroke="var(--illustration-accent)"/><path d="m400-139.5v540" stroke="var(--illustration-accent)" transform="matrix(0 -1 1 0 269.5 530.5)"/><path d="m400-76.5v540" stroke="var(--illustration-accent)" transform="matrix(0 -1 1 0 206.5 593.5)"/><path d="m400 95.5v540" stroke="var(--illustration-accent)" transform="matrix(0 -1 1 0 34.5 765.5)"/><path d="m314 366h173v3h-173z" fill="var(--illustration-black)"/><g stroke="var(--illustration-accent)" transform="matrix(0 -1 1 0 165 412)"><path d="m158.5-158v317" transform="matrix(0 -1 1 0 158 159)"/><path d="m158.5-148v317" transform="matrix(0 -1 1 0 148 169)"/></g><g stroke="var(--illustration-accent)" transform="matrix(0 -1 1 0 211 412)"><path d="m158.5-158v317" transform="matrix(0 -1 1 0 158 159)"/><path d="m158.5-148v317" transform="matrix(0 -1 1 0 148 169)"/></g><g stroke="var(--illustration-accent)" transform="matrix(0 -1 1 0 533 412)"><path d="m158.5-158v317" transform="matrix(0 -1 1 0 158 159)"/><path d="m158.5-148v317" transform="matrix(0 -1 1 0 148 169)"/></g><g stroke="var(--illustration-accent)" transform="matrix(0 -1 1 0 579 412)"><path d="m158.5-158v317" transform="matrix(0 -1 1 0 158 159)"/><path d="m158.5-148v317" transform="matrix(0 -1 1 0 148 169)"/></g><g stroke="var(--illustration-accent)" transform="matrix(0 -1 1 0 625 412)"><path d="m158.5-158v317" transform="matrix(0 -1 1 0 158 159)"/><path d="m158.5-148v317" transform="matrix(0 -1 1 0 148 169)"/></g><path d="m101 66h598v375h-598z" stroke="var(--illustration-black)" stroke-width="2"/><g fill="var(--illustration-black)"><path d="m314 131h173v3h-173z"/><path d="m314 141h173v3h-173z"/><path d="m314 151h173v3h-173z"/><path d="m314 161h173v3h-173z"/><path d="m314 171h173v3h-173z"/><path d="m314 181h115v3h-115z"/></g><g fill="var(--illustration-black)"><path d="m222 131h81v3h-81z"/><path d="m222 141h81v3h-81z"/><path d="m241 151h62v3h-62z"/></g><g stroke="var(--illustration-accent)"><g transform="matrix(0 -1 1 0 257 412)"><path d="m158.5-158v317" transform="matrix(0 -1 1 0 158 159)"/><path d="m158.5-148v317" transform="matrix(0 -1 1 0 148 169)"/></g><g transform="matrix(0 -1 1 0 303 412)"><path d="m158.5-158v317" transform="matrix(0 -1 1 0 158 159)"/><path d="m158.5-148v317" transform="matrix(0 -1 1 0 148 169)"/></g><g transform="matrix(0 -1 1 0 349 412)"><path d="m158.5-158v317" transform="matrix(0 -1 1 0 158 159)"/><path d="m158.5-148v317" transform="matrix(0 -1 1 0 148 169)"/></g><g transform="matrix(0 -1 1 0 395 412)"><path d="m158.5-158v317" transform="matrix(0 -1 1 0 158 159)"/><path d="m158.5-148v317" transform="matrix(0 -1 1 0 148 169)"/></g><g transform="matrix(0 -1 1 0 441 412)"><path d="m158.5-158v317" transform="matrix(0 -1 1 0 158 159)"/><path d="m158.5-148v317" transform="matrix(0 -1 1 0 148 169)"/></g><g transform="matrix(0 -1 1 0 487 412)"><path d="m158.5-158v317" transform="matrix(0 -1 1 0 158 159)"/><path d="m158.5-148v317" transform="matrix(0 -1 1 0 148 169)"/></g></g><g fill="var(--illustration-accent)"><path d="m626 95h9v317h-9z" fill-opacity=".5" opacity=".25"/><path d="m258 95h9v317h-9z" fill-opacity=".5" opacity=".25"/><path d="m304 95h9v317h-9z" fill-opacity=".5" opacity=".25"/><path d="m350 95h9v317h-9z" fill-opacity=".5" opacity=".25"/><path d="m396 95h9v317h-9z" fill-opacity=".5" opacity=".25"/><path d="m442 95h9v317h-9z" fill-opacity=".5" opacity=".25"/><path d="m488 95h9v317h-9z" fill-opacity=".5" opacity=".25"/><path d="m534 95h9v317h-9z" fill-opacity=".5" opacity=".25"/><path d="m580 95h9v317h-9z" fill-opacity=".5" opacity=".25"/><path d="m166 95h9v317h-9z" fill-opacity=".5" opacity=".25"/><path d="m212 95h9v317h-9z" fill-opacity=".5" opacity=".25"/><g fill-rule="nonzero"><path d="m1.640625 6.05957031c0 .44433594.23925781.70800781.64941406.70800781.41503906 0 .65429688-.25878906.65429688-.70800781v-5.23925781c0-.49316406-.31738282-.8203125-.79101563-.8203125-.2734375 0-.55175781.09765625-.90332031.33691406l-.87402344.61035157c-.24902343.16601562-.37597656.34667968-.37597656.55175781 0 .26855468.20019531.46875.46875.46875.14160156 0 .26367188-.04394532.47363281-.18066406l.66894531-.47363282h.02929688z" transform="translate(128.320312 81.291016)"/><path d="m.07324219 6.20117188c0 .35644531.27832031.59082031.70800781.59082031h3.29101562c.38574219 0 .61523438-.20019531.61523438-.53222657 0-.33691406-.234375-.54199218-.61523438-.54199218h-2.29003906v-.06347656l1.55273438-1.66015625c.83496094-.87890625 1.13769531-1.43066407 1.13769531-2.09960938 0-1.09863281-.92773437-1.89453125-2.21679687-1.89453125-1.31835938 0-2.25585938.85449219-2.25585938 1.73339844 0 .32714844.22460938.56152344.55175781.56152344.25390625 0 .41992188-.13183594.57617188-.43457032.19042969-.51269531.55664062-.78613281 1.0546875-.78613281.60058593 0 1.00585937.37597656 1.00585937.93261719 0 .41015625-.21484375.78125-.75195312 1.35253906l-1.82128906 1.96289062c-.41015625.41992188-.54199219.62988282-.54199219.87890626z" transform="translate(167.736816 81.208008)"/><path d="m0 5.38574219c0 .80566406 1.01074219 1.54785156 2.32910156 1.54785156 1.46972656 0 2.50488282-.81542969 2.50488282-1.98242187 0-.84472657-.61035157-1.53808594-1.42089844-1.61621094v-.08300782c.67382812-.09765624 1.21582031-.76171874 1.21582031-1.484375 0-1.04003906-.94726563-1.76757812-2.29492187-1.76757812-1.27441407 0-2.2265625.71777344-2.2265625 1.49902344 0 .31738281.22460937.53710937.53710937.53710937.22949219 0 .40039063-.10253906.546875-.34667969.25878906-.43945312.63476563-.6640625 1.11816406-.6640625.62011719 0 1.04980469.36621094 1.04980469.90332032 0 .53710937-.43945312.92773437-1.04003906.92773437h-.45410156c-.29785157 0-.50781251.21972657-.50781251.51269531 0 .30273438.21484375.52246094.50781251.52246094h.47851562c.71777344 0 1.20117187.41015625 1.20117187 1.015625s-.47363281 1.00097656-1.20605468 1.00097656c-.546875 0-.98144532-.23925781-1.26464844-.68847656-.18066406-.26367187-.34179687-.36621094-.55664062-.36621094-.29785157 0-.51757813.22460938-.51757813.53222657z" transform="translate(213.626953 81.208008)"/><path d="m3.23730469 6.14746094c0 .41503906.22949219.66894531.61523437.66894531.38574219 0 .62011719-.25390625.62011719-.66894531v-.625h.32714844c.35644531 0 .56640625-.20019532.56640625-.52734375 0-.33203125-.21484375-.546875-.56640625-.546875h-.32714844v-3.515625c0-.58105469-.39550781-.93261719-1.0546875-.93261719-.5078125 0-.8203125.20507813-1.23046875.80078125-.86914062 1.28417969-1.39160156 2.17285156-1.94824219 3.22753906-.18066406.36621094-.23925781.55664063-.23925781.77148438 0 .45410156.30273438.72265625.80078125.72265625h2.43652344zm-2.03125-1.69921875v-.03417969c.4296875-.77636719 1.37695312-2.39257812 1.96289062-3.28125h.06835938v3.31542969z" transform="translate(259.397461 81.242188)"/><path d="m0 5.31738281c0 .74707031.9375 1.49414063 2.26074219 1.49414063 1.51367187 0 2.53417969-.95214844 2.53417969-2.37304688 0-1.2890625-.87402344-2.16796875-2.14355469-2.16796875-.57128907 0-1.11328125.21484375-1.34277344.52734375h-.06835937l.13671874-1.72363281h2.52441407c.39550781 0 .62011719-.19042969.62011719-.53222656 0-.34179688-.22949219-.54199219-.62011719-.54199219h-2.76367188c-.53710937 0-.81542968.22460938-.84960937.68847656l-.18066406 2.50976563c-.02929688.44921875.24414062.73730468.64453125.73730468.18066406 0 .32226562-.05859375.61035156-.30273437.28808594-.22460938.62011719-.34667969.94726562-.34667969.703125 0 1.20605469.48828125 1.20605469 1.20117188 0 .73730469-.52246094 1.25-1.25976562 1.25-.49804688 0-.88867188-.22949219-1.19628907-.68847657-.16113281-.22949218-.31738281-.31738281-.52246093-.31738281-.32714844 0-.53710938.25878907-.53710938.5859375z" transform="translate(305.67334 81.330078)"/><path d="m0 3.56445312c0 1.03027344.20019531 1.84570313.60058594 2.40722657.43945312.625 1.12304687.95703125 1.97265625.95703125 1.4453125 0 2.41699219-.93261719 2.41699219-2.32421875 0-1.27441407-.859375-2.15820313-2.08496094-2.15820313-.73242188 0-1.39160156.39550782-1.62109375.9765625h-.04394531c.00976562-1.54785156.5078125-2.37792968 1.45996093-2.37792968.37597657 0 .67871094.12695312 1.015625.41503906.22949219.18066406.36621094.23925781.546875.23925781.30273438 0 .51269531-.20019531.51269531-.49316406 0-.25878906-.20507812-.56152344-.546875-.79101563-.40039062-.26367187-.94238281-.41503906-1.5234375-.41503906-1.73339843 0-2.70507812 1.27929688-2.70507812 3.56445312zm1.39648438 1.08398438c0-.71289062.48828124-1.21582031 1.171875-1.21582031.69824218 0 1.16699218.48828125 1.16699218 1.22070312 0 .7421875-.46386718 1.23535157-1.14746094 1.23535157-.69335937 0-1.19140624-.51269532-1.19140624-1.24023438z" transform="translate(351.521973 81.212891)"/><path d="m.96679688 6.15234375c0 .3515625.26367187.59082031.61035156.59082031.2734375 0 .44921875-.14648437.59082031-.41992187l2.29980469-4.765625c.18554687-.36621094.26855468-.64453125.26855468-.8984375 0-.40039063-.28808593-.65917969-.67871093-.65917969h-3.41796875c-.41015625 0-.63964844.21972656-.63964844.54199219 0 .31738281.22949219.53222656.63964844.53222656h2.734375v.0390625l-2.29003906 4.63867187c-.07324219.14160157-.1171875.26855469-.1171875.40039063z" transform="translate(397.583008 81.334961)"/><path d="m2.56835938 6.93359375c1.54296874 0 2.59277343-.79589844 2.59277343-1.96289063 0-.8203125-.56152343-1.484375-1.39648437-1.65527343v-.07324219c.71289062-.21972656 1.1328125-.77636719 1.1328125-1.47949219 0-1.03515625-.95214844-1.76269531-2.31445313-1.76269531s-2.31445312.72753906-2.31445312 1.76269531c0 .70800781.41503906 1.25976563 1.12792969 1.47949219v.07324219c-.83984375.17089843-1.39648438.83496093-1.39648438 1.66015625 0 1.171875 1.03027344 1.95800781 2.56835938 1.95800781zm.01464843-4.06738281c-.61523437 0-1.0546875-.40527344-1.0546875-.96191406 0-.55175782.43945313-.94726563 1.0546875-.94726563.61523438 0 1.0546875.39550781 1.0546875.94726563 0 .56152343-.43945312.96191406-1.0546875.96191406zm0 3.11523437c-.7421875 0-1.26953125-.45898437-1.26953125-1.09375 0-.63964843.52734375-1.10351562 1.26953125-1.10351562.73730469 0 1.26953125.46386719 1.26953125 1.10351562 0 .63476563-.53222656 1.09375-1.26953125 1.09375z" transform="translate(443.419434 81.208008)"/><path d="m.20996094 5.75195312c0 .29296876.21972656.5859375.57617187.80566407.39550781.24414062.91796875.38085937 1.48925781.38085937 1.74316407 0 2.70507813-1.23535156 2.70507813-3.52050781 0-2.17773437-.92773437-3.41796875-2.55371094-3.41796875-1.45507812 0-2.42675781.92773438-2.42675781 2.30957031 0 1.29882813.85449219 2.20214844 2.08496094 2.20214844.75195312 0 1.3671875-.38085937 1.61132812-1.00097656h.04394532c0 1.50878906-.5078125 2.37792969-1.46972657 2.37792969-.43457031 0-.7421875-.14648438-1.06445312-.4296875-.20019531-.16113282-.32714844-.21484376-.48828125-.21484376-.28808594 0-.5078125.20019532-.5078125.5078125zm3.34472656-3.46191406c0 .72265625-.46875 1.21582032-1.15234375 1.21582032s-1.14746094-.49316407-1.14746094-1.22070313c0-.73242187.46875-1.24023437 1.14257813-1.24023437.68359375 0 1.15722656.51269531 1.15722656 1.24511718z" transform="translate(489.536621 81.198242)"/><g transform="translate(533.412598 81.208008)"><path d="m1.640625 6.14257812c0 .44433594.23925781.70800782.64941406.70800782.41503906 0 .65429688-.25878906.65429688-.70800782v-5.23925781c0-.49316406-.31738282-.8203125-.79101563-.8203125-.2734375 0-.55175781.09765625-.90332031.33691407l-.87402344.61035156c-.24902343.16601562-.37597656.34667968-.37597656.55175781 0 .26855469.20019531.46875.46875.46875.14160156 0 .26367188-.04394531.47363281-.18066406l.66894531-.47363281h.02929688z"/><path d="m4.09667969 3.62304688c0 2.01171874.94238281 3.31054687 2.52441406 3.31054687s2.54882813-1.31347656 2.54882813-3.31054687v-.3125c0-2.01660157-.9375-3.31054688-2.52929688-3.31054688-1.58691406 0-2.54394531 1.30859375-2.54394531 3.31054688zm1.31835937-.30761719c0-1.40625.45898438-2.24121094 1.21582032-2.24121094.75683593 0 1.21582031.83984375 1.21582031 2.24121094v.29785156c0 1.40625-.45898438 2.24609375-1.21582031 2.24609375-.75683594 0-1.21582032-.83984375-1.21582032-2.24609375z"/></g><g transform="translate(580.269531 81.291016)"><path d="m1.640625 6.05957031c0 .44433594.23925781.70800781.64941406.70800781.41503906 0 .65429688-.25878906.65429688-.70800781v-5.23925781c0-.49316406-.31738282-.8203125-.79101563-.8203125-.2734375 0-.55175781.09765625-.90332031.33691406l-.87402344.61035157c-.24902343.16601562-.37597656.34667968-.37597656.55175781 0 .26855468.20019531.46875.46875.46875.14160156 0 .26367188-.04394532.47363281-.18066406l.66894531-.47363282h.02929688z"/><path d="m5.7421875 6.05957031c0 .44433594.23925781.70800781.64941406.70800781.41503906 0 .65429688-.25878906.65429688-.70800781v-5.23925781c0-.49316406-.31738282-.8203125-.79101563-.8203125-.2734375 0-.55175781.09765625-.90332031.33691406l-.87402344.61035157c-.24902344.16601562-.37597656.34667968-.37597656.55175781 0 .26855468.20019531.46875.46875.46875.14160156 0 .26367188-.04394532.47363281-.18066406l.66894531-.47363282h.02929688z"/></g><g transform="translate(625.534668 81.208008)"><path d="m1.640625 6.14257812c0 .44433594.23925781.70800782.64941406.70800782.41503906 0 .65429688-.25878906.65429688-.70800782v-5.23925781c0-.49316406-.31738282-.8203125-.79101563-.8203125-.2734375 0-.55175781.09765625-.90332031.33691407l-.87402344.61035156c-.24902343.16601562-.37597656.34667968-.37597656.55175781 0 .26855469.20019531.46875.46875.46875.14160156 0 .26367188-.04394531.47363281-.18066406l.66894531-.47363281h.02929688z"/><path d="m4.32617188 6.20117188c0 .35644531.27832031.59082031.70800781.59082031h3.29101562c.38574219 0 .61523438-.20019531.61523438-.53222657 0-.33691406-.234375-.54199218-.61523438-.54199218h-2.29003906v-.06347656l1.55273437-1.66015625c.83496094-.87890625 1.13769532-1.43066407 1.13769532-2.09960938 0-1.09863281-.92773438-1.89453125-2.21679688-1.89453125-1.31835937 0-2.25585937.85449219-2.25585937 1.73339844 0 .32714844.22460937.56152344.55175781.56152344.25390625 0 .41992188-.13183594.57617188-.43457032.19042968-.51269531.55664062-.78613281 1.0546875-.78613281.60058593 0 1.00585937.37597656 1.00585937.93261719 0 .41015625-.21484375.78125-.75195313 1.35253906l-1.82128906 1.96289062c-.41015625.41992188-.54199218.62988282-.54199218.87890626z"/></g><g transform="translate(665.478516 81.208008)"><path d="m1.640625 6.14257812c0 .44433594.23925781.70800782.64941406.70800782.41503906 0 .65429688-.25878906.65429688-.70800782v-5.23925781c0-.49316406-.31738282-.8203125-.79101563-.8203125-.2734375 0-.55175781.09765625-.90332031.33691407l-.87402344.61035156c-.24902343.16601562-.37597656.34667968-.37597656.55175781 0 .26855469.20019531.46875.46875.46875.14160156 0 .26367188-.04394531.47363281-.18066406l.66894531-.47363281h.02929688z"/><path d="m4.19921875 5.38574219c0 .80566406 1.01074219 1.54785156 2.32910156 1.54785156 1.46972657 0 2.50488281-.81542969 2.50488281-1.98242187 0-.84472657-.61035156-1.53808594-1.42089843-1.61621094v-.08300782c.67382812-.09765624 1.21582031-.76171874 1.21582031-1.484375 0-1.04003906-.94726562-1.76757812-2.29492188-1.76757812-1.27441406 0-2.2265625.71777344-2.2265625 1.49902344 0 .31738281.22460938.53710937.53710938.53710937.22949219 0 .40039062-.10253906.546875-.34667969.25878906-.43945312.63476562-.6640625 1.11816406-.6640625.62011719 0 1.04980469.36621094 1.04980469.90332032 0 .53710937-.43945313.92773437-1.04003906.92773437h-.45410157c-.29785156 0-.5078125.21972657-.5078125.51269531 0 .30273438.21484376.52246094.5078125.52246094h.47851563c.71777344 0 1.20117187.41015625 1.20117187 1.015625s-.47363281 1.00097656-1.20605468 1.00097656c-.546875 0-.98144532-.23925781-1.26464844-.68847656-.18066406-.26367187-.34179688-.36621094-.55664062-.36621094-.29785157 0-.51757813.22460938-.51757813.53222657z"/></g></g></g></g></svg>