<?xml version="1.0" encoding="UTF-8"?>
<svg width="800px" height="507px" viewBox="0 0 800 507" version="1.1" xmlns="http://www.w3.org/2000/svg" xmlns:xlink="http://www.w3.org/1999/xlink">
    <title>css-grid-layout-3</title>
    <g id="css-grid-layout-3" stroke="none" stroke-width="1" fill="none" fill-rule="evenodd">
        <rect id="Rectangle" fill="var(--illustration-gray)" x="131" y="194" width="539" height="162"></rect>
        <rect id="Rectangle" stroke="var(--illustration-accent)" x="130.5" y="95.5" width="539" height="316"></rect>
        <line x1="400" y1="-139.5" x2="400" y2="400.5" id="Line" stroke="var(--illustration-accent)" transform="translate(400.000000, 130.500000) rotate(-90.000000) translate(-400.000000, -130.500000) "></line>
        <line x1="400" y1="-76.5" x2="400" y2="463.5" id="Line" stroke="var(--illustration-accent)" transform="translate(400.000000, 193.500000) rotate(-90.000000) translate(-400.000000, -193.500000) "></line>
        <line x1="400" y1="95.5" x2="400" y2="635.5" id="Line-Copy" stroke="var(--illustration-accent)" transform="translate(400.000000, 365.500000) rotate(-90.000000) translate(-400.000000, -365.500000) "></line>
        <g id="Group-Copy-6" transform="translate(314.000000, 366.000000)" fill="var(--illustration-black)">
            <rect id="Rectangle" x="0" y="0" width="173" height="3"></rect>
        </g>
        <g id="Group-Copy-7" transform="translate(170.500000, 253.500000) rotate(-90.000000) translate(-170.500000, -253.500000) translate(12.000000, 248.000000)" stroke="var(--illustration-accent)">
            <line x1="158.5" y1="-158" x2="158.5" y2="159" id="Line" transform="translate(158.500000, 0.500000) rotate(-90.000000) translate(-158.500000, -0.500000) "></line>
            <line x1="158.5" y1="-148" x2="158.5" y2="169" id="Line-Copy" transform="translate(158.500000, 10.500000) rotate(-90.000000) translate(-158.500000, -10.500000) "></line>
        </g>
        <g id="Group-Copy-8" transform="translate(216.500000, 253.500000) rotate(-90.000000) translate(-216.500000, -253.500000) translate(58.000000, 248.000000)" stroke="var(--illustration-accent)">
            <line x1="158.5" y1="-158" x2="158.5" y2="159" id="Line" transform="translate(158.500000, 0.500000) rotate(-90.000000) translate(-158.500000, -0.500000) "></line>
            <line x1="158.5" y1="-148" x2="158.5" y2="169" id="Line-Copy" transform="translate(158.500000, 10.500000) rotate(-90.000000) translate(-158.500000, -10.500000) "></line>
        </g>
        <g id="Group-Copy-15" transform="translate(538.500000, 253.500000) rotate(-90.000000) translate(-538.500000, -253.500000) translate(380.000000, 248.000000)" stroke="var(--illustration-accent)">
            <line x1="158.5" y1="-158" x2="158.5" y2="159" id="Line" transform="translate(158.500000, 0.500000) rotate(-90.000000) translate(-158.500000, -0.500000) "></line>
            <line x1="158.5" y1="-148" x2="158.5" y2="169" id="Line-Copy" transform="translate(158.500000, 10.500000) rotate(-90.000000) translate(-158.500000, -10.500000) "></line>
        </g>
        <g id="Group-Copy-16" transform="translate(584.500000, 253.500000) rotate(-90.000000) translate(-584.500000, -253.500000) translate(426.000000, 248.000000)" stroke="var(--illustration-accent)">
            <line x1="158.5" y1="-158" x2="158.5" y2="159" id="Line" transform="translate(158.500000, 0.500000) rotate(-90.000000) translate(-158.500000, -0.500000) "></line>
            <line x1="158.5" y1="-148" x2="158.5" y2="169" id="Line-Copy" transform="translate(158.500000, 10.500000) rotate(-90.000000) translate(-158.500000, -10.500000) "></line>
        </g>
        <g id="Group-Copy-17" transform="translate(630.500000, 253.500000) rotate(-90.000000) translate(-630.500000, -253.500000) translate(472.000000, 248.000000)" stroke="var(--illustration-accent)">
            <line x1="158.5" y1="-158" x2="158.5" y2="159" id="Line" transform="translate(158.500000, 0.500000) rotate(-90.000000) translate(-158.500000, -0.500000) "></line>
            <line x1="158.5" y1="-148" x2="158.5" y2="169" id="Line-Copy" transform="translate(158.500000, 10.500000) rotate(-90.000000) translate(-158.500000, -10.500000) "></line>
        </g>
        <rect id="Rectangle" stroke="var(--illustration-black)" stroke-width="2" x="101" y="66" width="598" height="375"></rect>
        <g id="Group-3" transform="translate(314.000000, 131.000000)" fill="var(--illustration-black)">
            <rect id="Rectangle" x="0" y="0" width="173" height="3"></rect>
            <rect id="Rectangle" x="0" y="10" width="173" height="3"></rect>
            <rect id="Rectangle" x="0" y="20" width="173" height="3"></rect>
            <rect id="Rectangle-Copy" x="0" y="30" width="173" height="3"></rect>
            <rect id="Rectangle-Copy-2" x="0" y="40" width="173" height="3"></rect>
            <rect id="Rectangle" x="0" y="50" width="115" height="3"></rect>
        </g>
        <g id="Group-4" transform="translate(222.000000, 131.000000)" fill="var(--illustration-black)">
            <rect id="Rectangle" x="0" y="0" width="81" height="3"></rect>
            <rect id="Rectangle" x="0" y="10" width="81" height="3"></rect>
            <rect id="Rectangle" x="19" y="20" width="62" height="3"></rect>
        </g>
        <g id="Group-Copy-9" transform="translate(262.500000, 253.500000) rotate(-90.000000) translate(-262.500000, -253.500000) translate(104.000000, 248.000000)" stroke="var(--illustration-accent)">
            <line x1="158.5" y1="-158" x2="158.5" y2="159" id="Line" transform="translate(158.500000, 0.500000) rotate(-90.000000) translate(-158.500000, -0.500000) "></line>
            <line x1="158.5" y1="-148" x2="158.5" y2="169" id="Line-Copy" transform="translate(158.500000, 10.500000) rotate(-90.000000) translate(-158.500000, -10.500000) "></line>
        </g>
        <g id="Group-Copy-10" transform="translate(308.500000, 253.500000) rotate(-90.000000) translate(-308.500000, -253.500000) translate(150.000000, 248.000000)" stroke="var(--illustration-accent)">
            <line x1="158.5" y1="-158" x2="158.5" y2="159" id="Line" transform="translate(158.500000, 0.500000) rotate(-90.000000) translate(-158.500000, -0.500000) "></line>
            <line x1="158.5" y1="-148" x2="158.5" y2="169" id="Line-Copy" transform="translate(158.500000, 10.500000) rotate(-90.000000) translate(-158.500000, -10.500000) "></line>
        </g>
        <g id="Group-Copy-11" transform="translate(354.500000, 253.500000) rotate(-90.000000) translate(-354.500000, -253.500000) translate(196.000000, 248.000000)" stroke="var(--illustration-accent)">
            <line x1="158.5" y1="-158" x2="158.5" y2="159" id="Line" transform="translate(158.500000, 0.500000) rotate(-90.000000) translate(-158.500000, -0.500000) "></line>
            <line x1="158.5" y1="-148" x2="158.5" y2="169" id="Line-Copy" transform="translate(158.500000, 10.500000) rotate(-90.000000) translate(-158.500000, -10.500000) "></line>
        </g>
        <g id="Group-Copy-12" transform="translate(400.500000, 253.500000) rotate(-90.000000) translate(-400.500000, -253.500000) translate(242.000000, 248.000000)" stroke="var(--illustration-accent)">
            <line x1="158.5" y1="-158" x2="158.5" y2="159" id="Line" transform="translate(158.500000, 0.500000) rotate(-90.000000) translate(-158.500000, -0.500000) "></line>
            <line x1="158.5" y1="-148" x2="158.5" y2="169" id="Line-Copy" transform="translate(158.500000, 10.500000) rotate(-90.000000) translate(-158.500000, -10.500000) "></line>
        </g>
        <g id="Group-Copy-13" transform="translate(446.500000, 253.500000) rotate(-90.000000) translate(-446.500000, -253.500000) translate(288.000000, 248.000000)" stroke="var(--illustration-accent)">
            <line x1="158.5" y1="-158" x2="158.5" y2="159" id="Line" transform="translate(158.500000, 0.500000) rotate(-90.000000) translate(-158.500000, -0.500000) "></line>
            <line x1="158.5" y1="-148" x2="158.5" y2="169" id="Line-Copy" transform="translate(158.500000, 10.500000) rotate(-90.000000) translate(-158.500000, -10.500000) "></line>
        </g>
        <g id="Group-Copy-14" transform="translate(492.500000, 253.500000) rotate(-90.000000) translate(-492.500000, -253.500000) translate(334.000000, 248.000000)" stroke="var(--illustration-accent)">
            <line x1="158.5" y1="-158" x2="158.5" y2="159" id="Line" transform="translate(158.500000, 0.500000) rotate(-90.000000) translate(-158.500000, -0.500000) "></line>
            <line x1="158.5" y1="-148" x2="158.5" y2="169" id="Line-Copy" transform="translate(158.500000, 10.500000) rotate(-90.000000) translate(-158.500000, -10.500000) "></line>
        </g>
        <rect id="Rectangle-Copy-12" fill-opacity="0.5" fill="var(--illustration-accent)" opacity="0.25" x="626" y="95" width="9" height="317"></rect>
        <rect id="Rectangle-Copy-4" fill-opacity="0.5" fill="var(--illustration-accent)" opacity="0.25" x="258" y="95" width="9" height="317"></rect>
        <rect id="Rectangle-Copy-5" fill-opacity="0.5" fill="var(--illustration-accent)" opacity="0.25" x="304" y="95" width="9" height="317"></rect>
        <rect id="Rectangle-Copy-6" fill-opacity="0.5" fill="var(--illustration-accent)" opacity="0.25" x="350" y="95" width="9" height="317"></rect>
        <rect id="Rectangle-Copy-7" fill-opacity="0.5" fill="var(--illustration-accent)" opacity="0.25" x="396" y="95" width="9" height="317"></rect>
        <rect id="Rectangle-Copy-8" fill-opacity="0.5" fill="var(--illustration-accent)" opacity="0.25" x="442" y="95" width="9" height="317"></rect>
        <rect id="Rectangle-Copy-9" fill-opacity="0.5" fill="var(--illustration-accent)" opacity="0.25" x="488" y="95" width="9" height="317"></rect>
        <rect id="Rectangle-Copy-10" fill-opacity="0.5" fill="var(--illustration-accent)" opacity="0.25" x="534" y="95" width="9" height="317"></rect>
        <rect id="Rectangle-Copy-11" fill-opacity="0.5" fill="var(--illustration-accent)" opacity="0.25" x="580" y="95" width="9" height="317"></rect>
        <rect id="Rectangle" fill-opacity="0.5" fill="var(--illustration-accent)" opacity="0.25" x="166" y="95" width="9" height="317"></rect>
        <rect id="Rectangle-Copy-3" fill-opacity="0.5" fill="var(--illustration-accent)" opacity="0.25" x="212" y="95" width="9" height="317"></rect>
        <g id="grid-line-label" transform="translate(128.320312, 81.291016)" fill="var(--illustration-accent)" fill-rule="nonzero">
            <g id="1">
                <path d="M1.640625,6.05957031 C1.640625,6.50390625 1.87988281,6.76757812 2.29003906,6.76757812 C2.70507812,6.76757812 2.94433594,6.50878906 2.94433594,6.05957031 L2.94433594,0.8203125 C2.94433594,0.327148438 2.62695312,0 2.15332031,0 C1.87988281,0 1.6015625,0.09765625 1.25,0.336914062 L0.375976562,0.947265625 C0.126953125,1.11328125 0,1.29394531 0,1.49902344 C0,1.76757812 0.200195312,1.96777344 0.46875,1.96777344 C0.610351562,1.96777344 0.732421875,1.92382812 0.942382812,1.78710938 L1.61132812,1.31347656 L1.640625,1.31347656 L1.640625,6.05957031 Z" id="Path"></path>
            </g>
        </g>
        <g id="grid-line-label-copy" transform="translate(167.736816, 81.208008)" fill="var(--illustration-accent)" fill-rule="nonzero">
            <g id="1">
                <path d="M0.0732421875,6.20117188 C0.0732421875,6.55761719 0.3515625,6.79199219 0.78125,6.79199219 L4.07226562,6.79199219 C4.45800781,6.79199219 4.6875,6.59179688 4.6875,6.25976562 C4.6875,5.92285156 4.453125,5.71777344 4.07226562,5.71777344 L1.78222656,5.71777344 L1.78222656,5.65429688 L3.33496094,3.99414063 C4.16992188,3.11523438 4.47265625,2.56347656 4.47265625,1.89453125 C4.47265625,0.795898438 3.54492188,0 2.25585938,0 C0.9375,0 0,0.854492188 0,1.73339844 C0,2.06054688 0.224609375,2.29492188 0.551757812,2.29492188 C0.805664062,2.29492188 0.971679688,2.16308594 1.12792969,1.86035156 C1.31835938,1.34765625 1.68457031,1.07421875 2.18261719,1.07421875 C2.78320312,1.07421875 3.18847656,1.45019531 3.18847656,2.00683594 C3.18847656,2.41699219 2.97363281,2.78808594 2.43652344,3.359375 L0.615234375,5.32226562 C0.205078125,5.7421875 0.0732421875,5.95214844 0.0732421875,6.20117188 Z" id="Path"></path>
            </g>
        </g>
        <g id="grid-line-label-copy-2" transform="translate(213.626953, 81.208008)" fill="var(--illustration-accent)" fill-rule="nonzero">
            <g id="1">
                <path d="M0,5.38574219 C0,6.19140625 1.01074219,6.93359375 2.32910156,6.93359375 C3.79882812,6.93359375 4.83398438,6.11816406 4.83398438,4.95117188 C4.83398438,4.10644531 4.22363281,3.41308594 3.41308594,3.33496094 L3.41308594,3.25195312 C4.08691406,3.15429688 4.62890625,2.49023438 4.62890625,1.76757812 C4.62890625,0.727539062 3.68164062,0 2.33398438,0 C1.05957031,0 0.107421875,0.717773438 0.107421875,1.49902344 C0.107421875,1.81640625 0.33203125,2.03613281 0.64453125,2.03613281 C0.874023438,2.03613281 1.04492188,1.93359375 1.19140625,1.68945312 C1.45019531,1.25 1.82617188,1.02539062 2.30957031,1.02539062 C2.9296875,1.02539062 3.359375,1.39160156 3.359375,1.92871094 C3.359375,2.46582031 2.91992188,2.85644531 2.31933594,2.85644531 L1.86523438,2.85644531 C1.56738281,2.85644531 1.35742187,3.07617188 1.35742187,3.36914062 C1.35742187,3.671875 1.57226562,3.89160156 1.86523438,3.89160156 L2.34375,3.89160156 C3.06152344,3.89160156 3.54492187,4.30175781 3.54492187,4.90722656 C3.54492187,5.51269531 3.07128906,5.90820312 2.33886719,5.90820312 C1.79199219,5.90820312 1.35742187,5.66894531 1.07421875,5.21972656 C0.893554688,4.95605469 0.732421875,4.85351562 0.517578125,4.85351562 C0.219726562,4.85351562 0,5.078125 0,5.38574219 Z" id="Path"></path>
            </g>
        </g>
        <g id="grid-line-label-copy-3" transform="translate(259.397461, 81.242188)" fill="var(--illustration-accent)" fill-rule="nonzero">
            <g id="1">
                <path d="M3.23730469,6.14746094 C3.23730469,6.5625 3.46679688,6.81640625 3.85253906,6.81640625 C4.23828125,6.81640625 4.47265625,6.5625 4.47265625,6.14746094 L4.47265625,5.52246094 L4.79980469,5.52246094 C5.15625,5.52246094 5.36621094,5.32226562 5.36621094,4.99511719 C5.36621094,4.66308594 5.15136719,4.44824219 4.79980469,4.44824219 L4.47265625,4.44824219 L4.47265625,0.932617188 C4.47265625,0.3515625 4.07714844,0 3.41796875,0 C2.91015625,0 2.59765625,0.205078125 2.1875,0.80078125 C1.31835938,2.08496094 0.795898438,2.97363281 0.239257812,4.02832031 C0.05859375,4.39453125 0,4.58496094 0,4.79980469 C0,5.25390625 0.302734375,5.52246094 0.80078125,5.52246094 L3.23730469,5.52246094 L3.23730469,6.14746094 Z M1.20605469,4.44824219 L1.20605469,4.4140625 C1.63574219,3.63769531 2.58300781,2.02148438 3.16894531,1.1328125 L3.23730469,1.1328125 L3.23730469,4.44824219 L1.20605469,4.44824219 Z" id="Shape"></path>
            </g>
        </g>
        <g id="grid-line-label-copy-4" transform="translate(305.673340, 81.330078)" fill="var(--illustration-accent)" fill-rule="nonzero">
            <g id="1">
                <path d="M0,5.31738281 C0,6.06445312 0.9375,6.81152344 2.26074219,6.81152344 C3.77441406,6.81152344 4.79492188,5.859375 4.79492188,4.43847656 C4.79492188,3.14941406 3.92089844,2.27050781 2.65136719,2.27050781 C2.08007812,2.27050781 1.53808594,2.48535156 1.30859375,2.79785156 L1.24023438,2.79785156 L1.37695312,1.07421875 L3.90136719,1.07421875 C4.296875,1.07421875 4.52148438,0.883789062 4.52148438,0.541992188 C4.52148438,0.200195312 4.29199219,0 3.90136719,0 L1.13769531,0 C0.600585938,0 0.322265625,0.224609375 0.288085938,0.688476562 L0.107421875,3.19824219 C0.078125,3.64746094 0.3515625,3.93554687 0.751953125,3.93554687 C0.932617188,3.93554687 1.07421875,3.87695312 1.36230469,3.6328125 C1.65039063,3.40820312 1.98242188,3.28613281 2.30957031,3.28613281 C3.01269531,3.28613281 3.515625,3.77441406 3.515625,4.48730469 C3.515625,5.22460938 2.99316406,5.73730469 2.25585938,5.73730469 C1.7578125,5.73730469 1.3671875,5.5078125 1.05957031,5.04882812 C0.8984375,4.81933594 0.7421875,4.73144531 0.537109375,4.73144531 C0.209960938,4.73144531 0,4.99023438 0,5.31738281 Z" id="Path"></path>
            </g>
        </g>
        <g id="grid-line-label-copy-5" transform="translate(351.521973, 81.212891)" fill="var(--illustration-accent)" fill-rule="nonzero">
            <g id="1">
                <path d="M0,3.56445312 C0,4.59472656 0.200195312,5.41015625 0.600585938,5.97167969 C1.04003906,6.59667969 1.72363281,6.92871094 2.57324219,6.92871094 C4.01855469,6.92871094 4.99023438,5.99609375 4.99023438,4.60449219 C4.99023438,3.33007812 4.13085938,2.44628906 2.90527344,2.44628906 C2.17285156,2.44628906 1.51367188,2.84179688 1.28417969,3.42285156 L1.24023438,3.42285156 C1.25,1.875 1.74804688,1.04492188 2.70019531,1.04492188 C3.07617188,1.04492188 3.37890625,1.171875 3.71582031,1.45996094 C3.9453125,1.640625 4.08203125,1.69921875 4.26269531,1.69921875 C4.56542969,1.69921875 4.77539062,1.49902344 4.77539062,1.20605469 C4.77539062,0.947265625 4.5703125,0.64453125 4.22851562,0.415039062 C3.828125,0.151367188 3.28613281,0 2.70507812,0 C0.971679688,0 0,1.27929688 0,3.56445312 Z M1.39648438,4.6484375 C1.39648438,3.93554688 1.88476562,3.43261719 2.56835938,3.43261719 C3.26660156,3.43261719 3.73535156,3.92089844 3.73535156,4.65332031 C3.73535156,5.39550781 3.27148438,5.88867188 2.58789062,5.88867188 C1.89453125,5.88867188 1.39648438,5.37597656 1.39648438,4.6484375 Z" id="Shape"></path>
            </g>
        </g>
        <g id="grid-line-label-copy-6" transform="translate(397.583008, 81.334961)" fill="var(--illustration-accent)" fill-rule="nonzero">
            <g id="1">
                <path d="M0.966796875,6.15234375 C0.966796875,6.50390625 1.23046875,6.74316406 1.57714844,6.74316406 C1.85058594,6.74316406 2.02636719,6.59667969 2.16796875,6.32324219 L4.46777344,1.55761719 C4.65332031,1.19140625 4.73632812,0.913085938 4.73632812,0.659179688 C4.73632812,0.258789062 4.44824219,0 4.05761719,0 L0.639648438,0 C0.229492188,0 0,0.219726563 0,0.541992188 C0,0.859375 0.229492188,1.07421875 0.639648438,1.07421875 L3.37402344,1.07421875 L3.37402344,1.11328125 L1.08398438,5.75195312 C1.01074219,5.89355469 0.966796875,6.02050781 0.966796875,6.15234375 Z" id="Path"></path>
            </g>
        </g>
        <g id="grid-line-label-copy-7" transform="translate(443.419434, 81.208008)" fill="var(--illustration-accent)" fill-rule="nonzero">
            <g id="1">
                <path d="M2.56835938,6.93359375 C4.11132812,6.93359375 5.16113281,6.13769531 5.16113281,4.97070312 C5.16113281,4.15039062 4.59960938,3.48632812 3.76464844,3.31542969 L3.76464844,3.2421875 C4.47753906,3.02246094 4.89746094,2.46582031 4.89746094,1.76269531 C4.89746094,0.727539062 3.9453125,0 2.58300781,0 C1.22070312,0 0.268554688,0.727539062 0.268554688,1.76269531 C0.268554688,2.47070312 0.68359375,3.02246094 1.39648438,3.2421875 L1.39648438,3.31542969 C0.556640625,3.48632812 0,4.15039062 0,4.97558594 C0,6.14746094 1.03027344,6.93359375 2.56835938,6.93359375 Z M2.58300781,2.86621094 C1.96777344,2.86621094 1.52832031,2.4609375 1.52832031,1.90429688 C1.52832031,1.35253906 1.96777344,0.95703125 2.58300781,0.95703125 C3.19824219,0.95703125 3.63769531,1.35253906 3.63769531,1.90429688 C3.63769531,2.46582031 3.19824219,2.86621094 2.58300781,2.86621094 Z M2.58300781,5.98144531 C1.84082031,5.98144531 1.31347656,5.52246094 1.31347656,4.88769531 C1.31347656,4.24804688 1.84082031,3.78417969 2.58300781,3.78417969 C3.3203125,3.78417969 3.85253906,4.24804688 3.85253906,4.88769531 C3.85253906,5.52246094 3.3203125,5.98144531 2.58300781,5.98144531 Z" id="Shape"></path>
            </g>
        </g>
        <g id="grid-line-label-copy-8" transform="translate(489.536621, 81.198242)" fill="var(--illustration-accent)" fill-rule="nonzero">
            <g id="1">
                <path d="M0.209960938,5.75195312 C0.209960938,6.04492188 0.4296875,6.33789062 0.786132812,6.55761719 C1.18164062,6.80175781 1.70410156,6.93847656 2.27539062,6.93847656 C4.01855469,6.93847656 4.98046875,5.703125 4.98046875,3.41796875 C4.98046875,1.24023438 4.05273438,0 2.42675781,0 C0.971679688,0 0,0.927734375 0,2.30957031 C0,3.60839844 0.854492188,4.51171875 2.08496094,4.51171875 C2.83691406,4.51171875 3.45214844,4.13085938 3.69628906,3.51074219 L3.74023438,3.51074219 C3.74023438,5.01953125 3.23242188,5.88867188 2.27050781,5.88867188 C1.8359375,5.88867188 1.52832031,5.7421875 1.20605469,5.45898438 C1.00585938,5.29785156 0.87890625,5.24414062 0.717773437,5.24414062 C0.4296875,5.24414062 0.209960938,5.44433594 0.209960938,5.75195312 Z M3.5546875,2.29003906 C3.5546875,3.01269531 3.0859375,3.50585938 2.40234375,3.50585938 C1.71875,3.50585938 1.25488281,3.01269531 1.25488281,2.28515625 C1.25488281,1.55273438 1.72363281,1.04492188 2.39746094,1.04492188 C3.08105469,1.04492188 3.5546875,1.55761719 3.5546875,2.29003906 Z" id="Shape"></path>
            </g>
        </g>
        <g id="grid-line-label-copy-9" transform="translate(533.412598, 81.208008)" fill="var(--illustration-accent)" fill-rule="nonzero">
            <g id="1">
                <path d="M1.640625,6.14257812 C1.640625,6.58691406 1.87988281,6.85058594 2.29003906,6.85058594 C2.70507812,6.85058594 2.94433594,6.59179688 2.94433594,6.14257812 L2.94433594,0.903320312 C2.94433594,0.41015625 2.62695312,0.0830078125 2.15332031,0.0830078125 C1.87988281,0.0830078125 1.6015625,0.180664062 1.25,0.419921875 L0.375976562,1.03027344 C0.126953125,1.19628906 0,1.37695312 0,1.58203125 C0,1.85058594 0.200195312,2.05078125 0.46875,2.05078125 C0.610351562,2.05078125 0.732421875,2.00683594 0.942382812,1.87011719 L1.61132812,1.39648438 L1.640625,1.39648438 L1.640625,6.14257812 Z" id="Path"></path>
                <path d="M4.09667969,3.62304688 C4.09667969,5.63476562 5.0390625,6.93359375 6.62109375,6.93359375 C8.203125,6.93359375 9.16992188,5.62011719 9.16992188,3.62304688 L9.16992188,3.31054688 C9.16992188,1.29394531 8.23242188,0 6.640625,0 C5.05371094,0 4.09667969,1.30859375 4.09667969,3.31054688 L4.09667969,3.62304688 Z M5.41503906,3.31542969 C5.41503906,1.90917969 5.87402344,1.07421875 6.63085938,1.07421875 C7.38769531,1.07421875 7.84667969,1.9140625 7.84667969,3.31542969 L7.84667969,3.61328125 C7.84667969,5.01953125 7.38769531,5.859375 6.63085938,5.859375 C5.87402344,5.859375 5.41503906,5.01953125 5.41503906,3.61328125 L5.41503906,3.31542969 Z" id="Shape"></path>
            </g>
        </g>
        <g id="grid-line-label-copy-10" transform="translate(580.269531, 81.291016)" fill="var(--illustration-accent)" fill-rule="nonzero">
            <g id="1">
                <path d="M1.640625,6.05957031 C1.640625,6.50390625 1.87988281,6.76757812 2.29003906,6.76757812 C2.70507812,6.76757812 2.94433594,6.50878906 2.94433594,6.05957031 L2.94433594,0.8203125 C2.94433594,0.327148438 2.62695312,0 2.15332031,0 C1.87988281,0 1.6015625,0.09765625 1.25,0.336914062 L0.375976562,0.947265625 C0.126953125,1.11328125 0,1.29394531 0,1.49902344 C0,1.76757812 0.200195312,1.96777344 0.46875,1.96777344 C0.610351562,1.96777344 0.732421875,1.92382812 0.942382812,1.78710938 L1.61132812,1.31347656 L1.640625,1.31347656 L1.640625,6.05957031 Z" id="Path"></path>
                <path d="M5.7421875,6.05957031 C5.7421875,6.50390625 5.98144531,6.76757812 6.39160156,6.76757812 C6.80664062,6.76757812 7.04589844,6.50878906 7.04589844,6.05957031 L7.04589844,0.8203125 C7.04589844,0.327148438 6.72851562,0 6.25488281,0 C5.98144531,0 5.703125,0.09765625 5.3515625,0.336914062 L4.47753906,0.947265625 C4.22851562,1.11328125 4.1015625,1.29394531 4.1015625,1.49902344 C4.1015625,1.76757812 4.30175781,1.96777344 4.5703125,1.96777344 C4.71191406,1.96777344 4.83398438,1.92382812 5.04394531,1.78710938 L5.71289062,1.31347656 L5.7421875,1.31347656 L5.7421875,6.05957031 Z" id="Path"></path>
            </g>
        </g>
        <g id="grid-line-label-copy-11" transform="translate(625.534668, 81.208008)" fill="var(--illustration-accent)" fill-rule="nonzero">
            <g id="1">
                <path d="M1.640625,6.14257812 C1.640625,6.58691406 1.87988281,6.85058594 2.29003906,6.85058594 C2.70507812,6.85058594 2.94433594,6.59179688 2.94433594,6.14257812 L2.94433594,0.903320312 C2.94433594,0.41015625 2.62695312,0.0830078125 2.15332031,0.0830078125 C1.87988281,0.0830078125 1.6015625,0.180664062 1.25,0.419921875 L0.375976562,1.03027344 C0.126953125,1.19628906 0,1.37695312 0,1.58203125 C0,1.85058594 0.200195312,2.05078125 0.46875,2.05078125 C0.610351562,2.05078125 0.732421875,2.00683594 0.942382812,1.87011719 L1.61132812,1.39648438 L1.640625,1.39648438 L1.640625,6.14257812 Z" id="Path"></path>
                <path d="M4.32617188,6.20117188 C4.32617188,6.55761719 4.60449219,6.79199219 5.03417969,6.79199219 L8.32519531,6.79199219 C8.7109375,6.79199219 8.94042969,6.59179688 8.94042969,6.25976562 C8.94042969,5.92285156 8.70605469,5.71777344 8.32519531,5.71777344 L6.03515625,5.71777344 L6.03515625,5.65429688 L7.58789062,3.99414063 C8.42285156,3.11523438 8.72558594,2.56347656 8.72558594,1.89453125 C8.72558594,0.795898438 7.79785156,0 6.50878906,0 C5.19042969,0 4.25292969,0.854492188 4.25292969,1.73339844 C4.25292969,2.06054688 4.47753906,2.29492188 4.8046875,2.29492188 C5.05859375,2.29492188 5.22460938,2.16308594 5.38085938,1.86035156 C5.57128906,1.34765625 5.9375,1.07421875 6.43554688,1.07421875 C7.03613281,1.07421875 7.44140625,1.45019531 7.44140625,2.00683594 C7.44140625,2.41699219 7.2265625,2.78808594 6.68945312,3.359375 L4.86816406,5.32226562 C4.45800781,5.7421875 4.32617188,5.95214844 4.32617188,6.20117188 Z" id="Path"></path>
            </g>
        </g>
        <g id="grid-line-label-copy-12" transform="translate(665.478516, 81.208008)" fill="var(--illustration-accent)" fill-rule="nonzero">
            <g id="1">
                <path d="M1.640625,6.14257812 C1.640625,6.58691406 1.87988281,6.85058594 2.29003906,6.85058594 C2.70507812,6.85058594 2.94433594,6.59179688 2.94433594,6.14257812 L2.94433594,0.903320312 C2.94433594,0.41015625 2.62695312,0.0830078125 2.15332031,0.0830078125 C1.87988281,0.0830078125 1.6015625,0.180664062 1.25,0.419921875 L0.375976562,1.03027344 C0.126953125,1.19628906 0,1.37695312 0,1.58203125 C0,1.85058594 0.200195312,2.05078125 0.46875,2.05078125 C0.610351562,2.05078125 0.732421875,2.00683594 0.942382812,1.87011719 L1.61132812,1.39648438 L1.640625,1.39648438 L1.640625,6.14257812 Z" id="Path"></path>
                <path d="M4.19921875,5.38574219 C4.19921875,6.19140625 5.20996094,6.93359375 6.52832031,6.93359375 C7.99804688,6.93359375 9.03320312,6.11816406 9.03320312,4.95117188 C9.03320312,4.10644531 8.42285156,3.41308594 7.61230469,3.33496094 L7.61230469,3.25195312 C8.28613281,3.15429688 8.828125,2.49023438 8.828125,1.76757812 C8.828125,0.727539062 7.88085938,0 6.53320312,0 C5.25878906,0 4.30664062,0.717773438 4.30664062,1.49902344 C4.30664062,1.81640625 4.53125,2.03613281 4.84375,2.03613281 C5.07324219,2.03613281 5.24414062,1.93359375 5.390625,1.68945312 C5.64941406,1.25 6.02539062,1.02539062 6.50878906,1.02539062 C7.12890625,1.02539062 7.55859375,1.39160156 7.55859375,1.92871094 C7.55859375,2.46582031 7.11914062,2.85644531 6.51855469,2.85644531 L6.06445312,2.85644531 C5.76660156,2.85644531 5.55664062,3.07617188 5.55664062,3.36914062 C5.55664062,3.671875 5.77148438,3.89160156 6.06445312,3.89160156 L6.54296875,3.89160156 C7.26074219,3.89160156 7.74414062,4.30175781 7.74414062,4.90722656 C7.74414062,5.51269531 7.27050781,5.90820312 6.53808594,5.90820312 C5.99121094,5.90820312 5.55664062,5.66894531 5.2734375,5.21972656 C5.09277344,4.95605469 4.93164062,4.85351562 4.71679688,4.85351562 C4.41894531,4.85351562 4.19921875,5.078125 4.19921875,5.38574219 Z" id="Path"></path>
            </g>
        </g>
    </g>
</svg>