<svg height="440" viewBox="0 0 800 440" width="800" xmlns="http://www.w3.org/2000/svg"><g fill="none" fill-rule="evenodd"><g fill="var(--illustration-black)" fill-rule="nonzero" transform="translate(116 140)"><path d="m155.976399 68.86c0-22-9.24-40.7-26.62-53.24-15.62-11.22-32.5600004-15.62-61.3800004-15.62-21.78 0-42.9.88-64.68000004 1.76l-1.54.44c-1.76.22-2.86 6.82 0 6.82h1.98c18.70000004 0 18.92000004 4.18 18.92000004 22.66v83.82c0 9.68 1.1 20.46-11.88 21.56-2.86000004.22-5.28000004 0-8.14000004.44-2.86.88-2.64 4.4-1.76 6.38.66 1.98 3.3 1.98 4.84 1.98l52.80000004-.22c16.5 0 27.28 0 43.3400004-4.62 31.9-9.24 54.12-39.16 54.12-72.16zm-23.76 3.52c0 46.86-29.7 66-71.0600004 66-14.74 0-17.16-5.5-17.16-15.84v-109.78c0-3.08 2.42-4.84 4.84-5.06 9.68-.44 15.62-.44 25.3.44 17.38 1.76 25.74 4.84 35.4200004 12.32 14.08 10.78 22.66 30.14 22.66 51.92z"/><path d="m187.896399 136.18c0-7.48-5.06-12.54-12.76-12.54-7.92 0-13.42 5.06-13.42 12.76 0 7.26 5.72 12.54 13.42 12.54s12.76-5.5 12.76-12.76z"/><path d="m376.617727 139.48c-.66-1.76-3.3-1.76-4.84-1.76-12.98 0-16.72-4.18-16.72-14.52 0-21.34-.88-65.56 0-99 .22-10.56 3.74-14.08 14.52-14.96.88 0 2.64 0 3.08-1.1 1.1-2.2.44-6.38-2.86-6.16-13.2.44-39.16-1.1-55.22-.66-3.08 0-3.52 1.1-3.96 1.98-.66 1.98-.66 5.28 1.54 5.72h4.4c13.42 0 16.94 4.84 16.94 15.18 0 13.2.22 26.62 0 40.04 0 1.98-4.84 3.52-6.6 3.52-24.42.44-49.94.44-67.98 0-2.86 0-3.96-2.2-3.96-3.3v-40.26c0-10.56 3.74-15.18 16.72-15.18 1.76-.22 2.42-.22 2.64-1.32.44-1.76.88-3.74-.22-4.84-.66-.44-1.32-.88-2.2-.88-12.54.66-38.72.66-53.02 0-2.2-.22-2.2 6.16-.44 7.04 11.22.66 14.96 3.3 14.96 15.18v99c0 10.78-3.3 13.86-13.42 14.52-1.98 0-3.3-.22-5.5.22-1.98 1.32-1.76 4.18-1.1 6.16.66 1.54 2.2 1.54 3.52 1.54 13.86 0 41.8-.44 55.88 0 4.4-.66 3.08-8.36 0-7.92h-1.1-1.1c-12.1 0-15.62-2.86-15.62-14.52v-39.6c0-3.52 2.86-5.5 3.96-5.5 20.46.66 48.84.88 70.4 0 2.42 0 3.96 1.76 4.18 3.96v41.14c0 11.22-5.28 14.74-16.94 14.74h-5.28c-2.42 0-3.52 3.08-2.64 5.72.22 1.32 1.1 1.98 2.86 1.98 29.7 0 47.08-.44 62.48 0 2.64 0 3.74-3.74 2.64-6.16z"/><path d="m421.497727 136.18c0-7.48-5.06-12.54-12.76-12.54-7.92 0-13.42 5.06-13.42 12.76 0 7.26 5.72 12.54 13.42 12.54s12.76-5.5 12.76-12.76z"/><path d="m567.099055 112.42c.22-.44.44-1.98-.88-2.64-1.1-.88-2.86-.66-4.62 0l-7.7 10.12c-10.78 14.3-14.3 14.74-30.8 14.74h-20.68c-9.02 0-12.54-2.64-12.54-11.88v-100.76c0-11.44.88-11.66 17.38-12.1 2.42 0 4.84-.22 7.04-.44 3.08-.22 3.74-2.64 2.86-5.94-.44-1.76-1.76-1.98-3.08-1.98-25.52.44-40.92.66-62.92.22-.88-.22-2.64-.22-3.3 1.1-1.1 1.54-1.1 5.94 1.1 6.16h2.64c12.98 0 16.94 3.3 16.94 15.18v90.42c0 9.02-.22 13.2-.44 15.62-1.54 7.7-12.76 7.26-18.48 7.26-.66.22-1.1.22-1.76.44-1.76.66-2.2 4.18-1.54 5.72.22 1.1 1.54 2.2 3.08 1.98 6.6-.22 56.76-.44 96.8.22 3.52 0 5.28-1.98 6.82-4.18 2.86-4.62 8.8-16.72 14.08-29.26z"/></g><g fill="var(--illustration-accent)"><path d="m304.356399 141.98h23v92.046749 51.953251h-23z" fill-opacity=".25"/><path d="m538.356399 141.98h23v144h-23z" fill-opacity=".25"/><path d="m305.356399 323.98h-1v-9h1l-.000399 3.999h22l.000399-3.999h1v9h-1l-.000399-4.001h-22z" fill-rule="nonzero"/><path d="m539.356399 323.98h-1v-9h1l-.000399 3.999h22l.000399-3.999h1v9h-1l-.000399-4.001h-22z" fill-rule="nonzero"/></g></g></svg>