<svg height="440" viewBox="0 0 800 440" width="800" xmlns="http://www.w3.org/2000/svg"><g fill="none" fill-rule="nonzero"><g fill="var(--illustration-black)" transform="translate(143.5 115.212983)"><path d="m99.66 116.467017c.22-27.9399999-21.78-49.2799999-50.16-49.2799999-28.16 0-49.5 20.9-49.5 49.0599999 0 27.72 21.56 48.84 50.16 48.84 27.72 0 49.5-21.34 49.5-48.62zm-19.58 5.28c0 20.68-11.88 35.2-27.28 35.2-18.26 0-33.66-20.9-33.66-47.74 0-19.7999999 11.88-34.0999999 27.28-34.0999999 18.04 0 33.66 21.12 33.66 46.6399999z"/><path d="m209.66 112.287017c0-23.0999999-15.62-43.7799999-34.32-43.7799999-8.58 0-16.94 3.96-31.24 14.08-1.76 1.32-2.2-3.08-2.2-3.96v-13.64c0-3.52-2.42-3.96-5.94-1.76l-24.2 15.18c-.44.44-.88.66-1.32 1.54-.66.88-1.1 4.18.88 4.62 2.64.66 5.06 1.76 7.7 2.42 5.06 1.32 5.72 1.98 5.72 7.48v5.28 91.0799999c0 21.34-1.76 24.64-14.08 24.64h-1.98c-2.42 0-2.64 4.4-1.54 6.38.66 1.32 2.2 1.1 3.52 1.1 9.24.44 34.1-.66 49.5 0 .88 0 2.42-.44 2.86-1.32.66-1.1.66-3.52.22-5.06-.44-1.1-2.2-1.76-3.96-1.76h-3.08c-12.32 0-14.3-2.64-14.3-23.98v-26.18c0-4.18 1.1-3.96 2.64-3.52 6.38 1.98 11.22 3.08 16.5 3.08 26.18 0 48.62-24.2 48.62-51.92zm-17.16 8.58c0 19.8-10.78 34.1-25.3 34.1-8.14 0-17.38-4.4-25.3-11.88v-47.9599999c0-1.98.88-3.52 1.32-3.96 7.48-5.94 14.74-9.46 21.12-9.46 15.84 0 28.16 16.72 28.16 39.1599999z"/><path d="m302.94 106.347017c0-1.54-1.54-3.52-3.08-3.52-23.1-.66-53.68.44-70.18 0-1.54 0-4.18 1.1-4.18 3.74v8.8c.22.88.66 2.64 2.2 2.64 26.84.44 36.74-.88 71.06 0 1.32-.22 3.3-1.1 3.74-3.08z"/><path d="m400.4 101.067017c.22-1.5399999.22-2.1999999-.22-3.5199999-1.98-2.42-3.3-4.4-4.4-7.04l-1.76-3.74c-6.38-13.2-16.28-19.36-31.68-19.36-25.96 0-45.1 21.34-45.1 49.9399999 0 26.62 17.38 47.74 40.7 47.74 8.8 0 18.48-3.74 25.96-9.46 5.72-4.62 11.44-10.34 15.62-15.18.88-1.54-.44-4.18-2.2-4.62-1.1-.22-2.64.22-3.3 1.1-8.58 10.12-16.72 14.08-27.28 14.08-18.7 0-33-16.5-33-39.16 0-2.86 0-4.18.44-6.6.22-1.54 2.42-2.2 4.18-2.2 14.08.22 42.02.66 58.96 0 1.32 0 2.86-.44 3.08-1.98zm-22.44-7.6999999c.44 1.98-3.52 2.64-5.28 2.64h-33c-.88 0-3.96-.66-3.52-1.76 4.18-13.2 11.88-20.02 21.34-20.02s17.16 7.04 20.46 19.14z"/><path d="m515.24 148.147017c-.88-2.86-4.18-1.32-6.16-.88-1.32.44-3.52 1.32-4.84 1.32-4.62 0-5.94-.22-5.94-12.54v-131.77999986c0-3.08-1.1-5.06-3.74-3.96-8.8 3.3-20.02 7.04-27.72 9.46-1.32.22-1.98.87999996-2.2 1.97999996s0 1.98.22 3.08c.22 1.54 1.1 1.32 2.42 1.54 3.52.44 9.02 0 11.88 1.76 1.54.88 1.32 2.2 1.76 3.52.22 11.22.66 27.94 0 44.22 0 3.08-1.32 5.72-2.42 5.5-5.94-1.98-12.76-3.52-18.26-3.52-28.16 0-49.5 22.66-49.5 51.9199999 0 24.86 16.06 45.32 36.74 45.32 8.58 0 17.6-4.4 31.02-13.64 1.54-1.1 2.42 1.76 2.42 3.3s-1.54 11.44 3.96 9.46c7.7-1.98 22.44-7.48 29.7-11 1.1-.44 1.32-3.08.66-5.06zm-34.54-9.68c-.22 2.42-1.32 4.62-2.2 5.06-8.8 5.94-16.94 9.02-22.88 9.02-15.4 0-27.28-16.94-27.28-39.6 0-21.5599999 10.78-36.2999999 27.06-36.2999999 9.9 0 17.16 5.06 25.3 16.72z"/></g><path d="m371 340h-1v-9h1v4h74v-4h1v9h-1v-4h-74z" fill="var(--illustration-accent)"/></g></svg>