<svg height="400" viewBox="0 0 800 400" width="800" xmlns="http://www.w3.org/2000/svg" xmlns:xlink="http://www.w3.org/1999/xlink"><defs><path id="a" d="m90 185h280v30h-280z"/><mask id="b" fill="#fff" height="30" width="280" x="0" y="0"><use xlink:href="#a"/></mask><path id="c" d="m0 0h280v30h-280z"/><mask id="d" fill="#fff" height="30" width="280" x="0" y="0"><use xlink:href="#c"/></mask></defs><g fill="none" fill-rule="evenodd"><use mask="url(#b)" stroke="var(--illustration-black)" stroke-dasharray="4 3" stroke-width="4" xlink:href="#a"/><g fill="var(--illustration-accent)"><path d="m90 155h280v30h-280z" fill-opacity=".5" opacity=".25" transform="matrix(1 0 0 -1 0 340)"/><path d="m90 215h280v30h-280z" fill-opacity=".5" opacity=".25" transform="matrix(1 0 0 -1 0 460)"/><g transform="translate(230 159)"><path d="m-4 22.5v-1h4v-20.091l-3.56421223 6.33613062-.24513062.43578777-.87157554-.49026124.24513062-.43578777 4.5-8 .43578777-.77473381.43578777.77473381 4.5 8 .24513062.43578777-.87157554.49026124-.24513062-.43578777-3.56421223-6.33613062v20.091h4v1z" fill-rule="nonzero" transform="matrix(1 0 0 -1 0 22)"/><text font-family="SFCompactRounded-Semibold, SF Compact Rounded" font-size="10" font-weight="500"><tspan x="10" y="15">30px</tspan></text></g><g transform="translate(230 219)"><path d="m5-.5v1l-4-.001v20.092l3.56421223-6.3361306.24513062-.4357878.87157554.4902613-.24513062.4357877-4.5 8-.43578777.7747338-.43578777-.7747338-4.5-8-.24513062-.4357877.87157554-.4902613.24513062.4357878 3.56421223 6.3361306v-20.091h-4v-1l4 .001v-.001z" fill-rule="nonzero" transform="matrix(1 0 0 -1 0 22)"/><text font-family="SFCompactRounded-Semibold, SF Compact Rounded" font-size="10" font-weight="500"><tspan x="10" y="15">30px</tspan></text></g><path d="m226 210.5v-1h4v-19h-4v-1h9v1h-4v19h4v1z" fill-rule="nonzero"/><text font-family="SFCompactRounded-Semibold, SF Compact Rounded" font-size="10" font-weight="500"><tspan x="240" y="203">0px</tspan></text></g><g transform="translate(430 185)"><use mask="url(#d)" stroke="var(--illustration-black)" stroke-dasharray="4 3" stroke-width="4" xlink:href="#c"/><g fill="var(--illustration-accent)"><path d="m136 25.5v-1h4v-19h-4v-1h9v1h-4v19h4v1z" fill-rule="nonzero"/><text font-family="SFCompactRounded-Semibold, SF Compact Rounded" font-size="10" font-weight="500"><tspan x="150" y="18">0px</tspan></text></g></g></g></svg>