<svg height="440" viewBox="0 0 800 440" width="800" xmlns="http://www.w3.org/2000/svg"><g fill="none" fill-rule="evenodd" transform="translate(105 125)"><path d="m0 6.62 589.754371.5" stroke="var(--illustration-accent)" stroke-linecap="square"/><path d="m-.49957592 62.1195763-.00084781 1 3 .002543.00084674-.9999996zm4.99999821.004239-.00084781 1 3 .0025431.00084673-.9999996zm4.9999982.0042391-.00084781 1 3.00000002.002543.0008467-.9999996zm4.99999821.004239-.0008478 1 3 .0025431.0008467-.9999996zm4.9999982.0042391-.0008478 1 3 .0025431.0008467-.9999997zm4.9999982.004239-.0008478 1 3 .0025431.0008467-.9999996zm4.9999982.0042391-.0008478 1 3 .0025431.0008467-.9999997zm4.9999982.004239-.0008478 1 3 .0025431.0008467-.9999996zm4.9999982.0042391-.0008478 1 3 .0025431.0008467-.9999997zm4.9999982.004239-.0008478 1 3 .0025431.0008467-.9999996zm4.9999982.0042391-.0008478 1 3 .0025431.0008467-.9999997zm4.9999982.004239-.0008478 1 3 .0025431.0008467-.9999996zm4.9999982.0042391-.0008478 1 3 .0025431.0008467-.9999997zm4.9999982.004239-.0008478 1 3 .0025431.0008467-.9999996zm4.9999982.0042391-.0008478 1 3 .0025431.0008467-.9999997zm4.9999982.004239-.0008478 1 3 .0025431.0008468-.9999996zm4.9999982.0042391-.0008478 1 3 .0025431.0008468-.9999997zm4.9999982.004239-.0008478 1 3 .0025431.0008468-.9999996zm4.9999982.0042391-.0008478 1 3 .0025431.0008468-.9999997zm4.9999982.0042391-.0008478 1 3 .002543.0008468-.9999996zm4.9999982.004239-.0008478 1 2.9999997.0025431.000847-.9999997zm4.9999979.0042391-.000847 1 3 .002543.000846-.9999996zm4.999999.004239-.000848 1 3 .0025431.000846-.9999997zm4.999998.0042391-.000848 1 3 .002543.000847-.9999996zm4.999998.004239-.000848 1 3 .0025431.000847-.9999997zm4.999998.0042391-.000848 1 3 .002543.000847-.9999996zm4.999998.004239-.000847 1 3 .0025431.000846-.9999997zm4.999999.0042391-.000848 1 3 .002543.000846-.9999996zm4.999998.004239-.000848 1 3 .0025431.000847-.9999997zm4.999998.0042391-.000848 1 3 .002543.000847-.9999996zm4.999998.004239-.000848 1 3 .0025431.000847-.9999997zm4.999998.0042391-.000847 1 3 .002543.000846-.9999996zm4.999999.004239-.000848 1 3 .0025431.000847-.9999996zm4.999998.0042391-.000848 1 3 .002543.000847-.9999996zm4.999998.004239-.000848 1 3 .0025431.000847-.9999996zm4.999998.0042391-.000848 1 3 .002543.000847-.9999996zm4.999998.004239-.000847 1 3 .0025431.000846-.9999996zm4.999999.0042391-.000848 1 3 .002543.000847-.9999996zm4.999998.004239-.000848 1 3 .0025431.000847-.9999996zm4.999998.0042391-.000848 1 3 .0025431.000847-.9999997zm4.999998.004239-.000848 1 3 .0025431.000847-.9999996zm4.999998.0042391-.000847 1 3 .0025431.000846-.9999997zm4.999999.004239-.000848 1 3 .0025431.000847-.9999996zm4.999998.0042391-.000848 1 3 .0025431.000847-.9999997zm4.999998.004239-.000848 1 3 .0025431.000847-.9999996zm4.999998.0042391-.000848 1 3 .0025431.000847-.9999997zm4.999998.004239-.000847 1 3 .0025431.000846-.9999996zm4.999999.0042391-.000848 1 3 .0025431.000847-.9999997zm4.999998.004239-.000848 1 3 .0025431.000847-.9999996zm4.999998.0042391-.000848 1 3 .0025431.000847-.9999997zm4.999998.004239-.000848 1 3 .0025431.000847-.9999996zm4.999998.0042391-.000847 1 3 .0025431.000846-.9999997zm4.999999.004239-.000848 1 3 .0025431.000847-.9999996zm4.999998.0042391-.000848 1 3 .0025431.000847-.9999997zm4.999998.0042391-.000848 1 3 .002543.000847-.9999996zm4.999998.004239-.000848 1 3 .0025431.000847-.9999997zm4.999998.0042391-.000847 1 3 .002543.000846-.9999996zm4.999999.004239-.000848 1 3 .0025431.000847-.9999997zm4.999998.0042391-.000848 1 3 .002543.000847-.9999996zm4.999998.004239-.000848 1 3 .0025431.000847-.9999997zm4.999998.0042391-.000848 1 3 .002543.000847-.9999996zm4.999998.004239-.000847 1 3 .0025431.000846-.9999997zm4.999999.0042391-.000848 1 3 .002543.000847-.9999996zm4.999998.004239-.000848 1 3 .0025431.000847-.9999997zm4.999998.0042391-.000848 1 3 .002543.000847-.9999996zm4.999998.004239-.000848 1 3 .0025431.000847-.9999997zm4.999998.0042391-.000847 1 3 .002543.000846-.9999996zm4.999999.004239-.000848 1 3 .0025431.000847-.9999996zm4.999998.0042391-.000848 1 3 .002543.000847-.9999996zm4.999998.004239-.000848 1 3 .0025431.000847-.9999996zm4.999998.0042391-.000848 1 3 .002543.000847-.9999996zm4.999999.004239-.000848 1 3 .0025431.000846-.9999996zm4.999998.0042391-.000848 1 3 .002543.000847-.9999996zm4.999998.004239-.000848 1 3 .0025431.000847-.9999996zm4.999998.0042391-.000848 1 3 .0025431.000847-.9999997zm4.999998.004239-.000847 1 3 .0025431.000846-.9999996zm4.999999.0042391-.000848 1 3 .0025431.000846-.9999997zm4.999998.004239-.000848 1 3 .0025431.000847-.9999996zm4.999998.0042391-.000848 1 3 .0025431.000847-.9999997zm4.999998.004239-.000848 1 3 .0025431.000847-.9999996zm4.999998.0042391-.000847 1 3 .0025431.000846-.9999997zm4.999999.004239-.000848 1 3 .0025431.000846-.9999996zm4.999998.0042391-.000848 1 3 .0025431.000847-.9999997zm4.999998.004239-.000848 1 3 .0025431.000847-.9999996zm4.999998.0042391-.000848 1 3 .0025431.000847-.9999997zm4.999998.004239-.000847 1 3 .0025431.000846-.9999996zm4.999999.0042391-.000848 1 3 .0025431.000846-.9999997zm4.999998.004239-.000848 1 3 .0025431.000847-.9999996zm4.999998.0042391-.000848 1 3 .0025431.000847-.9999997zm4.999998.0042391-.000848 1 3 .002543.000847-.9999996zm4.999998.004239-.000847 1 3 .0025431.000846-.9999997zm4.999999.0042391-.000848 1 3 .002543.000846-.9999996zm4.999998.004239-.000848 1 3 .0025431.000847-.9999997zm4.999998.0042391-.000848 1 3 .002543.000847-.9999996zm4.999998.004239-.000848 1 3 .0025431.000847-.9999997zm4.999998.0042391-.000847 1 3 .002543.000846-.9999996zm4.999999.004239-.000848 1 3 .0025431.000846-.9999997zm4.999998.0042391-.000848 1 3 .002543.000847-.9999996zm4.999998.004239-.000848 1 3 .0025431.000847-.9999997zm4.999998.0042391-.000848 1 3 .002543.000847-.9999996zm4.999998.004239-.000847 1 3 .0025431.000846-.9999997zm4.999999.0042391-.000848 1 3 .002543.000847-.9999996zm4.999998.004239-.000848 1 3 .0025431.000847-.9999997zm4.999998.0042391-.000848 1 3 .002543.000847-.9999996zm4.999998.004239-.000848 1 3 .0025431.000847-.9999996zm4.999998.0042391-.000847 1 3 .002543.000846-.9999996zm4.999999.004239-.000848 1 3 .0025431.000847-.9999996zm4.999998.0042391-.000848 1 3 .002543.000847-.9999996zm4.999998.004239-.000848 1 3 .0025431.000847-.9999996zm4.999998.0042391-.000848 1 3 .0025431.000847-.9999997zm4.999998.004239-.000847 1 3 .0025431.000846-.9999996zm4.999999.0042391-.000848 1 3 .0025431.000847-.9999997zm4.999998.004239-.000848 1 3 .0025431.000847-.9999996zm4.999998.0042391-.000848 1 3 .0025431.000847-.9999997zm4.999998.004239-.000848 1 3 .0025431.000847-.9999996zm4.999998.0042391-.000847 1 3 .0025431.000846-.9999997zm4.999999.004239-.000848 1 3 .0025431.000847-.9999996zm4.999998.0042391-.000848 1 3 .0025431.000847-.9999997z" fill="var(--illustration-accent)" fill-rule="nonzero"/><path d="m0 155.62 589.754371.5" stroke="var(--illustration-accent)" stroke-linecap="square"/><g fill="var(--illustration-black)" fill-rule="nonzero"><path d="m158.475238 154.876749c0 2.014657-.57575 3.021985-1.727251 3.021985-4.965845 0-10.579409-.215856-16.840693-.647568-5.397658-.431712-10.003659-.647568-13.818004-.647568-4.390095 0-9.823737.215856-16.300927.647568-6.837033.431712-12.666504.647568-17.4884118.647568-1.1515004 0-1.7272505-1.007328-1.7272505-3.021985s.4318126-3.021986 1.2954379-3.021986c6.4052208-.287808 11.0112224-1.133244 13.8180044-2.536309 2.806782-1.403064 4.210173-3.579613 4.210173-6.529647 0-1.870752-.719688-4.856762-2.159063-8.958028l-12.198707-36.1558956h-44.4767016l-12.3066602 33.4576946c-1.583313 4.461026-2.3749695 7.914724-2.3749695 10.361093 0 6.331779 5.8294706 9.785476 17.4884118 10.361092.8636253 0 1.2954379 1.007329 1.2954379 3.021986s-.5757502 3.021985-1.7272505 3.021985c-4.3181264 0-9.1040498-.215856-14.3577702-.647568-4.9658454-.431712-9.3919249-.647568-13.2782386-.647568-3.0946573 0-6.980971.215856-11.6589412.647568-4.89387659.431712-9.06806541.647568-12.52256651.647568-1.07953159 0-1.61929739-.8994-1.61929739-2.698201 0-2.014657.82764089-3.093937 2.48292266-3.237841 5.97340815-.575617 10.70535494-2.230513 14.19584044-4.964691 3.4904855-2.734177 7.1069163-8.310459 10.8492925-16.728847l50.5220786-124.00932722c.4318126-1.15123251 1.4393754-1.72684877 3.0226884-1.72684877 1.7272506 0 2.8067822.53964024 3.2385948 1.61892072l44.5846546 124.11725527c2.518907 6.979347 5.919432 12.123917 10.201574 15.433711 4.282142 3.309793 10.021651 5.396402 17.218529 6.259827 1.439375.143904 2.159063 1.115256 2.159063 2.914057zm-65.3116615-64.1092607-18.9997561-55.1512325-20.5111002 55.1512325z"/><path d="m268.371554 110.842105c0 13.239174-4.67797 24.931379-14.033911 35.076616-9.35594 10.145236-20.18724 15.217855-32.493901 15.217855-6.837033 0-13.45816-1.439041-19.863381-4.317122-4.390095-2.014657-8.276409-3.021986-11.658941-3.021986-5.397658 0-8.960112 2.302465-10.687363 6.907395-.359844.863425-1.259453 1.295137-2.698829 1.295137-1.871188 0-2.806782-.575616-2.806782-1.726849.57575-6.04397.863625-13.311126.863625-21.801465v-105.2298472c0-5.8281146-.73768-9.6415723-2.21304-11.4403731-1.475359-1.7988008-4.695962-2.9500333-9.661807-3.4536975-1.151501 0-1.727251-.8634244-1.727251-2.5902732 0-2.0146569.57575-3.0219853 1.727251-3.0219853 12.810441-3.30979351 21.914491-7.12325121 27.312149-11.44037312 1.079532-.86342439 1.979141-1.29513658 2.698829-1.29513658 2.015126 0 3.022688.57561626 3.022688 1.72684877-1.1515 15.68554293-1.72725 28.27714853-1.72725 37.77481683v32.2704863c6.765065-6.763491 15.041473-10.1452365 24.829227-10.1452365 14.60966 0 26.448524 4.42505 35.516589 13.2751499s13.602098 20.8301132 13.602098 35.9400397zm-21.698585.863425c0-13.2391742-2.62686-23.6002668-7.880581-31.0832782-5.25372-7.4830113-12.630519-11.224517-22.130397-11.224517-5.109783 0-10.093621 1.9247169-14.951513 5.7741506s-7.286838 7.6808794-7.286838 11.4943371v49.8627585c0 3.813457 2.896743 7.680879 8.690229 11.602265s11.173152 5.882078 16.138998 5.882078c8.636252 0 15.365333-3.849433 20.18724-11.548301 4.821908-7.698867 7.232862-17.952032 7.232862-30.759493z"/></g><g fill="var(--illustration-black)" fill-rule="nonzero" transform="translate(330 4)"><path d="m158.475238 150.343771c0 2.014657-.57575 3.021985-1.727251 3.021985-4.965845 0-10.579409-.215856-16.840693-.647568-5.397658-.431712-10.003659-.647568-13.818004-.647568-4.390095 0-9.823737.215856-16.300927.647568-6.837033.431712-12.666504.647568-17.4884118.647568-1.1515004 0-1.7272505-1.007328-1.7272505-3.021985s.4318126-3.021986 1.2954379-3.021986c6.4052208-.287808 11.0112224-1.133244 13.8180044-2.536309 2.806782-1.403064 4.210173-3.579613 4.210173-6.529647 0-1.870752-.719688-4.856762-2.159063-8.958028l-12.198707-36.1558956h-44.4767016l-12.3066602 33.4576946c-1.583313 4.461026-2.3749695 7.914724-2.3749695 10.361093 0 6.331779 5.8294706 9.785476 17.4884118 10.361092.8636253 0 1.2954379 1.007329 1.2954379 3.021986s-.5757502 3.021985-1.7272505 3.021985c-4.3181264 0-9.1040498-.215856-14.3577702-.647568-4.9658454-.431712-9.3919249-.647568-13.2782386-.647568-3.0946573 0-6.980971.215856-11.6589412.647568-4.89387659.431712-9.06806541.647568-12.52256651.647568-1.07953159 0-1.61929739-.8994-1.61929739-2.698201 0-2.014657.82764089-3.093937 2.48292266-3.237841 5.97340815-.575617 10.70535494-2.230513 14.19584044-4.964691 3.4904855-2.734177 7.1069163-8.310459 10.8492925-16.728847l50.5220786-124.00932723c.4318126-1.15123251 1.4393754-1.72684877 3.0226884-1.72684877 1.7272506 0 2.8067822.53964024 3.2385948 1.61892072l44.5846546 124.11725528c2.518907 6.979347 5.919432 12.123917 10.201574 15.433711 4.282142 3.309793 10.021651 5.396402 17.218529 6.259827 1.439375.143904 2.159063 1.115256 2.159063 2.914057zm-65.3116615-64.1092607-18.9997561-55.1512325-20.5111002 55.1512325z"/><path d="m259.843254 124.009327c0 8.706196-3.076665 15.703531-9.229995 20.992005-6.15333 5.288475-14.303793 7.932712-24.45139 7.932712-3.814345 0-7.376799-.071952-10.687363-.215856-10.003659-.431712-15.653208-.647568-16.948646-.647568-4.534033 0-8.636253.107928-12.30666.323784-11.011222.647568-16.768724.971352-17.272506.971352-.863625 0-1.295438-.935376-1.295438-2.806129 0-1.726849.431813-2.590273 1.295438-2.590273 5.829471-.863425 9.913699-2.230513 12.252684-4.101266s3.508478-5.900067 3.508478-12.087941v-56.7701537c0-6.1159227-1.187485-10.1092605-3.562455-11.9800133-2.374969-1.8707528-6.441205-3.2738174-12.198707-4.2091939-.863625-.143904-1.295438-.9353764-1.295438-2.374417 0-1.8707528.431813-2.8061293 1.295438-2.8061293 2.878751 0 6.117346.1079281 9.715785.3237842 8.348377.5036642 14.465723.7554963 18.352037.7554963 2.950719 0 7.286838-.143904 13.008355-.4317122 5.721518-.2878081 9.661808-.4317122 11.820871-.4317122 9.355941 0 16.876678 2.122585 22.562211 6.3677549s8.528299 9.8214523 8.528299 16.7288474c0 4.8927382-2.123079 9.4257162-6.369236 13.598934-4.246158 4.1732179-9.463894 6.9073951-15.653208 8.2025317 8.78019 1.6548971 15.797145 4.7308461 21.050866 9.2278481 5.25372 4.497002 7.88058 9.83944 7.88058 16.027315zm-27.851915-47.0566288c0-5.9000666-1.367406-10.1812125-4.10222-12.8434377-2.734813-2.6622252-7.124908-3.9933378-13.170285-3.9933378h-2.590876c-5.325689 0-7.988534 2.5183211-7.988534 7.5549634v28.9247168h9.283972c6.693096 0 11.461027-1.5289806 14.303794-4.586942 2.842766-3.0579614 4.264149-8.0766156 4.264149-15.0559627zm6.909003 47.0566288c0-6.763491-1.763235-11.980013-5.289705-15.649567-3.52647-3.669553-8.5283-5.50433-15.005489-5.50433h-14.465724v32.810126c0 4.389074 1.187485 7.357096 3.562455 8.904064 2.374969 1.546969 6.225298 2.320453 11.550988 2.320453 5.685533 0 10.381495-2.014657 14.087887-6.04397 3.706392-4.029314 5.559588-9.641573 5.559588-16.836776z"/></g><g fill="var(--illustration-accent)" font-family="SFProText-Regular, SF Pro Text" font-size="16"><text><tspan x="407.625" y="206">Small caps on</tspan></text><text><tspan x="80.503906" y="206">Small caps off</tspan></text></g></g></svg>