<svg height="440" viewBox="0 0 800 440" width="800" xmlns="http://www.w3.org/2000/svg"><g fill="none" fill-rule="evenodd"><g fill="var(--illustration-accent)" fill-opacity=".25"><path d="m118 143h104v155h-104z"/><path d="m230 143h104v155h-104z"/><path d="m342 143h104v155h-104z"/><path d="m454 143h117v155h-117z"/><path d="m579 143h104v155h-104z"/></g><g fill="var(--illustration-black)" fill-rule="nonzero" transform="translate(122 143)"><path d="m96.9102299 142.444134c-7.1225781.432961-17.0510204.649441-24.8211056.649441h-16.8351847v-19.050279-96.3337988c0-2.3812849.2158357-24.67877094.4316714-26.41061452l-1.7266857-1.08240223-11.2234564 3.89664804c-7.985921 2.38128492-31.5120124 11.25698321-42.0879618 14.28770951l1.94252132 8.8756983 43.16714028-14.9371508v93.0865925c0 9.525139 0 26.194134-.2158357 37.667597h-20.7202273c-10.144278 0-15.10849914-.21648-24.8211057-.649441.4316714 2.814246.6475071 6.710894.86334281 9.74162 11.65512789-.21648 20.72022729-.432961 33.02286229-.432961h27.1952984c12.5184707 0 25.6844485 0 35.6128907.432961.2158357-2.381285.2158357-7.793296.2158357-9.74162z"/><path d="m125.141501 142.877095c17.482692-15.803073 33.022862-30.523743 44.246319-41.997207 25.468612-26.1941338 36.476233-41.9972064 36.476233-61.6969271 0-24.0293296-18.130199-39.1829609-44.462154-39.1829609-17.698528 0-32.807027 8.22625698-46.836347 20.9986034l4.316714 8.0097765c13.597649-12.7723464 26.547791-19.91620113 42.087961-19.91620113 21.367735 0 34.965384 12.33938543 34.965384 31.17318433 0 24.2458101-21.799406 47.4092179-85.902609 105.2094969l1.726685 6.927375c14.892664-.649442 31.080341-.865922 48.347198-.865922 18.56187 0 34.317876.21648 49.210539.649441 0-3.463687.647508-6.710894 1.079179-9.9581-26.979463.865921-58.275639.649441-85.255102.649441z"/><path d="m223.994446 148.072626c12.734306 4.76257 24.173598 6.927374 39.929605 6.927374 33.454533 0 56.980625-17.751397 56.980625-42.213687 0-20.9986035-18.561871-35.286313-51.153061-38.5335197 30.001162-6.0614525 47.915525-20.7821229 47.915525-40.698324 0-18.6173185-17.914363-33.5544693-45.109661-33.5544693-17.914364 0-33.454534 6.49441341-45.973005 14.9371508l4.100879 8.0097766c11.870963-8.226257 25.252777-13.85474863 41.224619-13.85474863 22.446913 0 35.828726 11.25698323 35.828726 25.32821233 0 17.3184357-17.266856 31.1731843-58.923146 38.3170391l1.510849 7.1438547c37.123741.6494414 60.433997 11.9064246 60.433997 33.5544691 0 18.833799-18.346035 32.472067-47.268019 32.472067-16.835184 0-28.274477-2.814246-40.792947-7.793296z"/><path d="m409.001615 151.752793h10.144278c-.215836-5.412011-.431672-17.318435-.431672-24.895251v-14.28771c9.0651 0 17.698528.216481 25.684449.432961.215835-3.680167.431671-5.412011 1.295014-9.308659-8.633428.216481-17.266856.432961-26.979463.432961v-72.7374302c0-2.1648045.215836-28.1424581.431672-30.09078212l-6.906743-.86592179c-1.295014 1.94832403-14.02932 19.26675981-15.756006 21.43156421l-62.160682 85.0768159 2.590028 6.277933c15.540171-.649442 36.476234-.649442 54.390597-.649442h18.346035v6.494414c0 10.391061 0 25.111732-.647507 32.688547zm-7.122579-47.409218c-11.00762 0-44.462154 0-55.253939-.21648l63.024025-86.3756984v86.3756984c-2.590029.21648-5.395893.21648-7.770086.21648z"/><path d="m462.816456 148.505587c10.791785 4.113128 22.662748 6.494413 36.907905 6.494413 33.238698 0 58.275639-17.751397 58.275639-45.677374 0-27.925978-22.878584-43.2960897-62.160682-43.2960897-5.180057 0-12.734306.8659218-17.482692 1.5153631l2.590029-54.769553c9.280935 0 25.900284-.2164805 34.749548-.2164805 15.54017 0 26.979462.4329609 39.066261.4329609 0-2.5977653.863343-6.71089384 1.51085-9.7416201-13.597649.4329609-24.389434.4329609-41.008783.4329609-16.835185 0-27.842805 0-42.303797-.21648045l-1.726686 1.51536313c0 7.36033522 0 17.31843572-.431671 25.97765362l-.863343 21.2150838c-.431672 9.5251397-1.295014 17.7513967-1.51085 23.8128492l1.295014 1.0824022c9.496771-1.5153631 17.266856-2.1648045 23.310256-2.1648045 33.886205 0 55.253939 10.6075419 55.253939 34.8533524 0 22.297486-21.367734 36.152234-48.994704 36.152234-13.597649 0-26.11612-2.597765-37.771248-7.143855z"/></g></g></svg>