<svg height="440" viewBox="0 0 800 440" width="800" xmlns="http://www.w3.org/2000/svg"><g fill="none" fill-rule="evenodd"><g fill="var(--illustration-black)" fill-rule="nonzero" transform="translate(133.862966 132.32)"><path d="m102.857034 62.48c-.44-2.42-2.42-1.98-4.18-1.98-6.82-.44-23.76-.22-31.68.22-.66 0-1.32-.22-1.76 0-2.86.22-1.98 5.72-.66 6.38 11.22.22 13.42 2.42 13.42 7.92 0 2.2-.88 5.72-1.98 9.02-1.1 3.52-2.42 6.82-3.3 9.02l-13.2 33.66c-.22.66-2.86 4.4-3.52 2.86-6.6-16.5-12.98-33.22-20.24-49.28-1.98-4.4-2.42-6.16-2.42-7.7 0-3.3 1.54-5.28 11.44-5.5 1.1-.22 1.76-3.3 1.32-5.28-.66-2.2-2.42-1.76-4.18-1.76-10.56.22-28.16 1.1-37.40000002.44-1.98-.22-3.74-.44-4.4 1.98-.44 1.76.44 4.4 1.32 4.62 10.34000002.88 11.44000002 1.54 19.58000002 20.9l27.94 66.44-3.08 10.12c-5.5 17.82-11 24.42-19.8 26.84-7.04 1.76-11 4.4-11 9.46 0 5.28 4.84 9.9 10.34 9.9 3.74 0 7.7-1.54 10.12-4.62 3.08-3.74 5.5-7.7 7.92-13.42 2.64-5.94 5.28-13.2 9.24-23.54l27.28-73.48c9.02-23.98 12.76-27.5 21.56-28.6.88 0 1.76-2.86 1.32-4.62z"/><path d="m210.657034 107.36c.22-27.94-21.78-49.28-50.16-49.28-28.16 0-49.5 20.9-49.5 49.06 0 27.72 21.56 48.84 50.16 48.84 27.72 0 49.5-21.34 49.5-48.62zm-19.58 5.28c0 20.68-11.88 35.2-27.28 35.2-18.26 0-33.66-20.9-33.66-47.74 0-19.8 11.88-34.1 27.28-34.1 18.04 0 33.66 21.12 33.66 46.64z"/><path d="m329.017034 145.86c2.64-.44 2.42-7.48-.22-7.04-1.32.44-3.08.88-4.62 1.32-4.4 1.1-9.46 1.98-9.46-4.84v-6.82-69.96c0-2.86-1.98-3.74-4.4-3.52-7.92.88-22.44 3.96-31.46 5.94-1.76.44-2.2 4.62-.44 5.72 4.4.66 6.16.88 7.26 1.1 1.32.44 1.98.22 4.84.88 3.74.66 5.72 3.52 6.6 7.04.88 4.18.66 8.58.66 12.98v38.06c0 1.76-.88 3.96-.88 4.18-8.58 6.82-17.82 11-24.64 11-14.74 0-19.36-5.94-19.36-29.7v-52.8c0-1.76-.88-4.62-3.52-4.18-7.7 1.54-20.68 5.06-27.5 6.6-2.64.66-1.1 5.28 0 5.5 2.86.88 5.94 1.54 8.8 2.42 4.4 1.32 4.84 3.74 4.84 8.14v46.64c0 18.7 7.7 30.36 24.86 30.36 13.64 0 24.86-8.36 35.42-16.06.88-.88 1.54 2.64 1.54 3.3l.44 8.58c.22 4.18 2.86 3.74 6.16 3.08 7.48-1.54 18.48-5.06 25.08-7.92z"/><path d="m378.737034 19.36c0-11.22-7.04-19.36-16.72-19.36-7.04 0-12.76 5.28-12.76 12.32 0 6.38 4.4 11.22 10.56 11.22 1.76 0 3.3-.44 4.84-.88 2.2-.44 2.42 1.76 2.42 3.52 0 7.04-5.5 14.52-16.5 20.9-1.98 1.32-1.32 3.96 0 5.5 1.1 1.32 3.52.44 4.84-.22 13.86-6.6 23.32-19.8 23.32-33z"/><path d="m520.452268 19.36c0-11.22-7.48-19.36-16.94-19.36-7.26 0-12.98 5.28-12.98 12.32 0 6.38 4.62 11.22 10.56 11.22 1.32 0 2.64-.44 4.18-.66.22-.22.66-.22 1.1-.22 1.32-.22 2.2.44 2.2 3.52 0 7.04-5.5 14.74-16.94 20.9-1.76 1.1-1.54 3.96-.22 5.5 1.1 1.54 3.52.66 5.06 0 14.3-6.6 23.98-20.02 23.98-33.22zm-49.5 0c0-11.22-7.48-19.36-16.94-19.36-7.26 0-12.98 5.28-12.98 12.32 0 6.38 4.62 11.22 10.56 11.22.88 0 1.98-.22 3.08-.44.66-.22 1.76-.66 2.64-.66.66 0 1.76.88 1.76 3.74 0 7.04-5.5 14.74-16.94 20.9-1.76 1.1-1.32 3.52-.22 5.06 1.32 1.76 4.18.66 4.84.44 14.3-6.6 24.2-20.02 24.2-33.22z"/></g><g fill="var(--illustration-accent)"><path d="m513 132h61v154h-61z" fill-opacity=".25"/><path d="m514 324h-1v-9h1v4h61v-4h1v9h-1v-4h-61z" fill-rule="nonzero"/></g></g></svg>