<?xml version="1.0" encoding="UTF-8"?>
<svg width="800px" height="565px" viewBox="0 0 800 565" version="1.1" xmlns="http://www.w3.org/2000/svg" xmlns:xlink="http://www.w3.org/1999/xlink">
    <title>thresholds</title>
    <g id="thresholds" stroke="none" stroke-width="1" fill="none" fill-rule="evenodd">
        <path d="M100.5,565 L100.5,351 M699.5,351 L699.5,565" id="Shape" stroke="#979797" stroke-dasharray="2"></path>
        <path d="M700,65 L700,350 L100,350 L100,65 L700,65 Z M670.238727,95 L130.238727,95 L130.238727,320 L670.238727,320 L670.238727,95 Z" id="Combined-Shape" fill-opacity="0.5" fill="var(--illustration-accent)" opacity="0.25"></path>
        <rect id="Rectangle" stroke="var(--illustration-accent)" x="130.5" y="95.5" width="539" height="225"></rect>
        <rect id="Rectangle" stroke="var(--illustration-black)" stroke-width="2" x="101" y="66" width="598" height="284"></rect>
        <path id="Line-5" d="M665,96.0166667 L665,95.0166667 L669,95.016 L669,67.983 L665,67.9833333 L665,66.9833333 L674,66.9833333 L674,67.9833333 L670,67.983 L670,95.016 L674,95.0166667 L674,96.0166667 L665,96.0166667 Z" fill="var(--illustration-accent)" fill-rule="nonzero"></path>
        <path id="Line-5" d="M669.983333,100 L668.983333,100 L668.983333,91 L669.983333,91 L669.983,94.999 L697.016,94.999 L697.016667,91 L698.016667,91 L698.016667,100 L697.016667,100 L697.016,95.999 L669.983,95.999 L669.983333,100 Z" fill="var(--illustration-accent)" fill-rule="nonzero"></path>
        <g id="100px" transform="translate(633.023926, 77.208008)" fill="var(--illustration-accent)" fill-rule="nonzero">
            <path d="M1.640625,6.14257812 C1.640625,6.58691406 1.87988281,6.85058594 2.29003906,6.85058594 C2.70507812,6.85058594 2.94433594,6.59179688 2.94433594,6.14257812 L2.94433594,0.903320312 C2.94433594,0.41015625 2.62695312,0.0830078125 2.15332031,0.0830078125 C1.87988281,0.0830078125 1.6015625,0.180664062 1.25,0.419921875 L0.375976562,1.03027344 C0.126953125,1.19628906 0,1.37695312 0,1.58203125 C0,1.85058594 0.200195312,2.05078125 0.46875,2.05078125 C0.610351562,2.05078125 0.732421875,2.00683594 0.942382812,1.87011719 L1.61132812,1.39648438 L1.640625,1.39648438 L1.640625,6.14257812 Z" id="Path"></path>
            <path d="M4.09667969,3.62304688 C4.09667969,5.63476562 5.0390625,6.93359375 6.62109375,6.93359375 C8.203125,6.93359375 9.16992188,5.62011719 9.16992188,3.62304688 L9.16992188,3.31054688 C9.16992188,1.29394531 8.23242188,0 6.640625,0 C5.05371094,0 4.09667969,1.30859375 4.09667969,3.31054688 L4.09667969,3.62304688 Z M5.41503906,3.31542969 C5.41503906,1.90917969 5.87402344,1.07421875 6.63085938,1.07421875 C7.38769531,1.07421875 7.84667969,1.9140625 7.84667969,3.31542969 L7.84667969,3.61328125 C7.84667969,5.01953125 7.38769531,5.859375 6.63085938,5.859375 C5.87402344,5.859375 5.41503906,5.01953125 5.41503906,3.61328125 L5.41503906,3.31542969 Z" id="Shape"></path>
            <path d="M9.91210938,3.62304688 C9.91210938,5.63476562 10.8544922,6.93359375 12.4365234,6.93359375 C14.0185547,6.93359375 14.9853516,5.62011719 14.9853516,3.62304688 L14.9853516,3.31054688 C14.9853516,1.29394531 14.0478516,0 12.4560547,0 C10.8691406,0 9.91210938,1.30859375 9.91210938,3.31054688 L9.91210938,3.62304688 Z M11.2304688,3.31542969 C11.2304688,1.90917969 11.6894531,1.07421875 12.4462891,1.07421875 C13.203125,1.07421875 13.6621094,1.9140625 13.6621094,3.31542969 L13.6621094,3.61328125 C13.6621094,5.01953125 13.203125,5.859375 12.4462891,5.859375 C11.6894531,5.859375 11.2304688,5.01953125 11.2304688,3.61328125 L11.2304688,3.31542969 Z" id="Shape"></path>
            <path d="M17.2900391,7.92480469 L17.2900391,6.00097656 L17.3535156,6.00097656 C17.5830078,6.54785156 18.1152344,6.86035156 18.8232422,6.86035156 C20.0390625,6.86035156 20.7714844,5.99121094 20.7714844,4.55078125 L20.7714844,3.83300781 C20.7714844,2.39257812 20.0488281,1.52832031 18.8427734,1.52832031 C18.1152344,1.52832031 17.5439453,1.875 17.3339844,2.43164062 L17.2705078,2.43164062 L17.2705078,2.18261719 C17.2412109,1.78222656 17.0166016,1.5625 16.6357422,1.5625 C16.2304688,1.5625 16.0058594,1.81640625 16.0058594,2.27539062 L16.0058594,7.92480469 C16.0058594,8.37890625 16.2353516,8.6328125 16.6455078,8.6328125 C17.0605469,8.6328125 17.2900391,8.37890625 17.2900391,7.92480469 Z M17.2900391,4.5703125 L17.2900391,3.88183594 C17.2900391,3.05175781 17.7050781,2.55859375 18.3789062,2.55859375 C19.0673828,2.55859375 19.4580078,3.06640625 19.4580078,3.95996094 L19.4580078,4.42871094 C19.4580078,5.31738281 19.0673828,5.83007812 18.3886719,5.83007812 C17.7294922,5.83007812 17.2900391,5.33203125 17.2900391,4.5703125 Z" id="Shape"></path>
            <path d="M21.5380859,6.25 C21.5380859,6.58691406 21.796875,6.84082031 22.109375,6.84082031 C22.3925781,6.84082031 22.5683594,6.71386719 22.7832031,6.38671875 L23.6865234,5 L23.75,5 L24.6728516,6.39160156 C24.8779297,6.70898438 25.0683594,6.84082031 25.3564453,6.84082031 C25.6689453,6.84082031 25.9277344,6.58691406 25.9277344,6.24511719 C25.9277344,6.07421875 25.8642578,5.92285156 25.7275391,5.78125 L24.4628906,4.20410156 L25.7617188,2.58789062 C25.8642578,2.47558594 25.9179688,2.32421875 25.9179688,2.16796875 C25.9179688,1.82617188 25.6640625,1.57714844 25.3417969,1.57714844 C25.0634766,1.57714844 24.8876953,1.70410156 24.6728516,2.02636719 L23.75,3.41308594 L23.6865234,3.41308594 L22.7587891,2.02636719 C22.5488281,1.70410156 22.3681641,1.57714844 22.0898438,1.57714844 C21.7675781,1.57714844 21.5039062,1.82617188 21.5039062,2.16308594 C21.5039062,2.32421875 21.5722656,2.49511719 21.6748047,2.60253906 L22.9785156,4.20410156 L21.6943359,5.82519531 C21.5966797,5.93261719 21.5380859,6.09375 21.5380859,6.25 Z" id="Path"></path>
        </g>
        <rect id="Rectangle" stroke="var(--illustration-black)" stroke-width="2" x="176" y="381" width="118" height="118"></rect>
        <rect id="Rectangle-Copy" stroke="var(--illustration-black)" stroke-width="2" x="341" y="261" width="118" height="118"></rect>
        <rect id="Rectangle-Copy-2" stroke="var(--illustration-black)" stroke-width="2" x="506" y="141" width="118" height="118"></rect>
        <line x1="507.5" y1="200.5" x2="622.5" y2="200.5" id="Line-8-Copy-2" stroke="var(--illustration-accent)" stroke-linecap="square" stroke-dasharray="2"></line>
        <line x1="177.5" y1="440.5" x2="293.5" y2="440.5" id="Line-8-Copy-8" stroke="var(--illustration-black)" stroke-linecap="square" stroke-dasharray="2"></line>
        <g id="grid-line-label-copy-6" transform="translate(558.000000, 134.000000)">
            <rect id="Rectangle" stroke="var(--illustration-accent)" fill="var(--illustration-background)" x="0.5" y="0.5" width="14" height="11" rx="2"></rect>
            <g id="1" transform="translate(3.733887, 3.883789)" fill="var(--illustration-accent)" fill-rule="nonzero">
                <path d="M0,2.21484375 C0,3.421875 0.565429688,4.20117188 1.51464844,4.20117188 C2.46386719,4.20117188 3.04394531,3.41308594 3.04394531,2.21484375 L3.04394531,2.02734375 C3.04394531,0.817382812 2.48144531,0.041015625 1.52636719,0.041015625 C0.57421875,0.041015625 0,0.826171875 0,2.02734375 L0,2.21484375 Z M0.791015625,2.03027344 C0.791015625,1.18652344 1.06640625,0.685546875 1.52050781,0.685546875 C1.97460938,0.685546875 2.25,1.18945312 2.25,2.03027344 L2.25,2.20898438 C2.25,3.05273438 1.97460938,3.55664062 1.52050781,3.55664062 C1.06640625,3.55664062 0.791015625,3.05273438 0.791015625,2.20898438 L0.791015625,2.03027344 Z" id="Shape"></path>
                <path d="M3.42773438,1.0546875 C3.42773438,1.6171875 3.73535156,1.99804688 4.24511719,1.99804688 C4.77246094,1.99804688 5.08007812,1.59375 5.08007812,1.0546875 L5.08007812,0.940429688 C5.08007812,0.375 4.77539062,0 4.25976562,0 C3.74414062,0 3.42773438,0.380859375 3.42773438,0.940429688 L3.42773438,1.0546875 Z M3.91113281,3.80273438 C3.85839844,3.87304688 3.83496094,3.94628906 3.84082031,4.01074219 C3.84375,4.09863281 3.91699219,4.17480469 3.99902344,4.19238281 C4.08984375,4.23339844 4.20410156,4.22753906 4.29492188,4.10742188 L5.73632812,2.2265625 L7.09277344,0.474609375 C7.14257812,0.41015625 7.16894531,0.345703125 7.16601562,0.28125 C7.16308594,0.184570312 7.09570312,0.10546875 7.00195312,0.0849609375 C6.90820312,0.041015625 6.796875,0.052734375 6.70898438,0.172851562 L5.34960938,1.95117187 L3.91113281,3.80273438 Z M3.98144531,0.955078125 C3.98144531,0.624023438 4.08691406,0.45703125 4.25390625,0.45703125 C4.41796875,0.45703125 4.5234375,0.624023438 4.5234375,0.955078125 L4.5234375,1.04003906 C4.5234375,1.37109375 4.41796875,1.54101562 4.25390625,1.54101562 C4.08691406,1.54101562 3.98144531,1.37109375 3.98144531,1.04003906 L3.98144531,0.955078125 Z M5.94140625,3.21972656 C5.94140625,3.78222656 6.24902344,4.16601562 6.76171875,4.16601562 C7.28613281,4.16601562 7.59375,3.75878906 7.59375,3.21972656 L7.59375,3.10546875 C7.59375,2.54003906 7.29199219,2.16503906 6.77636719,2.16503906 C6.26074219,2.16503906 5.94140625,2.54589844 5.94140625,3.10546875 L5.94140625,3.21972656 Z M6.49511719,3.12011719 C6.49511719,2.7890625 6.60058594,2.62207031 6.76757812,2.62207031 C6.93457031,2.62207031 7.04003906,2.79199219 7.04003906,3.12011719 L7.04003906,3.20507812 C7.04003906,3.53613281 6.93164062,3.70898438 6.76757812,3.70898438 C6.60351562,3.70898438 6.49511719,3.53613281 6.49511719,3.20507812 L6.49511719,3.12011719 Z" id="Shape"></path>
            </g>
        </g>
        <g id="grid-line-label-copy-8" transform="translate(393.000000, 254.000000)">
            <rect id="Rectangle" stroke="var(--illustration-accent)" fill="var(--illustration-background)" x="0.5" y="0.5" width="14" height="11" rx="2"></rect>
            <g id="1" transform="translate(3.733887, 3.883789)" fill="var(--illustration-accent)" fill-rule="nonzero">
                <path d="M0,2.21484375 C0,3.421875 0.565429688,4.20117188 1.51464844,4.20117188 C2.46386719,4.20117188 3.04394531,3.41308594 3.04394531,2.21484375 L3.04394531,2.02734375 C3.04394531,0.817382812 2.48144531,0.041015625 1.52636719,0.041015625 C0.57421875,0.041015625 0,0.826171875 0,2.02734375 L0,2.21484375 Z M0.791015625,2.03027344 C0.791015625,1.18652344 1.06640625,0.685546875 1.52050781,0.685546875 C1.97460938,0.685546875 2.25,1.18945312 2.25,2.03027344 L2.25,2.20898438 C2.25,3.05273438 1.97460938,3.55664062 1.52050781,3.55664062 C1.06640625,3.55664062 0.791015625,3.05273438 0.791015625,2.20898438 L0.791015625,2.03027344 Z" id="Shape"></path>
                <path d="M3.42773438,1.0546875 C3.42773438,1.6171875 3.73535156,1.99804688 4.24511719,1.99804688 C4.77246094,1.99804688 5.08007812,1.59375 5.08007812,1.0546875 L5.08007812,0.940429688 C5.08007812,0.375 4.77539062,0 4.25976562,0 C3.74414062,0 3.42773438,0.380859375 3.42773438,0.940429688 L3.42773438,1.0546875 Z M3.91113281,3.80273438 C3.85839844,3.87304688 3.83496094,3.94628906 3.84082031,4.01074219 C3.84375,4.09863281 3.91699219,4.17480469 3.99902344,4.19238281 C4.08984375,4.23339844 4.20410156,4.22753906 4.29492188,4.10742188 L5.73632812,2.2265625 L7.09277344,0.474609375 C7.14257812,0.41015625 7.16894531,0.345703125 7.16601562,0.28125 C7.16308594,0.184570312 7.09570312,0.10546875 7.00195312,0.0849609375 C6.90820312,0.041015625 6.796875,0.052734375 6.70898438,0.172851562 L5.34960938,1.95117187 L3.91113281,3.80273438 Z M3.98144531,0.955078125 C3.98144531,0.624023438 4.08691406,0.45703125 4.25390625,0.45703125 C4.41796875,0.45703125 4.5234375,0.624023438 4.5234375,0.955078125 L4.5234375,1.04003906 C4.5234375,1.37109375 4.41796875,1.54101562 4.25390625,1.54101562 C4.08691406,1.54101562 3.98144531,1.37109375 3.98144531,1.04003906 L3.98144531,0.955078125 Z M5.94140625,3.21972656 C5.94140625,3.78222656 6.24902344,4.16601562 6.76171875,4.16601562 C7.28613281,4.16601562 7.59375,3.75878906 7.59375,3.21972656 L7.59375,3.10546875 C7.59375,2.54003906 7.29199219,2.16503906 6.77636719,2.16503906 C6.26074219,2.16503906 5.94140625,2.54589844 5.94140625,3.10546875 L5.94140625,3.21972656 Z M6.49511719,3.12011719 C6.49511719,2.7890625 6.60058594,2.62207031 6.76757812,2.62207031 C6.93457031,2.62207031 7.04003906,2.79199219 7.04003906,3.12011719 L7.04003906,3.20507812 C7.04003906,3.53613281 6.93164062,3.70898438 6.76757812,3.70898438 C6.60351562,3.70898438 6.49511719,3.53613281 6.49511719,3.20507812 L6.49511719,3.12011719 Z" id="Shape"></path>
            </g>
        </g>
        <g id="grid-line-label-copy-11" transform="translate(228.000000, 374.000000)">
            <rect id="Rectangle" stroke="var(--illustration-black)" fill="var(--illustration-background)" x="0.5" y="0.5" width="14" height="11" rx="2"></rect>
            <g id="1" transform="translate(3.733887, 3.883789)" fill="var(--illustration-black)" fill-rule="nonzero">
                <path d="M0,2.21484375 C0,3.421875 0.565429688,4.20117188 1.51464844,4.20117188 C2.46386719,4.20117188 3.04394531,3.41308594 3.04394531,2.21484375 L3.04394531,2.02734375 C3.04394531,0.817382812 2.48144531,0.041015625 1.52636719,0.041015625 C0.57421875,0.041015625 0,0.826171875 0,2.02734375 L0,2.21484375 Z M0.791015625,2.03027344 C0.791015625,1.18652344 1.06640625,0.685546875 1.52050781,0.685546875 C1.97460938,0.685546875 2.25,1.18945312 2.25,2.03027344 L2.25,2.20898438 C2.25,3.05273438 1.97460938,3.55664062 1.52050781,3.55664062 C1.06640625,3.55664062 0.791015625,3.05273438 0.791015625,2.20898438 L0.791015625,2.03027344 Z" id="Shape"></path>
                <path d="M3.42773438,1.0546875 C3.42773438,1.6171875 3.73535156,1.99804688 4.24511719,1.99804688 C4.77246094,1.99804688 5.08007812,1.59375 5.08007812,1.0546875 L5.08007812,0.940429688 C5.08007812,0.375 4.77539062,0 4.25976562,0 C3.74414062,0 3.42773438,0.380859375 3.42773438,0.940429688 L3.42773438,1.0546875 Z M3.91113281,3.80273438 C3.85839844,3.87304688 3.83496094,3.94628906 3.84082031,4.01074219 C3.84375,4.09863281 3.91699219,4.17480469 3.99902344,4.19238281 C4.08984375,4.23339844 4.20410156,4.22753906 4.29492188,4.10742188 L5.73632812,2.2265625 L7.09277344,0.474609375 C7.14257812,0.41015625 7.16894531,0.345703125 7.16601562,0.28125 C7.16308594,0.184570312 7.09570312,0.10546875 7.00195312,0.0849609375 C6.90820312,0.041015625 6.796875,0.052734375 6.70898438,0.172851562 L5.34960938,1.95117187 L3.91113281,3.80273438 Z M3.98144531,0.955078125 C3.98144531,0.624023438 4.08691406,0.45703125 4.25390625,0.45703125 C4.41796875,0.45703125 4.5234375,0.624023438 4.5234375,0.955078125 L4.5234375,1.04003906 C4.5234375,1.37109375 4.41796875,1.54101562 4.25390625,1.54101562 C4.08691406,1.54101562 3.98144531,1.37109375 3.98144531,1.04003906 L3.98144531,0.955078125 Z M5.94140625,3.21972656 C5.94140625,3.78222656 6.24902344,4.16601562 6.76171875,4.16601562 C7.28613281,4.16601562 7.59375,3.75878906 7.59375,3.21972656 L7.59375,3.10546875 C7.59375,2.54003906 7.29199219,2.16503906 6.77636719,2.16503906 C6.26074219,2.16503906 5.94140625,2.54589844 5.94140625,3.10546875 L5.94140625,3.21972656 Z M6.49511719,3.12011719 C6.49511719,2.7890625 6.60058594,2.62207031 6.76757812,2.62207031 C6.93457031,2.62207031 7.04003906,2.79199219 7.04003906,3.12011719 L7.04003906,3.20507812 C7.04003906,3.53613281 6.93164062,3.70898438 6.76757812,3.70898438 C6.60351562,3.70898438 6.49511719,3.53613281 6.49511719,3.20507812 L6.49511719,3.12011719 Z" id="Shape"></path>
            </g>
        </g>
        <g id="grid-line-label-copy-6" transform="translate(556.000000, 195.000000)">
            <rect id="Rectangle" stroke="var(--illustration-accent)" fill="var(--illustration-background)" x="0.5" y="0.5" width="18" height="11" rx="2"></rect>
            <g id="50%" transform="translate(3.618164, 3.883789)" fill="var(--illustration-accent)" fill-rule="nonzero">
                <path d="M0,3.3046875 C0,3.75292969 0.5625,4.20117188 1.35644531,4.20117188 C2.26464844,4.20117188 2.87695312,3.62988281 2.87695312,2.77734375 C2.87695312,2.00390625 2.35253906,1.4765625 1.59082031,1.4765625 C1.24804688,1.4765625 0.922851562,1.60546875 0.78515625,1.79296875 L0.744140625,1.79296875 L0.826171875,0.758789062 L2.34082031,0.758789062 C2.578125,0.758789062 2.71289062,0.64453125 2.71289062,0.439453125 C2.71289062,0.234375 2.57519531,0.114257812 2.34082031,0.114257812 L0.682617188,0.114257812 C0.360351562,0.114257812 0.193359375,0.249023438 0.172851562,0.52734375 L0.064453125,2.03320312 C0.046875,2.30273438 0.2109375,2.47558594 0.451171875,2.47558594 C0.559570312,2.47558594 0.64453125,2.44042969 0.817382812,2.29394531 C0.990234375,2.15917969 1.18945312,2.0859375 1.38574219,2.0859375 C1.80761719,2.0859375 2.109375,2.37890625 2.109375,2.80664062 C2.109375,3.24902344 1.79589844,3.55664062 1.35351562,3.55664062 C1.0546875,3.55664062 0.8203125,3.41894531 0.635742188,3.14355469 C0.5390625,3.00585938 0.4453125,2.953125 0.322265625,2.953125 C0.125976562,2.953125 0,3.10839844 0,3.3046875 Z" id="Path"></path>
                <path d="M3.38671875,2.21484375 C3.38671875,3.421875 3.95214844,4.20117188 4.90136719,4.20117188 C5.85058594,4.20117188 6.43066406,3.41308594 6.43066406,2.21484375 L6.43066406,2.02734375 C6.43066406,0.817382812 5.86816406,0.041015625 4.91308594,0.041015625 C3.9609375,0.041015625 3.38671875,0.826171875 3.38671875,2.02734375 L3.38671875,2.21484375 Z M4.17773438,2.03027344 C4.17773438,1.18652344 4.453125,0.685546875 4.90722656,0.685546875 C5.36132812,0.685546875 5.63671875,1.18945312 5.63671875,2.03027344 L5.63671875,2.20898438 C5.63671875,3.05273438 5.36132812,3.55664062 4.90722656,3.55664062 C4.453125,3.55664062 4.17773438,3.05273438 4.17773438,2.20898438 L4.17773438,2.03027344 Z" id="Shape"></path>
                <path d="M6.81445312,1.0546875 C6.81445312,1.6171875 7.12207031,1.99804688 7.63183594,1.99804688 C8.15917969,1.99804688 8.46679688,1.59375 8.46679688,1.0546875 L8.46679688,0.940429688 C8.46679688,0.375 8.16210938,0 7.64648438,0 C7.13085938,0 6.81445312,0.380859375 6.81445312,0.940429688 L6.81445312,1.0546875 Z M7.29785156,3.80273438 C7.24511719,3.87304688 7.22167969,3.94628906 7.22753906,4.01074219 C7.23046875,4.09863281 7.30371094,4.17480469 7.38574219,4.19238281 C7.4765625,4.23339844 7.59082031,4.22753906 7.68164062,4.10742188 L9.12304688,2.2265625 L10.4794922,0.474609375 C10.5292969,0.41015625 10.5556641,0.345703125 10.5527344,0.28125 C10.5498047,0.184570312 10.4824219,0.10546875 10.3886719,0.0849609375 C10.2949219,0.041015625 10.1835938,0.052734375 10.0957031,0.172851562 L8.73632812,1.95117187 L7.29785156,3.80273438 Z M7.36816406,0.955078125 C7.36816406,0.624023438 7.47363281,0.45703125 7.640625,0.45703125 C7.8046875,0.45703125 7.91015625,0.624023438 7.91015625,0.955078125 L7.91015625,1.04003906 C7.91015625,1.37109375 7.8046875,1.54101562 7.640625,1.54101562 C7.47363281,1.54101562 7.36816406,1.37109375 7.36816406,1.04003906 L7.36816406,0.955078125 Z M9.328125,3.21972656 C9.328125,3.78222656 9.63574219,4.16601562 10.1484375,4.16601562 C10.6728516,4.16601562 10.9804688,3.75878906 10.9804688,3.21972656 L10.9804688,3.10546875 C10.9804688,2.54003906 10.6787109,2.16503906 10.1630859,2.16503906 C9.64746094,2.16503906 9.328125,2.54589844 9.328125,3.10546875 L9.328125,3.21972656 Z M9.88183594,3.12011719 C9.88183594,2.7890625 9.98730469,2.62207031 10.1542969,2.62207031 C10.3212891,2.62207031 10.4267578,2.79199219 10.4267578,3.12011719 L10.4267578,3.20507812 C10.4267578,3.53613281 10.3183594,3.70898438 10.1542969,3.70898438 C9.99023438,3.70898438 9.88183594,3.53613281 9.88183594,3.20507812 L9.88183594,3.12011719 Z" id="Shape"></path>
            </g>
        </g>
        <g id="grid-line-label-copy-9" transform="translate(391.000000, 315.000000)">
            <rect id="Rectangle" stroke="var(--illustration-accent)" fill="var(--illustration-background)" x="0.5" y="0.5" width="18" height="11" rx="2"></rect>
            <g id="50%" transform="translate(3.618164, 3.883789)" fill="var(--illustration-accent)" fill-rule="nonzero">
                <path d="M0,3.3046875 C0,3.75292969 0.5625,4.20117188 1.35644531,4.20117188 C2.26464844,4.20117188 2.87695312,3.62988281 2.87695312,2.77734375 C2.87695312,2.00390625 2.35253906,1.4765625 1.59082031,1.4765625 C1.24804688,1.4765625 0.922851562,1.60546875 0.78515625,1.79296875 L0.744140625,1.79296875 L0.826171875,0.758789062 L2.34082031,0.758789062 C2.578125,0.758789062 2.71289062,0.64453125 2.71289062,0.439453125 C2.71289062,0.234375 2.57519531,0.114257812 2.34082031,0.114257812 L0.682617188,0.114257812 C0.360351562,0.114257812 0.193359375,0.249023438 0.172851562,0.52734375 L0.064453125,2.03320312 C0.046875,2.30273438 0.2109375,2.47558594 0.451171875,2.47558594 C0.559570312,2.47558594 0.64453125,2.44042969 0.817382812,2.29394531 C0.990234375,2.15917969 1.18945312,2.0859375 1.38574219,2.0859375 C1.80761719,2.0859375 2.109375,2.37890625 2.109375,2.80664062 C2.109375,3.24902344 1.79589844,3.55664062 1.35351562,3.55664062 C1.0546875,3.55664062 0.8203125,3.41894531 0.635742188,3.14355469 C0.5390625,3.00585938 0.4453125,2.953125 0.322265625,2.953125 C0.125976562,2.953125 0,3.10839844 0,3.3046875 Z" id="Path"></path>
                <path d="M3.38671875,2.21484375 C3.38671875,3.421875 3.95214844,4.20117188 4.90136719,4.20117188 C5.85058594,4.20117188 6.43066406,3.41308594 6.43066406,2.21484375 L6.43066406,2.02734375 C6.43066406,0.817382812 5.86816406,0.041015625 4.91308594,0.041015625 C3.9609375,0.041015625 3.38671875,0.826171875 3.38671875,2.02734375 L3.38671875,2.21484375 Z M4.17773438,2.03027344 C4.17773438,1.18652344 4.453125,0.685546875 4.90722656,0.685546875 C5.36132812,0.685546875 5.63671875,1.18945312 5.63671875,2.03027344 L5.63671875,2.20898438 C5.63671875,3.05273438 5.36132812,3.55664062 4.90722656,3.55664062 C4.453125,3.55664062 4.17773438,3.05273438 4.17773438,2.20898438 L4.17773438,2.03027344 Z" id="Shape"></path>
                <path d="M6.81445312,1.0546875 C6.81445312,1.6171875 7.12207031,1.99804688 7.63183594,1.99804688 C8.15917969,1.99804688 8.46679688,1.59375 8.46679688,1.0546875 L8.46679688,0.940429688 C8.46679688,0.375 8.16210938,0 7.64648438,0 C7.13085938,0 6.81445312,0.380859375 6.81445312,0.940429688 L6.81445312,1.0546875 Z M7.29785156,3.80273438 C7.24511719,3.87304688 7.22167969,3.94628906 7.22753906,4.01074219 C7.23046875,4.09863281 7.30371094,4.17480469 7.38574219,4.19238281 C7.4765625,4.23339844 7.59082031,4.22753906 7.68164062,4.10742188 L9.12304688,2.2265625 L10.4794922,0.474609375 C10.5292969,0.41015625 10.5556641,0.345703125 10.5527344,0.28125 C10.5498047,0.184570312 10.4824219,0.10546875 10.3886719,0.0849609375 C10.2949219,0.041015625 10.1835938,0.052734375 10.0957031,0.172851562 L8.73632812,1.95117187 L7.29785156,3.80273438 Z M7.36816406,0.955078125 C7.36816406,0.624023438 7.47363281,0.45703125 7.640625,0.45703125 C7.8046875,0.45703125 7.91015625,0.624023438 7.91015625,0.955078125 L7.91015625,1.04003906 C7.91015625,1.37109375 7.8046875,1.54101562 7.640625,1.54101562 C7.47363281,1.54101562 7.36816406,1.37109375 7.36816406,1.04003906 L7.36816406,0.955078125 Z M9.328125,3.21972656 C9.328125,3.78222656 9.63574219,4.16601562 10.1484375,4.16601562 C10.6728516,4.16601562 10.9804688,3.75878906 10.9804688,3.21972656 L10.9804688,3.10546875 C10.9804688,2.54003906 10.6787109,2.16503906 10.1630859,2.16503906 C9.64746094,2.16503906 9.328125,2.54589844 9.328125,3.10546875 L9.328125,3.21972656 Z M9.88183594,3.12011719 C9.88183594,2.7890625 9.98730469,2.62207031 10.1542969,2.62207031 C10.3212891,2.62207031 10.4267578,2.79199219 10.4267578,3.12011719 L10.4267578,3.20507812 C10.4267578,3.53613281 10.3183594,3.70898438 10.1542969,3.70898438 C9.99023438,3.70898438 9.88183594,3.53613281 9.88183594,3.20507812 L9.88183594,3.12011719 Z" id="Shape"></path>
            </g>
        </g>
        <g id="grid-line-label-copy-12" transform="translate(226.000000, 435.000000)">
            <rect id="Rectangle" stroke="var(--illustration-black)" fill="var(--illustration-background)" x="0.5" y="0.5" width="18" height="11" rx="2"></rect>
            <g id="50%" transform="translate(3.618164, 3.883789)" fill="var(--illustration-black)" fill-rule="nonzero">
                <path d="M0,3.3046875 C0,3.75292969 0.5625,4.20117188 1.35644531,4.20117188 C2.26464844,4.20117188 2.87695312,3.62988281 2.87695312,2.77734375 C2.87695312,2.00390625 2.35253906,1.4765625 1.59082031,1.4765625 C1.24804688,1.4765625 0.922851562,1.60546875 0.78515625,1.79296875 L0.744140625,1.79296875 L0.826171875,0.758789062 L2.34082031,0.758789062 C2.578125,0.758789062 2.71289062,0.64453125 2.71289062,0.439453125 C2.71289062,0.234375 2.57519531,0.114257812 2.34082031,0.114257812 L0.682617188,0.114257812 C0.360351562,0.114257812 0.193359375,0.249023438 0.172851562,0.52734375 L0.064453125,2.03320312 C0.046875,2.30273438 0.2109375,2.47558594 0.451171875,2.47558594 C0.559570312,2.47558594 0.64453125,2.44042969 0.817382812,2.29394531 C0.990234375,2.15917969 1.18945312,2.0859375 1.38574219,2.0859375 C1.80761719,2.0859375 2.109375,2.37890625 2.109375,2.80664062 C2.109375,3.24902344 1.79589844,3.55664062 1.35351562,3.55664062 C1.0546875,3.55664062 0.8203125,3.41894531 0.635742188,3.14355469 C0.5390625,3.00585938 0.4453125,2.953125 0.322265625,2.953125 C0.125976562,2.953125 0,3.10839844 0,3.3046875 Z" id="Path"></path>
                <path d="M3.38671875,2.21484375 C3.38671875,3.421875 3.95214844,4.20117188 4.90136719,4.20117188 C5.85058594,4.20117188 6.43066406,3.41308594 6.43066406,2.21484375 L6.43066406,2.02734375 C6.43066406,0.817382812 5.86816406,0.041015625 4.91308594,0.041015625 C3.9609375,0.041015625 3.38671875,0.826171875 3.38671875,2.02734375 L3.38671875,2.21484375 Z M4.17773438,2.03027344 C4.17773438,1.18652344 4.453125,0.685546875 4.90722656,0.685546875 C5.36132812,0.685546875 5.63671875,1.18945312 5.63671875,2.03027344 L5.63671875,2.20898438 C5.63671875,3.05273438 5.36132812,3.55664062 4.90722656,3.55664062 C4.453125,3.55664062 4.17773438,3.05273438 4.17773438,2.20898438 L4.17773438,2.03027344 Z" id="Shape"></path>
                <path d="M6.81445312,1.0546875 C6.81445312,1.6171875 7.12207031,1.99804688 7.63183594,1.99804688 C8.15917969,1.99804688 8.46679688,1.59375 8.46679688,1.0546875 L8.46679688,0.940429688 C8.46679688,0.375 8.16210938,0 7.64648438,0 C7.13085938,0 6.81445312,0.380859375 6.81445312,0.940429688 L6.81445312,1.0546875 Z M7.29785156,3.80273438 C7.24511719,3.87304688 7.22167969,3.94628906 7.22753906,4.01074219 C7.23046875,4.09863281 7.30371094,4.17480469 7.38574219,4.19238281 C7.4765625,4.23339844 7.59082031,4.22753906 7.68164062,4.10742188 L9.12304688,2.2265625 L10.4794922,0.474609375 C10.5292969,0.41015625 10.5556641,0.345703125 10.5527344,0.28125 C10.5498047,0.184570312 10.4824219,0.10546875 10.3886719,0.0849609375 C10.2949219,0.041015625 10.1835938,0.052734375 10.0957031,0.172851562 L8.73632812,1.95117187 L7.29785156,3.80273438 Z M7.36816406,0.955078125 C7.36816406,0.624023438 7.47363281,0.45703125 7.640625,0.45703125 C7.8046875,0.45703125 7.91015625,0.624023438 7.91015625,0.955078125 L7.91015625,1.04003906 C7.91015625,1.37109375 7.8046875,1.54101562 7.640625,1.54101562 C7.47363281,1.54101562 7.36816406,1.37109375 7.36816406,1.04003906 L7.36816406,0.955078125 Z M9.328125,3.21972656 C9.328125,3.78222656 9.63574219,4.16601562 10.1484375,4.16601562 C10.6728516,4.16601562 10.9804688,3.75878906 10.9804688,3.21972656 L10.9804688,3.10546875 C10.9804688,2.54003906 10.6787109,2.16503906 10.1630859,2.16503906 C9.64746094,2.16503906 9.328125,2.54589844 9.328125,3.10546875 L9.328125,3.21972656 Z M9.88183594,3.12011719 C9.88183594,2.7890625 9.98730469,2.62207031 10.1542969,2.62207031 C10.3212891,2.62207031 10.4267578,2.79199219 10.4267578,3.12011719 L10.4267578,3.20507812 C10.4267578,3.53613281 10.3183594,3.70898438 10.1542969,3.70898438 C9.99023438,3.70898438 9.88183594,3.53613281 9.88183594,3.20507812 L9.88183594,3.12011719 Z" id="Shape"></path>
            </g>
        </g>
        <g id="grid-line-label-copy-7" transform="translate(555.000000, 254.000000)">
            <rect id="Rectangle" stroke="var(--illustration-accent)" fill="var(--illustration-background)" x="0.5" y="0.5" width="20" height="11" rx="2"></rect>
            <g id="100%" transform="translate(3.261719, 3.883789)" fill="var(--illustration-accent)" fill-rule="nonzero">
                <path d="M0.984375,3.7265625 C0.984375,3.99316406 1.12792969,4.15136719 1.37402344,4.15136719 C1.62304688,4.15136719 1.76660156,3.99609375 1.76660156,3.7265625 L1.76660156,0.583007812 C1.76660156,0.287109375 1.57617188,0.0908203125 1.29199219,0.0908203125 C1.12792969,0.0908203125 0.9609375,0.149414062 0.75,0.29296875 L0.225585938,0.659179688 C0.076171875,0.758789062 0,0.8671875 0,0.990234375 C0,1.15136719 0.120117187,1.27148438 0.28125,1.27148438 C0.366210938,1.27148438 0.439453125,1.24511719 0.565429688,1.16308594 L0.966796875,0.87890625 L0.984375,0.87890625 L0.984375,3.7265625 Z" id="Path"></path>
                <path d="M2.45800781,2.21484375 C2.45800781,3.421875 3.0234375,4.20117188 3.97265625,4.20117188 C4.921875,4.20117188 5.50195312,3.41308594 5.50195312,2.21484375 L5.50195312,2.02734375 C5.50195312,0.817382812 4.93945312,0.041015625 3.984375,0.041015625 C3.03222656,0.041015625 2.45800781,0.826171875 2.45800781,2.02734375 L2.45800781,2.21484375 Z M3.24902344,2.03027344 C3.24902344,1.18652344 3.52441406,0.685546875 3.97851562,0.685546875 C4.43261719,0.685546875 4.70800781,1.18945312 4.70800781,2.03027344 L4.70800781,2.20898438 C4.70800781,3.05273438 4.43261719,3.55664062 3.97851562,3.55664062 C3.52441406,3.55664062 3.24902344,3.05273438 3.24902344,2.20898438 L3.24902344,2.03027344 Z" id="Shape"></path>
                <path d="M5.94726562,2.21484375 C5.94726562,3.421875 6.51269531,4.20117188 7.46191406,4.20117188 C8.41113281,4.20117188 8.99121094,3.41308594 8.99121094,2.21484375 L8.99121094,2.02734375 C8.99121094,0.817382812 8.42871094,0.041015625 7.47363281,0.041015625 C6.52148438,0.041015625 5.94726562,0.826171875 5.94726562,2.02734375 L5.94726562,2.21484375 Z M6.73828125,2.03027344 C6.73828125,1.18652344 7.01367188,0.685546875 7.46777344,0.685546875 C7.921875,0.685546875 8.19726562,1.18945312 8.19726562,2.03027344 L8.19726562,2.20898438 C8.19726562,3.05273438 7.921875,3.55664062 7.46777344,3.55664062 C7.01367188,3.55664062 6.73828125,3.05273438 6.73828125,2.20898438 L6.73828125,2.03027344 Z" id="Shape"></path>
                <path d="M9.375,1.0546875 C9.375,1.6171875 9.68261719,1.99804688 10.1923828,1.99804688 C10.7197266,1.99804688 11.0273438,1.59375 11.0273438,1.0546875 L11.0273438,0.940429688 C11.0273438,0.375 10.7226562,0 10.2070312,0 C9.69140625,0 9.375,0.380859375 9.375,0.940429688 L9.375,1.0546875 Z M9.85839844,3.80273438 C9.80566406,3.87304688 9.78222656,3.94628906 9.78808594,4.01074219 C9.79101562,4.09863281 9.86425781,4.17480469 9.94628906,4.19238281 C10.0371094,4.23339844 10.1513672,4.22753906 10.2421875,4.10742188 L11.6835938,2.2265625 L13.0400391,0.474609375 C13.0898438,0.41015625 13.1162109,0.345703125 13.1132812,0.28125 C13.1103516,0.184570312 13.0429688,0.10546875 12.9492188,0.0849609375 C12.8554688,0.041015625 12.7441406,0.052734375 12.65625,0.172851562 L11.296875,1.95117187 L9.85839844,3.80273438 Z M9.92871094,0.955078125 C9.92871094,0.624023438 10.0341797,0.45703125 10.2011719,0.45703125 C10.3652344,0.45703125 10.4707031,0.624023438 10.4707031,0.955078125 L10.4707031,1.04003906 C10.4707031,1.37109375 10.3652344,1.54101562 10.2011719,1.54101562 C10.0341797,1.54101562 9.92871094,1.37109375 9.92871094,1.04003906 L9.92871094,0.955078125 Z M11.8886719,3.21972656 C11.8886719,3.78222656 12.1962891,4.16601562 12.7089844,4.16601562 C13.2333984,4.16601562 13.5410156,3.75878906 13.5410156,3.21972656 L13.5410156,3.10546875 C13.5410156,2.54003906 13.2392578,2.16503906 12.7236328,2.16503906 C12.2080078,2.16503906 11.8886719,2.54589844 11.8886719,3.10546875 L11.8886719,3.21972656 Z M12.4423828,3.12011719 C12.4423828,2.7890625 12.5478516,2.62207031 12.7148438,2.62207031 C12.8818359,2.62207031 12.9873047,2.79199219 12.9873047,3.12011719 L12.9873047,3.20507812 C12.9873047,3.53613281 12.8789062,3.70898438 12.7148438,3.70898438 C12.5507812,3.70898438 12.4423828,3.53613281 12.4423828,3.20507812 L12.4423828,3.12011719 Z" id="Shape"></path>
            </g>
        </g>
        <g id="grid-line-label-copy-10" transform="translate(390.000000, 374.000000)">
            <rect id="Rectangle" stroke="var(--illustration-black)" fill="var(--illustration-background)" x="0.5" y="0.5" width="20" height="11" rx="2"></rect>
            <g id="100%" transform="translate(3.261719, 3.883789)" fill="var(--illustration-black)" fill-rule="nonzero">
                <path d="M0.984375,3.7265625 C0.984375,3.99316406 1.12792969,4.15136719 1.37402344,4.15136719 C1.62304688,4.15136719 1.76660156,3.99609375 1.76660156,3.7265625 L1.76660156,0.583007812 C1.76660156,0.287109375 1.57617188,0.0908203125 1.29199219,0.0908203125 C1.12792969,0.0908203125 0.9609375,0.149414062 0.75,0.29296875 L0.225585938,0.659179688 C0.076171875,0.758789062 0,0.8671875 0,0.990234375 C0,1.15136719 0.120117187,1.27148438 0.28125,1.27148438 C0.366210938,1.27148438 0.439453125,1.24511719 0.565429688,1.16308594 L0.966796875,0.87890625 L0.984375,0.87890625 L0.984375,3.7265625 Z" id="Path"></path>
                <path d="M2.45800781,2.21484375 C2.45800781,3.421875 3.0234375,4.20117188 3.97265625,4.20117188 C4.921875,4.20117188 5.50195312,3.41308594 5.50195312,2.21484375 L5.50195312,2.02734375 C5.50195312,0.817382812 4.93945312,0.041015625 3.984375,0.041015625 C3.03222656,0.041015625 2.45800781,0.826171875 2.45800781,2.02734375 L2.45800781,2.21484375 Z M3.24902344,2.03027344 C3.24902344,1.18652344 3.52441406,0.685546875 3.97851562,0.685546875 C4.43261719,0.685546875 4.70800781,1.18945312 4.70800781,2.03027344 L4.70800781,2.20898438 C4.70800781,3.05273438 4.43261719,3.55664062 3.97851562,3.55664062 C3.52441406,3.55664062 3.24902344,3.05273438 3.24902344,2.20898438 L3.24902344,2.03027344 Z" id="Shape"></path>
                <path d="M5.94726562,2.21484375 C5.94726562,3.421875 6.51269531,4.20117188 7.46191406,4.20117188 C8.41113281,4.20117188 8.99121094,3.41308594 8.99121094,2.21484375 L8.99121094,2.02734375 C8.99121094,0.817382812 8.42871094,0.041015625 7.47363281,0.041015625 C6.52148438,0.041015625 5.94726562,0.826171875 5.94726562,2.02734375 L5.94726562,2.21484375 Z M6.73828125,2.03027344 C6.73828125,1.18652344 7.01367188,0.685546875 7.46777344,0.685546875 C7.921875,0.685546875 8.19726562,1.18945312 8.19726562,2.03027344 L8.19726562,2.20898438 C8.19726562,3.05273438 7.921875,3.55664062 7.46777344,3.55664062 C7.01367188,3.55664062 6.73828125,3.05273438 6.73828125,2.20898438 L6.73828125,2.03027344 Z" id="Shape"></path>
                <path d="M9.375,1.0546875 C9.375,1.6171875 9.68261719,1.99804688 10.1923828,1.99804688 C10.7197266,1.99804688 11.0273438,1.59375 11.0273438,1.0546875 L11.0273438,0.940429688 C11.0273438,0.375 10.7226562,0 10.2070312,0 C9.69140625,0 9.375,0.380859375 9.375,0.940429688 L9.375,1.0546875 Z M9.85839844,3.80273438 C9.80566406,3.87304688 9.78222656,3.94628906 9.78808594,4.01074219 C9.79101562,4.09863281 9.86425781,4.17480469 9.94628906,4.19238281 C10.0371094,4.23339844 10.1513672,4.22753906 10.2421875,4.10742188 L11.6835938,2.2265625 L13.0400391,0.474609375 C13.0898438,0.41015625 13.1162109,0.345703125 13.1132812,0.28125 C13.1103516,0.184570312 13.0429688,0.10546875 12.9492188,0.0849609375 C12.8554688,0.041015625 12.7441406,0.052734375 12.65625,0.172851562 L11.296875,1.95117187 L9.85839844,3.80273438 Z M9.92871094,0.955078125 C9.92871094,0.624023438 10.0341797,0.45703125 10.2011719,0.45703125 C10.3652344,0.45703125 10.4707031,0.624023438 10.4707031,0.955078125 L10.4707031,1.04003906 C10.4707031,1.37109375 10.3652344,1.54101562 10.2011719,1.54101562 C10.0341797,1.54101562 9.92871094,1.37109375 9.92871094,1.04003906 L9.92871094,0.955078125 Z M11.8886719,3.21972656 C11.8886719,3.78222656 12.1962891,4.16601562 12.7089844,4.16601562 C13.2333984,4.16601562 13.5410156,3.75878906 13.5410156,3.21972656 L13.5410156,3.10546875 C13.5410156,2.54003906 13.2392578,2.16503906 12.7236328,2.16503906 C12.2080078,2.16503906 11.8886719,2.54589844 11.8886719,3.10546875 L11.8886719,3.21972656 Z M12.4423828,3.12011719 C12.4423828,2.7890625 12.5478516,2.62207031 12.7148438,2.62207031 C12.8818359,2.62207031 12.9873047,2.79199219 12.9873047,3.12011719 L12.9873047,3.20507812 C12.9873047,3.53613281 12.8789062,3.70898438 12.7148438,3.70898438 C12.5507812,3.70898438 12.4423828,3.53613281 12.4423828,3.20507812 L12.4423828,3.12011719 Z" id="Shape"></path>
            </g>
        </g>
        <g id="grid-line-label-copy-13" transform="translate(225.000000, 494.000000)">
            <rect id="Rectangle" stroke="var(--illustration-black)" fill="var(--illustration-background)" x="0.5" y="0.5" width="20" height="11" rx="2"></rect>
            <g id="100%" transform="translate(3.261719, 3.883789)" fill="var(--illustration-black)" fill-rule="nonzero">
                <path d="M0.984375,3.7265625 C0.984375,3.99316406 1.12792969,4.15136719 1.37402344,4.15136719 C1.62304688,4.15136719 1.76660156,3.99609375 1.76660156,3.7265625 L1.76660156,0.583007812 C1.76660156,0.287109375 1.57617188,0.0908203125 1.29199219,0.0908203125 C1.12792969,0.0908203125 0.9609375,0.149414062 0.75,0.29296875 L0.225585938,0.659179688 C0.076171875,0.758789062 0,0.8671875 0,0.990234375 C0,1.15136719 0.120117187,1.27148438 0.28125,1.27148438 C0.366210938,1.27148438 0.439453125,1.24511719 0.565429688,1.16308594 L0.966796875,0.87890625 L0.984375,0.87890625 L0.984375,3.7265625 Z" id="Path"></path>
                <path d="M2.45800781,2.21484375 C2.45800781,3.421875 3.0234375,4.20117188 3.97265625,4.20117188 C4.921875,4.20117188 5.50195312,3.41308594 5.50195312,2.21484375 L5.50195312,2.02734375 C5.50195312,0.817382812 4.93945312,0.041015625 3.984375,0.041015625 C3.03222656,0.041015625 2.45800781,0.826171875 2.45800781,2.02734375 L2.45800781,2.21484375 Z M3.24902344,2.03027344 C3.24902344,1.18652344 3.52441406,0.685546875 3.97851562,0.685546875 C4.43261719,0.685546875 4.70800781,1.18945312 4.70800781,2.03027344 L4.70800781,2.20898438 C4.70800781,3.05273438 4.43261719,3.55664062 3.97851562,3.55664062 C3.52441406,3.55664062 3.24902344,3.05273438 3.24902344,2.20898438 L3.24902344,2.03027344 Z" id="Shape"></path>
                <path d="M5.94726562,2.21484375 C5.94726562,3.421875 6.51269531,4.20117188 7.46191406,4.20117188 C8.41113281,4.20117188 8.99121094,3.41308594 8.99121094,2.21484375 L8.99121094,2.02734375 C8.99121094,0.817382812 8.42871094,0.041015625 7.47363281,0.041015625 C6.52148438,0.041015625 5.94726562,0.826171875 5.94726562,2.02734375 L5.94726562,2.21484375 Z M6.73828125,2.03027344 C6.73828125,1.18652344 7.01367188,0.685546875 7.46777344,0.685546875 C7.921875,0.685546875 8.19726562,1.18945312 8.19726562,2.03027344 L8.19726562,2.20898438 C8.19726562,3.05273438 7.921875,3.55664062 7.46777344,3.55664062 C7.01367188,3.55664062 6.73828125,3.05273438 6.73828125,2.20898438 L6.73828125,2.03027344 Z" id="Shape"></path>
                <path d="M9.375,1.0546875 C9.375,1.6171875 9.68261719,1.99804688 10.1923828,1.99804688 C10.7197266,1.99804688 11.0273438,1.59375 11.0273438,1.0546875 L11.0273438,0.940429688 C11.0273438,0.375 10.7226562,0 10.2070312,0 C9.69140625,0 9.375,0.380859375 9.375,0.940429688 L9.375,1.0546875 Z M9.85839844,3.80273438 C9.80566406,3.87304688 9.78222656,3.94628906 9.78808594,4.01074219 C9.79101562,4.09863281 9.86425781,4.17480469 9.94628906,4.19238281 C10.0371094,4.23339844 10.1513672,4.22753906 10.2421875,4.10742188 L11.6835938,2.2265625 L13.0400391,0.474609375 C13.0898438,0.41015625 13.1162109,0.345703125 13.1132812,0.28125 C13.1103516,0.184570312 13.0429688,0.10546875 12.9492188,0.0849609375 C12.8554688,0.041015625 12.7441406,0.052734375 12.65625,0.172851562 L11.296875,1.95117187 L9.85839844,3.80273438 Z M9.92871094,0.955078125 C9.92871094,0.624023438 10.0341797,0.45703125 10.2011719,0.45703125 C10.3652344,0.45703125 10.4707031,0.624023438 10.4707031,0.955078125 L10.4707031,1.04003906 C10.4707031,1.37109375 10.3652344,1.54101562 10.2011719,1.54101562 C10.0341797,1.54101562 9.92871094,1.37109375 9.92871094,1.04003906 L9.92871094,0.955078125 Z M11.8886719,3.21972656 C11.8886719,3.78222656 12.1962891,4.16601562 12.7089844,4.16601562 C13.2333984,4.16601562 13.5410156,3.75878906 13.5410156,3.21972656 L13.5410156,3.10546875 C13.5410156,2.54003906 13.2392578,2.16503906 12.7236328,2.16503906 C12.2080078,2.16503906 11.8886719,2.54589844 11.8886719,3.10546875 L11.8886719,3.21972656 Z M12.4423828,3.12011719 C12.4423828,2.7890625 12.5478516,2.62207031 12.7148438,2.62207031 C12.8818359,2.62207031 12.9873047,2.79199219 12.9873047,3.12011719 L12.9873047,3.20507812 C12.9873047,3.53613281 12.8789062,3.70898438 12.7148438,3.70898438 C12.5507812,3.70898438 12.4423828,3.53613281 12.4423828,3.20507812 L12.4423828,3.12011719 Z" id="Shape"></path>
            </g>
        </g>
    </g>
</svg>