<svg height="565" viewBox="0 0 800 565" width="800" xmlns="http://www.w3.org/2000/svg"><g fill="none" fill-rule="evenodd"><path d="m100.5 565v-214m599 0v214" stroke="#979797" stroke-dasharray="2"/><path d="m700 65v285h-600v-285zm-29.761273 30h-540v225h540z" fill="var(--illustration-accent)" fill-opacity=".5" opacity=".25"/><path d="m130.5 95.5h539v225h-539z" stroke="var(--illustration-accent)"/><path d="m101 66h598v284h-598z" stroke="var(--illustration-black)" stroke-width="2"/><g fill="var(--illustration-accent)" fill-rule="nonzero"><path d="m665 96.0166667v-1l4-.0006667v-27.033l-4 .0003333v-1h9v1l-4-.0003333v27.033l4 .0006667v1z"/><path d="m669.983333 100h-1v-9h1l-.000333 3.999h27.033l.000667-3.999h1v9h-1l-.000667-4.001h-27.033z"/><g transform="translate(633.023926 77.208008)"><path d="m1.640625 6.14257812c0 .44433594.23925781.70800782.64941406.70800782.41503906 0 .65429688-.25878906.65429688-.70800782v-5.23925781c0-.49316406-.31738282-.8203125-.79101563-.8203125-.2734375 0-.55175781.09765625-.90332031.33691407l-.87402344.61035156c-.24902343.16601562-.37597656.34667968-.37597656.55175781 0 .26855469.20019531.46875.46875.46875.14160156 0 .26367188-.04394531.47363281-.18066406l.66894531-.47363281h.02929688z"/><path d="m4.09667969 3.62304688c0 2.01171874.94238281 3.31054687 2.52441406 3.31054687s2.54882813-1.31347656 2.54882813-3.31054687v-.3125c0-2.01660157-.9375-3.31054688-2.52929688-3.31054688-1.58691406 0-2.54394531 1.30859375-2.54394531 3.31054688zm1.31835937-.30761719c0-1.40625.45898438-2.24121094 1.21582032-2.24121094.75683593 0 1.21582031.83984375 1.21582031 2.24121094v.29785156c0 1.40625-.45898438 2.24609375-1.21582031 2.24609375-.75683594 0-1.21582032-.83984375-1.21582032-2.24609375z"/><path d="m9.91210938 3.62304688c0 2.01171874.94238282 3.31054687 2.52441402 3.31054687 1.5820313 0 2.5488282-1.31347656 2.5488282-3.31054687v-.3125c0-2.01660157-.9375-3.31054688-2.5292969-3.31054688-1.5869141 0-2.54394532 1.30859375-2.54394532 3.31054688zm1.31835942-.30761719c0-1.40625.4589843-2.24121094 1.2158203-2.24121094.7568359 0 1.2158203.83984375 1.2158203 2.24121094v.29785156c0 1.40625-.4589844 2.24609375-1.2158203 2.24609375-.756836 0-1.2158203-.83984375-1.2158203-2.24609375z"/><path d="m17.2900391 7.92480469v-1.92382813h.0634765c.2294922.546875.7617188.859375 1.4697266.859375 1.2158203 0 1.9482422-.86914062 1.9482422-2.30957031v-.71777344c0-1.44042969-.7226563-2.3046875-1.928711-2.3046875-.727539 0-1.2988281.34667969-1.508789.90332031h-.0634766v-.24902343c-.0292969-.40039063-.2539062-.62011719-.6347656-.62011719-.4052734 0-.6298828.25390625-.6298828.71289062v5.64941407c0 .45410156.2294922.70800781.6396484.70800781.4150391 0 .6445313-.25390625.6445313-.70800781zm0-3.35449219v-.68847656c0-.83007813.415039-1.32324219 1.0888671-1.32324219.6884766 0 1.0791016.5078125 1.0791016 1.40136719v.46875c0 .88867187-.390625 1.40136718-1.0693359 1.40136718-.6591797 0-1.0986328-.49804687-1.0986328-1.25976562z"/><path d="m21.5380859 6.25c0 .33691406.2587891.59082031.5712891.59082031.2832031 0 .4589844-.12695312.6738281-.45410156l.9033203-1.38671875h.0634766l.9228516 1.39160156c.2050781.31738282.3955078.44921875.6835937.44921875.3125 0 .5712891-.25390625.5712891-.59570312 0-.17089844-.0634766-.32226563-.2001953-.46386719l-1.2646485-1.57714844 1.2988282-1.61621094c.102539-.11230468.15625-.26367187.15625-.41992187 0-.34179687-.2539063-.59082031-.5761719-.59082031-.2783203 0-.4541016.12695312-.6689453.44921875l-.9228516 1.38671875h-.0634766l-.9277343-1.38671875c-.209961-.32226563-.390625-.44921875-.6689453-.44921875-.3222657 0-.5859376.24902344-.5859376.5859375 0 .16113281.0683594.33203125.1708985.43945312l1.3037109 1.6015625-1.2841797 1.62109375c-.0976562.10742188-.15625.26855469-.15625.42480469z"/></g></g><g stroke="var(--illustration-black)" stroke-width="2"><path d="m176 381h118v118h-118z"/><path d="m341 261h118v118h-118z"/><path d="m506 141h118v118h-118z"/></g><path d="m507.5 200.5h115" stroke="var(--illustration-accent)" stroke-dasharray="2" stroke-linecap="square"/><path d="m177.5 440.5h116" stroke="var(--illustration-black)" stroke-dasharray="2" stroke-linecap="square"/><rect fill="var(--illustration-background)" height="11" rx="2" stroke="var(--illustration-accent)" width="14" x="558.5" y="134.5"/><g fill="var(--illustration-accent)" fill-rule="nonzero" transform="translate(561.733887 137.883789)"><path d="m0 2.21484375c0 1.20703125.56542969 1.98632813 1.51464844 1.98632813s1.52929687-.78808594 1.52929687-1.98632813v-.1875c0-1.20996094-.5625-1.98632812-1.51757812-1.98632812-.95214844 0-1.52636719.78515625-1.52636719 1.98632812zm.79101563-.18457031c0-.84375.27539062-1.34472656.72949218-1.34472656.45410157 0 .72949219.50390624.72949219 1.34472656v.17871094c0 .84375-.27539062 1.34765624-.72949219 1.34765624-.45410156 0-.72949218-.50390624-.72949218-1.34765624z"/><path d="m3.42773438 1.0546875c0 .5625.30761718.94335938.81738281.94335938.52734375 0 .83496093-.40429688.83496093-.94335938v-.11425781c0-.56542969-.3046875-.94042969-.8203125-.94042969s-.83203124.38085938-.83203124.94042969zm.48339843 2.74804688c-.05273437.0703125-.07617187.14355468-.0703125.20800781.00292969.08789062.07617188.1640625.15820313.18164062.09082031.04101563.20507812.03515625.29589844-.08496093l1.44140624-1.88085938 1.35644532-1.75195312c.04980468-.06445313.07617187-.12890625.07324218-.19335938-.00292968-.09667969-.0703125-.17578125-.1640625-.19628906-.09375-.04394531-.20507812-.03222656-.29296874.08789062l-1.359375 1.77832031zm.0703125-2.84765625c0-.33105469.10546875-.49804688.27246094-.49804688.1640625 0 .26953125.16699219.26953125.49804688v.08496093c0 .33105469-.10546875.50097656-.26953125.50097656-.16699219 0-.27246094-.16992187-.27246094-.50097656zm1.95996094 2.26464843c0 .5625.30761719.94628906.8203125.94628906.52441406 0 .83203125-.40722656.83203125-.94628906v-.11425781c0-.56542969-.30175781-.94042969-.81738281-.94042969s-.83496094.38085938-.83496094.94042969zm.55371094-.09960937c0-.33105469.10546875-.49804688.27246093-.49804688.16699219 0 .27246094.16992188.27246094.49804688v.08496093c0 .33105469-.10839844.50390626-.27246094.50390626s-.27246093-.17285157-.27246093-.50390626z"/></g><rect fill="var(--illustration-background)" height="11" rx="2" stroke="var(--illustration-accent)" width="14" x="393.5" y="254.5"/><g fill="var(--illustration-accent)" fill-rule="nonzero" transform="translate(396.733887 257.883789)"><path d="m0 2.21484375c0 1.20703125.56542969 1.98632813 1.51464844 1.98632813s1.52929687-.78808594 1.52929687-1.98632813v-.1875c0-1.20996094-.5625-1.98632812-1.51757812-1.98632812-.95214844 0-1.52636719.78515625-1.52636719 1.98632812zm.79101563-.18457031c0-.84375.27539062-1.34472656.72949218-1.34472656.45410157 0 .72949219.50390624.72949219 1.34472656v.17871094c0 .84375-.27539062 1.34765624-.72949219 1.34765624-.45410156 0-.72949218-.50390624-.72949218-1.34765624z"/><path d="m3.42773438 1.0546875c0 .5625.30761718.94335938.81738281.94335938.52734375 0 .83496093-.40429688.83496093-.94335938v-.11425781c0-.56542969-.3046875-.94042969-.8203125-.94042969s-.83203124.38085938-.83203124.94042969zm.48339843 2.74804688c-.05273437.0703125-.07617187.14355468-.0703125.20800781.00292969.08789062.07617188.1640625.15820313.18164062.09082031.04101563.20507812.03515625.29589844-.08496093l1.44140624-1.88085938 1.35644532-1.75195312c.04980468-.06445313.07617187-.12890625.07324218-.19335938-.00292968-.09667969-.0703125-.17578125-.1640625-.19628906-.09375-.04394531-.20507812-.03222656-.29296874.08789062l-1.359375 1.77832031zm.0703125-2.84765625c0-.33105469.10546875-.49804688.27246094-.49804688.1640625 0 .26953125.16699219.26953125.49804688v.08496093c0 .33105469-.10546875.50097656-.26953125.50097656-.16699219 0-.27246094-.16992187-.27246094-.50097656zm1.95996094 2.26464843c0 .5625.30761719.94628906.8203125.94628906.52441406 0 .83203125-.40722656.83203125-.94628906v-.11425781c0-.56542969-.30175781-.94042969-.81738281-.94042969s-.83496094.38085938-.83496094.94042969zm.55371094-.09960937c0-.33105469.10546875-.49804688.27246093-.49804688.16699219 0 .27246094.16992188.27246094.49804688v.08496093c0 .33105469-.10839844.50390626-.27246094.50390626s-.27246093-.17285157-.27246093-.50390626z"/></g><rect fill="var(--illustration-background)" height="11" rx="2" stroke="var(--illustration-black)" width="14" x="228.5" y="374.5"/><g fill="var(--illustration-black)" fill-rule="nonzero" transform="translate(231.733887 377.883789)"><path d="m0 2.21484375c0 1.20703125.56542969 1.98632813 1.51464844 1.98632813s1.52929687-.78808594 1.52929687-1.98632813v-.1875c0-1.20996094-.5625-1.98632812-1.51757812-1.98632812-.95214844 0-1.52636719.78515625-1.52636719 1.98632812zm.79101563-.18457031c0-.84375.27539062-1.34472656.72949218-1.34472656.45410157 0 .72949219.50390624.72949219 1.34472656v.17871094c0 .84375-.27539062 1.34765624-.72949219 1.34765624-.45410156 0-.72949218-.50390624-.72949218-1.34765624z"/><path d="m3.42773438 1.0546875c0 .5625.30761718.94335938.81738281.94335938.52734375 0 .83496093-.40429688.83496093-.94335938v-.11425781c0-.56542969-.3046875-.94042969-.8203125-.94042969s-.83203124.38085938-.83203124.94042969zm.48339843 2.74804688c-.05273437.0703125-.07617187.14355468-.0703125.20800781.00292969.08789062.07617188.1640625.15820313.18164062.09082031.04101563.20507812.03515625.29589844-.08496093l1.44140624-1.88085938 1.35644532-1.75195312c.04980468-.06445313.07617187-.12890625.07324218-.19335938-.00292968-.09667969-.0703125-.17578125-.1640625-.19628906-.09375-.04394531-.20507812-.03222656-.29296874.08789062l-1.359375 1.77832031zm.0703125-2.84765625c0-.33105469.10546875-.49804688.27246094-.49804688.1640625 0 .26953125.16699219.26953125.49804688v.08496093c0 .33105469-.10546875.50097656-.26953125.50097656-.16699219 0-.27246094-.16992187-.27246094-.50097656zm1.95996094 2.26464843c0 .5625.30761719.94628906.8203125.94628906.52441406 0 .83203125-.40722656.83203125-.94628906v-.11425781c0-.56542969-.30175781-.94042969-.81738281-.94042969s-.83496094.38085938-.83496094.94042969zm.55371094-.09960937c0-.33105469.10546875-.49804688.27246093-.49804688.16699219 0 .27246094.16992188.27246094.49804688v.08496093c0 .33105469-.10839844.50390626-.27246094.50390626s-.27246093-.17285157-.27246093-.50390626z"/></g><rect fill="var(--illustration-background)" height="11" rx="2" stroke="var(--illustration-accent)" width="18" x="556.5" y="195.5"/><g fill="var(--illustration-accent)" fill-rule="nonzero" transform="translate(559.618164 198.883789)"><path d="m0 3.3046875c0 .44824219.5625.89648438 1.35644531.89648438.90820313 0 1.52050781-.57128907 1.52050781-1.42382813 0-.7734375-.52441406-1.30078125-1.28613281-1.30078125-.34277343 0-.66796875.12890625-.80566406.31640625h-.04101562l.08203125-1.03417969h1.51464843c.23730469 0 .37207031-.11425781.37207031-.31933593 0-.20507813-.13769531-.32519532-.37207031-.32519532h-1.65820312c-.32226563 0-.48925781.13476563-.50976563.41308594l-.10839843 1.50585937c-.01757813.26953126.14648437.44238282.38671875.44238282.10839843 0 .19335937-.03515625.36621093-.18164063.17285157-.13476562.37207031-.20800781.56835938-.20800781.421875 0 .72363281.29296875.72363281.72070312 0 .44238282-.31347656.75-.75585938.75-.29882812 0-.53320312-.13769531-.71777343-.41308593-.09667969-.13769531-.19042969-.19042969-.31347656-.19042969-.19628907 0-.32226563.15527344-.32226563.3515625z"/><path d="m3.38671875 2.21484375c0 1.20703125.56542969 1.98632813 1.51464844 1.98632813s1.52929687-.78808594 1.52929687-1.98632813v-.1875c0-1.20996094-.5625-1.98632812-1.51757812-1.98632812-.95214844 0-1.52636719.78515625-1.52636719 1.98632812zm.79101563-.18457031c0-.84375.27539062-1.34472656.72949218-1.34472656s.72949219.50390624.72949219 1.34472656v.17871094c0 .84375-.27539063 1.34765624-.72949219 1.34765624s-.72949218-.50390624-.72949218-1.34765624z"/><path d="m6.81445312 1.0546875c0 .5625.30761719.94335938.81738282.94335938.52734375 0 .83496094-.40429688.83496094-.94335938v-.11425781c0-.56542969-.3046875-.94042969-.8203125-.94042969s-.83203126.38085938-.83203126.94042969zm.48339844 2.74804688c-.05273437.0703125-.07617187.14355468-.0703125.20800781.00292969.08789062.07617188.1640625.15820313.18164062.09082031.04101563.20507812.03515625.29589843-.08496093l1.44140626-1.88085938 1.35644532-1.75195312c.0498047-.06445313.0761719-.12890625.0732422-.19335938-.0029297-.09667969-.0703125-.17578125-.1640625-.19628906-.09375-.04394531-.2050781-.03222656-.2929688.08789062l-1.35937498 1.77832031zm.0703125-2.84765625c0-.33105469.10546875-.49804688.27246094-.49804688.1640625 0 .26953125.16699219.26953125.49804688v.08496093c0 .33105469-.10546875.50097656-.26953125.50097656-.16699219 0-.27246094-.16992187-.27246094-.50097656zm1.95996094 2.26464843c0 .5625.30761719.94628906.8203125.94628906.5244141 0 .8320313-.40722656.8320313-.94628906v-.11425781c0-.56542969-.3017579-.94042969-.8173829-.94042969-.51562496 0-.8349609.38085938-.8349609.94042969zm.55371094-.09960937c0-.33105469.10546875-.49804688.27246096-.49804688.1669922 0 .2724609.16992188.2724609.49804688v.08496093c0 .33105469-.1083984.50390626-.2724609.50390626-.16406252 0-.27246096-.17285157-.27246096-.50390626z"/></g><rect fill="var(--illustration-background)" height="11" rx="2" stroke="var(--illustration-accent)" width="18" x="391.5" y="315.5"/><g fill="var(--illustration-accent)" fill-rule="nonzero" transform="translate(394.618164 318.883789)"><path d="m0 3.3046875c0 .44824219.5625.89648438 1.35644531.89648438.90820313 0 1.52050781-.57128907 1.52050781-1.42382813 0-.7734375-.52441406-1.30078125-1.28613281-1.30078125-.34277343 0-.66796875.12890625-.80566406.31640625h-.04101562l.08203125-1.03417969h1.51464843c.23730469 0 .37207031-.11425781.37207031-.31933593 0-.20507813-.13769531-.32519532-.37207031-.32519532h-1.65820312c-.32226563 0-.48925781.13476563-.50976563.41308594l-.10839843 1.50585937c-.01757813.26953126.14648437.44238282.38671875.44238282.10839843 0 .19335937-.03515625.36621093-.18164063.17285157-.13476562.37207031-.20800781.56835938-.20800781.421875 0 .72363281.29296875.72363281.72070312 0 .44238282-.31347656.75-.75585938.75-.29882812 0-.53320312-.13769531-.71777343-.41308593-.09667969-.13769531-.19042969-.19042969-.31347656-.19042969-.19628907 0-.32226563.15527344-.32226563.3515625z"/><path d="m3.38671875 2.21484375c0 1.20703125.56542969 1.98632813 1.51464844 1.98632813s1.52929687-.78808594 1.52929687-1.98632813v-.1875c0-1.20996094-.5625-1.98632812-1.51757812-1.98632812-.95214844 0-1.52636719.78515625-1.52636719 1.98632812zm.79101563-.18457031c0-.84375.27539062-1.34472656.72949218-1.34472656s.72949219.50390624.72949219 1.34472656v.17871094c0 .84375-.27539063 1.34765624-.72949219 1.34765624s-.72949218-.50390624-.72949218-1.34765624z"/><path d="m6.81445312 1.0546875c0 .5625.30761719.94335938.81738282.94335938.52734375 0 .83496094-.40429688.83496094-.94335938v-.11425781c0-.56542969-.3046875-.94042969-.8203125-.94042969s-.83203126.38085938-.83203126.94042969zm.48339844 2.74804688c-.05273437.0703125-.07617187.14355468-.0703125.20800781.00292969.08789062.07617188.1640625.15820313.18164062.09082031.04101563.20507812.03515625.29589843-.08496093l1.44140626-1.88085938 1.35644532-1.75195312c.0498047-.06445313.0761719-.12890625.0732422-.19335938-.0029297-.09667969-.0703125-.17578125-.1640625-.19628906-.09375-.04394531-.2050781-.03222656-.2929688.08789062l-1.35937498 1.77832031zm.0703125-2.84765625c0-.33105469.10546875-.49804688.27246094-.49804688.1640625 0 .26953125.16699219.26953125.49804688v.08496093c0 .33105469-.10546875.50097656-.26953125.50097656-.16699219 0-.27246094-.16992187-.27246094-.50097656zm1.95996094 2.26464843c0 .5625.30761719.94628906.8203125.94628906.5244141 0 .8320313-.40722656.8320313-.94628906v-.11425781c0-.56542969-.3017579-.94042969-.8173829-.94042969-.51562496 0-.8349609.38085938-.8349609.94042969zm.55371094-.09960937c0-.33105469.10546875-.49804688.27246096-.49804688.1669922 0 .2724609.16992188.2724609.49804688v.08496093c0 .33105469-.1083984.50390626-.2724609.50390626-.16406252 0-.27246096-.17285157-.27246096-.50390626z"/></g><rect fill="var(--illustration-background)" height="11" rx="2" stroke="var(--illustration-black)" width="18" x="226.5" y="435.5"/><g fill="var(--illustration-black)" fill-rule="nonzero" transform="translate(229.618164 438.883789)"><path d="m0 3.3046875c0 .44824219.5625.89648438 1.35644531.89648438.90820313 0 1.52050781-.57128907 1.52050781-1.42382813 0-.7734375-.52441406-1.30078125-1.28613281-1.30078125-.34277343 0-.66796875.12890625-.80566406.31640625h-.04101562l.08203125-1.03417969h1.51464843c.23730469 0 .37207031-.11425781.37207031-.31933593 0-.20507813-.13769531-.32519532-.37207031-.32519532h-1.65820312c-.32226563 0-.48925781.13476563-.50976563.41308594l-.10839843 1.50585937c-.01757813.26953126.14648437.44238282.38671875.44238282.10839843 0 .19335937-.03515625.36621093-.18164063.17285157-.13476562.37207031-.20800781.56835938-.20800781.421875 0 .72363281.29296875.72363281.72070312 0 .44238282-.31347656.75-.75585938.75-.29882812 0-.53320312-.13769531-.71777343-.41308593-.09667969-.13769531-.19042969-.19042969-.31347656-.19042969-.19628907 0-.32226563.15527344-.32226563.3515625z"/><path d="m3.38671875 2.21484375c0 1.20703125.56542969 1.98632813 1.51464844 1.98632813s1.52929687-.78808594 1.52929687-1.98632813v-.1875c0-1.20996094-.5625-1.98632812-1.51757812-1.98632812-.95214844 0-1.52636719.78515625-1.52636719 1.98632812zm.79101563-.18457031c0-.84375.27539062-1.34472656.72949218-1.34472656s.72949219.50390624.72949219 1.34472656v.17871094c0 .84375-.27539063 1.34765624-.72949219 1.34765624s-.72949218-.50390624-.72949218-1.34765624z"/><path d="m6.81445312 1.0546875c0 .5625.30761719.94335938.81738282.94335938.52734375 0 .83496094-.40429688.83496094-.94335938v-.11425781c0-.56542969-.3046875-.94042969-.8203125-.94042969s-.83203126.38085938-.83203126.94042969zm.48339844 2.74804688c-.05273437.0703125-.07617187.14355468-.0703125.20800781.00292969.08789062.07617188.1640625.15820313.18164062.09082031.04101563.20507812.03515625.29589843-.08496093l1.44140626-1.88085938 1.35644532-1.75195312c.0498047-.06445313.0761719-.12890625.0732422-.19335938-.0029297-.09667969-.0703125-.17578125-.1640625-.19628906-.09375-.04394531-.2050781-.03222656-.2929688.08789062l-1.35937498 1.77832031zm.0703125-2.84765625c0-.33105469.10546875-.49804688.27246094-.49804688.1640625 0 .26953125.16699219.26953125.49804688v.08496093c0 .33105469-.10546875.50097656-.26953125.50097656-.16699219 0-.27246094-.16992187-.27246094-.50097656zm1.95996094 2.26464843c0 .5625.30761719.94628906.8203125.94628906.5244141 0 .8320313-.40722656.8320313-.94628906v-.11425781c0-.56542969-.3017579-.94042969-.8173829-.94042969-.51562496 0-.8349609.38085938-.8349609.94042969zm.55371094-.09960937c0-.33105469.10546875-.49804688.27246096-.49804688.1669922 0 .2724609.16992188.2724609.49804688v.08496093c0 .33105469-.1083984.50390626-.2724609.50390626-.16406252 0-.27246096-.17285157-.27246096-.50390626z"/></g><rect fill="var(--illustration-background)" height="11" rx="2" stroke="var(--illustration-accent)" width="20" x="555.5" y="254.5"/><g fill="var(--illustration-accent)" fill-rule="nonzero" transform="translate(558.261719 257.883789)"><path d="m.984375 3.7265625c0 .26660156.14355469.42480469.38964844.42480469.24902344 0 .39257812-.15527344.39257812-.42480469v-3.14355469c0-.29589843-.19042968-.4921875-.47460937-.4921875-.1640625 0-.33105469.05859375-.54199219.20214844l-.52441406.36621094c-.14941406.09960937-.22558594.20800781-.22558594.33105469 0 .16113281.12011719.28125.28125.28125.08496094 0 .15820313-.02636719.28417969-.10839844l.40136719-.28417969h.01757812z"/><path d="m2.45800781 2.21484375c0 1.20703125.56542969 1.98632813 1.51464844 1.98632813s1.52929687-.78808594 1.52929687-1.98632813v-.1875c0-1.20996094-.5625-1.98632812-1.51757812-1.98632812-.95214844 0-1.52636719.78515625-1.52636719 1.98632812zm.79101563-.18457031c0-.84375.27539062-1.34472656.72949218-1.34472656.45410157 0 .72949219.50390624.72949219 1.34472656v.17871094c0 .84375-.27539062 1.34765624-.72949219 1.34765624-.45410156 0-.72949218-.50390624-.72949218-1.34765624z"/><path d="m5.94726562 2.21484375c0 1.20703125.56542969 1.98632813 1.51464844 1.98632813s1.52929688-.78808594 1.52929688-1.98632813v-.1875c0-1.20996094-.5625-1.98632812-1.51757813-1.98632812-.95214843 0-1.52636719.78515625-1.52636719 1.98632812zm.79101563-.18457031c0-.84375.27539063-1.34472656.72949219-1.34472656s.72949218.50390624.72949218 1.34472656v.17871094c0 .84375-.27539062 1.34765624-.72949218 1.34765624s-.72949219-.50390624-.72949219-1.34765624z"/><path d="m9.375 1.0546875c0 .5625.30761719.94335938.8173828.94335938.5273438 0 .834961-.40429688.834961-.94335938v-.11425781c0-.56542969-.3046876-.94042969-.8203126-.94042969-.51562495 0-.8320312.38085938-.8320312.94042969zm.48339844 2.74804688c-.05273438.0703125-.07617188.14355468-.0703125.20800781.00292968.08789062.07617187.1640625.15820312.18164062.09082034.04101563.20507814.03515625.29589844-.08496093l1.4414063-1.88085938 1.3564453-1.75195312c.0498047-.06445313.0761718-.12890625.0732421-.19335938-.0029296-.09667969-.0703124-.17578125-.1640624-.19628906-.09375-.04394531-.2050782-.03222656-.2929688.08789062l-1.359375 1.77832031zm.0703125-2.84765625c0-.33105469.10546876-.49804688.27246096-.49804688.1640625 0 .2695312.16699219.2695312.49804688v.08496093c0 .33105469-.1054687.50097656-.2695312.50097656-.1669922 0-.27246096-.16992187-.27246096-.50097656zm1.95996096 2.26464843c0 .5625.3076172.94628906.8203125.94628906.524414 0 .8320312-.40722656.8320312-.94628906v-.11425781c0-.56542969-.3017578-.94042969-.8173828-.94042969s-.8349609.38085938-.8349609.94042969zm.5537109-.09960937c0-.33105469.1054688-.49804688.272461-.49804688.1669921 0 .2724609.16992188.2724609.49804688v.08496093c0 .33105469-.1083985.50390626-.2724609.50390626-.1640626 0-.272461-.17285157-.272461-.50390626z"/></g><rect fill="var(--illustration-background)" height="11" rx="2" stroke="var(--illustration-black)" width="20" x="390.5" y="374.5"/><g fill="var(--illustration-black)" fill-rule="nonzero" transform="translate(393.261719 377.883789)"><path d="m.984375 3.7265625c0 .26660156.14355469.42480469.38964844.42480469.24902344 0 .39257812-.15527344.39257812-.42480469v-3.14355469c0-.29589843-.19042968-.4921875-.47460937-.4921875-.1640625 0-.33105469.05859375-.54199219.20214844l-.52441406.36621094c-.14941406.09960937-.22558594.20800781-.22558594.33105469 0 .16113281.12011719.28125.28125.28125.08496094 0 .15820313-.02636719.28417969-.10839844l.40136719-.28417969h.01757812z"/><path d="m2.45800781 2.21484375c0 1.20703125.56542969 1.98632813 1.51464844 1.98632813s1.52929687-.78808594 1.52929687-1.98632813v-.1875c0-1.20996094-.5625-1.98632812-1.51757812-1.98632812-.95214844 0-1.52636719.78515625-1.52636719 1.98632812zm.79101563-.18457031c0-.84375.27539062-1.34472656.72949218-1.34472656.45410157 0 .72949219.50390624.72949219 1.34472656v.17871094c0 .84375-.27539062 1.34765624-.72949219 1.34765624-.45410156 0-.72949218-.50390624-.72949218-1.34765624z"/><path d="m5.94726562 2.21484375c0 1.20703125.56542969 1.98632813 1.51464844 1.98632813s1.52929688-.78808594 1.52929688-1.98632813v-.1875c0-1.20996094-.5625-1.98632812-1.51757813-1.98632812-.95214843 0-1.52636719.78515625-1.52636719 1.98632812zm.79101563-.18457031c0-.84375.27539063-1.34472656.72949219-1.34472656s.72949218.50390624.72949218 1.34472656v.17871094c0 .84375-.27539062 1.34765624-.72949218 1.34765624s-.72949219-.50390624-.72949219-1.34765624z"/><path d="m9.375 1.0546875c0 .5625.30761719.94335938.8173828.94335938.5273438 0 .834961-.40429688.834961-.94335938v-.11425781c0-.56542969-.3046876-.94042969-.8203126-.94042969-.51562495 0-.8320312.38085938-.8320312.94042969zm.48339844 2.74804688c-.05273438.0703125-.07617188.14355468-.0703125.20800781.00292968.08789062.07617187.1640625.15820312.18164062.09082034.04101563.20507814.03515625.29589844-.08496093l1.4414063-1.88085938 1.3564453-1.75195312c.0498047-.06445313.0761718-.12890625.0732421-.19335938-.0029296-.09667969-.0703124-.17578125-.1640624-.19628906-.09375-.04394531-.2050782-.03222656-.2929688.08789062l-1.359375 1.77832031zm.0703125-2.84765625c0-.33105469.10546876-.49804688.27246096-.49804688.1640625 0 .2695312.16699219.2695312.49804688v.08496093c0 .33105469-.1054687.50097656-.2695312.50097656-.1669922 0-.27246096-.16992187-.27246096-.50097656zm1.95996096 2.26464843c0 .5625.3076172.94628906.8203125.94628906.524414 0 .8320312-.40722656.8320312-.94628906v-.11425781c0-.56542969-.3017578-.94042969-.8173828-.94042969s-.8349609.38085938-.8349609.94042969zm.5537109-.09960937c0-.33105469.1054688-.49804688.272461-.49804688.1669921 0 .2724609.16992188.2724609.49804688v.08496093c0 .33105469-.1083985.50390626-.2724609.50390626-.1640626 0-.272461-.17285157-.272461-.50390626z"/></g><rect fill="var(--illustration-background)" height="11" rx="2" stroke="var(--illustration-black)" width="20" x="225.5" y="494.5"/><g fill="var(--illustration-black)" fill-rule="nonzero" transform="translate(228.261719 497.883789)"><path d="m.984375 3.7265625c0 .26660156.14355469.42480469.38964844.42480469.24902344 0 .39257812-.15527344.39257812-.42480469v-3.14355469c0-.29589843-.19042968-.4921875-.47460937-.4921875-.1640625 0-.33105469.05859375-.54199219.20214844l-.52441406.36621094c-.14941406.09960937-.22558594.20800781-.22558594.33105469 0 .16113281.12011719.28125.28125.28125.08496094 0 .15820313-.02636719.28417969-.10839844l.40136719-.28417969h.01757812z"/><path d="m2.45800781 2.21484375c0 1.20703125.56542969 1.98632813 1.51464844 1.98632813s1.52929687-.78808594 1.52929687-1.98632813v-.1875c0-1.20996094-.5625-1.98632812-1.51757812-1.98632812-.95214844 0-1.52636719.78515625-1.52636719 1.98632812zm.79101563-.18457031c0-.84375.27539062-1.34472656.72949218-1.34472656.45410157 0 .72949219.50390624.72949219 1.34472656v.17871094c0 .84375-.27539062 1.34765624-.72949219 1.34765624-.45410156 0-.72949218-.50390624-.72949218-1.34765624z"/><path d="m5.94726562 2.21484375c0 1.20703125.56542969 1.98632813 1.51464844 1.98632813s1.52929688-.78808594 1.52929688-1.98632813v-.1875c0-1.20996094-.5625-1.98632812-1.51757813-1.98632812-.95214843 0-1.52636719.78515625-1.52636719 1.98632812zm.79101563-.18457031c0-.84375.27539063-1.34472656.72949219-1.34472656s.72949218.50390624.72949218 1.34472656v.17871094c0 .84375-.27539062 1.34765624-.72949218 1.34765624s-.72949219-.50390624-.72949219-1.34765624z"/><path d="m9.375 1.0546875c0 .5625.30761719.94335938.8173828.94335938.5273438 0 .834961-.40429688.834961-.94335938v-.11425781c0-.56542969-.3046876-.94042969-.8203126-.94042969-.51562495 0-.8320312.38085938-.8320312.94042969zm.48339844 2.74804688c-.05273438.0703125-.07617188.14355468-.0703125.20800781.00292968.08789062.07617187.1640625.15820312.18164062.09082034.04101563.20507814.03515625.29589844-.08496093l1.4414063-1.88085938 1.3564453-1.75195312c.0498047-.06445313.0761718-.12890625.0732421-.19335938-.0029296-.09667969-.0703124-.17578125-.1640624-.19628906-.09375-.04394531-.2050782-.03222656-.2929688.08789062l-1.359375 1.77832031zm.0703125-2.84765625c0-.33105469.10546876-.49804688.27246096-.49804688.1640625 0 .2695312.16699219.2695312.49804688v.08496093c0 .33105469-.1054687.50097656-.2695312.50097656-.1669922 0-.27246096-.16992187-.27246096-.50097656zm1.95996096 2.26464843c0 .5625.3076172.94628906.8203125.94628906.524414 0 .8320312-.40722656.8320312-.94628906v-.11425781c0-.56542969-.3017578-.94042969-.8173828-.94042969s-.8349609.38085938-.8349609.94042969zm.5537109-.09960937c0-.33105469.1054688-.49804688.272461-.49804688.1669921 0 .2724609.16992188.2724609.49804688v.08496093c0 .33105469-.1083985.50390626-.2724609.50390626-.1640626 0-.272461-.17285157-.272461-.50390626z"/></g></g></svg>