<svg height="31" viewBox="0 0 31 31" width="31" xmlns="http://www.w3.org/2000/svg">
    <path d="m229.629072 75.014497c-.109322 0-.284237.0437289-.459153.0874577-.218644.0655933-.371695.1749154-.481017.3716952-.240509.3935596-.284237.7871192-.19678 1.2244077.240509 1.0494923 1.202544 1.4649163 1.902205 1.399323.59034-.0655932 1.093221-.4591528 1.202543-1.0276278s-.065593-1.0494923-.459153-1.4430519c-.15305-.1311866-.34983-.2186443-.502881-.3716952-.021865-.0218644-.087458-.0437289-.109322-.0655933-.262373-.1093221-.546611-.1749154-.896442-.1749154zm8.680176 11.2383133c.021865.6559327.306102 1.0713567.787119 1.3774586.502882.3061019 1.33373.3279664 1.858476-.415424.39356-.5903394.284238-1.4867808-.284237-2.0115269-.043729-.0437288-.109322-.0655933-.174916-.0655933-.087457-.0218644-.153051-.0655932-.196779-.1311865-.065594-.1093221-.153051-.153051-.262373-.1967798-.327967-.1093221-.655933-.0874577-.940171.0874577-.524746.3498307-.765254.830848-.787119 1.3555942zm-13.359162-3.9137317c.065593-.1093221.131186-.1967798.19678-.2842375.065593-.1530509.174915-.2842375.240508-.4372884.153051-.3935596.19678-.8089837.021865-1.2244077-.043729-.1311865-.109322-.2623731-.262373-.3061019-.043729-.0218644-.065594-.0655933-.109322-.0874577-.043729-.0218644-.087458-.0655933-.131187-.0874577-.131187-.0437288-.240509-.0874577-.349831-.0874577-.415424-.0437288-.808983-.0437288-1.202543.0437289-.262373.0655932-.481017.1749153-.677797.3716952-.174915.1311865-.240509.3061019-.262373.5247461 0 .0874577 0 .1967798.021864.2842375.065594.3935596.262373.7215259.568475.9620346.415424.3279663.874577.4591529 1.399323.3935596.174916 0 .349831-.0437288.546611-.0655933zm4.219833-9.1174642c-.021864-.7652548-.393559-1.3337298-1.049492-1.6835606-.54661-.262373-1.005763 0-1.246272.3935596-.174915.2842375-.174915.6122039-.087458.9183058.19678.6559327.634069 1.0713567 1.268137 1.2900009.153051.0437289.306102.0437289.459153.0218645.284237-.0437289.459153-.1967799.568475-.4591529.065593-.153051.087457-.3061019.087457-.4810173zm-10.210685-6.0783095c0 .568475.19678 1.0713567.634068 1.4430519.284238.2405086.612204.3061019.94017.262373.39356-.0218644.634069-.2186442.743391-.6122038.065593-.2623731.065593-.5247461-.021865-.7871192-.087457-.3061019-.262373-.6122038-.54661-.8089836-.087458-.0655933-.153051-.1311866-.218644-.1967798-.109322-.0874577-.218645-.153051-.349831-.1749154-.065593-.0218645-.131187-.0655933-.19678-.0655933-.065593-.0218644-.131186-.0437288-.174915-.0437288-.240509 0-.437289.0655932-.568475.2405086-.131187.1749154-.240509.3716952-.240509.6122038zm1.093221 11.4788219c.087458 0 .19678-.0437289.349831-.0437289.634068-.0655932 1.093221-.6996615 1.13695-1.1806788 0-.0437288 0-.1093221 0-.153051-.087458-.3498307-.327966-.5684749-.634068-.7433903-.655933-.1967798-1.246272-.0874577-1.749154.3716952-.306102.262373-.437289.6122038-.306102 1.0276278.087458.2186443.218644.3716952.415424.5028817.218644.153051.459153.1967799.787119.2186443zm23.810356-6.2532249c0-.153051 0-.2623731 0-.415424 0-.0655933-.021864-.153051-.043728-.2186443 0-.0437288 0-.0874577-.043729-.1093221-.087458-.0874577-.19678-.1311865-.327967-.1311865-.153051 0-.306101.0437288-.459152.1311865-.109323.0655933-.19678.1311866-.262374.2186442-.34983.3716952-.612203.7871193-.787119 1.2681366-.087457.2405086-.131186.4810173-.131186.7215259 0 .1967798.065593.3498308.174915.5028817.065593.1093221.174916.1749154.284238.1967798h.240508c.262373 0 .524746-.1530509.721526-.3279663.284238-.2623731.437289-.5903394.524746-.983899.065594-.2842375.065594-.568475.109322-.8527125zm-19.022047-3.826274c.021864-.1530509-.021865-.3716952-.087458-.568475-.065593-.262373-.19678-.5028817-.459153-.6559326-.153051-.1093222-.327966-.153051-.524746-.0874577-.109322.0437288-.218644.0874577-.306102.1530509-.327966.2186443-.524746.5028817-.612204.8745769-.174915.6122039.153051 1.3118654.721526 1.5961029.153051.0874577.327967.1311865.524746.1311865.19678 0 .349831-.1093221.459153-.262373.043729-.0437289.087458-.1311866.131187-.1967799.109322-.3061019.174915-.5903394.153051-.983899zm10.145092-2.536273c-.021865-.2623731-.021865-.568475-.349831-.6996615-.087458-.1311866-.240509-.1749154-.393559-.1749154-.371696-.0218644-.743391.0437288-1.071357.1967798-.065593.0437288-.131187.0655933-.174916.1093221-.284237.1967798-.415424.4591529-.437288.7652548-.043729.3716952.131186.6340683.437288.7871192.306102.1967798.655933.2842375 1.027628.3061019.306102.0218645.524746-.1093221.677797-.3498307.043729-.0437289.065594-.0874577.109322-.1311866.109323-.2405086.153051-.5247461.174916-.8089836zm-2.405087 3.8700028h.131187.087458c.34983-.0655933.54661-.2623731.634068-.6122038.065593-.4154241-.131187-.9183058-.459153-1.1588144-.043729-.0437289-.109322-.0655933-.153051-.0874577-.284237-.2623731-.612204-.3279664-.962035-.3061019-.502881.0437288-.721526.4372884-.699661.7871192 0 .1749154.043729.3279663.109322.4810173.218644.5903394.808984.9183057 1.311865.8964413zm-8.50526 3.1266125c-.612204-.0218645-.896441.3935596-.918306.8089836 0 .4810173.153051.8964413.481018 1.2462721.15305.1530509.34983.2623731.54661.3061019.240509.0655933.459153.0437288.634068-.153051.349831-.3716951.459153-.8089836.349831-1.2900009-.043729-.2623731-.153051-.4810173-.415424-.6122038-.021864 0-.043729-.0218645-.043729-.0437289-.19678-.1967798-.437288-.2405086-.634068-.262373zm5.09441 11.3694997c.459153 0 .940171-.3935596 1.071357-.8745769.043729-.1967798.043729-.3935596-.043729-.5903394-.065593-.1967798-.153051-.3716952-.371695-.4591529-.043729-.0218644-.043729-.0437288-.087458-.0655932-.087457-.0874577-.196779-.1311866-.327966-.153051-.153051-.0437288-.349831-.0218644-.502882.0218644-.524746.1311866-.874577.6559327-.808983 1.2025433.065593.568475.612204.9183057 1.071356.9183057zm-4.263562-21.623914c.284238.0218644.502882-.1749154.634068-.415424.240509-.4372885.19678-.8745769-.065593-1.2681365-.043729-.0655933-.087458-.1311866-.131187-.153051-.15305-.1093221-.284237-.1967798-.437288-.2842375-.19678-.1093221-.415424-.1093221-.612204-.0655932-.459153.0874576-.721526.4591528-.677797.9183057.021865.4372885.218644.7433904.546611 1.0057634.196779.153051.437288.2623731.74339.2623731zm-.765255-1.3118653c.043729 0 .087458.0218644.087458.0655932.043729.0655933.021864.153051-.043729.1967798-.043729.0437289-.153051.0437289-.174915 0-.043729-.0437288-.043729-.1311865 0-.1749153.021864-.0218645.087457-.0655933.131186-.0874577zm15.020859 8.9206844c.196779 0 .393559-.0655933.590339-.1749154.284238-.1967798.437288-.4372884.437288-.7652548 0-.262373-.109322-.5028817-.262373-.6996615-.043728-.0655933-.109322-.1093221-.196779-.1749154-.043729-.0218644-.087458-.0655932-.131187-.0874577-.043729-.0218644-.109322-.0655932-.153051-.0874577-.371695-.1311865-.74339-.0874576-1.071357.1311866-.306102.2405086-.437288.4810173-.327966.9401702.021864.0437288.021864.1093221.043729.1530509.153051.4591529.590339.7652548 1.071357.7652548zm-13.84018 12.2878055c-.087458.2186443-.153051.3935597-.218644.5903395-.043729.0655932-.043729.1093221-.065593.1749153-.131187.5466106-.021865 1.0276279.306101 1.4430519.131187.1749154.327967.306102.546611.3498308.481017.0655933.896441-.2623731.962035-.7215259.043728-.4372885-.087458-.8089837-.349831-1.13695-.19678-.2186443-.437289-.3716952-.655933-.4810173-.153051-.0874577-.327966-.1311866-.524746-.2186443zm6.450005-11.4788219c0-.2842374-.131187-.5466105-.415424-.7433903-.327967-.2405087-.677797-.2842375-1.049493-.1093221-.34983.1530509-.524746.4591528-.524746.830848-.021864.5247462.349831.9401702.852713 1.0276279.590339.1093221 1.13695-.3498308 1.13695-1.0057635zm-.240509-6.8216998c.043729 0 .065593 0 .065593-.0218644.568475-.2186443.765255-.8089837.721526-1.290001-.065593-.4810173-.306102-.8527125-.721526-1.0713567-.284237-.153051-.568475-.1311865-.787119.1749154-.021864.0437288-.043729.1093221-.087458.1530509-.109322.2186443-.109322.4591529-.065593.6996616.065593.568475.284238 1.0932211.874577 1.3555942zm-1.486781 3.8918672c0-.0655933 0-.1749154-.021864-.2623731-.043729-.1311865-.087458-.262373-.19678-.3716951-.306102-.2623731-.634068-.306102-1.005763-.153051-.524746.2186442-.808984.8308481-.59034 1.399323.131187.3716952.459153.5903395.874577.5247462.546611-.0655933.896442-.4810173.94017-1.13695zm8.35221 4.810173c0 .153051.021864.3061019.087457.4372884.087458.2405087.284238.3498308.546611.3716952.131187.0218645.240509 0 .371695-.0655932.415424-.1749154.721526-.4810173.874577-.8964414.065593-.1530509.065593-.3279663.065593-.4810173-.021864-.1530509-.087457-.2842375-.196779-.3935596-.262373-.2186442-.568475-.2186442-.896442-.1749154-.087457.0437289-.153051.0655933-.240508.153051-.109322.1093221-.240509.2186442-.349831.3498308-.065593.0655932-.131187.1311865-.153051.2186442-.087458.153051-.131187.3279663-.109322.4810173zm-2.689324 9.5766171c-.021865-.262373-.065593-.568475-.39356-.7215259-.109322-.1093221-.262373-.153051-.437288-.1311866-.502882 0-.94017.3935596-1.005764.8964414-.043729.3061019.021865.6340682.262373.8527125.502882.5028817 1.13695.3061019 1.399323-.1749154.109323-.1967798.174916-.4372885.174916-.721526zm-3.979325-8.2866162c.481017 0 .918306-.3061019 1.071357-.7433903.065593-.1967798.065593-.3716952.021864-.5466106-.087458-.2623731-.39356-.5247461-.655933-.5247461-.087457 0-.153051.0218644-.218644.0437288-.043729 0-.087458.0218644-.109322.0218644-.131187-.0437288-.240509.0218644-.349831.1093221-.021864.0218645-.043729.0218645-.065593.0218645-.306102.1311865-.481017.3716951-.546611.6777971-.065593.2186442 0 .415424.131187.5684749.19678.2405087.437288.3716952.721526.3716952zm6.23136 4.0886471c.065594 0 .153051 0 .218645-.0218645.284237-.0437288.502881-.1749153.699661-.415424.218644-.2842375.174915-.6996615-.109322-.9183057-.19678-.153051-.371695-.2842375-.634068-.3279664-.218644-.0437288-.459153-.0437288-.699662.0437289-.481017.1967798-.655932.7215259-.349831 1.1806788.19678.3061019.502882.4372884.874577.4591529zm-6.296953 10.03577c.284237 0 .590339-.153051.808983-.3935596.153051-.1967798.240509-.3935596.240509-.6340683 0-.1967798-.065593-.3498308-.262373-.4591529-.043729 0-.087458-.0437288-.131187-.0874577-.065593-.0655932-.153051-.0874576-.240508-.1093221-.371696-.0874577-.699662 0-1.005764.1967798-.19678.153051-.306102.3498308-.393559.568475-.043729.1093221-.043729.2405087 0 .3498308.065593.1749154.174915.2842375.327966.3935596.174915.1093221.371695.1749154.655933.1749154zm-3.498308-28.707987c0-.2623731-.043729-.4810173-.19678-.6340682-.109322-.1311866-.240508-.2186443-.371695-.2842375-.284237-.153051-.634068-.0874577-.852712.1530509-.284238.2842375-.327967.6340683-.218645 1.0276279.131187.3935596.39356.6559327.808984.7433904.109322.0218644.218644.0218644.327966-.0437289.19678-.1093221.415424-.2623731.415424-.5466106.021865-.0655932.043729-.1311865.065594-.1967798.021864-.0874576.021864-.1749153.021864-.2186442zm7.783734 12.7688229c0 .3061019.065594.5247461.218645.7215259.240508.2623731.590339.3498308.918305.1967798.327967-.153051.546611-.4591529.59034-.8089836.021864-.3716952-.021865-.721526-.39356-.8964414-.021864 0-.021864-.0218644-.043729-.0218644-.218644-.2186442-.481017-.1967798-.74339-.0655933-.39356.1749154-.546611.5247462-.546611.874577zm-14.73662 12.2659411c-.021865 0-.021865-.0437289-.021865-.0874577 0-.153051-.065593-.3061019-.153051-.4372885-.109322-.1311865-.262373-.1967798-.371695-.262373-.109322-.0655933-.19678-.0655933-.306102-.0437289-.109322.0437289-.19678.0655933-.306102.1093221-.262373.0874577-.481017.2623731-.568475.5466106-.021864.0218644-.043729.0437288-.043729.0874577-.174915.4591529.087458.9620346.568475 1.0713567.612204.1311865 1.202544-.3498308 1.202544-.983899zm13.99323-6.7123778c-.043729-.3716952-.174915-.6777971-.502882-.8964413-.240508-.1749154-.54661-.1749154-.765254 0-.306102.2186442-.437289.5466105-.39356.9183057.043729.3935596.240509.6777971.590339.8308481.306102.1311865.612204.0437288.830848-.1967798.153051-.1749154.218645-.3935596.240509-.6559327zm-.830848-6.1657672c-.131186-.0437288-.284237.0218644-.415424.1093221-.502882.3716952-.502882 1.1806789.021864 1.552374.502882.3498308 1.071357.153051 1.246273-.3935596.087457-.2186442.087457-.4372884.021864-.6559326-.065593-.1967799-.19678-.3716952-.39356-.4810173-.153051-.1093222-.284237-.1967799-.481017-.1311866zm-4.853902 8.7676335c.415424.0218644.874577-.3061019.874577-.8745769.021865-.2842375-.065593-.5466106-.349831-.6777971-.043728-.0218644-.065593-.0655933-.109322-.0874577-.043729-.0437288-.087457-.0655933-.153051-.0874577-.306102-.1311865-.612204-.0655933-.874577.1749154-.262373.2405086-.34983.6777971-.218644 1.0057634.131187.2842375.459153.568475.830848.5466106zm-2.164578-13.4028911c0-.1967798-.065593-.3935596-.196779-.5466106-.065594-.0874576-.153051-.1311865-.218645-.2186442-.218644-.1530509-.459153-.1530509-.699661-.1530509-.240509.0437288-.349831.2186442-.437289.3716951-.043728.0437289-.065593.0874577-.087457.1311866-.174916.415424-.043729 1.0057634.437288 1.2681365.131187.0655933.262373.0874577.415424.0655933.415424-.0655933.765255-.4372885.787119-.9183058zm-.196779-2.951697c-.021865.2842374.131186.6996615.306101.8964413.19678.2623731.459153.415424.765255.4810173.481018.0655932 1.093221-.3061019 1.093221-.9183058 0-.0655932 0-.1749154 0-.2405086-.065593-.3498308-.196779-.6340683-.502881-.8089837-.021865-.0218644-.065594-.0655932-.065594-.0655932-.153051-.1749154-.327966-.2405087-.524746-.2842375-.240508-.0437289-.459153 0-.677797.1311865-.284237.1749154-.415424.4591529-.393559.8089837zm.393559.1749153c0-.1311865.043729-.262373.109322-.3716952.109322-.1530509.240509-.2186442.415424-.2405086.459153-.0655933.874577.3498308.830848.8527125-.021864.2842375-.262373.5903394-.634068.5466105-.153051 0-.306102-.0655932-.415424-.1093221-.021864 0-.043729-.0218644-.043729-.0437288-.131186-.1967798-.262373-.3716952-.262373-.6340683zm8.592718 1.7710183c.39356.0218644.721526-.1749154.962035-.5028818.065593-.0655932.109322-.1311865.109322-.2405086 0-.1967798-.043729-.415424-.174915-.5903394-.043729-.0655933-.437289-.3498308-.502882-.3935596-.218644-.0437289-.437289-.0655933-.634068.1093221-.021865 0-.043729 0-.065594.0218644-.109322.0437289-.153051.1093221-.218644.1967798-.218644.3061019-.240509.7652548-.021864 1.13695.131186.1967798.284237.3061019.54661.2623731zm-10.954075 11.8723815c-.021865-.153051-.043729-.3279664-.153051-.4591529-.065594-.0874577-.153051-.1311865-.218645-.1967798-.218644-.1967798-.481017-.2186442-.765254-.1093221-.371696.1311865-.59034.5028817-.568475.8745769.043728.415424.393559.7871192.765254.8308481.043729.0218644.087458 0 .153051 0 .415424-.0218645.78712-.4372885.78712-.9401702zm-2.558138-12.3533988c0-.0874577-.043729-.2405087-.087458-.3498308-.065593-.1967798-.218644-.3279663-.371695-.415424-.262373-.2186442-.54661-.2623731-.874577-.153051-.174915.0655933-.284237.1749154-.34983.3498308-.043729.0874577-.065594.1749154 0 .2623731.021864.0437288.021864.1093221.021864.1530509-.043729.0655933 0 .1311865.021864.1967798.218645.3935596.546611.6122039 1.005764.6122039.371695.0218644.612204-.2405087.634068-.6559327zm15.458147-1.9022048c0 .2405086.065593.5028817.262373.7215259.284237.306102.481017.2842375.808984.1093222.043728-.0437289.087457-.0655933.109322-.1093222.284237-.3716951.34983-.7215259.19678-1.1369499-.109323-.2623731-.306102-.3935596-.568475-.5247462-.021865 0-.087458 0-.131187 0-.240509 0-.39356.1093221-.502882.3061019-.153051.1749154-.153051.3935596-.174915.6340683zm-13.031196 6.6905133c0 .3279664.109322.5903394.349831.7652548.284237.1967798.590339.1967798.852712-.0437288.19678-.1967798.306102-.4372885.327967-.6996615.021864-.2405087-.065594-.4591529-.218645-.6559327-.109322-.1093221-.262373-.2186442-.437288-.2186442-.218644-.0218645-.39356.0218644-.546611.1530509-.218644.1749154-.327966.415424-.327966.6996615zm16.573232-8.5489892c0-.3279664-.087457-.5247462-.327966-.6777971-.131187-.0655933-.262373-.1093221-.39356-.0655933-.437288.1093221-.808983.5466106-.830848 1.0057634v.306102c.065594.262373.240509.4810173.568475.4591528.218645-.0218644.371696-.1093221.524746-.2405086.284238-.2186442.437289-.4810173.459153-.7871192zm-7.76187 24.2039159c0 .1093221.043729.262373.109322.3935596.153051.2405086.371696.3935596.655933.4591528.218644.0655933.437289.0437289.634068-.0655932.19678-.1311866.306102-.3061019.306102-.5028817 0-.2623731-.065593-.4810173-.240508-.6340683-.131187-.1093221-.284238-.2186442-.459153-.3061019-.240509-.1093221-.459153-.0655933-.699662.0218644-.153051.0874577-.240508.1749154-.262373.3498308-.021864.0874577-.021864.1749154-.043729.2842375zm10.932212-6.0127163c-.065594.0218645-.153051.0218645-.218645.0218645-.196779.0437288-.371695.1530509-.502881.3061019-.174916.2186442-.19678.4591528-.065594.6777971.087458.1967798.218645.3061019.39356.415424.459153.2842375 1.158814-.0437288 1.268137-.5247461.043728-.2623731-.043729-.5028818-.284238-.6122039-.043729-.0437288-.087458-.0655932-.131186-.1093221-.109323-.1311865-.284238-.1530509-.459153-.1749154zm-18.344251-5.5754277c-.19678 0-.349831.0437288-.502882.1530509-.34983.2623731-.393559.8308481-.087457 1.1806788.240508.2842375.787119.4154241 1.158814.0218645.262373-.2623731.306102-.6559327.109322-.9620346-.043729-.1311866-.174915-.153051-.262373-.2405087-.131186-.1311865-.284237-.1530509-.415424-.1530509zm6.756107 1.4649163c.196779 0 .481017-.1093221.590339-.3716952.065593-.153051.174915-.2842375.284238-.415424.043728-.0437289.065593-.0874577.087457-.1093222.218644-.3061019.153051-.5247461 0-.7652548-.021864-.0655932-.109322-.0655932-.153051 0-.043729.0437289-.087457.153051-.153051.2186443-.021864.0655932-.087457.0874577-.153051.0874577-.065593-.0218645-.109322-.0437289-.153051-.0437289-.065593-.0218644-.109322-.0655932-.153051-.0655932-.524746-.1093222-.983899.415424-.830848.9401701.065594.3061019.349831.5247462.634069.5247462zm4.110511-7.9805143c-.021864-.3061019-.087458-.568475-.39356-.6996615 0 0-.021864-.0218645-.043728-.0218645-.109322-.1311865-.284238-.1093221-.437289-.0655932-.153051.0437288-.284237.1311865-.371695.2623731-.240509.3716951-.284237.8745769.218644 1.246272.218644.153051.415424.153051.634068 0 .262374-.1530509.39356-.415424.39356-.7215259zm-3.95746-6.8872931c0-.4591529-.218645-.6777971-.634069-.8089837-.109322-.0437288-.240508-.0218644-.371695.0437289-.481017.2405086-.568475.9620346-.174915 1.3337297.19678.1967798.415424.2405087.655932.153051.327967-.1093221.524747-.3716952.524747-.7215259zm-17.25103 10.3418719c.131187 0 .240509 0 .349831-.0655933.415424-.1967798.502882-.7652548.131186-1.0713567-.109322-.0655933-.218644-.153051-.327966-.1967798-.240509-.1093221-.502882-.1093221-.721526.0437288-.327966.2186443-.349831.4810173-.262373.7652548.131187.3279664.502882.5466106.830848.5247462zm9.008142-6.1876316c0-.2186443-.065593-.4372885-.306102-.568475-.065593-.0218644-.109322-.0655933-.153051-.1093221-.174915-.1093222-.371695-.1311866-.568475-.0655933-.34983.0874577-.524746.4591529-.437288.8089836.131186.3935596.524746.6122039.830848.6340683h.153051c.306102-.0874577.481017-.3279664.481017-.6996615zm15.392554 10.2544142c0-.1311865-.021865-.2623731-.087458-.3716952-.131186-.2405086-.393559-.3716952-.655933-.3279663-.109322.0218644-.196779.0655932-.284237.1311865-.327966.1967798-.459153.568475-.349831.9401702.109322.3279663.415424.5247461.743391.4372884.174915-.0437288.284237-.1530509.415424-.262373.153051-.153051.196779-.3279664.218644-.5466106zm-22.411033 8.330345c.437288-.0218644.699661-.262373.808983-.6777971.043729-.1749154 0-.3498307-.109322-.4810173-.218644-.1967798-.459153-.3279663-.787119-.2405086-.043729 0-.087458.0218644-.153051.0437288-.327966.1093221-.524746.4591529-.459153.8089837.043729.1311865.109322.262373.240509.3279663.043729 0 .065593.0437288.109322.0655933.087457.1311865.218644.1311865.349831.1530509zm3.913731-9.4017017c-.437288 0-.677797.3061019-.590339.7433904.021864.0874576.065593.1967798.109322.262373.306102.3716952.612204.5028817 1.093221.3716952.19678-.0437288.306102-.1749154.306102-.3716952.021864-.262373-.065593-.5028817-.262373-.6777971-.087458-.1093221-.218644-.1749154-.349831-.262373-.109322-.0437289-.19678-.0874577-.306102-.0655933zm15.786113 7.8930566c-.021864-.1749154-.109322-.3498308-.284237-.4810173-.19678-.153051-.39356-.153051-.634068-.0874577-.284238.1093221-.459153.3279663-.524747.6122038-.065593.2405087 0 .4591529.19678.6122038.240509.1967799.524746.2186443.78712.1093222.284237-.1093222.415424-.3279664.437288-.6122039 0-.0437288.021864-.0874577.021864-.1530509zm-10.669838-3.5201721c.39356 0 .699662-.3279663.699662-.7433904.021864-.3498307-.437289-.6996615-.721526-.6777971-.39356 0-.699662.306102-.699662.6996616 0 .3716952.349831.7215259.721526.7215259zm15.807978-.5028817c-.021865-.1749154-.065594-.415424-.349831-.5247461-.021864 0-.043729-.0218645-.065593-.0437289-.131187-.1093221-.284238-.0874577-.437289-.0655933-.393559.1093222-.634068.6559327-.459153 1.0276279.109322.2405087.306102.415424.59034.415424.459153 0 .74339-.415424.721526-.8089836zm-23.87595 2.9079682c.371695 0 .699662-.2405086.765255-.6122038.043729-.1311866.021864-.2623731-.021864-.3935596-.043729-.0874577-.131187-.153051-.218645-.1967798-.021864-.0218645-.043729-.0218645-.065593-.0437289-.371695-.3061019-1.071357-.0218644-1.13695.5028817-.021864.0437289-.021864.1311866 0 .1967798.043729.306102.327966.5466106.677797.5466106zm.437289-.4372884c.021864.0655932-.021865.1311865-.087458.1311865-.043729.0218644-.087458-.0437289-.087458-.0874577s.043729-.1093221.087458-.1093221.065593.0437288.087458.0655933zm-3.542037-3.4983077c.262373 0 .459153-.1093221.634068-.2842375.131187-.1311865.153051-.3061019.131187-.4591528-.021864-.1749154-.087458-.2842375-.218644-.3498308-.021865-.0218644-.043729-.0218644-.043729-.0437288-.349831-.2842375-.874577-.1749154-1.093221.1749153-.153051.2186443-.153051.4591529.021864.6559327.131187.2186442.327967.3061019.568475.3061019zm2.361358-2.1427134c.262373 0 .481017-.1311865.612204-.3716952.131186-.2186442.065593-.4810173-.153051-.6340682-.043729-.0437289-.087458-.0655933-.109322-.0874577-.174916-.1311866-.327967-.1967798-.524747-.1093221-.196779.0655932-.393559.1311865-.612203.1530509-.131187 0-.174916.1093221-.131187.2186442.021864.0874577.087458.1967799.131187.2623731.065593.0874577.153051.1749154.218644.2623731.153051.1967798.327966.2842375.568475.3061019zm11.653737-9.4235662c0 .2623731.131187.5028818.327966.6559327.153051.1093221.306102.153051.459153.1093221.262373-.0655932.349831-.262373.437289-.4810173.043729-.1530509.043729-.3279663 0-.4810173-.065594-.1749153-.174916-.2842375-.306102-.3716952-.284238-.1967798-.612204-.1311865-.808984.153051-.065593.1093221-.109322.2623731-.109322.415424zm14.714757 2.7330529c0-.1749154-.043729-.3279664-.153051-.4591529-.065594-.1093221-.19678-.1311865-.306102-.1967798-.131187-.0655933-.284238-.0655933-.415424.0437288-.437289.2623731-.481018.8745769-.109322 1.2462721.109322.1093221.218644.153051.34983.1311866.415424-.0874577.655933-.5028818.634069-.7652548zm-25.297137 2.383222c.087457 0 .174915 0 .284237-.0218644.043729 0 .087458-.0218644.131187-.0218644.087457-.0437288.131186-.1093221.087457-.2186442-.109322-.2405087-.218644-.4591529-.459153-.6122039-.34983-.2842375-.74339-.3279663-1.158814-.1967798-.043729.0218645-.065593.0655933-.065593.1311866.021864.1749153.087457.3279663.218644.4810173.218644.3061019.568475.4591528.962035.4591528zm13.184246 10.341872c0-.3498308-.284237-.6559327-.634068-.6559327s-.655933.2842375-.655933.6340682c0 .3498308.306102.6559327.655933.6559327.306102 0 .634068-.2186442.634068-.6340682zm10.03577 1.2900009c-.34983 0-.612203.2623731-.590339.5903394.021864.3716952.371695.6777971.699661.6122038.043729 0 .109323-.0218644.153051-.0437288.043729-.0218644.087458-.0437288.131187-.0655933.19678-.0874577.284237-.2842375.306102-.4591528.021864-.1967798-.043729-.3498308-.218644-.4591529-.065594-.0218644-.109322-.0437289-.153051-.0874577-.087458-.0655933-.218645-.1093221-.327967-.0874577zm-6.97475-20.5525573c-.021865-.2405087-.109323-.4591529-.371696-.5903394-.109322-.0655933-.262373-.0655933-.371695-.0218644-.19678.0874577-.306102.2186442-.349831.3935596-.065593.3061019.021865.568475.240509.7871192.240509.2186442.481017.1530509.655933-.0437289.131186-.1530509.174915-.3061019.19678-.5247461zm-11.916111 1.2681365c0-.2186442-.109322-.3716952-.393559-.5247461-.109323-.0655933-.218645-.0655933-.327967-.0437289-.349831.0655933-.568475.4810173-.371695.8527125.153051.2186442.415424.3498308.677797.2842375s.415424-.2623731.415424-.568475zm12.50645 0c-.021864.1967798.065593.3935596.240509.5247462.131186.1311865.306102.1530509.481017.0655932.240509-.1311865.327966-.3279663.349831-.5903394.021864-.2405086-.065594-.415424-.284238-.5466106-.19678-.1093221-.349831-.1093221-.524746 0-.19678.1311866-.262373.306102-.262373.5466106zm2.929833 15.9172997c-.284238-.0218644-.459153.0655933-.568475.2405087-.109323.1967798-.109323.3716951-.021865.5684749.109322.1749154.240509.2842375.415424.306102.240509.0437288.437289 0 .59034-.1749154.153051-.1967798.153051-.3935596.065593-.5903394-.087458-.2186443-.327966-.3061019-.481017-.3498308zm-17.491539-6.4937335c-.218644 0-.371695.0874577-.481017.2623731-.109322.1967798-.109322.3935596 0 .5684749.153051.2405087.437289.3498308.721526.2842375.218644-.0655932.349831-.2405086.371695-.4591528.021865-.1967798-.021864-.3935596-.218644-.5028818-.043729-.0218644-.087458-.0437288-.109322-.0655932-.087458-.0874577-.19678-.0874577-.284238-.0874577zm18.825268-5.1162749c.021865.1967798.065594.3498307.218645.4591529.174915.1530509.415424.1530509.590339-.0218645.087458-.0655932.174915-.1530509.218644-.262373.109322-.306102.043729-.5247462-.174915-.721526-.021865-.0218644-.043729-.0437288-.065593-.0437288-.087458-.1093222-.19678-.1311866-.327967-.1093222-.109322.0218645-.19678.1093222-.284237.1967799-.131187.1530509-.153051.3279663-.174916.5028817zm-7.543225-4.4822067c.021864.2623731.109322.4810173.34983.5903394.109322.0437289.218645.0437289.327967 0 .240508-.1311865.34983-.3279663.371695-.6122038.021864-.2405086-.087458-.4372884-.306102-.5466106-.19678-.0874577-.349831-.0874577-.481017.0218645-.174916.1530509-.240509.3498307-.262373.5466105zm-14.97713 5.5098345c.240509 0 .459153-.1530509.524746-.3716951.065593-.2623731 0-.4591529-.218644-.6122039-.043729-.0218644-.109322-.0655932-.153051-.0874577-.262373-.1530509-.612204-.0218644-.721526.2842375-.153051.4154241.218644.7871192.568475.7871192zm1.924069 4.5478c.043729-.1749154-.043729-.306102-.19678-.4154241-.065593-.0437288-.109322-.0655932-.174915-.1093221-.306102-.1967798-.721526.0874577-.765255.3498308-.043729.2186442.021865.415424.19678.5466105.174915.1749154.415424.2186443.634068.1311866.19678-.0874577.327967-.2405087.306102-.5028817zm22.061203-3.8918673c-.371695 0-.699662.3498308-.655933.7433904.021864.1530509.131187.2623731.262373.3279663.284238.1093221.634068-.0218644.808984-.2842375.109322-.1530509.153051-.3498307.043729-.5247461-.109323-.153051-.262373-.2623731-.459153-.2623731zm-19.809167 2.0771202c0-.1311866-.043729-.2623731-.153051-.3716952-.087458-.0437289-.153051-.1093221-.240509-.153051-.174915-.0874577-.371695-.0874577-.524746.0218645-.174915.1311865-.262373.3061019-.218644.5028817.043729.3716952.459153.6122038.830848.4810173.19678-.0655933.306102-.2405087.306102-.4810173zm20.049675.2186442c0-.0655933 0-.1749154-.087457-.2405086-.109322-.0874577-.19678-.1967799-.327967-.2405087-.34983-.0437288-.765254.2623731-.677797.7215259.043729.2623731.327967.5247462.677797.3935597.218645-.0874577.39356-.3279664.415424-.6340683zm-4.657122 3.520172c0-.0218644-.043729-.0655932-.043729-.0874576-.043728-.0655933-.043728-.1311866 0-.1967798.065594-.1967798.065594-.2186443-.109322-.3498308-.021864 0-.043728-.0218644-.087457-.0437289-.174916-.1311865-.371696-.1093221-.568475 0-.19678.1311866-.284238.306102-.262373.5466106.043728.2623731.240508.4591529.481017.4810173.240509.0437289.459153-.0655933.590339-.3498308zm2.07712-8.7676334c0 .1967798.043729.3279663.153051.415424.109323.1093221.240509.1749154.371696.1530509.240508-.0655932.437288-.1967798.524746-.4372884.043729-.1311865.043729-.2405087 0-.3716952-.021865-.1093221-.109322-.1749154-.19678-.2186442-.021864 0-.043729-.0218644-.065593-.0437289-.065594-.0655932-.153051-.0655932-.218645-.0655932-.327966 0-.568475.2842375-.568475.568475zm-5.181868 3.2796634v.0874577c.043729.3061019.306102.5028817.612204.4810172.284238-.0218644.481017-.2186442.481017-.5247461.021865-.2186442-.087457-.3716952-.284237-.5028817-.19678-.0874577-.349831-.1093221-.546611-.0218644-.153051.1093221-.262373.262373-.262373.4810173zm4.5478-2.426951c0-.1311865-.043729-.2842375-.109322-.3279663-.087458-.0437288-.131186-.1093221-.240509-.153051-.065593 0-.131186-.0218644-.218644-.0218644-.218644.0218644-.415424.1967798-.481017.4372885-.087458.3498307.19678.6777971.54661.6559327.306102-.0437289.524747-.2842375.502882-.5903395zm-15.52374 17.535267c0-.1530509-.043729-.3279663-.240509-.3716952-.021864-.0218644-.021864-.0437288-.065593-.0437288-.109322-.1093221-.218644-.1093221-.349831-.0437289-.174915.0437289-.306101.1749154-.371695.3498308-.065593.2186442-.021864.3935596.153051.5466106.153051.1311865.327967.1749154.524746.1093221.240509-.0874577.349831-.3498308.349831-.5466106zm12.222212-9.4235661c0-.1093222-.043728-.2405087-.153051-.306102-.109322-.1093221-.218644-.1967798-.371695-.2186442-.284237 0-.54661.2842375-.524746.5903394 0 .3061019.240509.5247462.524746.5247462.284238 0 .524746-.2623731.524746-.5903394zm-1.202543-15.4362824c0-.1967799-.109322-.306102-.306102-.4154241-.153051-.0655932-.327966-.0218644-.459153.1093221-.240508.306102-.218644.6559327.021865.9401702.087457.0874577.174915.1093221.284237.0437289.109322-.0437289.218645-.1311866.306102-.2405087.109322-.1311865.153051-.2405086.153051-.4372884zm2.798646 21.1210322c.39356 0 .568475-.2405086.568475-.5684749 0-.1093222-.043729-.1967798-.153051-.2623731-.043729-.0437289-.087457-.0874577-.153051-.1093221-.043729-.0437289-.109322-.0655933-.174915-.0655933-.174915-.0218644-.327966.0218644-.415424.1749154-.109322.1530509-.174915.3279663-.087458.5247461.109322.1967798.262373.3061019.415424.3061019zm-8.155429-10.4074651c-.021865-.2623731-.262373-.5028818-.524747-.5028818-.196779 0-.371695.1093221-.437288.306102-.065593.1967798-.043729.3716951.109322.5247461.109322.0874577.218644.153051.371695.153051.131187.0218644.218645-.0655933.306102-.153051.131187-.0874577.153051-.1967798.174916-.3279663zm13.05306-3.3452567c0 .0874577.021864.1967798.087458.2842375.153051.1530509.34983.1967798.54661.1093221.153051-.0874577.262373-.2186442.327967-.3935596.043728-.2186442-.043729-.3935596-.240509-.4810173-.043729-.0218644-.065593-.0437289-.131187-.0655933-.043729-.0218644-.109322-.0218644-.196779 0-.218645.0655933-.39356.2842375-.39356.5466106zm-11.610009 17.4259449c-.262373 0-.481017.1749153-.481017.4372884s.218644.4810173.481017.4810173c.262374 0 .481018-.1967798.481018-.4591529 0-.1093221-.021865-.2186442-.109322-.2842375-.109322-.0874577-.19678-.2186442-.371696-.1749153zm-1.661696-23.3074746c0 .153051.065594.2842375.19678.3935596.19678.1749154.524746.1093221.634068-.1093221.19678-.3716952-.065593-.6777971-.371695-.7652548-.021864 0-.043729 0-.065593 0-.240509.0437288-.39356.1967798-.39356.4810173zm-3.848138 25.1878149c-.021864-.2186442-.240509-.4372884-.481017-.4372884-.240509 0-.437289.1967798-.437289.4372884 0 .2623731.19678.4810173.459153.4810173s.459153-.2186442.459153-.4810173zm-9.314244-13.4466199c-.021864.1311865.043729.262373.153051.3716951.109322.1093222.262373 0 .371695.0874577.043729.0218645.109322 0 .131187-.0218644.174915-.0437288.240508-.1749154.262373-.3498307 0-.153051-.043729-.306102-.19678-.3935597-.043729-.0218644-.087458-.0437288-.131187-.0655932-.284237-.153051-.590339.0655932-.590339.3716952zm14.845943-9.6859393c-.043729-.2842375-.153051-.4372884-.459153-.4591529-.218644-.0218644-.39356.1967799-.39356.4372885s.19678.4810173.459153.4810173c.19678 0 .39356-.2186442.39356-.4591529zm11.828653 1.6835606c0-.2405087-.218645-.4154241-.459153-.3935596-.262373 0-.459153.2842375-.39356.5684749.043729.153051.153051.2405087.306102.306102.284238.0437288.568475-.2186443.546611-.4810173zm2.033391 9.2705152c-.19678 0-.327966.0655932-.415424.2623731-.065593.1311865-.043729.3061019.087458.415424.109322.1311865.284237.1311865.437288.1093221.174915-.0437289.284237-.1749154.327966-.3498308 0-.1093221-.021864-.2186442-.087457-.2842375-.109322-.0655932-.218645-.1530509-.349831-.1530509zm-8.242887-13.0311959c.196779 0 .306101-.0874577.393559-.2186443.065593-.1530509.109322-.3061019 0-.4591528-.043729-.0655933-.131186-.1093221-.19678-.153051-.087457-.0655933-.196779-.0655933-.284237 0-.153051.0874577-.240509.1967798-.240509.3498308 0 .1967798.065593.3279663.218644.415424.043729.0437288.087458.0655933.109323.0655933zm-14.998994 1.6835605c-.218645 0-.39356.1749154-.39356.3935596 0 .2405087.218644.4372885.437288.4154241.218645 0 .39356-.1749154.39356-.4154241-.021864-.1967798-.240509-.415424-.437288-.3935596zm6.712377 24.8161197c-.087457.0437289-.153051.0655933-.218644.1093222-.131186.0874576-.174915.2186442-.153051.3716951.021865.1749154.109322.2623731.262373.3279664.153051.0655932.349831 0 .459153-.153051.109322-.1749154.087458-.3061019-.043729-.4372884-.043729-.0655933-.065593-.1093221-.131186-.1311866-.043729-.0437288-.109322-.0437288-.174916-.0874577zm-10.276278-8.6364469c.021864-.1967798-.19678-.3716952-.39356-.3716952-.218644-.0218644-.371695.153051-.39356.3498308 0 .1967798.174916.3716952.371696.3935596.218644.0218644.415424-.153051.415424-.3716952zm2.448815-15.8517064c0-.1093222-.043729-.2186443-.153051-.2842375-.043729-.0218645-.109322-.0874577-.174915-.0874577-.065594-.0218645-.131187-.0218645-.174916 0-.174915.0655932-.284237.2186442-.240508.415424.021864.1967798.218644.3279663.437288.3279663.174915-.0218644.306102-.1749153.306102-.3716951zm14.933401.3498307c0-.1967798-.131187-.3935596-.327967-.3935596-.196779 0-.371695.1749154-.371695.3716952 0 .2186442.174916.3716952.371695.3716952.153051 0 .327967-.1749154.327967-.3498308zm2.645595-2.0115269h.087458c.153051-.0655932.262373-.262373.240508-.415424 0-.1967798-.19678-.3061019-.327966-.3279663-.043729-.0218645-.109322.0218644-.131187.0437288-.065593.0874577-.109322.1749154-.153051.2842375-.087457.2186442.065594.415424.284238.415424zm2.47068 12.1784835c0 .1749153.131186.3061019.306102.3061019.196779 0 .327966-.153051.327966-.3716952-.021865-.1311865-.19678-.3061019-.371695-.3061019-.153051 0-.284238.1749154-.262373.3716952zm4.722715-.9183058c-.021865-.1311865-.218644-.3279663-.349831-.3279663-.19678.0218644-.349831.1967798-.349831.3935596.021865.1749154.19678.3061019.371696.2842375.174915 0 .327966-.153051.327966-.3498308zm-19.065777-4.1542403c0-.153051-.174915-.3061019-.284237-.3061019-.240509 0-.371695.1093221-.371695.3061019.021864.1967798.174915.3498308.34983.3498308.174916-.0218645.306102-.1749154.306102-.3498308zm10.407466 10.2981431c-.021865.1530509.131186.3061019.306101.3061019.153051 0 .306102-.1311865.306102-.3061019 0-.153051-.153051-.3061019-.327966-.3061019-.153051 0-.284237.1311865-.284237.3061019zm-8.527125-9.2705152c0-.153051-.131187-.306102-.306102-.306102-.174916 0-.306102.153051-.306102.306102.021864.1749153.109322.3061019.284237.3061019.19678 0 .327967-.1311866.327967-.3061019zm-6.318818-8.0023787c0 .1530509.087457.262373.240508.3061019.131187.0437288.262373 0 .327967-.153051.065593-.1311865.021864-.2405086-.087458-.3279663-.043729-.0218644-.087458-.0437289-.131187-.0655933-.153051-.0874577-.371695.0655933-.34983.2405087zm10.079498-2.9298327c.174916 0 .262373-.0874577.284238-.262373.021864-.1749154-.153051-.3498308-.327966-.3498308-.109323 0-.240509.153051-.240509.2842375-.021865.1967798.109322.3498308.284237.3279663zm-1.421187.1749154c.021864-.1967798-.174915-.3716952-.349831-.3279663-.131186.0437288-.218644.1749154-.19678.3061019.021865.1749154.153051.2623731.306102.2623731.131187 0 .218645-.1093222.240509-.2405087zm2.448815.153051c0 .0218644-.043729.0437288-.087457.0437288-.109323.0874577-.153051.2842375 0 .415424.109322.0655933.174915.0874577.284237.0437289.087458-.0437289.131187-.153051.109322-.2623731-.021864-.1311865-.153051-.2186442-.306102-.2405086zm11.894246 18.7596746c.021865 0 .065593-.0218644.087458-.0218644.153051-.0655933.174915-.2623731.021864-.3716952-.021864-.0218644-.043729-.0437288-.087457-.0655933-.043729-.0218644-.087458-.0218644-.109322-.0218644-.153051.0437289-.218645.153051-.19678.2842375.021864.1093221.131186.1967798.284237.1967798zm-6.603055-17.8632333c-.021865-.1093221-.174916-.2405086-.284238-.2186442-.131186 0-.218644.1311865-.19678.2405086 0 .1311866.109322.2405087.262373.2186442.109322 0 .218645-.1093221.218645-.2405086zm1.180678 1.3774586c-.109322 0-.196779.0874577-.196779.2186443 0 .1311865.087457.2405086.218644.2405086.131186-.0218644.240508-.1093221.240508-.2186442 0-.1311866-.153051-.2405087-.262373-.2405087zm-9.795261-1.6179672c0-.1093222-.087458-.1967799-.218644-.1967799-.087458 0-.174916.0874577-.174916.1749154 0 .1093221.109323.2186443.218645.2186443s.196779-.0874577.174915-.1967798zm-.983899 6.9310219c-.021864 0-.043729-.0218644-.043729-.0218644 0 .0218644 0 .0437289-.021864.0437289.021864 0 .021864.0218644.043729.0218644.021864 0 .021864-.0218644.021864-.0437289z"
          fill="#e6594c" transform="translate(-215 -58)"/>
</svg>