<svg height="31" viewBox="0 0 30 31" width="30" xmlns="http://www.w3.org/2000/svg">
    <path d="m85.5390747 74.5334797c-.1093221-.3061019-.2186443-.568475-.3279664-.8527124-.1093221-.2186443-.1749154-.4372885-.1967798-.6559327-.0437288-.3279664-.1093221-.6340683-.1530509-.9620346-.1093222-.5247462-.153051-1.0713567-.1093222-1.6179673 0-.0874577 0-.1967798 0-.2842375-.0655932-.3935596-.262373-.6777971-.5903394-.8745769-.1749153-.1093221-.3716951-.1967798-.5466105-.2842375-.2623731-.153051-.6122039.0218644-.5903394.3935596 0 .0437289 0 .1311865.0218644.1967798.1093221.3061019.1749154.6340683.3279663.9401702.0437289.0874577.0874577.1749154.1311866.2623731.1967798.5247461.262373 1.0713567.2842375 1.6179672.0218644.4154241.0874576.8308481.1749153 1.2244077.1311866.4372885.3061019.8745769.5247462 1.2681365.262373.5028817.6559327.8527125 1.1806788 1.0494923.2623731.1093221.5247461.1749154.8089836.2405087.1093222 0 .2405087.0218644.3498308.0437288.3061019.0874577.4810173.2842375.5247461.5903394.0218645.1093221 0 .1967798 0 .3061019-.0218644.153051-.0655932.2842375-.0874576.4372885-.0655933.4810173.0655932.7215259.4591528.9620346.0218645 0 .0437289.0218644.0874577.0437288.4810173.2186443 1.0057635.4154241 1.552374.5028818.568475.0874576 1.1150856.0218644 1.6398317-.2405087.1967798-.0874577.4154241-.2186442.6122039-.3498308.1967798-.1093221.3716952-.2405086.5466105-.3498307.4154241-.2842375.8527125-.5028817 1.3118654-.6559327.1967798-.0655933.3935596-.1311865.5903394-.1749154.3935596-.1093221.7652548-.2623731 1.1150856-.4810173.1093221-.0874577.2405086-.1530509.3716951-.2186442.2186443-.1093221.4591529-.153051.6996616-.1311865.1967798 0 .3498307.0655932.4810173.2186442.0874577.1093221.1967798.2186442.3061019.3279663.1967798.2405087.4372884.4154241.6996615.5466106.0874577.0437288.1967798.1093221.3061019.1530509.2842375.153051.568475.3279664.8527125.4810173.2623731.153051.5247462.306102.7652548.4591529.4372883.2405087.8527123.4591529 1.2681363.6777971.371695.2186443.546611.5247462.524746.9620346-.043728.6996615-.371695 1.2681365-1.005763 1.6179673-.5247462.3061019-1.0713568.3279663-1.6398318.153051-.3061019-.0874577-.5466105-.2623731-.7652548-.4810173-.1093221-.1749154-.262373-.3279664-.3935596-.4810173-.1749154-.2405087-.3061019-.4591529-.4591529-.6996616-.0874576-.1749153-.1530509-.3498307-.1311865-.5247461.0218644-.2623731.1311865-.4372885.3716952-.5466106.2186442-.1093221.415424-.0655932.6122038.0874577.1093221.1093221.2405087.2405087.3498308.3716952.0874577.1311865.153051.2842375.2623731.3935596.1093221.1749154.2405086.3279663.3716951.4591529.1311866.1311865.2623731.2186442.4372885.2623731.2186442.0437288.415424-.0437289.5247461-.2186443.087458-.1530509.043729-.3935596-.1093221-.5466105-.0218644-.0218645-.0437288-.0437289-.0655932-.0655933-.1093221-.0655933-.2186443-.153051-.3279664-.2186442-.2186442-.1311866-.4372884-.2405087-.6340682-.3716952-.3716952-.3279664-.8089837-.6122039-1.2462721-.8745769-.1311866-.0874577-.2842375-.1311866-.4372885-.1967798-.1093221-.0437289-.2405086-.0437289-.3498307.0218644-.1749154.0655933-.2842375.1967798-.3498308.3716952-.0437288.1093221-.0655933.2405086-.0874577.3498307-.0437288.6559327.0437289 1.2681366.3935596 1.8366115.2186442.3498308.415424.6996616.6122038 1.0494923.2405087.4154241.6122039.6559327 1.0932212.6996616.4372884.0437288.8964413.0655932 1.3337298.0655932.6340683 0 1.1806783-.262373 1.6398313-.6996615.39356-.415424.634069-.8745769.59034-1.4649163 0-.1093221 0-.2623731 0-.3935596.021864-.3716952.19678-.6340683.54661-.8089837.109322-.0437288.218645-.1093221.349831-.1530509.502882-.1967798.808984-.568475.962035-1.0713567.240508-.7871192.393559-1.5742385.393559-2.4050865 0-1.0057635-.109322-2.0333913-.262373-3.0391548-.109322-.7433903-.240508-1.4649163-.218644-2.2083067.021864-.3716952-.087458-.7215259-.262373-1.0494923-.153051-.2186442-.284238-.4591528-.39356-.6996615-.153051-.2623731-.284237-.5466105-.327966-.8745769-.065593-.3498307 0-.6777971.240509-.9401702.393559-.4372884.808983-.830848 1.333729-1.1369499.109323-.0874577.262373-.153051.415424-.1967798.153051-.0655933.327967-.1311866.459153-.2186443.306102-.1967798.655933-.2405086 1.005764-.262373.043729 0 .109322.0218644.174915.0218644.327966.1093221.546611.3279663.655933.6559327.087458.2405086.065593.4810173-.065593.6996615-.131187.1967798-.218645.3716952-.306102.568475-.19678.3279663-.415424.6122038-.677797.8745769-.153051.1311865-.284238.2405086-.481018.2842375-.131186.0437288-.262373.0437288-.393559 0-.262373-.0655933-.39356-.3061019-.327967-.568475.021865-.1093221.065594-.1967798.109322-.2842375.021865-.1093221.043729-.2405087.065594-.3498308.021864-.1311865-.021865-.262373-.153051-.3279663-.131187-.0874577-.240509-.0218644-.371695.0655933-.109323.0874576-.19678.2405086-.262374.3935596-.021864.0437288-.043728.1311865-.065593.1967798-.218644.4810173-.218644.9620346-.021864 1.4430519.043729.1749153.153051.3279663.284237.4372884.218644.1749154.437289.2186442.677797.1093221.087458-.0218644.19678-.0655932.262373-.1311865.327967-.2186442.655933-.4372885.940171-.6777971.765254-.5903394 1.268136-1.3774586 1.596102-2.2739.087458-.2842375.153051-.568475.19678-.8745769.021865-.2405086.021865-.4810173-.021864-.6996615-.065593-.3061019-.240509-.5028817-.502882-.6340683-.131186-.0437288-.240509-.1093221-.349831-.1093221-.284237-.0437288-.568475-.0655932-.830848-.0655932-.699661-.0437289-1.333729.1530509-1.88034.568475-.109322.1093221-.218644.1749153-.327966.2842375-.415424.3716951-.830848.7652547-1.202544 1.1806788-.131186.1311865-.240508.2842375-.34983.415424-.349831.4810173-.502882 1.0057634-.524747 1.5742384-.021864.1311866 0 .2623731 0 .3935596.065594.306102.19678.6122039.327967.9183058.131186.3279663.262373.6559327.393559.983899.087458.2623731.174916.5247462.153051.7871192 0 .2623731.043729.4810173.109322.721526.043729.1749154.087458.3498307.131187.5466105.284238 1.0713568.39356 2.1427135.415424 3.2359346.021864.8089836-.153051 1.5742384-.415424 2.3394932-.109322.2842375-.262373.568475-.481017.8308481-.109322.1311865-.240509.2623731-.39356.3498308-.284237.1749153-.590339.1749153-.874577 0-.109322-.0437289-.19678-.1093222-.262373-.1749154-.415424-.3279664-.874577-.5903394-1.3337296-.8089837-.3716952-.1749153-.7433904-.3716952-1.0932212-.5903394-.5247461-.3279663-1.0276278-.6777971-1.5305096-1.0276278-.2186442-.153051-.3061019-.3935597-.2405086-.6777971.0655933-.1967799.1749154-.3498308.3061019-.5028818.2405087-.3279663.5028817-.6122038.7433904-.9401701.3935596-.4810173.830848-.9183058 1.3118653-1.3118654.1749154-.153051.3716952-.2623731.568475-.3935596.1749154-.1311865.3935594-.1749154.6122034-.1967798.39356-.0437289.721526.0874577.962035.4372884.19678.2623731.284238.5903394.371695.8964414.109322.6777971.087458 1.3337297 0 2.0115269-.065593.4810173-.393559.7652547-.874577.7652547-.065593 0-.153051 0-.218644 0-.371695-.0655932-.721526-.1749153-1.0494922-.3498307-.0874577-.0655933-.1530509-.1093221-.2405086-.1749154-.3061019-.2842375-.2623731-.7215259.0874577-.9401702.0874577-.0437288.1749153-.0874577.2405086-.1093221h.3935595c.109322 0 .19678.0218644.306102 0 .174915-.0218644.306102-.0874577.371695-.2405086.087458-.1749154.131187-.3716952.109322-.568475-.043729-.4154241-.437288-.6559327-.830848-.5028817-.131186.0437288-.2623728.1311865-.3498305.2186442-.2623731.2186442-.5247461.4591529-.7652548.6996615-.1311865.153051-.2623731.3279663-.3935596.5247461-.1093221.1749154-.1749154.3498308-.1530509.568475 0 .1967798.0655932.3935596.2186442.5247462.1530509.1311865.2842375.3061019.4591529.3935596.0655932.0218644.1093221.0655933.1311865.1093221.1311865.1311865.2842375.1967798.4372884.2842375.1967798.0874577.4154238.153051.6122038.2405086.306102.153051.655933.1749154.983899.0874577.59034-.1311865.983899-.5028817 1.158814-1.0932211.109323-.3716952.153051-.7652548.131187-1.1588144-.043729-.6340683-.087458-1.2681365-.19678-1.9022048-.043729-.2842375-.109322-.5466105-.218644-.8089836-.065593-.3061019-.240509-.5028817-.502882-.6340683-.131186-.0655932-.240508-.1311865-.371695-.1749153-.524746-.1967798-1.027628-.1311866-1.5305095.0437288-.1749154.0874577-.3279663.1749154-.4372884.3061019-.3935597.3716952-.7652548.7652548-1.13695 1.13695-.2623731.2842375-.5247462.568475-.7871192.8527125-.0874577.0874577-.153051.1967798-.2405087.2842375-.2405086.3279663-.4810173.6777971-.7215259 1.0057634-.2405087.3061019-.5247462.5247462-.9183058.5903394-.3935596.0437289-.7652548.1749154-1.13695.3498308-.8089836.3498308-1.6179672.7433904-2.4488153 1.0494923-.4591529.1967798-.9401702.415424-1.3555942.7215259-.3061019.1967798-.6340683.3061019-.983899.3935596-.0655933.0218645-.153051.0218645-.2186443.0218645-.2405086 0-.4372884-.0218645-.5684749-.2405087-.1093222-.1530509-.2186443-.1530509-.4154241-.0655933-.0218644.0218645-.0437288 0-.0655932 0-.1093222-.1749153-.1093222-.1967798.0437288-.262373.0437288-.0437289.0655933-.0655933.0874577-.0874577-.0874577-.1749154-.1749154-.3498308-.2405087-.5247462-.0874576-.1967798-.1093221-.3935596-.0655932-.5903394.0437288-.2186442.1311865-.4372884.262373-.6122038.1093222-.1967798.2186443-.415424.3279664-.6340683.1530509-.4372884.1311865-.8745769-.153051-1.2462721-.1530509-.2186442-.3061019-.4372884-.4810173-.6340682-.262373-.3061019-.415424-.6777971-.5466105-1.0494923-.0437289-.153051-.0655933-.3279663-.0437289-.4810173.0874577-.3716952.1311866-.7433904.1967798-1.1150856.0655933-.3498307.0437289-.6777971-.0655932-.983899-.0437289-.1967798-.1311866-.3935596-.153051-.6122038-.0874577-.3935596-.0437289-.7652548.1967798-1.1150856.2623731-.3716952.5903394-.6996615.8964413-1.0276278.153051-.1311866.2842375-.306102.3935596-.4591529.153051-.1967798.2842375-.3935596.4372885-.6122038.3498308-.5247462.8745769-.8964414 1.4211875-1.2025433.3498307-.1967798.6996615-.3498308 1.0276278-.5466106.3279664-.1967798.6777971-.3498307 1.0494923-.4810173.4810173-.1311865.9620346-.262373 1.4867808-.1530509.2405086.0655932.4810173.1530509.6996615.2623731.4810173.2405086.983899.4591528 1.4430519.7433903.1530509.0874577.3498307.1967798.5028817.2842375.4372885.2186442.7215259.568475.9401702 1.0057635.1967798.3716951.3935596.7652548.568475 1.1588144.0655932.1311865.1530509.3061019.1967798.4591528.0218644.2405087.0655932.4810173.0655932.721526 0 1.0713567-.3061019 2.0333913-.8964413 2.9079682-.4591529.6777971-.983899 1.2900009-1.552374 1.8584759-.3498308.3716952-.721526.6996616-1.13695.983899-.7215259.4372885-1.5086451.568475-2.3394932.4154241-.7433904-.1311866-1.4211875-.4591529-1.967798-1.0057635-.1093222-.1311865-.2405087-.2405086-.3279664-.3716951-.2405086-.3498308-.4591529-.721526-.6340682-1.0932212-.1967798-.4372884-.306102-.8745769-.3716952-1.3337298-.0218645-.2186442-.0437289-.4372884-.0218645-.6559326.0874577-1.0276279.4810173-1.9240692 1.1806789-2.6674596.6996615-.7871192 1.5961028-1.2462721 2.6018663-1.4867808.4591528-.1093221.9183057-.1093221 1.3774586 0 .2186442.0437289.4591529.1311866.6777971.2186443.7652548.262373 1.2900009.7871192 1.6398317 1.5305096.1311865.3061019.2186442.6122038.2186442.9401701 0 .5466106-.1093221 1.0713567-.3498307 1.5961029-.4154241.8527125-1.0057635 1.5742384-1.7928827 2.120849-.2842375.2186442-.6122038.3716952-.9620346.4810173-.6340682.1749154-1.2244077.0874577-1.7710182-.2842375-.1311866-.1093221-.2842375-.1967798-.4154241-.3061019-.0437288-.0218644-.0655932-.0655933-.1093221-.1093221-.1530509-.3279664-.3498307-.6340683-.4591528-1.0057635-.2623731-1.0494923.1530509-2.2301711 1.0057634-2.8642393.3061019-.2186443.6559327-.3716952 1.0057634-.4810173.4372885-.1311866.8308481-.1311866 1.2462721.0437288.1967798.0874577.3716952.1749154.5247462.3279663.2405086.2623731.3061019.568475.262373.8964414-.1093221.7215259-.4591528 1.2900009-1.0276278 1.7272894-.1749154.1311865-.3716952.2186442-.568475.262373-.2186442.0218645-.4372885-.0218644-.5903394-.1749154-.1311866-.1093221-.153051-.1967798-.0874577-.3498307.1093221-.2405087.2623731-.3935596.5028817-.4591529.1093221-.0437288.2405087-.0874577.3498308-.1311865.3279663-.1749154.4810173-.4591529.2842375-.8308481-.0874577-.1311865-.153051-.2842375-.2405087-.415424-.1093221-.153051-.2623731-.2186442-.4591529-.2186442-.262373 0-.4810173.0874576-.6340682.262373-.153051.1749154-.3061019.3498308-.415424.5247462-.2623731.3935596-.306102.830848-.1749154 1.2900009.0874577.1967798.1749154.3935596.2842375.568475.1530509.2186442.3279663.4372885.5028817.6340683.1311865.1967798.3498308.3061019.568475.3279663.3279663.0437288.6340682 0 .9183057-.153051.1749154-.1093221.3498308-.2186442.5028818-.3716951.5466105-.5247462.9183057-1.1588145 1.0713567-1.9022048.0437288-.1967798.0218644-.3935596 0-.5903394-.0655933-.1967798-.1093222-.3716952-.153051-.568475-.0874577-.3716952-.2623731-.6996615-.4810173-1.0276279-.2186442-.3279663-.5466106-.5466106-.8964413-.7215259-.568475-.2623731-1.13695-.2186443-1.705425-.0874577 0 0-.0218644.0218644-.0218644.0218644-.1749154.0655933-.3498308.1311865-.5247462.1967798-.4810173.1749154-.8527124.4810173-1.2025432.8527125-.3498308.3935596-.568475.8745769-.721526 1.399323-.1093221.3935596-.1530509.8089837-.0874576 1.2462721.0437288.2842375.1311865.568475.2405086.8308481.1749154.415424.3935596.8089836.6777971 1.1588144.2842375.3935596.6559327.6996615 1.0276279 1.0057634.262373.2186443.5903394.3498308.9183057.4372885.2405087.0655933.4591529.0874577.6996615.0437288.568475-.0874577 1.0932212-.2842375 1.5523741-.6777971.4810173-.415424.9620346-.8745769 1.3555942-1.4211874.2842375-.3935597.5466105-.8089837.7215259-1.2681366.0655933-.1967798.1093221-.3935596.153051-.5903394.0437288-.3061019.0437288-.6340682.0437288-.9620346 0-.5247461-.0655933-1.0494923-.2623731-1.552374-.0874576-.2186442-.1967798-.4372884-.2842375-.6559327-.1749153-.3935596-.4372884-.6996615-.7215259-.983899-.1967798-.1749154-.415424-.3716952-.6559327-.4810173-.3279663-.1749154-.6340682-.3061019-.983899-.415424-.6122038-.1967798-1.2025432-.2186442-1.7928827-.0874577-.5684749.153051-1.1150855.3498308-1.6179672.6340683-.8964414.5028817-1.5961029 1.2025432-2.1645779 2.0552557-.3935596.5903394-.6559327 1.2462721-.7215259 1.967798-.0655933.6340683 0 1.2244077.2842375 1.7928827.0655932.1311865.1311865.2842375.1749153.4372884.306102.8089837.7433904 1.5086452 1.2681366 2.1645779.2405086.3061019.5466105.568475.8964413.7652548.2623731.1530509.5466106.3061019.8308481.4591529.3061019.1530509.6122038.3061019.9620346.3279663.2842374.0218644.5903394.0655933.8745769.0655933.7871192.0218644 1.4649163-.2405087 2.0115268-.7871193.874577-.830848 1.6616962-1.7491538 2.426951-2.6893239.1967798-.2405087.3498307-.5247462.4372884-.8089837.1093221-.3061019.2186442-.6122038.3061019-.9183057.0655933-.1967798.1093221-.3935596.1311866-.6122039.0437288-.4591528.0874577-.9401701.1311865-1.399323.0655933-.721526-.0655933-1.3774586-.4591529-1.9896625-.1530509-.2623731-.3498307-.5466105-.5028817-.8089836-.0874577-.1311866-.153051-.2842375-.2186442-.4372885-.0437289-.1093221-.0218644-.2186442.0655932-.3061019.153051-.1530509.2186443-.3498308.2842375-.5466106.0437289-.1311865.0874577-.2842375.1311866-.415424.0655932-.1967798.1749154-.3716952.3061019-.5247461.1967798-.1749154.3935596-.2186443.6340683-.1093221.1311865.0655932.262373.1530509.3935594.2405086.131187.0874577.306102.153051.481017.1967798.218645.0437289.415424.0874577.655933.1093221.19678.0218644.371695.1093221.502882.2842375.087458.0874577.174915.153051.262373.2623731-.021864.3279663-.19678.568475-.459153.7433904-.240509.1749153-.502882.1967798-.765255.0218644-.109322-.0655933-.19678-.1311866-.284237-.2186442-.065593-.0218645-.109322-.0874577-.174916-.1093222-.196779-.1311865-.3716948-.0655932-.4810169.1311866-.0218644.0218644-.0218644.0437288-.0218644.0655932-.2405087.568475-.0874577 1.0713568.3935593 1.4430519.327967.2186443.655933.2842375 1.027628.153051.327966-.1311865.59034-.3498308.787119-.6559327.415424-.7433903.699662-1.5086451.765255-2.3613576.021865-.1749154.021865-.3716952-.043729-.568475-.043729-.1311866-.109322-.2623731-.218644-.3716952-.153051-.1311865-.306102-.1967798-.481017-.2186442-.262373-.0218645-.546611-.0218645-.808984-.0437289-.415424-.0437288-.808983-.0655932-1.224408-.1749154-.5903389-.1967798-1.0713562-.5247461-1.3337293-1.1369499-.1967798-.4372885-.3935596-.8745769-.4591529-1.3774587-.0218644-.1311865-.0655933-.2842375-.0874577-.4372884-.0437288-.1093221-.0874577-.2405087-.1530509-.3498308-.0437289-.0655932-.0874577-.1311865-.153051-.1749154-.1749154-.1530509-.415424-.1093221-.5247461.1093222-.0655933.1311865-.0655933.2842374-.0655933.4372884-.0218644.4591529.0874577.9183058.2842375 1.3337298.2405086.4810173.4810173.9401702.8089836 1.3774586.1311866.153051.1749154.3498308.1311866.5466106-.0218645.0874577-.0437289.1749154-.0655933.2405086-.0874577.2842375-.1749154.568475-.2623731.8308481-.0437288.0874577-.0874577.1749154-.1311865.2842375-.2186442.3498308-.5903394.4810173-.9620346.2842375-.1967798-.0874577-.3498308-.1967798-.5028817-.3498308-.1093221-.1093221-.2186443-.2405086-.3279664-.3498307-.3716952-.3935596-.8089836-.6996616-1.3555942-.8308481-.5247461-.1093221-1.0494923-.1749154-1.5742384-.1311865-.3279664 0-.6559327.0874577-.9401702.2405086-.1749154.0874577-.3279663.153051-.4810173.2623731-.5028817.3498307-1.0494923.6340682-1.6179673.830848-.5028817.1967798-.9183057.5028818-1.2462721.9183058-.1749153.2186442-.3716951.4810173-.5028817.7215259-.3716952.6122039-.830848 1.13695-1.399323 1.5523741-.1311866.0874576-.2405087.1749153-.3498308.2842374-.3279663.306102-.4810173.6777972-.3935596 1.1150856.0655933.3498308.1311865.6996615.2405087 1.0276279.1093221.4591528.1530509.9401701.0655932 1.4211874-.0218644.1749154-.0655932.3498308-.0874577.5028818-.0218644.2842375-.0655932.568475-.0437288.830848.0437288.4810173.1967798.8745769.4810173 1.2462721.1530509.2186442.3279663.4372885.4810173.6559327.1749154.2186442.3279663.4372885.3935596.6996615.0874577.3279664.0655933.6559327-.1093221.9620346s-.5028817.5028817-.9401702.3498308c-.2405086-.0874577-.4810173-.2186442-.6559327-.3935596-.0874577-.0874577-.1530509-.1749154-.2842375-.2186443-.0655932.0437289-.1311865.0874577-.1749154.1311866-.1967798-.1311866-.262373-.2842375-.3716951-.4591529-.0218645-.0874577 0-.1311865.0874577-.1967798.0218644-.0218644.0437288-.0437288.1093221-.0655933zm20.0934043-1.5961028c-.021864-.2623731-.043729-.5247462-.043729-.7871192-.021864-.2405087-.043729-.4591529.021865-.6996616.043729-.262373.174915-.4591528.415424-.6122038.087457-.0655933.174915-.1311865.284237-.1749154.524746-.262373 1.071357-.5028817 1.617967-.7652548.284238-.1093221.568475-.1749153.874577-.1749153.39356 0 .699662.262373.721526.6559326 0 .1093221 0 .2405087-.021864.3498308-.021865.2623731-.043729.5247461-.043729.7871192 0 .4372885-.065593.8745769-.240509 1.2900009-.065593.153051-.153051.3279664-.196779.5028818-.065594.262373-.065594.5466105.021864.830848s.174915.568475.327966.8308481c.087458.1749154.174916.3498308.240509.5466106.087458.2405086.131187.4810173.065593.7433903-.065593.3716952-.34983.6122039-.721526.6340683-.393559.0218644-.699661-.1311866-.94017-.4591529-.087458-.1311865-.174915-.2623731-.19678-.4372884-.043728-.2405087-.065593-.4810173-.109322-.7433904-.043729-.3716952-.087457-.7652548-.109322-1.1588144-.043729-.2623731-.065593-.5028817-.087458-.7652548-.021864-.3935596.087458-.7433904.306102-1.0494923.087458-.1311865.153051-.2623731.218645-.3935596.043728-.0874577.087457-.1967798.087457-.2842375.021865-.1749154-.131186-.3061019-.306102-.3061019-.131186 0-.262373.0437288-.371695.1311865-.284237.1967798-.502882.4810173-.568475.8308481-.087458.2623731-.109322.5466105-.109322.8089836 0 .1311866 0 .2842375-.021864.415424 0 .4372885 0 .874577.087457 1.290001.043729.1093221.043729.2405086.065594.3498307.065593.5247462.131186 1.0494923.284237 1.5523741.065593.2186442.174915.3935596.371695.5028817.284238.1967798.612204.3061019.94017.3061019.546611.0218644 1.027628-.1311865 1.464917-.4591529.502882-.415424.699661-.9401702.568475-1.5742384-.043729-.2405087-.131187-.4810173-.218644-.6777971-.109323-.1967798-.218645-.3935596-.284238-.5903394-.174915-.3935596-.19678-.8089837-.087458-1.2244077.043729-.0874577.065594-.1749154.087458-.2842375.262373-.7652548.349831-1.5742384.371695-2.3832221.021865-.1749153.021865-.3279663 0-.4810173-.021864-.3498307-.174915-.6340682-.437288-.830848-.19678-.1311866-.415424-.1967798-.655933-.1967798-.284237-.0218644-.590339.0437288-.874577.1530509-.306102.1311866-.634068.2623731-.962034.4154241-.481018.2405086-.983899.4810173-1.464917.7433903-.043729 0-.087457.0437289-.131186.0655933-.612204.3716952-.918306.9401702-1.005764 1.6398317 0 .0655933 0 .1311865.021865.1967798.021864.1967798.065593.415424.087457.6122038.021865.3498308.065594.6996616.065594 1.0494923 0 .568475.043729 1.13695.131186 1.705425.021865.1967798.043729.3935596.043729.568475.021864.3061019.043729.6122038.087458.8964413.043729.4372885.021864.8745769-.087458 1.290001-.109322.3935596-.218644.8089836-.371695 1.2025432-.131187.3061019-.240509.6340683-.349831.9620346-.043729.153051-.087458.2842375-.153051.415424-.131186.3935596-.349831.6996616-.655933.9620346-.065593.0437289-.131186.1093221-.174915.153051-.306102.2186442-.524746.4810173-.74339.7871192-.306102.4591529-.677797.9183058-1.071357 1.3337298-.284237.2623731-.612204.415424-1.027628.415424-.218644 0-.437288 0-.655933-.0437288-.284237-.0218645-.5903389-.0874577-.8745764-.1311866-.3279664-.0437288-.6559327-.0874577-.9838991-.1749153-.3498307-.1093222-.7215259-.0874577-1.0713567 0-.1749153.0655932-.3716952.1093221-.5466105.1530509-.2623731.0437289-.5028818.153051-.721526.2842375-.1311865.0874577-.2405086.153051-.3716952.1967798-.5903394.2405087-1.1369499-.0437288-1.2462721-.6777971 0-.0437288 0-.1093221-.0218644-.1749154-.0655933-.3716952-.1093221-.7215259-.1749154-1.0932211-.0218644-.1749154-.0655932-.3279663-.0874577-.5028817-.0437288-.4372885-.1749153-.8527125-.3935596-1.2244077-.0874577-.153051-.1530509-.3061019-.1967798-.5028817-.0874577-.3279664-.0437288-.6777971.1311866-.983899.1311865-.2405087.3279663-.4154241.6122038-.4591529.1967798-.0437289.3498308.0218644.4591529.1749154.0874577.1311865.1311865.3061019.1530509.4810173v.4372884c-.0437288.3935596.0218645.7433904.153051 1.0932212.1749154.4591528.3716952.9183057.4810173 1.399323.0218644.0655933.0437288.1311865.0874577.1967798.0437288.0437289.0655933.1093221.1311865.153051.1311866.1311865.3061019.1749153.4810173.0874577.1967798-.0874577.2842375-.2186443.2842375-.4372885 0-.1311865-.0655933-.2623731-.1311865-.3716952-.1093221-.1530509-.2186442-.3061019-.3279664-.4372884-.1311865-.1749154-.2405086-.3498308-.3061019-.5466106-.1311865-.3716952-.1967798-.721526-.1967798-1.0932211 0-.2405087 0-.4591529 0-.6996616 0-.1967798-.0437288-.3935596-.1311865-.568475-.0437289-.1093221-.1311866-.1749153-.1967798-.2842374-.0874577-.1093222-.3061019 0-.3716952-.1749154-.1311865-.0874577-.3061019-.0874577-.4591529-.0655933-.0874577 0-.1749154.0218644-.2623731.0437288-.5466105.153051-.983899.4591529-1.3337297.8964414-.306102.3716952-.3716952.8089836-.1967798 1.2462721.0655932.1530509.1311865.3061019.2186442.4372884.1967798.3935596.3498307.8089837.4372884 1.2462721.0874577.3716952.1311866.7652548.2186443 1.1588144.0218644.2186442.0655932.4591529.1093221.6996615.1093221.4372885.3279663.8089837.6777971 1.0932212.2842375.2186442.6122038.3279663.9620346.2405086.1967798-.0218644.415424-.0874577.6122038-.1530509.1967798-.0655933.3935596-.153051.568475-.2186443.2186442-.0874576.4372885-.1749153.6559327-.2405086.3716952-.153051.7652548-.1749154 1.1806788-.1311865.2186442.0437288.4372885.0655932.6340683.1093221.5247461.0874577 1.0494923.1749154 1.5742387.2405086.874577.1311866 1.596103-.1311865 2.142713-.830848.218644-.2623731.459153-.5247462.677797-.8089837.306102-.4591529.677797-.8527125 1.093221-1.2244077.502882-.415424.830848-.9401701 1.005764-1.552374.131186-.415424.284237-.8089836.415424-1.2025432.109322-.2623731.218644-.5466106.306102-.8089836.19678-.6122039.240508-1.2244077.131186-1.8366116-.218644-1.2681365-.327966-2.5581374-.371695-3.8262739zm-16.8137409 9.5766171c.0218644 0 .0874577-.0218644.1530509-.0437288.2186442-.0437289.3716952-.1749154.5028817-.3279664.2405087-.2842375.4591529-.568475.6777971-.8527125.0655933-.0874576.1311866-.1967798.1749154-.3061019.0655933-.1311865.0218645-.2842375-.0874577-.3716952-.0218644-.0437288-.1093221-.0655932-.1311865-.0437288-.1093221.0437288-.1749154.0437288-.2623731-.0437289-.0218644-.0218644-.0874577-.0218644-.1530509 0-.1967798.0218645-.3498308.1311866-.4810173.306102-.1967798.2405086-.4154241.4810173-.6122039.7215259-.0874577.1093221-.1749153.1967798-.2405086.3279664-.1967798.3279663-.0437289.5903394.3498308.6340682zm2.9079682.7433904c-.0655933 0-.1311866.0218644-.1967798.0437288-.0437289-.0655932-.0655933-.1311865-.0874577-.1967798-.2623731-.0218644-.4810173.0437289-.6996615.1967798-.1967798.1311866-.3935596.3061019-.5028818.5247462 0 .0437288-.0218644.0874577-.0218644.1311865-.0655933.2405087.0655933.4810173.3279664.5466106.0437288.0218644.1311865.0218644.1749153.0218644.3935596-.0218644.7433904-.1749154.9620346-.5028817.1749154-.2186443.2405087-.4810173.0437289-.7652548zm-5.3130547-.6340683c.2842375 0 .5028817-.0655932.6559327-.2405086.0655932-.0437289.1093221-.1311866.1311865-.1967798.0655933-.1967798-.0218644-.3716952-.2186442-.4372885-.0655933-.0218644-.1093222-.0437288-.1749154-.0437288-.3279664-.0655933-.6340683 0-.8745769.262373-.1749154.1967798-.1311866.4372885.1311865.568475.1311865.0437289.2842375.0655933.3498308.0874577zm-.9620346-2.7549172c.1311865-.0437289.262373-.0655933.3935596-.1093221.1311865-.0437289.2405086-.153051.2842375-.2842375.0655932-.1967798-.0218644-.3498308-.1967798-.4154241-.1093221-.0218644-.2186443-.0655932-.3061019-.0874577-.2842375-.0437288-.5247462-.0218644-.7433904.1311866-.2405087.1749154-.2405087.415424 0 .568475.1749154.1093221.3498307.1749153.568475.1967798zm7.7181412 6.4718691c0-.2842375-.2623731-.4591529-.5466106-.4154241-.2842375.0655933-.5247461.3935597-.5466106.6777972 0 .2842374.1967798.4591528.4591529.415424.3279664-.0218644.6340683-.3498308.6340683-.6777971zm-1.3555942-10.3856008c.0218644.0437289.0437288.0874577.0437288.1311865.0218644.1967799.1749154.2842375.3279664.3716952.1530509.0874577.3061019.0218645.415424-.1093221.0655933-.0874577.0437288-.2405086-.0437289-.3498307-.1311865-.153051-.2842375-.2405087-.5028817-.1967798-.0437288 0-.0874577.0218644-.1311865.0218644-.1093221-.2623731-.1967798-.3498308-.3498308-.4372885-.1093221-.0655932-.2186442-.0874577-.3279663-.0655932-.1749154.0437288-.2405087.1967798-.1749154.3498307.1311865.2405087.3716952.3498308.6122038.3061019.0437289 0 .0874577 0 .1311866-.0218644zm8.658311-6.0783095c0 .2842375.043729.4810173.19678.6122038.174916.153051.371695.1311866.502882-.0437288.021864-.0437288.065593-.1093221.065593-.153051.021865-.1749153.065593-.3279663.065593-.4810173 0-.0655932-.043728-.1749153-.065593-.2405086-.065593-.1311865-.174915-.1967798-.349831-.1967798-.131186 0-.262373.0655933-.327966.1967798-.043729.1311865-.065593.2623731-.087458.3061019zm-13.0749244 10.6917027c.2186442 0 .415424-.0655933.5466106-.2405087.1530509-.1967798.0874576-.4372884-.153051-.5247461-.1093221-.0218644-.2186442-.0655933-.3279663-.0655933-.1967798 0-.3935596.0218645-.5466106.153051-.1967798.1749154-.1749154.3935596 0 .5247461.153051.1093221.3279663.153051.4810173.153051zm13.7527214-13.4466199c-.021864-.0437289-.021864-.153051-.065593-.2623731-.109322-.2623731-.415424-.2842375-.568475-.0655933-.153051.2405087-.19678.5247462-.109322.7871192.043729.153051.153051.2405087.306102.2405087.153051.0218644.240509-.0437289.306102-.1749154.109322-.153051.131186-.2842375.131186-.5247461zm-3.6732226 20.4650996c.0218645 0 .1093222-.0437289.1749154-.0874577.1749154-.1311866.2186442-.3061019.1967798-.5028817 0-.0874577-.0218644-.1749154-.1311865-.1749154-.0437289-.0218644-.0437289-.0655933-.0655933-.1311866 0-.0874576-.0655932-.1311865-.1749154-.1311865-.0655932.0218644-.1530509.0218644-.2186442.0655933-.2405086.1530509-.3279663.5903394-.1530509.830848.0874576.0874577.1749153.1311866.3716951.1311866zm-2.536273.3716952c.3279664 0 .6122038-.4372885.4810173-.7433904-.0874577-.1967798-.3279663-.3061019-.5247461-.1967798s-.3498308.3498307-.3279664.568475c.0218644.2186442.1749154.3716952.3716952.3716952zm-6.1439028-3.7606807c0-.1093222-.0218644-.1311866-.1749153-.1749154-.0218645-.0218644-.0437289 0-.0437289-.0218644-.1093221-.1093222-.2405086-.0874577-.3716952-.0655933-.1311865.0437288-.2405086.1093221-.3279663.2186442-.153051.1967798-.0874577.415424.1530509.5028817.1967799.0874577.5028818 0 .6559327-.1530509.0655933-.1093221.1311866-.1967798.1093221-.3061019zm13.5559424-13.5778065c-.021865-.0437289-.021865-.1093221-.043729-.1749154-.065593-.2405087-.327966-.3061019-.502882-.1311865-.19678.1749153-.240509.3935596-.19678.6340682.021865.153051.131187.2623731.284238.2842375.131186.0218644.262373-.0437288.349831-.1749154.065593-.1311865.087457-.262373.109322-.4372884zm-.743391-2.0989846c0-.2186442-.043729-.3498308-.131186-.415424-.131187-.1311866-.306102-.1311866-.415424.0218644-.153051.1967798-.174916.6340683-.043729.8527125.109322.1749154.327966.1967798.437288.0218644.043729-.0437288.065594-.0874577.087458-.1311865.021864-.1311866.043729-.2842375.065593-.3498308zm-11.500686 18.0818776c.2405087 0 .4810173-.153051.568475-.3935597.0218644-.0874576.0218644-.1530509 0-.2405086-.0437289-.0874577-.1093221-.0874577-.1749154-.0874577-.0218644 0-.0437288-.0218644-.0655933-.0437288-.0437288-.0655933-.1093221-.0655933-.1530509-.0437289-.2186442.0218644-.3716952.1311865-.4810173.3061019-.1311866.2623731 0 .5028818.3061019.5028818zm19.634252-7.2152595c.196779 0 .327966-.0874577.437288-.1967798.087458-.1093221.087458-.2623731-.021864-.3716952-.218645-.2405087-.612204-.1749154-.808984.0218644-.087458.1093221-.087458.2623731 0 .3716952.109322.1311865.262373.1530509.39356.1749154zm-9.161194-10.6261094c0-.1749154-.021864-.306102-.109322-.4154241-.109322-.1530509-.262373-.1530509-.393559 0-.021865.0437289-.043729.0655933-.065594.1093221-.0874572.2186443-.0874572.4372885 0 .6559327.065594.1749154.218645.2186442.371696.1093221.043729-.0437288.109322-.0874577.131186-.1530509.043729-.1093221.043729-.2186443.065593-.3061019zm5.531699 13.5340776c-.043728 0-.109322.0218644-.174915.0655933-.131187.0655932-.174915.1967798-.153051.3279663.065593.2623731.437289.4591529.699662.3279663.153051-.0874577.240508-.262373.153051-.3935596-.087458-.1749154-.218645-.3498307-.524747-.3279663zm6.034581-10.757296c.284238-.0218644.481017-.1749153.590339-.415424.109323-.2405086-.021864-.3935596-.262373-.3716952-.218644 0-.393559.1093221-.524746.2842375-.043729.0655933-.065593.1311865-.087457.2186442-.043729.1093222.021864.2186443.131186.2623731.043729 0 .109322.0218644.153051.0218644zm-3.585765 10.5605162s0-.0437289-.021865-.0874577c-.153051-.2842375-.54661-.3716952-.787119-.1967798-.131186.1093221-.153051.2623731-.065593.415424.131186.2186442.502882.3061019.721526.1967798.087457-.0655932.153051-.1530509.153051-.3279663zm-7.193395 4.7008509c0 .2186442.087457.3935596.240508.4810173.153051.0874576.306102.0655932.437289-.0437289.131186-.153051.131186-.3279663 0-.4810173-.021865-.0437288-.065593-.0874577-.087458-.1093221-.109322-.2405087-.39356-.2623731-.502882-.0437288-.065593.0655932-.065593.1749153-.087457.1967798zm-1.7491541-16.1796728c0 .1530509.0218644.2623731.0874577.3498307.1311865.1749154.3716954.1749154.4810174 0 .131186-.1967798.109322-.5466105-.043729-.7215259-.109322-.153051-.2842375-.153051-.3935596 0-.1093221.1093221-.1311865.2405086-.1311865.3716952zm7.1059371 9.7078036c-.153051 0-.284237.0655933-.371695.153051-.087458.1093221-.109322.2623731-.021864.3716952.131186.2186442.502881.2842375.699661.1093221.109322-.0874577.131187-.2405086.087458-.3498308-.087458-.1749153-.218644-.2842375-.39356-.2842375zm5.553564-7.1715306c-.284238.0437289-.481018.1311865-.59034.3498308-.109322.1749154-.021864.3279663.174916.3716952.262373.0655932.568475-.1311866.655932-.3716952.043729-.1093221.021865-.1967798-.065593-.2405087-.065593-.0655932-.131187-.0874577-.174915-.1093221zm-21.5801856 2.4269509c.1093221 0 .1967798-.0437288.2623731-.1530509.0437288-.0874577.0437288-.1749154-.0218644-.2623731-.0874577-.1749154-.2405087-.2842375-.4154241-.3279663-.0874577-.0218645-.1967798-.0218645-.2842375.0218644-.1093221.0655932-.1530509.1749154-.1093221.2842375.0655933.2186442.3498308.4372884.568475.4372884zm.3498308 1.4211875c.1530509 0 .262373-.0655933.3279663-.153051.0437289-.0655932.0655933-.1530509.0218644-.2186442-.0655932-.2186442-.3935596-.3935596-.6122038-.3279663-.2186442.0437288-.3061019.2405086-.1749154.415424.1093221.1749154.2842375.2623731.4372885.2842375zm16.3108588 2.1645778c.153051 0 .284238-.0655932.371696-.1749153.109322-.1311866.109322-.2623731-.021865-.3935596-.218644-.1967799-.612204-.1093222-.699661.1749153-.043729.1093221-.021865.1967798.065593.2842375.065593.0655933.174915.1093221.284237.1093221zm.9839.6777971c-.131187 0-.262374.0218645-.349831.1311866-.087458.0874577-.109322.2186442-.043729.3279663.174915.2186442.54661.2405087.721526.0437289.087458-.1093221.109322-.2623731.021864-.3716952-.087457-.1093221-.218644-.1311866-.34983-.1311866zm-2.186443 5.0506817c-.218644 0-.349831.1749154-.327966.3498307.043729.2623731.371695.4372885.612204.3498308.153051-.0655933.218644-.2623731.131186-.3935596-.043729-.0437288-.087457-.1093221-.109322-.153051-.087458-.1093221-.19678-.1311865-.306102-.1530509zm-2.82051.3935596c-.021865.2186442.174915.415424.393559.4372884.131187.0218645.218645-.0218644.284238-.1093221.087458-.1093221.087458-.2405086.021864-.3498307-.043729-.0655933-.087457-.153051-.174915-.1967798-.087458-.1093221-.218644-.1093221-.349831-.0655933-.131186.0437288-.174915.153051-.174915.2842375zm2.405086-22.8264573c0 .0218644 0 .1093221.021865.153051.021864.1093221.131186.1530509.240508.1093221.262373-.1093221.415424-.6122038.262373-.8527125-.043728-.0655933-.109322-.0874577-.174915-.0655933-.065593.0218645-.109322.0655933-.153051.1093222-.131187.1530509-.174915.3279663-.19678.5466105zm-2.689324-1.7928826c-.021864-.1093221-.021864-.2186443-.065593-.306102-.043729-.1530509-.19678-.1530509-.284238-.0437288-.131186.1967798-.196779.415424-.174915.6559327.021864.0655933.065593.1311865.087458.1967798.065593.0655933.153051.0655933.218644.0218644.043729-.0437288.087458-.0874577.109322-.1530509.043729-.1311866.087458-.2623731.109322-.3716952zm-11.7193303 21.3178121c.2405086 0 .415424-.153051.415424-.3498308 0-.1311865-.0655933-.1967798-.1967798-.2186442-.0437288 0-.0874577 0-.1093221-.0218644-.0874577-.0655933-.153051-.0655933-.2405087-.0218645-.0874577.0218645-.1749153.0874577-.2186442.1967798-.0655933.1093222-.0218644.2186443.0655933.306102.0874577.0874576.1967798.1311865.2842375.1093221zm13.1842473-19.9184891c-.021865-.0437288-.043729-.1530509-.065594-.2623731-.021864-.0655932-.131186-.0874576-.19678-.0437288-.043728.0218644-.087457.0437288-.109322.0874577-.131186.1749154-.196779.3935596-.196779.6122038 0 .0437289.021864.0874577.043728.1093221.043729.1093222.174916.153051.262373.0874577.043729-.0437288.087458-.0655932.131187-.1311865.087458-.1093221.109322-.2623731.131187-.4591529zm-5.2474619 24.7505265c.0218644.0218644.0218644.0874577.0437288.1530509.1093222.2186443.3935597.2623731.5466106.0874577.0437289-.0437288.0655933-.1530509.0874577-.2186442.0437288-.1749154-.1967798-.1967798-.1749154-.3498308 0-.0218644-.0437288-.0655932-.0874577-.0655932-.1093221-.0437289-.1967798-.0218645-.2842375.0437288-.1093221.0874577-.1311865.1967798-.1311865.3498308zm10.5386519-19.5249295c.174915 0 .19678 0 .284237-.0437288.174916-.1311865.284238-.3061019.306102-.5466106 0-.1530509-.131186-.2405086-.284237-.1967798-.174916.0655933-.306102.2186442-.39356.3935596-.065593.153051.021865.2623731.087458.3935596zm-14.0806884-6.4500047c0 .0655933 0 .1311866.0218644.1967799.0218645.1311865.0655933.262373.153051.3716951.1093221.1093222.2623731.0874577.3279663-.0655932.0218645 0 .0218645-.0437289.0218645-.0655933.0437288-.2623731-.0218645-.5028817-.2186443-.6996615-.0874576-.1093221-.2405086-.0655933-.262373.0874577-.0218645.0437288-.0437289.1093221-.0437289.1749153zm9.2049224 22.760864c-.240509 0-.39356.2186443-.284238.4372885.065593.153051.306102.2623731.459153.2186442.174915-.0437288.262373-.1967798.218644-.3498307-.043729-.1749154-.240508-.306102-.393559-.306102zm6.97475-5.9908518c.153051 0 .284238-.0437288.39356-.1530509.131187-.153051.109322-.3279664-.087458-.4154241-.153051-.0437288-.284237-.0218644-.415424.0218645-.153051.0655932-.240508.1967798-.240508.3279663.021864.1311865.174915.2186442.34983.2186442zm-17.4915377-16.7481477c-.0218645-.2623731-.0655933-.4810173-.2623731-.6559327-.0874577-.0874577-.2186442-.0437289-.2405087.0874577-.0655932.2623731 0 .5247461.1749154.7433904.0218644.0218644.0437289.0437288.0874577.0655932.0655933.0437289.153051.0218644.1967798-.0655932.0218644-.0655933.0437289-.1311866.0437289-.1749154zm-5.6191567 11.0415334s0-.0655933-.0218644-.1093221c-.1093221-.1749154-.2623731-.3061019-.4591529-.3498308-.0874576-.0218644-.1530509-.0218644-.2186442.0437289s-.0437288.1530509-.0218644.2186442c.0874577.1749154.2186442.3061019.3716952.3935596.0655932.0218644.1311865.0218644.1967798.0218644.0874577 0 .1749154-.0874576.1530509-.2186442zm1.6616962 4.4822067c.0437288-.1749154.0218644-.2842375-.1093221-.3935596-.1311866-.1093222-.2842375-.1749154-.4591529-.1311866-.1093221.0218644-.1749154.1311866-.153051.2405087.0218644.0437288.0437289.1093221.1093221.1749154.153051.1749153.3716952.262373.6122039.1093221zm5.7066143 1.4211874c0-.1749153-.1749154-.3498307-.3716952-.3498307-.153051 0-.2842375.1311865-.2842375.2842375 0 .1749154.1967798.3498307.3716952.3498307.1530509 0 .2842375-.1311865.2842375-.2842375zm8.2647519 9.3798374c0-.0218645 0-.0655933-.021865-.0874577-.021864-.0655933-.065593-.1093221-.109322-.1749154-.065593-.1311865-.196779-.153051-.327966-.1311865-.131187.0655932-.19678.1967798-.174915.3279663.043728.1749154.196779.3279663.371695.3498308.131186 0 .262373-.1093222.262373-.2842375zm-4.4822068-27.1337486c0 .0437289 0 .1311866.0437288.2186443.043729.1093221.218644.1311865.262373.0218644.131187-.2405087.153051-.4810173.043729-.721526-.021864-.0437288-.087458-.1093221-.131187-.1093221-.065593-.0218644-.109322.0437289-.131186.0874577-.0874578.1311865-.0874578.2842375-.0874578.5028817zm11.5881438 19.3500141c.19678 0 .327967-.0437289.415424-.153051.065594-.0874577.065594-.1749153-.021864-.262373-.153051-.1749154-.502882-.153051-.634068.0655932-.065594.0874577-.065594.2186443.043728.2623731.065594.0437288.153051.0655933.19678.0874577zm-26.1279849-1.552374c.0218645-.0218644.0874577-.0218644.153051-.0437289.1530509-.0874577.1530509-.2186442.0437288-.3279663-.1749153-.1093221-.3716952-.1311865-.568475-.1093221-.1311865.0218644-.1530509.1749154-.0874576.2623731.1093221.1311865.2405086.1967798.4591528.2186442zm-1.8147471-.6996615c-.0655932.0218644-.1093221.0218644-.1749153.0437288-.0874577.0218644-.1311866.1311865-.0655933.2186442.1311865.1749154.3061019.2405087.5028817.2186443.0655933 0 .1311866-.0437289.1967798-.0655933.0655933-.0655933.0874577-.153051.0218644-.2186442-.0437288-.0655933-.1093221-.1093222-.1967798-.1311866-.0874576-.0218644-.1749153-.0437288-.2842375-.0655932zm28.751716-1.4649164c.109322 0 .240509-.0655932.349831-.1749153.109322-.153051.043728-.306102-.131187-.3498308-.153051-.0218644-.306102.0437288-.415424.1311865-.087458.0655933-.131186.1311866-.109322.2405087s.109322.1530509.218644.1530509zm-23.0888305 1.2025433c.1311866 0 .2186442-.0437289.2623731-.1311866.0218644-.0655932.0218644-.1311865 0-.1967798-.0874577-.1311865-.3716952-.262373-.5247462-.2186442-.1311865.0218644-.1749153.153051-.1311865.2623731.0874577.1749154.2405087.2623731.3935596.2842375zm-.1093221-4.0667826c-.0218644-.0218645-.0218644-.0874577-.0437288-.1311866-.1093222-.1311865-.2405087-.2405086-.3935596-.2842375-.0874577-.0218644-.153051-.0218644-.1967799.0437289-.0655932.0437288-.0655932.1311865-.0218644.2186442.0874577.153051.1967798.2405087.3498308.3061019.0437288.0218645.1093221.0218645.1311865.0218645.0874577 0 .153051-.0874577.1749154-.1749154zm12.4627206-3.1484769c.021865.0437289.043729.1311865.087458.1967798.065593.0874577.174915.0874577.240509.0218644.131186-.1311865.196779-.4372884.087457-.5903394-.065593-.1311865-.218644-.1311865-.306102 0-.065593.0874577-.109322.2186442-.109322.3716952zm-11.8286523 5.4661057c.0437288 0 .0655932 0 .0874577-.0218645.1749153-.0218644.2405086-.1749153.1093221-.2842374-.0874577-.0874577-.1967798-.1749154-.306102-.2186443-.0437288-.0437288-.1311865-.0218644-.1967798-.0218644-.0874576.0218644-.1530509.1311865-.1093221.2186442.0874577.1749154.2186443.2842375.4154241.3279664zm3.3452566.4372884c-.0655932 0-.1530509.0218644-.1967798.1093221-.0437288.0655933-.0437288.153051.0218644.2186443.0437289.0874577.1093222.1530509.1967799.1967798.0655932.0655932.1530509.0655932.2405086.0437288.0874577-.0437288.153051-.1530509.1311865-.2405086-.0218644-.153051-.2405086-.3279664-.3935596-.3279664zm-3.8262739-.1967798c-.1749154 0-.2842375.1093221-.2405087.2186442.0655933.1749154.2842375.3279664.4591529.306102.1530509 0 .2405086-.153051.1530509-.2842375-.0874576-.153051-.2405086-.2405087-.3716951-.2405087zm.2842375-1.8147471c-.0218645-.0218644-.0218645-.0655932-.0437289-.0874577-.0874577-.1530509-.2186442-.2405086-.3935596-.2842374-.0655933-.0218645-.1311865 0-.1749154.0437288-.0437288.0655933-.0437288.1311865 0 .1967798.0655933.153051.1967798.2623731.3279664.3061019.0437288.0218644.0874577.0218644.1311865 0 .0655933 0 .1311865-.0655932.153051-.1749154zm.5028817.6559327c-.0218644-.0437288-.0218644-.0874577-.0655933-.1311865-.1093221-.1311866-.2405086-.2186442-.415424-.2405087-.0655933-.0218644-.1093221 0-.153051.0655933-.0437288.0437288-.0437288.1311865 0 .1749154.0874577.1093221.1749154.1967798.2623731.2842375.0655933.0218644.153051.0218644.2405086.0218644.0655933 0 .1093222-.0874577.1311866-.1749154zm1.0932211 6.0783095c.0437289 0 .1093221 0 .1749154-.0437288.0655933-.0437289.1093221-.1311866.0874577-.2186443 0-.1093221-.0655933-.1749153-.1749154-.1749153-.0655933-.0218645-.153051-.0437289-.2186442-.0437289-.1093221 0-.1967798.0655933-.2405087.1749154-.0218644.0874577.0218644.153051.0874577.1967798.0655933.0874577.153051.1093221.2842375.1093221zm12.3971273.0874577c0-.1311865-.153051-.2623731-.284237-.2623731-.153051.0218645-.284238.153051-.284238.306102.021865.1093221.174916.2405086.306102.2186442.153051 0 .262373-.1311866.262373-.2623731zm-1.596102-2.0771201c.15305 0 .284237-.153051.262373-.2842375 0-.1311866-.131187-.2405087-.240509-.2405087-.153051 0-.306102.153051-.284238.3061019 0 .1311866.131187.2405087.262374.2186443zm7.718141 2.4925441c-.043729 0-.131187.0437289-.19678.0874577-.087458.0655933-.087458.2186443.021864.2623731.043729.0437289.131187.0655933.218645.0874577.131186.0218644.306101-.0874577.306101-.2186442 0-.1093221-.15305-.2405087-.34983-.2186443zm-19.7217095-3.4327143c.0437288 0 .1093221 0 .1530509-.0218644.0874577-.0437289.1093221-.153051.0874577-.2405087-.0655933-.1093221-.3498307-.2405086-.5028817-.1967798-.0655933.0655933-.1093221.153051-.0655933.2186442.0655933.1311866.1749154.2186443.3279664.2405087zm17.8632335 6.4281402c-.021865 0-.087458.0218645-.131187.0218645-.087457.0655932-.109322.1530509-.087457.2405086.087457.1749154.327966.2623731.481017.153051.065593-.0437289.087458-.0874577.087458-.153051-.021865-.1311865-.174916-.2623731-.349831-.2623731zm2.011527-1.246272c-.043729.0218644-.109322.0218644-.174916.0437288-.087457.0655933-.109322.1749154-.043729.2623731.087458.1093221.262374.1749154.415424.1093221.131187-.0437289.153051-.1749154.087458-.2842375-.065593-.0874577-.153051-.1311865-.284237-.1311865zm1.421187-1.3774587c.043729-.0218644.109322-.0218644.153051-.0437288.131187-.0655933.153051-.2186442.021865-.3061019-.087458-.0874577-.218645-.1093221-.349831-.0655933-.065594.0437288-.131187.1093221-.131187.1967798 0 .0655933.043729.153051.153051.1749154.043729.0218644.087458.0437288.153051.0437288zm-11.6537371 7.4120393c-.0437289-.1093221-.0874577-.1967798-.153051-.2623731-.0218644-.0218644-.0437288-.0218644-.0655933-.0218644-.0874577 0-.1530509.0655933-.1749153.153051-.0437289.1093221 0 .1967798.0874576.262373.0655933.0437289.153051.0437289.2186443-.0218644.0218644-.0218644.0437288-.0874577.0874577-.1093221z"
          fill="#e6594c" transform="translate(-83 -58)"/>
</svg>