<svg height="28" viewBox="0 0 32 28" width="32" xmlns="http://www.w3.org/2000/svg">
    <path d="m321.768051 72.9811057c0-.0218644-.021864-.0218644-.043729-.0437288h.021865c0 .0218644.021864.0218644.021864.0437288.065593-.1530509.131186-.2842375.19678-.415424.131186-.2842375.262373-.5247461.459153-.7652548.196779-.2842375.437288-.4810173.74339-.6122038.39356-.1749154.787119-.2623731 1.224408-.2623731.655932 0 1.268136.153051 1.836611.4810173.087458.0437288.174916.0655933.240509.0874577.065593.0874577.153051.1530509.19678.2405086.109322.1093221.196779.2405087.284237.3716952.131187.1967798.087458.3935596-.065593.5903394-.153051.153051-.306102.3279664-.481017.4810173-.262374.2186443-.524747.4372885-.808984.6340683-.262373.2186442-.524746.4372884-.787119.6559327-.153051.1093221-.306102.1749154-.481018.2186442-.262373.0655933-.502881-.0218644-.721526-.1749154-.043728-.0437288-.087457-.0874577-.109322-.1311865-.065593-.1967798-.109322-.3935596-.021864-.5903394.087458-.2405087.240509-.4154241.459153-.5466106.153051-.0655933.306102-.1311865.481017-.1967798.131187-.0655933.262373-.1311865.39356-.1967798.131186-.0655933.240508-.1749154.306102-.3061019.174915-.2842375.043728-.5903394-.284238-.6340683-.109322-.0218644-.218644 0-.306102.0218644-.327966.0655933-.568475.2405087-.808983.4372885-.502882.5028817-.808984 1.1150855-.896442 1.8147471-.021864.262373-.021864.5028817.043729.7652548.043729.2186442.174915.3716952.349831.4810173.218644.1093221.437288.1530509.677797.0874577.415424-.0655933.808984-.2623731 1.158814-.5028818.39356-.2405086.78712-.5247461 1.158815-.8089836.415424-.2842375.765255-.6559327 1.049492-1.0713567.065593-.0874577.153051-.1967798.218644-.2842375.19678-.2405087.437289-.415424.743391-.5028817.109322-.0437289.196779-.0655933.306102-.0874577.393559-.1311866.765254-.3061019 1.093221-.5903394.240508-.2405087.459153-.4810173.590339-.8089837.19678-.4810173.19678-.9401701-.19678-1.3555942-.131186-.1530509-.262373-.2842375-.393559-.415424-.39356-.3716952-.459153-.7871192-.240509-1.2244077.087458-.1749154.174915-.3716952.240509-.568475.065593-.1530509.109322-.3279663.153051-.5028817.043728-.2186442 0-.415424-.131187-.568475-.174915-.2405086-.393559-.415424-.655933-.5466105-.34983-.1749154-.721526-.2842375-1.093221-.3498308-.54661-.1093221-1.071356-.2405087-1.596103-.415424-.415424-.1311866-.830848-.1311866-1.246272-.0874577-.634068.0874577-1.224407.2842375-1.792882.568475-.240509.1093221-.459153.2405086-.699662.3498307-.240508.1093221-.502882.1749154-.765255.2186443-.284237.0437288-.568475-.0218645-.830848-.153051-.306102-.1967798-.371695-.5247462-.306102-.8089836.043729-.1749154.131187-.3498308.240509-.4810173.306102-.3498308.612204-.6777971.94017-1.0057635.284238-.2623731.524746-.5247461.743391-.830848.109322-.1967799.196779-.3935597.306102-.5903395.065593-.1530509.087457-.3061019.109322-.4810173 0-.0655932 0-.1530509-.021865-.2186442-.065593-.2186442-.262373-.3279663-.481017-.2405086-.109322.0437288-.19678.1311865-.262373.2186442-.065593.1311865-.153051.2623731-.240509.3935596-.087458.153051-.153051.3279663-.240508.4810173-.19678.3279663-.437289.568475-.721526.8089836-.19678.153051-.39356.306102-.524747.5247462-.306101.4372884-.481017.9183057-.502881 1.4430519-.021865.5247461-.043729 1.0713567-.065594 1.5961028 0 .1749154.021865.3498308.043729.5466106.021865.3061019.174916.5466106.306102.8308481.131187.2405086.174916.5028817.174916.7871192-.021865.6122038-.19678 1.1806788-.481018 1.7054249-.131186.2623731-.262373.5028818-.393559.7433904-.087458.1749154-.153051.3498308-.218645.5247462-.043728.1093221-.087457.2405086.021865.3716951-.131187.1093222-.153051.2623731-.174915.4154241-.021865.1530509-.065594.3061019-.109323.4591529-.196779.5028817-.765254.6777971-1.202543.3498307-.087458-.0655933-.131186-.1530509-.131186-.2405086-.021865-.1967798.021864-.3716952.065593-.5466106.065593-.2405087.153051-.4810173.19678-.721526.087457-.4372884.240508-.8527124.437288-1.246272.109322-.2623731.218644-.5466106.327966-.8308481.087458-.2623731.131187-.568475.065594-.8527125-.043729-.1749154-.087458-.3716952-.153051-.5466106-.131187-.3061019-.19678-.6559326-.262373-.983899-.087458-.5028817-.174916-.983899-.262373-1.4867807-.087458-.4591529-.153051-.9183058-.240509-1.3993231-.109322-.6122038-.087458-1.2244076-.043729-1.8366115.021865-.1967798 0-.3935596-.021864-.568475-.021865-.1530509-.109322-.3061019-.218645-.3935596-.109322-.1093221-.262373-.1311865-.393559-.0437288-.065593.0437288-.131187.1093221-.174915.1749154-.087458.1311865-.109323.262373-.109323.415424s.021865.3279663.021865.4810173c.021864.3279663.109322.6340683.131186.9401702.065594 1.1588144.218645 2.2957644.546611 3.4108499.043729.153051.087458.3279663.131186.5028817.043729.2186443.021865.4372885-.109322.6340683-.131186.2405086-.34983.3935596-.612203.4810173-.327967.0874577-.612204 0-.852713-.2405087-.065593-.0437288-.109322-.1311865-.109322-.2186442-.021865-.1311865-.043729-.2842375-.043729-.4372884-.021864-.5903395-.131186-1.1588144-.349831-1.705425-.153051-.3498308-.306102-.721526-.437288-1.0932211-.262373-.6559327-.502882-1.3118654-.612204-2.0115269-.021864-.0874577-.065593-.1749154-.087458-.2842375-.043729-.1749154-.153051-.3279664-.262373-.4591529-.19678-.1967798-.459153-.153051-.590339.0874577-.065593.1093221-.087458.2186442-.065593.3498308.021864.1093221.043728.262373.087457.3935596.043729.1311865.109322.2842375.174916.4372884.109322.3061019.262373.5903394.371695.8745769.153051.4154241.306102.8527125.459153 1.2681365.240508.6559327.481017 1.3118654.721526 1.9677981.065593.1530509.109322.3061019.131186.4591529.021865.3061019-.153051.5466105-.459153.6340682-.218644.0655933-.437288.0218644-.655932-.0874577-.349831-.1967798-.568475-.5028817-.699662-.8745769-.218644-.5247461-.459153-1.0494923-.765255-1.552374-.196779-.3061019-.437288-.5903394-.74339-.8308481-.218644-.1967798-.481017-.3061019-.765255-.3279663-.808983-.1093221-1.508645.1311865-2.098984.6996615-.415424.3716952-.655933.8527125-.874577 1.3774587-.218645.5903394-.306102 1.2244076-.284238 1.8803403.021865.4372885.021865.8745769-.043729 1.3118654v.1311865c0 .415424.19678.7215259.524746.9401702.131187.1093221.284238.1093221.437289.0437288.153051-.0874577.218644-.2405086.19678-.415424 0-.0874577-.021865-.1967798-.065594-.3061019-.043728-.1311866-.109322-.2405087-.174915-.3498308-.174915-.3935596-.262373-.8089836-.218644-1.2244077.043729-.3716951.087458-.7433903.174915-1.0932211.153051-.568475.39356-1.0932211.787119-1.5086452.306102-.3061019.634069-.5028817 1.049493-.5684749.109322 0 .19678-.0218645.284237-.0218645.021865-.0874577.065593-.1530509.065593-.2186442s-.021864-.1311865-.021864-.2186442c.043729 0 .065593 0 .109322.0218644.131187.0218644.153051.1093221.087458.2186442-.043729.0655933-.087458.1093221-.065593.2186443.065593.0218644.153051.0437288.218644.0437288.349831.1093221.634068.3061019.830848.6340683.109322.1749153.19678.3498307.306102.5466105.087458.1749154.174915.3716952.262373.5466106.19678.415424.415424.830848.699661 1.1806788.306102.3716952.699662.6340683 1.180679.6777971.174916.0218644.349831.0655933.502882.1093221.153051-.1093221.284237-.2186442.437288-.2842375.39356-.1530509.78712-.0655932 1.093222.2186443.153051.1311865.240508.3061019.306101.4591528.109323.2623731.19678.5247462.240509.8089837.043729.3935596 0 .7871192-.131186 1.1588144-.109323.3716952-.371696.568475-.743391.6122038-.109322.0218644-.240508 0-.349831 0-.131186-.0218644-.262373-.0437288-.393559-.0655933-.39356-.0655932-.787119-.0874576-1.202543-.0437288-.19678.0437288-.415424.0437288-.612204.0218644-.240509 0-.437289-.1093221-.59034-.2623731-.043729-.0218644-.065593-.0655932-.087457-.1093221-.021865-.1967798-.021865-.3935596.153051-.5247461.087457-.0655933.174915-.153051.262373-.2186442.043729-.0218645.087457-.0437289.131186-.0437289.39356-.0655932.765255-.0437288 1.13695.0874577.131187.0437289.262373.0874577.39356.1311865.109322.0218645.19678.0437289.284237.0437289.262373.0218644.459153-.1311865.524746-.3716952.087458-.3498308-.087457-.6996615-.415424-.8089836-.109322-.0437289-.240508-.0437289-.34983-.0437289-.524746-.0218644-1.027628.0437289-1.552374.1967798-.153051.0437289-.327967.1093221-.481018.153051-.284237.0874577-.568475.1311865-.852712.0874577-.39356-.0437289-.721526-.1967798-.962035-.5028817-.021864-.0437289-.065593-.0874577-.065593-.1311866-.043729-.3279663-.065593-.6559327-.109322-.9620346-.021865-.2186442-.021865-.4372884-.065593-.6340682-.043729-.2623731-.174916-.4591529-.39356-.6122039-.218644-.1967798-.546611-.0655932-.612204.2186443-.043729.1530509-.021864.3279663.021865.4591528.043728.153051.109322.3061019.174915.4591529.087458.2405087.218644.4810173.306102.721526.043729.1311865.109322.262373.153051.3935596.109322.3716951.043729.6777971-.218644.983899-.109322.1093221-.218645.2405086-.349831.3498307-.284238.2842375-.568475.568475-.808984.8527125-.174915.2186443-.371695.4372885-.568475.6122039-.459153.4591528-1.027628.6559326-1.661696.568475-.19678-.0218645-.39356-.0437289-.568475-.0874577-.174915-.0218645-.327966-.0655933-.481017-.0655933-.153051-.0218644-.284238.0218644-.415424.1093221-.131187.0874577-.19678.2405087-.109322.3935596.043729.0874577.087457.153051.174915.2186442.153051.153051.349831.2405087.568475.2623731.459153.0655933.94017.0874577 1.421188.0218644.043728-.0218644.087457-.0218644.131186-.0218644.262373 0 .502882-.0655933.74339-.1311865.262373-.0874577.502882-.2186442.699662-.4154241.568475-.6122038 1.158814-1.1806788 1.574238-1.9022047.262373-.4591529.677797-.6340683 1.224408-.5903394.19678.0218644.327966.1093221.437289.2842375.218644.2842375.218644.6340682-.021865.9183057-.087458.1093221-.19678.1967798-.327966.2842375-.131187.1093221-.284238.1967798-.437289.2623731-.415424.2405086-.787119.5466105-1.049492.9620346-.043729.0874577-.109322.1749154-.174915.262373-.131187.2405087-.306102.4372885-.481018.6340683-.153051.1749154-.34983.3279663-.524746.4372885-.568475.3935596-1.202543.5684749-1.858476.5903394-.174915 0-.349831-.0218645-.524746 0-.153051.0218644-.284237.0437288-.415424.1093221-.306102.1311865-.327966.4372884-.065593.6340682.087457.0655933.19678.1093222.306102.153051.131186.0655933.306102.0437288.437288.0218644.153051-.0218644.306102-.0437288.459153-.0874577.306102-.0655932.612204-.1530509.896441-.2405086.415424-.1093221.808984-.2186442 1.180679-.3935596.306102-.153051.546611-.3716952.743391-.6340683.240508-.3279663.481017-.6340682.74339-.9401702.240509-.3279663.524746-.6122038.830848-.8964413.39356-.3498308.852712-.5247461 1.355594-.5247461h.502882c.131186 0 .262373.0218644.349831-.0437289.109322.0218644.174915.0874577.262373.0874577.415424.0218644.830848.0655933 1.246272.0874577.19678.0218644.415424.0218644.612204.0437288.327966.0437289.590339.2186443.808983.4372885.240509.2405087.459153.4810173.721526.721526.481018.4591528.721526 1.0494922.830848 1.7054249.043729.3279664.021865.6559327-.174915.9620346-.174915.2842375-.415424.4810173-.721526.6340683-.218644.0874577-.415424.1311865-.655933.0655932-.174915-.0437288-.371695-.1311865-.524746-.262373-.437288-.3498308-.896441-.6777971-1.33373-1.0276279-.327966-.2842375-.699661-.4810173-1.093221-.6122038-.109322-.0218645-.218644-.0437289-.306102-.1093221-.153051-.0655933-.284237-.1311866-.437288-.2186443-.174915-.1311865-.19678-.3716952-.043729-.5466105.043729-.0874577.153051-.153051.240509-.1967798.174915-.0874577.371695-.1093222.590339-.0874577.284238.0218644.546611.0874577.808984.2186442.19678.0874577.393559.1967798.590339.3061019.153051.0874577.306102.1749154.481017.2186442.153051.0437289.284238.1311866.371696.2623731.021864.0437289.043729.0874577.065593.1311865.174915.2405087.437288.2623731.634068.0655933.065593-.0655933.131187-.1530509.218644-.2186442-.043728-.0655933-.087457-.1093221-.131186-.1749154-.087458-.0655933-.153051-.153051-.218644-.2186442-.284238-.2186442-.546611-.4591529-.830848-.6559327-.19678-.153051-.39356-.2842375-.634069-.3498308-.481017-.1749153-.962034-.2842375-1.48678-.2842375-.174916 0-.371696.0437289-.568475.0655933-.131187.0218644-.262373.0655933-.371696.1749154-.065593.0655933-.131186.1093221-.218644.0874577-.043729-.0218644-.109322 0-.131186.0218644-.087458.0437289-.19678.1093221-.262373.1749154-.327967.3279663-.327967.6996615-.021865 1.0276279.087458.0874576.19678.1530509.306102.2186442.415424.2623731.852713.5247461 1.268137.7652548.327966.1967798.677797.3935596.962034.6122038.284238.2405087.59034.415424.874577.6340683.153051.1093221.327966.1967798.481017.2842375.459153.262373.655933.6559326.612204 1.1806788 0 .0437288 0 .1093221-.021864.1530509 0 .1749154-.021865.3716952-.021865.568475-.021864.3935596-.021864.8089837-.043728 1.2025433-.021865.3061019-.043729.5903394-.131187.8964413-.218644.6559327-.634068 1.13695-1.268137 1.4211875-.34983.1749154-.721525.2405086-1.115085.2405086-1.13695.0218645-2.186442-.262373-3.126613-.9183057-.284237-.2186442-.568475-.4154241-.74339-.6996615-.327966-.4810173-.590339-1.0057635-.74339-1.5523741-.284238-1.0057634-.043729-1.8803403.655932-2.6018663.546611-.5684749 1.180679-.6559326 1.902205-.3935596.306102.1093222.59034.2842375.830848.4810173.39356.2842375.721526.5903394 1.049493.9401702.174915.1749154.34983.3935596.459152.6340683.174916.3935596.218645.8089836.043729 1.2462721-.19678.4810173-.634068.7652548-1.13695.7433903-.34983 0-.634068-.1749153-.918305-.3716952-.021865 0-.043729-.0437288-.065594-.0655932-.153051-.3061019-.262373-.6340683-.109322-.983899.021865-.1093222.087458-.2186443.131187-.3498308.065593-.1311865.087457-.2842375.087457-.4372885-.021864-.2405086-.240508-.5028817-.481017-.5684749-.306102-.0874577-.634068.0655932-.74339.3935596-.043729.1093221-.065594.2405086-.065594.3716951-.021864.2186443.021865.4591529.087458.6777971.174916.4372885.39356.8527125.655933 1.2462721.306102.3935596.721526.6122039 1.202543.6996616.327966.0437288.634068.0437288.94017-.0655933.153051-.0437288.327967-.1093221.481018-.1967798.371695-.2405087.590339-.6122038.699661-1.0494923.131187-.4372884.131187-.8964413.021864-1.3555942-.043728-.2186442-.131186-.415424-.284237-.5466106-.065593-.0655932-.087458-.1311865-.153051-.1749153-.109322-.1311866-.19678-.2405087-.306102-.3498308-.218644-.1749154-.459153-.3498308-.677797-.5466106-.371695-.3498307-.787119-.6122038-1.246272-.8527125-.153051-.0655932-.306102-.1530509-.459153-.2186442-.109322-.0655933-.240509-.1093221-.349831-.1749154-.415424-.1530509-.787119-.1311865-1.180679.0218645-.393559.1530509-.74339.3935596-1.049492.6777971-.349831.3498307-.590339.7652547-.721526 1.2244076-.043729.1093221-.065593.2186443-.087457.3279664-.153051.6777971-.109323 1.3118653.174915 1.9459336.174915.4372884.415424.830848.677797 1.2025432.371695.5247462.830848.9838991 1.377459 1.3337298 1.071356.6340683 2.252035.9183058 3.498307.8745769.721526-.0437288 1.377459-.2842375 1.924069-.7433904.524747-.4591528.852713-1.0276278.918306-1.7272893.021865-.1967798.043729-.3716952.043729-.5466106 0-.7433904 0-1.4649163 0-2.1864423 0-.4372884.174915-.7652548.546611-.983899.153051-.0874577.306102-.153051.459153-.2623731.15305-.0874577.327966-.1749153.481017-.2842375.327966-.2405086.459153-.568475.393559-.983899-.043728-.1530509-.065593-.2842375-.109322-.415424-.131186-.4372885-.284237-.8745769-.415424-1.290001-.153051-.4372884-.174915-.8964413-.065593-1.3337297 0-.1093221.043729-.2186443.065593-.3279664.174916-.5028817.327967-1.0057634.502882-1.4867807.131187-.3716952.327966-.721526.502882-1.0713567.087457-.1967798.240508-.3935596.34983-.5903394.218645-.3935596.306102-.8089837.262374-1.2681366-.021865-.1311865-.021865-.262373-.021865-.415424-.021864-.3061019.065593-.568475.262373-.8089836.131187-.1311866.240509-.2842375.349831-.4154241.327966-.3935596.74339-.6777971 1.224408-.830848.415424-.153051.852712-.3061019 1.268136-.4372885.59034-.2186442 1.180679-.2405086 1.792883-.1093221.524746.1311866 1.027628.2405087 1.552374.2842375.153051 0 .306102.0437289.459153.0655933.371695.0874577.655932.3279663.830848.6777971.065593.1530509.109322.2842375.065593.415424-.065593.3935596-.262373.6777971-.655933.7871192-.218644.0655933-.437288.0655933-.655932.0437289-.262373-.0437289-.502882-.1311866-.743391-.2186442-.218644-.1093222-.437288-.2186443-.677797-.306102-.393559-.1749153-.808983-.2842375-1.246272-.2405086-.612204.0655933-1.180679.2405086-1.749154.4810173-.131186.0655933-.262373.1530509-.371695.2405086-.174915.1311866-.306102.3061019-.349831.5028818-.021864.0874576-.043729.1967798-.043729.2842374.021865.2405087.174916.3716952.39356.3498308.131187 0 .262373-.0437288.349831-.1093221.153051-.0874577.306102-.1967798.437288-.2842375.546611-.3716952 1.13695-.4591529 1.771019-.3061019.284237.0655933.524746.1749154.787119.2842375.437288.1749154.874577.2405086 1.355594.1967798.19678-.0218644.39356-.0218644.590339-.0218644.218645.0218644.415424.0655932.59034.1967798.393559.2842375.612204.6996615.655932 1.2025432.021865.153051-.021864.3061019-.131186.4372885-.174915.2405086-.39356.3935596-.655933.5028817-.612204.2623731-1.158814.0655933-1.508645-.4810173-.109322-.1749154-.240509-.3498308-.371695-.4810173-.087458-.1093221-.19678-.1967798-.327966-.2623731-.19678-.1093221-.415424-.1967798-.634069-.2405086-.590339-.1093221-1.180679-.0655933-1.749154.0218644-.043728.0218644-.087457.0437288-.131186.0437288-.327966.0218645-.634068.1093221-.918306.1967798-.284237.0655933-.524746.2186443-.699661.4372885-.087458.1093221-.19678.2186442-.262373.3279663-.371696.568475-.677797 1.1588144-.918306 1.7928827-.218644.568475-.306102 1.1588144-.284238 1.7491538.021865.7652548.240509 1.4867807.502882 2.2083067.065593.2405086.240509.415424.437289.5466106.109322.0874577.240508.1311865.371695.1311865.153051 0 .306102 0 .459153-.0218644.153051 0 .306102 0 .459152-.0218644.065594 0 .109323.0437288.109323.1311865-.043729 0-.087458.0218644-.131187.0218644-.087458.0218644-.19678.0218644-.306102.0218644-.109322-.0218644-.262373-.0437288-.349831.0655933 0 .0218644-.021864.0218644 0 .0437288 0 .0218645.021865.0437289.043729.0655933.284238.2623731.437289.5903394.546611.9620346.087457.3498308.218644.6559327.393559.983899.131187.2186443.240509.4591529.349831.6777971.131187.2842375.218644.568475.240509.8745769.065593.6340683-.043729 1.2462721-.459153 1.7491539-.39356.5028817-.918306.7215259-1.574239.6122038-.218644-.0437289-.415424-.153051-.590339-.2623731-.218644-.1093221-.371695-.2842375-.481017-.5028817-.306102-.5903394-.502882-1.2244077-.655933-1.8803404-.043729-.1967798-.065593-.3935596-.109322-.5903394-.021864-.1967798 0-.3935596.087458-.5903394.087457-.2405086.262373-.3716952.524746-.3935596.240508-.0437288.459153.0437289.612204.2623731.109322.1530509.174915.3061019.218644.5028817.021864.1749154.021864.3279663.043729.5028817.021864.1749154.043729.3279664.065593.4810173.065593.2186443.174915.3498308.371695.4154241.284238.1093221.568475-.0655933.59034-.3498308 0-.1093221 0-.2186442-.043729-.3279663-.021865-.1093222-.087458-.1967798-.131187-.306102-.153051-.3498307-.327966-.6777971-.481017-1.0057634-.065593-.153051-.109322-.2842375-.153051-.415424-.087458-.153051-.19678-.2842375-.306102-.4154241-.284237-.262373-.612204-.3279663-.962035-.1749153-.087457.0437288-.174915.0874576-.262373.1530509-.459153.3716952-.74339.8527125-.765254 1.4430519-.021865.3935596.021864.7652548.087457 1.13695.087458.5466106.240509 1.0713567.481018 1.5742384.131186.2842375.306101.5466106.524746.7652548.174915.1967798.393559.3279664.634068.4372885.874577.3061019 1.683561.1749153 2.448815-.3498308.065594-.0437288.131187-.1093221.174916-.1749154.043729-.0874577.109322-.1530509.196779-.1967798.043729-.0218644.087458-.0874577.109323-.1311865.502881-.6777971.721526-1.4211875.54661-2.2739-.087458-.4372884-.218644-.830848-.459153-1.2025432-.153051-.2623731-.306102-.5247462-.437288-.8089837-.131187-.1967798-.218644-.415424-.284238-.6559326-.065593-.3279664.043729-.5903395.327967-.7652548.109322-.0655933.218644-.1093221.327966-.153051.153051-.0437288.327966-.0874577.481017-.1093221.349831-.0874577.721526-.1967798 1.049493-.3498308.94017-.4372884 1.836611-.8964413 2.558137-1.6179672.131187-.1093222.262373-.1967799.39356-.2842375.087457-.0655933.174915-.1311866.262373-.1749154.524746-.2623731 1.049492-.1967798 1.530509.1093221.437289.2623731.677797.8964413.371696 1.4649163-.109323.1967798-.240509.415424-.349831.5903394-.174916.2623731-.327967.5028817-.481018.7652548-.174915.3061019-.34983.6340683-.524746.9401702-.174915.2842375-.34983.5466106-.568475.7871192-.306102.3061019-.677797.5247461-1.093221.6340683-.371695.0874577-.721526 0-1.027628-.2186443-.043729-.0218644-.087457-.0437288-.109322-.0874577-.218644-.3716951-.19678-.7652547.131187-1.0494922.087457-.0874577.218644-.1311866.349831-.1749154.131186-.0655933.262373-.1093221.393559-.1749154.109322-.0437289.218644-.1311865.306102-.2186442.131187-.1311866.131187-.3061019 0-.4591529-.065593-.1093221-.174915-.1749154-.306102-.1749154-.240509-.0437288-.481017.0218644-.677797.1749154-.546611.3498308-.896441.8527125-1.049492 1.5086452-.021865.0874576-.021865.1749153-.021865.262373-.021864.5028817.19678.8745769.634069 1.13695.34983.1967798.721526.2405087 1.115085.1749154.437289-.0655933.874577-.2186442 1.268137-.4372885.568475-.3498307.983899-.830848 1.333729-1.3774586.131187-.1967798.240509-.415424.349831-.6340683.284238-.4591528.524746-.9401701.830848-1.4211874.19678-.3061019.349831-.6122039.437289-.983899.131186-.6122039.021864-1.13695-.437289-1.5742385-.087457-.1093221-.19678-.1749154-.306102-.262373-.415424-.2623731-.852712-.3935597-1.333729-.3498308-.349831.0437288-.677798.1093221-.983899.3061019-.19678.1311865-.415425.2842375-.59034.4372885-.218644.1530509-.39356.3279663-.612204.4810173-.19678.1749153-.393559.3498307-.612204.4810173-.590339.3935596-1.224407.7215259-1.924069.9183057-.371695.1311865-.721526.2623731-1.049492.4372885-.131187.0437288-.240509.0874577-.349831.1311865-.590339.2405086-1.268136-.0874577-1.486781-.6122038-.174915-.4372885-.327966-.8527125-.415424-1.290001-.131186-.5903394-.131186-1.1588144.043729-1.7491538.043729-.1311865.065594-.2405086.087458-.3716952zm-.808984-5.9252585c-.065593-.0218644-.131186-.0437289-.196779-.0874577-.043729-.0218644-.043729-.1311865.021864-.1311865.087458-.0218645.19678-.0437289.284237-.0437289.043729 0 .065594.0218644.109323.0437289.043728.0655932.021864.1530509-.043729.1749153-.043729.0218645-.109322.0218645-.174916.0437289zm.437289-.3716952c-.109322.0218644-.174916 0-.240509-.0655933-.021864-.0437288-.021864-.0874577-.043729-.1311865 0-.0655933.021865-.1093221.087458-.1311865.065593-.0218645.109322 0 .153051.0437288.065593.0874577.043729.1749154.043729.2842375zm-3.21407 2.4488153c-.174916 0-.218645-.0437288-.19678-.1967798 0-.0655932.065593-.0874577.131186-.0874577.043729-.0218644.087458.0218645.109322.0874577.021865.0655933 0 .153051-.043728.1967798zm-.306102.306102c-.109322 0-.174916-.0437289-.174916-.1093222-.021864-.0437288.043729-.1093221.174916-.1093221h.065593c.065593 0 .131187.0437289.109322.1093221 0 .0655933-.043729.0874577-.109322.0874577-.021864 0-.043729.0218645-.065593.0218645zm-2.252036 9.9701767c-.021864 0-.065593.0218644-.065593.0218644-.043729-.0437288-.087458-.0874577-.131187-.1530509 0 0 .021865-.0218645.021865-.0437289.021864 0 .043729-.0218644.065593-.0218644.065593.0218644.109322.1093221.109322.1967798zm2.055256-8.4615316c.021864.0218644.065593.0655933.109322.0874577 0 .0218644 0 .0437289-.021864.0437289-.021865 0-.065594.0218644-.087458 0-.021865-.0218645-.043729-.0655933-.065593-.0874577 0 0 .043728-.0218645.065593-.0437289zm-2.514409 2.0552558h.153051v.0218644c-.043729 0-.109322 0-.153051 0 0-.0218644 0-.0218644 0-.0218644zm.874577-.1093222c.109322-.0218644.153051-.0218644.240509-.0218644-.087458.0437289-.087458.0437289-.240509.0218644zm.546611-.0437288c-.043729 0-.065593 0-.109322 0 0-.0218644 0-.0218644 0-.0218644.043729 0 .065593-.0218645.109322-.0218645zm6.777971 2.0333913c.021864.0437288.043729.0437288.043729.0655933 0 .0655932-.021865.0655932-.065594.0655932-.021864-.0218644-.043728-.0437288-.043728-.0655932 0-.0218645.043728-.0437289.065593-.0655933zm3.738816-9.4454306c0 .0218644.043729.0437289.021865.0655933 0 .0218644-.043729.0437288-.065594.0218644 0 0-.021864-.0218644-.043729-.0437288.021865-.0218645.043729-.0218645.087458-.0437289zm-12.878145-2.0552557c-.021864.0218644-.043729.0218644-.043729.0218644-.021864 0-.043729 0-.043729-.0218644 0 0 0-.0218644.021865-.0437289 0 .0218645.021864.0218645.065593.0437289zm-2.164578 2.4050865c0-.0218645-.021864-.0437289-.021864-.0655933 0 0 .021864-.0218644.043729-.0218644 0 0 .021864.0218644.043729.0437288-.021865.0218644-.043729.0218644-.065594.0437289zm11.17272 2.7767816c-.021864 0-.043729.0218645-.065593.0218645 0 0-.021864-.0437289 0-.0437289 0-.0218644.021864-.0218644.043729-.0437288.021864.0218644.021864.0437288.021864.0655932zm-14.539841 2.120849c.021865.0218645.043729.0437289.043729.0437289-.021864.0218644-.021864.0437288-.043729.0437288-.021864 0-.021864-.0218644-.043729-.0218644.021865-.0218644.021865-.0437288.043729-.0655933zm4.263563.7652548c-.021865-.0218644-.043729-.0437288-.065594-.0655932.021865-.0218644.043729-.0218644.065594-.0437289 0 0 .021864.0218645.043728.0437289-.021864.0218644-.021864.0437288-.043728.0655932zm5.8378 2.4488154c.043729-.0218644.065594-.0437289.087458-.0437289 0 0 .021865.0437289.021865.0655933s-.021865.0437288-.043729.0437288c-.021865 0-.043729-.0437288-.065594-.0655932zm-2.62373 1.0932211c0 .0218644.021864.0437289.021864.0437289-.021864 0-.043729.0218644-.065593.0218644 0 0-.021865-.0218644-.021865-.0218644.021865 0 .043729-.0218645.065594-.0437289zm.459153.415424c.065593-.0218644.087457-.0437288.109322-.0437288 0 0 .043729.0218644.043729.0218644-.021865.0218644-.021865.0437289-.021865.0655933-.021864 0-.043729 0-.131186-.0437289zm-8.986278 1.1588144s-.021865.0218645-.043729.0437289c0 0-.021864-.0218644-.021864-.0437289 0 0 .021864-.0218644.021864-.0437288.021864 0 .021864.0218644.043729.0437288zm5.772207-1.2681365c-.021864.0218645-.043728.0437289-.065593.0655933 0 0-.043729-.0218644-.043729-.0218644.021865-.0218644.021865-.0655933.021865-.0655933.021864 0 .043729.0218644.087457.0218644zm4.394749 3.1703413c0 .0218644-.021864.0437289-.021864.0437289-.021864 0-.021864-.0218645-.043729-.0437289 0 0 .021865-.0218644.021865-.0218644.021864.0218644.021864.0218644.043728.0218644zm.218645-8.1772941s-.021865.0218645-.021865.0218645c-.021864 0-.021864 0-.043729-.0218645h.021865zm-6.581192.6996616c-.021864 0-.043728 0-.065593.0218644v-.0218644c0-.0218645.021865-.0218645.043729-.0218645 0 0 0 0 .021864.0218645zm-4.15424-4.3072913c0-.0218644 0-.0437288 0-.0655933-.065593-.2842375-.240509-.4591528-.481017-.568475-.131187-.0874576-.306102.0437289-.306102.2186443-.021864.2186442.240509.5903394.459153.6559326.19678.0437289.327966-.0655932.327966-.2405086zm20.4651 15.5018757c-.043729.0218644-.131187.0437288-.19678.0874577-.153051.1093221-.153051.3061019 0 .415424.087458.0655933.174915.0874577.262373.1093221.109322.0437289.218644 0 .306102-.0655933.109322-.0874577.131186-.2186442.065593-.3498307-.087457-.1311866-.218644-.1967798-.437288-.1967798zm-23.088831-8.5927181c.087458 0 .19678 0 .240509-.1093222.065593-.1093221.021865-.2186442-.043729-.3061019-.087457-.1093221-.218644-.1749153-.349831-.2186442-.174915-.0655933-.371695.1093221-.306101.2842375.043728.1749154.262373.3498308.459152.3498308zm26.477816-.7871193c.174916 0 .371695-.1311865.459153-.3061019.065593-.1749154-.043729-.3279663-.240508-.3061019-.19678.0218644-.349831.1311865-.437289.3061019-.065593.1749154.021864.3061019.218644.3061019zm-24.925442-3.6076297c-.043728.1749154.087458.2842375.218645.3935596.109322.0874577.240508.0874577.327966.0218644.087458-.0655932.109322-.2186442.021864-.3498307-.021864-.0655933-.065593-.1093221-.131186-.1749154-.043729-.0437289-.109322-.0655933-.153051-.1093221-.174915-.0655933-.284238 0-.284238.2186442zm.655933 9.5328883c.021865-.0218644.087458-.0218644.131187-.0437289.153051-.0655932.196779-.262373.065593-.3935596-.065593-.0437288-.131187-.0874577-.19678-.1093221-.131186-.0874577-.240509-.0437288-.349831.0437289-.109322.0655932-.109322.2186442-.043728.3279663.109322.1093221.218644.1749154.393559.1749154zm-1.246272-6.5811912c.153051 0 .240509-.1093221.19678-.2623731 0-.0218644-.021865-.0437289-.021865-.0437289-.065593-.1530509-.218644-.2405086-.371695-.2842374-.153051-.0437289-.284237.1093221-.240508.262373.065593.1967798.240508.3498308.437288.3279664zm3.760681 11.7849238c.19678 0 .34983-.1093221.393559-.2405087.021865-.0437288.021865-.1093221 0-.1311865-.087457-.1093221-.174915-.1967798-.306102-.1967798-.131186 0-.240508.0655933-.306102.1749154-.065593.1093221-.043728.2405086.065594.3061019.043729.0437288.131186.0655933.153051.0874577zm22.935779-13.2717046c-.043729-.1311865-.131186-.1311865-.240509-.1093221-.174915.0218644-.393559.2405087-.437288.415424-.021864.1093222.043729.1967798.131187.2186443.196779.0218644.327966-.0437289.459152-.1967798-.021864-.0655933-.043728-.1311866-.065593-.1967798.065593-.0437289.109322-.0874577.153051-.1311866zm-23.919678 7.914921c.19678 0 .327966-.1967798.240508-.3716952-.065593-.1530509-.327966-.2405086-.481017-.1749153-.131186.0655932-.174915.2186442-.109322.3498307.087458.1311866.19678.1967798.349831.1967798zm3.826274-14.7584853c-.021865-.2186442-.065594-.3716952-.262373-.4810173-.065594-.0437288-.153051-.0218644-.19678.0437289-.021865.0437288-.043729.0655932-.043729.1093221-.043729.1530509.087458.4591529.240509.5466106.109322.0437288.218644.0218644.240508-.1093222 0-.0437288.021865-.0655932.021865-.1093221zm-4.766444 8.3959383c-.021865-.0218644 0-.0437288-.021865-.0655932-.065593-.1749154-.174915-.2842375-.349831-.3279664-.153051-.0437288-.284237.0874577-.240508.2405087.021864.1749154.218644.3279663.371695.3498307.131186 0 .218644-.0874577.240509-.1967798zm21.252218 4.7883086c.153051 0 .262373-.0655933.349831-.1749154.109322-.1311865.021865-.3061019-.131186-.3498307-.174916-.0218645-.371696.0874576-.437289.262373-.043729.0874577 0 .1749154.109322.2186443.021865.0218644.065594.0437288.109322.0437288zm-11.391364-.568475c.109322.2405087.306102.3279663.502882.2405087.109322-.0655933.19678-.153051.240509-.2842375.021864-.0874577.043728-.1749154-.021865-.2405087-.19678-.0218644-.218644.1311866-.306102.2186442-.131186.0218645-.284237-.0218644-.415424.0655933zm-9.314244 4.7445797c.109322 0 .19678-.0218644.262373-.1093221.065593-.0655933.065593-.1530509.021865-.2405086-.043729-.1093221-.240509-.1967798-.349831-.1749154-.131187.0218644-.218644.1093221-.240509.2186442-.021864.1093221.043729.2186442.174916.2623731.043728.0218644.087457.0437288.131186.0437288zm-1.115085-10.3418719c0-.1749154-.153051-.2623731-.284238-.3279663-.087458-.0437289-.153051-.0437289-.218644 0-.065593.0437288-.065593.1093221-.065593.1967798.021864.1967798.196779.3279663.393559.3279663.109322 0 .174916-.0655933.174916-.1967798zm-1.246273 4.657122c-.196779-.0218644-.306101.1093221-.262373.2623731.065594.153051.218645.2623731.371696.2623731.087457 0 .174915-.0437289.218644-.1311866.043729-.0874576 0-.1530509-.043729-.2405086-.087458-.0874577-.174915-.1311865-.284238-.153051zm14.102553-13.4028911c-.021864-.0218644-.021864-.0874577-.043729-.1749153-.021864-.0655933-.087457-.1093222-.153051-.1093222-.043729.0218645-.109322.0437289-.131186.0874577-.109322.153051-.087458.3279664-.043729.5028818.021864.0218644.043729.0655932.065593.0874576.065593.0655933.153051.0437289.19678-.0218644.065593-.0874577.087458-.1967798.109322-.3716952zm-11.675602 17.7320468c.021865 0 .043729 0 .065594-.0218644.087457 0 .153051-.0655933.174915-.153051.021864-.0655932 0-.1530509-.087458-.2186442-.043729-.0218644-.087457-.0655933-.153051-.0874577-.087457-.0437288-.218644 0-.284237.1093221-.065593.0874577-.043729.1749154.065593.2623731.065593.0655933.131187.1093221.218644.1093221zm.896442 2.4269509c-.021865-.1093221-.087458-.2186442-.218645-.262373-.131186-.0437289-.262373.0218644-.327966.1530509-.043729.1093221.021865.2405087.153051.2842375.109322.0655933.218644.0437289.327966-.0655932.021865-.0218645.043729-.0874577.065594-.1093222zm-4.635258-5.9033941c-.109322 0-.19678.0655933-.19678.1749154 0 .1967798.306102.3498308.481018.2405086.087457-.0437288.109322-.1530509.043728-.2405086-.087457-.1311865-.218644-.153051-.327966-.1749154zm3.454579 7.1715307c.131186 0 .262373-.0874577.262373-.1967798.021864-.1093222-.087458-.2186443-.218644-.2405087-.153051-.0218644-.284238.0655933-.306102.1967798 0 .1311865.109322.2405087.262373.2405087zm15.414418 2.120849c-.021865-.0437289-.043729-.1093222-.087458-.1749154-.087458-.0874577-.19678-.1093221-.284237-.0437289-.109322.0655933-.153051.153051-.109322.2405087.021864.1093221.153051.2186442.284237.1967798.087458 0 .174915-.0655933.19678-.1749154 0 0 0-.0218644 0-.0437288zm-17.666454-6.931022c0-.0437289 0-.0437289 0-.0655933-.065593-.1311865-.284237-.2405087-.415424-.1749154-.109322.0218644-.153051.1311866-.109322.2186442.065593.1749154.284238.2623731.437289.153051.043728-.0218644.065593-.0874577.087457-.1311865zm-1.224407-3.5857654c-.021865-.0437288-.021865-.0874576-.043729-.1093221-.087458-.1311865-.240509-.1749153-.371695-.1967798-.087458 0-.153051.0874577-.131187.1749154.021865.1749154.262373.3279664.415424.2405087.065593-.0218645.087458-.0655933.131187-.1093222zm4.438477-10.2762786c.065594-.1749154.065594-.2186442.021865-.3279663-.065593-.153051-.218644-.153051-.349831-.2186443-.065593.1311866-.043729.2405087 0 .3498308.065593.1311865.153051.1967798.327966.1967798zm7.586955 21.055439c0-.1093221-.131186-.2405086-.240509-.2186442-.109322 0-.218644.1093221-.218644.2405086 0 .1093222.131187.2186443.262373.2186443.109322-.0218644.19678-.1311866.19678-.2405087zm-10.691703-8.8332267c-.131186 0-.218644.1093221-.174915.2186442.065593.1311865.218644.2405086.349831.1967798.043729-.0218644.087458-.0655933.131186-.1093221.043729-.0655933 0-.1311866-.043728-.1749154-.065594-.0874577-.174916-.1093221-.262374-.1311865zm22.651542-13.5122132c0-.0218645-.021864-.0437289-.021864-.0655933 0-.0874577-.087458-.1311865-.153051-.0874577-.153051.1093221-.218644.2405086-.19678.415424 0 .0874577.087458.1311866.174916.0874577.109322-.0874577.174915-.2186442.196779-.3498307zm-16.157808-1.3118654c-.021864-.1093221-.043729-.2405087-.153051-.3279663-.021864-.0218645-.087458-.0218645-.131187-.0218645-.021864 0-.043728.0437289-.065593.0874577-.043729.153051.021865.2842375.109322.3935596.021865.0437289.087458.0655933.131187.0655933.021864-.0218644.065593-.0655933.087458-.1093221 0-.0218644 0-.0437289.021864-.0874577zm20.596286 15.8079776c.109322 0 .174916-.0437289.240509-.1093221.065593-.0874577.021864-.1967798-.087458-.2186443-.109322-.0218644-.218644 0-.306102.0874577-.021864.0437289-.043729.0874577-.043729.1311866 0 .0655932.065594.0874577.131187.0874577.021864.0218644.043729.0218644.065593.0218644zm-2.295764 3.3452567h.065593c.087458-.0218645.153051-.0874577.153051-.153051s-.065593-.153051-.153051-.1749154c-.043729 0-.065593-.0218644-.109322 0-.109322 0-.218644.1093221-.19678.1967798 0 .0874577.087458.1311866.240509.1311866zm-23.460526-1.5305096c0-.0218645 0-.0437289-.021864-.0655933-.043729-.0874577-.19678-.153051-.284238-.1311865-.043729 0-.065593.0437288-.087457.0655932-.043729.0437289-.043729.1311866 0 .1749154.065593.1093221.153051.1311865.262373.1093221.065593-.0218644.131186-.0655932.131186-.1530509zm12.397128 4.7445797c-.087458 0-.174915.0655933-.174915.1749154 0 .0874577.065593.1749154.174915.1749154s.174915-.0874577.174915-.1749154-.087457-.1749154-.174915-.1749154zm1.071357.8089836c.087457 0 .153051-.0655932.153051-.1530509 0-.1093221-.087458-.1967798-.19678-.1967798-.087458 0-.153051.0874577-.153051.1749153 0 .1093222.109322.1749154.19678.1749154zm5.881529-3.4108499c0-.0874577-.065593-.153051-.153051-.153051-.087457-.0218644-.196779.0437289-.196779.1311866-.021865.0874577.087457.1749153.174915.1749153.109322 0 .174915-.0655932.174915-.1530509zm-19.743573-.8308481c.087457 0 .153051-.0437288.153051-.1093221.021864-.0655933-.021865-.1311865-.087458-.1530509 0 0 0-.0218645-.021865-.0218645-.065593-.0218644-.15305-.0437288-.196779.0437289-.021865.0218644-.043729.0655932-.043729.0874577.021864.0874577.109322.1530509.19678.1530509 0 0 .021864 0 0 0zm12.572043 2.5800019c0-.0655933-.109322-.1749154-.19678-.1749154-.065593.0218644-.153051.0874577-.153051.1749154.021864.0874577.109322.1749154.218644.153051.065593 0 .131187-.0655933.131187-.153051zm13.555942-11.2601777c.153051 0 .240508-.0655932.240508-.2186442.021865-.0437288-.043728-.1093221-.109322-.0874577-.109322.0218644-.174915.0874577-.218644.1967798-.021864.0437289.043729.1093221.087458.1093221zm-14.146282 13.1405181c0-.1093222-.109322-.1967799-.19678-.1749154-.065593 0-.153051.0655932-.153051.1530509.021865.0874577.109323.1749154.19678.1749154.087458-.0218644.153051-.0874577.153051-.1530509zm-.830848-25.2315438s0-.0218644 0-.0437289c0-.0874576-.043729-.1530509-.109322-.1530509-.043729 0-.087458.0655933-.109322.1530509v.1093222c.021864.1093221.065593.1749153.131186.1530509.065594-.0218644.065594-.0874577.087458-.1530509 0-.0218645 0-.0437289 0-.0655933zm-12.244077 19.4156073c-.043728.0218644-.087457.0437289-.109322.0874577 0 .0437289 0 .0874577.043729.1311865.043729.0655933.109322.0874577.19678.0655933.043729 0 .109322-.0218644.109322-.0874577 0-.0437288-.021864-.1093221-.043729-.1311865-.065593-.0218644-.131186-.0437289-.19678-.0655933zm-.306101-10.9322113c.021864-.1093221-.087458-.2405087-.218645-.2623731-.043728 0-.087457.0655933-.087457.1093221 0 .1093221.065593.1967798.174915.2405087.043729.0218644.131187-.0218644.131187-.0874577zm-1.180679 9.051871c-.021865-.1093221-.065594-.153051-.153051-.1749154-.043729 0-.131187-.0218644-.174916.0218644-.021864.0437289-.021864.0874577-.021864.1093221.043729.1311866.174915.1749154.284237.1311866.021865-.0218645.043729-.0655933.065594-.0874577zm29.626292-7.1278018c-.109322-.0218644-.240508.0874577-.240508.1967798 0 .0437288.043729.0874577.087458.0874577.109322-.0218644.196779-.0874577.218644-.1749154.021864-.0655933-.021865-.1093221-.065594-.1093221zm-20.312048-9.5984816c0-.2186442 0-.2186442-.065593-.2842375 0-.0218644-.065594-.0437288-.087458-.0218644-.109322.0655933-.087458.2842375 0 .3498308 0 0 .021864.0218644.043729.0218644.021864-.0218644.065593-.0437288.109322-.0655933zm5.750343-.5028817c0-.0655933 0-.1093221-.021864-.1530509-.021865-.0218645-.043729-.0437289-.065594-.0437289-.021864 0-.065593.0218644-.065593.0437289-.087458.1093221-.065593.2186442-.021864.3061019.021864.0218644.065593.0437288.087457.0437288.021865 0 .043729-.0218644.043729-.0437288.021865-.0437289.043729-.1093221.043729-.153051zm-6.62492 7.9805143c-.043729.0218644-.087458.0218644-.087458.0437288-.065593.0874577-.021864.2405087.087458.2842375.043729.0218644.087458 0 .109322-.0218644.065593-.0437288.043729-.1311865.021864-.1749154-.021864-.0655932-.087457-.0874577-.131186-.1311865zm-.612204 7.1496662c0 .0874577.065593.1749154.153051.1967798.021864 0 .043729 0 .065593-.0218644.087458-.0437289.109322-.1093221.065594-.1749154-.065594-.0874577-.174916-.1093221-.240509-.0655933-.021865.0218645-.021865.0437289-.043729.0655933zm.983899-6.1657672c-.021864-.0437288-.043729-.0874577-.065593-.1311865-.043729.0218644-.065593.0655932-.065593.0874577 0 .0437288 0 .1093221.021864.1530509.043729.1093221.19678.1093221.262373.0218644.043729-.0437288.021864-.1311865-.043729-.1749153-.043729.0218644-.065593.0218644-.109322.0437288zm-2.580002-5.9689874c-.021864.0218644-.065593.0218644-.065593.0437289-.043729.1093221 0 .262373.109322.3279663.043729.0218644.109322-.0218644.109322-.0655933.021865-.1093221-.021864-.1967798-.109322-.2842375 0 0-.021864 0-.043729-.0218644zm21.055439 5.0944105c.043729.0218644.065594.0437288.087458.0437288.109322-.0218644.19678-.0874576.218644-.1967798 0-.0437288-.021864-.1093221-.043729-.1093221-.021864-.0218644-.087457-.0218644-.131186 0-.087458.0655933-.087458.1749154-.131187.2623731zm-11.128991-7.8493277c0 .0655932 0 .1093221.021865.1530509 0 .0218644.043728.0437289.065593.0655933.021864 0 .043729-.0218644.065593-.0437289.065593-.0874576.065593-.1749153.043729-.262373-.021865-.0437289-.065593-.0655933-.087458-.0655933-.021864 0-.065593.0218644-.087457.0655933-.021865.0218644-.021865.0655932-.021865.0874577zm4.176105 24.0727293c.021864-.0655932-.043729-.1530509-.109322-.1530509-.109322-.0218645-.174916.0218644-.19678.1093221 0 .0874577.043729.1311865.131186.1530509.087458.0218645.153051-.0437288.174916-.1093221zm-10.42933 1.7710183c0-.0655933-.065593-.1311866-.131186-.153051-.065594-.0218644-.153051.0437288-.174916.1311865 0 .0655933.065594.1311866.131187.153051.087458 0 .174915-.0437289.174915-.1311865zm11.544415-23.3949323c-.021864-.0218644-.043728-.0655933-.065593-.0874577-.021864 0-.087458 0-.109322.0218644-.043729.0655933-.087458.153051-.065593.2405087.021864.0218644.043729.0655932.043729.0655932.043728 0 .087457 0 .109322-.0218644.043729-.0655932.065593-.1311865.087457-.2186442zm-1.48678.3061019c-.021865-.0437288-.043729-.1093221-.087458-.1311865-.065593-.0218644-.109322.0218644-.131187.0655932-.065593.0874577-.065593.153051-.021864.2405087.021864.0655933.109322.0874577.131187.0218644.043728-.0437288.065593-.1311865.109322-.1967798zm-18.715946 6.5593268c-.021865-.0655933-.021865-.0874577-.043729-.1093221-.087458-.0874577-.174915-.1093221-.218644-.0874577-.065593.0437289-.043729.1311865.043729.2623731.021864 0 .043728 0 .065593.0218644.043729-.0218644.087458-.0437288.153051-.0874577zm21.470863 12.9437382c0-.1093221-.065593-.1749153-.153051-.1749153-.065593 0-.153051.0655932-.153051.1311865 0 .0218644 0 .0655933.021864.0874577.043729.0437288.109323.0655933.174916.0437288.043729-.0218644.087457-.0655932.109322-.0874577zm-1.464916 1.1150856c0-.0655933-.043729-.1311865-.131187-.153051-.087458 0-.153051.0655933-.153051.1311866 0 .0874577.065593.1311865.153051.1311865s.131187-.0437288.131187-.1093221zm-18.912726-16.1796728c.021864-.0437288.065593-.0874577.065593-.1311865.021865-.0655933-.021864-.153051-.087457-.1749154-.043729-.0218644-.109323-.0437288-.131187-.0218644s-.043729.0874577-.043729.1311865c.021865.0437289.065593.1093221.109322.153051.021865.0218644.043729.0218644.087458.0437288zm15.392554 17.4259449c0-.0874577-.065594-.1749154-.153051-.153051-.065594 0-.131187.0655933-.131187.1311866 0 .0874577.065593.1311865.153051.1311865.065593.0218644.131187-.0437288.131187-.1093221zm-2.317629.415424c-.065594 0-.131187.0655933-.131187.1311866 0 .0874576.043729.1530509.131187.1530509.065593.0218644.131186-.0437288.153051-.1093221 0-.0655933-.065594-.1749154-.153051-.1749154zm-10.057635-22.6952707c.043729-.0437289.065594-.0874577.065594-.1093221 0-.0874577-.021865-.1749154-.087458-.2405087-.021865-.0218644-.065593-.0218644-.109322-.0218644s-.065594.0874577-.021865.1311865c.043729.0655933.087458.1311866.153051.2405087zm19.918489 18.4754371c-.087457 0-.153051.0655933-.153051.1311866 0 .0655932.065594.1093221.174916.1093221.065593-.0218644.131186-.0655933.109322-.1311865 0-.0655933-.065593-.1093222-.131187-.1093222zm-2.995426-19.3718784c0-.0437289 0-.0437289 0-.0655933-.021864-.0218644-.043728-.0655933-.065593-.0874577-.021864 0-.065593.0218644-.087458.0437288-.021864.0655933-.043728.1311866-.043728.1967798-.021865.0218645.021864.0655933.043728.0874577.021865 0 .065594-.0218644.087458-.0437288.043729-.0437289.043729-.1093221.065593-.1311865zm.39356.9401701c-.021864 0-.043729 0-.043729 0-.109322.0655933-.153051.1967798-.087457.3061019 0 0 .043728.0218645.065593.0218645.109322-.0437289.153051-.1749154.109322-.2842375 0-.0218644-.021865-.0437289-.043729-.0437289zm-8.50526 21.0991679c-.065594 0-.131187.0437289-.131187.1311865 0 .0655933.065593.153051.153051.153051.065593 0 .131187-.0655933.131187-.1311865 0-.0655933-.087458-.153051-.153051-.153051zm-2.055256-24.0290005c.021864.1093221.065593.1967798 0 .2842375-.021865.0218644-.021865.0437288 0 .0655933 0 .0218644.021864.0655932.043729.0655932.021864 0 .087457-.0218644.087457-.0437288.043729-.1093221.043729-.2405087-.021864-.3498308-.021864-.0218644-.065593-.0218644-.109322-.0218644zm4.613393 26.018663c0-.1093221-.065593-.1749154-.131186-.1749154-.087458 0-.153051.0655933-.131187.1530509 0 .0655933.087458.1311866.153051.1093222.043729-.0218645.087458-.0655933.109322-.0874577zm-10.341872-1.5086452c-.021864-.0655933-.087458-.1093221-.174915-.1093221-.065593 0-.131187.0655933-.109322.1311865 0 .0874577.065593.1311866.153051.1311866.087457-.0218645.131186-.0874577.131186-.153051zm5.68475 2.5144086c0-.0655933-.065593-.1311865-.131186-.1530509-.065594 0-.109323.0655932-.109323.1311865s.021865.1311865.087458.1311865c.087458 0 .153051-.0437288.153051-.1093221zm8.811362-25.4720524c.131187-.1311865.174916-.2186442.153051-.3498308 0 0-.021864-.0437288-.021864-.0437288-.021864 0-.065593 0-.087458.0218644-.087457.0874577-.087457.1967798-.043729.3716952zm7.652548 18.4754372c.109322 0 .174916-.0437289.174916-.1093222.021864-.0655932-.065594-.1311865-.153051-.1093221-.043729 0-.065594.0218645-.109322.0218645-.065594.0437288-.043729.1311865.021864.1749153.021864.0218645.065593.0218645.065593.0218645zm-9.620346 6.7123777c.043729 0 .109322-.0655933.109322-.1093221-.021864-.0874577-.087457-.153051-.174915-.1311865-.043729 0-.109322.0437288-.109322.1093221 0 .0655932.087458.1311865.174915.1311865zm-15.501875-5.072546c0-.1093222-.065594-.153051-.153051-.153051-.065594-.0218644-.109322.0218644-.109322.0874577-.021865.0655933.065593.1530509.153051.1311865.043728 0 .087457-.0437288.109322-.0655932zm3.826274-14.8240786c-.043729-.0437289-.043729-.1093221-.087458-.153051 0-.0218644-.065593-.0218644-.087458-.0218644-.065593 0-.065593.0655933-.065593.1093221.021864.0437289.021864.0874577.043729.1093221.021864.0218645.087458.0437289.109322.0437289s.043729-.0437289.087458-.0874577zm.655932 18.8689968c-.021864-.0655933-.087457-.1093222-.153051-.0874577-.065593 0-.109322.0655932-.087457.1093221 0 .0655932.065593.1093221.109322.1093221.065593-.0218644.131186-.0874577.131186-.1311865zm19.612387-18.6284882c.109323-.0218644.153051-.0655932.174916-.1530509.021864-.0218644 0-.0874577-.021865-.0874577-.021864-.0218644-.087457-.0218644-.087457 0-.043729.0437288-.087458.1093221-.109322.1530509-.021865.0218645.021864.0655933.043728.0874577zm-27.571037 4.4384778c0-.0218644 0-.0437288 0-.0655932-.043728-.0874577-.087457-.153051-.196779-.153051-.021865 0-.065594.0437289-.065594.0655933 0 .1093221.087458.1967798.174916.1967798.043729-.0218644.065593-.0437289.087457-.0437289zm11.631873-10.298143c0-.0655933-.021864-.1093221-.043729-.153051 0-.0218644-.043728-.0437288-.065593-.0437288-.021864 0-.043729.0218644-.043729.0437288-.021864.0437289-.021864.0874577-.021864.153051 0 .0655932.065593.1530509.087458.1311865.043728-.0437288.065593-.0874577.087457-.1311865zm8.855092 1.3118653c.131186-.0655932.174915-.1530509.131186-.262373-.021864 0-.043729-.0218645-.043729-.0218645-.021864 0-.065593 0-.065593.0218645-.065593.0874576-.087458.1749153-.021864.262373zm-2.558138 23.744763c0-.0874576-.043729-.1530509-.109322-.1530509s-.131187.0655933-.131187.1311865c0 .0655933.065594.1093221.131187.1311866.065593 0 .109322-.0655933.109322-.1093222zm11.435093-13.1842468c-.043729.0437288-.087458.0655932-.109322.1093221-.021864.0218644-.021864.0655933-.021864.0874577.021864.0218644.065593.0437288.109322.0218644s.087457-.0437288.109322-.0874577c.021864-.0218644.021864-.0655933 0-.0874577 0-.0218644-.043729-.0218644-.087458-.0437288zm-8.133565 4.657122c0-.0437288-.065593-.0874577-.131187-.0874577-.043728 0-.109322.0655933-.109322.1093221 0 .0437289.065594.1093221.109322.1093221.065594 0 .131187-.0655932.131187-.1311865zm-19.721709 2.9954259c0-.0874577-.087458-.1093221-.153051-.1093221-.021865.0218644-.065594.0437288-.065594.0437288v.1093222c.043729.0655932.087458.0655932.153051.0437288.021865-.0218644.043729-.0655933.065594-.0874577zm25.843747-1.13695c-.109322 0-.174915.0437289-.174915.1093221 0 .0437289.043729.0655933.109322.0874577.065593 0 .131187-.0437288.131187-.1093221 0-.0437288-.043729-.0655933-.065594-.0874577zm-4.875766 4.241698c-.021864-.0218644-.043729-.0655932-.065593-.0655932-.043729-.0218645-.131187 0-.131187.0655932-.021864.0437289.021865.0874577.065593.0874577.065594.0218644.131187 0 .131187-.0874577zm5.815936-10.604245c.065594 0 .109323-.0218644.131187-.0874577.021864-.0655932-.021864-.1093221-.065593-.1093221-.065594 0-.087458.0437289-.131187.0874577-.021864.0437289 0 .1093221.065593.1093221zm-18.606623 12.1347546c.021864-.0218644.065593-.0655933.087457-.1093221.021865-.0437288-.065593-.1093221-.131186-.1311865-.043729 0-.087458.0655932-.087458.1093221 0 .0655932.043729.1311865.131187.1311865zm12.222212-.5247461c0-.0655933-.043729-.1093221-.109322-.0874577-.065593 0-.087458.0218644-.087458.0874577 0 .0655932.043729.0874577.131187.0874577.043729 0 .087457-.0437289.065593-.0874577zm-18.759675-20.3339131v-.0218644c0-.0655933-.043729-.1311866-.109322-.153051 0 0-.043729.0218644-.043729.0218644-.043728.0655933 0 .1311866.043729.1749154 0 .0218644 0 .0218644.021865.0218644h.065593c.021864 0 .021864-.0218644.021864-.0437288zm8.002379 21.8644227c.021864-.0437289-.043729-.1311866-.109322-.1311866-.043729 0-.109322.0655933-.109322.1093221 0 .0655933.043729.1093221.109322.1093221.043729.0218645.109322-.0218644.109322-.0874576zm19.196963-12.3533989c-.021864-.0218644-.021864-.0437288-.043729-.0655932-.065593-.0218644-.174915.0437288-.174915.1093221 0 .0218644 0 .0437288.021864.0655933.043729.0218644.109322.0218644.153051-.0218645.021865-.0218644.021865-.0655932.043729-.0874577zm-28.03019 7.7181412c0-.0655932-.043729-.1093221-.109322-.1311865-.043729 0-.087458.0437289-.087458.0874577s.043729.1093221.109323.0874577c.043728 0 .065593-.0218644.087457-.0437289zm25.800019-3.0828835c0-.0218645 0-.0437289-.021864-.0437289-.021865-.0437288-.087458-.0655933-.131187-.0437288-.043729.0218644-.087458.0655932-.065593.1311865 0 .0437288.065593.0437288.109322.0437288.043729-.0218644.065593-.0655932.109322-.0874576zm-7.237124-.0218645c.087458 0 .131187-.0437288.131187-.1093221s-.021865-.0874577-.087458-.0874577-.131187.0437289-.109322.0874577c.021864.0437289.043729.0874577.065593.1093221zm.852713 4.3072913c-.043729-.0655933-.087458-.1093221-.109323-.1093221-.065593-.0218644-.131186.0218644-.131186.0655933-.021864.0655932.043729.1311865.109322.1093221.021864 0 .065593-.0437289.131187-.0655933zm4.635257-.5903394c0-.0655933-.087457-.1093221-.153051-.0655933-.021864.0218644-.043729.0655933-.043729.0874577 0 0 .021865.0437289.043729.0437289.087458.0218644.153051 0 .153051-.0655933zm-15.458147 3.0172903c0-.0874577-.065593-.1311865-.109322-.1093221s-.065593.0655933-.065593.0874577c0 .0655933.043729.0874577.087458.0874577s.065593-.0437289.087457-.0655933zm2.295765 1.2025433c-.065593-.0655933-.087458-.0874577-.131187-.1093222-.065593-.0218644-.109322.0218645-.109322.0874577 0 .0655933.065593.1093221.131187.1093221.021864-.0218644.065593-.0437288.109322-.0874576zm1.88034.3061019c-.065593-.0655933-.087458-.1093221-.131186-.1311866-.043729-.0218644-.087458.0437289-.109323.0874577 0 .0437289.043729.1093221.087458.1093221s.087458-.0437288.153051-.0655932zm14.168146-10.9759402c-.043729.0655933-.087458.0874577-.109322.1311865-.021865.0437289.043729.0655933.109322.0655933.043729-.0218644.109322-.0655933.065593-.1093221 0-.0218644-.043729-.0437289-.065593-.0874577zm-15.982893 8.7457691c-.021864.0437288-.065593.0874577-.065593.1311865s.043729.0655933.087457.0655933c.065594 0 .109323-.0218645.087458-.0655933 0-.0437288-.065593-.0874577-.109322-.1311865zm-12.70323-5.0288173c-.021864-.0874576-.087457-.1311865-.15305-.1093221-.021865 0-.043729.0218645-.043729.0437289-.021865.0655932.043729.1311865.109322.1093221.043729 0 .065593-.0437289.087457-.0437289zm6.209497-17.2510294c0-.1093221-.021865-.153051-.087458-.153051-.021865 0-.043729 0-.043729.0218644-.021864.0437289-.021864.1093221.021864.153051 0 0 .043729.0218644.065594.0218644.021864 0 .043729-.0437288.043729-.0437288zm22.454762 12.0472969c0-.0218645 0-.0218645 0-.0218645-.043729-.0437288-.087458-.0437288-.131187-.0218644-.065593.0218644-.087458.0874577-.065593.1311865 0 .0218645.021864.0218645.021864.0218645.065593.0437288.174916-.0218645.174916-.1093221zm.087457 4.3291556c.043729.0437289.065594.0655933.109322.0874577.065594 0 .131187-.0218644.131187-.0874577-.021864-.0218644-.065593-.0655932-.087458-.0655932-.043729 0-.087457.0437288-.153051.0655932zm-21.842558 5.7066144c-.021864.0655932-.087458.0874577-.087458.1311865s.043729.0655933.087458.0655933c.065593 0 .131187-.0437289.109322-.0655933-.021864-.0437288-.065593-.0655933-.109322-.1311865zm1.180679.4591528c-.065593-.0218644-.109322-.0437288-.131187-.0437288-.021864-.0218644-.065593.0437288-.065593.0655933 0 .0655932.065593.0874576.109322.0655932.021865 0 .043729-.0437288.087458-.0874577zm21.492727-9.6640748c-.043729.0437289-.087457.0655933-.109322.1093221 0 .0437289.043729.0655933.087458.0655933s.087458-.0437288.087458-.0874577c0-.0218644-.043729-.0437288-.065594-.0874577zm-25.800018-3.4327143c-.043729.0437288-.065594.0655932-.065594.0874576.021865.0218645.043729.0437289.065594.0874577 0 0 .065593-.0437288.065593-.0437288-.021865-.0437289-.043729-.0874577-.065593-.1311865zm24.510017-2.7549173c0-.0218644-.021864-.0437288-.043728-.0655933-.021865-.0218644-.087458.0218645-.087458.0874577 0 .0218644.021864.0437289.043729.0437289.021864.0218644.087457 0 .087457-.0655933zm-19.175098.3935596c-.021865.0218644-.043729.0437289-.043729.0437289 0 .0437288.021864.0874576.043729.1093221.021864 0 .043729-.0218645.043729-.0218645 0-.0437288-.021865-.0874576-.043729-.1311865zm8.592718 12.6813652c.043729-.0437289.087458-.0655933.087458-.0874577-.021865-.0218645-.043729-.0655933-.087458-.0655933-.021865-.0218644-.065593 0-.065593.0437288 0 .0437289.043728.0655933.065593.1093222zm-2.252036 4.8101729c.021865-.0437288.065594-.0874576.043729-.1093221 0-.0218644-.043729-.0655932-.065593-.0655932-.021865 0-.065593.0437288-.065593.0655932.021864.0218645.043728.0655933.087457.1093221zm8.614583-3.4545787c-.043729-.0437289-.065593-.0655933-.087458-.0655933-.021864 0-.043729.0218644-.043729.0437288-.021864.0437289.021865.0655933.065594.0437289.021864 0 .043728-.0218644.065593-.0218644zm-11.107127 2.1645778c-.065593-.0437288-.109322-.0655933-.131186-.0655933-.021865 0-.043729.0437289-.043729.0655933 0 .0437289.021864.0655933.065593.0655933.021864-.0218644.043729-.0218644.109322-.0655933zm-7.893056-.2405086c-.065594-.0437289-.087458-.0655933-.087458-.0655933-.021865 0-.065593.0218644-.065593.0437288 0 .0437289.021864.0655933.065593.0655933.021864-.0218644.043729-.0218644.087458-.0437288zm15.305095.0437288c-.021864-.0218644-.043728-.0437288-.065593-.0437288-.021864 0-.021864.0218644-.043729.0437288.021865.0218644.021865.0437288.043729.0437288.021865 0 .043729-.0218644.065593-.0437288zm-15.633062-8.2210229c-.021864-.0218644-.021864-.0437289-.043729-.0437289 0 0-.021864.0218645-.043729.0218645.021865.0218644.043729.0437288.043729.0437288.021865 0 .021865-.0218644.043729-.0218644zm25.056629-4.5477999c-.021865-.0218645-.021865-.0437289-.021865-.0437289-.021864-.0218644-.043729 0-.065593 0v.0437289zm-22.411034 14.4305189c0-.0218644-.021864-.0437288-.021864-.0437288-.021865 0-.021865 0-.043729 0 0 .0218644.021864.0437288.021864.0655932.021865 0 .021865-.0218644.043729-.0218644zm6.296954-.8745769c-.043729-.0218644-.065593-.0655932-.087458-.0655932 0 0-.021864.0437288-.043728.0437288.021864.0218644.043728.0655933.065593.0655933 0 0 .021864-.0218645.065593-.0437289zm8.876956-1.6835605c-.021865.0218644-.043729.0218644-.043729.0218644v.0655933c.021864-.0218645.043729-.0218645.065593-.0437289 0 0-.021864-.0218644-.021864-.0437288zm-20.027812-.721526c-.021864-.0437288-.043728-.0437288-.065593-.0655932 0 0-.043729.0218644-.043729.0218644.021865.0218644.021865.0655932.043729.0655932.021865 0 .043729-.0218644.065593-.0218644zm9.838991-8.2866162c.021864.0655933.021864.0655933.087457.0874577-.043728-.0655932-.043728-.0655932-.087457-.0874577zm-2.252036-15.3050958c0-.0218645-.021864-.0218645-.021864-.0437289 0 .0218644-.021865.0218644-.021865.0218644.021865.0218645.021865.0218645.043729.0437289zm15.042723 23.2637457c0-.0218644-.021864-.0437289-.021864-.0437289-.021865 0-.021865 0-.043729.0218645 0 0 0 .0218644.021864.0218644 0 .0218644.021865 0 .043729 0zm-3.104748 2.1427134c-.021864-.0218644-.021864-.0437288-.021864-.0437288-.021865 0-.043729.0218644-.043729.0218644 0 .0218644 0 .0437288.021864.0437288.021865 0 .021865-.0218644.043729-.0218644zm5.181868-4.8320374c0 .0218644-.021864.0218644-.021864.0437288 0 0 .021864.0218645.043729.0218645 0 0 .021864-.0218645.021864-.0218645-.021864 0-.021864-.0218644-.043729-.0437288zm-21.01171 4.657122c-.021864 0-.021864-.0218644-.043729-.0218644 0 0-.021864.0218644-.043729.0218644.021865.0218644.043729.0437289.065594.0437289 0 0 0-.0218645.021864-.0437289zm-6.712378-6.777971c0-.0218644.021865-.0437288.021865-.0437288s-.021865-.0218645-.021865-.0218645c-.021864 0-.021864.0218645-.021864.0218645 0 .0218644.021864.0218644.021864.0437288z"
          fill="#e6594c" transform="translate(-303 -60)"/>
</svg>