<svg height="31" viewBox="0 0 32 31" width="32" xmlns="http://www.w3.org/2000/svg">
    <path d="m140.09196 66.0938126c-.218644-.1967798-.218644-.1967798-.349831-.5028817-.087457-.1749154-.153051-.3279664-.262373-.5028818-.306102-.415424-.677797-.6996615-1.202543-.7871192-.087458 0-.174915-.0218644-.262373-.0218644-.371695-.0655933-.765255-.1093221-1.13695-.1967798-.349831-.0437288-.699662-.153051-1.005764-.3498308-.153051-.1093221-.327966-.1749153-.481017-.2842375-.087458-.0437288-.153051-.1311865-.218644-.1967798-.043729-.0874576-.109322-.1967798-.153051-.2842375-.218644-.3498307-.415424-.7215259-.634068-1.0713567-.109322-.1749153-.240509-.3498307-.39356-.4810173-.109322-.0874577-.19678-.1530509-.284237-.2405086-.131187-.153051-.306102-.1967798-.459153-.2405087-.568475-.1093221-.918306.306102-.962035.6996616 0 .1530509 0 .3061019.043729.4810173.021864.2186442.109322.4591528.240509.6559326.109322.2405087.262373.4591529.393559.6996616.131187.2186442.284238.4591528.39356.6777971.218644.4591528.306102.9183057.240508 1.4211874-.021864.2186443-.065593.4154241-.109322.6340683-.109322.5903394-.065593 1.1588144.19678 1.6835605.065593.1311866.109322.2623731.174916.3716952.284237.6340683.196779 1.6835606-.502882 2.2957644-.349831.3279664-.765255.5028817-1.246272.4591529-.371695-.0437289-.721526-.153051-1.071357-.2842375-.546611-.2186442-1.093221-.4372885-1.639832-.6777971-.240508-.1093221-.524746-.153051-.808983-.1311865-.174916 0-.349831.0655932-.481018.1749153-.218644.1749154-.306102.4154241-.218644.6559327.043729.1311866.109322.2623731.218644.3498308.109322.1093221.240509.2186442.371696.3061019.174915.0874577.34983.153051.54661.2186442.371695.153051.808984.1749154 1.202543.2405087.415424.0655932.830848.1530509 1.202544.2842375.502881.1749153.874577.4591528 1.13695.8964413.043728.0874577.109322.1749154.153051.2623731.196779.3498307.437288.6996615.677797 1.0057634.459153.568475.918305 1.13695 1.443052 1.6616961.109322.1093221.196779.2186443.284237.3279664.131187.1749154.262373.3498307.349831.5247461.262373.4591529.349831.9401702.262373 1.4649163-.065593.2405087-.131187.4810173-.19678.721526-.065593.2405086-.153051.5028817-.218644.7652548-.153051.7433903.021864 1.3774586.568475 1.9022048.153051.1311865.306102.262373.459153.3716951.34983.2186443.721526.3716952 1.115085.4810173.262373.0655933.546611.1311866.787119.2186443.459153.1311865.874577.3498307 1.202544.6777971.153051.1311865.284237.262373.459153.3935596.153051.1311865.306102.262373.481017.3498307.240509.1311866.459153.2186443.721526.1967798.634068-.0655932 1.224408-.2405086 1.661696-.7652548.021864-.0218644.021864-.0218644.043729-.0437288.240508-.1749154.349831-.4372885.459153-.6777971.131186-.3498308.196779-.721526.218644-1.1150856.021864-.2842375.043729-.5684749.065593-.8527124.087458-.8527125.415424-1.5961029 1.049492-2.1864423.240509-.2186442.502882-.3935596.765255-.5903394.262373-.2405087.59034-.4372885.852713-.6777971.765255-.6996616 1.093221-1.5961029.962034-2.6237307-.021864-.2405087-.065593-.4810173-.109322-.721526-.19678-.983899-.153051-1.967798.021865-2.9298326.087457-.5247462.306102-.9838991.677797-1.3555942.437288-.4372885.808983-.9183058 1.071356-1.4867808.043729-.0874577.109323-.1967798.153051-.2842375.065594-.1093221.131187-.1967798.19678-.3061019.306102-.415424.721526-.6777971 1.246272-.7652548.218645-.0437288.437289-.0437288.655933-.0218644.19678.0218644.415424-.0218644.590339-.1093221.437289-.2186442.721526-.568475.874577-1.0057635.174916-.4810173-.043729-.9183057-.54661-1.0276278-.174916-.0437289-.371695-.0655933-.546611-.0655933-.481017 0-.962034.0218644-1.421187.0655933-.546611.0437288-.983899.3061019-1.290001.7433903-.153051.1967798-.284238.4154241-.39356.6340683-.087458.153051-.153051.3061019-.240508.4591529-.043729.1311865-.109323.2405086-.174916.3498307-.327966.4810173-.874577.6559327-1.421187.4154241-.218645-.0874577-.371696-.2186443-.481018-.4591529-.109322-.2842375-.218644-.568475-.240508-.8745769-.043729-.2842375-.065594-.568475-.065594-.8527125-.043728-.6559327-.196779-1.3118654-.437288-1.9022048-.262373-.6559326-.655933-1.2025432-1.224408-1.6179672-.174915-.1311866-.327966-.2842375-.481017-.4154241-.284237-.262373-.590339-.4372884-.962035-.5028817-.568475-.0874577-1.115085.3061019-1.115085.8964413 0 .4591529.109322.8745769.502882 1.1806789.131186.1093221.262373.1967798.393559.2842375.174916.1311865.371695.2405086.568475.3716951.765255.4810173 1.268137 1.1806789 1.596103 2.0115269.087458.2623731.174915.5466106.240509.8308481.109322.3935596.174915.830848.284237 1.2462721.131187.6340682.371695 1.2462721.743391 1.7928826.109322.1749154.218644.3498308.327966.5466106.131186.2623731.218644.5466106.218644.8308481v.5247461c-.043729.3935596-.087458.7871192-.131186 1.2025433-.087458.5903394-.131187 1.1588144-.065594 1.7491538 0 .0874577 0 .1530509.021865.2405086.065593 1.1150856-.39356 1.9677981-1.355594 2.5581375-.284238.1749153-.568475.3716952-.874577.5466105-.39356.2405087-.721526.568475-1.027628.9183058-.415424.4591529-.59034 1.0057634-.59034 1.6179673v.6122038c-.021864.3498308-.065593.6996615-.218644 1.0057634-.371695.7871193-1.202543 1.0057635-1.836611.6777971-.087458-.0655932-.174916-.1093221-.262373-.1093221-.218645-.0437288-.349831-.1530509-.459153-.3279663-.174916-.1967798-.349831-.3716952-.59034-.4810173-.218644-.1093221-.437288-.2186442-.655932-.3061019-.240509-.1093221-.502882-.2186443-.743391-.3061019-.065593-.0437289-.153051-.0655933-.240508-.0655933-.109323-.0437289-.174916-.0874577-.174916-.2186442 0-.0874577-.043729-.1749154-.087458-.2623731-.15305-.3061019-.218644-.6122038-.196779-.9183058.021864-.262373.065593-.5028817.087457-.7433903.043729-.2405087.043729-.4591529.021865-.6996616-.109322-.8964413-.437289-1.6616961-1.005764-2.3176288-.34983-.3935596-.721526-.7433903-1.093221-1.1150855-.218644-.1967798-.437288-.415424-.568475-.6777971-.109322-.1749154-.218644-.3279664-.306102-.4810173-.109322-.1967798-.196779-.3935596-.240508-.6122039-.131187-.7871192.34983-1.3337297.874577-1.4649163.153051-.0218644.284237-.0874577.437288-.1311865.349831-.1749154.699662-.2186442 1.071357-.1967798.153051 0 .284237 0 .437288-.0218644.284238-.0218645.546611-.0218645.830848.0437288.524746.1093221.896442.4372885 1.093221.9401702.043729.1311865.087458.2842375.131187.415424.065593.3279664.174915.6340683.327966.9183058.349831.6122038.787119 1.1806788 1.202544 1.7710182.087457.153051.218644.2623731.371695.3498308.087457.0655932.19678.1093221.284237.1967798.131187.0655932.262373.0874577.39356.0218644.240508-.0655933.415424-.2186442.481017-.4810173.065593-.1749154.087458-.3716952.043729-.568475-.021864-.1749154-.065593-.3279663-.174915-.4372884-.240509-.2623731-.481018-.5028818-.808984-.6340683-.131187-.0437289-.19678-.1311865-.262373-.2186442-.109322-.1967798-.218644-.3935596-.327966-.568475-.371696-.7433904-.349831-1.4430519.109322-2.1427134.284237-.4372885.634068-.8308481 1.027627-1.13695.218645-.1749154.437289-.3498308.655933-.5247462.087458-.0874577.19678-.1967798.262373-.3061019.240509-.3716952.284238-.8089836.174916-1.2244077-.131187-.3935596-.481018-.5903394-.874577-.4810173-.218645.0655933-.415424.1749154-.524746.3935597-.19678.2842375-.371696.5903394-.546611.8745769-.240509.3935596-.524746.7433903-.830848 1.0713567-.39356.4372884-.896441.5903394-1.443052.6559327-.371695.0218644-.677797-.1311866-.983899-.2405087-.021864-.0218644-.043729-.0655933-.065593-.0874577-.021865-.1967798-.065594-.3935596-.065594-.568475.021865-.3279663.218645-.5903394.459153-.7871192.153051-.1093221.284238-.1967798.437289-.2842375.240508-.1311865.502882-.2623731.765255-.3935596.415424-.2405086.787119-.5247461 1.049492-.9401702.087458-.1749153.174915-.3498307.262373-.5247461zm-5.313055 1.4430519c0-.153051-.021864-.3061019-.043729-.4810173 0-.1749154.065594-.3498308.153051-.5028817.19678-.3498308.481018-.6340683.852713-.8089837.109322-.0437288.218644-.1093221.306102-.1530509.371695-.2186443.74339-.2405087 1.158814-.153051.502882.1311865.765255.6559327.59034 1.13695-.043729.1311865-.109323.2405086-.19678.3498307-.349831.3935597-.743391.6996616-1.224408.8964414-.327966.1093221-.677797.1311865-1.027628.0437288-.065593-.0437288-.131186-.0655932-.174915-.0874577-.131187-.0655932-.262373-.1530509-.39356-.2405086zm19.503065 2.3613576c-.153051.0218645-.327966.0218645-.481017.0655933-.39356.0874577-.787119.1749154-1.180679.2842375-.437288.1311865-.896441.2623731-1.355594.3061019-.240509.0218644-.502882.0437289-.74339.0655933-.240509.0218644-.481018.1093221-.677798.2405086-1.136949.7652548-1.48678 2.1645779-.983899 3.2140702.043729.1093221.087458.1967798.131187.3061019.218644.3935596.371695.830848.459153 1.2681365.109322.5028817.284237.9620346.502882 1.399323.087457.1749154.153051.3498308.218644.5247462.327966 1.1588144.109322 2.1645778-.765255 3.0391547-.153051.1311866-.349831.2842375-.524746.4154241-.218644.1749154-.459153.2842375-.655933.4591528-.218644.153051-.415424.306102-.612204.4810173-.174915.153051-.284237.3498308-.34983.568475-.153051.5466106.262373 1.0494923.830848 1.0276279.109322 0 .196779-.0437288.306102-.0655933.262373-.0874577.502881-.2186442.699661-.3935596.502882-.415424 1.005764-.830848 1.486781-1.2462721.284237-.2405086.502882-.5247461.677797-.830848.262373-.4810173.502882-.9620346.74339-1.4649163.218645-.4810173.349831-.9838991.39356-1.5305096.043729-.4591529-.087458-.8527125-.415424-1.2025433-.327966-.3279663-.612204-.6559327-.874577-1.0494923-.284237-.3935596-.481017-.8527125-.546611-1.3555942-.065593-.6122038.109323-1.1150855.546611-1.5305096.240509-.2405086.546611-.415424.874577-.5028817.349831-.0874577.699661-.1749154 1.071357-.1749154h.677797c.174915 0 .34983 0 .524746-.0218644.459153-.0655933.852712-.2405086 1.158814-.5903394s.349831-.8527125.065594-1.1806788c-.153051-.1967798-.349831-.3498308-.612204-.4372885-.174916-.0655932-.39356-.0874577-.59034-.0874577zm-22.14866 8.3959383c.065593 0 .19678-.0218644.306102-.0655932.39356-.1749154.524746-.6559327.262373-1.0057635-.021864-.0655932-.087458-.1093221-.153051-.1311865-.087458-.0218644-.131186-.0655933-.174915-.1311865-.043729-.0437289-.087458-.0655933-.131187-.0874577-.240508-.0874577-.459153-.0655933-.677797.0437288-.437288.1967798-.524746.6777971-.240509 1.0276279.218645.2405086.459153.3498307.808984.3498307zm.481017 2.6018663c.459153.0218645.743391-.1967798.808984-.5247461.043729-.2405087-.065593-.4372885-.240509-.568475-.043728-.0437288-.109322-.0874577-.174915-.1093221-.327966-.2186442-.830848-.0655933-1.005763.3061019-.087458.2186442-.043729.4591529.109322.6340683.174915.1749153.371695.262373.502881.262373zm-1.027627-5.5098345c.131186 0 .306101-.0437288.393559-.2186442.087458-.1967798.043729-.3498308-.087458-.5028817-.021864-.0437289-.065593-.0655933-.109322-.0874577-.065593-.0655933-.131186-.0874577-.218644-.1311866-.153051-.0874576-.371695-.0655932-.502882.0655933-.109322.1093221-.174915.2842375-.109322.4591529.087458.2186442.349831.415424.634069.415424zm19.000183-14.8240785c-.021865-.0218645-.021865-.0874577-.043729-.153051-.021864-.1967798-.174915-.2623731-.306102-.3279663-.153051-.0655933-.284237 0-.39356.1093221-.196779.1749153-.262373.5247461-.131186.7652548.109322.262373.437288.3279663.655933.1311865.131186-.1311865.196779-.3061019.218644-.5247461zm-16.398317 17.9069621c.174915 0 .327966-.0655933.415424-.2186442.087458-.153051.065593-.3279663-.021865-.4810173-.065593-.0874577-.174915-.1093221-.240508-.1749154-.174916-.1530509-.349831-.1093221-.524746-.0218644-.043729.0218644-.087458.0655933-.109322.1093221-.19678.3716952.065593.7871192.481017.7871192zm10.97594-7.914921c-.174915 0-.306102.0655933-.371695.1967798-.19678.3279664-.021865.6996615.371695.7871192.087458.0218645.19678-.0218644.262373-.0874577.19678-.1749153.218644-.5684749.043729-.7433903-.087458-.0874577-.19678-.153051-.306102-.153051zm1.464916-8.6583114c0 .1749154.043729.3279664.153051.4372885.174916.1967798.39356.1749154.546611 0 .131186-.1967798.174915-.3935596.109322-.6122038-.065593-.153051-.262373-.2842375-.39356-.2842375-.153051-.0218645-.306102.0874577-.371695.262373-.021864.0874577-.021864.153051-.043729.1967798zm-15.851706 17.4478093c-.021865-.1093221-.043729-.2186442-.131187-.3061019-.109322-.0874577-.240508-.1749154-.393559-.1967798-.174916-.0218644-.306102.0437288-.415424.1967798-.065594.1093221-.087458.2405087-.021865.3935596.131187.2623731.481018.3716952.743391.2405087.131186-.0655933.196779-.1749154.218644-.3279664zm-.262373-5.641021c0-.153051-.087458-.3279664-.218644-.4154241-.087458-.0437288-.174916-.0655932-.240509-.1093221-.153051-.0437288-.284238-.0218644-.39356.0874577-.087457.1093221-.131186.2405087-.065593.3935596.065593.1967798.349831.3935596.546611.3935596.196779-.0218644.371695-.1530509.371695-.3498307zm12.222212-1.705425c0-.2186442-.109322-.3935596-.284237-.4591529-.131187-.0437288-.240509-.0218644-.349831.0655933-.131187.1093221-.19678.2405086-.153051.415424.021864.1311866.087458.2186443.19678.3061019.174915.1093222.415424.0655933.524746-.1093221.043729-.0874577.065593-.1749153.065593-.2186442zm-3.738816-12.5939074c0-.2186443-.087458-.3498308-.284238-.4591529-.153051-.1093221-.327966 0-.393559.1093221-.109322.2186442-.065594.5466106.153051.6777971.19678.1093221.415424.1093221.502881-.1967798 0-.0437289.021865-.0874577.021865-.1311865zm-6.362547 23.6573053c0-.153051-.065593-.2405087-.19678-.2842375-.021864 0-.087458-.0218644-.109322-.0437289-.087458-.1093221-.174915-.0874577-.284238-.0655932-.109322.0437288-.218644.1093221-.262373.2405086-.021864.0655933-.021864.153051-.021864.2186442.065593.1749154.218644.2623731.371695.2842375.19678.0437289.39356-.0655932.459153-.2186442.021864-.0437288.043729-.1093221.043729-.1311865zm12.878145-10.6261094c0-.153051-.065593-.2186443-.240509-.3498308-.109322-.0874577-.218644-.0655933-.327966 0-.174916.1093221-.218644.3061019-.153051.5028817.043729.1749154.262373.3061019.437288.2842375.174916-.0437288.284238-.2405086.284238-.4372884zm-10.23255 13.1186536c.109322 0 .218644-.0218645.306102-.1093222.087458-.0655932.131186-.1749153.131186-.3061019-.021864-.1311865-.065593-.1967798-.196779-.2405086-.021865 0-.043729-.0655933-.087458-.0655933-.043729-.0218644-.109322-.0437288-.153051-.0437288-.218644 0-.415424.1749154-.415424.3935596 0 .1967798.19678.3716952.415424.3716952zm-.39356-1.7491539c.043729 0 .109322-.0218644.174916-.0437288.131186-.0655933.19678-.1749154.218644-.3279663 0-.153051-.065593-.2405087-.218644-.306102-.021865 0-.065594-.0437288-.109322-.0655932-.131187-.0437289-.327967 0-.437289.1093221-.087457.1311865-.109322.3061019-.021864.415424.087457.1311866.218644.1967798.393559.2186442zm-3.432714-14.7584853c0-.1749153-.065593-.3061019-.218644-.3716951-.043729-.0218645-.109322-.0655933-.153051-.0874577-.19678-.1093221-.437289.0437288-.437289.2405086 0 .2623731.306102.5247462.546611.5028817.153051 0 .262373-.1093221.262373-.2842375zm4.066783 18.0818776c0-.0874577-.021865-.1749154-.131187-.2186442-.043729-.0218645-.087458-.0437289-.131186-.0655933-.131187-.0874577-.262374-.0655933-.371696.0218644-.131186.0874577-.196779.2186442-.174915.3498308.043729.1967798.262373.3498307.459153.3061019.218644-.0218644.349831-.1749154.349831-.3935596zm7.56509-16.2671305c.19678 0 .349831-.1749154.349831-.3716952 0-.0874576-.021865-.1967798-.087458-.2405086-.087458-.0655933-.19678-.1749154-.327966-.1749154-.174916 0-.327967.1749154-.327967.3935596.021865.1967798.19678.3935596.39356.3935596zm-14.036959 7.084073c.174915 0 .306101-.1093221.327966-.2623731.021864-.153051-.065593-.3498308-.218644-.3716952-.065594-.0218644-.109322-.0437288-.19678-.0655933-.131187-.0437288-.240509 0-.306102.0874577-.065593.1093222-.087458.2186443-.065593.3279664.087457.1530509.262373.2842375.459153.2842375zm1.508645 4.1542403c.131186 0 .218644-.0218644.306102-.1093221.153051-.1749154.109322-.4154241-.109323-.5028818-.043728 0-.087457-.0218644-.131186-.0655932-.131187-.0655933-.284238-.0437289-.39356.0874577-.109322.1093221-.131186.262373-.043728.3935596.109322.1311865.218644.1967798.371695.1967798zm16.748147 3.8700028c0 .1749154.131187.3498308.327967.3716952.174915.0437288.371695-.0655933.415424-.2405087.043729-.1311865.043729-.2405086-.087458-.3061019-.065593-.0437288-.087458-.0874577-.131186-.1311865-.021865-.0218644-.065594-.0437289-.109323-.0437289-.196779-.0437288-.393559.1311866-.415424.3498308zm-18.125606-10.3418719c0-.0218645 0-.0874577-.043729-.1311866-.087457-.1530509-.262373-.2405086-.437288-.2186442-.174916 0-.284238.153051-.284238.3061019.043729.2623731.349831.4591529.568475.3716952.131187-.0437288.218644-.1530509.19678-.3279663zm15.392554-5.947123c0-.0437288-.021865-.1093221-.043729-.1749154-.109322-.2405086-.39356-.2842375-.568475-.1093221-.109322.153051-.109322.3716952.021864.5247462.087458.1093221.240509.1530509.371695.1093221.131187-.0437289.19678-.1749154.218645-.3498308zm-10.910347 12.7906873h.087457c.153051-.0218645.262373-.153051.284238-.306102 0-.1311865-.065593-.2186442-.218644-.3061019-.043729 0-.065594-.0437288-.109322-.0437288-.131187-.0655933-.262374-.0437289-.349831.0655933-.109322.1093221-.131187.2842374-.043729.415424.087458.1093221.19678.1749154.349831.1749154zm10.822889-8.5052605c0 .1967799.19678.3716952.371695.3716952.19678 0 .349831-.1749153.349831-.3716952-.021865-.1749153-.218644-.3716951-.39356-.3716951-.19678.0218644-.327966.1749153-.327966.3716951zm-11.456958 2.2520356c.131187 0 .240509-.0874577.284238-.1967798.043729-.1311866.021864-.2623731-.087458-.3498308-.065593-.0437288-.131186-.0874577-.218644-.1311865-.109322-.0437289-.218644 0-.306102.0874577-.087458.0655932-.131186.1749154-.087458.2842375.043729.1749153.218645.3061019.415424.3061019zm9.88272 9.9483123c0-.0874577 0-.153051-.087458-.1967798-.043729-.0437289-.065593-.0655933-.109322-.1093221-.065594-.0655933-.153051-.0655933-.240509-.0437289-.174915.0437289-.284237.2186443-.262373.3716952.043729.1749154.218644.3279664.39356.3061019.174915-.0218644.306102-.1530509.306102-.3279663zm-9.729669-1.2244077c0-.1093221-.043728-.1749154-.174915-.2186442-.043729-.0218644-.087458-.0437288-.131187-.0874577-.065593-.0437288-.131186-.0218644-.218644-.0218644-.153051.0655933-.240508.2186442-.218644.3716952.021864.1749154.218644.3061019.39356.3061019.174915-.0218644.327966-.1749154.34983-.3498308zm4.372885-9.9701767c.131186 0 .262373-.0874577.306102-.2186442.043729-.1311866-.021865-.2842375-.131187-.3716952-.043729-.0218644-.087457-.0218644-.131186-.0655933-.131187-.1093221-.349831 0-.39356.153051-.109322.2405086.087458.5028817.349831.5028817zm6.646784-1.9459336c0-.153051-.174915-.3498308-.327966-.3498308-.174915 0-.349831.153051-.349831.3498308s.174916.3498307.349831.3716952c.174915 0 .327966-.153051.327966-.3716952zm-14.211874 3.2140701c0 .2186442.262373.415424.481017.3716952.153051-.0437289.262373-.1967798.218644-.3716952-.065593-.1749154-.306102-.3279663-.502881-.2623731-.131187.0218645-.19678.1311866-.19678.2623731zm11.325771 1.6616961c0-.1311865-.043729-.1967798-.153051-.2405086-.043729-.0218644-.065594-.0437289-.087458-.0655933-.109322-.0874577-.19678-.0655933-.284237-.0218644-.218645.1530509-.218645.4372884 0 .568475.109322.0874577.218644.1093221.327966.0437288.131186-.0437288.19678-.1749154.19678-.2842375zm-1.771019.7652548c-.021864-.0437288-.043728-.1311865-.087457-.1530509-.109322-.0218645-.174916-.153051-.306102-.153051 0 0-.021865 0-.043729.0218644-.153051.0437289-.240509.1749154-.240509.3061019 0 .153051.109322.2405087.240509.3279664.218644.0874577.437288-.0874577.437288-.3498308zm6.909158 1.8584759c0-.0218644 0-.0874576-.043729-.1093221-.065593-.0655932-.153051-.1311865-.240509-.1749153-.021864-.0218645-.065593-.0218645-.087457-.0218645-.174916.0437289-.284238.1967798-.262373.3716952.021864.1749154.174915.3061019.34983.2842375.153051 0 .306102-.1530509.284238-.3498308zm-5.138139 8.2428874c0-.0874577 0-.1749154-.109322-.2186442-.043729-.0437289-.087458-.0874577-.131187-.1093221-.043729-.0218645-.109322-.0437289-.131187-.0437289-.174915.0218644-.306101.1749154-.306101.3279663.021864.1749154.174915.3279664.34983.3279664.174916 0 .306102-.1093221.327967-.2842375zm-.240509-2.1427134c.021864-.1311866-.153051-.3279664-.306102-.3498308-.153051 0-.327966.1311865-.327966.3061019-.021865.1749154.131186.3279664.306102.3498308.196779 0 .327966-.1311865.327966-.3061019zm-4.088647-14.015095c0-.1530509-.087458-.2186442-.19678-.2842375-.109322-.0874576-.19678-.0874576-.284237-.0218644-.109322.0655933-.153051.153051-.153051.2623731.021864.153051.131186.2842375.262373.3279663.19678.0437289.371695-.0874577.371695-.2842375zm1.967798 3.6076298c-.021864-.0218644-.021864-.0874577-.065593-.1311866-.065594-.0655932-.153051-.1093221-.240509-.1530509-.043729-.0218644-.087458 0-.131186.0218644-.131187.0218644-.19678.1311865-.19678.2623731-.021865.1311865.065593.2405086.174915.3061019s.218644.0655933.306102 0c.109322-.0655933.153051-.153051.153051-.3061019zm5.509835-.7652548c0 .1749154.131186.3061019.306101.3279663.153051 0 .284238-.1311865.306102-.2842375.021865-.1530509-.065593-.2186442-.196779-.3061019-.087458-.0437288-.174916-.0655933-.262374-.0218644-.109322.0655933-.15305.153051-.15305.2842375zm-.087458-3.4108499c0-.153051-.19678-.3498308-.349831-.3279664-.153051.0437289-.262373.1749154-.262373.3279664.021864.1749153.153051.3061019.327966.3061019.174916 0 .284238-.1311866.284238-.3061019zm3.738816 6.9310219c0-.1311865-.19678-.3061019-.306102-.3061019-.174915.0218644-.327966.1749154-.306102.3498308.021865.1311865.174916.2842375.327967.2842375.174915 0 .306102-.153051.284237-.3279664zm-21.142897-4.8976306c.131187 0 .240509-.0874577.262373-.1967798.021865-.1311866-.021864-.2405087-.153051-.2842375-.043728-.0218645-.109322-.0437289-.15305-.0874577-.109323-.0437289-.19678-.0218645-.262374.0655932-.087457.0655933-.109322.153051-.065593.2623731.065593.1311865.218644.2405087.371695.2405087zm13.774587 5.6191566c-.021865-.1311865-.218645-.3061019-.349831-.3061019-.021865 0-.021865 0-.021865 0-.174915.0437288-.262373.1749154-.262373.3279663.021865.1749154.19678.3061019.371696.2842375.153051-.0218644.262373-.153051.262373-.3061019zm13.468484-17.5789958c0-.1749154-.065593-.2623731-.19678-.306102-.087457-.0437288-.19678-.0218644-.240508.0655933-.065594.0655933-.087458.1311865-.109323.2186442-.043728.1311866.043729.2623731.153051.306102.087458.0655932.218645.0218644.306102-.0874577.043729-.0655933.065594-.153051.087458-.1967798zm-18.890861 10.1669565c-.109322 0-.19678.0218644-.262373.1093221-.021865.0655933-.043729.1311866-.043729.1749154 0 .1311865.153051.2842375.284237.3061019.131187.0218644.284238-.0655933.327967-.1967798.021864-.1530509-.021865-.2405086-.306102-.3935596zm-6.777971 1.6179673c-.174916.0218644-.284238.1530509-.240509.3061019.043729.1967798.284238.3279663.459153.2842375.174915-.0655933.240509-.2623731.131187-.415424-.087458-.1093222-.240509-.1311866-.349831-.1749154zm14.58357-.3279664c-.153051.0218645-.284238.1311866-.284238.306102 0 .1749153.174916.3061019.327967.3061019.153051-.0218644.284237-.1311866.284237-.2842375 0-.1967798-.153051-.3279664-.327966-.3279664zm-15.480012 6.5811913c.218645 0 .349831-.1749154.262374-.3498308-.065594-.1749154-.371696-.2623731-.524747-.1311865-.087457.0655932-.109322.2186442-.043728.3279663.087457.1093221.196779.153051.306101.153051zm16.638826-3.7825452c-.021864-.1530509-.153051-.3061019-.306102-.3061019s-.284237.1311866-.284237.2842375c0 .1749154.153051.3279664.306102.3061019.153051 0 .284237-.1311865.284237-.2842375zm-8.046107-2.383222c.153051 0 .284237-.153051.284237-.2842375-.021864-.153051-.19678-.3061019-.327966-.3061019-.174916.0218644-.284238.1530509-.284238.3061019.021865.1530509.174916.2842375.327967.2842375zm17.775775 7.1059373c0-.1093221-.19678-.2842375-.306102-.2842375-.153051 0-.306102.153051-.284237.306102 0 .1530509.153051.262373.306102.262373s.284237-.1311865.284237-.2842375zm-27.024426-4.8976306h.065593c.131187-.0218645.218644-.1093222.218644-.2186443.021865-.1093221-.021864-.1967798-.131186-.2405086-.065594-.0437289-.109322-.0655933-.153051-.0874577-.109322-.0218644-.19678 0-.240509.0655933-.087458.0655932-.087458.1530509-.065593.262373.065593.1093221.174915.1967798.306102.2186443zm29.385784-9.2267864c0-.1311865-.131187-.2623731-.262373-.2623731-.153051 0-.306102.153051-.306102.3279664 0 .1311865.109322.262373.240509.262373.15305.0218645.327966-.1530509.327966-.3279663zm-8.002379 20.5306929c-.131186 0-.240508.0655932-.284237.1749154-.065594.0874577-.043729.1967798.021864.2842375.087458.1093221.19678.1530509.327966.1093221.109323-.0218645.174916-.1093221.19678-.2186443.021865-.1093221-.021864-.1749153-.109322-.2186442-.065593-.0437288-.109322-.0874577-.153051-.1311865zm-19.393743-6.7561066c-.174915 0-.306102.1749154-.284237.3279663.043729.1093221.131186.1749154.240508.2186442.131187.0218645.240509 0 .327967-.0874576.065593-.0874577.087457-.2186443.021864-.2842375-.087458-.1093222-.19678-.153051-.306102-.1749154zm10.560516-3.6950875c-.021864 0-.043728 0-.065593.0218645-.131186.0437288-.218644.1530509-.19678.2842375.021865.1530509.174916.262373.327967.262373.131186-.0218644.218644-.1093221.240508-.2405086.021865-.153051-.131186-.3279664-.306102-.3279664zm-12.178483.5028818c-.174915 0-.284238.1530509-.262373.3061019.065593.1967798.349831.2842375.502882.1530509.109322-.0655932.131186-.2186442.065593-.3061019-.087458-.0874577-.218644-.1311865-.306102-.1530509zm16.529504-2.4925442c0-.1311866-.218645-.3061019-.371696-.2623731-.021864 0-.021864 0-.043729.0218644-.109322.0437289-.174915.1967798-.131186.3279664.021864.1311865.174915.2405086.306102.2186442.153051-.0218644.240509-.153051.240509-.3061019zm6.865428 9.1611931c.109322 0 .19678-.0655933.240509-.1749154.043729-.0874577.021864-.153051-.087458-.2405087-.021864-.0218644-.043729-.0437288-.065593-.0655932-.087458-.0655933-.174915-.0655933-.284238 0-.087457.0655932-.131186.1530509-.109322.2623731.043729.1311865.174916.2405086.306102.2186442zm-7.477632 4.0230538c0-.1311866-.174916-.306102-.306102-.306102-.131187.0218645-.240509.1311866-.240509.2842375 0 .1311866.131187.2842375.284238.2842375.131186 0 .262373-.1311865.262373-.262373zm9.292379-4.6571221c-.153051 0-.306102.1311866-.284237.3061019.021864.1311866.174915.2405087.327966.2405087.153051-.0218644.262373-.153051.240509-.2842375 0-.1093221-.174916-.2623731-.284238-.2623731zm-.677797 2.8642394c.131187 0 .240509-.0655933.284238-.1749154.021864-.1093221-.021865-.1967798-.109322-.2623731-.021865 0-.021865-.0218644-.043729-.0437288-.087458-.0655933-.174916-.0874577-.284238 0-.109322.0437288-.153051.153051-.109322.2623731 0 .1311865.131187.2186442.262373.2186442zm-8.789498-9.9264479c0-.1311865-.153051-.2842375-.306102-.2842375-.131186 0-.240508.1311865-.240508.2842375 0 .1311865.153051.2623731.306102.2623731.131186 0 .240508-.1093221.240508-.2623731zm11.719331 6.4062758c0-.1311865-.19678-.2842375-.306102-.262373-.153051.0218644-.262373.1311865-.240509.2842375 0 .1311865.153051.262373.306102.262373.131187-.0218644.240509-.1530509.240509-.2842375zm-4.919495 2.6237308c-.153051 0-.240509.1311865-.240509.2842375.021865.1311865.153051.2405086.306102.2405086s.262373-.1311865.240509-.2623731c0-.1093221-.19678-.2842375-.306102-.262373zm7.783734-9.3798374c0-.1093221-.153051-.2405086-.284237-.2405086-.131187 0-.262373.1311865-.262373.2623731 0 .1311865.109322.262373.262373.262373s.284237-.1311865.284237-.2842375zm-29.560699-10.1232277c-.131187 0-.240509.1311866-.218644.2623731.043728.1093221.109322.1967798.218644.2405087.109322.0437288.218644.0218644.284237-.0437289.065594-.0874577.065594-.2186442 0-.3061019-.087457-.0874577-.19678-.1311865-.284237-.153051z"
          fill="#e6594c" transform="translate(-126 -58)"/>
</svg>