<svg height="30" viewBox="0 0 32 30" width="32" xmlns="http://www.w3.org/2000/svg">
    <path d="m368.121778 73.8338182c-.021865.153051-.087458.2405087-.19678.3061019-.087458.0437289-.131187.1311866-.153051.2186443-.065593.3498307-.284237.6122038-.568475.830848-.415424.2623731-.830848.5466106-1.246272.8527125-.174915.1093221-.349831.2186442-.546611.2623731-.371695.1093221-.721526.0874577-1.027628-.1311866-.065593-.0437288-.109322-.1093221-.15305-.1967798-.087458-.2405086-.087458-.4591528.065593-.6777971.109322-.1530509.240508-.2842375.415424-.3716952.218644-.1093221.437288-.2186442.655933-.3279663.481017-.2405086.830848-.6122038 1.049492-1.0932211.043729-.0874577.065593-.1749154.109322-.2405087.240509-.5903394.481017-1.1588144.634068-1.7491538.109322-.5247461.415424-.8745769.874577-1.13695.262373-.1530509.524746-.3498307.787119-.5247461.59034-.4372885 1.158815-.8527125 1.72729-1.290001.284237-.1967798.54661-.4372884.787119-.6777971.218644-.2405086.415424-.4810173.54661-.7652547.153051-.3498308.174916-.6996616.021865-1.0713568-.043729-.1311865-.109322-.262373-.153051-.3935596-.153051-.4372884-.065593-.7433903.284237-1.0494923.109323-.0874576.240509-.1749153.349831-.262373.262373-.1967798.502882-.3935596.699662-.6559327.109322-.1093221.174915-.2405087.240508-.3716952.043729-.1093221.065594-.2405086.065594-.3498308 0-.1311865-.087458-.2186442-.240509-.2186442-.109322-.0218644-.240509 0-.327966.0874577-.109322.0655933-.218645.1311865-.306102.2186442-.153051.153051-.262373.3279664-.39356.4591529-.19678.2623731-.393559.5028817-.612204.7433904-.262373.2842375-.590339.4591529-.983899.5028817-.153051.0218644-.306102.0218644-.459153.0437289-.481017.0655932-.896441.2842374-1.224407.6777971-.109322.1530509-.218645.3061019-.306102.4810173-.109322.1311865-.19678.2842374-.284238.4372884-.131186.1967798-.284237.415424-.481017.5903394-.174915.153051-.349831.2623731-.568475.3279664-.327966.1093221-.634068.0437288-.896441-.1749154-.262373-.1967798-.284238-.5247462-.065594-.7652548.065594-.0655933.131187-.1093221.218645-.1749154.327966-.2186442.502881-.5466106.655932-.8964413.065594-.153051.065594-.3279664.043729-.5028817-.043729-.3279664-.19678-.5028818-.502882-.5903395-.065593 0-.131186 0-.174915-.0437288-.065593-.0218644-.153051-.0655933-.19678-.1093221-.131186-.1093221-.174915-.3061019-.087457-.4372885.021864-.0437288.065593-.0874577.109322-.0874577.306102-.0437288.612204-.1311865.918305-.1093221.109323.0218644.218645.0218644.327967.0218644.415424.0218645.765255-.1311865 1.049492-.4372884.065593-.0655933.131187-.1311865.174915-.2186442.327967-.4810173.677798-.9620346 1.005764-1.4430519.109322-.1749154.218644-.3716952.306102-.568475.043729-.1093221.065593-.2405087.065593-.3498308.021864-.3061019-.218644-.4372884-.481017-.2842375-.087458.0437289-.174916.1311866-.240509.2186442-.087458.1093222-.153051.2405087-.218644.3498308-.065593.1311865-.131187.2842375-.174915.415424-.371696.7871193-.940171 1.2025433-1.814748 1.2025433-.131186 0-.284237 0-.415424.0218644-.612203.0437289-1.180678.568475-1.246272 1.1806788-.021864.153051-.043729.3279664-.043729.5028818.021865.3498307-.109322.5903394-.437288.7433903-.109322.0218645-.19678.0874577-.284237.153051-.306102.2623731-.677798.3061019-1.027628.1967798-.437289-.153051-.612204-.3935596-.612204-.8527125 0-.2186442.087458-.415424.174915-.6122038.109322-.2623731.240509-.5028817.349831-.7652548.415424-.8308481.852712-1.6835606 1.268136-2.5144086.109323-.2623731.218645-.5247462.262374-.8089837.021864-.1093221.043728-.262373.043728-.3716952 0-.0655932-.021864-.1530509-.065593-.2186442-.109322-.2186442-.327966-.2623731-.502882-.0874577-.087457.0874577-.153051.1967798-.196779.3279664-.065594.1530509-.131187.3279663-.153051.5028817-.109322.4810173-.262373.9183057-.524746 1.3118654-.218645.415424-.481018.8089836-.721526 1.2025432-.524747.9183058-.743391 1.9022048-.743391 2.9516971 0 .0655932.021865.1749153.043729.262373.087458.3716952.306102.5466106.677797.5247462.153051 0 .284238-.0437289.415424-.0655933.349831-.0655933.677797 0 .983899.1749154.131187.0655933.174916.1530509.153051.3061019-.043729.1093221-.087458.1749154-.174915.2405087-.153051.1093221-.306102.1749153-.481018.2186442-.196779.0218644-.371695.0218644-.568475.0437288-.196779 0-.393559-.0218644-.590339-.0218644-.590339.0218644-1.005763.3279663-1.180679.8964413-.131186.3935596-.131186.8089837-.021864 1.2244077.087458.4372885.262373.8527125.459153 1.2681365.131186.2186442.284237.3935596.481017.568475.174915.153051.371695.3279663.546611.5028817.174915.1311866.196779.3061019.131186.5028817-.043729.1093222-.109322.2186443-.174915.2842375-.109322.1093222-.240509.2186443-.349831.3279664-.349831.2623731-.546611.5903394-.634068 1.0057634-.021865.0874577-.021865.153051-.043729.2186443-.043729.1311865-.087458.2842374-.153051.415424-.262373.4810173-.852713.5903394-1.268137.2405086-.087457-.0437288-.131186-.1311865-.174915-.2186442-.065593-.1967798-.065593-.415424-.021864-.6122038.043728-.3279664.196779-.6122039.371695-.8745769.109322-.1749154.240508-.3498308.327966-.5466106.240509-.4810173.153051-.9401702-.174915-1.3774586-.043729-.0218645-.065594-.0655933-.087458-.1093221-.174915-.1749154-.306102-.3498308-.371695-.568475-.153051-.4154241-.371695-.8089837-.568475-1.2025433-.065593-.1530509-.131187-.3061019-.174916-.4810173-.065593-.3279663-.021864-.6122038.262374-.830848.174915-.1093222.327966-.2405087.459152-.3935596.459153-.5028818.612204-1.0932212.415424-1.7710183-.021864-.1093221-.065593-.1967798-.087457-.2842375-.240509-.5247461-.306102-1.0494923-.306102-1.6179673 0-.6777971.021864-1.3555942 0-2.0333913 0-.5466105.043729-1.0713567.131186-1.5961028.021865-.1093221.043729-.2623731.043729-.3935596.021865-.153051.021865-.3279664 0-.5028817-.021864-.1311866-.065593-.2623731-.153051-.3716952-.131186-.153051-.284237-.153051-.415424 0-.109322.1093221-.153051.2405086-.174915.3716952-.021865.1749153-.043729.3498307-.043729.5247461 0 .4591529 0 .8964413-.021864 1.3337298-.043729.568475-.109323 1.13695-.131187 1.7054249-.065593.7652548-.043729 1.5305096.065593 2.2957644.065594.4154241.109322.8308481.153051 1.2244077.021865.153051 0 .2842375-.021864.4372885-.087458.4810172-.59034.7433903-1.049492.5903394-.218645-.0874577-.39356-.2186443-.524747-.3935596-.196779-.2186443-.327966-.4591529-.415424-.721526-.284237-.983899-.502881-1.9896625-.481017-3.0172903.021865-.2405087 0-.4591529-.065593-.6777971-.043729-.1967798-.153051-.3716952-.284238-.5247462-.196779-.1749153-.437288-.1530509-.590339.0437289-.087458.1093221-.109322.2186442-.131187.3498307-.021864.1967798 0 .3935596.065594.5903395.043728.2405086.109322.4591528.174915.6996615.087458.3279663.131187.6559327.153051 1.0057634.043729.5247462.131187 1.0276279.262373 1.5305096.087458.3716952.262373.6996615.459153 1.0057634.109322.1967799.240509.3716952.459153.4810173.174915.0874577.327966.1749154.524746.2842375.109322.0655933.240509.1093222.371695.1749154.19678.1311866.262373.3279664.19678.568475-.087458.3279664-.327966.4810173-.634068.5247462-.218645.0218644-.459153.0218644-.677797-.0437289-.481018-.1530509-.918306-.3716952-1.33373-.6777971-.153051-.1311865-.284238-.2842375-.415424-.4591529-.153051-.262373-.306102-.5247461-.481018-.7433903-.240508-.306102-.459152-.6340683-.677797-.9620346-.065593-.1093221-.109322-.2623731-.153051-.3935596-.043728-.0874577-.109322-.1967798-.153051-.2842375-.087457-.1967798-.153051-.3935596-.240508-.5903394-.065593-.1093222-.131187-.2405087-.174916-.3716952-.043728-.1311866-.087457-.2405087-.131186-.3716952-.087458-.2623731-.174916-.5466106-.262373-.8089837-.021865-.0874576-.065593-.1967798-.174916-.262373-.043728-.0218645-.065593-.0874577-.087457-.1311866 0-.1967798-.109322-.3061019-.240509-.3935596-.240509-.1967798-.502882-.0874577-.54661.2186443v.1749153c.021864.1749154.065593.3498308.15305.5247462.087458.1530509.174916.3279663.262374.4810173.174915.3279663.327966.6559327.437288 1.0057634.065593.1967798.153051.415424.218644.6340683.240509.7871192.612204 1.5305096 1.202543 2.1427134.065594.0655933.109323.153051.174916.2405086.043729.0655933.087458.1311866.131186.1967799.131187.262373.131187.5247461-.043728.7652547-.087458.1311866-.174916.2405087-.284238.3498308s-.240509.2186442-.327966.3279663c-.306102.3498308-.349831.721526-.19678 1.13695.065593.1311866.131186.2623731.240509.3716952.153051.2186442.34983.415424.568475.568475.240508.153051.481017.3498308.74339.5028817.284237.1967798.590339.3716952.896441.5466106.174916.0874577.349831.1093221.546611.0874577.174915-.0437289.306102-.1311866.393559-.2842375.065594-.1311866.087458-.2623731.065594-.3935596-.021865-.3061019-.19678-.5028817-.437289-.6559327-.174915-.1093221-.349831-.1311865-.524746-.1749154-.153051-.0218644-.306102-.0437288-.459153-.0655933-.327966-.0218644-.590339-.1749153-.852712-.3498307s-.327967-.4372885-.284238-.721526c.021865-.1093221.065594-.1967798.131187-.2842375.371695-.3498307.787119-.5466105 1.290001-.415424.174915.0437289.327966.0874577.481017.1749154.19678.1311865.39356.3061019.590339.4591529.218645.1530509.415424.3279663.655933.4810173.131187.0874577.284238.1311865.437289.1967798.196779.0437288.437288.1093221.655932.1530509.19678.0437289.349831.1311866.502882.2623731.131186.1093221.19678.2405087.19678.415424 0 .2405087-.087458.4810173-.218644.6777971-.087458.153051-.19678.306102-.284238.4591529-.240509.3716952-.284237.7871192-.131186 1.2462721.043728.153051.131186.3061019.196779.4591529.109322.1967798.240509.3935596.349831.5903394s.19678.3935596.284238.5903394c.065593.153051.109322.3061019.109322.4810173 0 .5028817-.39356.8745769-.896442.8745769-.306102-.0218644-.568475-.1749154-.787119-.3498308-.043729-.0437288-.065593-.1311865-.087458-.1967798-.065593-.2405086-.109322-.4810173-.109322-.7433903.021865-.3498308-.065593-.6996616-.196779-1.0494923-.087458-.2405087-.262374-.4372885-.437289-.6340683-.065593-.0437288-.153051-.0655932-.218644-.0874577-.568475-.1530509-1.158815-.1967798-1.749154 0-.19678.0655933-.415424.1311866-.612204.1749154-.54661.1311866-1.027628 0-1.443052-.3498307-.087457-.0874577-.153051-.1749154-.19678-.2623731-.043728-.0874577-.065593-.1749154-.087457-.2623731-.087458-.2405086-.131187-.4810173-.240509-.6996615-.262373-.5028817-.54661-.983899-1.005763-1.3555942-.349831-.2842375-.721526-.5466106-1.158815-.721526-.196779-.1093221-.415424-.1749154-.634068-.2405086-.109322-.0437289-.240509-.0437289-.349831-.0437289-.327966.0437289-.459153.3498308-.327966.6340683.065593.153051.174915.2623731.306102.3279663.19678.1093221.393559.2186443.568475.306102.218644.1093221.415424.1749153.612204.262373.634068.2623731 1.071356.721526 1.290001 1.3774587.043728.1093221.065593.1967798.109322.3061019.043729.1311865.065593.2405086.109322.3498307.065593.1749154.109322.3716952.19678.5247462.34983.6559327.874577 1.0713567 1.639831 1.0713567.218645 0 .415424-.0655933.612204-.1311866.218644-.0874576.415424-.1530509.612204-.2405086.371695-.1093221.74339-.1311865 1.13695-.0655933.131187.0218645.284238.0655933.39356.1749154.437288.3716952.54661 1.0713567.131186 1.5305096-.109322.1311865-.262373.2405086-.393559.3279663-.19678.1311866-.437289.2405087-.655933.3716952-.39356.2186443-.787119.4154241-1.180679.6340683-.371695.1967798-.765255.3935596-1.158814.5466105-.153051.0437289-.306102.0874577-.437289.1749154-.131186.0655933-.240508.153051-.327966.2623731-.19678.2405087-.153051.5466106.087458.7433904.043728.0437288.087457.0655932.15305.0874577.284238.1530509.59034.1093221.852713-.0437289.19678-.0874577.371695-.1967798.546611-.3061019.327966-.1967798.655932-.3935596.983899-.568475.415424-.2405086.808983-.5028817 1.180678-.830848.131187-.1311866.306102-.2405087.459153-.3498308.349831-.2186442.743391-.2842375 1.158815-.2186442.218644.0437288.437288.1530509.590339.3061019.590339.5903394.524746 1.552374-.131186 2.0333913-.174916.1311865-.327967.2186442-.502882.3279663-.437289.3061019-.721526.6996616-.765255 1.2244077-.021864.0874577-.021864.1749154-.021864.2405086-.043729.4372885-.087458.874577-.131187 1.290001v.6777971c0 .1311865.021864.2623731.109322.3935596.109322.1967798.284238.3279663.502882.3279663.262373.0218645.437288-.1093221.54661-.3279663.087458-.153051.109323-.3061019.131187-.4810173 0-.2186442-.043729-.415424-.087458-.6340683-.043729-.1311865-.087457-.2842375-.109322-.4372884-.109322-.4591529-.065593-.9401702.131187-1.3774586.131186-.2623731.327966-.4810173.568475-.6340683.306102-.1967798.830848-.2405087 1.158814.1749154.087458.1093221.153051.2186442.218644.3279663.087458.1093221.153051.2405087.218645.3716952.284237.5028817.74339.8527125 1.311865 1.0276279.218644.0655932.459153.1093221.677797.1530509.371695.0655933.74339.1093221 1.13695.1749154.524746.0874577 1.049492.2842375 1.53051.568475.131186.0655933.262373.1749154.371695.2842375.284237.2842375.568475.5903394.852712.8745769.174916.1749154.371695.3061019.59034.3935596.196779.0655933.34983.0437289.524746-.0437288.240508-.153051.284237-.3935596.131186-.6122039-.196779-.2842375-.437288-.5247461-.765254-.7215259-.371696-.2186442-.743391-.4591529-1.049493-.7433904-.043729-.0437288-.087457-.0655933-.131186-.0874577-.699662-.3716952-1.421188-.6996615-2.208307-.830848-.240509-.0437289-.502882-.0874577-.74339-.1311866-.39356-.0437288-.743391-.1749154-1.027628-.3935596-.218644-.1530509-.415424-.3061019-.612204-.5028817-.306102-.3061019-.590339-.6340683-.94017-.9183058-.131187-.1093221-.240509-.262373-.306102-.415424-.306102-.8964413-.349831-1.7491538.240509-2.5581374.021864-.0218645.043728-.0437289.065593-.0655933.612204-.9401702 1.246272-1.8584759 1.814747-2.8205105.284237-.4372885.612204-.8308481 1.005763-1.2025433.131187-.1093221.240509-.2186442.349831-.3498307.131187-.1311866.240509-.2842375.306102-.4591529.087458-.2405087.065593-.5028817-.131187-.721526-.087457-.0874577-.196779-.1749153-.306101-.2405086-.131187-.1093221-.306102-.1749154-.459153-.2842375-.437289-.2842375-.808984-.6559327-1.027628-1.13695-.065593-.1749154-.131187-.3498308-.174916-.5247461-.065593-.3498308.065594-.568475.371696-.721526.174915-.0874577.371695-.1530509.568475-.1967798.481017-.1530509.962034-.3498307 1.421187-.5903394.415424-.2186442.787119-.0655933 1.005764.2186442.087457.1093221.153051.2405087.240508.3716952.065593.0655933.131187.1749154.218644.2405087.262373.262373.568475.3498307.918306.1967798.19678-.0874577.39356-.2186443.568475-.3498308.415424-.3935596.787119-.8089836 1.13695-1.2681365.109322-.1749154.218644-.3279663.349831-.4810173.087458-.1093221.19678-.2186442.306102-.3061019.284237-.2405087.634068-.3716952 1.005763-.3061019.612204.0874576.896442.6122038.655933 1.1588144-.087458.1530509-.19678.3061019-.306102.4372884-.131187.153051-.284237.2623731-.415424.3935596-.153051.1093221-.306102.2186442-.459153.3279664-.699661.5028817-1.377459.983899-2.07712 1.4649163-.131187.0874577-.284238.1749154-.415424.2405086-.459153.1967798-.874577.1311866-1.268137-.1530509-.153051-.1093221-.284237-.2405087-.415424-.3935596-.131186-.1093222-.240508-.2623731-.34983-.3716952-.109322-.0874577-.240509-.1967798-.371696-.2623731-.34983-.1749154-.765254-.0655933-.962034.2623731-.174916.262373-.19678.830848.131186 1.0932211.174916.1311865.371696.2405087.59034.2842375.218644.0655933.437288.1093221.655932.153051.284238.0655932.546611.1967798.765255.3935596.153051.1530509.19678.3279663.131187.5247461-.043729.1311866-.109322.2623731-.174916.3935596-.174915.3279664-.371695.6340683-.54661.9620346-.240509.4154241-.524746.7652548-.874577 1.0713567-.131187.1093221-.262373.2186443-.371695.3279664-.349831.3279663-.634068.6559327-.808984 1.0713567-.284237.6340682-.634068 1.1806788-1.093221 1.6835605-.174915.1749154-.284238.3716952-.39356.568475-.284237.5903394-.196779 1.1588144.240509 1.6398317.415424.4372885.896441.721526 1.443052.9620346.502882.2186442 1.027628.2186442 1.574238.0437289.131187-.0437289.284238-.0874577.459153-.1311866.39356-.1311865.787119-.0874577 1.180679.0655933.174915.0874577.327966.1749154.481017.2623731.39356.2405086.808984.4591528 1.246272.6122038.502882.1967798.983899.4591529 1.443052.7433904.174916.1093221.349831.2186442.524746.3279663.174916.0655933.349831.1311865.502882.1749154.174916.0437288.371695.0218644.524746-.0655933.240509-.1530509.284238-.3935596.131187-.6122038-.131187-.1749154-.262373-.3061019-.459153-.415424-.174915-.0874577-.371695-.1749154-.546611-.2842375-.54661-.306102-1.115085-.5466106-1.705425-.721526-.240508-.0655933-.502881-.1530509-.787119-.1530509-.043729 0-.087457-.0218645-.131186-.0437289-.087458-.0218644-.153051-.0655933-.240509-.1093221-.153051-.0655933-.306102-.153051-.459153-.2186442-.065593-.0437289-.131186-.1093221-.153051-.1749154-.153051-.3498308-.131186-.6777971.240509-.9183058.087458-.0874577.19678-.1311865.327966-.1749153.174916-.0655933.371695-.0874577.59034-.0655933.284237.0218644.54661.0655933.852712.1093221.371695.0437288.765255.1311865 1.13695.1749154 1.290001.1311865 2.580002.1093221 3.848138-.0437289.349831-.0437288.699662-.1093221 1.071357-.0874577.19678 0 .39356.0218645.59034.0218645.284237.0218644.568475.0218644.852712.0218644.19678 0 .39356-.0655933.524746-.1967798.131187-.1311865.153051-.2842375.043729-.4372885-.131186-.1530509-.284237-.2405086-.481017-.2405086-.218644 0-.437289 0-.677797 0-.830848.0655933-1.639832.1093221-2.47068.1530509-1.246272.0655933-2.492544-.0218644-3.716952-.262373-.349831-.0655933-.721526-.1093221-1.071357-.153051-.327966-.0218644-.634068 0-.918305.1093221-.415424.153051-.743391.3935596-1.027628.721526-.131187.1530509-.262373.3061019-.371695.4591528-.306102.3716952-.677798.5903395-1.13695.6559327-.852713.153051-1.639832-.0218644-2.361358-.5028817-.109322-.0874577-.240509-.1749154-.262373-.3498308-.021865-.0874576-.043729-.1967798-.065593-.2842374-.109323-.568475.262373-1.0057635.830848-1.0057635.218644 0 .437288.0437289.634068.1311865.153051.0437289.284237.0874577.415424.153051.459153.1749154.896441.1311865 1.290001-.1311865.153051-.1093221.306102-.2405087.437288-.3498308.218645-.1967798.415424-.3935596.634069-.568475.109322-.1093221.240508-.2186442.371695-.3061019.284237-.1967798.612204-.3061019.983899-.2623731.218644.0437289.437288.0655933.677797.1093221.349831.0437289.699661.0874577 1.071357.0874577.415424 0 .830848.0218645 1.246272.0218645.218644 0 .437288 0 .655932-.0218645.218645-.0218644.437289-.0655932.634069-.1530509.131186-.0874577.240508-.1749154.327966-.3061019.087458-.153051.065593-.306102-.043729-.4591529-.087458-.1093221-.240509-.1749154-.371695-.1967798-.174915 0-.349831 0-.502882.0437288-.568475.0874577-1.115085.153051-1.68356.153051-.19678-.0218644-.437289 0-.634069 0-.218644 0-.415424 0-.612203-.0218644-.218645 0-.39356-.0874577-.568475-.2186443-.065594-.0655932-.131187-.1093221-.153051-.1749154-.327967-.6340682.218644-1.3118653.721526-1.2681365.174915 0 .327966.0218645.481017.0437289.19678.0437288.393559.1093221.568475.1749154.284237.0655932.54661.1093221.830848.0874576.568475-.0437288 1.115085-.1530509 1.68356-.2842374.743391-.1749154 1.464917-.3498308 2.208307-.4591529.240509-.0437289.459153-.1311866.699662-.2186442.174915-.0437289.306102-.1749154.415424-.3279664.218644-.2623731.109322-.5903394-.240509-.6559327-.109322-.0218644-.262373-.0218644-.371695 0-.218644.0437289-.415424.0874577-.612204.153051-.349831.1093221-.677797.2186442-1.027628.3061019-.808983.1967798-1.639832.3716952-2.448815.5466106-.19678.0218644-.415424.0437288-.612204.0655932-.240509 0-.481017-.0655932-.699662-.1749153-.240508-.153051-.327966-.5466106-.131186-.7871193.109322-.1093221.218644-.2186442.349831-.2842374.174915-.0655933.34983-.153051.524746-.1967799.918306-.3498307 1.771018-.7652547 2.558137-1.3118653.524746-.3279664 1.049493-.6340683 1.617968-.8964413.174915-.0874577.327966-.1749154.481017-.2842375.131186-.0655933.240509-.1749154.327966-.2623731.065594-.0874577.131187-.1749154.174916-.2842375.087457-.2623731-.043729-.4810173-.327967-.5247461-.174915 0-.327966.0218644-.459153.1093221-.218644.1093221-.437288.2405086-.634068.3935596-.983899.6559327-1.967798 1.2462721-3.01729 1.7491538-.306102.1530509-.59034.2842375-.896442.4372884-.634068.3279664-1.158814.7871193-1.530509 1.3993231-.174915.3061019-.415424.568475-.655933.8527125-.131186.1530509-.240508.3061019-.371695.4591529-.131187.2186442-.240509.4591528-.284237.7215259 0 .0437288.021864.0655933.021864.0874577.065593.0218644.131186.0218644.19678.0218644zm-1.924069-8.5927181c-.065594.0874577-.109323.1749154-.153051.2623731-.043729.0655932-.131187.0655932-.174916.0218644-.043729-.0655933-.109322-.1311865-.131186-.1967798-.043729-.0655933 0-.1311865.043729-.1749154.043728-.0655933.087457-.0874577.131186-.0655933.087458.0437289.218644.0218645.284238.153051zm-.524747.5903394c-.021864 0-.087457 0-.131186-.0218644-.021865-.0218644-.065593-.0655933-.065593-.0874577s.043728-.0655933.065593-.0874577c.043729-.0218644.109322-.0437288.174915-.0218644.087458 0 .174916.0655933.153051.1311865-.043729.0874577-.109322.0874577-.19678.0874577zm-6.493733 4.0230538c-.043729-.0218644-.087458-.0437289-.131187-.0655933-.021864-.0218644 0-.0874577.021865-.1093221.087457-.0437288.174915-.0655933.262373-.0437288.021864.0218644.065593.0437288.065593.0874577.021865.0437288-.021864.0874576-.065593.1093221-.043729 0-.087458.0218644-.153051.0218644zm.306102-.415424c-.087458 0-.131187-.0655933-.109322-.1093222.021864-.0218644.043729-.0437288.065593-.0437288.065593 0 .109322.0655933.087458.1093221 0 .0218644-.021865.0437289-.043729.0437289zm1.771018 5.6191566c-.065593.0218644-.087458.0437288-.109322.0437288-.021864-.0218644-.043729-.0437288-.065593-.0437288.021864-.0218644.021864-.0655933.043729-.0655933.021864 0 .043728.0218644.131186.0655933zm-.74339-9.3798373c-.021865.0218644-.021865.0437288-.021865.0655932-.021864-.0218644-.043729-.0218644-.065593-.0437288 0 0 0-.0218644.021864-.0218644.021865-.0218645.043729 0 .065594 0zm-4.919495-4.3728846c.174915-.3279663.109322-.6340682-.087458-.9183057-.043729-.0655933-.109322-.1093221-.19678-.1311866-.087458-.0437288-.153051.0218645-.153051.1311866 0 .0655932.021865.1093221-.021864.1530509-.087458.0655933-.065594.153051-.065594.2405087.065594.2186442.153051.3935596.284238.5466105.087458 0 .174915 0 .240509-.0218644zm18.366115 19.6998448c.174915 0 .306102-.0437288.415424-.1530509.087457-.0874577.087457-.1967798.021864-.3061019-.065593-.0874577-.153051-.153051-.240509-.1749154-.131186-.0218644-.284237-.0218644-.415424.0437288-.065593.0218645-.131186.0874577-.174915.1311866-.109322.1311865-.087458.2842375.065593.3498307.109322.0655933.218645.1093221.327967.1093221zm-.327967-14.5835699c0 .1749154.109322.2405087.284238.1749154.19678-.0874577.327966-.2405086.393559-.4591529.021865-.0437288.021865-.0874577.021865-.1311865-.021865-.1311865-.109322-.1967798-.218644-.1749154-.262373.0655933-.481018.3279664-.481018.5903394zm-24.750526 2.9516971c0-.0437289-.043729-.1311865-.109322-.2186442-.087458-.0655933-.174916-.1311866-.240509-.1967798-.087458-.0655933-.174915-.0655933-.262373 0-.087458.0655932-.131187.1530509-.109322.262373.065593.1967798.218644.3498308.415424.4372885.174915.0437288.306102-.0437289.306102-.2842375zm27.745952 4.9632239c.218644-.0218644.39356-.1093221.502882-.3061019.087458-.1311865.021864-.2623731-.131187-.3061019-.021864 0-.065593 0-.087457 0-.218645.0218644-.39356.1311865-.502882.3061019-.087458.1311866-.021864.2623731.131186.3061019zm-24.466289-7.2589883c-.021864-.2186442-.109322-.3935596-.327966-.5028817-.131187-.0874577-.327966.0218644-.284238.1967798.021865.1749154.087458.3498308.240509.4810173.065593.0655933.153051.0874577.240509.0437288.087457-.0437288.131186-.1311865.131186-.2186442zm-.481017 8.3522095c.19678 0 .327966-.153051.262373-.3498308-.021864-.0437288-.065593-.1093221-.109322-.153051-.043729-.0437288-.087458-.0655932-.131187-.0874576-.109322-.0655933-.218644-.0437289-.306102.0218644-.087457.0655932-.131186.1967798-.087457.3061019.065593.1311865.218644.2623731.371695.2623731zm2.448815 5.9689874c.19678 0 .306102-.0874577.349831-.1967798.043729-.1311866 0-.2186443-.109322-.306102-.043729-.0218644-.065593-.0437288-.087458-.0655932-.131186-.0655933-.306102-.0218645-.393559.1093221-.065594.1311865-.043729.2842375.087457.3716952.043729.0437288.131187.0655932.153051.0874577zm-3.563901-8.0898364c0-.0218645-.021864-.0655933-.021864-.0874577-.065593-.1749154-.19678-.2405087-.349831-.2842375-.131186-.0218644-.262373.1093221-.262373.2623731.021865.1530509.19678.3279663.371695.3498307.153051.0218644.262373-.0874577.262373-.2405086zm-.262373 1.6398317c0-.1311866-.109322-.2405087-.218644-.3061019-.131186-.0874577-.262373-.0655933-.371695.0437288-.065593.0655933-.087458.1311865-.043729.2186442.065593.153051.240509.2842375.415424.2842375.131187 0 .218644-.0655933.218644-.2405086zm-1.464916-.8745769c0-.0218645 0-.0437289-.021864-.0655933-.065594-.1749154-.218645-.2623731-.371696-.3061019-.174915-.0218644-.306102.1749154-.240508.3279663.065593.153051.240508.2842375.393559.2842375.131187 0 .240509-.1093221.240509-.2405086zm26.89324 1.6835605c.174915 0 .284237-.0437288.393559-.153051.043729-.0655932.087458-.1311865.065594-.1967798-.043729-.0874576-.087458-.1967798-.218644-.1967798-.131187-.0218644-.284238.0218645-.327967.153051-.021864.0655933-.065593.0874577-.109322.1093221-.065593.0874577-.043729.2186442.043729.2623731.065593 0 .109322.0218644.153051.0218644zm-24.641204-9.9920412c-.021865-.1967798-.109323-.3498307-.306102-.4591528-.109323-.0655933-.240509.0218644-.240509.1530509 0 .1967798.109322.3498308.240509.4810173.043728.0437289.109322.0655933.196779.0218645.065594-.0218645.109323-.1093222.109323-.1967799zm2.361357 3.257799c.021865-.1530509-.109322-.3716952-.262373-.4372884-.109322-.0437289-.284237.0437288-.284237.1749154.021864.1530509.065593.3061019.196779.415424.065594.0874577.174916.0874577.240509.0655933.087458-.0437289.109322-.1311866.109322-.2186443zm23.176288 1.5305096c.19678 0 .415424-.1967798.459153-.3716952 0-.1093221-.065593-.1967798-.174915-.1967798-.174916.0218644-.371696.1967798-.415424.3716952-.021865.1093221.043728.1967798.131186.1967798zm-2.2739 5.2911903c.131187 0 .262373-.0874577.349831-.1749154.043729-.0655933.065593-.1311865.021864-.2186442-.021864-.0655933-.087457-.1093221-.174915-.1311865-.153051 0-.327966.1093221-.39356.2405086-.043728.153051.043729.2623731.19678.2842375zm-21.711371.4591529c.087457.0218644.174915-.0437289.218644-.1311866s.021864-.1967798-.043729-.262373c-.043729-.0655933-.109322-.0874577-.174915-.1311866-.087458-.0437288-.153051 0-.218645.0437289-.065593.0655932-.109322.1311865-.087457.2186442.021864.1311865.174915.2623731.306102.2623731zm3.367121-.0437289c0-.0874577-.043729-.1530509-.153051-.2186442-.087458-.0655933-.19678-.0655933-.284238 0-.087458.0874577-.10933.1967798-.043729.3061019.043729.0437289.087458.1093221.153051.1311866.065594.0437288.153051.0655932.218644.0218644.087458-.0655933.109323-.1311866.109323-.2405087zm-6.209496-8.9862777c0-.2186442-.109323-.3498308-.262373-.415424-.065594-.0218644-.109323-.0655933-.174916 0-.065593.0437288-.087458.1093221-.065593.1749154.043729.1530509.131186.2842375.262373.3498307.043729.0437289.109322.0437289.153051.0218644.043729-.0218644.065593-.0874576.087458-.1311865zm3.061019 13.0967892c0-.1311865-.109322-.1967798-.218644-.2405087-.087458-.0437288-.153051-.0218644-.218645.0218645-.109322.0437288-.131186.1749153-.087457.2842375.043728.1311865.196779.1967798.327966.1749153.131186-.0218644.19678-.1093221.19678-.2405086zm-3.695088-7.8711922c.021865-.1967798-.196779-.3935596-.393559-.3716952-.109322.0218645-.174916.1311866-.109322.2405087.043728.0655933.109322.153051.174915.2186442.043729.0437289.131187.0437289.174915.0437289.087458.0218644.153051-.0655933.153051-.1311866zm3.082884 4.7445797c-.021865 0-.065593 0-.087458.0218645-.065593.0437288-.131186.1311865-.109322.2186442.021865.153051.174915.2623731.306102.2623731.109322 0 .174915-.0655933.19678-.1749154.043729-.153051-.109322-.3279664-.306102-.3279664zm12.047297 7.084073c0-.1311865-.131187-.2842375-.262373-.2842375-.131187.0218644-.240509.1311865-.240509.2623731 0 .1311865.153051.262373.284238.2405086.131186 0 .240508-.1093221.218644-.2186442zm-13.599671-16.0047574c.065593.0218644.153051-.0437288.153051-.1311865.021864-.1093221-.021865-.1967798-.087458-.2842375-.087458-.1093221-.240508-.153051-.306102-.1093221-.065593.0655932-.087457.1967798 0 .3279663.043729.1093221.109322.1967798.240509.1967798zm7.652548 10.6917027c0-.1311866-.131187-.2623731-.240509-.2623731-.131186 0-.240508.0874577-.240508.2186442-.021865.153051.109322.2842375.262373.2842375.109322-.0218644.218644-.1311865.218644-.2405086zm11.741195 4.4166134c-.043729-.153051-.087458-.2842375-.131187-.3935596-.174915 0-.240508.0218644-.306102.0874576-.065593.0655933-.065593.2186443.021865.2623731.109322.0218644.218644.0655933.327966.0874577.021865 0 .043729-.0218644.087458-.0437288zm7.258988-7.6306835c.153051 0 .262373-.0655933.327966-.153051.021865-.0437289.021865-.1093221.021865-.153051-.021865-.0655932-.087458-.0874577-.131187-.0874577-.153051 0-.284237.0655933-.34983.1749154-.043729.0874577-.021865.1749154.065593.1967798.021864 0 .043729.0218645.065593.0218645zm-29.232733-4.963224c-.021864.0437289-.065593.0874577-.065593.1311865 0 .1311866.109322.2623731.240508.306102.109323.0218644.218645-.0437289.19678-.153051-.021864-.153051-.19678-.2842375-.371695-.2842375zm6.406276 5.9689874c.109322 0 .19678-.0874577.174915-.1749154 0-.1311865-.109322-.2405086-.240508-.2405086-.087458 0-.174916.0874577-.174916.1749153.021865.1311866.131187.2405087.240509.2405087zm2.405086 4.1979691c0-.1093221-.131186-.2186442-.240508-.2186442s-.19678.1093221-.174916.2186442c0 .1093222.109322.2186443.240509.1967799.109322 0 .174915-.0874577.174915-.1967799zm-6.690513-1.3774586c0-.0874577-.065593-.1530509-.174915-.1967798-.109322-.0437288-.174916-.0218644-.218645.0437289-.043728.0437288-.043728.0874577-.043728.1311865.021864.153051.174915.2405086.306101.1967798.065594-.0218644.131187-.0874577.131187-.1749154zm6.909158.4372885c.109322 0 .196779-.0655933.196779-.1749154.021865-.1093221-.087457-.2186442-.218644-.2405087-.087458 0-.19678.0874577-.19678.1967798 0 .1093222.109322.2186443.218645.2186443zm5.968987 5.7284787c0-.1093221-.109322-.2186442-.218644-.2186442-.109322-.0218644-.19678.0874577-.19678.1967798s.109322.1967798.218644.1967798.19678-.0874577.19678-.1749154zm-7.040344-2.8861038c0-.1093221-.109322-.1967798-.218644-.1749154-.087458 0-.174916.0874577-.153051.1749154 0 .1093221.109322.1967798.218644.1749154.087458 0 .174915-.0874577.153051-.1749154zm16.46391-2.7986461c.021865 0 .065593-.0218644.109322-.0218644.065594-.0437289.109322-.1093221.109322-.1749154-.021864-.0655933-.087457-.1311865-.174915-.1311865-.109322-.0218644-.174915.0218644-.240509.0874577-.043729.0655932-.043729.1749153.043729.1967798.043729.0218644.087458.0437288.153051.0437288zm-20.727473 2.0115269c-.131186-.0218644-.196779.0655933-.196779.153051.021864.0874577.065593.1530509.131186.1749153.087458.0437289.174916.0218645.240509-.0437288.043729-.0655933.043729-.1749154-.021865-.2186442-.065593-.0437289-.131186-.0655933-.153051-.0655933zm-1.88034-5.7722076c0-.1311865-.153051-.2623731-.284237-.2186442-.043729.0218644-.087458.0655933-.087458.1093221-.021864.1093221.065593.2186442.19678.2623731.087457 0 .174915-.0655933.174915-.153051zm2.886104 7.3245816c.087458 0 .174915-.0655933.174915-.1530509.021865-.0655933-.065593-.1749154-.174915-.1967798-.087458 0-.174915.0655932-.19678.1530509 0 .1093221.087458.1967798.19678.1967798zm-2.973562-2.6018663c.021865-.1093221-.043728-.1749154-.153051-.2186442-.087457-.0437289-.174915-.0218644-.218644.0437288-.021864.0218645-.021864.0655933-.021864.1093221.021864.1311866.19678.2186443.306102.153051.043729-.0218644.065593-.0655933.087457-.0874577zm25.887477-.0874577c.021864-.0218644.087458-.0218644.131186-.0437288.043729-.0218644.087458-.0655933.087458-.1093221.021865-.0655933-.021864-.1093221-.087458-.1311866-.087457-.0218644-.153051-.0218644-.240508.0218645-.065594.0437288-.109322.1093221-.087458.1530509 0 .0655933.087458.1093221.19678.1093221zm-20.574422-8.0898364c0-.1530509-.065593-.2186442-.174915-.2405086-.043729-.0218644-.087458.0218644-.109322.0437288-.065594.0655933-.043729.1749154.021864.2405087 0 .0218644.021864.0218644.021864.0218644.043729.0437289.109323.0655933.153051.0437289.043729-.0218645.065594-.0874577.087458-.1093222zm11.91611 8.5927181c.087458 0 .153051-.0874576.153051-.1749153s-.087457-.153051-.174915-.153051c-.109322 0-.174915.0874577-.174915.1749154s.087457.1530509.196779.1530509zm10.975941-8.6145825c-.021865-.0218644-.021865-.0437288-.065594-.0655933-.021864 0-.043728-.0218644-.065593 0-.131186 0-.240509.0874577-.262373.1967799 0 .0437288.043729.0874576.065593.1093221.087458.0437288.218645-.0218645.306102-.1311866 0-.0218644.021865-.0655932.021865-.1093221zm-22.498491 8.067972c.065593-.0218644.131186-.0874577.131186-.1749154s-.109322-.1967798-.218644-.1749154c-.065593.0218644-.131186.1093221-.131186.1749154.021864.0874577.109322.1749154.218644.1749154zm-6.209496-3.41085c0-.0437288 0-.0437288 0-.0655932-.043729-.0874577-.19678-.1749154-.306102-.1311866-.021865 0-.043729.0437289-.043729.0874577-.021864.1311866.131186.2623731.262373.1967798.043729 0 .065593-.0655932.087458-.0874577zm13.599671 6.1439028c0-.1093221-.087458-.1967798-.174916-.1967798-.087457-.0218644-.174915.0655933-.174915.153051s.065593.1749153.153051.1749153c.109322.0218645.19678-.0437288.19678-.1311865zm-7.95865-1.3774586c.109322 0 .174915-.0655933.174915-.153051 0-.1093221-.087458-.1967798-.19678-.1967798-.065593.0218644-.131186.0874577-.131186.153051-.021865.0874577.065593.1749154.153051.1967798zm-3.498308-13.1842469c0-.1311865-.043729-.2186442-.131186-.2405086-.043729-.0218645-.087458-.0218645-.109323 0-.021864.0218644-.043728.0655932-.043728.0874577-.021865.1093221.021864.1749153.109322.2405086.021864 0 .065593.0218644.109322 0 .021864-.0218644.065593-.0655933.065593-.0874577zm26.762053 2.0552557c.021865-.0437288-.021864-.1093221-.087457-.1093221-.153051.0218645-.284238.1311866-.262373.2405087 0 .0218644.021864.0655933.043729.0655933.087457.0437288.218644-.0218645.284237-.1311866.021864-.0218644.021864-.0437288.021864-.0655933zm-30.413411 4.1761048c-.109323 0-.174916.0874577-.131187.1530509.043729.0874577.109322.153051.218644.153051.021865 0 .087458-.0218644.109322-.0655933.021865-.0218644.021865-.1093221-.021864-.1311865-.065593-.0437289-.131187-.0874577-.174915-.1093221zm2.62373 1.7491538c-.065593 0-.131186.0437288-.153051.1093221 0 .0874577.087458.1967798.19678.1967798.065593 0 .131187-.0437288.131187-.1093221.021864-.1093221-.065594-.1967798-.174916-.1967798zm1.180679-.3935596c0-.1311866-.153051-.2186442-.262373-.1967798-.021864.0218644-.043729.0437288-.043729.0655932-.065593.1311866.065593.2623731.19678.2405087.043729-.0218644.087458-.0874577.109322-.1093221zm1.508645-8.89882c0-.153051-.043729-.2405087-.131186-.2623731-.065594-.0218644-.131187.0218644-.153051.0655933 0 .0874576.043729.1749153.087457.2186442.021865.0437288.087458.0874577.131187.0655932.021864-.0218644.043729-.0655932.065593-.0874576zm8.570854 15.3925535c0-.0874577-.087458-.1749154-.174915-.1530509-.087458 0-.153051.0874576-.131187.1530509 0 .0874577.087458.153051.174915.153051.065594 0 .153051-.0874577.131187-.153051zm-10.647974-4.1542403c.065593.0218644.131187-.0437288.153051-.1093221 0-.0874577-.087458-.1749154-.19678-.1749154-.065593 0-.131186.0437289-.131186.0874577-.021865.1093221.065593.1967798.174915.1967798zm2.820511 3.9137317c-.065594 0-.131187.0655932-.131187.1311865 0 .0874577.065593.1749154.153051.1749154s.174915-.0874577.153051-.153051c0-.0655932-.087458-.1311865-.174915-.1530509zm-2.317629-9.051871c-.021865-.1311866-.19678-.2186442-.284238-.153051-.021864 0-.021864.0437289-.021864.0655933-.021865.0874577.021864.1311865.087458.1749154.021864.0218644.087457 0 .131186 0 .043729-.0218645.065593-.0655933.087458-.0874577zm7.280853 13.0967892c0-.0874577-.087458-.153051-.174916-.153051-.065593 0-.131186.0874577-.109322.1749154 0 .0874577.087458.1311865.174915.1311865.065594-.0218644.109323-.0874577.109323-.1530509zm-5.837801-5.3567836c-.021865-.1093221-.131187-.1967798-.218645-.1749154-.065593 0-.109322.0874577-.109322.153051.021865.0874577.131187.1530509.218645.1093221.043728-.0218644.065593-.0655933.109322-.0874577zm13.402891 4.2635624c0-.1093221-.087458-.1749154-.174916-.1749154-.087457.0218645-.153051.0874577-.131186.153051.021864.0874577.109322.153051.218644.1311865.043729-.0218644.065593-.0655932.087458-.1093221zm7.477632-11.435093c.109322 0 .174916-.0437289.218645-.1093221 0-.0437289 0-.0874577 0-.1093222-.021865-.0437288-.065594-.0655932-.109323-.0655932-.087457 0-.15305.0437288-.174915.1311865-.021864.0218644-.021864.0655933 0 .1093221 0 .0218644.065593.0437289.065593.0437289zm-14.955265-2.2083067c-.021864-.0218644-.021864-.0437289-.021864-.0655933 0-.0655933-.065593-.1093221-.131187-.1093221-.065593 0-.109322.0437288-.109322.1093221 0 .1093221.065593.1967798.131187.1967798.021864 0 .065593-.0218644.065593-.0437288.021864-.0218645.043729-.0655933.065593-.0874577zm-3.367121 12.6595007c.065593-.0218644.131187-.0655933.131187-.153051-.021865-.0655932-.109322-.1311865-.174916-.1093221-.065593 0-.109322.0655933-.109322.1093221 0 .0874577.065593.153051.153051.153051zm-3.323392-6.1001739c-.065593-.0218644-.109322.0437288-.109322.0874577 0 .0874577.065593.1749154.153051.1749154.065593 0 .109322-.0437289.131186-.1093222 0-.0874577-.065593-.1530509-.174915-.1530509zm7.215259 6.7342422c0-.0874577-.065593-.153051-.153051-.153051-.065593 0-.109322.0655933-.109322.1311865 0 .0655933.065594.1311866.131187.153051.065593 0 .131186-.0655933.131186-.1311865zm2.776782-24.6849332c0-.0218645 0-.0437289-.021864-.0655933-.021865-.0437288-.043729-.0655933-.065594-.0655933-.021864 0-.065593.0218645-.087457.0655933-.021865.0218644-.021865.0437288-.021865.0655933-.021864.1311865.021865.1967798.087458.2186442s.109322-.0874577.109322-.2186442zm-1.639832 21.3396765c-.065593-.0218644-.131186.0655933-.131186.1311865 0 .0437289.065593.1093221.131186.1311866.065594 0 .109322-.0437289.131187-.1093221 0-.0655933-.065593-.153051-.131187-.153051zm-7.412039-5.4661057c-.021864.0218644-.065593.0655933-.065593.0874577 0 .1093221.087458.1749154.174915.153051.065593 0 .087458-.0437289.087458-.1093221-.021865-.0874577-.087458-.1311866-.19678-.1311866zm6.952886 7.8493278c-.021864.0218644-.087457.0655932-.087457.1311865s.065593.1093221.131186.1093221c.065594.0218644.131187-.0437288.131187-.1093221s-.065593-.1311865-.174916-.1311865zm11.456958-1.0494923c.021864-.0218644.087458-.0437289.109322-.0874577.021865-.0655933-.043729-.1311865-.131186-.153051-.087458 0-.153051.0437289-.153051.1093221 0 .0655933.065593.1093222.174915.1311866zm-19.787303-2.4050865c0-.0655933-.087457-.1311866-.153051-.1311866-.065593 0-.109322.0437289-.109322.0874577 0 .0874577.065594.153051.153051.153051.043729 0 .109322-.0437288.109322-.1093221zm21.142897 1.5961028c-.021864-.0218644-.021864-.0655932-.043729-.0874577-.065593-.0655932-.196779-.0437288-.240508.0437289 0 .0218644 0 .0874577.021864.1093221.065593.0437289.153051.0437289.218644 0 .021865 0 .021865-.0437288.043729-.0655933zm-20.924252-14.3211968c.043729-.0218644.065593-.0218644.065593-.0437289.021864-.0437288.021864-.0874576.021864-.1311865-.021864-.0874577-.109322-.1311865-.153051-.0874577-.065593.0218644-.065593.0874577-.043728.153051.021864.0437288.087457.0655932.109322.1093221zm4.569664 13.6433997c-.021864-.1093221-.109322-.1749153-.174915-.1530509-.043729.0218644-.087458.0874577-.087458.1093221 0 .0874577.087458.1311865.153051.1311865.043729-.0218644.087458-.0655932.109322-.0874577zm4.635258 2.1864423c.021864-.0655933-.043729-.1311865-.109322-.153051-.065594-.0218644-.131187.0218645-.153051.1093222 0 .0655932.043728.1093221.109322.1311865.065593.0218644.153051-.0218644.153051-.0874577zm-2.689324-11.1071267c-.021865-.1093221-.065594-.153051-.131187-.1311865-.065593 0-.087458.0437288-.087458.0874576 0 .0874577.087458.153051.131187.1311866s.065593-.0655933.087458-.0874577zm-4.657122 4.3728845c.021864-.0874577-.021865-.1530509-.109323-.1749154-.043728 0-.087457.0437289-.087457.0874577-.021865.0874577.043729.153051.109322.153051.043729 0 .065593-.0437289.087458-.0655933zm19.721709-1.0494923c.109322 0 .174915-.0437288.174915-.1311865 0-.0437288-.043729-.0874577-.087457-.0874577-.087458.0218644-.153051.0874577-.153051.153051.021864.0218644.043728.0437288.065593.0655932zm-18.409844 7.499497c.065593 0 .109322-.0655933.087458-.1311865 0-.0655933-.065594-.1093221-.131187-.0874577-.065593 0-.087458.0437288-.087458.0874577 0 .0874577.065594.1311865.131187.1311865zm6.471869 2.1864423c-.065593-.0437289-.087458-.0874577-.153051-.1093221-.043729-.0218645-.109322.0655932-.087458.1093221 0 .0655932.065594.1093221.131187.0874577.043729 0 .065593-.0437289.109322-.0874577zm-10.560516-2.6237307c-.043729 0-.109322.0437288-.109322.1093221 0 .0655932.043729.0874577.109322.1093221.065593 0 .131186-.0437289.153051-.0874577 0-.0655933-.065593-.1311865-.153051-.1311865zm18.628488 3.4983076c0-.0874577-.043729-.1311866-.109322-.1311866s-.087458.0218645-.109322.0874577c0 .0655933.043729.1093221.131186.1093221.043729-.0218644.065594-.0655932.087458-.0655932zm-19.87476-18.103742c-.021865.0218644-.043729.0655933-.043729.0874577 0 .0874577.043729.153051.109322.153051.043729 0 .087458-.0655933.087458-.1093222-.021865-.0874576-.087458-.1311865-.153051-.1311865zm8.002379 16.1140795c-.065594-.0218644-.109323.0437289-.109323.1093221 0 .0655933.043729.1093221.109323.1093221.065593.0218645.109322-.0218644.109322-.0874576.021864-.0655933-.043729-.1311866-.109322-.1311866zm-6.603056-7.0184797c0-.0218644.043729-.0437288.043729-.0874576.021864-.0655933-.043729-.1311866-.109322-.1311866-.043729-.0218644-.109322.0218644-.109322.0874577.021864.0655933.087457.1311865.174915.1311865zm-1.486781.5903395c0-.0218645.043729-.0655933.065593-.1093222 0-.0437288-.065593-.0874577-.153051-.1093221-.043728 0-.087457.0437289-.087457.0874577 0 .0655933.065593.1311866.174915.1311866zm1.005764 2.2301711c.021864-.0218645.065593-.0437289.087457-.0874577 0-.0437289-.043729-.1093221-.131186-.1093221-.021865 0-.065594.0437288-.087458.0655932-.021864.0655933.043729.1093221.131187.1311866zm-1.33373 1.5086451c-.065593-.0437288-.109322-.0655932-.153051-.0874577-.043729 0-.087458.0655933-.065593.1093222.021864.0655932.087457.0874576.131186.0655932s.065593-.0437288.087458-.0874577zm2.186442-2.7111884c0 .0218644-.043729.0437289-.065593.0655933-.021865.0437288.043729.1093221.109322.1093221.021864 0 .065593-.0218644.065593-.0655933.021865-.0437288-.021864-.1093221-.109322-.1093221zm20.596286 5.2474615c.021865-.0437289.065593-.0655933.065593-.0874577.021865-.0655933-.021864-.1093221-.065593-.1093221-.065593 0-.131186.0437288-.109322.0874576.021865.0218645.065593.0655933.109322.1093222zm-22.214253-.0437289c-.043729.0437289-.065593.0655933-.065593.0874577-.021865.0655933.043728.1093221.109322.1093221.043728 0 .087457-.0655932.065593-.1093221-.021865-.0437288-.065593-.0437288-.109322-.0874577zm24.947306-10.2981431c-.065593-.0437288-.087458-.0655932-.109322-.0655932-.065593 0-.109322.0437288-.131187.1093221 0 .0437288.065594.0874577.109323.0655933.043728-.0218645.065593-.0655933.131186-.1093222zm.612204-.3716951c-.043729.0437288-.087458.0874576-.087458.1311865-.021864.0437288.021865.0655933.065593.0655933.065594 0 .131187-.0437289.109323-.1093222 0-.0218644-.043729-.0437288-.087458-.0874576zm-28.117648-1.2681366c0-.0874577-.065593-.1311865-.109322-.1093221-.021864 0-.065593.0437289-.065593.0655933 0 .0437288.043729.1093221.109322.1093221.021865 0 .065593-.0437288.065593-.0655933zm17.666454 12.4845854c.043729-.0437289.087458-.0437289.087458-.0874577.043728-.0437289-.021865-.1093221-.087458-.1311865-.043729 0-.109322.0437288-.087458.0874576 0 .0437289.043729.0874577.087458.1311866zm-10.757296-.6340683c.043729-.0437288.087458-.0437288.109322-.0874577 0-.0437288-.021864-.1093221-.087458-.1093221-.021864.0218644-.065593.0437289-.065593.0655933 0 .0437288.021864.0655933.043729.1311865zm7.783734 2.9298327c-.065593-.0437289-.087457-.0655933-.131186-.0874577 0 0-.065593.0437288-.065593.0655932-.021865.0437289.021864.0874577.065593.0874577s.065593-.0218644.131186-.0655932zm-13.687128-8.2866162c-.043729.0437288-.065593.0655932-.065593.1093221 0 .0437288.043728.0874577.087457.0655933.043729 0 .065593-.0655933.065593-.0655933-.021864-.0437289-.043728-.0655933-.087457-.1093221zm12.11289 4.0230537c-.043729-.0218644-.065593-.0437288-.109322-.0437288 0 0-.043729.0218644-.043729.0437288 0 .0437289.043729.0874577.087458.0655933.021864 0 .043729-.0218644.065593-.0655933zm-3.695087 0c-.043729-.0218644-.087458-.0655932-.109323-.0655932-.021864 0-.043728.0437288-.043728.0655932 0 .0437289.043728.0874577.087457.0655933.021865 0 .043729-.0437288.065594-.0655933zm-.655933-3.3452566c-.043729-.0218645-.087458-.0437289-.109322-.0437289-.043729 0-.087458.0218644-.065594.0655933.021865.0218644.043729.0655933.087458.0655933.021865 0 .043729-.0437289.087458-.0874577zm9.117464-1.858476c-.065593-.0655932-.087458-.0874576-.109322-.0874576s-.043729.0218644-.065593.0437288c0 .0218644.021864.0655933.043729.0655933.021864 0 .065593-.0218645.131186-.0218645zm-8.199158 7.7618701c.043728-.0437289.065593-.0655933.065593-.0874577 0-.0437288-.021865-.0874577-.043729-.0874577-.043729-.0218644-.109322.0218644-.109322.0655933.021864.0437288.043729.0655932.087458.1093221zm-8.570854-9.6640748c-.043729.0437288-.065593.0655932-.065593.0874577.021864.0218644.043728.0655932.065593.0655932.043729.0218645.087458-.0218644.065593-.0655932-.021864-.0218645-.043729-.0437289-.065593-.0874577zm6.362547 10.9322113c-.043729-.0218644-.065593-.0437288-.087458-.0437288-.021864-.0218645-.043729.0218644-.065593.0437288.021864.0218644.043729.0437289.087458.0655933 0 0 .043728-.0218644.065593-.0655933zm19.153234-4.9194951c-.043729-.0437288-.065593-.0655933-.087458-.0655933-.021864-.0218644-.043728 0-.065593.0218645 0 .0218644 0 .0655932.021865.0655932.021864 0 .065593-.0218644.131186-.0218644zm-17.360351 2.7111884c-.021865-.0218644-.043729-.0655932-.087458-.0655932 0 0-.021865.0218644-.043729.0437288.021864.0218644.021864.0655933.065593.0655933 0 .0218644.043729-.0218645.065594-.0437289zm-5.859666-8.9425489c-.043729-.0437288-.043729-.0874576-.087457-.0874576 0-.0218645-.043729 0-.065594.0218644.021865.0218644.021865.0655932.043729.0874577.021865 0 .043729 0 .109322-.0218645zm27.986461-.7871192c-.021864-.0437288-.043729-.0874577-.043729-.0874577-.043728-.0218644-.065593 0-.109322 0 0 .0218645 0 .0655933.021865.0655933.021864.0218644.065593.0218644.131186.0218644zm-3.585765-1.6835605c.021864.0218644.043729.0437288.065593.0437288.021865 0 .043729-.0218644.065594-.0437288-.021865-.0218644-.043729-.0437289-.065594-.0437289-.021864 0-.043729.0218645-.065593.0437289zm-16.726283-2.0989846c.043728.0218644.087457.0437289.109322.0655933.021864 0 .043729-.0655933.043729-.0655933 0-.0437288-.043729-.0655933-.065594-.0874577-.021864 0-.043729.0437289-.087457.0874577zm-2.995426 14.1025526c-.021865.0218645-.065594.0437289-.043729.0655933 0 .0218644.021864.0437288.043729.0437288.021864 0 .043729-.0218644.043729-.0437288s-.021865-.0437288-.043729-.0655933zm1.552374 1.3774587c-.021865-.0437289-.021865-.0874577-.043729-.0874577-.021865 0-.043729 0-.065593.0218644 0 .0218644 0 .0437288.021864.0655933zm-4.788309-17.4259449c-.043729-.0218644-.065593-.0437289-.109322-.0655933 0 .0218644-.021864.0437289-.021864.0655933.021864.0218644.043728.0437288.065593.0655933 0-.0218645.021864-.0437289.065593-.0655933zm.612204 12.8781449c-.021864.0437289-.043729.0655933-.043729.0874577-.021864.0218645.021865.0437289.043729.0655933.043729 0 .065593-.0218644.065593-.0655933 0-.0218644-.021864-.0437288-.065593-.0874577zm-4.197969-3.9137316c-.021865-.0437289-.043729-.0655933-.043729-.0874577-.021864 0-.065593 0-.087458.0218644 0 .0218644 0 .0437289.021865.0655933zm4.372884-8.483396c-.021864.0218644-.043728.0437288-.043728.0437288.021864.0218645.043728.0437289.043728.0655933.021865-.0218644.043729-.0437288.043729-.0655933 0-.0218644-.043729-.0218644-.043729-.0437288zm17.79764 16.8356054c.021865 0 .021865-.0218644.043729-.0218644-.021864-.0218644-.021864-.0437288-.021864-.0437288-.021865 0-.043729.0218644-.043729.0218644 0 .0218644.021864.0437288.021864.0437288zm-22.826457-19.1532342s-.021864.0218644-.021864.0437288c0 0 .021864.0218645.021864.0218645s.021865-.0218645.043729-.0437289c-.021864 0-.043729-.0218644-.043729-.0218644zm-.502882 9.1830575c0-.0437288-.021864-.0655933-.021864-.0655933-.021864 0-.043729 0-.065593 0 0 .0218645 0 .0655933.021864.0655933zm.109323 1.6835606c0 .0218644-.021865.0437288-.043729.0655932.021864 0 .043729.0218644.065593.0437289.021864 0 .043729-.0437289.043729-.0437289-.021865-.0218644-.043729-.0437288-.065593-.0655932zm23.701034.9620346c-.021865 0-.043729-.0218645-.065594 0-.021864 0-.021864.0218644-.021864.0437288.021864 0 .043729.0218644.065593.0218644 0 0 .021865-.0437288.021865-.0655932zm-8.505261 5.0944104c-.021864.0437289-.043729.0437289-.065593.0655933 0 .0218644.021864.0437288.043729.0437288.021864 0 .043729 0 .065593-.0218644-.021864-.0218644-.021864-.0437288-.043729-.0874577zm-12.550178-2.7767816c-.043729-.0218645-.065594-.0437289-.087458-.0437289 0-.0218644-.043729 0-.043729 0 .021865.0437289.021865.0655933.043729.0655933 0 .0218644.043729 0 .087458-.0218644zm20.683744 2.5800018c.021864-.0437288.021864-.0437288.043728-.0655932 0-.0218645-.043728-.0437289-.043728-.0437289-.021865.0218644-.043729.0437289-.065594.0437289.021865.0218644.043729.0437288.065594.0655932zm-14.692892-.3935596c-.021865 0-.043729-.0218644-.065594-.0218644 0 0-.021864.0437288-.021864.0437288.043729.0218645.065593.0218645.065593.0437289.021865 0 .021865-.0437289.021865-.0655933zm-5.531699-1.552374c.021864 0 .021864-.0218644.043728-.0218644-.021864-.0218644-.021864-.0437289-.043728-.0655933 0 0-.043729.0218644-.043729.0218644 0 .0218645.021864.0437289.043729.0655933zm4.023053.5028817c0 .0437289-.021864.0655933-.021864.0874577.021864.0218644.043729.0218644.065593.0218644 0 0 .043729-.0437288.043729-.0437288-.021864-.0218644-.043729-.0437288-.087458-.0655933zm14.058824-.6340682s-.021864 0-.043729.0218644c0 0 .021865.0218644.021865.0437288.021864-.0218644.043729-.0218644.065593-.0437288-.021864 0-.021864-.0218644-.043729-.0218644zm-4.722715 3.257799c0-.0218645-.021865-.0218645-.021865-.0437289-.021864.0218644-.021864.0437289-.021864.0437289v.0218644c.021864 0 .043729-.0218644.043729-.0218644zm-14.714757-2.120849c-.021864 0-.065593 0-.087457 0 0 0-.021865.0218644 0 .0218644.021864.0218644.043729.0218644.065593.0437288 0 0 0-.0437288.021864-.0655932zm25.40646-.4372885s-.021865-.0218644-.021865-.0218644c-.021864 0-.043729 0-.043729.0218644s.021865.0437288.021865.0437288c.021864 0 .021864-.0218644.043729-.0437288zm-18.803404 3.9137317c-.021864-.0218645-.021864-.0437289-.043729-.0437289 0 0-.021864.0218644-.021864.0437289 0 0 .021864.0218644.021864.0218644.021865 0 .021865-.0218644.043729-.0218644zm21.361541-15.1083161s-.021864-.0218644-.021864-.0218644c-.021865 0-.021865.0218644-.043729.0218644 0 .0218644.021864.0437288.021864.0437288.021865 0 .043729-.0218644.043729-.0437288zm-1.836612-1.4430519c0-.0218644-.021864-.0218644-.043728-.0218644 0 0-.021865 0-.021865.0218644s.021865.0218644.043729.0437288c0-.0218644.021864-.0218644.021864-.0437288zm-10.166956 13.9495017c0-.0218645 0-.0437289-.021864-.0655933-.021865.0218644-.043729.0437288-.065594.0437288.021865.0218645.021865.0437289.043729.0437289.021865 0 .021865-.0218644.043729-.0218644zm-4.810173 2.4050865c0-.0218645-.021864-.0218645-.043729-.0437289 0 0-.021864.0218644-.021864.0218644.021864.0218645.021864.0437289.021864.0437289.021865 0 .043729-.0218644.043729-.0218644zm-.153051-1.0494923c0 .0218644-.021864.0218644-.021864.0437288 0 0 0 .0218644.021864 0h.043729c-.021865-.0218644-.021865-.0218644-.043729-.0437288zm-8.592718-1.3993231c.021864.0218644.021864.0218644.043729.0218644 0 0 .021864-.0218644.021864-.0218644-.021864 0-.043729 0-.043729-.0218644 0 .0218644-.021864.0218644-.021864.0218644zm1.639832.568475v.0655933h.021864s0-.0218644.021864-.0218644c-.021864-.0218645-.021864-.0218645-.043728-.0437289z"
          fill="#e6594c" transform="translate(-347 -58)"/>
</svg>