<svg height="31" viewBox="0 0 29 31" width="29" xmlns="http://www.w3.org/2000/svg">
    <path d="m178.268393 80.546196c0 .0874577-.021865.1093221-.065594.0874577-.021864 0-.021864 0-.043728-.0218645-.065594-.0437288-.087458-.1093221-.065594-.1530509 0-.0218644 0-.0218644.021865-.0218644.065593-.0218645.087457.0437288.131186.0874576.021865 0 .021865.0218645.021865.0218645-.043729-.0874577-.109322-.1967798-.153051-.3061019-.153051-.306102-.284238-.6122039-.174916-.9620346.065594-.2405087.109322-.5028818.174916-.7433904.043729-.2186442.109322-.4372885.240508-.6122038.218645-.2623731.284238-.568475.371696-.8964414.065593-.1967798.021864-.3935596-.087458-.5903394-.043729-.0874577-.131187-.1967798-.262373-.1749154-.109322 0-.19678-.0437288-.284238-.0874577-.087457-.0655932-.174915-.0655932-.262373-.0437288-.19678.0437288-.327966.153051-.393559.3279663-.065594.1967798-.109322.4154241-.109322.6340683.043728.5466106 0 1.0932211-.218645 1.6398317-.021864.0218644-.021864.0437288-.043729.0874577-.15305.6340682-.109322 1.2462721.306102 1.7710182.109322.1967798.262373.3716952.415424.5466106.218645.2623731.481018.415424.830848.4810173.087458 0 .153051.0218644.240509.0218644.240509.0437289.481017.0437289.721526.0874577.153051.0437288.327966.0874577.481017.153051.284238.1311865.415424.3716951.371696.6777971-.087458.7433903-.568475 1.2900009-1.268137 1.4649163-.153051.0437288-.284237.0437288-.415424.0874577-.131187.0437288-.262373.0655932-.371695.1311865s-.19678.1311865-.262373.1967798c-.174916.1967798-.065594.4810173.19678.5028817.065593.0218645.131186.0218645.196779 0 .153051-.0655932.284238-.1093221.437289-.1967798.327966-.1749154.634068-.3498307.962034-.5466105.174916-.0874577.349831-.1967798.502882-.2842375.174916-.1311866.327966-.2842375.437289-.4372885.131186-.1967798.196779-.3935596.196779-.6122038 0-.0874577.021865-.1967798.021865-.3061019 0-.1967798.043729-.3498308.174915-.5247462.131187-.1749154.284238-.3498307.481017-.4810173.262374-.1749154.481018-.3935596.634069-.6996615.021864-.0874577.109322-.1749154.174915-.2405087.218644-.1749153.459153-.1967798.655933 0 .087458.0874577.174915.1967798.262373.2842375.043729.0874577.109322.1749154.153051.2623731.153051.2623731.349831.4372885.590339.5903394.109322.0437289.218644.0874577.327967.1749154.109322.0655933.218644.1311865.327966.2405086.131186.1311866.19678.306102.19678.5028818-.021865.1749154-.065594.3279663-.153051.4591528-.153051.2186443-.349831.3716952-.59034.4372885-.34983.1093221-.677797.1311865-1.027627 0-.153051-.0655933-.327967-.0874577-.481018-.0655933-.240508 0-.415424.1093221-.54661.3061019-.087458.1311866-.109322.2623731-.043729.4154241.087457.1311865.218644.1967798.371695.1967798.109322 0 .240509-.0218644.349831-.0655933.306102-.0874577.612204-.1311865.94017-.1311865.655933.0218644 1.13695-.2623731 1.421187-.8527125.065594-.1311865.109323-.2405087.153051-.3716952.131187-.3716952.349831-.6777971.677797-.8964413.262374-.1967798.502882-.4372885.699662-.721526.087458-.0874577.153051-.1749153.240509-.262373.196779-.1749154.415424-.2405087.655932-.1967798.153051.0218644.284238.0874576.415424.1311865.284238.1311865.459153.3498308.546611.6340683.021864.1093221.043729.2405086.043729.3498307.043729.2405087.065593.5028817.109322.7652548 0 .0655933.021864.153051.021864.2405087.021865.4372884-.131186.7433903-.524746.9401701-.109322.0874577-.262373.1311866-.393559.1749154-.481018.153051-.874577.4591529-1.180679.8527125-.174916.1967798-.327967.415424-.481018.5903394s-.284237.3061019-.437288.4372885c-.306102.3061019-.699662.4372884-1.13695.4591528-.39356.0437289-.721526-.0655932-1.027628-.262373-.109322-.0655933-.19678-.1311866-.284237-.1749154-.349831-.153051-.677797-.0218644-.808984.3061019-.109322.1967798-.021864.3935596.174915.4591529.109322.0437288.218645.0437288.327967.0655932.284237.0218645.568475.0655933.874577.0874577.109322.0218645.218644.0437289.34983.0437289.830848.0218644 1.574239-.2186442 2.142714-.8527125.153051-.1311865.284237-.2842375.415424-.415424.393559-.4591529.830848-.8089837 1.377458-1.0494923.19678-.0874577.371696-.1749154.568475-.2842375.349831-.2186442.546611-.5247462.59034-.9401702.021864-.2842375 0-.5466106-.043729-.8089836-.043729-.2186443-.109322-.4154241-.153051-.6340683-.021864-.1093221-.021864-.2405086-.021864-.3716952-.021865-.2405086.087457-.4591528.262373-.6122038.109322-.0874577.218644-.1749154.327966-.2405087.327966-.1749153.612204-.415424.830848-.7215259.174915-.1967798.327966-.3935596.481017-.5903394.174916-.2842375.371696-.568475.546611-.8308481.153051-.2186442.262373-.4591529.327966-.6996615.131187-.415424.284238-.8308481.502882-1.2244077.131187-.2405086.240509-.5028817.349831-.7433903.109322-.2186443.240508-.4154241.349831-.6340683.131186-.2842375.218644-.6122038.196779-.9401702 0-.1967798-.021864-.415424-.021864-.6122038-.021864-.3498308-.153051-.6777971-.262373-1.0057635-.021865-.0437288-.043729-.0874576-.065593-.1093221-.240509-.3279663-.437289-.6559326-.743391-.9183057-.131186-.153051-.240508-.3279664-.349831-.5028817-.087457-.153051-.153051-.2842375-.218644-.4372885-.109322-.2405086-.174915-.4810173-.19678-.7433904 0-.3279663.087458-.5466105.437289-.6559326.284237-.0874577.524746-.0437289.721526.1749153.131186.153051.262373.2842375.349831.4591529.218644.3935596.524746.6996615.94017.9183058.065593.0218644.109322.0437288.174915.0655932.174916.153051.371695.2186443.59034.2405087.131186.0218644.284237.0437288.415424.0437288.174915.0218645.327966.0218645.481017.0437289.284237.0655932.568475.0437288.830848-.0218644.459153-.1093222.874577-.2623731 1.268136-.4810173.415424-.2405087.852713-.4372885 1.290001-.5903395.109323-.0437288.19678-.0874577.284238-.1311865.174915-.0874577.306102-.1967798.437288-.3279663.043729-.0655933.109322-.153051.131187-.2405087.109322-.2186442-.043729-.415424-.284238-.415424-.087457 0-.174915.0218644-.262373.0437288-.131186.0655933-.262373.1311866-.371695.2186443-.218644.1311865-.415424.2842375-.634068.415424-.218644.1530509-.481017.3061019-.74339.3716952-.371696.1093221-.743391.2405086-1.115086.3279663-.371695.1093221-.74339.1093221-1.093221-.0655933-.306102-.1749153-.59034-.3498307-.852713-.5466105-.218644-.153051-.437288-.3279664-.634068-.5028817-.087458-.0655933-.174915-.153051-.262373-.2405087-.109322-.0874577-.218644-.1749154-.327966-.2405086-.240509-.153051-.437289-.3498308-.59034-.5903395-.043729-.0874576-.087457-.1530509-.131186-.2186442-.109322-.1530509-.240509-.3061019-.371695-.4372884-.153051-.1311866-.306102-.2842375-.437289-.4591529-.087458-.0874577-.153051-.1967798-.19678-.2842375s-.065593-.1967798-.065593-.3061019c.021864-.0655933.043729-.0874577.087458-.1311866.109322-.0655932.218644-.1093221.306102-.1749153.131186-.0874577.262373-.1093222.415424-.1311866.284237 0 .54661.0218644.808983.1311866.240509.1093221.459153.1749153.699662.2186442.371695.0437288.74339.0437288 1.13695 0 .218644-.0218644.437288-.0655933.655932-.1311865.415424-.153051.677798-.4591529.830849-.8964414.021864-.0437288.021864-.1093221.021864-.1967798 0-.1530509-.131187-.3061019-.306102-.3279663-.065593 0-.153051 0-.240509.0437288-.131186.0437289-.262373.0874577-.371695.153051-.131186.0437288-.262373.1311865-.393559.1967798-.371696.1530509-.721526.2186442-1.115086.1093221-.371695-.0874577-.721526-.1967798-1.071357-.2623731-.262373-.0655932-.54661-.1093221-.830848-.0874577-.349831.0218645-.655932.1749154-.896441.4372885-.131187.1530509-.218644.3279663-.306102.5247461-.087458.2405087-.131187.4810173-.153051.721526-.043729.3498307.065593.6559327.306102.8964413.087458.0874577.19678.1967798.306102.2842375.131186.1093221.240509.2405087.371695.3716952.087458.1093221.087458.2186442.021864.3279663-.065593.1311866-.15305.2186443-.262373.2842375-.153051.1311866-.34983.2623731-.502881.3935596-.459153.3498308-.59034.8964414-.327967 1.4211875 0 .0437289.021865.0655933.043729.0874577.153051.2623731.262373.5466106.349831.8308481.043729.2186442.153051.415424.284237.6122038.131187.2186442.327967.415424.524747.5903394.153051.153051.327966.3279663.481017.4810173.19678.2186442.284237.4591529.306102.7433904.021864.2405086.021864.4591529-.065593.6777971-.065594.2405086-.153051.4372884-.262374.6340682-.240508.4154241-.459152.8527125-.634068 1.3118654-.153051.3935596-.327966.8089836-.524746 1.2025432-.19678.4154241-.371695.8308481-.655933 1.1806789-.284237.3935596-.568475.7433903-.874576 1.1150855-.043729.0655933-.109323.1311866-.174916.1749154-.327966.3061019-.677797.3935596-1.093221.2405087-.327966-.1093222-.590339-.2623731-.874577-.4154241-.021864-.0655932-.021864-.1093221-.043729-.1530509-.109322-.1749154-.153051-.3935596-.174915-.5903394-.021865-.0655933-.021865-.153051-.021865-.2405087-.087457-.3061019-.196779-.6122038-.502881-.7871192-.19678-.2186442-.437289-.2623731-.699662-.2842375-.131186-.0218644-.284237-.0218644-.415424-.0437289-.240508-.0218644-.481017-.0874576-.677797-.1967798-.087458-.0437288-.153051-.0874576-.240509-.0874576-.109322-.0437289-.174915-.1093222-.196779-.2186443-.021865-.0655932-.043729-.1530509-.087458-.2186442-.087458-.153051-.153051-.3279663-.262373-.5028817-.109322-.153051-.218644-.3279664-.327967-.4810173-.065593-.1093221-.15305-.1967798-.284237-.2405087-.043729-.0218644-.065593-.0655932-.109322-.0874577-.153051-.1530509-.327966-.1530509-.502882-.1093221-.174915.0655933-.262373.2186443-.240508.4154241 0 .1093221.043728.2186442.131186.2842374.087458.1093222.19678.1967799.306102.2623731.284237.2186442.502882.4591529.721526.721526.087458.1311865.174915.262373.284237.3716952.065594.1093221.153051.2186442.262373.3279663.19678.1967798.459153.3279663.743391.3716952.109322.0218644.218644.0218644.327966.0437288.153051 0 .284238.0218644.437289.0437289.240508.0218644.437288.1530509.590339.3279663.131187.1311865.218644.3061019.284238.4810173.131186.3716952.109322.721526-.131187 1.0276279-.153051.2186442-.327966.415424-.481017.6122038-.043729.0655933-.109322.1311865-.174916.1749154-.284237.2623731-.590339.3279663-.94017.153051-.087458-.0655933-.174915-.0874577-.284237-.0655933-.153051.0218644-.349831-.1749154-.306102-.3279664.021864-.0874576 0-.1749153-.065594-.2405086-.065593-.0655933-.109322-.153051-.174915-.2405087-.087458-.0874576-.153051-.2405086-.327966-.1749153-.021865 0-.065594-.0218645-.087458-.0437289-.087458-.0655933-.153051-.1311865-.240509-.1749154.021865-.0655932.021865-.1093221.021865-.1749153-.021865-.0437289-.065593-.0874577-.109322-.1311866-.19678-.1530509-.306102-.3498307-.39356-.5903394-.065593-.153051-.109322-.3279663-.153051-.4810173-.087458-.3716952-.262373-.6559327-.590339-.8527125-.218644-.1311865-.437289-.2405086-.655933-.3498307-.174915-.1093222-.327966-.2405087-.39356-.4154241-.087457-.2405086-.196779-.4591528-.262373-.6777971-.087457-.262373-.218644-.4810173-.393559-.6777971-.153051-.1967798-.262373-.3935596-.349831-.6340682-.087458-.1967798-.131187-.3935596-.218644-.5903394-.153051-.3498308-.065593-.6559327.153051-.8964414.218644-.2405086.481017-.3935596.830848-.4372884.174915-.0218645.371695 0 .524746.1093221.087458.0437288.174915.0874577.240509.1311865.218644.153051.481017.1967798.74339.1749154.174915-.0218644.371695-.0218644.546611-.0655933.153051-.0218644.262373.0218645.34983.153051.087458.153051.174916.2842375.262373.4372884.131187.306102.306102.5466106.546611.7652548.327966.306102.699661.4810173 1.115086.6340683.109322.0437288.218644.0437288.34983.0437288h.59034c.306102-.0218644.568475-.1311865.787119-.3279663.043729-.0218644.109322-.0874577.153051-.1311865.284237-.2186443.612204-.306102.983899-.2623731.174915 0 .306102.0874577.371695.2623731.065593.1311865.087458.262373.153051.3935596.043729.1530509.065593.3061019.109322.4372884.065593.1967798.19678.3716952.371695.5028817.174916.1093222.349831.1093222.502882 0 .284238-.1967798.371695-.5466105.240509-.8745769-.087458-.1530509-.19678-.2842375-.349831-.415424-.087458-.0655933-.19678-.1530509-.262373-.2623731-.218644-.262373-.481017-.5247461-.743391-.7652548-.174915-.1530509-.371695-.2186442-.590339-.2405086-.240509-.0218644-.481017.0437288-.699661.1749154-.153051.0874577-.306102.1749154-.437289.2842375-.327966.262373-.699661.3498307-1.093221.3716952-.284238 0-.524746-.0437289-.74339-.1749154-.131187-.0655933-.240509-.1311866-.349831-.1967798-.131187-.0655933-.240509-.1749154-.327967-.3061019-.087457-.1749154-.218644-.306102-.34983-.4591529-.065594-.1093221-.131187-.1967798-.218645-.3061019-.043728-.0874577-.043728-.1749154-.021864-.2623731.065593-.2842375.153051-.5903394.284238-.8527125.109322-.2405086.306101-.3935596.502881-.5247461.065594-.0437289.174916-.0655933.262373-.0655933.153051-.0218644.306102.0218644.437289.0655933.174915.0655932.327966.1311865.502882.1749153.437288.1093222.830848-.0655932 1.049492-.4810173.109322-.1967798.174915-.415424.218644-.6340682.087458-.5247462.131187-1.0494923.087458-1.5961029-.021865-.1967798-.043729-.3716952-.043729-.568475 0-.2186442.021864-.415424.131186-.6122038.065594-.1749154.131187-.3279663.19678-.4810173.131187-.2623731.174916-.5466106.19678-.8308481 0-.1749153 0-.3498307-.021864-.5028817 0-.1967798-.021865-.3935596-.021865-.5903394-.021864-.5247461-.021864-1.0494923.19678-1.5305096.021864-.0874577.043729-.1749154.065593-.2405086.043729-.2405087.065594-.4591529.021865-.6996615-.021865-.0874577-.043729-.1967798-.087458-.2842375-.131187-.2405087-.415424-.2842375-.590339-.0655933-.065594.0655933-.109323.153051-.153051.2623731-.043729.0874577-.043729.1967798-.065594.2842375-.109322.6122038-.109322 1.2025432-.021864 1.7928826.021864.1749154.043729.3279664.043729.5028817.021864.5247462-.065593 1.0494923-.240509 1.5305096-.087458.1967798-.131186.3716952-.19678.568475-.153051.4372885-.174915.9183058-.131186 1.3993231.021864.1311865.043729.2842375.043729.415424s0 .2623731-.021865.3935596c-.021864.3061019-.153051.568475-.415424.7433904-.327966.2405086-.677797.3279663-1.071357.3061019-.15305-.0218644-.306101-.0437289-.437288-.1093221-.174915-.0655933-.327966-.1967798-.327966-.4372885.109322-.1093221.153051-.262373.174915-.415424.087458-.3498308.153051-.6996615.240509-1.0276279.043729-.262373.131186-.5247461.262373-.7652548.153051-.2842375.262373-.568475.327966-.8527124.087458-.2842375.065593-.5247462-.021864-.7871193-.109322-.415424-.218645-.830848-.327967-1.2462721-.087457-.3061019-.196779-.6122038-.34983-.8964413-.065594-.1530509-.153051-.2842375-.262373-.415424-.371696-.4591529-.677798-.9620346-.808984-1.5305096-.043729-.1749154-.087458-.3498308-.174915-.5028817-.043729-.0874577-.109323-.1967798-.19678-.2623731-.109322-.1093221-.284238-.0874577-.39356.0218644-.087458.0874577-.109322.1749154-.109322.2842375 0 .0874577 0 .1749154.021864.2623731.043729.3061019.174916.5903394.327967.8527125.19678.3935596.415424.7652548.677797 1.1150855.240508.3279664.415424.6996616.568475 1.0713567.218644.4591529.262373.9620346.153051 1.4649164-.065593.2186442-.131187.4372884-.174916.6777971-.065593.3498307-.218644.6559326-.415424.9401701-.218644.306102-.327966.6559327-.306102 1.0057635 0 .1749154 0 .3498307.021865.5247461.021864.2623731.065593.5028817.087458.7652548.043728.3279664 0 .6340683-.109323.9620346-.043728.153051-.109322.3061019-.15305.4591529-.043729.1093221-.109323.2186442-.153051.3279663-.131187.2405087-.349831.3498308-.612204.3716952-.153051.0218644-.327967 0-.481018-.0218644s-.306102-.0655933-.459152-.1093221c-.19678-.0437289-.349831-.153051-.502882-.3061019.065593-.2405087.021864-.4810173.021864-.721526 0-.0437288-.021864-.0655933-.021864-.1093221 0-.3498308-.131187-.6559327-.371695-.8964413-.087458-.1311866-.174916-.2405087-.262373-.3716952-.043729-.0655933-.065594-.1093221-.043729-.1967798.021864-.0874577.043729-.1967798.043729-.3061019 0-.1967798.021864-.3935596.109322-.5903394.065593-.1749154.153051-.3498308.240508-.5466106.153051-.2842375.39356-.4372885.721526-.415424.19678.0218644.371695.0655932.502882.2186442.065593.0655933.153051.1530509.240509.1967798.240508.1967798.568475.0655933.655932-.2405087.021865-.1311865.021865-.262373-.021864-.3935596-.065593-.1749153-.153051-.3279663-.262373-.4591528-.174916-.2186443-.415424-.3279664-.721526-.2842375-.174916.0437288-.371695.0437288-.546611.0437288-.327966 0-.568475-.153051-.721526-.4372884-.153051-.306102-.34983-.5903395-.590339-.8308481-.306102-.3279663-.699662-.6122038-.962035-.9620346-.043728-.0874577-.087457-.153051-.131186-.2405087-.131187-.3498307-.349831-.6122038-.634068-.830848-.043729-.0437289-.065594-.0655933-.131187-.0874577-.240509-.0874577-.459153.0655933-.437288.3498308 0 .1093221.065593.2186442.109322.3061019.131186.2405086.306102.4372884.524746.6122038.240508.2186442.481017.4591529.677797.6996615.153051.1967798.327966.3935596.459153.568475.153051.1967798.327966.3498308.54661.4810173.065594.0655933.153051.1311866.240509.1967798.19678.2186443.218644.4372885.021864.6777971-.065593.1093221-.153051.2186443-.262373.2842375-.174915.153051-.284237.3279664-.34983.5247462-.021865.0874577-.043729.1967798-.065594.2842375-.021864.1093221-.021864.1967798-.043729.3061019-.065593.2842375-.218644.4810173-.481017.5903394-.065593.0218644-.153051.0437288-.218644.0437288-.240509.0655933-.459153.0874577-.699662.0655933-.174915-.0218644-.371695 0-.54661.0437288-.284238.1093222-.437289.306102-.459153.6122039-.021864.1530509-.021864.3061019 0 .4372884.065593.3935596.131187.7871193.19678 1.2025433.021864.1967798.109322.3935596.19678.5903394.109322.3061019.327966.5247461.590339.6777971.131187.0874577.284238.153051.415424.2405086.284238.1311866.459153.3716952.546611.6777972.109322.4372884.240508.8527124.459152 1.246272.043729.1311866.109323.2842375.153051.4154241.131187.5247461.349831 1.0057634.655933 1.4211874.262373.3716952.59034.6559327 1.027628.7871193.043729.0218644.131187.0655932.174915.0874577.415424.2186442.677797.5684749.78712 1.0276278.043728.2186442 0 .3935596-.153051.568475-.065594.0655933-.131187.1311865-.218645.1749154-.327966.2186442-.590339.5028817-.830848.7871192-.065593.0874577-.131186.1749154-.196779.2186442-.218645.1967798-.459153.2405087-.721526.153051-.065594-.0437289-.153051-.0655933-.218645-.1093221-.131186-.0655933-.262373-.1311866-.393559-.1749154-.437289-.1967798-.896442-.3716952-1.311866-.6559327-.021864-.0218644-.065593-.0437288-.087457-.0437288zm1.508645-9.7515325c.109322.0437288.153051.1311865.19678.2405086.043729.0874577.087457.1967798.109322.3061019.065593.1967798.109322.3716952.174915.568475.109322.4372885-.021864.8089837-.262373 1.1588144-.131186.1749154-.306102.3279664-.502882.4372885-.196779.1093221-.415424.1311865-.655932 0-.043729-.0218645-.109322-.0437289-.153051-.0655933-.043729-.0437288-.087458-.0655933-.131187-.1093221.021865-.0874577.065593-.1749154.043729-.2623731 0-.0874577-.043729-.1749154-.087458-.2623731-.109322-.2842374-.174915-.5466105-.153051-.8527124 0-.1093222.021865-.2186443.043729-.3279664.065594-.1967798.174916-.3716952.371695-.4591529.262374-.1093221.502882-.2186442.765255-.2842374.087458-.0218645.153051-.0655933.240509-.0874577zm-1.814747 9.7515325c.109322.0218644.153051.0874577.153051.1749154-.087458-.0218645-.087458-.0218645-.153051-.1749154zm5.225597-.568475c.087458.0437288.153051.1093221.19678.1749154-.109322 0-.109322 0-.174916-.0655933-.021864 0-.021864 0-.021864-.1093221zm-1.967798-2.4706798c-.021865.0218644-.043729.0437289-.043729.0437289-.021864-.0218645-.065593-.0218645-.065593-.0437289s-.021865-.0218644-.021865-.0437288c.021865 0 .043729-.0218644.043729-.0218644.021865.0218644.043729.0437288.087458.0655932zm13.577806 5.8815297c.174916 0 .415424-.0218644.677797-.0655932.699662-.1093222 1.311866-.4591529 1.771019-1.0057635.327966-.3716952.459152-.7871192.393559-1.2900009-.043729-.3061019-.174915-.5903394-.393559-.8089837-.459153-.5903394-1.027628-1.0494923-1.72729-1.3555942-.218644-.0874577-.459153-.1967798-.677797-.3061019-.218644-.0874577-.371695-.2623731-.502882-.4591529-.218644-.3279663-.153051-.6996615.174916-.9401701.131186-.1311866.306102-.1967798.481017-.2623731.415424-.153051.765255-.0874577 1.115086.1749154.109322.0874577.218644.1967798.327966.3061019.306102.3061019.590339.6122038.918306.8964413.153051.1749154.34983.3279664.568475.3935596.153051.0437289.306102.0437289.437288 0 .240509-.0874577.306102-.3061019.153051-.5247461-.021864-.0437289-.065593-.0874577-.109322-.1311866-.153051-.1093221-.306102-.2186442-.459153-.3279663-.174915-.1311865-.349831-.2623731-.524746-.415424-.306102-.2405087-.612204-.4810173-.94017-.6996616-.306102-.1967798-.481018-.4810173-.502882-.8745769 0-.0874577 0-.1749153-.021864-.262373 0-.2405087-.087458-.4591529-.240509-.6340683-.087458-.1093221-.174915-.1967798-.284237-.2842375-.174916-.1749154-.306102-.3716952-.349831-.6340682-.043729-.1311866-.043729-.2405087.021864-.3716952.065593-.1093221.131187-.1749154.284238-.1967798.34983-.0218645.677797.0218644.983899.2186442.109322.0655933.196779.1311865.306102.1967798.087457.0437288.174915.0874577.240508.1311865.153051.0655933.306102.1311866.437289.1967798.284237.1311866.481017.3498308.590339.6122039.109322.3061019.218644.5903394.327966.8745769.087458.2405086.174916.4810173.284238.6996615.174915.4372885.481017.7871192.808984 1.1150856.153051.1311865.306102.2405086.502881.2842375.218645.0655932.437289.0437288.612204-.0437289.284238-.1311865.306102-.415424.109322-.6122038-.109322-.0874577-.218644-.153051-.327966-.2186443-.109322-.0655932-.218644-.1093221-.349831-.1530509-.306102-.1311865-.502882-.3935596-.634068-.6996615-.021865-.1311866-.065593-.2623731-.087458-.3935596-.043729-.2405087-.087457-.4591529-.131186-.6777971-.043729-.1967798-.087458-.3498308-.131187-.5247462-.109322-.2623731-.240509-.5247461-.459153-.6996615-.284237-.2623731-.590339-.4591529-.94017-.6122038-.39356-.153051-.765255-.2842375-1.180679-.3498308-.349831-.0437289-.699661-.1093221-1.071356-.1749154-.087458 0-.19678 0-.284238 0-.481017.0218644-.808984.4372885-.765255.9183058.021865.0218644.021865.0655932.021865.0874576.065593.306102.131186.5903395.196779.9183058.065594.2623731.174916.5247461.371696.7215259.087457.0874577.174915.1967799.262373.2842375.109322.1311866.174915.2623731.218644.4154241.065593.3498307-.065593.5247461-.327966.6340682-.109322.0218645-.218645.0437289-.327967.0874577-.218644.0218644-.437288.0874577-.634068.1967798-.327966.1967798-.546611.4591529-.634068.8527125-.021865.1967798 0 .3716952.109322.5466106.109322.1967798.240509.3498307.393559.4810173.174916.1530509.349831.2842375.524747.415424.109322.0655933.218644.1311865.306102.1967798.327966.1749154.677797.3279664 1.005763.5247462.153051.0655932.284237.1530509.437288.262373.284238.2186443.524747.4810173.634069.8745769.043729.2186443.043729.4591529.021864.6996616-.021864.1967798-.109322.3716951-.262373.5247461-.131186.1311865-.306102.2623731-.502882.3498308-.437288.1967798-.918305.3279663-1.399323.3061019-.240508 0-.459153-.0218644-.699661-.0218644-.262373.0218644-.524746.0874577-.765255.2186442-.109322.0655933-.240509.1311865-.349831.1967798-.19678.0874577-.393559.1311865-.612204.0874577-.043728 0-.087457-.0218644-.153051 0-.131186 0-.174915-.0655933-.240508-.153051-.043729-.0874577-.087458-.1749154-.131187-.262373-.218644-.3279664-.240508-.6777972-.065593-1.0494923.065593-.1093221.153051-.2405087.240509-.3498308.306102-.3279663.634068-.6340683 1.049492-.8745769.087458-.0437289.174915-.1093221.262373-.1749154s.153051-.1311865.218644-.1967798c.109322-.1749154.153051-.3498308.043729-.5247461-.109322-.2186443-.327966-.3498308-.612204-.306102-.174915.0437289-.306102.1311866-.415424.2842375-.065593.1093222-.109322.1967798-.153051.306102-.131186.3498307-.349831.6340682-.634068.8745769-.109322.1093221-.240509.2186442-.349831.3279663-.174915.1967798-.327966.3935596-.393559.6340683-.174916.4810173-.109323.9183057.218644 1.3118653.131186.153051.306102.2405087.481017.3279664.131187.0655932.262373.1311865.39356.1967798.174915.1093221.284237.2405086.34983.4372884.021865.153051.043729.3279664 0 .4810173-.043728.1749154-.109322.3279664-.196779.4591529-.153051.2623731-.349831.4372884-.568475.6340683-.349831.2842374-.721526.5684749-1.071357.8527124-.284238.2405087-.590339.4591529-.896441.6340683-.153051.0655933-.284238.153051-.415424.2623731-.19678.1967798-.240509.4372884-.19678.7215259.021864.0655933.065593.153051.109322.2186442.087458.1311866.240509.1749154.39356.0874577.043728-.0437288.109322-.0874577.153051-.1530509.065593-.0655933.131186-.1311866.174915-.2186443.174915-.262373.393559-.5028817.634068-.6996615.19678-.1530509.39356-.2842375.59034-.415424.524746-.3061019.983899-.6996615 1.399323-1.13695.306102-.3498308.459152-.7433904.437288-1.2025432-.021864-.1311866-.021864-.2623731-.021864-.3935596 0-.0655933.021864-.153051.021864-.2405087.043729-.2405086.19678-.415424.415424-.5247461.153051-.0655933.306102-.0874577.437289-.0874577h.459152c.174916.0218644.349831.0437288.612204.0437288zm-19.787302-10.6917027c.174915 0 .306102-.0218644.415424-.0874577.262373-.1530509.306102-.4372884.087457-.6340682-.065593-.0655933-.153051-.1093221-.240508-.1311866-.153051-.0437288-.284238-.0655932-.415424-.1530509-.240509-.2186442-.546611-.2405087-.852713-.2186442-.043729 0-.087457.0218644-.109322.0437288-.174915.0655933-.262373.2842375-.174915.4372885.043729.0874577.109322.1749153.174915.2186442.284238.2405086.59034.4372884.962035.5028817.065593.0218644.131186.0218644.153051.0218644zm-2.186443 2.3176288c-.043728 0-.109322 0-.196779.0218645-.131187.0437288-.262373.0874576-.349831.1967798-.109322.1311865-.131187.3061019 0 .4372884.021864.0437289.087458.0874577.131186.1093221.284238.1967798.59034.2842375.940171.3061019.240508 0 .502881-.1749153.568475-.415424.043728-.1749154-.043729-.3716952-.218645-.415424-.131186-.0437289-.262373-.0655933-.393559-.0874577-.021865-.0218644-.065593-.0218644-.087458-.0437289-.109322-.1093221-.240509-.1093221-.39356-.1093221zm9.664075-9.0955998c-.021864-.3061019-.174915-.5903394-.459153-.7871192-.196779-.1311865-.437288-.0218644-.437288.2186442 0 .3279664.109322.6340683.371695.8308481.043729.0437288.087458.0655932.153051.0874577.153051.0655932.327966-.0437289.349831-.2186443.021864-.0218644.021864-.0655932.021864-.1311865zm-7.237124 8.7894979c.174916 0 .306102-.0437288.371696-.0874577.153051-.1093221.174915-.2842375.065593-.4372884-.065593-.0655933-.153051-.1093221-.262373-.153051-.109322-.0437288-.240509-.0437288-.349831-.1093221-.153051-.0655933-.327966-.0218644-.459153.0874577-.087458.0655933-.109322.1967798-.043729.2842375.19678.2405086.437289.3935596.677797.415424zm17.906963-11.1945844c0-.1093221 0-.2186442-.043729-.3061019-.065594-.153051-.240509-.1967798-.371695-.1093221-.043729.0218644-.087458.0655933-.109323.1093221-.153051.1967798-.218644.415424-.218644.6559327 0 .0874577.021865.1530509.065593.2186442.087458.153051.262374.1967798.39356.0874577.065593-.0437289.131187-.1093221.174915-.1967798.087458-.1311865.109323-.3061019.109323-.4591529zm-3.06102 4.7445797c0-.1311865 0-.2842375-.087457-.3935596-.109322-.2186442-.371695-.2405086-.502882-.0437288-.174915.2186442-.19678.5903394-.065593.8089836.153051.2186442.371695.2405087.524746.0218644.109322-.1093221.131186-.2405086.131186-.3935596zm-8.833226-4.088647c-.021865-.3061019-.153051-.5903394-.437289-.7871192-.19678-.1311866-.371695-.0437289-.393559.1967798v.0655932c.021864.2842375.153051.5247462.34983.721526.043729.0437288.109322.0655933.153051.1093221.131187.0437289.284238-.0218644.306102-.1749154.021865-.0218644.021865-.0874577.021865-.1311865zm5.794072-2.3613577c-.021865-.1311865-.043729-.262373-.087458-.415424-.043729-.0655933-.065593-.1311865-.131187-.1749154-.109322-.1530509-.284237-.1311865-.371695.0218645-.131186.2405086-.109322.7652547.087458.983899.043729.0655932.131186.1311865.240509.1311865.109322-.0218644.174915-.1093221.196779-.1967798.021865-.1311865.043729-.2405086.065594-.3498308zm2.667459 9.3579729c-.043729-.1093221-.043729-.2186442-.087457-.3279663-.087458-.1749154-.284238-.1967798-.437289-.0874577-.240509.153051-.262373.5466106-.087458.7652548.174916.1749154.415424.1093221.524747-.0655933.043728-.0874576.065593-.1967798.087457-.2842375zm-14.649163-.9183057c.262373 0 .371695-.1967798.262373-.415424-.021864-.0437289-.043729-.0655933-.087458-.1093221-.153051-.1967799-.393559-.2405087-.612203-.306102-.109323-.0437288-.218645.0874577-.19678.2186443 0 .0437288.021864.1093221.065593.1530509.109322.1749154.240509.3061019.437288.415424.043729.0218645.109323.0218645.131187.0437289zm14.496112-5.5972922c.021865.1093221.021865.2186442.065594.3498308.087457.1093221.218644.1530509.327966.0655932.240508-.1530509.327966-.6777971.131186-.8964413-.109322-.1093221-.240508-.1093221-.327966-.0218644-.043729.0437288-.087458.0874577-.109322.1530509-.021864.1093221-.043729.2405087-.087458.3498308zm-17.076114 14.8022141c.153051-.0218644.284238-.0218644.39356-.1311865.131186-.1093221.109322-.2842375-.043729-.3716952-.021865 0-.043729 0-.065593-.0218644-.109322-.0218644-.240509-.0655933-.349831-.0874577-.153051 0-.284238.0218644-.39356.1093221-.131186.0874577-.153051.2405087-.021864.3498308.131186.1093221.306102.1530509.481017.1530509zm9.882719-18.1474708c0-.2405086-.065593-.4591529-.240508-.6559327-.021865-.0218644-.087458-.0655932-.109323-.0874576-.109322-.0655933-.218644-.0218645-.240508.0874576-.021865.0655933-.043729.153051-.043729.2405087.021864.1749154.065593.3498308.174915.4810173.021865.0655933.065594.1093221.109322.153051.131187.1093221.306102.0655932.349831-.1093222 0-.0437288 0-.0655932 0-.1093221zm-6.253225 15.3050959c.043729-.0218644.109322-.0218644.153051-.0437289.218644-.0874576.262373-.3279663.065594-.4591528-.153051-.1093221-.349831-.1967798-.546611-.1749154-.043729.0218644-.087458.0218644-.131187.0437288-.131186.0655933-.174915.2186443-.087457.3279664.131186.1967798.306102.2842375.54661.3061019zm1.093221-7.8711922c0-.0218644-.021864-.0874577-.043728-.1530509-.109323-.2186443-.306102-.3061019-.502882-.3935596-.087458-.0218645-.131187-.0218645-.19678 0-.065593.0655932-.087458.1311865-.065593.2186442.065593.2623731.240508.4591529.502882.568475.065593.0437288.15305.0218644.218644-.0218644.065593-.0437289.109322-.1093222.087457-.2186443zm-3.629494 9.620346c.131187 0 .240509 0 .327967-.0655933.153051-.1311865.153051-.3498307-.043729-.4372884-.131187-.0437289-.262373-.0655933-.39356-.1093221-.109322-.0218645-.218644.0218644-.306102.0874577-.153051.0874577-.174915.2186442-.043729.3279663.153051.1311865.306102.1967798.459153.1967798zm9.554753-19.3718785c.021864.2186442.065593.4154241.19678.568475.043729.0874577.131186.153051.218644.1311865.109322-.0437288.153051-.1311865.153051-.2186442.021864-.2623731-.043729-.4810173-.174915-.6777971-.043729-.0655933-.109323-.1093221-.153051-.1530509-.065594-.0218645-.131187 0-.153051.0655932-.043729.0874577-.065594.1749154-.087458.2842375zm6.012716 3.3889855c-.021864-.1311865-.021864-.2405086-.087457-.3716952-.109323-.1530509-.262374-.1530509-.349831.0218645-.131187.2405086-.153051.4810173-.043729.7433903.065593.1749154.240509.1749154.349831.0437289.087457-.1311865.109322-.2842375.131186-.4372885zm-.459153 6.1220384c-.021864-.1967798-.043729-.3279664-.196779-.4372885-.087458-.0655932-.174916-.0437288-.262374.0218645-.131186.1530509-.174915.5247461-.065593.6777971.065593.0874576.131187.1530509.262373.1311865.087458 0 .174916-.0655933.19678-.153051.021864-.1093221.043729-.1967798.065593-.2405086zm-2.907968 4.657122c.021865.1967798.109322.3279663.240509.415424.087457.0437289.19678.0437289.284237-.0218644.087458-.0655933.131187-.1530509.131187-.2842375 0-.1749154-.065593-.3061019-.218644-.3935596-.131187-.0655933-.262374-.0437288-.349831.0655933-.043729.0874577-.065593.1530509-.087458.2186442zm-5.160004-14.3649257c-.021864-.2405086-.087457-.4591529-.240508-.6122038-.043729-.0655933-.109322-.0874577-.174916-.1093221-.043729-.0437289-.131186 0-.131186.0437288-.109322.2405087.065593.7433904.306102.8745769.087457.0655933.174915.0218644.218644-.0655932.021864-.0437289.021864-.0874577.021864-.1311866zm-.131186 27.4398505c.19678 0 .393559-.153051.459153-.3498308.021864-.0655933.021864-.1311865-.021865-.1967798-.065593-.1093221-.240508-.153051-.34983-.1311865-.153051.0437288-.262374.1311865-.327967.2842375-.109322.2186442 0 .3935596.240509.3935596zm-5.706614-9.7078037c.043728-.0218644.109322-.0218644.174915-.0437288.153051-.0655933.19678-.2623731.065593-.3498308-.174915-.1311865-.393559-.2186442-.634068-.153051-.021865 0-.021865 0-.043729.0218645-.131186.0437288-.153051.1749153-.065593.2842375.131186.1530509.262373.2186442.502882.2405086zm1.68356 6.7998355c.043729 0 .131187-.0218645.19678-.0437289.109322-.0218644.174915-.1093221.218644-.1967798.065593-.1311865.021865-.2186442-.109322-.2623731-.043729-.0218644-.087458-.0437288-.131187-.0437288-.196779-.0655933-.437288.0437288-.524746.1967798-.065593.1093221-.043729.1967798.043729.2842375.065593.0437288.174916.0655933.306102.0655933zm.371695-8.5927182c-.021864 0-.065593 0-.087457.0218645-.153051.0218644-.19678.1749153-.109323.3061019.087458.1311865.19678.2186442.371696.2623731.065593 0 .131186.0218644.218644 0 .131186-.0218645.218644-.1749154.131186-.306102-.021864-.0655932-.065593-.1311865-.109322-.1530509-.131186-.0874577-.262373-.1093221-.415424-.1311866zm13.359162-2.0333913c-.021864-.0218644-.021864-.0874577-.043728-.1311865-.043729-.1093221-.131187-.1967798-.262373-.1967798-.131187 0-.19678.0655933-.262373.153051-.087458.1530509-.065594.3498307.021864.4810173.131186.1530509.327966.1530509.437288 0 .065594-.0874577.109322-.1749154.109322-.306102zm-15.786113 7.0403441c.218645 0 .327967-.0437288.415424-.1311865.109322-.1093221.043729-.2842375-.087457-.3279663-.087458-.0218645-.174916-.0437289-.262373-.0655933-.153051-.0218644-.262373 0-.371696.0874577-.087457.0874577-.109322.1967798 0 .2842375.109323.0874577.218645.1530509.306102.1530509zm.612204-1.814747c.131187 0 .240509-.0437289.306102-.1093222.065593-.0655932.065593-.1749153 0-.2405086-.021864-.0437289-.065593-.0874577-.109322-.0874577-.109322-.0437288-.218644-.0655933-.349831-.0874577-.043729 0-.131186.0218644-.174915.0437289-.131187.0655932-.153051.1749153-.065593.2842374.109322.1311866.262373.1967799.393559.1967799zm12.462721-5.8159365c.021865.0655933.043729.153051.087458.2186442.109322.153051.284237.153051.415424 0 .109322-.1311865.109322-.262373.043729-.415424-.021865-.1093221-.174916-.2186442-.262373-.1967798-.131187 0-.218645.0874577-.240509.2186442-.021864.0437289-.021864.1093222-.043729.1749154zm1.071357-1.6616961c0-.1311865-.021865-.2405087-.087458-.3061019-.087458-.1093221-.240509-.1311866-.327966-.0437289-.174916.153051-.153051.5028818.021864.6559327.065593.0437289.153051.0655933.218644.0218644.131187-.0874577.174916-.2186442.174916-.3279663zm1.727289 3.5420365c0-.1749154-.065593-.2842375-.174915-.3279664-.109322-.0437288-.218644 0-.306102.0874577-.065593.0655933-.087458.153051-.087458.2405087-.021864.1311865.065593.2405086.19678.3061019.087458.0218644.218644 0 .284237-.1093221.043729-.0655933.065594-.153051.087458-.1967798zm-14.517976 4.8539018c.043728 0 .109322 0 .196779-.0437288.065594-.0437289.109322-.1093222.109322-.1749154-.021864-.1093221-.065593-.153051-.153051-.1749154-.087457-.0437289-.174915-.0655933-.284237-.0655933-.087458-.0218644-.153051 0-.218644.0437289-.087458.0874577-.109322.1967798-.021865.2842375.087458.0874577.218645.1311865.371696.1311865zm10.210685-15.4800112c-.021865-.1967798-.043729-.3716952-.174915-.4810173-.087458-.0874577-.174916-.0655933-.240509.0437288-.065593.1749154-.021865.4810173.109322.6122038.021864.0218645.065593.0437289.087458.0655933.065593.0218644.131186 0 .174915-.0655933.021864-.0655932.021864-.1311865.043729-.1749153zm-1.53051-2.8205106c-.021864-.1967798-.043729-.3935596-.196779-.5028817-.087458-.0655933-.19678-.0437288-.19678.0655933-.087458.2186442-.043729.415424.109322.6122038 0 .0218644.021864.0437289.043729.0655933.065593.0218644.153051.0218644.174915-.0437289.021864-.0655932.043729-.1530509.065593-.1967798zm2.776782 12.6376363c0 .1093221.043729.2186443.131187.3061019.109322.0874577.262373.0655933.327966-.0655932.065593-.1093221.065593-.2842375 0-.3716952-.109322-.1311865-.262373-.1749154-.371695-.0874577-.065594.0655933-.087458.1311865-.087458.2186442zm-12.418992 7.4557682c-.087458-.0218645-.174915.0218644-.240509.0874577-.043729.0655932-.065593.1530509 0 .2186442.153051.1749154.481018.1749154.612204-.0218644.065593-.1093222.021865-.2186443-.087458-.2623731-.087457 0-.196779 0-.284237-.0218644zm.983899-.8308481c-.087458-.0218644-.153051 0-.240509.0655933-.087457.0655932-.087457.1749153 0 .262373.131187.1093222.349831.153051.502882.0655933.065593-.0437288.109322-.1093221.087458-.1967798 0-.0874577-.043729-.1311865-.131187-.153051-.087458-.0218644-.153051-.0218644-.218644-.0437288zm-2.623731 1.2900009c.131187 0 .218644-.0437288.306102-.0874577.087458-.0874576.065593-.2186442-.043729-.2842374-.131186-.0437289-.262373-.0655933-.393559-.0437289-.065594.0218644-.109322.0655933-.174916.1093221-.043729.0437289-.043729.1093221 0 .1749154.087458.0874577.19678.1311865.306102.1311865zm16.66069-17.9725554c0 .0437289 0 .0874577.021865.153051.043729.1311865.174915.1311865.262373.0437288.131186-.1311865.153051-.4372884.043729-.5903394-.065594-.0874577-.153051-.0874577-.218645 0-.087457.1093221-.109322.2405086-.109322.3935596zm-4.110511 13.5778065c-.153051 0-.262373.1093221-.262373.2405086 0 .153051.153051.3061019.306102.3061019.196779 0 .306102-.1967798.218644-.3498307-.065593-.1311866-.174915-.153051-.262373-.1967798zm-9.642211 5.225597c.087458 0 .19678-.0218644.262374-.1311865.065593-.1093221 0-.2186443-.109323-.2405087-.043728 0-.109322-.0218644-.153051-.0437288-.131186-.0437289-.240508 0-.306101.1093221-.087458.0655933-.065594.1530509 0 .2186442.065593.0874577.174915.0874577.306101.0874577zm17.710183-.6996615c-.131187 0-.240509.0874577-.262373.1967798-.021865.0874577.043729.1967798.153051.2623731.043729 0 .087457.0218644.131186.0218644.153051.0218644.306102-.1311866.262373-.2623731-.021864-.1311865-.153051-.2405086-.284237-.2186442zm-4.810173-14.7147565c0-.1093221-.021865-.1967798-.087458-.2842375-.065593-.0655932-.153051-.0655932-.218644 0-.065593.1093221-.087458.2186443-.087458.3498308 0 .0655933.021865.1311865.065593.1967798.065594.0874577.174916.0874577.240509 0s.087458-.1749154.087458-.2623731zm-.306102 10.8447537c0-.1749154-.131187-.2842375-.284238-.2842375-.131186.0218644-.218644.1093221-.218644.2405086 0 .153051.153051.2842375.284238.2842375.131186 0 .218644-.1093221.218644-.2405086zm6.100174-9.1174643c0 .1093221.043729.1749154.109322.1967798s.131186 0 .19678-.0437288c.109322-.1093221.174915-.2186443.153051-.3935596 0-.1093222-.109322-.1749154-.218645-.1093222-.15305.0655933-.218644.1967799-.240508.3498308zm1.945933-.1749154c0-.1530509-.109322-.2186442-.218644-.1530509-.131186.0655932-.218644.1749154-.240508.3279663-.021865.0655933 0 .1311865.065593.1749154.065593.0437288.131186.0437288.19678 0 .131186-.0874577.196779-.2186442.196779-.3498308zm-7.543225-2.7111884c0-.1311865 0-.2405086-.065594-.3279663-.065593-.0655933-.174915-.0655933-.218644.0218644-.087458.1311865-.109322.2842375-.065593.4591529.021864.0218644.021864.0218644.043729.0437288.087457.1093221.19678.1093221.262373-.0218644.043729-.0655933.043729-.1311865.043729-.1749154zm-9.336109 22.6296775c.087458 0 .174916-.0437289.240509-.1311866.043729-.0437288.065593-.1093221.065593-.1749153 0-.0874577-.087458-.0874577-.131186-.1093222 0-.0218644-.021865-.0437288-.021865-.0437288-.043729 0-.087458-.0218644-.131186-.0218644-.109323.0437288-.19678.1311865-.218645.2405086-.043729.153051.043729.2405087.19678.2405087zm8.089837-10.0139056c0-.0218644 0-.0218644 0-.0218644 0-.1311866-.109323-.2405087-.240509-.2623731-.087458 0-.19678.0437288-.218644.153051-.065594.0874577-.021865.1967798.087457.2842375 0 0 0 0 .021865.0218644.065593.0437288.131186.0655932.218644.0218644s.131187-.1093221.131187-.1967798zm-5.378648-2.9735615c-.087458 0-.174916.0874577-.174916.1749154.021865.153051.174916.2842375.327967.3061019.109322 0 .218644-.1093221.174915-.2405086-.021865-.1311866-.19678-.2623731-.327966-.2405087zm12.265941 5.7066143c-.021865.0218645-.087458.0437289-.131187.0874577-.065593.0437289-.065593.1311866-.043729.1967798.087458.153051.306102.2186443.437289.0874577.065593-.0437288.087457-.1311865.043729-.1967798-.043729-.1093221-.131187-.1749154-.306102-.1749154zm-3.563901-6.2750893c.021864-.1311865-.043729-.2186442-.109322-.262373-.087458-.0437289-.19678-.0218645-.262373.0655932-.021865.0655933-.043729.1093221-.065594.1967798 0 .0874577.065594.1749154.153051.2186443.065594.0218644.153051 0 .218645-.0874577.021864-.0437289.043728-.1093222.065593-.1311866zm-4.700851 13.5340777c-.109322-.0218645-.19678.0437288-.240509.1311865-.043729.0655933-.043729.1749154 0 .2623731.065594.1093221.19678.1311865.284238.0655932.109322-.0874577.153051-.2186442.087457-.3061019-.043728-.0655933-.087457-.1093221-.131186-.1530509zm3.279663-21.361541c-.021864-.0874577-.043729-.1530509-.087457-.2186442-.021865-.0874577-.131187-.0874577-.19678-.0218644-.109322.1311865-.109322.3279663-.021865.4591528.043729.0655933.153051.0874577.218645 0 .021864-.0655932.065593-.1311865.087457-.2186442zm-6.843564 21.8644227c0-.1311866-.174915-.2405087-.284237-.1967798-.109323.0655932-.174916.1967798-.153051.3279663.021864.0655933.065593.1311865.153051.1311865.131186 0 .284237-.1093221.284237-.262373zm4.044918-11.2383133c.109322.0218644.218644-.0874577.218644-.2186442 0-.1093221-.131186-.2405087-.240508-.2405087s-.19678.0874577-.218644.1967799c0 .1311865.131186.262373.240508.262373zm1.945934-3.8044095c0-.0218644 0-.0218644 0-.0437289-.021865-.0874577-.087458-.1749153-.174916-.1967798-.087457 0-.153051.0655933-.196779.153051v.0437288c-.021865.1311866.065593.2842375.174915.306102.109322 0 .19678-.1093222.19678-.2623731zm.218644-3.8918673c0-.0218644 0-.0655932-.021864-.1093221-.021865-.0655932-.065594-.1093221-.131187-.1093221-.087458 0-.131186.0437289-.153051.1093221-.021864.0218645-.043729.0655933-.043729.1093221-.021864.153051.065594.2842375.174916.2842375s.196779-.1311865.174915-.2842375zm-7.302717 5.5754278s0-.0218644-.021865-.0655932c-.043728-.1093222-.196779-.1967798-.306101-.1967798-.087458 0-.131187.0655932-.131187.1530509 0 .1311865.174915.3061019.327966.2623731.065594 0 .131187-.0655933.131187-.153051zm6.8217-2.8423749c-.043729.0218644-.087458.0437288-.109322.0655932-.131187.1093222-.109322.3498308.043728.4372885.065594.0218644.109323 0 .153051-.0218644.131187-.1093221.131187-.3061019.021865-.4154241-.043729-.0218644-.087458-.0437288-.109322-.0655932zm-6.8217 3.5857653c-.109322 0-.174916.0874577-.174916.1749154.021865.1093221.174916.2405086.306102.2186442.109323 0 .174916-.1093221.109323-.2186442-.043729-.1093221-.153051-.153051-.240509-.1749154zm6.756106 3.1266124c-.109322 0-.196779.0874577-.196779.1967798 0 .1093222.109322.2186443.218644.2186443.087458 0 .174915-.0874577.174915-.1967798 0-.0874577-.087457-.2186443-.19678-.2186443zm2.252036-3.2796634c.087458 0 .19678-.1311865.19678-.2405086 0-.0874577-.109322-.1749154-.19678-.1749154-.109322.0218644-.19678.1311865-.174915.2405087 0 .0874576.087457.1749153.174915.1749153zm4.066783 9.5984816c-.087458 0-.174916.0218644-.19678.1093221-.021865.0437288 0 .153051.087458.1967798.043728.0218644.109322.0437289.174915.0655933.087458 0 .153051-.1093221.109322-.1967798-.021864-.0437289-.043729-.0874577-.065593-.1093221-.021865-.0437289-.087458-.0437289-.109322-.0655933zm-4.5478-7.914921c.087457 0 .174915-.0874577.153051-.1967798 0-.0874577-.087458-.153051-.19678-.153051-.065593 0-.153051.0874577-.153051.1967798 0 .0874577.087458.153051.19678.153051zm-.612204.568475c0-.0874577-.065593-.153051-.153051-.153051s-.153051.0655933-.153051.153051c-.021864.1093221.065593.1967798.153051.1967798s.174915-.0874577.153051-.1967798zm-.74339.4591528c0-.0874576-.109323-.1967798-.218645-.1749153-.065593 0-.131186.0655932-.131186.1530509s.087457.1749154.174915.1749154.174916-.0655933.174916-.153051z"
          fill="#e6594c" transform="translate(-172 -58)"/>
</svg>