<svg height="31" viewBox="0 0 33 31" width="33" xmlns="http://www.w3.org/2000/svg">
    <path d="m310.554688 125.679688c-.023438-.328125-.09375-.75-.257813-1.148438-.046875-.140625-.09375-.257812-.164063-.375-.117187-.1875-.28125-.328125-.46875-.46875-.210937-.140625-.445312-.164062-.703124-.1875-.09375 0-.164063 0-.257813.023438-.492187 0-.984375.117187-1.429687.328125-.257813.140625-.46875.28125-.65625.515625-.117188.140625-.210938.304687-.28125.46875-.09375.164062-.140626.304687-.234376.46875-.1875.351562-.46875.609375-.84375.75-.164062.070312-.351562.140625-.515624.210937-.351563.117188-.65625.328125-.9375.585938-.257813.234375-.445313.515625-.632813.84375-.09375.164062-.1875.328125-.28125.515625-.257813.445312-.65625.796874-1.148437 1.007812-.164063.070312-.304688.164062-.445313.28125-.09375.070312-.164063.164062-.234375.234375-.140625.234375-.164062.609375.164062.84375.140626.117187.328126.1875.515626.1875.28125-.023437.539062-.117187.773437-.304687.1875-.140626.328125-.328126.46875-.515626.09375-.140624.1875-.304687.304687-.445312.257813-.375.515626-.773438.75-1.171875.164063-.257813.304688-.515625.46875-.773437.046876-.09375.140626-.1875.210938-.257813.1875-.1875.421875-.304687.65625-.398437.421875-.1875.820312-.140625 1.195312.164062.140626.117188.28125.257813.421876.375.164062.164063.351562.304688.539062.421875.421875.210937.84375.304687 1.3125.210937.351562-.093749.679688-.281249.9375-.515624.515625-.492188.773438-1.054688.773438-1.875zm-1.054688 0c-.023438.492187-.234375.867187-.679688 1.148437-.234374.117188-.492187.140625-.75.117188-.28125-.023438-.5625-.117188-.796874-.28125-.023438 0-.023438 0-.023438 0-.140625-.164063-.304688-.328125-.375-.539063-.046875-.210937-.023438-.421875.070312-.609375.09375-.234375.234376-.398437.421876-.5625.234374-.210937.515624-.351562.820312-.421875.210938-.046875.421875-.070312.609375.023438.421875.140625.703125.539062.703125.984375zm-11.835938 4.054687c-.046874.140625-.070312.28125-.117187.375-.023437.140625-.046875.304687-.046875.445313 0 .351562.234375.632812.585938.726562.210937.046875.398437 0 .539062-.140625.117188-.09375.210938-.210937.257812-.351563.070313-.164062.117188-.351562.117188-.539062s.046875-.375.09375-.539062c.140625-.65625.492188-1.21875.890625-1.710938.304687-.375.65625-.726562 1.03125-1.054687.445313-.375.867187-.773438 1.289063-1.21875.398437-.445313.820312-.914063 1.195312-1.40625.304688-.421875.632812-.820313.960938-1.21875 0-.023438.023437-.046875.046874-.070313.070313-.046875.140626-.09375.210938-.140625.09375-.09375.1875-.140625.304688-.164062.140624-.046875.234374-.117188.328124-.1875.046876-.046875.070313-.09375.117188-.117188.09375-.09375.210938-.164062.328125-.210937.234375-.070313.445313-.140625.679687-.1875.164063-.023438.304688-.070313.46875-.09375.351563-.046875.679688-.117188 1.03125-.164063.210938-.046875.445313-.046875.679688-.046875.1875 0 .375.023438.5625.023438.304688.023437.539062-.117188.75-.328125.140625-.140625.210938-.28125.234375-.492188.046875-.398437-.234375-.679687-.609375-.703125-.1875-.023437-.375 0-.539062.070313-.09375.046875-.1875.09375-.28125.140625-.46875.210937-.9375.421875-1.453126.515625-.421874.117187-.84375.210937-1.265624.28125-.492188.09375-.960938.234375-1.382813.515625-.070313.023437-.140625.070312-.1875.09375-.234375.070312-.398437.210937-.585937.351562-.070313.046875-.140626.117188-.164063.210938 0 .046875-.046875.09375-.09375.140625-.09375.117187-.210937.257812-.304687.398437-.1875.257813-.375.539063-.585938.796875-.328125.445313-.65625.890625-1.03125 1.289063-.328125.351562-.703125.679687-1.054688 1.007812-.328124.28125-.703124.5625-1.03125.867188-.1875.1875-.375.398437-.539062.632812-.328125.515625-.65625 1.054688-.984375 1.59375-.070313.09375-.164063.210938-.164063.328125 0 .023437-.023437.046875-.023437.046875-.09375.09375-.1875.1875-.257813.234375zm13.101563 1.242187v-.023437c-.1875 0-.375.023437-.539063.023437-.421874.046876-.820312.070313-1.195312-.117187-.09375-.046875-.140625-.070313-.210938-.140625-.164062-.164062-.351562-.351562-.539062-.492188-.140625-.117187-.304688-.210937-.46875-.304687-.140625-.09375-.328125-.117187-.492188-.117187-.65625.023437-1.242187.234374-1.710937.703124-.046875.046876-.09375.09375-.140625.140626-.304688.445312-.28125.984374.046875 1.429687.257813.351563.5625.609375.960937.820313.375.164062.773438.210937 1.171876.070312.117187-.046875.257812-.117188.398437-.1875.164063-.09375.351563-.210938.515625-.351562.328125-.210938.679688-.328126 1.054688-.28125.210937.023437.398437.070312.585937.117187.210937.070313.421875.070313.65625.023437.421875-.140624.609375-.65625.328125-1.03125-.023438-.046874-.09375-.070312-.140625-.117187-.09375-.046875-.1875-.09375-.28125-.164063zm-3.375-.398437c.257813.023437.539063.164063.726563.398437.1875.257813.1875.585938 0 .820313-.234376.257813-.539063.398437-.890626.375-.09375 0-.1875-.023437-.28125-.046875-.28125-.09375-.492187-.375-.515624-.679688-.023438-.328124.164062-.632812.46875-.75.117187-.070312.257812-.117187.492187-.117187zm-9.445313-6.820312c0-.023438 0-.023438 0-.023438-.09375 0-.210937 0-.304687 0-.234375 0-.421875.070313-.609375.234375-.210938.1875-.28125.421875-.234375.703125.070313.398438.328125.632813.703125.726563.1875.070312.398438.046875.609375 0 .28125-.070313.539063-.257813.75-.445313.398437-.351562.796875-.703125 1.171875-1.054687.445312-.375.867188-.773438 1.3125-1.171875.328125-.304688.515625-.65625.609375-1.101563.070313-.28125.023437-.539062-.070313-.796875-.117187-.234375-.28125-.375-.492187-.46875-.351563-.164062-.726563-.023437-.914063.28125-.117187.1875-.164062.351563-.1875.5625-.046874.1875-.046874.351563-.09375.539063-.070312.445312-.210937.84375-.539062 1.171875-.023438.023437-.046875.046875-.070312.09375-.304688.351562-.679688.632812-1.148438.703125-.164062.023437-.328125.023437-.492188.046875zm14.742188.515625c.65625 0 1.265625-.445313 1.429688-1.195313.023437-.140625.046874-.28125.023437-.421875-.09375-.445312-.257813-.820312-.679687-1.054687-.023438 0-.023438 0-.023438 0-.140625-.164063-.304688-.1875-.492188-.234375-.257812-.046875-.515624-.023438-.726562.140625-.328125.1875-.5625.46875-.679688.820312-.070312.210938-.09375.421875-.117187.632813 0 .070312.023437.117187.046875.1875.117188.304687.257812.585937.492188.820312.09375.117188.210937.210938.375.234375.117187.023438.234374.046875.351562.070313zm.164062-1.945313c.234376 0 .398438.164063.398438.351563 0 .234375-.210938.421875-.445312.421875-.210938 0-.398438-.210938-.398438-.445313.023438-.210937.210938-.351562.445312-.328125zm4.054688 5.179688c0-.210938-.046875-.398438-.09375-.5625-.1875-.46875-.679688-.820313-1.171875-.773438-.375.023438-.703125.140625-.960937.398438-.351563.304687-.5625.679687-.632813 1.148437 0 .09375 0 .210938.046875.304688.046875.117187.09375.257812.1875.351562.164062.1875.328125.328125.539062.445313.210938.09375.398438.164062.632813.140625.210937 0 .421875-.023438.585937-.1875.117188-.09375.234376-.164063.351563-.234375.046875-.046875.09375-.070313.117187-.117188.28125-.257812.375-.585937.398438-.914062zm-.890625-.117188c-.023437.1875-.09375.375-.28125.492188-.164063.09375-.328125.070312-.492187-.046875-.140626-.117188-.210938-.28125-.164063-.46875.046875-.234375.28125-.421875.515625-.445313.234375 0 .421875.1875.421875.46875zm-13.59375 10.875c-.164063 0-.351563.023437-.539063.09375-.492187.210937-.84375.5625-1.054687 1.078125-.140625.375-.140625.75.023437 1.101562.09375.28125.28125.515626.492188.703126.609375.5625 1.5.539062 2.0625.140624.09375-.046874.1875-.140624.28125-.210937.632812-.609375.65625-1.664063.070312-2.320313-.164062-.1875-.398437-.234374-.5625-.398437-.09375-.046875-.1875-.09375-.28125-.117187-.140624-.046876-.304687-.070313-.492187-.070313zm-1.101563 1.6875c0-.539063.445313-1.171875 1.242188-1.148437.703125.046874 1.171875.703124.984375 1.40625-.140625.5625-.703125.984374-1.359375.84375-.140625-.023438-.28125-.09375-.421875-.140626-.09375-.117187-.1875-.234374-.28125-.375-.117187-.164062-.164063-.351562-.164063-.585937zm.46875-7.96875c-.351562 0-.632812.070313-.914062.210937-.445312.28125-.609375.632813-.5625 1.148438.046875.351562.1875.65625.445312.890625.304688.28125.632813.421875 1.054688.375.164062-.023437.304688-.070313.445312-.140625.445313-.1875.75-.515625.867188-.984375.070312-.234375.070312-.46875 0-.703125-.046875-.234375-.164062-.421875-.375-.515625-.046875-.023437-.09375-.046875-.140625-.070313-.070313-.046874-.140625-.09375-.210937-.117187-.210938-.070313-.421876-.09375-.609376-.09375zm-.140624.679687c.304687-.023437.515624.09375.585937.28125.070313.234376.023437.421876-.140625.585938-.164062.1875-.375.234375-.632812.1875-.1875-.046875-.304688-.1875-.351563-.398438-.046875-.1875 0-.351562.140625-.492187.140625-.117187.304688-.164063.398438-.164063zm12.210937 4.757813c0-.398437-.117187-.726563-.328125-.914063-.023438-.046874-.070312-.09375-.117188-.117187-.09375-.046875-.164062-.09375-.234374-.140625-.046876-.046875-.070313-.046875-.117188-.070312-.210938-.070313-.445312-.09375-.65625-.046876-.492188.140626-.84375.445313-1.007812.960938-.09375.28125-.070313.5625.09375.820312.351562.585938 1.078124.867188 1.804687.421876.351563-.234376.5625-.585938.5625-.914063zm-1.195313-.421875c.164063 0 .28125.117188.28125.257812 0 .1875-.117187.328126-.304687.328126-.164063 0-.28125-.117188-.28125-.28125 0-.1875.140625-.304688.304687-.304688zm-16.945312-8.320312c0-.046876 0-.09375 0-.140626 0-.375-.140625-.656249-.445312-.843749-.257813-.164063-.679688-.164063-.84375.234375-.046876.117187-.070313.210937-.070313.328124 0 .140626 0 .257813.023437.398438 0 .164062.046876.351562.046876.515625 0 .234375-.023438.492187-.046876.726563-.023437.117187-.046874.257812-.046874.375-.023438.328124.09375.585937.375.773437.070312.070313.164062.070313.234374.09375.140626.070313.28125.046875.421876-.023437.1875-.117188.304687-.257813.328124-.46875.023438-.117188.023438-.234376.023438-.375-.023438-.164063-.046875-.351563-.046875-.515626-.023437-.117187-.023437-.257812-.023437-.398437.023437-.210937.046874-.445313.070312-.679687zm9.5625 6.304687c-.09375.023437-.210938.023437-.328125.046875-.257813.046875-.492187.1875-.679687.398438-.140626.164062-.210938.351562-.1875.585937 0 .164063.046874.328125.117187.46875.1875.328125.445313.5625.820313.65625.28125.070313.5625.046875.820312-.117187.46875-.257813.65625-.84375.445312-1.382813-.070312-.1875-.164062-.375-.375-.445313-.023437 0-.046874-.023437-.070312-.023437-.140625-.164063-.328125-.164063-.5625-.1875zm.46875 1.054687c0 .304688-.257812.539063-.5625.515626-.09375-.023438-.210938 0-.28125-.09375s-.140625-.1875-.164062-.328126c-.046876-.234374.117187-.46875.375-.539062.070312-.023438.164062-.023438.257812 0 .234375.046875.351562.234375.375.445312zm-8.8125-1.734374c.328125-.023438.726562-.046876 1.101562-.09375.1875-.023438.351563-.140626.46875-.28125.046876-.046876.070313-.117188.070313-.164063.09375-.210937.023437-.398437-.140625-.539063-.046875-.023437-.070312-.046874-.09375-.070312-.046875-.09375-.140625-.140625-.234375-.164062-.09375-.023438-.210937-.046876-.328125-.046876-.421875-.023437-.820312-.023437-1.242188.046876-.140624.046874-.257812.09375-.375.164062-.351562.210938-.375.632812-.070312.914062.09375.070313.1875.140626.328125.1875.140625.023438.304687.046876.515625.046876zm16.734375-15.046875c0 .234375.09375.398437.257813.515625.09375.070312.164062.09375.257812.023437.046875-.046875.09375-.070312.140625-.070312.234375-.117188.398437-.257813.515625-.46875.234375-.351563.492188-.703125.773438-1.03125.023437-.046875.070312-.070313.09375-.117188.070312-.140625.140624-.257812.1875-.398437.046874-.09375.046874-.210938.046874-.328125-.023437-.164063-.09375-.28125-.257812-.328125-.117188-.070313-.234375-.046875-.351562 0-.117188.023437-.210938.09375-.28125.164062-.09375.117188-.210938.234375-.28125.375-.234376.328125-.46875.632813-.75.960938-.09375.117187-.1875.257812-.257813.398437-.046875.09375-.09375.210938-.09375.304688zm-12-1.265625c.023437.023437.023437.023437.023437.023437v.09375c.023438.1875.046876.375.140626.539063.09375.1875.210937.375.328124.539062.09375.140625.1875.257813.304688.351563.09375.046875.164062.09375.257812.117187.304688.117188.585938-.023437.679688-.328125.046875-.070312.046875-.140625.046875-.210937.023437-.09375.023437-.210938 0-.328125-.046875-.398438-.257813-.726563-.46875-1.054688-.09375-.140625-.234375-.257812-.375-.351562-.398437-.234375-.796875-.023438-.890625.328125-.023438.09375-.023438.1875-.046875.28125zm12.234375 15.421874c.515625 0 .960938-.328124 1.101562-.773437.046876-.1875.046876-.375-.023437-.5625s-.164063-.328125-.351563-.398437c-.023437 0-.023437-.023438-.023437-.023438-.09375-.09375-.210937-.117188-.351563-.140625-.46875-.046875-1.03125.28125-1.171874.820313-.09375.351562 0 .65625.28125.890624.164062.140626.375.210938.539062.1875zm-5.648438 7.78125c.09375-.023437.164063-.023437.234376-.046874.304687-.09375.539062-.28125.65625-.585938.140624-.328125.117187-.632812-.070313-.9375-.046875-.070312-.09375-.164062-.1875-.1875s-.140625-.070312-.210937-.117188c-.023438-.023437-.070313-.046874-.117188-.070312-.304688-.070312-.5625-.023438-.820312.117188-.234376.140624-.398438.328124-.46875.609374-.09375.257813-.046876.492188.09375.703126.210937.328124.492187.492187.890624.515624zm-.046874-.773437c-.09375 0-.210938-.09375-.210938-.234375 0-.117188.117188-.210938.234375-.210938s.210937.09375.210937.210938c.023438.117188-.09375.234375-.234374.234375zm-1.03125-21.890625c.023437-.117187-.023438-.234375-.070313-.351562-.117187-.328125-.539063-.5625-.9375-.421875-.117187.046875-.234375.09375-.328125.1875-.257812.210937-.421875.515625-.445312.867187-.023438.28125.046874.515625.234374.726563.164063.234375.398438.28125.679688.210937.375-.09375.632812-.328125.773438-.703125.070312-.164062.09375-.328125.09375-.515625zm-8.25 17.4375c-.398438.023438-.75.164062-1.101563.328125-.117187.070313-.210937.164063-.28125.28125-.164063.257813-.117187.5625.117187.75.1875.164063.398438.210937.609376.1875.1875 0 .375-.046875.5625-.070313.1875-.046874.351562-.117187.515624-.234374.1875-.09375.304688-.234376.375-.445313.09375-.234375-.023437-.492187-.234374-.609375-.023438-.023438-.046876-.046875-.09375-.070312-.046876-.023438-.117188-.046876-.164063-.070313-.09375-.023437-.1875-.023437-.304687-.046875zm-1.921876-15.445312c-.023437 0-.046874 0-.09375 0-.28125.023437-.46875.164062-.515624.46875-.023438.1875 0 .351562.070312.539062.164062.304688.398438.539063.726562.703125.046876.023438.09375.046875.140626.046875.210937.070313.445312.046875.65625-.070312.234374-.140625.304687-.421875.257812-.679688-.046875-.234375-.140625-.46875-.328125-.632812-.070313-.070313-.164063-.117188-.257813-.1875-.210937-.117188-.421874-.210938-.65625-.1875zm12.84375-3.234375c-.1875 0-.328124.09375-.445312.234375-.257812.351562-.28125.726562-.117188 1.101562.164063.304688.46875.398438.773438.257813.164062-.09375.304688-.234375.375-.421875.09375-.257813.117188-.492188.023438-.75-.117188-.257813-.328126-.421875-.609376-.421875zm-11.226562 1.734375c0-.210938-.070312-.421875-.234375-.609375-.070313-.09375-.164063-.140625-.257813-.234375-.117187-.09375-.257812-.140625-.421874-.140625-.257813 0-.421876.140625-.515626.375-.046874.140625-.046874.28125-.023437.421875.070313.257812.234375.445312.46875.609375.1875.140625.398437.1875.609375.117187.257812-.070312.375-.257812.375-.539062zm-5.273438 14.789062c.375.023438.609376-.070312.773438-.304688.1875-.257812.164062-.5625-.070312-.773437-.09375-.070313-.210938-.140625-.304688-.1875-.28125-.117187-.5625-.117187-.820312.023437-.140626.070313-.234376.1875-.257813.351563-.046875.1875-.023437.375.09375.539063.164063.234374.375.351562.585937.351562zm8.0625-18.84375c0 .164063.046876.328125.117188.46875.070312.1875.1875.328125.375.398438.375.164062.75-.070313.796875-.46875 0-.023438.023437-.046875.023437-.09375 0-.375-.09375-.703125-.445312-.9375-.28125-.1875-.679688-.046875-.796875.234375-.046875.117187-.070313.257812-.070313.398437zm3.65625 2.085938c.070313-.023438.140626-.023438.1875-.046875.140626 0 .234376-.070313.328126-.1875.234374-.304688.28125-.820313.070312-1.148438-.09375-.140625-.234375-.234375-.398438-.28125-.257812-.046875-.515624.070313-.65625.304688-.070312.164062-.09375.328125-.09375.515625.023438.375.1875.679687.5625.84375zm11.648438 5.671875c.445312 0 .84375-.398438.84375-.84375-.023438-.164063-.09375-.28125-.164062-.398438-.140626-.117187-.304688-.234375-.515626-.210937-.28125.023437-.515624.140625-.679687.375-.09375.140625-.117187.28125-.117187.445312 0 .351563.351562.632813.632812.632813zm-21.140625.515625c0-.421875-.257813-.75-.65625-.84375-.421875-.117188-.867187.257812-.75.726562.09375.351563.421875.65625.773437.679688.09375.023437.1875 0 .28125-.023438.1875-.046875.328126-.1875.351563-.398437 0-.046875 0-.09375 0-.140625zm16.5-8.34375c-.351563.023437-.585937.210937-.703125.515625-.070312.140625-.09375.28125-.09375.445312 0 .140625.023438.257813.09375.375.164062.328125.539062.421875.820312.140625.046876-.023437.09375-.070312.117188-.117187.117188-.164063.1875-.351563.210938-.539063.023437-.140625.023437-.28125-.023438-.421875-.046875-.09375-.09375-.1875-.164062-.234375-.09375-.070312-.1875-.117187-.257813-.164062zm-3.09375 20.132812c-.28125 0-.539063.164062-.632813.421875-.023437.09375-.046874.1875-.070312.28125-.046875.117187-.023438.210937.023438.328125.140624.328125.515624.492188.84375.351562.234374-.070312.375-.210937.445312-.445312.164062-.46875-.117188-.890625-.609375-.9375zm7.640625.820312c.117188 0 .234375-.023437.375-.09375.257812-.09375.421875-.421874.351562-.703124-.046874-.328126-.46875-.5625-.75-.515626-.234374.023438-.398437.117188-.5625.257813 0 0-.023437.046875-.046874.070313-.023438.046874-.046876.140624-.046876.210937-.046874.140625-.023437.257813.09375.375.023438.023437.070313.046875.070313.09375 0 .09375.070313.164063.140625.210937.117188.070313.234375.09375.375.09375zm-16.242188-18.679687c0-.046875 0-.070312-.023437-.117187-.023437-.304688-.1875-.539063-.46875-.679688-.09375-.046875-.1875-.046875-.304687-.023437-.210938.023437-.375.210937-.421876.445312-.046874.351563.140626.726563.445313.867188.328125.1875.773437 0 .773437-.46875 0-.023438 0-.023438 0-.023438zm-7.195312 10.007813c-.023438-.234375-.070312-.421875-.257812-.539063-.070313-.070312-.164063-.140625-.234376-.164062-.210937-.117188-.46875-.09375-.632812.070312-.257812.210938-.28125.5625-.070312.820313.140624.164062.328124.257812.539062.28125.164062.046875.304688 0 .445312-.09375.140626-.117188.1875-.257813.210938-.375zm18.679688 2.414062c.234374.023438.46875-.09375.539062-.304688.164062-.421874.023438-.726562-.421875-.867187-.28125-.070313-.585937.09375-.703125.375-.117188.304687.070312.609375.28125.726563.09375.070312.1875.070312.304688.070312zm-19.125 9.703125c.210937 0 .421874-.09375.5625-.304687.09375-.117188.117187-.257813.070312-.398438-.070312-.140625-.117188-.257812-.28125-.28125-.023438 0-.046875-.023438-.070312-.046875-.046876-.070313-.09375-.070313-.164063-.09375-.234375-.023437-.445313.046875-.609375.210937-.210938.234376-.1875.5625.046875.75.117187.117188.257813.164063.445313.164063zm1.898437-2.554687c.210937 0 .375-.070313.515625-.234375.1875-.234375.140625-.632813-.140625-.75-.023437-.023438-.070313-.023438-.09375-.046875-.1875-.140625-.375-.117188-.5625-.046875-.375.140625-.46875.585937-.1875.890625.117187.117187.28125.1875.46875.1875zm-2.625-6.257813c.09375 0 .210937-.023437.304687-.09375.140626-.09375.257813-.164063.375-.234375.046876-.023438.070313-.046875.09375-.070312.070313-.070313.070313-.140626.023438-.210938-.070312-.070312-.140625-.140625-.234375-.210938-.09375-.046874-.1875-.09375-.28125-.117187-.210937-.09375-.445313-.117187-.65625 0-.164063.09375-.28125.210937-.28125.398437-.023437.1875.070313.304688.234375.421876.117188.070312.234375.117187.421875.117187zm-.9375 5.578125c.28125 0 .46875-.117187.609375-.351562.023438-.023438.023438-.046875.046875-.09375.023437-.210938-.09375-.421875-.28125-.515625-.046875-.023438-.070313-.023438-.09375-.046875-.140625-.09375-.257813-.09375-.398437-.070313-.046876.023438-.117188.046875-.164063.046875-.328125.117188-.445313.515625-.234375.796875.140625.140625.328125.234375.515625.234375zm17.671875-20.4375c0-.117187-.023438-.234375-.070312-.328125-.164063-.234375-.46875-.351562-.726563-.164062-.304687.234375-.351563.75-.070313 1.007812.234376.210938.5625.1875.75-.070312.09375-.140625.117188-.28125.117188-.445313zm-16.992188 9.65625c-.023437-.351562-.234374-.539062-.515624-.679687-.164063-.09375-.328126-.09375-.492188 0-.1875.09375-.28125.257812-.234375.46875.023437.09375.070313.164062.140625.234375.140625.164062.304688.257812.515625.28125.1875.046875.351563-.023438.46875-.164063.046875-.046875.09375-.09375.117187-.140625zm26.859376 6.140625c-.140626 0-.28125.070313-.398438.1875-.164062.164063-.210938.398437-.117188.585937.117188.1875.28125.328126.539063.28125.1875-.023437.328125-.117187.445313-.257812.117187-.1875.117187-.445312-.023438-.585938-.09375-.117187-.234375-.210937-.445312-.210937zm-26.578126-9.09375c-.304687.023438-.492187.28125-.421874.5625.070312.234375.351562.445313.585937.46875.210937 0 .398437-.1875.421875-.398437.023438-.304688-.28125-.632813-.585938-.632813zm-2.953124 8.976563c.023437 0 .09375 0 .140624-.023438.164063-.023438.304688-.164062.328126-.328125.023437-.1875-.046876-.328125-.210938-.421875-.046875-.023438-.09375-.046875-.140625-.09375-.210937-.140625-.46875-.070312-.609375.09375s-.140625.398438.023438.5625c.117187.140625.257812.210938.46875.210938zm6.023437-5.4375c.28125 0 .492187-.234375.445313-.515625-.023438-.117188-.070313-.234375-.1875-.304688-.140626-.09375-.257813-.1875-.445313-.140625-.1875.070313-.351563.234375-.328125.421875.023438.304688.257812.539063.515625.539063zm17.929687.398437c0-.28125-.117187-.398437-.398437-.46875-.117187-.046875-.257813-.023437-.304687.117188-.023438.046875-.070313.070312-.117188.09375-.046875.023437-.09375.070312-.09375.117187-.023438.09375-.046875.210938 0 .328125.046875.1875.28125.398438.5625.28125.210938-.070312.351562-.234375.351562-.46875zm-17.859374 12.609375c.023437.070312.023437.164062.070312.210938.140625.257812.515625.304687.703125.117187.046875-.046875.09375-.117187.117187-.164063.046876-.09375.046876-.210937 0-.328124-.023437-.070313-.070312-.164063-.1875-.164063-.023437 0-.046874-.023437-.046874-.023437-.140626-.140626-.304688-.09375-.445313-.023438s-.210937.1875-.210937.375zm.257812-18.632812c0-.210938-.117188-.351563-.304688-.445313-.117187-.070312-.234374-.09375-.375-.023437-.117187.070312-.1875.1875-.1875.328125 0 .210937.164063.445312.375.515625.257813.070312.492188-.09375.492188-.375zm1.242188-3.84375c-.023438.234375.140624.445312.328124.515625.164063.070312.445313-.046875.46875-.234375.070313-.328125-.09375-.5625-.398437-.65625-.09375-.023438-.1875 0-.257813.070312-.09375.09375-.140624.1875-.140624.304688zm-5.953126 11.859374c0-.140624-.070312-.281249-.1875-.328124-.046874-.023438-.09375-.046875-.140624-.070313-.234376-.140625-.515626.046875-.492188.304687 0 .164063.09375.28125.234375.351563.140625.09375.28125.09375.445313 0 .09375-.070313.140624-.164063.140624-.257813zm13.359376-14.437499c0 .164062.046874.28125.140624.375.140626.117187.304688.164062.445313.023437s.1875-.445312.046875-.632812c-.09375-.09375-.1875-.210938-.328125-.117188-.023437.023438-.046875.023438-.070313.023438-.070312-.023438-.117187.023437-.164062.070312-.046875.09375-.070312.1875-.070312.257813zm-6.164063 25.757812c.210937.023437.398437-.164063.421875-.375 0-.234375-.1875-.375-.398438-.398437-.210937-.023438-.398437.164062-.398437.398437 0 .1875.164063.375.375.375zm-6.117187-18.9375c.210937.023438.328124-.09375.328124-.304687 0-.023438 0-.046875 0-.070313-.023437-.234375-.1875-.351562-.398437-.398437-.1875-.046875-.351563.117187-.351563.304687 0 .257813.210938.492188.421876.46875zm3.328124-2.929687c-.140624 0-.28125.117187-.28125.257812-.023437.210938.117188.421875.328126.492188.140624.023437.304687-.046875.351562-.1875.070312-.257813-.140625-.5625-.398438-.5625zm2.414063 9.351562c0-.1875-.117187-.28125-.257813-.351562-.210937-.09375-.445312.046875-.445312.28125-.023438.164062.070312.28125.210938.351562.234374.117188.492187-.046875.492187-.28125zm-9.375.984375c.140625.023437.28125-.046875.328125-.140625.046875-.117187.023438-.28125-.070312-.375-.09375-.070312-.1875-.117187-.304688-.140625-.210938-.023437-.398438.1875-.328125.375.070313.164063.1875.28125.375.28125zm10.640625 14.0625c.140625 0 .28125-.070313.351562-.210937.046876-.117188.023438-.210938-.023437-.304688-.023437-.09375-.09375-.09375-.1875-.117188-.046875 0-.09375-.023437-.140625-.023437s-.09375 0-.117188.023437c-.140624.046876-.234374.234376-.210937.375.023437.140626.164063.257813.328125.257813zm-8.25-9.726563c0 .164063.046875.234376.210938.28125.023437.023438.070312.023438.09375.046876.117187.023437.257812-.046876.304687-.140626.070313-.117187.046875-.257812-.023437-.328124-.09375-.09375-.210938-.140626-.328126-.140626-.164062.023438-.257812.117188-.257812.28125zm4.78125 8.835938c.257812 0 .375-.210938.28125-.445312-.023438-.046876-.070312-.070313-.117188-.09375-.070312 0-.09375-.070313-.1875-.070313-.140624.023437-.304687.140625-.304687.304687 0 .164063.164063.304688.328125.304688zm11.507812-27.492187c0 .09375.023438.164062.070313.257812.117187.140625.304687.117188.375-.046875.046875-.09375.070313-.1875.09375-.304687.023437-.070313-.023437-.140625-.070313-.1875-.117187-.09375-.28125-.070313-.375.046875-.070312.070312-.09375.140625-.09375.234375zm-13.195312 7.523437c0-.117187-.070312-.210937-.210938-.28125-.070312-.046875-.164062-.046875-.234374 0-.070313.070313-.09375.164063-.070313.257813.046875.09375.117187.1875.210937.234375.140626.070312.304688-.046875.304688-.210938zm22.828125 3.09375c0-.164062-.164063-.304687-.304687-.257812-.117188.046875-.210938.164062-.210938.304687.023438.09375.09375.1875.1875.210938.164062.023437.328125-.09375.328125-.257813zm-27.351563 1.359375c.164063 0 .234376-.140625.1875-.28125-.023437-.117187-.1875-.234375-.328124-.210937-.117188 0-.210938.117187-.164063.257812.023437.140625.164063.234375.304687.234375zm4.101563-.75c.164063 0 .257813-.117187.210937-.257812-.023437-.140625-.117187-.164063-.234374-.210938-.09375-.046875-.1875.023438-.234376.117188-.023437.164062.09375.328125.257813.351562zm25.429687.445313c.117188 0 .234376-.117188.234376-.257813 0-.09375-.09375-.210937-.210938-.210937s-.257812.140625-.257812.257812c0 .09375.117187.210938.234374.210938zm-28.710937-2.320313c.023437-.070312-.023437-.140625-.070313-.164062-.046874-.046875-.117187-.070313-.164062-.070313-.117188-.023437-.210938.070313-.210938.1875.023438.09375.070313.140625.140626.1875.164062.09375.304687.023438.304687-.140625zm15.867187 20.4375c-.09375 0-.1875.070313-.1875.1875-.023437.117187.070313.234375.1875.234375.117188 0 .210938-.09375.234376-.210938 0-.09375-.117188-.210937-.234376-.210937zm-12.117187-24.46875c0-.117187-.09375-.234375-.234375-.234375-.070312 0-.164062.09375-.140625.164063.023437.117187.070313.1875.164063.210937.117187.046875.234374-.023437.210937-.140625zm5.226563-3.890625c0 .09375.023437.164063.09375.210938.046874.023437.070312.046875.140624.023437.046876-.023437.09375-.046875.09375-.117187 0-.117188-.023437-.210938-.164062-.257813-.046875 0-.09375 0-.117188.046875-.023437.023438-.046874.070313-.046874.09375zm-10.007813 18.609375c-.023437.023437-.046875.046875-.046875.046875 0 .046875 0 .070312.046875.070312.023437 0 .046875-.023437.046875-.046874 0-.023438-.023438-.046876-.046875-.070313zm13.617187 6.1875c0-.046875-.046874-.09375-.117187-.09375-.023437 0-.070313.023437-.070313.070313 0 .070312.046876.117187.09375.117187.046876 0 .09375-.046875.09375-.09375zm-.84375-6.445313c.1875 0 .351563-.140624.351563-.328124 0-.164063-.140625-.304688-.328125-.304688s-.351562.140625-.351562.328125c0 .164063.164062.304687.328124.304687z"
          fill="#e6594c" transform="translate(-287 -113)"/>
</svg>