<svg height="440" viewBox="0 0 800 440" width="800" xmlns="http://www.w3.org/2000/svg"><g fill="none" fill-rule="evenodd"><path d="m110.500432 146.5 578.758951.5" stroke="#e6594c" stroke-linecap="square"/><path d="m110.000864 195.999568-.000864 1 3 .002592.000863-1zm4.999998.00432-.000864 1 3 .002591.000863-.999999zm4.999998.004319-.000864 1 3 .002592.000863-1zm4.999998.00432-.000864 1 3 .002591.000863-.999999zm4.999998.00432-.000863 1 3 .002591.000862-1zm4.999999.004319-.000864 1 3 .002592.000862-1zm4.999998.00432-.000864 1 3 .002591.000863-1zm4.999998.004319-.000864 1 3 .002592.000863-1zm4.999998.00432-.000864 1 3 .002591.000863-.999999zm4.999998.00432-.000864 1 3 .002591.000863-1zm4.999998.004319-.000864 1 3 .002591.000863-.999999zm4.999998.00432-.000864 1 3 .002591.000863-1zm4.999999.004319-.000864 1 3 .002592.000862-1zm4.999998.00432-.000864 1 3 .002591.000863-.999999zm4.999998.004319-.000864 1 3 .002592.000863-1zm4.999998.00432-.000864 1 3 .002591.000863-.999999zm4.999998.00432-.000864 1 3 .002591.000863-1zm4.999998.004319-.000864 1 3 .002592.000863-1zm4.999998.00432-.000864 1 3 .002591.000863-.999999zm4.999998.004319-.000863 1 3 .002592.000862-1zm4.999999.00432-.000864 1 3 .002591.000862-.999999zm4.999998.00432-.000864 1 3 .002591.000863-1zm4.999998.004319-.000864 1 3 .002591.000863-.999999zm4.999998.00432-.000864 1 3 .002591.000863-1zm4.999998.004319-.000864 1 3 .002592.000863-1zm4.999998.00432-.000864 1 3 .002591.000863-.999999zm4.999998.004319-.000864 1 3 .002592.000863-1zm4.999999.00432-.000864 1 3 .002591.000862-.999999zm4.999998.00432-.000864 1 3 .002591.000863-1zm4.999998.004319-.000864 1 3 .002592.000863-1zm4.999998.00432-.000864 1 3 .002591.000863-.999999zm4.999998.004319-.000864 1 3 .002592.000863-1zm4.999998.00432-.000864 1 3 .002591.000863-.999999zm4.999998.00432-.000864 1 3 .002591.000863-1zm4.999998.004319-.000863 1 3 .002592.000862-1zm4.999999.00432-.000864 1 3 .002591.000862-1zm4.999998.004319-.000864 1 3 .002592.000863-1zm4.999998.00432-.000864 1 3 .002591.000863-.999999zm4.999998.004319-.000864 1 3 .002592.000863-1zm4.999998.00432-.000864 1 3 .002591.000863-.999999zm4.999998.00432-.000864 1 3 .002591.000863-1zm4.999998.004319-.000864 1 3 .002592.000863-1zm4.999999.00432-.000864 1 3 .002591.000862-.999999zm4.999998.004319-.000864 1 3 .002592.000863-1zm4.999998.00432-.000864 1 3 .002591.000863-.999999zm4.999998.00432-.000864 1 3 .002591.000863-1zm4.999998.004319-.000864 1 3 .002592.000863-1zm4.999998.00432-.000864 1 3 .002591.000863-.999999zm4.999998.004319-.000864 1 3 .002592.000863-1zm4.999998.00432-.000863 1 3 .002591.000862-.999999zm4.999999.00432-.000864 1 3 .002591.000863-1zm4.999998.004319-.000864 1 3 .002591.000863-.999999zm4.999998.00432-.000864 1 3 .002591.000863-1zm4.999998.004319-.000864 1 3 .002592.000863-1zm4.999998.00432-.000864 1 3 .002591.000863-.999999zm4.999998.004319-.000864 1 3 .002592.000863-1zm4.999998.00432-.000863 1 3 .002591.000862-.999999zm4.999999.00432-.000864 1 3 .002591.000862-1zm4.999998.004319-.000864 1 3 .002592.000863-1zm4.999998.00432-.000864 1 3 .002591.000863-.999999zm4.999998.004319-.000864 1 3 .002592.000863-1zm4.999998.00432-.000864 1 3 .002591.000863-.999999zm4.999998.00432-.000864 1 3 .002591.000863-1zm4.999998.004319-.000864 1 3 .002592.000863-1zm4.999999.00432-.000864 1 3 .002591.000862-1zm4.999998.004319-.000864 1 3 .002592.000863-1zm4.999998.00432-.000864 1 3 .002591.000863-.999999zm4.999998.004319-.000864 1 3 .002592.000863-1zm4.999998.00432-.000864 1 3 .002591.000863-.999999zm4.999998.00432-.000864 1 3 .002591.000863-1zm4.999998.004319-.000864 1 3 .002592.000863-1zm4.999998.00432-.000863 1 3 .002591.000862-.999999zm4.999999.004319-.000864 1 3 .002592.000862-1zm4.999998.00432-.000864 1 3 .002591.000863-.999999zm4.999998.00432-.000864 1 3 .002591.000863-1zm4.999998.004319-.000864 1 3 .002592.000863-1zm4.999998.00432-.000864 1 3 .002591.000863-.999999zm4.999998.004319-.000864 1 3 .002592.000863-1zm4.999998.00432-.000864 1 3 .002591.000863-.999999zm4.999999.00432-.000864 1 3 .002591.000862-1zm4.999998.004319-.000864 1 3 .002591.000863-.999999zm4.999998.00432-.000864 1 3 .002591.000863-1zm4.999998.004319-.000864 1 3 .002592.000863-1zm4.999998.00432-.000864 1 3 .002591.000863-.999999zm4.999998.004319-.000864 1 3 .002592.000863-1zm4.999998.00432-.000864 1 3 .002591.000863-.999999zm4.999998.00432-.000863 1 3 .002591.000862-1zm4.999999.004319-.000864 1 3 .002592.000862-1zm4.999998.00432-.000864 1 3 .002591.000863-.999999zm4.999998.004319-.000864 1 3 .002592.000863-1zm4.999998.00432-.000864 1 3 .002591.000863-.999999zm4.999998.00432-.000864 1 3 .002591.000863-1zm4.999998.004319-.000864 1 3 .002592.000863-1zm4.999998.00432-.000864 1 3 .002591.000863-1zm4.999999.004319-.000864 1 3 .002592.000862-1zm4.999998.00432-.000864 1 3 .002591.000863-.999999zm4.999998.004319-.000864 1 3 .002592.000863-1zm4.999998.00432-.000864 1 3 .002591.000863-.999999zm4.999998.00432-.000864 1 3 .002591.000863-1zm4.999998.004319-.000864 1 3 .002592.000863-1zm4.999998.00432-.000864 1 3 .002591.000863-.999999zm4.999998.004319-.000863 1 3 .002592.000862-1zm4.999999.00432-.000864 1 3 .002591.000862-.999999zm4.999998.00432-.000864 1 3 .002591.000863-1zm4.999998.004319-.000864 1 3 .002592.000863-1zm4.999998.00432-.000864 1 3 .002591.000863-.999999zm4.999998.004319-.000864 1 3 .002592.000863-1zm4.999998.00432-.000864 1 3 .002591.000863-.999999zm4.999998.00432-.000864 1 3 .002591.000863-1zm4.999999.004319-.000864 1 3 .002591.000862-.999999zm4.999998.00432-.000864 1 3 .002591.000863-1zm4.999998.004319-.000864 1 3 .002592.000863-1zm4.999998.00432-.000864 1 3 .002591.000863-.999999zm4.999998.004319-.000864 1 3 .002592.000863-1zm4.999998.00432-.000864 1 3 .002591.000863-.999999zm4.999998.00432-.000864 1 3 .002591.000863-1z" fill="#e6594c" fill-rule="nonzero"/><path d="m110.500432 294.06 578.758951.5" stroke="#e6594c" stroke-linecap="square"/><g fill="#262626" fill-rule="nonzero"><g transform="translate(110.500432 140)"><path d="m0 154.941495h11.4468138c1.5118433-3.878924 9.2870376-23.920036 16.1983214-39.651231l6.0473733-14.43822h70.8406595l24.40547 55.382426 10.798881-1.292975c-1.943798-3.878924-9.718992-20.903094-17.278209-37.711768l-52.0506062-117.229727-3.2396643.64648746c-4.1035748 11.20578274-9.7189929 23.70454034-19.6539633 46.76259314zm69.112838-135.7623669 31.532732 73.0530833h-63.0654643z"/><path d="m181.565185 157.311949c15.766366 0 29.372956-9.481816 34.556419-22.411565-.86391 17.670657 5.831396 21.549582 12.958657 21.549582 4.103575 0 7.559217-1.292975 10.150948-3.016941l.647933-7.111362c-2.375754 1.292974-5.39944 2.585949-8.207149 2.585949-4.967486 0-7.559217-2.801445-7.34324-12.929749l1.295866-42.6681725c.647933-24.9975152-12.742679-37.280777-33.692508-37.280777-11.446814 0-21.81374 3.4479331-31.964688 9.2663203l2.375754 8.6198328c7.775194-5.1718997 18.14212-9.4818161 28.509046-9.4818161 17.278209 0 25.917314 10.1283036 25.485359 30.8159024l-.215978 5.1719001c-4.751508-.430992-9.503015-.8619837-15.334411-.8619837-35.636307 0-48.594964 14.4382197-48.594964 31.0313987 0 14.869211 10.150948 26.721481 29.372956 26.721481zm1.943799-7.973345c-15.334411 0-21.81374-9.050824-21.81374-19.394624 0-11.85227 8.639105-23.489044 38.875971-23.489044 4.751508 0 10.150949.215495 15.334411.861983l-.431955 9.481816c-.647933 18.748136-14.686478 32.539869-31.964687 32.539869z"/></g><g transform="translate(380.580444 142.334538)"><path d="m1.29586571 3.66342896c-.21597762 3.01694149-.64793285 7.11136214-1.29586571 9.69731194 11.6627914-.2154958 27.4291576-.2154958 42.7635685-.2154958 11.8787691 0 25.2693815 0 35.6363072.2154958l-47.5150762 99.3435731c-5.8313957 12.283262-15.1184333 30.600407-19.4379857 38.358257l11.2308362 1.50847c1.9437986-5.171899 7.7751943-17.239665 12.9586571-28.014456l44.9233447-94.1716742c3.8875972-8.1888412 7.5592167-16.5931782 10.3669258-21.76507796l-3.2396643-4.95640388c-13.3906124.43099164-28.0770905.64648746-43.627479.64648746-15.5503886 0-29.8049115-.21549582-42.76356859-.64648746z"/><path d="m101.761455 116.798735c0 21.980574 19.437985 38.789248 46.435188 38.789248 28.293068 0 47.947031-18.101649 47.947031-41.375198 0-17.886153-14.4705-31.2468939-36.716195-39.8667267 19.869941-7.3268579 33.044576-18.5326406 33.044576-36.8497854 0-20.2566072-17.27821-37.4962729-42.115636-37.4962729-25.701337 0-43.195524 17.6706573-43.195524 38.3582562 0 18.7481364 14.470501 29.7384233 31.964688 36.6342895-22.893628 7.5423538-37.364128 20.472103-37.364128 41.8061893zm84.663226-2.154958c0 18.101649-15.118433 32.539869-37.580105 32.539869-21.381785 0-37.364128-13.360741-37.364128-31.031398 0-19.3946243 14.686478-30.600407 37.580105-37.2807775 23.109606 7.5423538 37.364128 19.1791281 37.364128 35.7723065zm-69.544793-76.7165125c0-15.9466907 12.74268-29.30743166 32.828598-29.30743166 19.222008 0 32.828598 13.14524506 32.828598 29.52292746 0 15.731195-12.526702 26.505986-32.180665 32.3243732-19.653963-6.4648746-33.476531-15.5156991-33.476531-32.539869z"/><path d="m225.336649 148.261125 2.159776 8.404337c49.89083-9.697312 81.423563-50.857014 81.423563-100.2055569 0-34.6948272-19.006031-56.24440928-47.083121-56.24440928-28.293068 0-47.731054 22.62706118-47.731054 50.64151798 0 25.213011 18.358097 44.6076349 43.627479 44.6076349 17.494187 0 33.476531-9.4818161 41.251725-25.4285068-5.183463 39.0047431-31.964688 70.0361421-73.648368 78.2249831zm-1.511843-97.8351029c0-23.0580528 15.118433-41.37519761 37.580105-41.37519761 22.67765 0 36.500218 18.53264061 36.500218 37.92726451 0 20.9030946-16.198321 39.8667269-38.012061 39.8667269-21.813739 0-36.068262-15.7311949-36.068262-36.4187938z"/></g></g></g></svg>