<svg height="440" viewBox="0 0 800 440" width="800" xmlns="http://www.w3.org/2000/svg"><g fill="none" fill-rule="evenodd"><path d="m106 113.450058 588.754788.450058" stroke="#e6594c" stroke-linecap="square"/><path d="m106 179.450058 588.754788.450058" stroke="#e6594c" stroke-dasharray="2 3" stroke-linecap="square"/><path d="m106 296.569686 588.754788.450058" stroke="#e6594c" stroke-linecap="square"/><g fill="#262626" fill-rule="nonzero"><g transform="translate(129 154.396051)"><path d="m30.456 142.146341h12.528v-120.9756093l-42.984 1.2961673v9.2891986h30.456z"/><path d="m113.4 144.522648c19.224 0 42.12-6.912892 42.12-32.836237 0-38.0209058-58.968-29.3797908-58.968-60.2717769 0-11.0174216 8.424-19.8745644 23.976-19.8745644 13.176 0 22.032 3.2404181 25.704 4.3205575l2.376-10.1533101c-2.376-.6480837-12.96-4.5365854-25.704-4.5365854-22.248 0-37.8 11.0174216-37.8 31.1080139 0 39.749129 59.4 30.2439025 59.4 61.1358884 0 13.1777-13.608 20.954704-31.968 20.954704-11.448 0-22.896-3.672474-28.728-5.400697l-2.592 10.585366c5.4 1.728223 16.632 4.968641 32.184 4.968641z"/><path d="m230.04 144.522648c7.128 0 16.2-2.808362 19.008-3.888502l-3.024-10.585366c-3.24 1.08014-10.368 3.456446-16.632 3.456446-19.872 0-25.056-3.672473-25.056-23.33101v-74.7456446h36.936v-11.2334494h-37.152v-24.195122h-11.448v24.195122h-17.28v11.2334494h17.28v74.9616726c0 33.052265 15.768 34.132404 37.368 34.132404z"/></g><path d="m504.456 297.019744h12.528v-120.975609l-42.984 1.296167v9.289199h30.456z"/><path d="m576.816 208.664344c12.744 0 30.672-4.968641 30.672-22.898955 0-25.275261-43.416-19.010453-43.416-38.020906 0-6.696864 6.696-11.017421 16.416-11.017421 8.856 0 16.848 1.94425 20.088 2.808362l2.16-8.857143c-2.376-.864111-12.096-3.02439-20.952-3.02439-14.904 0-28.512 7.344948-28.512 21.818815 0 27.219512 43.416 19.010453 43.416 37.804878 0 7.560976-9.72 11.665505-21.816 11.665505-5.832 0-18.36-2.160278-22.464-3.240418l-1.728 9.505227c2.16 1.080139 15.768 3.456446 26.136 3.456446z"/><path d="m658.032 208.664344c4.968 0 11.664-1.728223 13.608-2.376307l-1.944-8.857143c-1.08.216028-2.376.648084-3.672.864112-2.376.648083-4.968.864111-8.208.864111-12.096 0-15.12-1.728223-15.12-13.393728v-47.094077h24.192v-9.289198h-24.192v-15.986063h-10.8v15.986063h-11.448v9.289198h11.448v47.310105c0 22.682927 11.664 22.682927 26.136 22.682927z"/></g><text fill="#e6594c" font-family="IdealSans-Book, Ideal Sans" font-size="16"><tspan x="213.672" y="343.396051">Ordinals off</tspan></text><text fill="#e6594c" font-family="IdealSans-Book, Ideal Sans" font-size="16"><tspan x="532.64" y="343.396051">Ordinals on</tspan></text></g></svg>