<svg height="440" viewBox="0 0 800 440" width="800" xmlns="http://www.w3.org/2000/svg"><g fill="none" fill-rule="evenodd"><g fill="#262626" fill-rule="nonzero" transform="translate(451 125)"><path d="m49.2 157.2c31.92 0 52.32-31.44 52.32-78.96 0-47.04-18-75.12-49.2-75.12-31.92 0-52.32 31.2-52.32 78.96 0 46.8 18 75.12 49.2 75.12zm-38.64-77.04c0-42.48 14.4-67.68 40.8-67.68 20.64 0 33.12 16.08 37.68 43.68l-77.76 40.32c-.48-5.04-.72-10.56-.72-16.32zm39.84 67.68c-20.4 0-33.36-15.6-37.92-42.72l77.52-40.32c.48 4.8.72 9.84.72 15.36 0 42.48-13.68 67.68-40.32 67.68z"/><path d="m215.4 154.56.96-9.36h-37.44v-145.2l-10.56.96v16.56l-40.08 5.52.24 7.68 39.84-2.88v117.36h-42v9.36z"/></g><g fill="#262626" fill-rule="nonzero" transform="translate(132 125)"><path d="m49.2 157.2c31.92 0 52.32-31.44 52.32-78.96 0-47.04-18-75.12-49.2-75.12-31.92 0-52.32 31.2-52.32 78.96 0 46.8 18 75.12 49.2 75.12zm2.16-144.72c25.92 0 39.36 25.44 39.36 67.68 0 42.48-13.68 67.68-40.32 67.68-25.92 0-39.84-25.44-39.84-67.68 0-42.48 14.4-67.68 40.8-67.68z"/><path d="m215.4 154.56.96-9.36h-37.44v-145.2l-10.56.96v16.56l-40.08 5.52.24 7.68 39.84-2.88v117.36h-42v9.36z"/></g><g fill="#e6594c"><text font-family="SFProText-Regular, SF Pro Text" font-size="16"><tspan x="510.179688" y="331">Slashed zero</tspan></text><text font-family="SFProText-Regular, SF Pro Text" font-size="16"><tspan x="186.71875" y="331">Standard zero</tspan></text><path d="m462.167334 243.798016-.1509-.988549c-.619161.094699-1.245785.15439-1.877862.178417l.03759.999294c.674191-.025614 1.338614-.089366 1.991172-.189162zm-5.825076-1.099663-.189966.981791c.64842.125612 1.30961.215428 1.981431.267308l.076862-.997041c-.629829-.048643-1.253302-.132906-1.868327-.252058zm9.727036.026827-.37555-.926802c-.582015.235881-1.177707.438348-1.78464.606213l.26634.963879c.647106-.178966 1.279163-.39417 1.89385-.64329zm-13.332764-1.17034-.410667.911786c.605439.272458 1.229169.511492 1.86884.714751l.302385-.953186c-.599949-.190656-1.18763-.415536-1.760558-.673351zm16.865547-.763305-.578274-.815843c-.513482.363599-1.047287.697626-1.598834 1.000256l.480871.876791c.586683-.3219 1.15291-.67645 1.696237-1.061204zm-20.102504-1.166293-.606459.795114c.529138.403804 1.081983.778123 1.656084 1.120506l.512277-.85882c-.540255-.322195-1.061744-.675101-1.561902-1.0568zm23.055578-1.471097-.745538-.666463c-.419259.469353-.864956.91459-1.334741 1.333362l.665279.746595c.498036-.443946.970529-.915937 1.415-1.413494zm-25.802542-1.177-.772108.635492c.423912.515129.876692 1.005607 1.355866 1.46896l.69547-.718556c-.452311-.437353-.879478-.900123-1.279228-1.385896zm28.129539-2.125127-.878603-.477555c-.300645.552502-.632739 1.087368-.994468 1.602019l.817905.575353c.382801-.544606.735338-1.112026 1.055166-1.699817zm-30.159257-1.002573-.894828.446411c.298381.598674.630056 1.177844.992601 1.735085l.838404-.54505c-.342988-.527156-.655618-1.073499-.936177-1.636446zm31.654913-2.707885-.96451-.264044c-.166696.607436-.36803 1.203681-.60282 1.786297l.927719.373278c.247934-.615287.461912-1.247905.639611-1.895531zm-32.94393-.865399-.973792.227443c.153147.654352.343012 1.294575.567303 1.918375l.941009-.338384c-.212393-.590712-.390928-1.193983-.53452-1.807434zm33.553035-3.092968-.999306-.037253c-.024305.632022-.084268 1.258581-.179235 1.877668l.988572.150748c.100066-.652546.164088-1.316966.189969-1.991163zm-33.986837-.732462-1.000072-.003731v.053c0 .669305.037574 1.329834.110727 1.979593l.993704-.112041c-.051172-.454559-.083642-.912594-.09718-1.373353zm33.947148-1.320018c-.052023-.672171-.142022-1.333696-.267854-1.982431l-.981784.189998c.119336.615163.203766 1.238785.252555 1.868772zm-34.483861-2.648294c-.151202.643646-.266871 1.300988-.344825 1.969843l.993317.115421c.073081-.626934.181703-1.246578.325051-1.856758zm33.70785-1.319608c-.20454-.639429-.444848-1.262863-.718571-1.86795l-.910695.413081c.258926.572471.484941 1.159752.676749 1.759355zm-32.341151-2.462668c-.296496.59451-.560155 1.208266-.788602 1.838891l.940321.34029c.214348-.59167.462453-1.169973.742917-1.732384zm30.705438-1.159938c-.342872-.574137-.717695-1.126987-1.122015-1.656095l-.794188.607672c.381979.499911.735182 1.02117 1.057686 1.561209zm-28.526149-2.187803c-.424449.513081-.82019 1.050779-1.184762 1.610634l.837872.545867c.3432-.52705.716309-1.034217 1.117307-1.51896zm26.084823-1.003019c-.463157-.479958-.953497-.93351-1.468539-1.358178l-.635889.771781c.485486.400315.947931.828035 1.384922 1.280883zm-23.158979-1.80175c-.531945.403418-1.040109.836559-1.522018 1.296949l.691165.722696c.454991-.434644.934359-.843125 1.435634-1.223253zm20.090753-.730219c-.55788-.36269-1.137721-.694447-1.737092-.99284l-.445793.895137c.563217.280387 1.109833.592871 1.637264.935736zm-16.699081-1.28449c-.610629.274748-1.202656.583495-1.773668.923831l.512288.858814c.540121-.321908 1.098294-.612715 1.671945-.870813zm13.066184-.515912c-.623868-.22307-1.264101-.411727-1.91841-.563683l-.226376.97404c.613699.142518 1.217265.319991 1.808321.531339zm-9.219694-.701222c-.660204.127052-1.307205.291206-1.938748.490207l.300227.953868c.598409-.188574 1.208278-.342921 1.82729-.462054zm3.326647-.31579v1c.633159 0 1.261717.035616 1.88375.106263l.112887-.993608c-.655251-.074421-1.321479-.112655-1.996637-.112655zm-.024032.000016c-.424413.000571-.845286.016249-1.262109.046527l.072071.9974c.395227-.028719.792733-.043408 1.192045-.043927z" fill-rule="nonzero"/><path d="m547.167334 201.798016-.1509-.988549c-.619161.094699-1.245785.15439-1.877862.178417l.03759.999294c.674191-.025614 1.338614-.089366 1.991172-.189162zm-5.825076-1.099663-.189966.981791c.64842.125612 1.30961.215428 1.981431.267308l.076862-.997041c-.629829-.048643-1.253302-.132906-1.868327-.252058zm9.727036.026827-.37555-.926802c-.582015.235881-1.177707.438348-1.78464.606213l.26634.963879c.647106-.178966 1.279163-.39417 1.89385-.64329zm-13.332764-1.17034-.410667.911786c.605439.272458 1.229169.511492 1.86884.714751l.302385-.953186c-.599949-.190656-1.18763-.415536-1.760558-.673351zm16.865547-.763305-.578274-.815843c-.513482.363599-1.047287.697626-1.598834 1.000256l.480871.876791c.586683-.3219 1.15291-.67645 1.696237-1.061204zm-20.102504-1.166293-.606459.795114c.529138.403804 1.081983.778123 1.656084 1.120506l.512277-.85882c-.540255-.322195-1.061744-.675101-1.561902-1.0568zm23.055578-1.471097-.745538-.666463c-.419259.469353-.864956.91459-1.334741 1.333362l.665279.746595c.498036-.443946.970529-.915937 1.415-1.413494zm-25.802542-1.177-.772108.635492c.423912.515129.876692 1.005607 1.355866 1.46896l.69547-.718556c-.452311-.437353-.879478-.900123-1.279228-1.385896zm28.129539-2.125127-.878603-.477555c-.300645.552502-.632739 1.087368-.994468 1.602019l.817905.575353c.382801-.544606.735338-1.112026 1.055166-1.699817zm-30.159257-1.002573-.894828.446411c.298381.598674.630056 1.177844.992601 1.735085l.838404-.54505c-.342988-.527156-.655618-1.073499-.936177-1.636446zm31.654913-2.707885-.96451-.264044c-.166696.607436-.36803 1.203681-.60282 1.786297l.927719.373278c.247934-.615287.461912-1.247905.639611-1.895531zm-32.94393-.865399-.973792.227443c.153147.654352.343012 1.294575.567303 1.918375l.941009-.338384c-.212393-.590712-.390928-1.193983-.53452-1.807434zm33.553035-3.092968-.999306-.037253c-.024305.632022-.084268 1.258581-.179235 1.877668l.988572.150748c.100066-.652546.164088-1.316966.189969-1.991163zm-33.986837-.732462-1.000072-.003731v.053c0 .669305.037574 1.329834.110727 1.979593l.993704-.112041c-.051172-.454559-.083642-.912594-.09718-1.373353zm33.947148-1.320018c-.052023-.672171-.142022-1.333696-.267854-1.982431l-.981784.189998c.119336.615163.203766 1.238785.252555 1.868772zm-34.483861-2.648294c-.151202.643646-.266871 1.300988-.344825 1.969843l.993317.115421c.073081-.626934.181703-1.246578.325051-1.856758zm33.70785-1.319608c-.20454-.639429-.444848-1.262863-.718571-1.86795l-.910695.413081c.258926.572471.484941 1.159752.676749 1.759355zm-32.341151-2.462668c-.296496.59451-.560155 1.208266-.788602 1.838891l.940321.34029c.214348-.59167.462453-1.169973.742917-1.732384zm30.705438-1.159938c-.342872-.574137-.717695-1.126987-1.122015-1.656095l-.794188.607672c.381979.499911.735182 1.02117 1.057686 1.561209zm-28.526149-2.187803c-.424449.513081-.82019 1.050779-1.184762 1.610634l.837872.545867c.3432-.52705.716309-1.034217 1.117307-1.51896zm26.084823-1.003019c-.463157-.479958-.953497-.93351-1.468539-1.358178l-.635889.771781c.485486.400315.947931.828035 1.384922 1.280883zm-23.158979-1.80175c-.531945.403418-1.040109.836559-1.522018 1.296949l.691165.722696c.454991-.434644.934359-.843125 1.435634-1.223253zm20.090753-.730219c-.55788-.36269-1.137721-.694447-1.737092-.99284l-.445793.895137c.563217.280387 1.109833.592871 1.637264.935736zm-16.699081-1.28449c-.610629.274748-1.202656.583495-1.773668.923831l.512288.858814c.540121-.321908 1.098294-.612715 1.671945-.870813zm13.066184-.515912c-.623868-.22307-1.264101-.411727-1.91841-.563683l-.226376.97404c.613699.142518 1.217265.319991 1.808321.531339zm-9.219694-.701222c-.660204.127052-1.307205.291206-1.938748.490207l.300227.953868c.598409-.188574 1.208278-.342921 1.82729-.462054zm3.326647-.31579v1c.633159 0 1.261717.035616 1.88375.106263l.112887-.993608c-.655251-.074421-1.321479-.112655-1.996637-.112655zm-.024032.000016c-.424413.000571-.845286.016249-1.262109.046527l.072071.9974c.395227-.028719.792733-.043408 1.192045-.043927z" fill-rule="nonzero"/></g></g></svg>