<svg height="440" viewBox="0 0 800 440" width="800" xmlns="http://www.w3.org/2000/svg">
    <g fill="none" fill-rule="evenodd">
        <g stroke="#e6594c">
            <path d="m106 147.6 524.781432.5" stroke-linecap="square"/>
            <path d="m106 260.6 524.781432.5" stroke-linecap="square"/>
            <path d="m106 293.6 524.781432.5" stroke-linecap="square"/>
        </g>
        <g fill="#262626" fill-rule="nonzero" transform="translate(106 145)">
            <path d="m92 98.5216802c-9.2 8.3848238-20.9824561 13.7059618-35.9929825 13.7059618-29.5368421 0-48.42105259-22.8970187-48.42105259-52.727642 0-28.8631436 20.49824559-52.72764228 50.35789469-52.72764228 11.9438597 0 22.2736843 3.54742548 30.5052632 9.35230348l2.2596491-6.77235768c-8.7157894-5.80487805-20.1754386-9.35230352-32.2807017-9.35230352-34.3789474 0-58.4280702 27.0894309-58.4280702 61.2737127 0 30.798103 21.7894737 57.7262873 55.6842105 57.7262873 14.3649123 0 26.4701755-4.676152 35.9929825-11.932249z"/>
            <path d="m111.017986 100.401042c5.989208-5.166667 11.654676-7.7500003 18.129496-7.7500003 8.579137 0 13.758993 4.5208333 13.758993 11.4635413 0 5.651042-3.23741 10.817709-11.978417 19.052084-5.827339 5.489583-14.082734 12.270833-24.928058 21.473958l.971223 4.359375c6.636691-.161458 13.920863-.322917 21.690648-.322917 8.417266 0 15.053956.161459 21.852517.322917 0-2.098958.323741-4.036458.485612-6.135417-11.007194.322917-24.442446.484375-35.773381.484375 6.960431-5.8125 13.920863-11.625 19.42446-16.630208 9.71223-9.203125 14.568345-14.854167 14.568345-23.25 0-10.171875-8.093525-16.46875-19.748201-16.46875-8.093525 0-15.539568 3.5520833-21.205036 8.5572917z"/>
            <path d="m264 116c-.159851-4.514851-.159851-17.0919378-.159851-23.2192362v-67.0777935c0-6.2885431 0-19.02687412.159851-23.7029703-2.237918.48373409-5.434944.64497878-7.992565.64497878.319703 7.73974542.479554 28.54031122.479554 38.85997172v12.2545969h-70.654275v-28.0565771c0-6.2885431 0-19.02687412.159851-23.7029703-2.237918.48373409-5.434944.64497878-7.992565.64497878.319703 7.73974542.479554 28.54031122.479554 38.85997172v35.6350778c0 10.4809052-.159851 31.1202267-.479554 38.8599717h7.992565c-.159851-4.514851-.159851-17.0919378-.159851-23.2192362v-32.5714286h70.654275v16.9306931c0 10.4809052-.159851 31.1202267-.479554 38.8599717z"/>
            <path d="m290.802239 147.253846c5.776119 1.776923 11.391791 2.746154 17.328358 2.746154 14.440299 0 24.869403-7.269231 24.869403-17.284615 0-8.4-7.220149-14.053847-21.339552-15.669231 12.675373-2.907692 20.05597-8.238462 20.05597-16.153846 0-7.9153849-7.701493-13.892308-20.05597-13.892308-8.022388 0-15.08209 2.5846154-20.697761 5.6538462l1.925373 4.8461538c5.294776-3.0692308 11.712686-5.0076923 18.291044-5.0076923 9.305971 0 14.279851 4.0384615 14.279851 9.0461543 0 6.623076-7.380597 11.953846-24.869403 14.538461l.962687 4.038462c16.044776.484615 25.190298 4.523077 25.190298 12.6 0 6.784615-7.541044 11.792307-19.093283 11.792307-6.417911 0-12.19403-1.292307-17.649254-3.230769z"/>
            <path d="m406.794835 112.550136c-27.959828 0-47.242468-22.7357729-47.242468-51.4376699 0-29.9918699 20.246772-54.6626016 49.652798-54.6626016 27.959828 0 47.242468 22.5745257 47.242468 51.4376694 0 29.9918699-20.086084 54.6626021-49.652798 54.6626021zm-.321377 6.449864c33.905308 0 57.526542-27.5731707 57.526542-62.402439 0-30.4756098-22.014347-56.597561-54.312769-56.597561-34.065997 0-57.687231 27.5731707-57.687231 62.402439 0 30.3143632 22.175036 56.597561 54.473458 56.597561z"/>
            <path d="m485.017986 100.401042c5.989208-5.166667 11.654676-7.7500003 18.129496-7.7500003 8.579137 0 13.758993 4.5208333 13.758993 11.4635413 0 5.651042-3.23741 10.817709-11.978417 19.052084-5.827339 5.489583-14.082734 12.270833-24.928058 21.473958l.971223 4.359375c6.636691-.161458 13.920863-.322917 21.690648-.322917 8.417266 0 15.053956.161459 21.852517.322917 0-2.098958.323741-4.036458.485612-6.135417-11.007194.322917-24.442446.484375-35.773381.484375 6.960431-5.8125 13.920863-11.625 19.42446-16.630208 9.71223-9.203125 14.568345-14.854167 14.568345-23.25 0-10.171875-8.093525-16.46875-19.748201-16.46875-8.093525 0-15.539568 3.5520833-21.205036 8.5572917z"/>
        </g>
        <text fill="#e6594c" font-family="SFProText-Regular, SF Pro Text" font-size="16">
            <tspan x="667.230469" y="269">sub</tspan>
        </text>
        <path d="m643.5 232.5v62" stroke="#d4d4d4" stroke-linecap="square"/>
    </g>
</svg>