<svg height="440" viewBox="0 0 800 440" width="800" xmlns="http://www.w3.org/2000/svg"><g fill="none" fill-rule="evenodd" transform="translate(106 141)"><g stroke="#e6594c" stroke-linecap="square"><path d="m0 23.5 524.781432.5"/><path d="m0 136.6 524.781432.5"/><path d="m0 .6 524.781432.5"/></g><text fill="#e6594c" font-family="SFProText-Regular, SF Pro Text" font-size="16"><tspan x="561" y="37">sup</tspan></text><path d="m537.5.5v62" stroke="#979797" stroke-linecap="square"/><g fill="#262626" fill-rule="nonzero" transform="translate(41 1)"><path d="m42.020371 19.7109228c-1.7846489-.814501-3.7315387-1.3032015-6.976355-1.3032015-14.6016733 0-22.2269916 12.0546139-22.2269916 32.2542373v12.2175141h-10.70789381l-2.10913059 6.1902071h12.8170244v39.5847462c0 9.448211-.1622408 20.362523-.6489633 27.367231h7.9497999c-.3244816-4.235405-.3244816-10.751412-.3244816-16.452919v-50.4990582h21.4157876c0-2.4435028.1622408-4.5612052.4867224-6.1902071h-21.90251v-12.8691149c0-15.8013183 5.0294653-24.9237288 15.8995999-24.9237288 2.595853 0 4.8672244.6516008 6.976355 1.4661017z"/><path d="m103.185158 173 3.082576-4.887006c-23.3626776-12.217514-44.6162244-38.933145-44.6162244-72.1647831 0-33.2316384 20.7668243-59.9472693 44.6162244-72.4905838l-3.082576-5.0499058c-26.4452526 14.0094162-48.5100034 43.1685499-48.5100034 77.86629 0 34.5348397 22.7137141 63.2052727 48.5100034 76.7259887z"/><path d="m118.111313 62.2278719-7.625318 1.1403014c1.622408 2.4435028 18.495453 25.086629 20.442343 28.3446327l4.867224 6.6789077-29.85231 37.6299433h8.436522c.973445-1.466101 20.117862-26.55273 25.471808-33.231638l24.336123 34.53484 7.463077-1.629002c-1.622408-2.443503-17.197526-23.457627-19.144416-26.552731l-8.274282-11.2401128 27.256457-35.3493409c-2.271371.1629002-5.516187.3258004-8.274281.1629002l-23.038196 30.6252354z"/><path d="m176.518007 173c26.120771-13.520716 48.672244-42.516949 48.672244-77.2146893 0-34.5348399-22.226992-63.5310734-48.672244-77.3775894l-2.920335 5.0499058c23.687159 12.3804143 44.616224 39.0960452 44.616224 72.4905838 0 33.0687381-21.253547 59.7843691-44.616224 72.0018831z"/><path d="m308.58203 76.2372881c-9.085486.3258004-19.631139.4887006-28.716624.4887006-11.84358 0-20.442343-.3258004-28.392143-.4887006 0 1.7919021-.162241 4.8870057-.486722 6.5160076 6.976355 0 13.628228-.1629002 22.389232-.1629002h11.356857c7.787559 0 15.412877.1629002 23.200437.1629002.16224-2.1177025.324481-4.7241055.648963-6.5160076zm0 26.3898309c-9.085486.3258-19.631139.4887-28.716624.4887-11.84358 0-20.442343-.1629-28.392143-.4887 0 1.954802-.162241 5.049905-.486722 6.516007 6.976355 0 13.628228-.1629 22.389232-.1629h11.356857c7.787559 0 15.412877.1629 23.200437.1629.16224-1.954802.324481-4.724105.648963-6.516007z"/><path d="m387.917788 62.5536723c-9.409967.3258004-18.819934.4887006-29.365587.4887006-10.058931 0-18.333212-.1629002-26.769735-.4887006 0 2.606403-.324481 4.3983051-.648963 6.6789077 15.575118-.3258003 30.663514-.1629002 46.563114-.1629002l-51.105857 65.4858762 1.460168 1.954802c9.247726-.488701 18.982175-.651601 29.85231-.651601 10.870134 0 20.117861.1629 29.203346.488701 0-2.443503.324482-4.561206.973445-7.004708-16.386322.4887-35.044016.3258-49.970171.3258l51.105857-65.3229756z"/><path d="m405.926519 13.5207156c6.00291-5.212806 11.681338-7.81920901 18.170971-7.81920901 8.598763 0 13.790469 4.56120531 13.790469 11.56591341 0 5.7015066-3.244816 10.9143126-12.00582 19.2222222-5.840669 5.5386064-14.114951 12.3804143-24.985086 21.665725l.973445 4.3983051c6.651874-.1629002 13.95271-.3258004 21.74027-.3258004 8.436522 0 15.088395.1629002 21.90251.3258004 0-2.1177024.324481-4.0725047.486722-6.1902071-11.032375.3258003-24.498363.4887005-35.85522.4887005 6.976355-5.8644068 13.95271-11.7288135 19.468898-16.7787194 9.734449-9.2853107 14.601673-14.9868173 14.601673-23.4576271 0-10.26271186-8.112041-16.6158192-19.793379-16.6158192-8.112041 0-15.575119 3.58380414-21.253547 8.63370998z"/></g></g></svg>