<svg height="565" viewBox="0 0 800 565" width="800" xmlns="http://www.w3.org/2000/svg"><g fill="none" fill-rule="evenodd"><path d="m100.5 565v-214m599 0v214" stroke="#979797" stroke-dasharray="2"/><path d="m700 65v285h-600v-285zm-29.761273 30h-540v225h540z" fill="#e6594c" fill-opacity=".5" opacity=".25"/><path d="m130.5 95.5h539v225h-539z" stroke="#e6594c"/><path d="m101 66h598v284h-598z" stroke="#262626" stroke-width="2"/><g fill="#e6594c"><path d="m665 96.0166667v-1l4-.0006667v-27.033l-4 .0003333v-1h9v1l-4-.0003333v27.033l4 .0006667v1z" fill-rule="nonzero"/><path d="m669.983333 100h-1v-9h1l-.000333 3.999h27.033l.000667-3.999h1v9h-1l-.000667-4.001h-27.033z" fill-rule="nonzero"/><text font-family="SFCompactRounded-Semibold, SF Compact Rounded" font-size="10" font-weight="500"><tspan x="632.652832" y="84">100px</tspan></text></g><path d="m176 381h118v118h-118z" stroke="#262626" stroke-width="2"/><path d="m341 261h118v118h-118z" stroke="#262626" stroke-width="2"/><path d="m506 141h118v118h-118z" stroke="#262626" stroke-width="2"/><path d="m507.5 200.5h115" stroke="#e6594c" stroke-dasharray="2" stroke-linecap="square"/><path d="m177.5 440.5h116" stroke="#262626" stroke-dasharray="2" stroke-linecap="square"/><g transform="translate(558 134)"><rect fill="#fafafa" height="11" rx="2" stroke="#e6594c" width="14" x=".5" y=".5"/><text fill="#e6594c" font-family="SFCompactRounded-Semibold, SF Compact Rounded" font-size="6" font-weight="500"><tspan x="3.51416" y="8">0%</tspan></text></g><g transform="translate(393 254)"><rect fill="#fafafa" height="11" rx="2" stroke="#e6594c" width="14" x=".5" y=".5"/><text fill="#e6594c" font-family="SFCompactRounded-Semibold, SF Compact Rounded" font-size="6" font-weight="500"><tspan x="3.51416" y="8">0%</tspan></text></g><g transform="translate(228 374)"><rect fill="#fafafa" height="11" rx="2" stroke="#262626" width="14" x=".5" y=".5"/><text fill="#262626" font-family="SFCompactRounded-Semibold, SF Compact Rounded" font-size="6" font-weight="500"><tspan x="3.51416" y="8">0%</tspan></text></g><g transform="translate(556 195)"><rect fill="#fafafa" height="11" rx="2" stroke="#e6594c" width="18" x=".5" y=".5"/><text fill="#e6594c" font-family="SFCompactRounded-Semibold, SF Compact Rounded" font-size="6" font-weight="500"><tspan x="3.243164" y="8">50%</tspan></text></g><g transform="translate(391 315)"><rect fill="#fafafa" height="11" rx="2" stroke="#e6594c" width="18" x=".5" y=".5"/><text fill="#e6594c" font-family="SFCompactRounded-Semibold, SF Compact Rounded" font-size="6" font-weight="500"><tspan x="3.243164" y="8">50%</tspan></text></g><g transform="translate(226 435)"><rect fill="#fafafa" height="11" rx="2" stroke="#262626" width="18" x=".5" y=".5"/><text fill="#262626" font-family="SFCompactRounded-Semibold, SF Compact Rounded" font-size="6" font-weight="500"><tspan x="3.243164" y="8">50%</tspan></text></g><g transform="translate(555 254)"><rect fill="#fafafa" height="11" rx="2" stroke="#e6594c" width="20" x=".5" y=".5"/><text fill="#e6594c" font-family="SFCompactRounded-Semibold, SF Compact Rounded" font-size="6" font-weight="500"><tspan x="3.039063" y="8">100%</tspan></text></g><g transform="translate(390 374)"><rect fill="#fafafa" height="11" rx="2" stroke="#262626" width="20" x=".5" y=".5"/><text fill="#262626" font-family="SFCompactRounded-Semibold, SF Compact Rounded" font-size="6" font-weight="500"><tspan x="3.039063" y="8">100%</tspan></text></g><g transform="translate(225 494)"><rect fill="#fafafa" height="11" rx="2" stroke="#262626" width="20" x=".5" y=".5"/><text fill="#262626" font-family="SFCompactRounded-Semibold, SF Compact Rounded" font-size="6" font-weight="500"><tspan x="3.039063" y="8">100%</tspan></text></g></g></svg>