<svg height="440" viewBox="0 0 800 440" width="800" xmlns="http://www.w3.org/2000/svg"><g fill="none" fill-rule="evenodd"><path d="m120.000952 187-.000952 1 3.088565.002773.000952-.999999zm5.147608.004623-.000952 1 3.088565.002773.000951-.999999zm5.147608.004623-.000952 1 3.088564.002773.000952-.999999zm5.147607.004623-.000952 1 3.088565.002773.000952-.999999zm5.147608.004623-.000952 1 3.088565.002773.000952-.999999zm5.147608.004623-.000952 1 3.088565.002773.000952-.999999zm5.147608.004623-.000952 1 3.088565.002773.000952-.999999zm5.147608.004623-.000952 1 3.088564.002773.000952-.999999zm5.147607.004623-.000951 1 3.088564.002773.000952-.999999zm5.147608.004623-.000952 1 3.088565.002773.000952-.999999zm5.147608.004623-.000952 1 3.088565.002773.000952-.999999zm5.147608.004623-.000952 1 3.088565.002773.000952-.999999zm5.147608.004623-.000952 1 3.088565.002773.000951-.999999zm5.147608.004623-.000952 1 3.088564.002773.000952-.999999zm5.147607.004623-.000951 1 3.088564.002773.000952-.999999zm5.147608.004623-.000952 1 3.088565.002773.000952-.999999zm5.147608.004623-.000952 1 3.088565.002773.000952-.999999zm5.147608.004623-.000952 1 3.088565.002773.000952-.999999zm5.147608.004623-.000952 1 3.088565.002773.000951-.999999zm5.147608.004623-.000952 1 3.088564.002773.000952-.999999zm5.147607.004623-.000952 1 3.088565.002773.000952-.999999zm5.147608.004623-.000952 1 3.088565.002773.000952-.999999zm5.147608.004623-.000952 1 3.088565.002773.000952-.999999zm5.147608.004623-.000952 1 3.088565.002773.000952-.999999zm5.147608.004623-.000952 1 3.088564.002773.000952-.999999zm5.147608.004623-.000952 1 3.088564.002773.000952-.999999zm5.147607.004623-.000952 1 3.088565.002773.000952-.999999zm5.147608.004623-.000952 1 3.088565.002773.000952-.999999zm5.147608.004623-.000952 1 3.088565.002773.000952-.999999zm5.147608.004623-.000952 1 3.088565.002773.000952-.999999zm5.147608.004623-.000952 1 3.088564.002773.000952-.999999zm5.147607.004623-.000951 1 3.088564.002773.000952-.999999zm5.147608.004623-.000952 1 3.088565.002773.000952-.999999zm5.147608.004623-.000952 1 3.088565.002773.000952-.999999zm5.147608.004623-.000952 1 3.088565.002773.000952-.999999zm5.147608.004623-.000952 1 3.088565.002773.000951-.999999zm5.147608.004623-.000952 1 3.088564.002773.000952-.999999zm5.147607.004623-.000951 1 3.088564.002773.000952-.999999zm5.147608.004623-.000952 1 3.088565.002773.000952-.999999zm5.147608.004623-.000952 1 3.088565.002773.000952-.999999zm5.147608.004623-.000952 1 3.088565.002773.000952-.999999zm5.147608.004623-.000952 1 3.088565.002773.000951-.999999zm5.147608.004623-.000952 1 3.088564.002773.000952-.999999zm5.147607.004623-.000952 1 3.088565.002773.000952-.999999zm5.147608.004623-.000952 1 3.088565.002773.000952-.999999zm5.147608.004623-.000952 1 3.088565.002773.000952-.999999zm5.147608.004623-.000952 1 3.088565.002773.000952-.999999zm5.147608.004623-.000952 1 3.088564.002773.000952-.999999zm5.147607.004623-.000951 1 3.088564.002773.000952-.999999zm5.147608.004623-.000952 1 3.088565.002773.000952-.999999zm5.147608.004623-.000952 1 3.088565.002773.000952-.999999zm5.147608.004623-.000952 1 3.088565.002773.000952-.999999zm5.147608.004623-.000952 1 3.088565.002773.000951-.999999zm5.147608.004623-.000952 1 3.088564.002773.000952-.999999zm5.147607.004623-.000951 1 3.088564.002773.000952-.999999zm5.147608.004623-.000952 1 3.088565.002773.000952-.999999zm5.147608.004623-.000952 1 3.088565.002773.000952-.999999zm5.147608.004623-.000952 1 3.088565.002773.000952-1zm5.147608.004623-.000952 1 3.088565.002773.000951-1zm5.147608.004623-.000952 1 3.088564.002773.000952-1zm5.147607.004623-.000952 1 3.088565.002773.000952-1zm5.147608.004623-.000952 1 3.088565.002773.000952-1zm5.147608.004623-.000952 1 3.088565.002773.000952-1zm5.147608.004623-.000952 1 3.088565.002773.000952-1zm5.147608.004623-.000952 1 3.088564.002773.000952-1zm5.147608.004623-.000952 1 3.088564.002773.000952-1zm5.147607.004623-.000952 1 3.088565.002773.000952-1zm5.147608.004623-.000952 1 3.088565.002773.000952-1zm5.147608.004623-.000952 1 3.088565.002773.000952-1zm5.147608.004623-.000952 1 3.088565.002773.000952-1zm5.147608.004623-.000952 1 3.088564.002773.000952-1zm5.147607.004623-.000951 1 3.088564.002773.000952-1zm5.147608.004623-.000952 1 3.088565.002773.000952-1zm5.147608.004623-.000952 1 3.088565.002773.000952-1zm5.147608.004623-.000952 1 3.088565.002773.000952-1zm5.147608.004623-.000952 1 3.088565.002773.000951-1zm5.147608.004623-.000952 1 3.088564.002773.000952-1zm5.147607.004623-.000951 1 3.088564.002773.000952-1zm5.147608.004623-.000952 1 3.088565.002773.000952-1zm5.147608.004623-.000952 1 3.088565.002773.000952-1zm5.147608.004623-.000952 1 3.088565.002773.000952-1zm5.147608.004623-.000952 1 3.088565.002773.000951-1zm5.147608.004623-.000952 1 3.088564.002773.000952-1zm5.147607.004623-.000952 1 3.088565.002773.000952-1zm5.147608.004623-.000952 1 3.088565.002773.000952-1zm5.147608.004623-.000952 1 3.088565.002773.000952-1zm5.147608.004623-.000952 1 3.088565.002773.000952-1zm5.147608.004623-.000952 1 3.088564.002773.000952-1zm5.147607.004623-.000951 1 3.088564.002773.000952-1zm5.147608.004623-.000952 1 3.088565.002773.000952-1zm5.147608.004623-.000952 1 3.088565.002773.000952-1zm5.147608.004623-.000952 1 3.088565.002773.000952-1zm5.147608.004623-.000952 1 3.088565.002773.000951-1zm5.147608.004623-.000952 1 3.088564.002773.000952-1zm5.147607.004623-.000951 1 3.088564.002773.000952-1zm5.147608.004623-.000952 1 3.088565.002773.000952-1zm5.147608.004622-.000952 1 3.088565.002774.000952-1zm5.147608.004623-.000952 1 3.088565.002774.000952-1zm5.147608.004623-.000952 1 3.088565.002774.000951-1zm5.147608.004623-.000952 1 3.088564.002774.000952-1zm5.147607.004623-.000952 1 3.088565.002774.000952-1zm5.147608.004623-.000952 1 3.088565.002774.000952-1zm5.147608.004623-.000952 1 3.088565.002774.000952-1zm5.147608.004623-.000952 1 3.088565.002774.000952-1zm5.147608.004623-.000952 1 3.088564.002774.000952-1zm5.147608.004623-.000952 1 3.088564.002774.000952-1zm5.147607.004623-.000952 1 3.088565.002774.000952-1zm5.147608.004623-.000952 1 3.088565.002774.000952-1zm5.147608.004623-.000952 1 1.827403.001641.000952-.999999z" fill="#e6594c" fill-rule="nonzero"/><path d="m129.218452 133.5 539.973982.5" stroke="#e6594c" stroke-linecap="square"/><path d="m129.218452 273.5 539.973982.5" stroke="#e6594c" stroke-linecap="square"/><text fill="#e6594c" font-family="SFProText-Regular, SF Pro Text" font-size="16"><tspan x="497.382514" y="324">Unicase on</tspan></text><g fill="#262626" fill-rule="nonzero" transform="translate(407.218452 132)"><path d="m46.4349112 98.8930163h45.7869823l13.1745565 36.6270427h-1.511835c-7.7751475 0-12.7426032-.215453-16.6301771-.215453-1.5118343 0-3.0236687 1.508173-3.0236687 3.878158s1.5118344 3.662704 3.0236687 3.662704c4.1035503 0 9.0710059-1.077266 29.1568051-1.077266h1.079881c20.517752 0 25.053255 1.077266 29.156805 1.077266 1.727811 0 3.239645-1.292719 3.239645-3.662704s-1.511834-3.878158-3.239645-3.878158c-3.671598 0-6.047337.215453-16.630178.215453h-.647929l-48.5946741-133.15007386c-.4319526-1.50817236-1.295858-2.36998514-3.6715976-2.36998514s-3.0236686.64635958-3.6715976 2.36998514l-49.0266273 133.15007386c-14.47041416 0-17.4940828-.215453-21.38165676-.215453-1.72781065 0-3.02366864 1.508173-3.02366864 3.878158s1.29585799 3.662704 3.02366864 3.662704c4.10355029 0 6.26331361-1.077266 25.48520706-1.077266h1.0798817c19.2218935 0 21.5976331 1.077266 25.7011834 1.077266 1.5118343 0 3.239645-1.292719 3.239645-3.662704s-1.7278107-3.878158-3.239645-3.878158c-3.6715976 0-6.9112426.215453-22.4615384.215453zm42.5473373-7.9717682h-39.7396449l20.0857988-54.294205z"/><path d="m218.568047 117.421991c-14.470414 15.51263-23.109467 15.51263-29.588757 15.51263-8.207101 0-16.630178-5.601783-16.630178-21.545319 0-26.2852901 24.18935-35.1188711 46.218935-35.1188711zm-40.171597-99.754829c2.375739-4.3090639 9.502958-8.18722144 20.517751-8.18722144 12.95858 0 19.653846 7.54086184 19.653846 22.62258544v37.2734027c-28.508875 0-69.760355 10.5572065-69.760355 45.8915303 0 19.175334 14.470415 29.732541 30.02071 29.732541 12.310651 0 25.053255-4.955423 40.387574-18.528975 1.943787 10.77266 9.071006 18.098069 20.085799 18.098069 4.967456 0 13.822485-.64636 21.381657-8.402675 1.079882-1.077266 2.159763-3.016345 2.159763-4.73997 0-2.369985-2.159763-4.093611-4.751479-4.093611-.863905 0-1.511834.430906-2.159763 1.292719-2.807693 2.369985-4.103551 8.618128-9.502959 8.618128-3.455621 0-5.399408-2.154532-5.399408-10.1263v-82.9494801c0-29.7325409-15.33432-42.65973254-42.115385-42.65973254-18.789941 0-39.739645 12.92719164-39.739645 27.79346214 0 7.3254086 5.615385 13.1426448 12.95858 13.1426448 7.127219 0 12.95858-5.8172362 12.95858-13.1426448 0-4.7399703-2.591716-9.4799406-6.695266-11.6344725z"/></g><text fill="#e6594c" font-family="SFProText-Regular, SF Pro Text" font-size="16"><tspan x="196.261421" y="324">Unicase off</tspan></text><g fill="#262626" fill-rule="nonzero" transform="translate(129.218452 132)"><path d="m90.0621302 90.9212481h-47.0828403l23.9733728-63.5586924zm34.3402368 44.5988109-48.810651-133.15007386c-.647929-1.50817236-1.295858-2.36998514-3.6715977-2.36998514-2.5917159 0-3.2396449.64635958-3.8875739 2.36998514l-50.7544379 133.15007386h-1.295858c-9.71893489 0-10.58284022-.215453-12.74260353-.215453-1.51183432 0-3.23964497 1.508173-3.23964497 3.878158s1.72781065 3.662704 3.23964497 3.662704c2.15976331 0 3.02366864-1.077266 18.35798813-1.077266h1.0798817c15.1183432 0 15.9822485 1.077266 18.1420118 1.077266 1.5118343 0 3.239645-1.292719 3.239645-3.662704s-1.7278107-3.878158-3.239645-3.878158c-2.1597633 0-3.0236686.215453-13.3905325.215453h-1.5118343l14.0384615-36.8424958h52.9142012l13.3905325 36.8424958c-9.9349112 0-12.0946745-.215453-14.2544378-.215453-1.5118344 0-3.239645 1.508173-3.239645 3.878158s1.7278106 3.662704 3.239645 3.662704c2.1597633 0 4.3195266-1.077266 22.0295858-1.077266h2.591716c17.710059 0 19.869822 1.077266 22.029586 1.077266 1.72781 0 3.239645-1.292719 3.239645-3.662704s-1.511835-3.878158-3.239645-3.878158c-2.159764 0-4.319527.215453-14.254438.215453z"/><path d="m190.491124 125.178306c-9.934911 8.833581-16.414201 10.341753-20.949704 10.341753-6.263313 0-11.662722-5.170876-11.662722-13.142644 0-12.711739 9.071006-19.821694 32.612426-19.821694zm-27.860946-59.2496284c1.72781-2.3699852 6.047337-5.1708767 13.822485-5.1708767 8.855029 0 14.038461 4.0936107 14.038461 14.435364v21.1144131c-24.837278 0-48.810651 8.402675-48.810651 28.870728 0 12.927192 9.502959 19.821694 20.949705 19.821694 8.423076 0 17.926035-3.447251 28.292899-12.927192 1.295858 7.325409 6.263314 12.496286 13.606509 12.496286 4.535503 0 8.855029-.430907 14.68639-4.955424 1.295858-1.077266 2.37574-3.878157 1.079882-5.38633-1.727811-1.508172-3.455621-1.723625-4.967456-.430906-2.375739 1.939079-2.591716 4.524517-5.399408 4.524517s-4.10355-1.723626-4.10355-7.756315v-47.1842497c0-20.4680535-11.014793-29.0861812-29.372781-29.0861812-12.95858 0-27.644971 8.6181277-27.644971 18.9598811 0 4.9554235 3.671598 9.0490342 8.85503 9.0490342 4.967456 0 8.855029-4.0936107 8.855029-9.0490342 0-3.2317979-1.511834-5.8172363-3.887573-7.3254086z"/></g></g></svg>