<svg height="507" viewBox="0 0 800 507" width="800" xmlns="http://www.w3.org/2000/svg">
    <g fill="none" fill-rule="evenodd">
        <path d="m91 100h278v278h-278z" stroke="#262626" stroke-width="2"/>
        <path d="m91 208h138v138h-138z" fill="#d4d4d4" stroke="#262626" stroke-width="2"/>
        <g fill="#e6594c">
            <path d="m90 347h140v30h-140z" fill-opacity=".5" opacity=".25" transform="matrix(1 0 0 -1 0 724)"/>
            <path d="m156 374.5v-1h4v-20.092l-3.564212 6.337131-.245131.435787-.871575-.490261.24513-.435788 4.5-8 .435788-.774733.435788.774733 4.5 8 .24513.435788-.871575.490261-.245131-.435787-3.564212-6.337131v20.092h4v1z"
                  fill-rule="nonzero" transform="matrix(1 0 0 -1 0 726)"/>
            <text font-family="SFCompactRounded-Semibold, SF Compact Rounded" font-size="10" font-weight="500">
                <tspan x="170" y="367">30px</tspan>
            </text>
            <path d="m90 379h280v30h-280z" fill-opacity=".5" opacity=".25" transform="matrix(1 0 0 -1 0 788)"/>
            <path d="m165 381.5v1h-4v20.091l3.564212-6.336131.245131-.435787.871575.490261-.24513.435788-4.5 8-.435788.774733-.435788-.774733-4.5-8-.24513-.435788.871575-.490261.245131.435787 3.564212 6.336131v-20.091h-4v-1z"
                  fill-rule="nonzero" transform="matrix(1 0 0 -1 0 786)"/>
            <text font-family="SFCompactRounded-Semibold, SF Compact Rounded" font-size="10" font-weight="500">
                <tspan x="170" y="397">30px</tspan>
            </text>
        </g>
        <path d="m431 100h278v278h-278z" stroke="#262626" stroke-width="2"/>
        <path d="m431 240h138v138h-138z" fill="#d4d4d4" stroke="#262626" stroke-width="2"/>
        <path d="m430 379h280v30h-280z" fill="#e6594c" fill-opacity=".5" opacity=".25"
              transform="matrix(1 0 0 -1 0 788)"/>
        <path d="m566 406.5v-1h4v-23h-4v-1h9v1h-4v23h4v1z" fill="#e6594c" fill-rule="nonzero"/>
        <text fill="#e6594c" font-family="SFCompactRounded-Semibold, SF Compact Rounded" font-size="10"
              font-weight="500">
            <tspan x="578" y="397">30px</tspan>
        </text>
    </g>
</svg>