<svg height="440" viewBox="0 0 800 440" width="800" xmlns="http://www.w3.org/2000/svg"><g fill="none" fill-rule="nonzero"><g fill="#262626" transform="translate(233.717354 176.426063)"><path d="m94.8226464 97.9339375c0-1.76 0-7.04-.22-8.36-.66-2.86-2.64-1.98-4.62-2.42l-18.04.44c-1.98-.88-2.64-1.54-3.08-3.74v-81.62000004c0-1.32-1.1-1.76-2.2-2.2-1.76-.22-3.74.66-4.62 1.76l-61.37999999 92.84000004c-1.32 1.98-.44 5.7199995.66 5.9399995 11.87999999.44 35.41999999.66 47.29999999 0 1.98-.22 1.98 2.64 2.2 4.18-.66 9.68-.22 22 .22 31.24 0 1.1 1.32 3.96 3.08 3.74h11.22c3.08 0 3.52-2.2 3.52-4.18.22-7.04.44-20.9 0-32.12 0-1.1 2.2-2.86 3.08-2.86l19.14.22c.66.22 3.74-1.0999995 3.74-2.8599995zm-43.78-12.54c-1.76 2.42-1.1 1.98-4.18 2.2-8.36.22-21.56.22-28.82 0-1.32 0-1.98-1.76-1.1-3.3l32.56-49.94c1.1-1.76 1.76 2.2 1.54 2.86-.66 14.3-.22 35.86 0 48.18z"/><path d="m232.562646 51.9539375v-8.14c0-1.1-1.32-2.86-3.08-2.86-23.98-.44-78.1-1.1-111.98 0-1.1.22-2.42 1.32-2.64 2.42l-.22 7.7c0 1.32 1.32 2.86 2.2 2.86 38.28-.44 65.56-.44 112.2 0 1.98 0 3.3-.44 3.52-1.98z"/><path d="m323.642646 7.29393746c.22-1.76.44-3.3-3.74-3.74l-25.08-2.86c-1.54-.22-1.98 0-3.08 1.32-8.58 9.24000004-23.98 28.60000004-31.24 38.72000004-.44.66-1.98 3.08 0 4.4 18.7 11.66 44.66 29.7 44.66 53.46 0 15.8399995-11 29.0399995-23.1 29.0399995-2.86 0-6.82-1.1-16.28-4.4-2.2-.88-4.18-1.32-5.72-1.32-4.4 0-7.92 3.96-7.92 8.58 0 5.72 4.84 9.02 11.66 9.02 11.22 0 23.76-3.96 34.32-10.78 14.3-9.24 22.22-22.44 22.22-37.1799995 0-13.42-7.26-27.94-20.02-40.04-7.26-6.82-9.68-9.24-20.68-16.06-3.74-2.2-2.42-3.08-.22-5.94l8.58-10.56c1.32-1.76 1.98-1.76 3.96-1.54l20.68 2.64c1.76 0 2.42-.22 3.74-1.54 1.1-1.1 6.6-8.36 7.26-11.22000004z"/></g><path d="m349 340h-1v-9h1v4h116v-4h1v9h-1v-4h-116z" fill="#e6594c"/></g></svg>