<svg height="440" viewBox="0 0 800 440" width="800" xmlns="http://www.w3.org/2000/svg"><g fill="none" fill-rule="evenodd"><path d="m110.88 89.6441365c0-1.54-.66-3.3-1.76-3.96-9.46-.66-13.64-2.86-19.8-10.78-8.8-11.22-3.74-4.84-26.62-34.1l10.34-11.88 8.36-9.24c9.24-10.34 12.32-12.32 25.52-13.2 1.54 0 2.64.44 3.3-1.32.44-1.1.22-2.86-.22-3.96-.66-1.1-1.32-1.32-2.64-1.1-9.02.44-25.08.22-41.8 0-1.1-.22-2.42-.22-2.64 1.32-.22 1.1-.22 2.86.22 3.96.66 1.54 1.32.88 2.64 1.1 8.14.22 9.68 1.98 9.68 5.06 0 2.86-2.64 7.26-5.94 11.22-3.08 3.96-6.82 7.92-8.58 9.68-2.2 2.64-3.08 2.42-4.84 0-.22-.22-4.62-5.28-8.58-10.56-4.18-5.5-7.92-11.22-7.92-12.98 0-2.64 5.72-2.64 7.48-2.64h1.98c1.1 0 1.54-3.96.22-5.72-.44-.66-1.76-.44-2.42-.44-10.34.22-31.02.66-42.68 0-3.3-.22-2.64 5.94-1.1 6.38 12.54.66 15.18 2.64 25.74 16.72l18.26 24.42-19.58 22.22c-11.88 13.64-15.18 15.84-25.74 16.06-1.32 0-1.76 1.54-1.76 3.3.22 1.54.88 3.08 1.76 3.08 10.56-.22 30.58-.22 42.02.22 2.2.44 2.2-6.16 0-6.38h-1.76c-9.46-.88-11.88-2.64-11.88-6.38 0-4.18 16.28-20.9 19.8-24.86 1.32-1.54 3.52.22 5.06 2.2l12.54 16.72c1.54 2.2 5.72 6.16 5.72 8.8 0 1.98-1.1 3.52-7.7 3.52h-1.98c-2.64 0-2.64 6.38 0 6.38 12.98-.44 34.1-.44 45.32-.22 1.1.22 1.98-1.1 1.98-2.64z" fill="#262626" fill-rule="nonzero" transform="translate(164.12 147.155863)"/><g transform="translate(193 302)"><text fill="#979797" font-family="SFProText-Regular, SF Pro Text" font-size="16"><tspan x=".53125" y="53">x letter</tspan></text><path d="m21.7086196 1.18317306-1.1360477-1.00347308c-.1747765-.13088779-1.0486593 0-1.3982124.43629264-2.0536246 2.31235101-5.2432967 5.71543363-7.2969213 7.591492-.7428003.65443896-1.0049652.69806823-1.6166831.08725852-2.53426008-2.70501438-5.76762637-6.02083847-7.90863919-8.0714139-.48063553-.47992191-1.09235348-.04362926-1.13604762 0l-.91757692.91621455c-.52432967.52355118-.17477656 1.09073161.26216483 1.52702426l7.69016849 7.76600905c.39324726.4362926.52432967.7416975-.04369414 1.3088779-2.0099304 2.0069462-6.20456776 6.2826141-7.90863918 7.8968969-.48063554.4362926-.30585898 1.0034731 0 1.2652486l.74280036.6980683c.61171795.5671804 1.13604762.3926633 1.57298901-.0436293 2.62164835-2.5304973 4.67527289-4.450185 7.29692124-7.3297164.56802382-.6108097 1.17974172-.9598438 1.96623622-.1308878l7.515392 7.6351213c.305859.3054048.6554121.4362926 1.26713-.0872586l.9612711-.7853267c.4806355-.3926634.3932472-.7853268-.1747766-1.3525072l-7.9523333-7.8968969c-.4806355-.4799219-.2621648-.8725853.0873883-1.1343608 1.7477655-1.57065355 5.8987088-5.93357999 8.0834157-8.07141394.5243297-.52355117.3495531-.91621455.0436942-1.2216194z" fill="#e6594c" fill-rule="nonzero" transform="translate(16)"/></g><path d="m109.302904 5.96613481-5.72-5.06c-.88-.66-5.2799999 0-7.0399999 2.2-10.34 11.65999999-26.4 28.81999999-36.74 38.27999999-3.74 3.3-5.06 3.52-8.14.44-12.76-13.64-29.04-30.36-39.82-40.69999999-2.42000001-2.42-5.50000001-.22-5.72000001 0l-4.62 4.62c-2.64 2.64-.88 5.49999999 1.32 7.69999999l38.72000001 39.16c1.98 2.2 2.64 3.74-.22 6.6-10.12 10.12-31.24 31.68-39.82000001 39.82-2.42 2.2000002-1.54 5.0600002 0 6.3800002l3.74 3.52c3.08 2.86 5.72000001 1.98 7.92000001-.22 13.2-12.7600002 23.54-22.4400002 36.74-36.9600002 2.86-3.08 5.94-4.84 9.9-.66l37.84 38.5000002c1.54 1.54 3.2999999 2.2 6.3799999-.44l4.84-3.96c2.42-1.98 1.98-3.96-.88-6.8200002l-40.0399999-39.82c-2.42-2.42-1.32-4.4.44-5.72 8.8-7.92 29.7-29.92 40.6999999-40.7 2.64-2.63999999 1.76-4.61999999.22-6.15999999z" fill="#262626" fill-rule="nonzero" transform="translate(503.587096 120.173865)"/><g transform="translate(478 296)"><text fill="#979797" font-family="SFProText-Regular, SF Pro Text" font-size="16"><tspan x=".007813" y="59">multiplication symbol</tspan></text><path d="m10.8133536 33c-1.31714723-2.4347826-2.32979265-4.2246377-3.0379363-5.3695652l-1.12594841-1.8043478-.84977238-1.326087c-1.85533637-2.9565217-3.78856854-5.3985507-5.79969651-7.326087 1.14719272-.9710144 2.21648963-1.4565217 3.20789074-1.4565217 1.21800708 0 2.30146687.4565217 3.25037937 1.3695652.94891249.9130435 2.14567526 2.6521739 3.59028829 5.2173913 1.6428933-5.4637681 3.7319171-10.6449275 6.2670713-15.54347823 1.4021245-2.66666667 2.651998-4.46014493 3.7496207-5.38043479 1.0976226-.92028985 2.5528578-1.38043478 4.3657056-1.38043478.9630754 0 2.1527567.15217391 3.569044.45652174-3.6398584 3-6.5503288 6.56521739-8.7314112 10.69565216-2.1810825 4.1304348-4.9994942 11.4130435-8.4552352 21.8478261z" fill="#4ade80" fill-rule="nonzero" transform="translate(66)"/></g></g></svg>