<svg height="440" viewBox="0 0 800 440" width="800" xmlns="http://www.w3.org/2000/svg"><g fill="none" fill-rule="evenodd"><g transform="translate(202 326)"><text fill="#979797" font-family="SFProText-Regular, SF Pro Text" font-size="16"><tspan x=".226563" y="53">italic</tspan></text><path d="m21.7086196 1.18317306-1.1360477-1.00347308c-.1747765-.13088779-1.0486593 0-1.3982124.43629264-2.0536246 2.31235101-5.2432967 5.71543363-7.2969213 7.591492-.7428003.65443896-1.0049652.69806823-1.6166831.08725852-2.53426008-2.70501438-5.76762637-6.02083847-7.90863919-8.0714139-.48063553-.47992191-1.09235348-.04362926-1.13604762 0l-.91757692.91621455c-.52432967.52355118-.17477656 1.09073161.26216483 1.52702426l7.69016849 7.76600905c.39324726.4362926.52432967.7416975-.04369414 1.3088779-2.0099304 2.0069462-6.20456776 6.2826141-7.90863918 7.8968969-.48063554.4362926-.30585898 1.0034731 0 1.2652486l.74280036.6980683c.61171795.5671804 1.13604762.3926633 1.57298901-.0436293 2.62164835-2.5304973 4.67527289-4.450185 7.29692124-7.3297164.56802382-.6108097 1.17974172-.9598438 1.96623622-.1308878l7.515392 7.6351213c.305859.3054048.6554121.4362926 1.26713-.0872586l.9612711-.7853267c.4806355-.3926634.3932472-.7853268-.1747766-1.3525072l-7.9523333-7.8968969c-.4806355-.4799219-.2621648-.8725853.0873883-1.1343608 1.7477655-1.57065355 5.8987088-5.93357999 8.0834157-8.07141394.5243297-.52355117.3495531-.91621455.0436942-1.2216194z" fill="#e6594c" fill-rule="nonzero" transform="translate(7)"/></g><g transform="translate(534 320)"><text fill="#979797" font-family="SFProText-Regular, SF Pro Text" font-size="16"><tspan x=".183594" y="59">roman</tspan></text><path d="m10.8133536 33c-1.31714723-2.4347826-2.32979265-4.2246377-3.0379363-5.3695652l-1.12594841-1.8043478-.84977238-1.326087c-1.85533637-2.9565217-3.78856854-5.3985507-5.79969651-7.326087 1.14719272-.9710144 2.21648963-1.4565217 3.20789074-1.4565217 1.21800708 0 2.30146687.4565217 3.25037937 1.3695652.94891249.9130435 2.14567526 2.6521739 3.59028829 5.2173913 1.6428933-5.4637681 3.7319171-10.6449275 6.2670713-15.54347823 1.4021245-2.66666667 2.651998-4.46014493 3.7496207-5.38043479 1.0976226-.92028985 2.5528578-1.38043478 4.3657056-1.38043478.9630754 0 2.1527567.15217391 3.569044.45652174-3.6398584 3-6.5503288 6.56521739-8.7314112 10.69565216-2.1810825 4.1304348-4.9994942 11.4130435-8.4552352 21.8478261z" fill="#4ade80" fill-rule="nonzero" transform="translate(10)"/></g><g fill="#262626" fill-rule="nonzero"><g transform="translate(179 68.458291)"><path d="m67.32 7.38170935c2.86-4.84-.88-6.38-3.08-5.5-34.32 33.22000005-64.24 78.54000005-64.24 127.81999965 0 27.5 8.8 55.88 20.02 80.74 2.86 3.74 7.48 2.2 5.72-2.64-12.32-35.42-15.4-70.62-6.16-106.92 9.02-35.6399996 24.2-65.3399996 47.74-93.49999965z"/><path d="m117.881328 83.0617094c0-28.38-9.68-55.88-20.0199999-80.96000005-2.86-4.84-7.04-.22-5.72 2.86 11.8799999 37.18000005 16.0599999 68.86000005 6.38 106.91999965-9.02 35.64-24.2 65.56-48.18 93.28-3.52 2.86-1.98 8.36 3.3 5.72 34.54-33.22 64.2399999-78.54 64.2399999-127.8199996z"/></g><g transform="translate(496.38 67.985601)"><path d="m50.16 198.474399c-6.38-7.48-8.36-10.12-14.3-20.46-14.74-25.74-20.24-45.98-20.24-74.8 0-19.5800003 2.42-34.1000003 8.36-49.7200003 6.16-16.06 16.72-34.76 26.18-45.31999996 2.64-4.18-3.52-10.56-7.92-7.26-25.3 27.49999996-42.24 64.67999996-42.24 102.30000026 0 36.3 16.06 73.48 40.26 100.32 1.32 1.54 2.86 2.64 4.62 1.76 3.3-1.54 6.6-3.96 5.28-6.82z"/><path d="m122.281328 102.774399c0-36.7400003-15.4-73.2600003-40.2599999-100.54000026-1.76-1.76-4.84-2.42-7.48-.22-2.42 1.98-2.42 5.5-.66 7.26 5.28 6.15999996 7.48 9.23999996 12.76 18.69999996 14.7399999 25.96 20.4599999 46.2 20.4599999 74.8000003 0 19.8-2.42 34.32-8.3599999 49.94-6.16 16.06-16.72 34.54-26.4 45.32-3.52 5.5 3.52 10.56 7.92 7.26 25.9599999-27.28 42.0199999-64.9 42.0199999-102.52z"/></g></g></g></svg>