<svg height="507" viewBox="0 0 800 507" width="800" xmlns="http://www.w3.org/2000/svg">
    <g fill="none" fill-rule="evenodd">
        <path d="m700 65v377h-600v-377zm-29.761273 30h-540v317h540z" fill="#e6594c" fill-opacity=".5" opacity=".25"/>
        <path d="m130.5 95.5h539v316h-539z" stroke="#e6594c"/>
        <path d="m101 66h598v375h-598z" stroke="#262626" stroke-width="2"/>
        <g fill="#e6594c" fill-rule="nonzero">
            <path d="m665 96.0166667v-1l4-.0006667v-27.033l-4 .0003333v-1h9v1l-4-.0003333v27.033l4 .0006667v1z"/>
            <path d="m669.983333 100h-1v-9h1l-.000333 3.999h27.033l.000667-3.999h1v9h-1l-.000667-4.001h-27.033z"/>
            <g transform="translate(633.023926 77.208008)">
                <path d="m1.640625 6.14257812c0 .44433594.23925781.70800782.64941406.70800782.41503906 0 .65429688-.25878906.65429688-.70800782v-5.23925781c0-.49316406-.31738282-.8203125-.79101563-.8203125-.2734375 0-.55175781.09765625-.90332031.33691407l-.87402344.61035156c-.24902343.16601562-.37597656.34667968-.37597656.55175781 0 .26855469.20019531.46875.46875.46875.14160156 0 .26367188-.04394531.47363281-.18066406l.66894531-.47363281h.02929688z"/>
                <path d="m4.09667969 3.62304688c0 2.01171874.94238281 3.31054687 2.52441406 3.31054687s2.54882813-1.31347656 2.54882813-3.31054687v-.3125c0-2.01660157-.9375-3.31054688-2.52929688-3.31054688-1.58691406 0-2.54394531 1.30859375-2.54394531 3.31054688zm1.31835937-.30761719c0-1.40625.45898438-2.24121094 1.21582032-2.24121094.75683593 0 1.21582031.83984375 1.21582031 2.24121094v.29785156c0 1.40625-.45898438 2.24609375-1.21582031 2.24609375-.75683594 0-1.21582032-.83984375-1.21582032-2.24609375z"/>
                <path d="m9.91210938 3.62304688c0 2.01171874.94238282 3.31054687 2.52441402 3.31054687 1.5820313 0 2.5488282-1.31347656 2.5488282-3.31054687v-.3125c0-2.01660157-.9375-3.31054688-2.5292969-3.31054688-1.5869141 0-2.54394532 1.30859375-2.54394532 3.31054688zm1.31835942-.30761719c0-1.40625.4589843-2.24121094 1.2158203-2.24121094.7568359 0 1.2158203.83984375 1.2158203 2.24121094v.29785156c0 1.40625-.4589844 2.24609375-1.2158203 2.24609375-.756836 0-1.2158203-.83984375-1.2158203-2.24609375z"/>
                <path d="m17.2900391 7.92480469v-1.92382813h.0634765c.2294922.546875.7617188.859375 1.4697266.859375 1.2158203 0 1.9482422-.86914062 1.9482422-2.30957031v-.71777344c0-1.44042969-.7226563-2.3046875-1.928711-2.3046875-.727539 0-1.2988281.34667969-1.508789.90332031h-.0634766v-.24902343c-.0292969-.40039063-.2539062-.62011719-.6347656-.62011719-.4052734 0-.6298828.25390625-.6298828.71289062v5.64941407c0 .45410156.2294922.70800781.6396484.70800781.4150391 0 .6445313-.25390625.6445313-.70800781zm0-3.35449219v-.68847656c0-.83007813.415039-1.32324219 1.0888671-1.32324219.6884766 0 1.0791016.5078125 1.0791016 1.40136719v.46875c0 .88867187-.390625 1.40136718-1.0693359 1.40136718-.6591797 0-1.0986328-.49804687-1.0986328-1.25976562z"/>
                <path d="m21.5380859 6.25c0 .33691406.2587891.59082031.5712891.59082031.2832031 0 .4589844-.12695312.6738281-.45410156l.9033203-1.38671875h.0634766l.9228516 1.39160156c.2050781.31738282.3955078.44921875.6835937.44921875.3125 0 .5712891-.25390625.5712891-.59570312 0-.17089844-.0634766-.32226563-.2001953-.46386719l-1.2646485-1.57714844 1.2988282-1.61621094c.102539-.11230468.15625-.26367187.15625-.41992187 0-.34179687-.2539063-.59082031-.5761719-.59082031-.2783203 0-.4541016.12695312-.6689453.44921875l-.9228516 1.38671875h-.0634766l-.9277343-1.38671875c-.209961-.32226563-.390625-.44921875-.6689453-.44921875-.3222657 0-.5859376.24902344-.5859376.5859375 0 .16113281.0683594.33203125.1708985.43945312l1.3037109 1.6015625-1.2841797 1.62109375c-.0976562.10742188-.15625.26855469-.15625.42480469z"/>
            </g>
        </g>
    </g>
</svg>