<svg height="66" viewBox="0 0 70 66" width="70" xmlns="http://www.w3.org/2000/svg">
    <path d="m2.66422964 2.77806553c2.7-.8 5.7-.8 8.59999996-.4 3 .4 5.9 1.3 8.7 2.4 5.3 2.1 10.2 5 14.6 8.59999997 9.4 7.8 16.2 18.2 20.4 29.6 1.6 4.4 2.8 8.8 3.8 13.4-.8-1.1-1.8-2.3-2.8-3.5-3.1-3.7-6.5-7.3-10.1-10.6-.7-.6-1.8-.5-2.6-.2-.4.1-1.8.9-1.1 1.5 3.4 3.2 6.7 6.6 9.7 10.2 1.5 1.8 2.9 3.6 4.3 5.4.7.9 1.4 1.8 2 2.8.4.5.7 1 1.1 1.5.2.4.7.8.5 1.2-.1.4.1.6.4.8.4.3 1.3.4 1.6.4.9-.1 1.9-.4 2.3-1.2 3.7-7.2 5.7-15.2 5.8-23.3 0-.3-.5-.5-.7-.6-.5-.1-1-.1-1.5 0-.6.2-1.7.6-1.7 1.4-.1 5.3-1 10.5-2.7 15.5-2.1-11.4-6.1-22.5-12.6-32.1-6.6-9.7-15.9-17.89999997-26.8-22.39999997-7.2-2.9-14.99999996-4.3-22.59999996-2.1-.5.2-1.7.8-1.1 1.5.5.8 1.9.4 2.5.2z"
          fill="#e6594c" transform="matrix(-1 0 0 -1 69.9 65.9)"/>
</svg>