<svg height="592" viewBox="0 0 592 592" width="592" xmlns="http://www.w3.org/2000/svg"><g fill="none" fill-rule="evenodd" stroke-width="3"><path d="m2 254h81v337h-81z" stroke="#404040"/><path d="m510 144h81v165h-81z" stroke="#404040"/><rect height="169" rx="40.5" stroke="#404040" width="81" x="422" y="422"/><circle cx="336" cy="252" fill="#e6594c" fill-opacity=".25" r="82.5" stroke="#e6594c"/><circle cx="168.5" cy="84.5" r="82.5" stroke="#404040"/><g stroke="#e6594c"><path d="m334.5 253.506616v164.993384h-164.993384c.400497-45.382613 18.957536-86.430711 48.760105-116.233279 29.802568-29.802569 70.850666-48.359608 116.233279-48.760105z" fill="#e6594c" fill-opacity=".25"/><rect height="81" rx="40.5" width="165" x="2" y="2"/><rect height="81" rx="40.5" transform="matrix(0 -1 1 0 -378 463)" width="165" x="-40" y="380"/><path d="m469.5 103.5h81v81h-81z" transform="matrix(.70710678 .70710678 -.70710678 .70710678 251.198918 -318.447835)"/><path d="m338 592v-87h165v87"/></g></g></svg>