<svg height="621" viewBox="0 0 592 621" width="592" xmlns="http://www.w3.org/2000/svg"><g fill="none" fill-rule="evenodd"><circle cx="252" cy="84" r="82.5" stroke="#404040" stroke-width="3"/><path d="m251.5 85.5v165h-166v-165z" fill="#e6594c" fill-opacity=".25" stroke="#e6594c" stroke-width="3"/><path d="m501.5 255.5v165h-166v-165z" stroke="#404040" stroke-width="3"/><circle cx="336" cy="420" fill="#e6594c" fill-opacity=".25" r="82.5" stroke="#e6594c" stroke-width="3"/><path d="m3.34164079 621.67082 1.78885438-3.577708-2.68328157-1.341641-1.78885439 3.577709zm3.57770876-7.155417 1.78885438-3.577709-2.68328157-1.341641-1.78885438 3.577709zm3.57770875-7.155418 1.7888544-3.577708-2.68328158-1.341641-1.78885438 3.577709zm3.5777088-7.155417 1.7888544-3.577709-2.6832816-1.341641-1.7888544 3.577709zm3.5777087-7.155418 1.7888544-3.577708-2.6832815-1.341641-1.7888544 3.577708zm3.5777088-7.155417 1.7888544-3.577709-2.6832816-1.341641-1.7888544 3.577709zm3.5777088-7.155418 1.7888544-3.577709-2.6832816-1.34164-1.7888544 3.577708zm3.5777087-7.155417 1.7888544-3.577709-2.6832816-1.341641-1.7888543 3.577709zm3.5777088-7.155418 1.7888544-3.577709-2.6832816-1.34164-1.7888544 3.577708zm3.5777088-7.155417 1.7888543-3.577709-2.6832815-1.341641-1.7888544 3.577709zm3.5777087-7.155418 1.7888544-3.577709-2.6832816-1.34164-1.7888543 3.577708zm3.5777088-7.155417 1.7888544-3.577709-2.6832816-1.341641-1.7888544 3.577709zm3.5777088-7.155418 1.7888543-3.577709-2.6832815-1.34164-1.7888544 3.577708zm3.5777087-7.155417 1.7888544-3.577709-2.6832816-1.341641-1.7888544 3.577709zm3.5777088-7.155418 1.7888544-3.577709-2.6832816-1.341641-1.7888544 3.577709zm3.5777087-7.155418 1.7888544-3.577708-2.6832815-1.341641-1.7888544 3.577709zm3.5777088-7.155417 1.7888544-3.577709-2.6832816-1.341641-1.7888544 3.577709zm3.5777088-7.155418 1.7888544-3.577708-2.6832816-1.341641-1.7888544 3.577709zm3.5777087-7.155417 1.7888544-3.577709-2.6832816-1.341641-1.7888543 3.577709zm3.5777088-7.155418 1.7888544-3.577708-2.6832816-1.341641-1.7888544 3.577709zm3.5777088-7.155417 1.7888543-3.577709-2.6832815-1.341641-1.7888544 3.577709zm3.5777087-7.155418 1.7888544-3.577708-2.6832816-1.341641-1.7888543 3.577709zm3.5777088-7.155417 1.7888544-3.577709-2.6832816-1.341641-1.7888544 3.577709zm3.5777088-7.155418 1.7888543-3.577709-2.6832815-1.34164-1.7888544 3.577708zm3.5777087-7.155417 1.7888544-3.577709-2.6832816-1.341641-1.7888544 3.577709zm3.5777088-7.155418 1.7888544-3.577709-2.6832816-1.34164-1.7888544 3.577708zm3.5777088-7.155417 1.7888543-3.577709-2.6832815-1.341641-1.7888544 3.577709zm3.5777087-7.155418 1.7888546-3.577709-2.6832818-1.34164-1.7888544 3.577708zm3.5777086-7.155417 1.788855-3.577709-2.683282-1.341641-1.788854 3.577709zm3.577709-7.155418 1.788854-3.577709-2.683281-1.34164-1.788855 3.577708zm3.577709-7.155417 1.788854-3.577709-2.683281-1.341641-1.788855 3.577709zm3.577708-7.155418 1.788855-3.577709-2.683282-1.341641-1.788854 3.577709zm3.577709-7.155418 1.788855-3.577708-2.683282-1.341641-1.788854 3.577709zm3.577709-7.155417 1.788854-3.577709-2.683281-1.341641-1.788855 3.577709zm3.577709-7.155418 1.788854-3.577708-2.683281-1.341641-1.788855 3.577709zm3.577709-7.155417.780193-1.560387h-2.683282l1.008661 2.017323 2.683282-1.341641-2.350302-4.700604-2.121834 4.243668zm.894427 4.034644 1.788854 3.577709 2.683282-1.341641-1.788855-3.577708zm3.577708 7.155418 1.788855 3.577709 2.683281-1.341641-1.788854-3.577709zm3.577709 7.155417 1.788855 3.577709 2.683281-1.341641-1.788854-3.577708zm3.577709 7.155418 1.788854 3.577709 2.683282-1.341641-1.788854-3.577709zm3.577709 7.155418 1.788854 3.577708 2.683282-1.341641-1.788855-3.577708zm3.577709 7.155417 1.788854 3.577709 2.683281-1.341641-1.788854-3.577709zm3.577708 7.155418 1.788855 3.577708 2.683281-1.34164-1.788854-3.577709zm3.577709 7.155417 1.788854 3.577709 2.683282-1.341641-1.788854-3.577709zm3.577709 7.155418 1.788854 3.577708 2.683282-1.34164-1.788855-3.577709zm3.577709 7.155417 1.788854 3.577709 2.683282-1.341641-1.788855-3.577709zm3.577708 7.155418 1.788855 3.577708 2.683281-1.34164-1.788854-3.577709zm3.577709 7.155417 1.788855 3.577709 2.683281-1.341641-1.788854-3.577709zm3.577709 7.155418 1.788854 3.577709 2.683282-1.341641-1.788855-3.577709zm3.577709 7.155417 1.788854 3.577709 2.683282-1.341641-1.788855-3.577709zm3.577708 7.155418 1.788855 3.577709 2.683281-1.341641-1.788854-3.577709zm3.577709 7.155417 1.788855 3.577709 2.683281-1.341641-1.788854-3.577708zm3.577709 7.155418 1.788854 3.577709 2.683282-1.341641-1.788854-3.577709zm3.577709 7.155417 1.788854 3.577709 2.683282-1.341641-1.788855-3.577708zm3.577708 7.155418 1.788855 3.577709 2.683281-1.341641-1.788854-3.577709zm3.577709 7.155417 1.788855 3.577709 2.683281-1.341641-1.788854-3.577708zm3.577709 7.155418 1.788854 3.577709 2.683282-1.341641-1.788854-3.577709zm3.577709 7.155417 1.788854 3.577709 2.683282-1.341641-1.788855-3.577708zm3.577709 7.155418 1.788854 3.577709 2.683281-1.341641-1.788854-3.577709zm3.577708 7.155418 1.788855 3.577708 2.683281-1.34164-1.788854-3.577709zm3.577709 7.155417 1.788854 3.577709 2.683282-1.341641-1.788854-3.577709zm3.577709 7.155418 1.788854 3.577708 2.683282-1.34164-1.788855-3.577709zm3.577709 7.155417 1.788854 3.577709 2.683282-1.341641-1.788855-3.577709zm3.577708 7.155418 1.788855 3.577708 2.683281-1.34164-1.788854-3.577709zm3.577709 7.155417 1.788854 3.577709 2.683282-1.341641-1.788854-3.577709zm3.577709 7.155418 1.788854 3.577708 2.683282-1.34164-1.788855-3.577709zm3.577709 7.155417 1.788854 3.577709 2.683282-1.341641-1.788855-3.577709zm3.577708 7.155418 1.788855 3.577709 2.683281-1.341641-1.788854-3.577709zm3.577709 7.155417 1.788855 3.577709 2.683281-1.341641-1.788854-3.577708zm3.577709 7.155418 1.788854 3.577709 2.683282-1.341641-1.788854-3.577709zm3.577709 7.155417 1.560386 3.120773 2.683282-1.34164-1.560387-3.120773z" fill="#404040" fill-rule="nonzero"/><g stroke-width="3"><path d="m170.520546 558.5 331.988304 1" stroke="#e6594c" stroke-linecap="square"/><path d="m170 531v56" stroke="#e6594c" stroke-linecap="square"/><path d="m503 531v56" stroke="#e6594c" stroke-linecap="square"/><path d="m336 369v102" stroke="#e6594c" stroke-linecap="square"/><path d="m387 420h-102" stroke="#e6594c" stroke-linecap="square"/></g></g></svg>