<svg height="592" viewBox="0 0 592 592" width="592" xmlns="http://www.w3.org/2000/svg" xmlns:xlink="http://www.w3.org/1999/xlink"><linearGradient id="a"><stop offset="0" stop-color="#404040" stop-opacity="0"/><stop offset=".518607475" stop-color="#e6594c"/><stop offset="1" stop-color="#404040" stop-opacity="0"/></linearGradient><linearGradient id="b" x1="50%" x2="50%" xlink:href="#a" y1="100%" y2="0%"/><linearGradient id="c" x1="100%" x2="0%" xlink:href="#a" y1="50%" y2="50%"/><g fill="none" fill-rule="evenodd"><g fill-rule="nonzero"><path d="m170 0v592h-3v-592z" fill="url(#b)"/><path d="m255 0v592h-3v-592z" fill="url(#b)"/><path d="m340-1v592h-3v-592z" fill="url(#b)"/><path d="m425-1v592h-3v-592z" fill="url(#b)"/><path d="m510-1v592h-3v-592z" fill="url(#b)"/><path d="m85 0v592h-3v-592z" fill="url(#b)"/><path d="m595 82v3h-596v-3z" fill="url(#c)"/><path d="m595 167v3h-596v-3z" fill="url(#c)"/><path d="m595 252v3h-596v-3z" fill="url(#c)"/><path d="m595 337v3h-596v-3z" fill="url(#c)"/><path d="m595 422v3h-596v-3z" fill="url(#c)"/><path d="m595 507v3h-596v-3z" fill="url(#c)"/></g><path d="m338.5 83.5v85h-170v-85z" fill="#e6594c" fill-opacity=".25" stroke="#e6594c" stroke-width="3"/><path d="m508.5 253.5v85h-170v-85z" fill="#e6594c" fill-opacity=".25" stroke="#e6594c" stroke-width="3"/><path d="m253.5 423.5v85h-170v-85z" fill="#e6594c" fill-opacity=".25" stroke="#e6594c" stroke-width="3"/></g></svg>