<svg height="592" viewBox="0 0 592 592" width="592" xmlns="http://www.w3.org/2000/svg" xmlns:xlink="http://www.w3.org/1999/xlink"><linearGradient id="a"><stop offset="0" stop-color="#404040" stop-opacity="0"/><stop offset=".518607475" stop-color="#e6594c"/><stop offset="1" stop-color="#404040" stop-opacity="0"/></linearGradient><linearGradient id="b" x1="-0%" x2="100%" xlink:href="#a" y1="50%" y2="50%"/><linearGradient id="c" x1="50%" x2="50%" xlink:href="#a" y1="100%" y2="0%"/><g fill="none" fill-rule="evenodd"><circle cx="294" cy="295.5" r="134.5" stroke="#e6594c" stroke-width="3"/><circle cx="294.5" cy="296" r="192.5" stroke="#404040" stroke-width="3"/><path d="m213.474969 395.615905 80.529386-193.615905 79.805796 193.615905" stroke="#e6594c" stroke-width="8"/><path d="m249.983696 322.5h88.032608" stroke="#e6594c" stroke-linecap="square" stroke-width="7"/><path d="m593 192.5v-3h-4v3zm-8 0v-3h-4v3zm-8 0v-3h-4v3zm-8 0v-3h-4v3zm-8 0v-3h-4v3zm-8 0v-3h-4v3zm-8 0v-3h-4v3zm-8 0v-3h-4v3zm-8 0v-3h-4v3zm-8 0v-3h-4v3zm-8 0v-3h-4v3zm-8 0v-3h-4v3zm-8 0v-3h-4v3zm-8 0v-3h-4v3zm-8 0v-3h-4v3zm-8 0v-3h-4v3zm-8 0v-3h-4v3zm-8 0v-3h-4v3zm-8 0v-3h-4v3zm-8 0v-3h-4v3zm-8 0v-3h-4v3zm-8 0v-3h-4v3zm-8 0v-3h-4v3zm-8 0v-3h-4v3zm-8 0v-3h-4v3zm-8 0v-3h-4v3zm-8 0v-3h-4v3zm-8 0v-3h-4v3zm-8 0v-3h-4v3zm-8 0v-3h-4v3zm-8 0v-3h-4v3zm-8 0v-3h-4v3zm-8 0v-3h-4v3zm-8 0v-3h-4v3zm-8 0v-3h-4v3zm-8 0v-3h-4v3zm-8 0v-3h-4v3zm-8 0v-3h-4v3zm-8 0v-3h-4v3zm-8 0v-3h-4v3zm-8 0v-3h-4v3zm-8 0v-3h-4v3zm-8 0v-3h-4v3zm-8 0v-3h-4v3zm-8 0v-3h-4v3zm-8 0v-3h-4v3zm-8 0v-3h-4v3zm-8 0v-3h-4v3zm-8 0v-3h-4v3zm-8 0v-3h-4v3zm-8 0v-3h-4v3zm-8 0v-3h-4v3zm-8 0v-3h-4v3zm-8 0v-3h-4v3zm-8 0v-3h-4v3zm-8 0v-3h-4v3zm-8 0v-3h-4v3zm-8 0v-3h-4v3zm-8 0v-3h-4v3zm-8 0v-3h-4v3zm-8 0v-3h-4v3zm-8 0v-3h-4v3zm-8 0v-3h-4v3zm-8 0v-3h-4v3zm-8 0v-3h-4v3zm-8 0v-3h-4v3zm-8 0v-3h-4v3zm-8 0v-3h-4v3zm-8 0v-3h-4v3zm-8 0v-3h-4v3zm-8 0v-3h-4v3zm-8 0v-3h-4v3zm-8 0v-3h-4v3zm-8 0v-3h-4v3zm-8 0v-3h-4v3z" fill="url(#b)" fill-rule="nonzero"/><path d="m593 401.5v-3h-4v3zm-8 0v-3h-4v3zm-8 0v-3h-4v3zm-8 0v-3h-4v3zm-8 0v-3h-4v3zm-8 0v-3h-4v3zm-8 0v-3h-4v3zm-8 0v-3h-4v3zm-8 0v-3h-4v3zm-8 0v-3h-4v3zm-8 0v-3h-4v3zm-8 0v-3h-4v3zm-8 0v-3h-4v3zm-8 0v-3h-4v3zm-8 0v-3h-4v3zm-8 0v-3h-4v3zm-8 0v-3h-4v3zm-8 0v-3h-4v3zm-8 0v-3h-4v3zm-8 0v-3h-4v3zm-8 0v-3h-4v3zm-8 0v-3h-4v3zm-8 0v-3h-4v3zm-8 0v-3h-4v3zm-8 0v-3h-4v3zm-8 0v-3h-4v3zm-8 0v-3h-4v3zm-8 0v-3h-4v3zm-8 0v-3h-4v3zm-8 0v-3h-4v3zm-8 0v-3h-4v3zm-8 0v-3h-4v3zm-8 0v-3h-4v3zm-8 0v-3h-4v3zm-8 0v-3h-4v3zm-8 0v-3h-4v3zm-8 0v-3h-4v3zm-8 0v-3h-4v3zm-8 0v-3h-4v3zm-8 0v-3h-4v3zm-8 0v-3h-4v3zm-8 0v-3h-4v3zm-8 0v-3h-4v3zm-8 0v-3h-4v3zm-8 0v-3h-4v3zm-8 0v-3h-4v3zm-8 0v-3h-4v3zm-8 0v-3h-4v3zm-8 0v-3h-4v3zm-8 0v-3h-4v3zm-8 0v-3h-4v3zm-8 0v-3h-4v3zm-8 0v-3h-4v3zm-8 0v-3h-4v3zm-8 0v-3h-4v3zm-8 0v-3h-4v3zm-8 0v-3h-4v3zm-8 0v-3h-4v3zm-8 0v-3h-4v3zm-8 0v-3h-4v3zm-8 0v-3h-4v3zm-8 0v-3h-4v3zm-8 0v-3h-4v3zm-8 0v-3h-4v3zm-8 0v-3h-4v3zm-8 0v-3h-4v3zm-8 0v-3h-4v3zm-8 0v-3h-4v3zm-8 0v-3h-4v3zm-8 0v-3h-4v3zm-8 0v-3h-4v3zm-8 0v-3h-4v3zm-8 0v-3h-4v3zm-8 0v-3h-4v3zm-8 0v-3h-4v3z" fill="url(#b)" fill-rule="nonzero"/><path d="m209-.99915398h-3v4h3zm0 8h-3v3.99999998h3zm0 7.99999998h-3v4h3zm0 8h-3v4h3zm0 8h-3v4h3zm0 8h-3v4h3zm0 8h-3v4h3zm0 8h-3v4h3zm0 8h-3v4h3zm0 8h-3v4h3zm0 8h-3v4h3zm0 8h-3v4h3zm0 8h-3v4h3zm0 8h-3v4h3zm0 8h-3v4h3zm0 8h-3v4h3zm0 8h-3v4h3zm0 8h-3v4h3zm0 8h-3v4h3zm0 8h-3v4h3zm0 8h-3v4h3zm0 8h-3v4h3zm0 8h-3v4h3zm0 8h-3v4h3zm0 8h-3v4h3zm0 8h-3v4h3zm0 8h-3v4h3zm0 8h-3v4h3zm0 8h-3v4h3zm0 8h-3v4h3zm0 8h-3v4h3zm0 8h-3v4h3zm0 8h-3v4h3zm0 8h-3v4h3zm0 8h-3v4h3zm0 8h-3v4h3zm0 8h-3v4h3zm0 8h-3v4h3zm0 8h-3v4h3zm0 8h-3v4h3zm0 8h-3v4h3zm0 8h-3v4h3zm0 8h-3v4h3zm0 8h-3v4h3zm0 8h-3v4h3zm0 8h-3v4h3zm0 8h-3v4h3zm0 8h-3v4h3zm0 8h-3v4h3zm0 8h-3v4h3zm0 8h-3v4h3zm0 8h-3v4h3zm0 8h-3v4h3zm0 8h-3v4h3zm0 8h-3v4h3zm0 8h-3v4h3zm0 8h-3v4h3zm0 8h-3v4h3zm0 8h-3v4h3zm0 8h-3v4h3zm0 8h-3v4h3zm0 8h-3v4h3zm0 8h-3v4h3zm0 8h-3v4h3zm0 8h-3v4h3zm0 8h-3v4h3zm0 8h-3v4h3zm0 8h-3v4h3zm0 8h-3v4h3zm0 8h-3v4h3zm0 8h-3v4h3zm0 8h-3v4h3zm0 8h-3v4h3zm0 8h-3v4h3z" fill="url(#c)" fill-rule="nonzero"/><path d="m385-.99915398h-3v4h3zm0 8h-3v3.99999998h3zm0 7.99999998h-3v4h3zm0 8h-3v4h3zm0 8h-3v4h3zm0 8h-3v4h3zm0 8h-3v4h3zm0 8h-3v4h3zm0 8h-3v4h3zm0 8h-3v4h3zm0 8h-3v4h3zm0 8h-3v4h3zm0 8h-3v4h3zm0 8h-3v4h3zm0 8h-3v4h3zm0 8h-3v4h3zm0 8h-3v4h3zm0 8h-3v4h3zm0 8h-3v4h3zm0 8h-3v4h3zm0 8h-3v4h3zm0 8h-3v4h3zm0 8h-3v4h3zm0 8h-3v4h3zm0 8h-3v4h3zm0 8h-3v4h3zm0 8h-3v4h3zm0 8h-3v4h3zm0 8h-3v4h3zm0 8h-3v4h3zm0 8h-3v4h3zm0 8h-3v4h3zm0 8h-3v4h3zm0 8h-3v4h3zm0 8h-3v4h3zm0 8h-3v4h3zm0 8h-3v4h3zm0 8h-3v4h3zm0 8h-3v4h3zm0 8h-3v4h3zm0 8h-3v4h3zm0 8h-3v4h3zm0 8h-3v4h3zm0 8h-3v4h3zm0 8h-3v4h3zm0 8h-3v4h3zm0 8h-3v4h3zm0 8h-3v4h3zm0 8h-3v4h3zm0 8h-3v4h3zm0 8h-3v4h3zm0 8h-3v4h3zm0 8h-3v4h3zm0 8h-3v4h3zm0 8h-3v4h3zm0 8h-3v4h3zm0 8h-3v4h3zm0 8h-3v4h3zm0 8h-3v4h3zm0 8h-3v4h3zm0 8h-3v4h3zm0 8h-3v4h3zm0 8h-3v4h3zm0 8h-3v4h3zm0 8h-3v4h3zm0 8h-3v4h3zm0 8h-3v4h3zm0 8h-3v4h3zm0 8h-3v4h3zm0 8h-3v4h3zm0 8h-3v4h3zm0 8h-3v4h3zm0 8h-3v4h3zm0 8h-3v4h3z" fill="url(#c)" fill-rule="nonzero"/><g stroke="#e6594c" stroke-width="3"><circle cx="184.5" cy="422" fill="#e6594c" fill-opacity=".25" r="22.5"/><circle cx="405.5" cy="422" fill="#e6594c" fill-opacity=".25" r="22.5"/><circle cx="184.5" cy="169" fill="#e6594c" fill-opacity=".25" r="22.5"/><circle cx="405.5" cy="169" fill="#e6594c" fill-opacity=".25" r="22.5"/></g></g></svg>