<svg height="592" viewBox="0 0 592 592" width="592" xmlns="http://www.w3.org/2000/svg" xmlns:xlink="http://www.w3.org/1999/xlink"><linearGradient id="a" x1="100%" x2="0%" y1="50%" y2="50%"><stop offset="0" stop-color="#404040" stop-opacity="0"/><stop offset=".518607475" stop-color="#e6594c"/><stop offset="1" stop-color="#404040" stop-opacity="0"/></linearGradient><g fill="none" fill-rule="evenodd"><g stroke-width="3"><rect height="117" rx="8" stroke="#404040" width="117" x="81.5" y="81.5"/><rect height="117" rx="8" stroke="#404040" width="117" x="81.5" y="-74.5"/><rect height="117" rx="8" stroke="#404040" width="117" x="81.5" y="544.5"/><rect height="117" rx="8" stroke="#404040" width="117" x="81.5" y="388.5"/><rect height="117" rx="8" stroke="#404040" width="117" x="237.5" y="81.5"/><rect height="117" rx="8" stroke="#404040" width="117" x="237.5" y="-74.5"/><rect height="117" rx="8" stroke="#404040" width="117" x="237.5" y="544.5"/><rect height="117" rx="8" stroke="#404040" width="117" x="237.5" y="388.5"/><rect height="117" rx="8" stroke="#404040" width="117" x="393.5" y="81.5"/><rect height="117" rx="8" stroke="#404040" width="117" x="393.5" y="-74.5"/><rect height="117" rx="8" stroke="#404040" width="117" x="393.5" y="544.5"/><rect height="117" rx="8" stroke="#404040" width="117" x="393.5" y="388.5"/><rect fill="#e6594c" fill-opacity=".25" height="117" rx="8" stroke="#e6594c" width="117" x="81.5" y="237.5"/><rect fill="#e6594c" fill-opacity=".25" height="117" rx="8" stroke="#e6594c" width="117" x="237.5" y="237.5"/><rect fill="#e6594c" fill-opacity=".25" height="117" rx="8" stroke="#e6594c" width="117" x="393.5" y="237.5"/></g><path d="m-.95065177 370v3h7v-3zm10.99999997 0v3h7v-3zm11 0v3h7v-3zm11 0v3h7v-3zm11 0v3h7v-3zm11 0v3h7v-3zm11 0v3h7v-3zm11 0v3h7v-3zm11 0v3h7v-3zm11 0v3h6.9999998v-3zm10.9999998 0v3h7v-3zm11 0v3h7v-3zm11 0v3h7v-3zm11 0v3h7v-3zm11 0v3h7v-3zm11 0v3h7v-3zm11 0v3h7v-3zm11 0v3h7v-3zm11 0v3h7v-3zm11 0v3h7v-3zm11 0v3h7v-3zm11 0v3h7v-3zm11 0v3h7v-3zm11 0v3h7v-3zm11 0v3h7v-3zm11 0v3h7v-3zm11 0v3h7v-3zm11 0v3h7v-3zm11 0v3h7v-3zm11 0v3h7v-3zm11 0v3h7v-3zm11 0v3h7v-3zm11 0v3h7v-3zm11 0v3h7v-3zm11 0v3h7v-3zm11 0v3h7v-3zm11 0v3h7v-3zm11 0v3h7v-3zm11 0v3h7v-3zm11 0v3h7v-3zm11 0v3h7v-3zm11 0v3h7v-3zm11 0v3h7v-3zm11 0v3h7v-3zm11 0v3h7v-3zm11 0v3h7v-3zm11 0v3h7v-3zm11 0v3h7v-3zm11 0v3h7v-3zm11 0v3h7v-3zm11 0v3h7v-3zm11 0v3h7v-3zm11 0v3h7v-3zm11 0v3h7v-3z" fill="url(#a)" fill-rule="nonzero"/><path d="m-.95065177 220v3h7v-3zm10.99999997 0v3h7v-3zm11 0v3h7v-3zm11 0v3h7v-3zm11 0v3h7v-3zm11 0v3h7v-3zm11 0v3h7v-3zm11 0v3h7v-3zm11 0v3h7v-3zm11 0v3h6.9999998v-3zm10.9999998 0v3h7v-3zm11 0v3h7v-3zm11 0v3h7v-3zm11 0v3h7v-3zm11 0v3h7v-3zm11 0v3h7v-3zm11 0v3h7v-3zm11 0v3h7v-3zm11 0v3h7v-3zm11 0v3h7v-3zm11 0v3h7v-3zm11 0v3h7v-3zm11 0v3h7v-3zm11 0v3h7v-3zm11 0v3h7v-3zm11 0v3h7v-3zm11 0v3h7v-3zm11 0v3h7v-3zm11 0v3h7v-3zm11 0v3h7v-3zm11 0v3h7v-3zm11 0v3h7v-3zm11 0v3h7v-3zm11 0v3h7v-3zm11 0v3h7v-3zm11 0v3h7v-3zm11 0v3h7v-3zm11 0v3h7v-3zm11 0v3h7v-3zm11 0v3h7v-3zm11 0v3h7v-3zm11 0v3h7v-3zm11 0v3h7v-3zm11 0v3h7v-3zm11 0v3h7v-3zm11 0v3h7v-3zm11 0v3h7v-3zm11 0v3h7v-3zm11 0v3h7v-3zm11 0v3h7v-3zm11 0v3h7v-3zm11 0v3h7v-3zm11 0v3h7v-3zm11 0v3h7v-3z" fill="url(#a)" fill-rule="nonzero"/></g></svg>