<svg height="592" viewBox="0 0 592 592" width="592" xmlns="http://www.w3.org/2000/svg"><g fill="none" fill-rule="evenodd"><g stroke-width="3"><circle cx="189.5" cy="201.5" r="168" stroke="#404040"/><circle cx="317.5" cy="402.5" r="147" stroke="#404040"/><circle cx="244.5" cy="285.5" fill="#e6594c" fill-opacity=".25" r="68" stroke="#e6594c"/><circle cx="361.5" cy="247.5" r="210" stroke="#404040"/></g><path d="m134.316505 114.076499 2.352248 1.256202 16.193072 8.647797 1.32314.706613-1.413227 2.646279-1.323139-.706613-11.142599-5.951777 5.487525 8.601568 273.971026 429.417767.806791 1.264551-2.529102 1.613582-.806791-1.264551-273.971026-429.417768-5.487423-8.601149.701292 12.612907.083219 1.49769-2.995379.166438-.083219-1.49769-1.018463-18.329286z" fill="#e6594c" fill-rule="nonzero"/><path d="m415.893609 213.269187-1.225419 2.368429-8.435891 16.30447-.689298 1.332242-2.664483-1.378597.689298-1.332241 5.804184-11.21849-8.514444 5.589883-249.534343 163.821913-1.253922.823213-1.646426-2.507845 1.253922-.823212 249.534343-163.821913 8.51387-5.590039-12.600755.865201-1.496477.102743-.205486-2.992954 1.496477-.102743 18.314446-1.257406z" fill="#e6594c" fill-rule="nonzero"/><circle cx="245.5" cy="289.5" r="109" stroke="#e6594c" stroke-width="3"/></g></svg>