<svg height="592" viewBox="0 0 592 592" width="592" xmlns="http://www.w3.org/2000/svg"><g fill="none" fill-rule="evenodd"><path d="m326.491044-10.406025c.66811 0 1.335552.0028611 2.002314.0085718l-.002314 457.9754282-2 .016c-125.208476 0-226.9470694-100.486509-228.9693204-225.213066l-.0306795-3.786934c0-126.4732077 102.5267919-229 228.9999999-229z" fill="#404040" fill-opacity=".5" transform="matrix(.7313537 .68199836 -.68199836 .7313537 206.300299 -86.53587)"/><g stroke-width="3"><path d="m337.357923 256.5-74.262168 80h-11.595755c-10.769553 0-20.519553-4.365224-27.577164-11.422836-7.057612-7.057611-11.422836-16.807611-11.422836-27.577164v-2c0-10.769553 4.365224-20.519553 11.422836-27.577164 7.057611-7.057612 16.807611-11.422836 27.577164-11.422836z" fill="#5e5e5e" stroke="#404040"/><path d="m268.739382 146.61407c61.79101.932457 117.60984 26.499875 158.070744 67.316151 40.754177 41.112124 65.92695 97.695076 65.92695 160.15744 0 62.141407-24.914734 118.463676-65.299954 159.522467-40.452319 41.12701-96.42651 66.939987-158.431262 67.94695z" fill="#e6594c" fill-opacity=".25" stroke="#e6594c" transform="matrix(.7313537 .68199836 -.68199836 .7313537 357.145054 -158.481646)"/><rect fill="#5e5e5e" height="33" rx="6" stroke="#404040" width="172" x="78.5" y="92.5"/><rect fill="#56322f" height="36" rx="6" stroke="#e6594c" width="175" x="329" y="465"/><rect fill="#5e5e5e" height="33" rx="6" stroke="#404040" width="218" x="78.5" y="149.5"/><rect fill="#56322f" height="36" rx="6" stroke="#e6594c" width="221" x="283" y="408"/><path d="m351.5 256c22.367532 0 40.5 18.132468 40.5 40.5s-18.132468 40.5-40.5 40.5h-88.212l75.482-81z" fill="#e6594c" fill-opacity=".25" stroke="#e6594c"/></g></g></svg>