<svg height="592" viewBox="0 0 592 592" width="592" xmlns="http://www.w3.org/2000/svg"><g fill="none" fill-rule="evenodd" stroke-width="3"><path d="m326.491044-8.90602499c.167478 0 .334913.00018094.502306.00054265l-.002298 454.99540934-.505998.004048c-62.139036-.001601-118.459005-24.916032-159.516477-65.299954-41.127031-40.452339-66.940013-96.426567-67.946952-158.431357l-.0305808-3.774755c.0016391-62.819986 25.4651298-119.6926494 66.6332068-160.8607267 41.169403-41.1694024 98.044403-66.63320729 160.866793-66.63320729z" fill="#262626" fill-opacity=".5" stroke="#404040" transform="matrix(.7313537 .68199836 -.68199836 .7313537 206.300299 -86.53587)"/><path d="m337.357923 256.5-74.262168 80h-11.595755c-10.769553 0-20.519553-4.365224-27.577164-11.422836-7.057612-7.057611-11.422836-16.807611-11.422836-27.577164v-2c0-10.769553 4.365224-20.519553 11.422836-27.577164 7.057611-7.057612 16.807611-11.422836 27.577164-11.422836z" fill="#2c2c2c" stroke="#404040"/><path d="m268.739382 146.61407c61.79101.932457 117.60984 26.499875 158.070744 67.316151 40.754177 41.112124 65.92695 97.695076 65.92695 160.15744 0 62.141407-24.914734 118.463676-65.299954 159.522467-40.452319 41.12701-96.42651 66.939987-158.431262 67.94695z" fill="#e6594c" fill-opacity=".25" stroke="#e6594c" transform="matrix(.7313537 .68199836 -.68199836 .7313537 357.145054 -158.481646)"/><rect fill="#2c2c2c" height="33" rx="6" stroke="#404040" width="172" x="78.5" y="92.5"/><rect fill="#411d1a" height="36" rx="6" stroke="#e6594c" width="175" x="329" y="465"/><rect fill="#2c2c2c" height="33" rx="6" stroke="#404040" width="218" x="78.5" y="149.5"/><g stroke="#e6594c"><rect fill="#411d1a" height="36" rx="6" width="221" x="283" y="408"/><path d="m351.5 256c22.367532 0 40.5 18.132468 40.5 40.5s-18.132468 40.5-40.5 40.5h-88.212l75.482-81z" fill="#e6594c" fill-opacity=".25"/></g></g></svg>