<svg height="592" viewBox="0 0 592 592" width="592" xmlns="http://www.w3.org/2000/svg"><g fill="none" fill-rule="evenodd"><path d="m182.775152 168c25.982444 0 47.049291-18.217001 47.049291-42.739887 0-21.720271-16.151249-39.9372723-40.027009-39.9372723-3.511141 0-7.022282 1.4013078-11.235651 2.1019617-1.404457 0-4.21337 1.4013078-4.21337-2.1019617 0-16.8156934 14.746793-38.5359641 47.751519-56.0523114 11.93788-6.305885 7.724511-19.61830899 4.21337-24.52288624-7.022282-7.70719282-16.853478-4.20392336-22.471303-2.10196168-47.75152 18.91765512-80.756246 58.85492692-80.756246 102.29546862 0 34.33204 24.577988 63.05885 59.689399 63.05885zm-123.0857529 0c25.280216 0 47.0492909-18.217001 47.0492909-42.739887 0-21.720271-16.8534773-39.9372723-40.0270087-39.9372723-4.2133693 0-7.0222822.7006539-11.2356516 1.4013078-2.1066847 0-4.2133693.7006539-4.2133693-1.4013078 0-16.8156934 14.7467927-37.8353102 47.7515192-56.0523114 14.7467924-8.4078467 3.5111414-35.73334852-18.2579338-26.62484792-47.7515193 18.91765512-80.7562458 58.85492692-80.7562458 102.29546862 0 34.33204 23.8757596 63.05885 59.6893991 63.05885z" fill="#e6594c" transform="translate(264 219)"/><path d="m336.316097 25.5246242c.490973-6.381156 1.472917-16.19831919-.490972-20.61604262-1.472917-2.94514895-3.436807-3.4360071-10.801393-4.90858158-79.046557.49085816-234.1938372.49085816-310.7855323 0-11.29236527 0-13.25625489 4.90858158-13.74722729 8.34458869 0 3.92686531 0 9.81716321-.49097241 13.74402841 0 6.8720142 7.36458607 8.3445887 12.7652825 8.3445887 89.8479505.4908582 234.6848095.9817163 311.7674765 0 5.891669 0 9.819449-1.9634326 11.783338-4.9085816z" fill="#404040" fill-rule="nonzero" transform="matrix(0 -1 1 0 102 539)"/><path d="m41.3746224 82c23.0694864 0 41.6253776-18.4184615 41.6253776-40.8738462 0-22.7076923-18.5558912-41.1261538-41.6253776-41.1261538s-41.3746224 18.4184615-41.3746224 41.1261538c0 22.4553847 18.305136 40.8738462 41.3746224 40.8738462zm0-63.8338462c12.7885196 0 23.3202416 10.0923077 23.3202416 22.96 0 12.6153847-10.531722 22.7076924-23.3202416 22.7076924-12.5377644 0-23.0694864-10.0923077-23.0694864-22.7076924 0-12.8676923 10.531722-22.96 23.0694864-22.96z" fill="#e6594c" fill-rule="nonzero" transform="translate(47 244)"/><path d="m157.972222 18c3.666667 0 6.416667-.9152542 7.027778-4.2711864v-8.23728818c0-2.74576271-2.138889-5.49152542-6.111111-5.49152542-39.111111.30508475-115.5000001.30508475-153.08333344 0-4.27777778.61016949-5.19444445 3.05084746-5.5 5.79661017-.61111112 2.13559322 0 4.57627123-.30555556 6.71186443 0 2.4406779 2.13888889 5.4915254 5.5 5.4915254 38.1944444-.3050847 114.277778-.3050847 152.472222 0z" fill="#e6594c" fill-rule="nonzero" transform="translate(377 527)"/><path d="m67.7922714 2.15439413c2.7170045-1.03666595 5.37844-.77178166 7.620729.35438 2.4811343 1.24611872 4.4508937 3.5266111 5.4246071 6.25783508.8600792 2.41248519.9382911 5.18124429-.1026887 7.91749969-.9328363 2.4519962-2.7547395 4.8628306-5.6560893 7.0000297-12.2333194 6.9746341-21.274803 14.622068-27.3968036 22.2881161-6.8666138 8.5984622-10.07883 17.2433689-10.07883 25.0520744 0 .8727965.3601857 1.5042369.952206 1.9598212.4415823.3398161 1.0744418.5805552 1.8625169.6595022 1.3546072.1357005 3.2965914-.2116396 4.8001566-.5881963 1.4675263-.4859924 2.8547905-.5285335 4.569774-.5312379l.8162865.0001108c8.556758 0 15.8096466 3.4005746 20.9829314 8.8709312 5.4309555 5.7428238 8.5696065 13.7490348 8.5696065 22.4647747 0 9.566802-3.7829905 17.917269-9.9531262 23.902104-6.2878441 6.099008-15.0440968 9.737861-24.7748347 9.737861-12.841981 0-23.4854181-5.694933-31.0675542-14.63654-8.22585696-9.700747-12.8611587-23.1983837-12.8611587-37.4375057 0-18.1387585 6.61043534-35.1700641 17.9736474-49.4721948 11.7219448-14.7536439 28.4961748-26.60460414 48.318624-33.79936537z" fill="#2c2c2c" stroke="#404040" stroke-width="3" transform="matrix(-1 0 0 -1 548 176)"/><g fill-rule="nonzero"><path d="m14.2005731 27.1211057c.9627507-.2400098 2.6475644-1.2000489 2.6475644 0-.4813753 9.8404011-7.94269337 15.1206164-13.47850999 18.4807534l-.96275072.7200294c-1.68481375.7200293-1.68481375 2.6401076-1.44412607 4.8001956.72206303 2.6401077 2.88825215 4.8001957 5.77650429 3.8401566 15.16332379-6.0002446 25.51289399-19.2007828 25.51289399-33.8413796 0-11.0404501-6.739255-21.1208611-17.5702006-21.1208611-7.94269339 0-14.6819484 6.2402544-14.6819484 14.1605773 0 6.9602838 5.05444126 12.9605284 12.2750716 12.9605284zm51.747851.7200293c.9627507-.2400098 2.6475644-.9600391 2.6475644 0-.4813753 10.080411-8.1833811 15.3606263-13.47851 18.4807535l-.9627507.7200293c-1.6848138.9600391-1.6848138 2.6401076-1.4441261 4.8001957.7220631 2.6401076 2.8882522 5.0402055 5.7765043 3.8401566 15.1633238-6.0002447 25.512894-19.2007828 25.512894-33.6013699 0-11.0404501-6.739255-21.36087085-17.5702006-21.36087085-7.9426934 0-14.6819484 6.24025441-14.6819484 14.16057735 0 7.2002935 5.0544413 12.9605283 12.2750716 12.9605283z" fill="#404040" transform="translate(425 485)"/><path d="m57.9337748 0-38.1933774 85h-19.7403974l26.1774834-85zm50.0662252 0-38.1933775 85h-19.7403973l26.1774834-85z" fill="#404040" transform="translate(216 57)"/><path d="m150.56615 23c7.771156 0 12.43385-4.4830508 12.43385-10.9152542 0-6.43220343-4.856973-12.0847458-12.628129-12.0847458-7.576877 0-12.239571 4.87288136-12.239571 11.5 0 6.4322034 4.856973 11.5 12.43385 11.5zm-68.3861738 0c7.5768772 0 12.6281287-4.2881356 12.6281287-10.720339 0-6.43220337-5.0512515-12.08474575-12.8224076-12.08474575-7.7711562 0-12.6281288 5.26271187-12.6281288 12.08474575 0 6.4322034 5.0512515 10.720339 12.8224077 10.720339zm-69.1632897 0c7.5768773 0 12.4338499-4.6779661 12.4338499-10.9152542 0-6.43220343-4.6626937-12.0847458-12.4338499-12.0847458-7.5768772 0-13.0166865 4.87288136-13.0166865 11.5 0 6.6271186 5.24553039 11.5 13.0166865 11.5z" fill="#e6594c" transform="translate(102 86)"/><path d="m53.9792032 19.2c5.3787106 0 9.9890341-4.3722772 9.9890341-9.6950495 0-5.32277228-4.6103235-9.5049505-9.9890341-9.5049505-4.994517 0-9.989034 3.61188119-10.1811308 8.93465347 0 5.70297033 4.6103234 10.26534653 10.1811308 10.26534653zm48.2162988 36.8792079c3.841936 0 6.147098-.950495 5.762904-5.7029703-.768387-10.2653465.960484-10.0752475-5.186613-10.0752475h-96.24050151c-3.45774255 0-6.53129149.570297-6.53129149 5.3227723v6.4633663c0 3.8019802 4.4182266 3.9920792 6.7233883 3.9920792zm-48.2162988 39.9207921c5.7629043 0 9.9890341-4.5623762 9.9890341-9.6950495 0-5.5128713-4.4182266-9.6950495-9.9890341-9.6950495-5.3787106 0-10.1811308 3.9920792-10.1811308 9.6950495 0 5.3227723 4.8024202 9.6950495 10.1811308 9.6950495z" fill="#e6594c" transform="translate(390 93)"/></g><path d="m16.9721298 1.50080337c1.5428532.02322863 3.1892555.57321707 4.7193578 2.09642541.0111134.01106334.0221755.02213305.0348189.03356195l.6145795.57432045c9.2796995 8.68293592 21.284913 20.41201332 33.3484837 32.53167062l1.6085878 1.6180357c.8042326.809942 1.6081978 1.6210954 2.4111052 2.4326732l1.8191813 1.8413929c6.354982 6.4415859 12.605935 12.8726689 18.3582279 18.9004326.0087773.0091977.0175555.0183965.026569.0271449l.2167551.2124914c1.7074328 1.647097 2.8497746 2.0981982 4.0899205 1.9298493 1.1557192-.156888 2.546864-1.0706868 4.9056017-3.0274454.0165561-.0137346.0330529-.0274318.0500242-.0433985l.6870245-.625073c14.7878471-13.4951646 37.8923861-37.1570285 52.4162451-53.54310369 1.456401-1.60275582 4.504948-3.16159856 7.429778-3.85786316 2.114501-.50336346 4.287287-.68188763 5.496096.40113036.918306.81794043 1.948583 1.6572715 3.00997 2.52121085.674166.54875234 1.361114 1.10782085 2.034391 1.67475632l.425423.36098952.625219.54244889c2.501716 2.20437631 4.800287 4.55527951 5.157012 7.24497811.260274 1.96246-.662949 4.0190199-3.096755 6.274768-.005199.0048188-.010397.0096308-.01624.0152779l-.503625.481704c-5.928999 5.6802283-13.711657 13.4559169-21.830346 21.5675901l-1.800574 1.7989202-1.34956 1.3479705-1.351767 1.3496034-1.35306 1.3500782c-12.144929 12.1137749-24.229155 24.0420615-31.274474 30.0028642-1.283761 1.0311102-1.715416 1.8710045-1.789407 2.6075753-.081377.8101043.213732 1.7053474 1.379412 2.863598l58.239085 56.6738381c3.221836 3.003925 4.498679 5.446134 4.227493 7.636494-.3416 2.75909-2.893097 4.916008-5.68664 7.047031l-.561353.42603-.43064.323949-.656759.489246-.88477.655657c-.596849.442604-1.19214.886602-1.778494 1.337661-2.475891 1.917017-4.611011 2.855736-6.567151 2.901023-2.042695.047291-3.824232-.91194-5.544696-2.475905l-54.9500994-54.702518c-2.3925211-2.189736-4.2228903-2.917626-5.9267506-2.742158-1.7358335.17876-3.4812952 1.381578-5.6999174 3.790646-17.7131711 18.828024-31.8407424 32.162989-48.9769319 48.338875-1.5054485 1.421084-3.0340884 2.864059-4.5982171 4.342021-2.6178529 2.509537-4.9534625 3.49836-7.1635083 3.374762-2.9245151-.163554-5.5246455-2.135174-8.09218011-4.383164l-.38771834-.342284c-.45080166-.401105-.90031417-.811366-1.34818998-1.223496l-.58530611-.53996-.78265862-.722293c-.13138434-.120895-.26282974-.241559-.39667782-.363966l-.39717585-.361689-.39753636-.358343c-1.4010186-1.237119-2.62331211-3.442374-2.62331211-5.865536 0-1.85601.75011073-3.823574 2.6535543-5.60004 6.2821324-5.924679 17.3235387-16.670139 28.5699695-27.702984l1.3494054-1.324187 1.3499343-1.325507 1.3480855-1.324468c9.6378213-9.471702 19.0239351-18.7540867 25.2769166-24.9773649 1.526603-1.3171905 2.0339129-2.3734939 2.0991518-3.2827238.0761675-1.061541-.4323099-2.1285316-1.7455756-3.4358713l-56.26633385-55.6871664c-3.4227497-3.2989637-4.75188024-5.97754-4.51738924-8.4178998.32042488-3.3346781 3.29538394-6.03586423 6.37948155-8.964153l.41433584-.3930802.62565695-.59426342c.42220163-.4020709.84543549-.8081941 1.26941295-1.22373433 1.5017807-1.04735663 3.9072096-2.55058464 6.6655238-2.50905648z" fill="#411d1a" stroke="#e6594c" stroke-width="3" transform="translate(179 321)"/></g></svg>