<svg height="440" viewBox="0 0 800 440" width="800" xmlns="http://www.w3.org/2000/svg"><g fill="none" fill-rule="evenodd"><text fill="#e6594c" font-family="SFProText-Regular, SF Pro Text" font-size="16"><tspan x="446.273438" y="325">Swash flourish on</tspan></text><path d="m194.784 1.92c0 2.304-.704 3.456-2.112 3.456-8 .896-13.616 2.368-16.848 4.416s-5.424 6.016-6.576 11.904l-12.48 90.336c-.32 2.56-.48 4.448-.48 5.664 0 3.264 1.296 5.648 3.888 7.152s7.216 2.64 13.872 3.408c.768.064 1.152.608 1.152 1.632 0 .896-.24 1.728-.72 2.496s-1.008 1.152-1.584 1.152c-4.288 0-9.408-.192-15.36-.576-5.696-.384-10.496-.576-14.4-.576s-8.736.192-14.496.576c-6.016.384-11.168.576-15.456.576-.768 0-1.152-.576-1.152-1.728 0-.832.24-1.616.72-2.352s1.008-1.136 1.584-1.2c8-.96 13.488-2.48 16.464-4.56s4.848-5.968 5.616-11.664l13.44-92.064-64.032 115.104c-.64 1.024-1.664 1.536-3.072 1.536-1.536 0-2.304-.512-2.304-1.536l-15.552-111.456-27.84 88.416c-.96 2.752-1.44 4.96-1.44 6.624 0 2.752 1.376 4.848 4.128 6.288s7.424 2.544 14.016 3.312c.64.128.96.672.96 1.632 0 .896-.24 1.728-.72 2.496s-1.008 1.152-1.584 1.152c-3.328 0-7.744-.192-13.248-.576-5.312-.384-9.472-.576-12.48-.576-3.2 0-7.616.192-13.248.576-5.44.384-9.6.576-12.48.576-.64 0-.96-.576-.96-1.728 0-2.24.768-3.456 2.304-3.648 8-.896 13.744-2.368 17.232-4.416s6.192-5.952 8.112-11.712l31.488-90.336c.768-2.56 1.152-4.64 1.152-6.24 0-3.008-1.424-5.264-4.272-6.768s-7.632-2.608-14.352-3.312c-.64 0-.96-.512-.96-1.536 0-.96.224-1.84.672-2.64s.992-1.2 1.632-1.2c1.536 0 4.48.192 8.832.576 4.8.384 8.128.576 9.984.576 2.176 0 5.344-.192 9.504-.576 4.224-.384 7.52-.576 9.888-.576l13.92 104.544 58.944-104.544c2.56 0 5.92.192 10.08.576 3.776.384 6.752.576 8.928.576 2.56 0 5.888-.192 9.984-.576 4.288-.384 7.872-.576 10.752-.576.64 0 .96.64.96 1.92z" fill="#262626" fill-rule="nonzero" transform="translate(132 131)"/><path d="m310.848 17.28c0 3.648-.816 6.288-2.448 7.92s-4.08 2.448-7.344 2.448c-3.328 0-6.528-3.2-9.6-9.6s-7.36-9.6-12.864-9.6c-8 0-14.016 4.032-18.048 12.096-4.544 9.024-8.576 26.496-12.096 52.416l-8.064 57.984c-.32 2.176-.48 3.536-.48 4.08v1.392c0 3.2 1.184 5.584 3.552 7.152s7.168 2.736 14.4 3.504c.64.192.96.768.96 1.728s-.208 1.808-.624 2.544-.976 1.104-1.68 1.104c-4.288 0-9.344-.16-15.168-.48s-10.624-.48-14.4-.48c-3.904 0-8.832.16-14.784.48s-11.072.48-15.36.48c-.64 0-.96-.576-.96-1.728 0-.832.208-1.616.624-2.352s.976-1.168 1.68-1.296c8.256-.96 13.808-2.512 16.656-4.656s4.656-5.968 5.424-11.472l6.72-47.232c1.408-9.408 2.304-15.424 2.688-18.048.896-5.888 1.68-10.512 2.352-13.872s1.488-6.608 2.448-9.744c-2.304 3.008-5.488 7.552-9.552 13.632s-8.048 12.192-11.952 18.336c-4.096 6.464-7.616 12.128-10.56 16.992l-37.632 62.976c-.64 1.024-1.664 1.536-3.072 1.536-1.28 0-2.048-.512-2.304-1.536l-9.792-101.184c-4.032 16.448-10.976 32.576-20.832 48.384-10.624 16.96-22.656 30.464-36.096 40.512-15.104 11.264-30.496 16.896-46.176 16.896-13.376 0-24.416-3.744-33.12-11.232-8.896-7.68-13.344-17.632-13.344-29.856 0-9.024 3.6-17.264 10.8-24.72s15.12-11.184 23.76-11.184c7.936 0 14.624 2.528 20.064 7.584s8.16 11.232 8.16 18.528c0 5.696-1.408 10.88-4.224 15.552-3.392 5.632-7.872 8.448-13.44 8.448-2.816 0-5.024-.976-6.624-2.928s-2.4-4.176-2.4-6.672c0-3.776 2.08-7.648 6.24-11.616s6.24-7.264 6.24-9.888c0-3.392-1.424-6.384-4.272-8.976s-6.096-3.888-9.744-3.888c-5.568 0-10.464 2.56-14.688 7.68-4.544 5.504-6.816 12.288-6.816 20.352 0 8.576 3.328 15.808 9.984 21.696s14.464 8.832 23.424 8.832c17.024 0 33.504-6.496 49.44-19.488 14.4-11.712 26.176-26.736 35.328-45.072s13.728-35.6 13.728-51.792c-3.712 0-7.872-.448-12.48-1.344-10.56-2.048-17.344-3.072-20.352-3.072-10.112 0-17.952 1.408-23.52 4.224s-8.352 7.104-8.352 12.864c0 2.368 1.248 4.352 3.744 5.952 5.44 3.456 8.16 6.528 8.16 9.216 0 3.008-.896 5.424-2.688 7.248s-4.48 2.736-8.064 2.736c-3.84 0-7.104-1.6-9.792-4.8s-4.032-7.36-4.032-12.48c0-9.152 3.936-17.056 11.808-23.712 8.512-7.232 19.424-10.848 32.736-10.848 4.544 0 10.4.64 17.568 1.92s12.64 1.92 16.416 1.92c2.112 0 4.128-.096 6.048-.288 5.824-.576 9.12-.864 9.888-.864 1.024 0 1.792.288 2.304.864s.768 1.568.768 2.976l9.024 100.992 25.536-41.28c12.352-20.352 22.72-35.968 31.104-46.848 9.536-12.352 18.528-21.28 26.976-26.784 8.704-5.696 18.016-8.544 27.936-8.544 6.08 0 11.792 1.808 17.136 5.424s8.016 7.568 8.016 11.856z" fill="#262626" fill-rule="nonzero" transform="translate(358 112)"/><g fill="#e6594c"><text font-family="SFProText-Regular, SF Pro Text" font-size="16"><tspan x="161.152344" y="325">Swash flourish off</tspan></text><path d="m404.834697 251.886543-.053573.998564c.43669.023164.876413.034893 1.318876.034893.211862 0 .423096-.002689.63367-.008035l-.025459-.999676c-.202403.005138-.40515.007711-.608211.007711-.423243 0-.845103-.011179-1.265303-.033457zm5.900204.595652-.188552-.982063c-.626577.119959-1.259315.214518-1.897105.283284l.107615.994193c.667754-.072008 1.327468-.170846 1.978042-.295414zm-9.701336-1.109508-.214382.97675c.647332.142207 1.304257.258817 1.969659.348714l.13445-.990921c-.635828-.085886-1.266117-.197542-1.889727-.334543zm13.601487.019662-.348609-.937268c-.5988.222557-1.207024.420613-1.823412.593567l.270358.96276c.645047-.181002 1.279328-.387748 1.901663-.619059zm-17.284466-1.154839-.372182.928159c.615932.247233 1.244234.470173 1.883718.667634l.29568-.955288c-.611504-.188802-1.214335-.402515-1.807216-.640505zm20.93716-.559284-.49791-.867229c-.554494.318598-1.12185.614444-1.700734.886701l.425882.904779c.604857-.284483 1.196187-.592976 1.772762-.924251zm-24.362783-1.153812-.518969.854794c.568713.345181 1.152594.667868 1.750407.966825l.447226-.89442c-.572022-.286062-1.132023-.595417-1.678664-.927199zm27.67608-1.130639-.632494-.774566c-.49524.405108-1.006731.789926-1.533159 1.153395l.568061.822986c.54919-.379179 1.082139-.780203 1.597592-1.201815zm-30.808484-1.142549-.650975.759099c.505087.43398 1.028059.847729 1.567659 1.239991l.587646-.809119c-.517303-.376067-1.01918-.773088-1.50433-1.189971zm33.651924-1.591041-.748264-.663401c-.42429.478924-.8679.940487-1.329633 1.383456l.691933.721962c.481216-.461641.943625-.942735 1.385964-1.442017zm-36.355534-1.144522-.766404.642359c.429069.511393.878642 1.005003 1.347454 1.479563l.711268-.702921c-.449799-.455321-.880962-.928741-1.292318-1.419001zm38.781591-2.095889-.847128-.531389c-.340021.54213-.702073 1.070221-1.085154 1.582942l.800998.598666c.398756-.533693.776268-1.084184 1.131284-1.650219zm-40.987705-1.012471-.859193.511652c.341186.574086.70516 1.133043 1.090675 1.675625l.814991-.579473c-.370534-.521513-.719682-1.057892-1.046473-1.607804zm42.838351-2.561538-.922931-.384964c-.246281.59037-.516624 1.170131-.810258 1.73796l.888173.45951c.305396-.590563.587475-1.195138.845016-1.812506zm-44.532059-.912652-.931972.362532c.242614.623958.510056 1.235517.801112 1.833462l.898847-.438262c-.279826-.574915-.536067-1.161265-.767987-1.757732zm45.76287-2.891479-.97363-.228135c-.146459.623754-.3183 1.240172-.514981 1.848025l.951226.308493c.204496-.631944.384012-1.275126.537385-1.928383zm-46.861861-.822939-.979108.203341c.136207.656594.298692 1.303565.486305 1.939764l.959143-.282924c-.180601-.612424-.336218-1.232886-.46634-1.860181zm47.454653-3.140781-.99775-.067045c-.04281.64081-.111476 1.277274-.205648 1.908324l.989021.147769c.097738-.654907.169555-1.318282.214377-1.989048zm-47.926526-.722466-.999222.03944c.026299.672072.079671 1.337191.159054 1.994298l.992665-.120898c-.07645-.633048-.12739-1.271006-.152497-1.91284zm47.98013-1.21902c-.007631-.672797-.04238-1.33908-.103207-1.997806l-.995773.091839c.058624.634851.091736 1.274121.099038 1.91681zm-48.820056-2.687615c-.079399.65678-.132811 1.321565-.159178 1.993298l.999225.039359c.025184-.641678.076189-1.279479.152692-1.912371zm48.441635-1.35094c-.117605-.660735-.261694-1.312305-.431132-1.953575l-.966707.255887c.163065.617198.30099 1.241875.4133 1.872854zm-47.636728-2.571714c-.186299.636561-.347453 1.283859-.482316 1.940747l.979508.201404c.128803-.627412.283096-1.248034.462373-1.860663zm46.599791-1.337239c-.224879-.630591-.474864-1.249262-.748752-1.85481l-.911108.412167c.263442.582457.503003 1.17576.717985 1.778607zm-45.147112-2.432002c-.289862.598681-.556076 1.210945-.797428 1.835579l.932936.360043c.230647-.5969.485631-1.183726.764218-1.759165zm43.483734-1.239288c-.325312-.584185-.673829-1.153676-1.044305-1.707228l-.830835.556519c.355823.531677.689834 1.077644 1.0011 1.636564zm-41.461825-2.192376c-.38351.544336-.745406 1.104995-1.084439 1.68073l.861555.507664c.324709-.551425.671849-1.089391 1.040452-1.612562zm39.225035-1.147108c-.41549-.522226-.851856-1.0271-1.307837-1.51336l-.730049.683395c.437837.466878.85656.951356 1.255023 1.452159zm-36.633572-1.954747c-.468072.474945-.916901.968907-1.345221 1.480621l.76679.641898c.410782-.490764.841394-.964709 1.290665-1.420577zm33.924946-.937839c-.492844-.44799-1.004025-.876164-1.532283-1.283263l-.610577.791957c.506641.390433.997286.801364 1.470652 1.231669zm-30.935672-1.644307c-.538538.394427-1.060369.810318-1.564232 1.246412l.654476.756083c.483818-.418743.984443-.817672 1.500576-1.195691zm27.736817-.81636c-.558958-.361042-1.133554-.699948-1.722548-1.015479l-.472217.881482c.563867.30207 1.115124.627093 1.652432.974161zm-24.307127-1.286625c-.596493.301316-1.17899.626306-1.746255.973733l.522236.852802c.545358-.334012 1.104161-.64565 1.675072-.934038zm20.791783-.59707c-.609171-.264861-1.231207-.505685-1.864912-.721274l-.322644.94652c.606001.206148 1.202752.437 1.788961.691881zm-17.053825-.917164c-.639511.199157-1.267781.423813-1.88362.672777l.37459.927191c.592446-.239514 1.194898-.454762 1.806076-.645105zm13.238572-.377826c-.643229-.160324-1.296515-.295227-1.958731-.403579l-.161429.986884c.63255.1035 1.259058.232659 1.87836.387021zm-9.287976-.50001c-.665068.090745-1.321642.208181-1.968607.351191l.216094.976373c.623064-.13772 1.252824-.25013 1.888139-.336804zm3.343187-.226198c-.431638 0-.860669.011162-1.28682.033214l.052027.998645.616313-.023885.61848-.007974c.642738 0 1.282242.025779 1.917527.077052l.079895-.996803c-.658791-.053155-1.324943-.080249-1.997422-.080249z" fill-rule="nonzero"/><path d="m663.167334 149.798016-.1509-.988549c-.619161.094699-1.245785.15439-1.877862.178417l.03759.999294c.674191-.025614 1.338614-.089366 1.991172-.189162zm-5.825076-1.099663-.189966.981791c.64842.125612 1.30961.215428 1.981431.267308l.076862-.997041c-.629829-.048643-1.253302-.132906-1.868327-.252058zm9.727036.026827-.37555-.926802c-.582015.235881-1.177707.438348-1.78464.606213l.26634.963879c.647106-.178966 1.279163-.39417 1.89385-.64329zm-13.332764-1.17034-.410667.911786c.605439.272458 1.229169.511492 1.86884.714751l.302385-.953186c-.599949-.190656-1.18763-.415536-1.760558-.673351zm16.865547-.763305-.578274-.815843c-.513482.363599-1.047287.697626-1.598834 1.000256l.480871.876791c.586683-.3219 1.15291-.67645 1.696237-1.061204zm-20.102504-1.166293-.606459.795114c.529138.403804 1.081983.778123 1.656084 1.120506l.512277-.85882c-.540255-.322195-1.061744-.675101-1.561902-1.0568zm23.055578-1.471097-.745538-.666463c-.419259.469353-.864956.91459-1.334741 1.333362l.665279.746595c.498036-.443946.970529-.915937 1.415-1.413494zm-25.802542-1.177-.772108.635492c.423912.515129.876692 1.005607 1.355866 1.46896l.69547-.718556c-.452311-.437353-.879478-.900123-1.279228-1.385896zm28.129539-2.125127-.878603-.477555c-.300645.552502-.632739 1.087368-.994468 1.602019l.817905.575353c.382801-.544606.735338-1.112026 1.055166-1.699817zm-30.159257-1.002573-.894828.446411c.298381.598674.630056 1.177844.992601 1.735085l.838404-.54505c-.342988-.527156-.655618-1.073499-.936177-1.636446zm31.654913-2.707885-.96451-.264044c-.166696.607436-.36803 1.203681-.60282 1.786297l.927719.373278c.247934-.615287.461912-1.247905.639611-1.895531zm-32.94393-.865399-.973792.227443c.153147.654352.343012 1.294575.567303 1.918375l.941009-.338384c-.212393-.590712-.390928-1.193983-.53452-1.807434zm33.553035-3.092968-.999306-.037253c-.024305.632022-.084268 1.258581-.179235 1.877668l.988572.150748c.100066-.652546.164088-1.316966.189969-1.991163zm-33.986837-.732462-1.000072-.003731v.053c0 .669305.037574 1.329834.110727 1.979593l.993704-.112041c-.051172-.454559-.083642-.912594-.09718-1.373353zm33.947148-1.320018c-.052023-.672171-.142022-1.333696-.267854-1.982431l-.981784.189998c.119336.615163.203766 1.238785.252555 1.868772zm-34.483861-2.648294c-.151202.643646-.266871 1.300988-.344825 1.969843l.993317.115421c.073081-.626934.181703-1.246578.325051-1.856758zm33.70785-1.319608c-.20454-.639429-.444848-1.262863-.718571-1.86795l-.910695.413081c.258926.572471.484941 1.159752.676749 1.759355zm-32.341151-2.462668c-.296496.59451-.560155 1.208266-.788602 1.838891l.940321.34029c.214348-.59167.462453-1.169973.742917-1.732384zm30.705438-1.159938c-.342872-.574137-.717695-1.126987-1.122015-1.656095l-.794188.607672c.381979.499911.735182 1.02117 1.057686 1.561209zm-28.526149-2.187803c-.424449.513081-.82019 1.050779-1.184762 1.610634l.837872.545867c.3432-.52705.716309-1.034217 1.117307-1.51896zm26.084823-1.003019c-.463157-.479958-.953497-.93351-1.468539-1.358178l-.635889.771781c.485486.400315.947931.828035 1.384922 1.280883zm-23.158979-1.80175c-.531945.403418-1.040109.836559-1.522018 1.296949l.691165.722696c.454991-.434644.934359-.843125 1.435634-1.223253zm20.090753-.730219c-.55788-.36269-1.137721-.694447-1.737092-.99284l-.445793.895137c.563217.280387 1.109833.592871 1.637264.935736zm-16.699081-1.28449c-.610629.274748-1.202656.583495-1.773668.923831l.512288.858814c.540121-.321908 1.098294-.612715 1.671945-.870813zm13.066184-.515912c-.623868-.22307-1.264101-.411727-1.91841-.563683l-.226376.97404c.613699.142518 1.217265.319991 1.808321.531339zm-9.219694-.701222c-.660204.127052-1.307205.291206-1.938748.490207l.300227.953868c.598409-.188574 1.208278-.342921 1.82729-.462054zm3.326647-.31579v1c.633159 0 1.261717.035616 1.88375.106263l.112887-.993608c-.655251-.074421-1.321479-.112655-1.996637-.112655zm-.024032.000016c-.424413.000571-.845286.016249-1.262109.046527l.072071.9974c.395227-.028719.792733-.043408 1.192045-.043927z" fill-rule="nonzero"/><path d="m444.167334 190.798016-.1509-.988549c-.619161.094699-1.245785.15439-1.877862.178417l.03759.999294c.674191-.025614 1.338614-.089366 1.991172-.189162zm-5.825076-1.099663-.189966.981791c.64842.125612 1.30961.215428 1.981431.267308l.076862-.997041c-.629829-.048643-1.253302-.132906-1.868327-.252058zm9.727036.026827-.37555-.926802c-.582015.235881-1.177707.438348-1.78464.606213l.26634.963879c.647106-.178966 1.279163-.39417 1.89385-.64329zm-13.332764-1.17034-.410667.911786c.605439.272458 1.229169.511492 1.86884.714751l.302385-.953186c-.599949-.190656-1.18763-.415536-1.760558-.673351zm16.865547-.763305-.578274-.815843c-.513482.363599-1.047287.697626-1.598834 1.000256l.480871.876791c.586683-.3219 1.15291-.67645 1.696237-1.061204zm-20.102504-1.166293-.606459.795114c.529138.403804 1.081983.778123 1.656084 1.120506l.512277-.85882c-.540255-.322195-1.061744-.675101-1.561902-1.0568zm23.055578-1.471097-.745538-.666463c-.419259.469353-.864956.91459-1.334741 1.333362l.665279.746595c.498036-.443946.970529-.915937 1.415-1.413494zm-25.802542-1.177-.772108.635492c.423912.515129.876692 1.005607 1.355866 1.46896l.69547-.718556c-.452311-.437353-.879478-.900123-1.279228-1.385896zm28.129539-2.125127-.878603-.477555c-.300645.552502-.632739 1.087368-.994468 1.602019l.817905.575353c.382801-.544606.735338-1.112026 1.055166-1.699817zm-30.159257-1.002573-.894828.446411c.298381.598674.630056 1.177844.992601 1.735085l.838404-.54505c-.342988-.527156-.655618-1.073499-.936177-1.636446zm31.654913-2.707885-.96451-.264044c-.166696.607436-.36803 1.203681-.60282 1.786297l.927719.373278c.247934-.615287.461912-1.247905.639611-1.895531zm-32.94393-.865399-.973792.227443c.153147.654352.343012 1.294575.567303 1.918375l.941009-.338384c-.212393-.590712-.390928-1.193983-.53452-1.807434zm33.553035-3.092968-.999306-.037253c-.024305.632022-.084268 1.258581-.179235 1.877668l.988572.150748c.100066-.652546.164088-1.316966.189969-1.991163zm-33.986837-.732462-1.000072-.003731v.053c0 .669305.037574 1.329834.110727 1.979593l.993704-.112041c-.051172-.454559-.083642-.912594-.09718-1.373353zm33.947148-1.320018c-.052023-.672171-.142022-1.333696-.267854-1.982431l-.981784.189998c.119336.615163.203766 1.238785.252555 1.868772zm-34.483861-2.648294c-.151202.643646-.266871 1.300988-.344825 1.969843l.993317.115421c.073081-.626934.181703-1.246578.325051-1.856758zm33.70785-1.319608c-.20454-.639429-.444848-1.262863-.718571-1.86795l-.910695.413081c.258926.572471.484941 1.159752.676749 1.759355zm-32.341151-2.462668c-.296496.59451-.560155 1.208266-.788602 1.838891l.940321.34029c.214348-.59167.462453-1.169973.742917-1.732384zm30.705438-1.159938c-.342872-.574137-.717695-1.126987-1.122015-1.656095l-.794188.607672c.381979.499911.735182 1.02117 1.057686 1.561209zm-28.526149-2.187803c-.424449.513081-.82019 1.050779-1.184762 1.610634l.837872.545867c.3432-.52705.716309-1.034217 1.117307-1.51896zm26.084823-1.003019c-.463157-.479958-.953497-.93351-1.468539-1.358178l-.635889.771781c.485486.400315.947931.828035 1.384922 1.280883zm-23.158979-1.80175c-.531945.403418-1.040109.836559-1.522018 1.296949l.691165.722696c.454991-.434644.934359-.843125 1.435634-1.223253zm20.090753-.730219c-.55788-.36269-1.137721-.694447-1.737092-.99284l-.445793.895137c.563217.280387 1.109833.592871 1.637264.935736zm-16.699081-1.28449c-.610629.274748-1.202656.583495-1.773668.923831l.512288.858814c.540121-.321908 1.098294-.612715 1.671945-.870813zm13.066184-.515912c-.623868-.22307-1.264101-.411727-1.91841-.563683l-.226376.97404c.613699.142518 1.217265.319991 1.808321.531339zm-9.219694-.701222c-.660204.127052-1.307205.291206-1.938748.490207l.300227.953868c.598409-.188574 1.208278-.342921 1.82729-.462054zm3.326647-.31579v1c.633159 0 1.261717.035616 1.88375.106263l.112887-.993608c-.655251-.074421-1.321479-.112655-1.996637-.112655zm-.024032.000016c-.424413.000571-.845286.016249-1.262109.046527l.072071.9974c.395227-.028719.792733-.043408 1.192045-.043927z" fill-rule="nonzero"/></g></g></svg>