<svg style="background-color: #27272a" height="440" viewBox="0 0 800 440" width="800" xmlns="http://www.w3.org/2000/svg"><g fill="none" fill-rule="evenodd"><path d="m129 131.62 540.774771.5" stroke="#e6594c" stroke-linecap="square"/><path d="m128.500463 187.119538-.000925 1 3 .002773.000923-.999999zm4.999997.004623-.000924 1 3 .002773.000923-.999999zm4.999998.004623-.000924 1 3 .002773.000923-.999999zm4.999998.004623-.000924 1 3 .002773.000923-.999999zm4.999998.004623-.000925 1 3 .002773.000924-.999999zm4.999998.004623-.000925 1 3 .002773.000924-.999999zm4.999998.004623-.000925 1 3 .002773.000923-.999999zm4.999998.004623-.000925 1 3 .002773.000923-.999999zm4.999997.004623-.000924 1 3 .002773.000923-.999999zm4.999998.004623-.000924 1 3 .002773.000923-.999999zm4.999998.004623-.000924 1 3 .002773.000923-.999999zm4.999998.004623-.000925 1 3 .002773.000924-.999999zm4.999998.004623-.000925 1 3 .002773.000924-.999999zm4.999998.004623-.000925 1 3 .002773.000923-.999999zm4.999998.004623-.000925 1 3 .002773.000923-.999999zm4.999997.004623-.000924 1 3 .002773.000923-.999999zm4.999998.004623-.000924 1 3 .002773.000923-.999999zm4.999998.004623-.000924 1 3 .002773.000923-.999999zm4.999998.004623-.000925 1 3 .002773.000924-.999999zm4.999998.004623-.000925 1 3 .002773.000924-.999999zm4.999998.004623-.000925 1 3 .002773.000923-.999999zm4.999998.004623-.000925 1 3 .002773.000923-.999999zm4.999997.004623-.000924 1 3 .002773.000923-.999999zm4.999998.004623-.000924 1 3 .002773.000923-.999999zm4.999998.004623-.000924 1 3 .002773.000923-.999999zm4.999998.004623-.000925 1 3 .002773.000924-.999999zm4.999998.004623-.000925 1 3 .002773.000924-.999999zm4.999998.004623-.000925 1 3 .002773.000924-.999999zm4.999998.004623-.000925 1 3 .002773.000923-.999999zm4.999998.004623-.000925 1 3 .002773.000923-.999999zm4.999997.004623-.000924 1 3 .002773.000923-.999999zm4.999998.004623-.000924 1 3 .002773.000923-.999999zm4.999998.004623-.000924 1 3 .002773.000923-.999999zm4.999998.004623-.000925 1 3 .002773.000924-.999999zm4.999998.004623-.000925 1 3 .002773.000924-.999999zm4.999998.004623-.000925 1 3 .002773.000923-.999999zm4.999998.004623-.000925 1 3 .002773.000923-.999999zm4.999997.004623-.000924 1 3 .002773.000923-.999999zm4.999998.004623-.000924 1 3 .002773.000923-.999999zm4.999998.004623-.000924 1 3 .002773.000923-.999999zm4.999998.004623-.000925 1 3 .002773.000924-.999999zm4.999998.004623-.000925 1 3 .002773.000924-1zm4.999998.004623-.000925 1 3 .002773.000923-1zm4.999998.004623-.000925 1 3 .002773.000923-1zm4.999997.004623-.000924 1 3 .002773.000923-1zm4.999998.004623-.000924 1 3 .002773.000923-1zm4.999998.004623-.000924 1 3 .002773.000923-1zm4.999998.004623-.000925 1 3 .002773.000924-1zm4.999998.004623-.000925 1 3 .002773.000924-1zm4.999998.004623-.000925 1 3 .002773.000924-1zm4.999998.004623-.000925 1 3 .002773.000923-1zm4.999998.004623-.000925 1 3 .002773.000923-1zm4.999997.004623-.000924 1 3 .002773.000923-1zm4.999998.004623-.000924 1 3 .002773.000923-1zm4.999998.004623-.000924 1 3 .002773.000923-1zm4.999998.004623-.000925 1 3 .002773.000924-1zm4.999998.004623-.000925 1 3 .002773.000924-1zm4.999998.004623-.000925 1 3 .002773.000923-1zm4.999998.004623-.000925 1 3 .002773.000923-1zm4.999997.004623-.000924 1 3 .002773.000923-1zm4.999998.004623-.000924 1 3 .002773.000923-1zm4.999998.004623-.000924 1 3 .002773.000923-1zm4.999998.004623-.000925 1 3 .002773.000924-1zm4.999998.004623-.000925 1 3 .002773.000924-1zm4.999998.004623-.000925 1 3 .002773.000923-1zm4.999998.004623-.000925 1 3 .002773.000923-1zm4.999997.004623-.000924 1 3 .002773.000923-1zm4.999998.004623-.000924 1 3 .002773.000923-1zm4.999998.004623-.000924 1 3 .002773.000923-1zm4.999998.004623-.000925 1 3 .002773.000924-1zm4.999998.004623-.000925 1 3 .002773.000924-1zm4.999998.004623-.000925 1 3 .002773.000923-1zm4.999998.004623-.000925 1 3 .002773.000923-1zm4.999997.004623-.000924 1 3 .002773.000923-1zm4.999998.004623-.000924 1 3 .002773.000923-1zm4.999998.004623-.000924 1 3 .002773.000923-1zm4.999998.004623-.000925 1 3 .002773.000924-1zm4.999998.004623-.000925 1 3 .002773.000924-1zm4.999998.004623-.000925 1 3 .002773.000924-1zm4.999998.004623-.000925 1 3 .002773.000923-1zm4.999998.004622-.000925 1 3 .002774.000923-1zm4.999997.004623-.000924 1 3 .002774.000923-1zm4.999998.004623-.000924 1 3 .002774.000923-1zm4.999998.004623-.000924 1 3 .002774.000923-1zm4.999998.004623-.000925 1 3 .002774.000924-1zm4.999998.004623-.000925 1 3 .002774.000924-1zm4.999998.004623-.000925 1 3 .002774.000923-1zm4.999998.004623-.000925 1 3 .002774.000923-1zm4.999997.004623-.000924 1 3 .002774.000923-1zm4.999998.004623-.000924 1 3 .002774.000923-1zm4.999998.004623-.000924 1 3 .002774.000923-1zm4.999998.004623-.000925 1 3 .002774.000924-1zm4.999998.004623-.000925 1 3 .002774.000924-1zm4.999998.004623-.000925 1 3 .002774.000923-1zm4.999998.004623-.000925 1 3 .002774.000923-1zm4.999997.004623-.000924 1 3 .002774.000923-1zm4.999998.004623-.000924 1 3 .002774.000923-1zm4.999998.004623-.000924 1 3 .002774.000923-1zm4.999998.004623-.000925 1 3 .002774.000924-1zm4.999998.004623-.000925 1 3 .002774.000924-1zm4.999998.004623-.000925 1 3 .002774.000924-1zm4.999998.004623-.000925 1 3 .002774.000923-1zm4.999998.004623-.000925 1 3 .002774.000923-1zm4.999997.004623-.000924 1 3 .002774.000923-1zm4.999998.004623-.000924 1 3 .002774.000923-1zm4.999998.004623-.000924 1 3 .002774.000923-1zm4.999998.004623-.000925 1 3 .002774.000924-1zm4.999998.004623-.000925 1 3 .002774.000924-1zm4.999998.004623-.000925 1 1.775002.001641.000924-.999999z" fill="#e6594c" fill-rule="nonzero"/><path d="m129 280.62 540.774771.5" stroke="#e6594c" stroke-linecap="square"/><text fill="#e6594c" font-family="SFProText-Regular, SF Pro Text" font-size="16"><tspan x="501.847656" y="331">All small caps on</tspan></text><text fill="#e6594c" font-family="SFProText-Regular, SF Pro Text" font-size="16"><tspan x="198.726562" y="331">All small caps off</tspan></text><g fill="#f5f5f5" fill-rule="nonzero"><g transform="translate(129 125)"><path d="m158.552206 154.876749c0 2.014657-.57603 3.021985-1.728089 3.021985-4.968258 0-10.584548-.215856-16.848872-.647568-5.40028-.431712-10.008518-.647568-13.824716-.647568-4.392227 0-9.828509.215856-16.308844.647568-6.840354.431712-12.6726559.647568-17.4969056.647568-1.1520596 0-1.7280894-1.007328-1.7280894-3.021985s.4320223-3.021986 1.296067-3.021986c6.4083317-.287808 11.01657-1.133244 13.824716-2.536309 2.808145-1.403064 4.212218-3.579613 4.212218-6.529647 0-1.870752-.720038-4.856762-2.160112-8.958028l-12.2046319-36.1558956h-44.4983031l-12.3126372 33.4576946c-1.584082 4.461026-2.376123 7.914724-2.376123 10.361093 0 6.331779 5.8323019 9.785476 17.4969056 10.361092.8640447 0 1.2960671 1.007329 1.2960671 3.021986s-.5760299 3.021985-1.7280895 3.021985c-4.3202236 0-9.1084714-.215856-14.3647434-.647568-4.9682572-.431712-9.3964864-.647568-13.2846876-.647568-3.0961602 0-6.9843615.215856-11.6646037.647568-4.89625343.431712-9.07246957.647568-12.52864845.647568-1.0800559 0-1.62008385-.8994-1.62008385-2.698201 0-2.014657.82804286-3.093937 2.48412857-3.237841 5.97630931-.575617 10.71055433-2.230513 14.20273503-4.964691 3.4921808-2.734177 7.110368-8.310459 10.8545618-16.728847l50.5466161-124.00932722c.4320224-1.15123251 1.4400746-1.72684877 3.0241565-1.72684877 1.7280895 0 2.8081454.53964024 3.2401677 1.61892072l44.6063083 124.11725527c2.520131 6.979347 5.922307 12.123917 10.206529 15.433711 4.284221 3.309793 10.026519 5.396402 17.226891 6.259827 1.440075.143904 2.160112 1.115256 2.160112 2.914057zm-65.3433819-64.1092607-19.0089838-55.1512325-20.5210621 55.1512325z"/><path d="m268.501897 110.842105c0 13.239174-4.680243 24.931379-14.040727 35.076616-9.360485 10.145236-20.197045 15.217855-32.509683 15.217855-6.840354 0-13.464697-1.439041-19.873028-4.317122-4.392228-2.014657-8.280429-3.021986-11.664604-3.021986-5.400279 0-8.964464 2.302465-10.692553 6.907395-.360019.863425-1.260066 1.295137-2.70014 1.295137-1.872097 0-2.808145-.575616-2.808145-1.726849.576029-6.04397.864044-13.311126.864044-21.801465v-105.2298472c0-5.8281146-.738038-9.6415723-2.214114-11.4403731-1.476077-1.7988008-4.698243-2.9500333-9.666501-3.4536975-1.152059 0-1.728089-.8634244-1.728089-2.5902732 0-2.0146569.57603-3.0219853 1.728089-3.0219853 12.816664-3.30979351 21.925135-7.12325121 27.325415-11.44037312 1.080056-.86342439 1.980102-1.29513658 2.700139-1.29513658 2.016105 0 3.024157.57561626 3.024157 1.72684877-1.15206 15.68554293-1.72809 28.27714853-1.72809 37.77481683v32.2704863c6.768351-6.763491 15.048779-10.1452365 24.841286-10.1452365 14.616757 0 26.46137 4.42505 35.533839 13.2751499 9.07247 8.8500999 13.608705 20.8301132 13.608705 35.9400397zm-21.709124.863425c0-13.2391742-2.628136-23.6002668-7.884408-31.0832782-5.256272-7.4830113-12.636654-11.224517-22.141146-11.224517-5.112265 0-10.098523 1.9247169-14.958774 5.7741506-4.860252 3.8494337-7.290378 7.6808794-7.290378 11.4943371v49.8627585c0 3.813457 2.89815 7.680879 8.69445 11.602265s11.178579 5.882078 16.146836 5.882078c8.640447 0 15.372796-3.849433 20.197045-11.548301 4.82425-7.698867 7.236375-17.952032 7.236375-30.759493z"/></g><g transform="translate(460 180)"><path d="m107.789579 99.7255163c0 1.8707527-.432023 2.8061297-1.296067 2.8061297-3.600187 0-6.6243432-.107928-9.0724699-.323785-7.4163838-.647568-11.5926-.971352-12.5286484-.971352-3.3841752 0-6.4083317.107928-9.0724696.323784-8.0644173.647568-13.0326745.971353-14.9047714.971353-.7200372 0-1.0800559-.935377-1.0800559-2.8061297 0-1.7268487.2880149-2.5902731.8640447-2.5902731 3.4561789 0 5.9763094-.5576283 7.5603913-1.6728848 1.584082-1.1152565 2.376123-3.2198534 2.376123-6.3137908 0-2.374417-.6120317-5.1085942-1.836095-8.2025316l-5.0762627-13.383078h-30.4575764l-4.5362348 11.224517c-1.4400745 4.0293138-2.1601118 7.0512992-2.1601118 9.065956 0 3.3817455.8640447 5.7741506 2.5921342 7.1772152 1.7280894 1.4030647 4.3922273 2.104597 7.9924136 2.104597.5760299 0 .8640448.8634244.8640448 2.5902731 0 1.8707527-.4320224 2.8061297-1.2960671 2.8061297-3.168164 0-6.6243429-.215857-10.3685367-.647569-3.7441937-.431712-6.4803354-.647568-8.2084248-.647568-2.376123 0-4.5362348.107928-6.4803354.323784-5.76029812.647568-9.28848072.971353-10.5845478.971353-.72003727 0-1.0800559-.935377-1.0800559-2.8061297 0-1.7268487.57602981-2.5902731 1.72808944-2.5902731 3.5281826-.4317122 6.46233446-1.6189207 8.80245556-3.5616256s5.3462767-7.1592272 9.0184668-15.649567l33.1577161-76.41305793c.2160112-1.00732845 1.0800559-1.51099267 2.5921341-1.51099267 1.4400746 0 2.3401212.50366422 2.7001398 1.51099267l29.485526 76.41305793c2.8081454 7.4830114 5.5982898 12.4117255 8.3704333 14.7861426 2.7721434 2.3744171 6.2463229 3.8494337 10.4225389 4.42505 1.008053 0 1.512079.8634244 1.512079 2.5902731zm-46.2263927-38.206529-12.5286485-33.2418387-13.1766819 33.2418387z"/><path d="m209.746856 73.1752165c0 8.7061959-3.07816 15.703531-9.234478 20.9920054-6.156319 5.2884743-14.310741 7.9327111-24.463266 7.9327111-3.816198 0-7.380382-.071952-10.692554-.215856-10.008518-.431712-15.66081-.647568-16.956877-.647568-4.536235 0-8.640448.107928-12.312638.323784-11.01657.647568-16.776868.971353-17.280894.971353-.864045 0-1.296067-.935377-1.296067-2.8061297 0-1.7268487.432022-2.5902731 1.296067-2.5902731 5.832302-.8634244 9.918513-2.230513 12.258634-4.1012659 2.340122-1.8707528 3.510182-5.9000666 3.510182-12.0879413v-56.7701533c0-6.1159227-1.188061-10.1092604-3.564184-11.9800133-2.376123-1.8707528-6.444334-3.27381743-12.204632-4.20919385-.864045-.14390406-1.296067-.93537642-1.296067-2.37441706 0-1.87075283.432022-2.80612924 1.296067-2.80612924 2.880149 0 6.120317.10792805 9.720503.32378414 8.352432.50366422 14.472749.75549634 18.36095.75549634 2.952153 0 7.290378-.14390407 13.014674-.4317122 5.724296-.28780812 9.6665-.43171219 11.826612-.43171219 9.360484 0 16.884874 2.12258495 22.573168 6.36775483 5.688295 4.24516993 8.532442 9.82145233 8.532442 16.72884743 0 4.8927382-2.12411 9.4257162-6.37233 13.5989341-4.24822 4.1732178-9.46849 6.907395-15.66081 8.2025316 8.784454 1.6548967 15.804818 4.7308461 21.06109 9.2278481s7.884408 9.8394404 7.884408 16.0273151zm-27.865443-47.0566289c0-5.9000666-1.36807-10.1812125-4.104212-12.8434377s-7.128369-3.99333777-13.176682-3.99333777h-2.592134c-5.328276 0-7.992414 2.51832107-7.992414 7.55496337v28.9247168h9.288481c6.696347 0 11.466593-1.5289806 14.310741-4.586942 2.844147-3.0579614 4.26622-8.0766156 4.26622-15.0559627zm6.912358 47.0566289c0-6.763491-1.764091-11.9800133-5.292274-15.6495669-3.528182-3.6695537-8.532441-5.5043305-15.012777-5.5043305h-14.472749v32.8101266c0 4.389074 1.188062 7.3570953 3.564185 8.904064 2.376123 1.5469686 6.228322 2.320453 11.556598 2.320453 5.688294 0 10.386537-2.0146569 14.094729-6.0439707s5.562288-9.6415723 5.562288-16.8367755z"/></g></g></g></svg>