<svg style="background-color: #27272a" height="440" viewBox="0 0 800 440" width="800" xmlns="http://www.w3.org/2000/svg"><g fill="none" fill-rule="evenodd"><g fill="#f5f5f5" fill-rule="nonzero" transform="translate(179.979336 150.72)"><path d="m24.42 13.86c0-8.58-4.84-13.86-12.54-13.86-8.14 0-11.88 5.5-11.88 16.06 0 5.94 1.54 11.88 2.64 17.6l5.28 30.58c.66 3.52 0 3.74 3.96 4.18 2.86.22 3.96-2.2 4.4-4.62l5.28-30.14c.44-2.64 1.1-6.16 1.76-9.68s1.1-7.04 1.1-10.12z"/><path d="m80.4813281 13.86c0-8.58-4.84-13.86-12.54-13.86-8.14 0-11.88 5.5-11.88 16.06 0 5.94 1.54 11.88 2.64 17.6l5.28 30.58c.66 3.52 0 3.74 3.96 4.18 2.86.22 3.96-2.2 4.4-4.62l5.28-30.14c.44-2.64 1.1-6.16 1.76-9.68s1.1-7.04 1.1-10.12z"/></g><g transform="translate(165 302)"><text fill="#979797" font-family="SFProText-Regular, SF Pro Text" font-size="16"><tspan x=".777344" y="53">straight marks</tspan></text><path d="m21.7086196 1.18317306-1.1360477-1.00347308c-.1747765-.13088779-1.0486593 0-1.3982124.43629264-2.0536246 2.31235101-5.2432967 5.71543363-7.2969213 7.591492-.7428003.65443896-1.0049652.69806823-1.6166831.08725852-2.53426008-2.70501438-5.76762637-6.02083847-7.90863919-8.0714139-.48063553-.47992191-1.09235348-.04362926-1.13604762 0l-.91757692.91621455c-.52432967.52355118-.17477656 1.09073161.26216483 1.52702426l7.69016849 7.76600905c.39324726.4362926.52432967.7416975-.04369414 1.3088779-2.0099304 2.0069462-6.20456776 6.2826141-7.90863918 7.8968969-.48063554.4362926-.30585898 1.0034731 0 1.2652486l.74280036.6980683c.61171795.5671804 1.13604762.3926633 1.57298901-.0436293 2.62164835-2.5304973 4.67527289-4.450185 7.29692124-7.3297164.56802382-.6108097 1.17974172-.9598438 1.96623622-.1308878l7.515392 7.6351213c.305859.3054048.6554121.4362926 1.26713-.0872586l.9612711-.7853267c.4806355-.3926634.3932472-.7853268-.1747766-1.3525072l-7.9523333-7.8968969c-.4806355-.4799219-.2621648-.8725853.0873883-1.1343608 1.7477655-1.57065355 5.8987088-5.93357999 8.0834157-8.07141394.5243297-.52355117.3495531-.91621455.0436942-1.2216194z" fill="#e6594c" fill-rule="nonzero" transform="translate(44)"/></g><g fill="#f5f5f5" fill-rule="nonzero" transform="translate(505.659336 156.985695)"><path d="m29.48 41.2543047c0-6.16-4.62-11.44-10.78-11.44-1.54 0-3.08 1.1-4.62 1.1-1.32 0-2.2-.66-2.2-3.3 0-7.04 5.5-14.96 16.28-21.12000002 3.96-2.86.44-7.26-1.98-6.38-15.62 5.94-26.18 19.14000002-26.18 33.44000002 0 11 7.26 20.02 16.94 20.02 7.04 0 12.54-5.28 12.54-12.32z"/><path d="m105.121328 19.6943047c0-11.22000002-7.0399999-19.36000002-16.7199999-19.36000002-7.04 0-12.76 5.28-12.76 12.32000002 0 6.38 4.4 11.22 10.56 11.22 1.76 0 3.3-.44 4.84-.88 2.2-.44 2.42 1.76 2.42 3.52 0 7.04-5.5 14.52-16.5 20.9-1.98 1.32-1.32 3.96 0 5.5 1.1 1.32 3.52.44 4.84-.22 13.86-6.6 23.3199999-19.8 23.3199999-33z"/></g><g transform="translate(510 296)"><text fill="#979797" font-family="SFProText-Regular, SF Pro Text" font-size="16"><tspan x=".761719" y="59">apostrophes</tspan></text><path d="m10.8133536 33c-1.31714723-2.4347826-2.32979265-4.2246377-3.0379363-5.3695652l-1.12594841-1.8043478-.84977238-1.326087c-1.85533637-2.9565217-3.78856854-5.3985507-5.79969651-7.326087 1.14719272-.9710144 2.21648963-1.4565217 3.20789074-1.4565217 1.21800708 0 2.30146687.4565217 3.25037937 1.3695652.94891249.9130435 2.14567526 2.6521739 3.59028829 5.2173913 1.6428933-5.4637681 3.7319171-10.6449275 6.2670713-15.54347823 1.4021245-2.66666667 2.651998-4.46014493 3.7496207-5.38043479 1.0976226-.92028985 2.5528578-1.38043478 4.3657056-1.38043478.9630754 0 2.1527567.15217391 3.569044.45652174-3.6398584 3-6.5503288 6.56521739-8.7314112 10.69565216-2.1810825 4.1304348-4.9994942 11.4130435-8.4552352 21.8478261z" fill="#4ade80" fill-rule="nonzero" transform="translate(34)"/></g></g></svg>