<svg style="background-color: #27272a" height="440" viewBox="0 0 800 440" width="800" xmlns="http://www.w3.org/2000/svg"><g fill="none" fill-rule="evenodd"><g fill="#f5f5f5" fill-rule="nonzero" transform="translate(160 142.52)"><path d="m92.64 38.52c0 6.56-3.28 9.84-9.84 9.84-2.8 0-5.1-.6-6.9-1.8s-3.62-3.8-5.46-7.8c-2.16-4.72-4.46-7.82-6.9-9.3s-5.62-2.22-9.54-2.22c-9.68 0-17.06 4.02-22.14 12.06s-7.62 19.78-7.62 35.22c0 12.88 3.2 23.26 9.6 31.14s14.96 11.82 25.68 11.82c12.16 0 21.8-3.8 28.92-11.4l.6-.24c.72 0 1.42.46 2.1 1.38s1.02 1.94 1.02 3.06c0 1.6-2.34 4.36-7.02 8.28s-9.8 6.88-15.36 8.88-11.46 3-17.7 3c-14.32 0-26.58-5.26-36.78-15.78s-15.3-23.82-15.3-39.9c0-15.92 5.34-29.1 16.02-39.54s23.34-15.66 37.98-15.66c10.8 0 19.94 1.86 27.42 5.58s11.22 8.18 11.22 13.38z"/><path d="m185.28 31.32c0 4.32-1.04 6.48-3.12 6.48l-35.76-.96v57.6c0 15.04 5.36 22.56 16.08 22.56 6.64 0 12.68-1.56 18.12-4.68.64 0 1.22.42 1.74 1.26s.78 1.74.78 2.7c0 2-2.98 4.7-8.94 8.1s-12.66 5.1-20.1 5.1c-9.12 0-16.4-2.78-21.84-8.34s-8.16-12.9-8.16-22.02v-1.08l.48-58.32c0-2.24-.96-3.36-2.88-3.36h-9.12c-1.76 0-2.64-1.04-2.64-3.12 0-1.6.72-2.8 2.16-3.6 11.12-6.56 20.8-15.8 29.04-27.72.88-1.28 2-1.92 3.36-1.92 2.24 0 3.36.64 3.36 1.92l-.96 22.92h35.28c2.08 0 3.12 2.16 3.12 6.48z"/></g><path d="m185.16 78.84c0 4.48-1.04 6.72-3.12 6.72l-35.76-.96v57.36c0 15.04 5.36 22.56 16.08 22.56 6.72 0 12.8-1.56 18.24-4.68.56 0 1.06.42 1.5 1.26s.66 1.74.66 2.7c0 2.24-2.92 5-8.76 8.28s-12.6 4.92-20.28 4.92c-9.04 0-16.26-2.78-21.66-8.34s-8.1-12.9-8.1-22.02v-1.08l.24-58.08c0-2.24-.88-3.36-2.64-3.36h-9.36c-1.6 0-2.4-1.12-2.4-3.36 0-1.44.76-2.6 2.28-3.48 5.76-3.36 9.7-6.48 11.82-9.36s3.18-6.4 3.18-10.56c0-14.8-3.12-26.26-9.36-34.38s-15.16-12.18-26.76-12.18c-10.32 0-18.78 3.28-25.38 9.84s-9.9 14.88-9.9 24.96c0 6.64 1.54 11.96 4.62 15.96s8.06 7.08 14.94 9.24c4.24 1.36 7.72 3.4 10.44 6.12s4.08 5.44 4.08 8.16c0 6.72-3.28 10.08-9.84 10.08-2.48 0-4.48-.56-6-1.68s-3.04-3.52-4.56-7.2c-1.92-4.56-4.04-7.58-6.36-9.06s-5.32-2.22-9-2.22c-19.84 0-29.76 15.76-29.76 47.28 0 12.96 3.4 23.32 10.2 31.08s16.12 11.64 27.96 11.64c5.76 0 11.58-1.24 17.46-3.72s10.62-5.64 14.22-9.48l.6-.24c.72 0 1.44.46 2.16 1.38s1.08 1.9 1.08 2.94c0 1.68-2.6 4.62-7.8 8.82s-10.84 7.46-16.92 9.78-12.16 3.48-18.24 3.48c-15.52 0-28.56-5.18-39.12-15.54s-15.84-23.74-15.84-40.14c0-15.92 5.3-29.06 15.9-39.42s23.3-15.54 38.1-15.54c-1.92-2-3.56-4.96-4.92-8.88s-2.04-7.72-2.04-11.4c0-13.84 4.78-25.14 14.34-33.9s21.66-13.14 36.3-13.14c14.32 0 26.08 4.9 35.28 14.7s13.8 22.34 13.8 37.62v20.04h35.28c2.08 0 3.12 2.16 3.12 6.48z" fill="#f5f5f5" fill-rule="nonzero" transform="translate(450 95)"/><g fill="#e6594c"><text font-family="SFProText-Regular, SF Pro Text" font-size="16"><tspan x="445.285156" y="325">Discretionary ligatures on</tspan></text><text font-family="SFProText-Regular, SF Pro Text" font-size="16"><tspan x="160.164062" y="325">Discretionary ligatures off</tspan></text><path d="m584.834697 186.886543-.053573.998564c.43669.023164.876413.034893 1.318876.034893.211862 0 .423096-.002689.63367-.008035l-.025459-.999676c-.202403.005138-.40515.007711-.608211.007711-.423243 0-.845103-.011179-1.265303-.033457zm5.900204.595652-.188552-.982063c-.626577.119959-1.259315.214518-1.897105.283284l.107615.994193c.667754-.072008 1.327468-.170846 1.978042-.295414zm-9.701336-1.109508-.214382.97675c.647332.142207 1.304257.258817 1.969659.348714l.13445-.990921c-.635828-.085886-1.266117-.197542-1.889727-.334543zm13.601487.019662-.348609-.937268c-.5988.222557-1.207024.420613-1.823412.593567l.270358.96276c.645047-.181002 1.279328-.387748 1.901663-.619059zm-17.284466-1.154839-.372182.928159c.615932.247233 1.244234.470173 1.883718.667634l.29568-.955288c-.611504-.188802-1.214335-.402515-1.807216-.640505zm20.93716-.559284-.49791-.867229c-.554494.318598-1.12185.614444-1.700734.886701l.425882.904779c.604857-.284483 1.196187-.592976 1.772762-.924251zm-24.362783-1.153812-.518969.854794c.568713.345181 1.152594.667868 1.750407.966825l.447226-.89442c-.572022-.286062-1.132023-.595417-1.678664-.927199zm27.67608-1.130639-.632494-.774566c-.49524.405108-1.006731.789926-1.533159 1.153395l.568061.822986c.54919-.379179 1.082139-.780203 1.597592-1.201815zm-30.808484-1.142549-.650975.759099c.505087.43398 1.028059.847729 1.567659 1.239991l.587646-.809119c-.517303-.376067-1.01918-.773088-1.50433-1.189971zm33.651924-1.591041-.748264-.663401c-.42429.478924-.8679.940487-1.329633 1.383456l.691933.721962c.481216-.461641.943625-.942735 1.385964-1.442017zm-36.355534-1.144522-.766404.642359c.429069.511393.878642 1.005003 1.347454 1.479563l.711268-.702921c-.449799-.455321-.880962-.928741-1.292318-1.419001zm38.781591-2.095889-.847128-.531389c-.340021.54213-.702073 1.070221-1.085154 1.582942l.800998.598666c.398756-.533693.776268-1.084184 1.131284-1.650219zm-40.987705-1.012471-.859193.511652c.341186.574086.70516 1.133043 1.090675 1.675625l.814991-.579473c-.370534-.521513-.719682-1.057892-1.046473-1.607804zm42.838351-2.561538-.922931-.384964c-.246281.59037-.516624 1.170131-.810258 1.73796l.888173.45951c.305396-.590563.587475-1.195138.845016-1.812506zm-44.532059-.912652-.931972.362532c.242614.623958.510056 1.235517.801112 1.833462l.898847-.438262c-.279826-.574915-.536067-1.161265-.767987-1.757732zm45.76287-2.891479-.97363-.228135c-.146459.623754-.3183 1.240172-.514981 1.848025l.951226.308493c.204496-.631944.384012-1.275126.537385-1.928383zm-46.861861-.822939-.979108.203341c.136207.656594.298692 1.303565.486305 1.939764l.959143-.282924c-.180601-.612424-.336218-1.232886-.46634-1.860181zm47.454653-3.140781-.99775-.067045c-.04281.64081-.111476 1.277274-.205648 1.908324l.989021.147769c.097738-.654907.169555-1.318282.214377-1.989048zm-47.926526-.722466-.999222.03944c.026299.672072.079671 1.337191.159054 1.994298l.992665-.120898c-.07645-.633048-.12739-1.271006-.152497-1.91284zm47.98013-1.21902c-.007631-.672797-.04238-1.33908-.103207-1.997806l-.995773.091839c.058624.634851.091736 1.274121.099038 1.91681zm-48.820056-2.687615c-.079399.65678-.132811 1.321565-.159178 1.993298l.999225.039359c.025184-.641678.076189-1.279479.152692-1.912371zm48.441635-1.35094c-.117605-.660735-.261694-1.312305-.431132-1.953575l-.966707.255887c.163065.617198.30099 1.241875.4133 1.872854zm-47.636728-2.571714c-.186299.636561-.347453 1.283859-.482316 1.940747l.979508.201404c.128803-.627412.283096-1.248034.462373-1.860663zm46.599791-1.337239c-.224879-.630591-.474864-1.249262-.748752-1.85481l-.911108.412167c.263442.582457.503003 1.17576.717985 1.778607zm-45.147112-2.432002c-.289862.598681-.556076 1.210945-.797428 1.835579l.932936.360043c.230647-.5969.485631-1.183726.764218-1.759165zm43.483734-1.239288c-.325312-.584185-.673829-1.153676-1.044305-1.707228l-.830835.556519c.355823.531677.689834 1.077644 1.0011 1.636564zm-41.461825-2.192376c-.38351.544336-.745406 1.104995-1.084439 1.68073l.861555.507664c.324709-.551425.671849-1.089391 1.040452-1.612562zm39.225035-1.147108c-.41549-.522226-.851856-1.0271-1.307837-1.51336l-.730049.683395c.437837.466878.85656.951356 1.255023 1.452159zm-36.633572-1.954747c-.468072.474945-.916901.968907-1.345221 1.480621l.76679.641898c.410782-.490764.841394-.964709 1.290665-1.420577zm33.924946-.937839c-.492844-.44799-1.004025-.876164-1.532283-1.283263l-.610577.791957c.506641.390433.997286.801364 1.470652 1.231669zm-30.935672-1.644307c-.538538.394427-1.060369.810318-1.564232 1.246412l.654476.756083c.483818-.418743.984443-.817672 1.500576-1.195691zm27.736817-.81636c-.558958-.361042-1.133554-.699948-1.722548-1.015479l-.472217.881482c.563867.30207 1.115124.627093 1.652432.974161zm-24.307127-1.286625c-.596493.301316-1.17899.626306-1.746255.973733l.522236.852802c.545358-.334012 1.104161-.64565 1.675072-.934038zm20.791783-.59707c-.609171-.264861-1.231207-.505685-1.864912-.721274l-.322644.94652c.606001.206148 1.202752.437 1.788961.691881zm-17.053825-.917164c-.639511.199157-1.267781.423813-1.88362.672777l.37459.927191c.592446-.239514 1.194898-.454762 1.806076-.645105zm13.238572-.377826c-.643229-.160324-1.296515-.295227-1.958731-.403579l-.161429.986884c.63255.1035 1.259058.232659 1.87836.387021zm-9.287976-.50001c-.665068.090745-1.321642.208181-1.968607.351191l.216094.976373c.623064-.13772 1.252824-.25013 1.888139-.336804zm3.343187-.226198c-.431638 0-.860669.011162-1.28682.033214l.052027.998645.616313-.023885.61848-.007974c.642738 0 1.282242.025779 1.917527.077052l.079895-.996803c-.658791-.053155-1.324943-.080249-1.997422-.080249z" fill-rule="nonzero"/><path d="m515.767334 178.718016-.1509-.988549c-.619161.094699-1.245785.15439-1.877862.178417l.03759.999294c.674191-.025614 1.338614-.089366 1.991172-.189162zm-5.825076-1.099663-.189966.981791c.64842.125612 1.30961.215428 1.981431.267308l.076862-.997041c-.629829-.048643-1.253302-.132906-1.868327-.252058zm9.727036.026827-.37555-.926802c-.582015.235881-1.177707.438348-1.78464.606213l.26634.963879c.647106-.178966 1.279163-.39417 1.89385-.64329zm-13.332764-1.17034-.410667.911786c.605439.272458 1.229169.511492 1.86884.714751l.302385-.953186c-.599949-.190656-1.18763-.415536-1.760558-.673351zm16.865547-.763305-.578274-.815843c-.513482.363599-1.047287.697626-1.598834 1.000256l.480871.876791c.586683-.3219 1.15291-.67645 1.696237-1.061204zm-20.102504-1.166293-.606459.795114c.529138.403804 1.081983.778123 1.656084 1.120506l.512277-.85882c-.540255-.322195-1.061744-.675101-1.561902-1.0568zm23.055578-1.471097-.745538-.666463c-.419259.469353-.864956.91459-1.334741 1.333362l.665279.746595c.498036-.443946.970529-.915937 1.415-1.413494zm-25.802542-1.177-.772108.635492c.423912.515129.876692 1.005607 1.355866 1.46896l.69547-.718556c-.452311-.437353-.879478-.900123-1.279228-1.385896zm28.129539-2.125127-.878603-.477555c-.300645.552502-.632739 1.087368-.994468 1.602019l.817905.575353c.382801-.544606.735338-1.112026 1.055166-1.699817zm-30.159257-1.002573-.894828.446411c.298381.598674.630056 1.177844.992601 1.735085l.838404-.54505c-.342988-.527156-.655618-1.073499-.936177-1.636446zm31.654913-2.707885-.96451-.264044c-.166696.607436-.36803 1.203681-.60282 1.786297l.927719.373278c.247934-.615287.461912-1.247905.639611-1.895531zm-32.94393-.865399-.973792.227443c.153147.654352.343012 1.294575.567303 1.918375l.941009-.338384c-.212393-.590712-.390928-1.193983-.53452-1.807434zm33.553035-3.092968-.999306-.037253c-.024305.632022-.084268 1.258581-.179235 1.877668l.988572.150748c.100066-.652546.164088-1.316966.189969-1.991163zm-34.986909-.736193v.053c0 .669305.037574 1.329834.110727 1.979593l.993704-.112041c-.051172-.454559-.083642-.912594-.09718-1.373353l-.007179-.543468zm34.94722-1.316287c-.052023-.672171-.142022-1.333696-.267854-1.982431l-.981784.189998c.119336.615163.203766 1.238785.252555 1.868772zm-34.483861-2.648294c-.151202.643646-.266871 1.300988-.344825 1.969843l.993317.115421c.073081-.626934.181703-1.246578.325051-1.856758zm33.70785-1.319608c-.20454-.639429-.444848-1.262863-.718571-1.86795l-.910695.413081c.258926.572471.484941 1.159752.676749 1.759355zm-32.341151-2.462668c-.296496.59451-.560155 1.208266-.788602 1.838891l.940321.34029c.214348-.59167.462453-1.169973.742917-1.732384zm30.705438-1.159938c-.342872-.574137-.717695-1.126987-1.122015-1.656095l-.794188.607672c.381979.499911.735182 1.02117 1.057686 1.561209zm-28.526149-2.187803c-.424449.513081-.82019 1.050779-1.184762 1.610634l.837872.545867c.3432-.52705.716309-1.034217 1.117307-1.51896zm26.084823-1.003019c-.463157-.479958-.953497-.93351-1.468539-1.358178l-.635889.771781c.485486.400315.947931.828035 1.384922 1.280883zm-23.158979-1.80175c-.531945.403418-1.040109.836559-1.522018 1.296949l.691165.722696c.454991-.434644.934359-.843125 1.435634-1.223253zm20.090753-.730219c-.55788-.36269-1.137721-.694447-1.737092-.99284l-.445793.895137c.563217.280387 1.109833.592871 1.637264.935736zm-16.699081-1.28449c-.610629.274748-1.202656.583495-1.773668.923831l.512288.858814c.540121-.321908 1.098294-.612715 1.671945-.870813zm13.066184-.515912c-.623868-.22307-1.264101-.411727-1.91841-.563683l-.226376.97404c.613699.142518 1.217265.319991 1.808321.531339zm-9.219694-.701222c-.660204.127052-1.307205.291206-1.938748.490207l.300227.953868c.598409-.188574 1.208278-.342921 1.82729-.462054zm3.326647-.31579v1c.633159 0 1.261717.035616 1.88375.106263l.112887-.993608c-.655251-.074421-1.321479-.112655-1.996637-.112655zm-.023101.000015c-.424729.000549-.845912.016228-1.26304.046528l.072071.9974c.395227-.028719.792733-.043408 1.192045-.043928z" fill-rule="nonzero"/></g></g></svg>