<svg style="background-color: #27272a" height="440" viewBox="0 0 800 440" width="800" xmlns="http://www.w3.org/2000/svg"><g fill="none" fill-rule="evenodd"><g fill="#f5f5f5" fill-rule="nonzero" transform="translate(167 188)"><path d="m26.18 12.54c0-7.48-5.06-12.54-12.76-12.54-7.92 0-13.42 5.06-13.42 12.76 0 7.26 5.72 12.54 13.42 12.54s12.76-5.5 12.76-12.76z"/><path d="m71.06 12.54c0-7.48-5.06-12.54-12.76-12.54-7.92 0-13.42 5.06-13.42 12.76 0 7.26 5.72 12.54 13.42 12.54s12.76-5.5 12.76-12.76z"/><path d="m115.94 12.54c0-7.48-5.06-12.54-12.76-12.54-7.92 0-13.42 5.06-13.42 12.76 0 7.26 5.72 12.54 13.42 12.54s12.76-5.5 12.76-12.76z"/></g><g transform="translate(181 302)"><text fill="#979797" font-family="SFProText-Regular, SF Pro Text" font-size="16"><tspan x=".214844" y="53">three dots</tspan></text><path d="m21.7086196 1.18317306-1.1360477-1.00347308c-.1747765-.13088779-1.0486593 0-1.3982124.43629264-2.0536246 2.31235101-5.2432967 5.71543363-7.2969213 7.591492-.7428003.65443896-1.0049652.69806823-1.6166831.08725852-2.53426008-2.70501438-5.76762637-6.02083847-7.90863919-8.0714139-.48063553-.47992191-1.09235348-.04362926-1.13604762 0l-.91757692.91621455c-.52432967.52355118-.17477656 1.09073161.26216483 1.52702426l7.69016849 7.76600905c.39324726.4362926.52432967.7416975-.04369414 1.3088779-2.0099304 2.0069462-6.20456776 6.2826141-7.90863918 7.8968969-.48063554.4362926-.30585898 1.0034731 0 1.2652486l.74280036.6980683c.61171795.5671804 1.13604762.3926633 1.57298901-.0436293 2.62164835-2.5304973 4.67527289-4.450185 7.29692124-7.3297164.56802382-.6108097 1.17974172-.9598438 1.96623622-.1308878l7.515392 7.6351213c.305859.3054048.6554121.4362926 1.26713-.0872586l.9612711-.7853267c.4806355-.3926634.3932472-.7853268-.1747766-1.3525072l-7.9523333-7.8968969c-.4806355-.4799219-.2621648-.8725853.0873883-1.1343608 1.7477655-1.57065355 5.8987088-5.93357999 8.0834157-8.07141394.5243297-.52355117.3495531-.91621455.0436942-1.2216194z" fill="#e6594c" fill-rule="nonzero" transform="translate(28)"/></g><path d="m178.42 12.32c0-7.26-5.28-12.32-12.98-12.32s-13.2 4.18-13.2 11.66c0 7.04 5.72 12.98 13.42 12.98s12.76-5.06 12.76-12.32zm-75.68.22c0-7.26-5.28-12.32-12.98-12.32s-13.2 4.84-13.2 12.32c0 7.04 5.5 12.1 13.42 12.1 7.7 0 12.76-4.84 12.76-12.1zm-76.34-.22c0-7.26-5.28-12.32-12.98-12.32s-13.42 4.4-13.42 11.66 5.72 12.98 13.42 12.98 12.98-5.28 12.98-12.32z" fill="#f5f5f5" fill-rule="nonzero" transform="translate(470 189)"/><g transform="translate(493 296)"><text fill="#979797" font-family="SFProText-Regular, SF Pro Text" font-size="16"><tspan x=".863281" y="59">ellipsis character</tspan></text><path d="m10.8133536 33c-1.31714723-2.4347826-2.32979265-4.2246377-3.0379363-5.3695652l-1.12594841-1.8043478-.84977238-1.326087c-1.85533637-2.9565217-3.78856854-5.3985507-5.79969651-7.326087 1.14719272-.9710144 2.21648963-1.4565217 3.20789074-1.4565217 1.21800708 0 2.30146687.4565217 3.25037937 1.3695652.94891249.9130435 2.14567526 2.6521739 3.59028829 5.2173913 1.6428933-5.4637681 3.7319171-10.6449275 6.2670713-15.54347823 1.4021245-2.66666667 2.651998-4.46014493 3.7496207-5.38043479 1.0976226-.92028985 2.5528578-1.38043478 4.3657056-1.38043478.9630754 0 2.1527567.15217391 3.569044.45652174-3.6398584 3-6.5503288 6.56521739-8.7314112 10.69565216-2.1810825 4.1304348-4.9994942 11.4130435-8.4552352 21.8478261z" fill="#4ade80" fill-rule="nonzero" transform="translate(51)"/></g></g></svg>