<svg style="background-color: #27272a" height="440" viewBox="0 0 800 440" width="800" xmlns="http://www.w3.org/2000/svg"><g fill="none" fill-rule="nonzero"><g fill="#f5f5f5" transform="translate(165.44 133.7712)"><path d="m58.3 2.4288c-.22-2.2-1.54-2.42-3.52-2.42-26.84 1.32-32.56 0-50.6 0-1.54 0-2.42-.22-3.08 1.54-1.32 4.18.66 5.28 2.42 5.5 11.88 1.32 13.64 3.96 13.86 15.4l.22 7.7v83.6l-.22 7.7c-.44 11.88-1.54 13.64-15.4 14.96-1.1 0-1.98 2.42-1.98 4.18 0 2.2 1.32 3.3 2.64 3.3 13.86-.44 40.7-.44 54.56 0 1.76 0 3.08-5.94.22-7.7-.88-.22-1.98-.22-3.3-.22-11.88-.22-15.18-3.08-15.18-14.52v-91.3c0-20.24 1.76-22.44 15.18-22.66 1.1 0 2.2-.44 3.08-.44 1.32 0 1.32-2.86 1.1-4.62z"/><path d="m236.28 88.2288c-.22-1.32-2.2-1.98-3.74-2.42-34.32-.66-104.06-.66-141.02 0-3.74 0-4.84 2.86-4.84 4.18-.22 3.08.44 3.96.44 6.16-.22 2.2 1.98 3.08 3.52 2.86 36.08-.66 95.48-.66 142.12 0 1.54.22 2.64-1.54 3.08-2.42.22-3.74 1.54-5.06.44-8.36z"/><path d="m366.74 141.6888c.44-1.54.22-3.52-.44-4.62-.88-1.1-2.42-1.32-3.52-.66-10.34 0-11-1.54-11-7.92 0-13.42 1.76-26.62 1.76-39.82 0-16.06-2.42-39.6-24.42-39.6-4.62 0-9.46 1.54-15.4 4.4-7.04 3.52-11.66 6.6-18.26 11.22-1.32.88-2.42-2.2-2.42-2.64v-12.1c0-2.64-1.54-4.62-5.06-3.74-8.14 1.76-18.92 8.36-25.96 9.46-1.54.66-1.54 5.72 0 5.94l4.4.88c6.82 1.32 7.92 1.98 8.58 3.52.66 1.32.88 5.06.88 17.82v30.14c0 19.8-2.42 22.88-12.54 22.88h-1.32c-2.2 0-2.42 3.74-1.76 5.72.44 1.1 2.2 1.1 3.08 1.1 11.66.66 30.8-.22 42.02.22 2.42-.22 3.08-1.1 3.08-3.74-.22-1.54-.88-3.74-1.98-3.74-11 0-13.42-1.32-13.42-12.76v-49.72c9.68-7.48 20.9-12.98 27.06-12.98 10.56 0 16.06 7.48 16.06 24.42 0 12.98 0 25.96-1.32 38.72-.88 9.02-3.74 11.44-13.42 12.32h-1.54c-1.32 0-1.76 2.2-1.76 3.74.22 2.86.66 3.52 3.52 3.52 11.44-.44 30.8.22 41.8 0 2.42 0 2.86.22 3.3-1.98z"/><path d="m475.2 97.9088c.22-27.94-21.78-49.28-50.16-49.28-28.16 0-49.5 20.9-49.5 49.06 0 27.72 21.56 48.84 50.16 48.84 27.72 0 49.5-21.34 49.5-48.62zm-19.58 5.28c0 20.68-11.88 35.2-27.28 35.2-18.26 0-33.66-20.9-33.66-47.74 0-19.8 11.88-34.1 27.28-34.1 18.04 0 33.66 21.12 33.66 46.64z"/></g><path d="m254 340h-1v-9h1v4h146v-4h1v9h-1v-4h-146z" fill="#e6594c"/></g></svg>