<svg style="background-color: #27272a" height="440" viewBox="0 0 800 440" width="800" xmlns="http://www.w3.org/2000/svg"><g fill="none" fill-rule="nonzero"><path d="m371.690859 321.8h-1v-9h1l-.000859 4h54l.000859-4h1v9h-1l-.000859-4h-54z" fill="#e6594c"/><g fill="#f5f5f5" transform="translate(160 142)"><path d="m80.74 95.92c0-25.3-18.48-45.1-43.56-45.1-6.16 0-9.9.66-14.74 2.42-1.76.88-3.52.22-3.3-1.76l1.54-27.5c.66-2.42 3.08-3.52 4.62-3.96l37.84.66c5.5-.44 6.38-1.54 7.48-4.18l1.76-12.32c.44-2.42-.22-3.3-1.54-4.18h-2.42c-.88 0-2.2.44-2.86 1.32-2.2 2.64-5.72 1.98-11.66 1.98l-31.46-.44c-3.3 0-9.46.66-9.9 5.28l-4.62 62.04c-.22 3.08 0 3.74 1.98 5.06 1.54 1.1 3.3-.22 4.4-.88 6.16-4.18 12.32-5.94 18.92-5.94 17.38 0 28.16 13.2 28.16 32.56s-10.78 35.2-25.52 35.2c-3.52 0-5.5-.66-8.36-3.08-5.06-4.4-11.44-12.1-18.7-12.1-4.84 0-8.8 3.96-8.8 8.8 0 9.24 13.86 14.96 31.02 14.96 29.26 0 49.72-21.56 49.72-48.84z"/><path d="m188.32 95.92c0-25.3-18.48-45.1-43.56-45.1-6.16 0-9.9.66-14.74 2.42-1.76.88-3.52.22-3.3-1.76l1.54-27.5c.66-2.42 3.08-3.52 4.62-3.96l37.84.66c5.5-.44 6.38-1.54 7.48-4.18l1.76-12.32c.44-2.42-.22-3.3-1.54-4.18h-2.42c-.88 0-2.2.44-2.86 1.32-2.2 2.64-5.72 1.98-11.66 1.98l-31.46-.44c-3.3 0-9.46.66-9.9 5.28l-4.62 62.04c-.22 3.08 0 3.74 1.98 5.06 1.54 1.1 3.3-.22 4.4-.88 6.16-4.18 12.32-5.94 18.92-5.94 17.38 0 28.16 13.2 28.16 32.56s-10.78 35.2-25.52 35.2c-3.52 0-5.5-.66-8.36-3.08-5.06-4.4-11.44-12.1-18.7-12.1-4.84 0-8.8 3.96-8.8 8.8 0 9.24 13.86 14.96 31.02 14.96 29.26 0 49.72-21.56 49.72-48.84z"/><path d="m212.190859 69.5792969h53.925782v19.8730469h-53.925782z"/><path d="m361.241719 136.84c-.44-2.64-1.54-4.4-3.74-4.4-1.98.22-5.72 0-8.8 0-6.82-.22-7.48-3.08-7.48-8.14v-2.64l-.22-117.26c-.22-1.98-2.2-4.4-4.62-4.4h-2.64c-1.98.44-4.18 2.42-4.84 3.52-1.98 2.42-3.96 4.62-10.34 10.34-8.58 8.14-14.74 12.98-22.22 18.26-.66.44-.88 1.54-.88 2.64l1.1 1.98c1.1 1.1 2.64 1.32 3.52.88 6.38-3.08 13.42-7.04 19.36-11.44 1.54-1.1 3.96.88 4.4 3.3l-.22 93.06c0 5.28-.22 9.46-6.6 9.68-1.98.88-4.84.22-8.14.22-2.64 0-4.18 1.54-5.28 3.74-.22 1.1 0 2.64.22 3.96.66 1.32 2.64 1.54 3.96 1.32 13.86-.44 36.08-.66 49.28.22 4.84.44 4.18-3.96 4.18-4.84z"/><path d="m481.581719 111.98c0-2.64-.44-3.3-1.76-3.3l-1.1-.44c-1.98.44-3.52 2.42-3.74 3.52-2.42 12.32-7.48 14.08-23.32 13.2-6.6-.44-21.34-.44-29.7 0-7.04-.66-6.38-3.08-5.06-4.4 16.06-16.72 33-31.46 47.3-49.94 7.04-9.02 13.42-18.26 13.42-30.58 0-22.88-13.2-40.04-36.96-40.04-23.54 0-41.36 16.5-45.1 42.24-.22 1.1 0 2.86 2.42 2.86 1.54 0 3.74-.66 4.4-2.64 5.5-16.72 18.26-26.84 31.9-26.84 15.18 0 22.88 11.66 22.88 27.5 0 27.28-18.7 43.78-35.86 61.38-13.2 13.64-21.12 22.44-26.62 28.82-.44.88-2.64 2.64-2.42 4.4l.22 1.76c.88 1.54 4.18 2.2 5.94 2.2 29.04-1.76 55.44 0 72.38 0 3.08 0 6.82-1.76 7.48-4.18.88-5.72 3.52-18.7 3.3-25.52z"/></g></g></svg>