<svg style="background-color: #27272a" height="440" viewBox="0 0 800 440" width="800" xmlns="http://www.w3.org/2000/svg"><g fill="none" fill-rule="evenodd"><g fill="#f5f5f5" fill-rule="nonzero" transform="translate(116 136.06)"><path d="m61.7785054 141.02c-2.42-.44-4.62 0-7.04-.22-2.64-.22-4.62-.22-6.16-.66-1.76-.22-2.86-.44-3.74-1.1-1.54-1.32-1.76-3.96-1.76-9.02v-77.44c0-2.86-8.58-1.54-9.46-.88-5.72 7.92-15.84 16.72-23.75999997 22.22-3.3 2.2-5.5 3.52-9.46 6.16-1.32 1.1.88 6.82 3.08 5.72 4.4-2.2 7.91999997-3.52 12.53999997-5.94 3.08-1.54 5.94-3.08 8.8-5.28.66-.44 1.1 0 1.32 1.32.22 1.1.22 2.64.44 3.74v51.04c0 5.28-1.76 7.7-4.62 9.02-1.32.66-3.08.88-4.84.88-1.98.44-4.18.22-6.38.22-.87999997-.22-2.63999997-.22-3.95999997.44-2.42 1.32-1.98 9.02.66 8.58 13.63999997-.44 36.29999997-.22 54.11999997 0 2.86 0 2.64-8.14.22-8.8z"/><path d="m172.438505 6.38c2.42-3.52.66-5.94-.88-5.94l-11-.44c-1.76 0-3.08 2.42-3.74 3.52-25.3 48.62-49.28 95.7-74.5799996 144.32-3.74 7.26 8.8 5.5 11.22 5.72 2.64.22 3.74-1.98 4.84-4.18z"/><path d="m255.398505 115.94c.22-1.32-1.1-1.98-2.42-2.2s-2.86 0-3.74.88c-2.42 6.38-4.62 10.78-6.38 13.86-2.42 4.4-3.96 4.84-9.46 5.06-12.1.44-24.2.22-36.08.22-.88 0-1.76-.44-1.98-.88-.44-.66-.44-1.1 0-1.54 17.82-12.54 47.74-33.88 47.74-56.76 0-14.52-13.64-25.74-30.36-25.74-14.74 0-25.52 5.94-38.94 21.12-1.76 3.74 3.96 4.84 4.84 3.96 9.68-8.8 16.94-12.1 25.52-12.1 12.54 0 21.56 8.8 21.56 21.34 0 9.24-5.06 17.6-18.7 29.7-11.22 9.9-21.78 18.04-40.26 30.8-.88 1.1-1.32 5.28.44 6.16h72.82 1.98c2.2 0 5.28-.44 5.94-3.08z"/><path d="m385.89374 88.22c.22-1.54.22-2.2-.22-3.52-1.98-2.42-3.3-4.4-4.4-7.04l-1.76-3.74c-6.38-13.2-16.28-19.36-31.68-19.36-25.96 0-45.1 21.34-45.1 49.94 0 26.62 17.38 47.74 40.7 47.74 8.8 0 18.48-3.74 25.96-9.46 5.72-4.62 11.44-10.34 15.62-15.18.88-1.54-.44-4.18-2.2-4.62-1.1-.22-2.64.22-3.3 1.1-8.58 10.12-16.72 14.08-27.28 14.08-18.7 0-33-16.5-33-39.16 0-2.86 0-4.18.44-6.6.22-1.54 2.42-2.2 4.18-2.2 14.08.22 42.02.66 58.96 0 1.32 0 2.86-.44 3.08-1.98zm-22.44-7.7c.44 1.98-3.52 2.64-5.28 2.64h-33c-.88 0-3.96-.66-3.52-1.76 4.18-13.2 11.88-20.02 21.34-20.02s17.16 7.04 20.46 19.14z"/><path d="m567.61374 146.3c.22-1.54.22-3.74-.88-4.18-.88-.66-3.08-.66-4.18-.44-12.76 0-14.74-1.32-14.74-8.36 0-11.66.88-23.1.88-34.76 0-17.82-.44-24.2-3.3-30.8-3.52-8.14-11-13.2-20.24-13.2-12.98 0-24.86 8.8-35.2 16.06-1.1.88-2.2.88-2.42 0-3.08-9.9-11-16.06-21.12-16.06-12.54 0-24.86 8.14-34.54 14.96-1.1.88-2.64 1.54-2.86-.22v-12.98c0-2.42-.44-4.62-3.3-3.96-10.12 2.64-22.66 6.6-28.82 9.46-1.1.44-1.76 5.72 0 5.94l5.06.66c6.16.88 8.14 1.76 9.02 3.52.66.88.66 4.84.66 16.5v31.46c0 18.92-1.98 21.78-11.66 22.22-1.54 0-4.18 0-4.84 1.54-.44 1.1-.66 3.3-.22 4.4.44 1.32 1.32 1.54 1.98 1.54 12.76-.44 35.64-.44 46.64 0 .88.22 1.98-1.54 2.2-3.08 0-1.76-.66-3.74-1.54-3.96-.22-.22-1.1-.22-1.98 0-11.22 0-13.2-1.98-13.2-13.2v-50.82c7.48-5.06 18.26-12.76 27.72-12.76 9.02 0 14.74 6.6 14.74 18.26v35.86c0 20.02-1.76 22.44-13.2 22.44-.88 0-2.2-.22-2.86.22-2.64 1.1-2.2 6.82.44 6.82 12.1-.22 34.76 0 45.76.22 1.1 0 2.2-1.98 2.2-3.74-.22-2.64-.66-3.3-3.08-3.3-9.68 0-12.1-2.42-12.1-13.2v-50.82c11.22-7.7 20.46-12.76 26.84-12.76 11.66 0 15.62 6.6 15.62 34.54 0 13.2-.44 21.78-1.1 30.8-.88 9.24-3.08 11.44-12.54 11.44h-2.2c-2.64 0-2.2 4.18-1.54 5.72s1.54 1.32 2.86 1.32c14.96-.22 33.66-.66 48.84 0 1.1.22 2.2-1.54 2.2-3.3z"/></g><g fill="#e6594c"><path d="m372.518505 136h45v150h-45z" fill-opacity=".25"/><path d="m373.518505 324h-1v-9h1l-.000505 4h44l.000505-4h1v9h-1l-.000505-4h-44z" fill-rule="nonzero"/></g></g></svg>