<svg style="background-color: #27272a" height="440" viewBox="0 0 800 440" width="800" xmlns="http://www.w3.org/2000/svg"><g fill="none" fill-rule="evenodd"><g fill="#f5f5f5" fill-rule="nonzero" transform="translate(115.5 132.013889)"><path d="m112.64 41.1461111c0-18.26-11.88-33.21999999-31.02-38.27999999-8.58-2.2-13.86-2.86-29.26-2.86-17.16 0-33-.22-50.6 1.98-1.32 0-1.76 1.98-1.76 3.74.22 1.54.88 3.3 1.76 3.08l11-.22c8.8-.22 10.56 3.73999999 10.56 17.81999999v101.4199999c0 8.36-3.08 9.02-13.42 9.02-3.3 0-6.38.66-6.6 4.84 0 1.1.22 1.98.66 2.86.44.66.88 1.32 3.96 1.32 15.62-.44 44-.44 61.16.22 3.08.66 3.96-8.14.22-9.24-2.86-.66-4.84 0-7.7 0-13.2.22-16.94-1.76-16.94-13.64v-33.6599999c.22-1.98.88-5.06 2.2-4.84 4.18.66 5.72 1.1 11 1.1 34.54 0 54.78-17.16 54.78-44.66zm-23.32-.66c0 22.88-10.34 38.28-33 38.28-3.74 0-5.06-.22-8.58-.88-1.54-.44-3.08-1.76-3.08-3.74v-62.04c0-1.76.44-4.83999999 2.2-5.05999999 9.68-1.32 18.7-1.1 27.5 3.73999999 9.24 4.84 14.96 15.62 14.96 29.7z"/><path d="m208.78 134.866111c.66-1.76.88-5.06-1.54-5.5-1.1 0-1.32.22-1.98.66-2.2 1.98-3.96 2.86-5.28 3.3-1.32.66-2.42.66-3.96.66-3.08 0-4.84-1.54-4.84-10.78v-40.0399999c0-13.86-.22-15.62-3.74-20.46-5.06-7.26-15.18-12.54-24.64-12.54-7.04 0-12.54 2.42-20.68 9.02-8.58 6.6-13.86 13.2-13.86 18.7 0 4.18 1.32 4.62 5.06 3.3 1.54-.44 11.66-4.84 13.2-6.6-.88-1.98-.66-3.3-.66-5.28 0-5.06 7.92-9.9 12.54-9.9 9.24 0 14.74 7.04 14.96 19.8l.22 14.08c0 2.2-1.76 3.52-2.42 3.96-7.48 3.5199999-12.98 5.9399999-20.9 8.1399999-15.18 3.96-23.32 11.22-23.32 22.44 0 11.66 8.8 19.8 21.34 19.8 8.36 0 12.98-2.2 22.44-10.34.66-.44 2.86-3.08 3.3-1.1 1.32 7.7 5.06 11.44 11.44 11.44 5.5 0 14.3-4.84 23.32-12.76zm-35.42-9.46c-1.76 5.06-12.98 11.66-17.38 11.66-6.82 0-12.1-5.28-12.1-12.1 0-5.94 3.08-9.9 11.88-13.42 5.28-2.2 10.56-4.4 15.62-6.82 1.98-1.1 1.98 3.52 1.98 4.4z"/><path d="m311.74 160.386111c0-9.46-3.3-16.72-11.22-20.24-10.12-4.62-21.56-4.84-34.76-5.06-27.28-.22-27.28-3.96-27.28-6.16 0-1.98 1.76-3.74 4.18-5.72 1.98-1.76 4.62-3.52 6.16-5.72 3.08.88 5.94 1.32 9.02 1.32 21.34 0 37.18-13.64 37.18-33.4399999 0-4.18-.22-6.6-1.98-11-.22-.66 1.54-1.98 2.2-1.76 4.62.66 12.32 1.54 13.64 1.54 1.76 0 1.98-1.54 2.2-2.86.22-3.74-.22-7.04-.66-10.78-.22-3.3-1.1-3.52-4.18-3.08-5.72.88-18.7 2.42-20.02 2.42h-1.76c-5.72-6.16-13.86-9.24-23.32-9.24-20.68 0-36.96 15.84-36.96 36.74 0 12.32 6.38 21.7799999 17.38 27.2799999 1.1.66-2.2 2.42-2.64 2.86-2.2 1.1-3.3 1.98-6.82 3.96-4.84 2.64-9.24 5.5-9.24 9.46 0 6.16 3.52 12.1 15.4 16.28 1.1.44.22 2.64-1.1 3.74-1.76 1.1-3.52 1.98-5.28 3.3-7.92 5.28-13.42 10.78-13.42 21.56 0 15.18 20.68 24.2 35.42 24.2 31.46 0 57.86-17.16 57.86-39.6zm-33-73.6999999c0 15.6199999-7.7 24.4199999-18.48 24.4199999-11 0-19.8-10.56-19.8-28.5999999 0-14.08 7.7-24.64 18.04-24.64 11.44 0 20.24 11.88 20.24 28.82zm20.02 79.6399999c0 11.22-18.7 22.44-32.78 22.44-16.06 0-31.68-7.48-31.46-18.92 0-5.72 7.48-12.98 11.44-16.94 1.32-1.32 2.42-2.42 2.86-3.3 9.68.44 15.84 0 25.52.66 18.7 1.54 24.42 6.16 24.42 16.06z"/><path d="m407.66 84.2661111c.22-1.54.22-2.2-.22-3.52-1.98-2.42-3.3-4.4-4.4-7.04l-1.76-3.74c-6.38-13.2-16.28-19.36-31.68-19.36-25.96 0-45.1 21.34-45.1 49.9399999 0 26.62 17.38 47.74 40.7 47.74 8.8 0 18.48-3.74 25.96-9.46 5.72-4.62 11.44-10.34 15.62-15.18.88-1.54-.44-4.18-2.2-4.62-1.1-.22-2.64.22-3.3 1.1-8.58 10.12-16.72 14.08-27.28 14.08-18.7 0-33-16.5-33-39.1599999 0-2.86 0-4.18.44-6.6.22-1.54 2.42-2.2 4.18-2.2 14.08.22 42.02.66 58.96 0 1.32 0 2.86-.44 3.08-1.98zm-22.44-7.7c.44 1.98-3.52 2.64-5.28 2.64h-33c-.88 0-3.96-.66-3.52-1.76 4.18-13.2 11.88-20.02 21.34-20.02s17.16 7.04 20.46 19.14z"/><path d="m563.42 111.986111c.22-1.32-1.1-1.98-2.42-2.2s-2.86 0-3.74.88c-2.42 6.38-4.62 10.78-6.38 13.86-2.42 4.4-3.96 4.84-9.46 5.06-12.1.44-24.2.22-36.08.22-.88 0-1.76-.44-1.98-.88-.44-.66-.44-1.1 0-1.54 17.82-12.54 47.74-33.8799999 47.74-56.7599999 0-14.52-13.64-25.74-30.36-25.74-14.74 0-25.52 5.94-38.94 21.12-1.76 3.74 3.96 4.84 4.84 3.96 9.68-8.8 16.94-12.1 25.52-12.1 12.54 0 21.56 8.8 21.56 21.34 0 9.24-5.06 17.6-18.7 29.6999999-11.22 9.9-21.78 18.04-40.26 30.8-.88 1.1-1.32 5.28.44 6.16h72.82 1.98c2.2 0 5.28-.44 5.94-3.08z"/></g><g fill="#e6594c"><path d="m524 133h64v145h-64z" fill-opacity=".25"/><path d="m524 316h-1v-9h1v4h64v-4h1v9h-1v-4h-64z" fill-rule="nonzero"/></g></g></svg>