<svg style="background-color: #27272a" height="440" viewBox="0 0 800 440" width="800" xmlns="http://www.w3.org/2000/svg"><g fill="none" fill-rule="evenodd"><path d="m120 125.5 557.767694.5" stroke="#e6594c" stroke-linecap="square"/><path d="m120.000952 181-.000952 1 3.088565.002773.000952-.999999zm5.147608.004623-.000952 1 3.088565.002773.000951-.999999zm5.147608.004623-.000952 1 3.088564.002773.000952-.999999zm5.147607.004623-.000952 1 3.088565.002773.000952-.999999zm5.147608.004623-.000952 1 3.088565.002773.000952-.999999zm5.147608.004623-.000952 1 3.088565.002773.000952-.999999zm5.147608.004623-.000952 1 3.088565.002773.000952-.999999zm5.147608.004623-.000952 1 3.088564.002773.000952-.999999zm5.147607.004623-.000951 1 3.088564.002773.000952-.999999zm5.147608.004623-.000952 1 3.088565.002773.000952-.999999zm5.147608.004623-.000952 1 3.088565.002773.000952-.999999zm5.147608.004623-.000952 1 3.088565.002773.000952-.999999zm5.147608.004623-.000952 1 3.088565.002773.000951-.999999zm5.147608.004623-.000952 1 3.088564.002773.000952-.999999zm5.147607.004623-.000951 1 3.088564.002773.000952-.999999zm5.147608.004623-.000952 1 3.088565.002773.000952-.999999zm5.147608.004623-.000952 1 3.088565.002773.000952-.999999zm5.147608.004623-.000952 1 3.088565.002773.000952-.999999zm5.147608.004623-.000952 1 3.088565.002773.000951-.999999zm5.147608.004623-.000952 1 3.088564.002773.000952-.999999zm5.147607.004623-.000952 1 3.088565.002773.000952-.999999zm5.147608.004623-.000952 1 3.088565.002773.000952-.999999zm5.147608.004623-.000952 1 3.088565.002773.000952-.999999zm5.147608.004623-.000952 1 3.088565.002773.000952-.999999zm5.147608.004623-.000952 1 3.088564.002773.000952-.999999zm5.147608.004623-.000952 1 3.088564.002773.000952-.999999zm5.147607.004623-.000952 1 3.088565.002773.000952-.999999zm5.147608.004623-.000952 1 3.088565.002773.000952-.999999zm5.147608.004623-.000952 1 3.088565.002773.000952-.999999zm5.147608.004623-.000952 1 3.088565.002773.000952-.999999zm5.147608.004623-.000952 1 3.088564.002773.000952-.999999zm5.147607.004623-.000951 1 3.088564.002773.000952-.999999zm5.147608.004623-.000952 1 3.088565.002773.000952-.999999zm5.147608.004623-.000952 1 3.088565.002773.000952-.999999zm5.147608.004623-.000952 1 3.088565.002773.000952-.999999zm5.147608.004623-.000952 1 3.088565.002773.000951-.999999zm5.147608.004623-.000952 1 3.088564.002773.000952-.999999zm5.147607.004623-.000951 1 3.088564.002773.000952-.999999zm5.147608.004623-.000952 1 3.088565.002773.000952-.999999zm5.147608.004623-.000952 1 3.088565.002773.000952-.999999zm5.147608.004623-.000952 1 3.088565.002773.000952-.999999zm5.147608.004623-.000952 1 3.088565.002773.000951-.999999zm5.147608.004623-.000952 1 3.088564.002773.000952-.999999zm5.147607.004623-.000952 1 3.088565.002773.000952-.999999zm5.147608.004623-.000952 1 3.088565.002773.000952-.999999zm5.147608.004623-.000952 1 3.088565.002773.000952-.999999zm5.147608.004623-.000952 1 3.088565.002773.000952-.999999zm5.147608.004623-.000952 1 3.088564.002773.000952-.999999zm5.147607.004623-.000951 1 3.088564.002773.000952-.999999zm5.147608.004623-.000952 1 3.088565.002773.000952-.999999zm5.147608.004623-.000952 1 3.088565.002773.000952-.999999zm5.147608.004623-.000952 1 3.088565.002773.000952-.999999zm5.147608.004623-.000952 1 3.088565.002773.000951-.999999zm5.147608.004623-.000952 1 3.088564.002773.000952-.999999zm5.147607.004623-.000951 1 3.088564.002773.000952-.999999zm5.147608.004623-.000952 1 3.088565.002773.000952-.999999zm5.147608.004623-.000952 1 3.088565.002773.000952-.999999zm5.147608.004623-.000952 1 3.088565.002773.000952-1zm5.147608.004623-.000952 1 3.088565.002773.000951-1zm5.147608.004623-.000952 1 3.088564.002773.000952-1zm5.147607.004623-.000952 1 3.088565.002773.000952-1zm5.147608.004623-.000952 1 3.088565.002773.000952-1zm5.147608.004623-.000952 1 3.088565.002773.000952-1zm5.147608.004623-.000952 1 3.088565.002773.000952-1zm5.147608.004623-.000952 1 3.088564.002773.000952-1zm5.147608.004623-.000952 1 3.088564.002773.000952-1zm5.147607.004623-.000952 1 3.088565.002773.000952-1zm5.147608.004623-.000952 1 3.088565.002773.000952-1zm5.147608.004623-.000952 1 3.088565.002773.000952-1zm5.147608.004623-.000952 1 3.088565.002773.000952-1zm5.147608.004623-.000952 1 3.088564.002773.000952-1zm5.147607.004623-.000951 1 3.088564.002773.000952-1zm5.147608.004623-.000952 1 3.088565.002773.000952-1zm5.147608.004623-.000952 1 3.088565.002773.000952-1zm5.147608.004623-.000952 1 3.088565.002773.000952-1zm5.147608.004623-.000952 1 3.088565.002773.000951-1zm5.147608.004623-.000952 1 3.088564.002773.000952-1zm5.147607.004623-.000951 1 3.088564.002773.000952-1zm5.147608.004623-.000952 1 3.088565.002773.000952-1zm5.147608.004623-.000952 1 3.088565.002773.000952-1zm5.147608.004623-.000952 1 3.088565.002773.000952-1zm5.147608.004623-.000952 1 3.088565.002773.000951-1zm5.147608.004623-.000952 1 3.088564.002773.000952-1zm5.147607.004623-.000952 1 3.088565.002773.000952-1zm5.147608.004623-.000952 1 3.088565.002773.000952-1zm5.147608.004623-.000952 1 3.088565.002773.000952-1zm5.147608.004623-.000952 1 3.088565.002773.000952-1zm5.147608.004623-.000952 1 3.088564.002773.000952-1zm5.147607.004623-.000951 1 3.088564.002773.000952-1zm5.147608.004623-.000952 1 3.088565.002773.000952-1zm5.147608.004623-.000952 1 3.088565.002773.000952-1zm5.147608.004623-.000952 1 3.088565.002773.000952-1zm5.147608.004623-.000952 1 3.088565.002773.000951-1zm5.147608.004623-.000952 1 3.088564.002773.000952-1zm5.147607.004623-.000951 1 3.088564.002773.000952-1zm5.147608.004623-.000952 1 3.088565.002773.000952-1zm5.147608.004622-.000952 1 3.088565.002774.000952-1zm5.147608.004623-.000952 1 3.088565.002774.000952-1zm5.147608.004623-.000952 1 3.088565.002774.000951-1zm5.147608.004623-.000952 1 3.088564.002774.000952-1zm5.147607.004623-.000952 1 3.088565.002774.000952-1zm5.147608.004623-.000952 1 3.088565.002774.000952-1zm5.147608.004623-.000952 1 3.088565.002774.000952-1zm5.147608.004623-.000952 1 3.088565.002774.000952-1zm5.147608.004623-.000952 1 3.088564.002774.000952-1zm5.147608.004623-.000952 1 3.088564.002774.000952-1zm5.147607.004623-.000952 1 3.088565.002774.000952-1zm5.147608.004623-.000952 1 3.088565.002774.000952-1zm5.147608.004623-.000952 1 1.827403.001641.000952-.999999z" fill="#e6594c" fill-rule="nonzero"/><path d="m120 279.06 557.767694.5" stroke="#e6594c" stroke-linecap="square"/><g fill="#f5f5f5" fill-rule="nonzero"><g transform="translate(120 124)"><path d="m0 155.554842h11.4546511c1.5128784-3.894279 9.2933962-24.014725 16.2094119-39.808193l6.0515138-14.495375h70.8891612l24.422181 55.601662 10.806274-1.298094c-1.945129-3.894279-9.725647-20.985841-17.290039-37.861053l-52.0862435-117.693789-3.2418824.64904663c-4.1063844 11.25014157-9.7256472 23.79837647-19.6674198 46.94770627zm69.1601575-136.299792 31.5543215 73.3422692h-63.1086434z"/><path d="m181.689497 157.93468c15.777161 0 29.393067-9.519351 34.580079-22.500283-.864502 17.740608 5.835388 21.634888 12.967529 21.634888 4.106385 0 7.564393-1.298094 10.157899-3.028885l.648376-7.139513c-2.37738 1.298094-5.403137 2.596187-8.212769 2.596187-4.970886 0-7.564392-2.812536-7.348266-12.980933l1.296753-42.8370774c.648376-25.0964697-12.751405-37.4283557-33.715577-37.4283557-11.454651 0-21.828675 3.4615821-31.986573 9.3030017l2.37738 8.6539551c7.780518-5.192373 18.154542-9.5193506 28.528565-9.5193506 17.29004 0 25.935059 10.1683972 25.502808 30.9378894l-.216125 5.1923735c-4.754761-.432698-9.509522-.865396-15.34491-.865396-35.660706 0-48.628236 14.495375-48.628236 31.154238 0 14.928073 10.157898 26.827261 29.393067 26.827261zm1.94513-8.004908c-15.34491 0-21.828675-9.086653-21.828675-19.471399 0-11.899189 8.64502-23.582028 38.902588-23.582028 4.754761 0 10.157899.216349 15.34491.865396l-.432251 9.51935c-.648376 18.822352-14.696533 32.668681-31.986572 32.668681z"/></g><g transform="translate(389.184301 134.565037)"><path d="m81.9115616 40.6735888c-12.5352786.4326978-26.1511846.6490467-40.6315926.6490467s-27.664063-.2163489-40.19934154-.6490467c0 2.8125354-.43225098 6.4904663-1.08062746 9.3030017 11.0224001-.2163489 25.5028081-.2163489 39.9832161-.2163489 11.2385256 0 22.6931766 0 32.2026983.2163489l-43.008973 89.7847835c-5.1870118 10.817444-14.2642824 28.558052-18.3706668 35.481216l9.2933962 4.759675c1.5128784-4.326977 7.3482667-16.442514 11.886902-25.745516l42.7928475-88.9193882c3.4580079-7.3558618 7.1321413-15.3607703 9.9417727-20.3367944z"/><path d="m96.6441159 110.554276c0 20.985841 18.1545411 36.779309 42.5767221 36.779309 25.935059 0 44.305726-17.30791 44.305726-39.808193 0-16.226166-13.399781-29.6397964-33.0672-37.2120071 17.506164-6.923164 29.176941-17.3079101 29.176941-34.8321691 0-19.25505-15.993286-35.4812158-38.254212-35.4812158-23.341553 0-39.550965 16.6588635-39.550965 36.3466113 0 17.7406079 12.751404 28.3417028 28.312439 34.8321691-20.315796 6.9231641-33.4994511 19.6877478-33.4994511 39.3754956zm77.1568011-2.163489c0 17.091561-13.399781 30.505192-33.931703 30.505192-19.019043 0-33.715576-11.899188-33.715576-28.99075 0-17.9569564 12.967529-28.7744002 33.931702-35.0485177 20.964173 6.4904663 33.715577 18.1733057 33.715577 33.5340757zm-62.676393-72.2605246c0-15.5771191 11.670776-27.90900508 29.825318-27.90900508 17.073914 0 29.393067 12.11553708 29.393067 27.69265618 0 15.1444214-11.238526 25.0964697-29.176942 30.9378894-17.72229-6.4904663-30.041443-14.9280725-30.041443-30.7215405z"/><path d="m209.281518 172.430055 3.241883 8.004908c47.115357-10.817444 76.292298-44.567868 76.292298-89.5684348 0-30.5051916-15.993286-52.572777-44.521851-52.572777-26.583436 0-45.386353 21.4185388-45.386353 46.9477062 0 23.1493296 17.073914 41.9716826 41.063843 41.9716826 13.615906 0 26.36731-5.625071 36.741334-13.62998-7.996643 29.639796-32.634949 51.058335-67.431154 58.846895zm33.067201-53.654522c-20.315797 0-33.715577-15.144421-33.715577-34.1831222 0-20.3367944 14.264282-37.6447046 35.228455-37.6447046 24.422181 0 35.660706 19.9040967 35.660706 44.3515198 0 4.3269775-.432251 8.4376062-.864502 12.548235-10.157898 9.086653-23.773804 14.928072-36.309082 14.928072z"/></g></g></g></svg>