<svg style="background-color: #27272a" height="440" viewBox="0 0 800 440" width="800" xmlns="http://www.w3.org/2000/svg"><g fill="none" fill-rule="evenodd"><g fill="#f5f5f5" fill-rule="nonzero" transform="translate(118 128)"><path d="m289.536 75.936c0 11.712-3.376 22.608-10.128 32.688s-15.952 18.032-27.6 23.856-24.32 8.736-38.016 8.736c-16.64 0-32.08-3.904-46.32-11.712s-24.528-18.4-30.864-31.776c2.048 4.352 3.072 8.928 3.072 13.728 0 8.192-2.912 15.2-8.736 21.024s-12.832 8.736-21.024 8.736c-8.768 0-16.24-3.104-22.416-9.312s-9.264-13.664-9.264-22.368c0-9.728 2.816-17.984 8.448-24.768s13.76-11.776 24.384-14.976c-5.696-4.032-12.8-7.408-21.312-10.128s-16.288-4.08-23.328-4.08c-14.144 0-26.384 4.608-36.72 13.824s-15.504 20.672-15.504 34.368c2.368-1.28 5.248-1.92 8.64-1.92 5.376 0 9.984 1.92 13.824 5.76s5.76 8.448 5.76 13.824-1.92 10.016-5.76 13.92-8.448 5.856-13.824 5.856c-6.592 0-12.048-2.784-16.368-8.352s-6.48-13.024-6.48-22.368c0-10.624 3.056-20.656 9.168-30.096s14.336-16.976 24.672-22.608 21.2-8.448 32.592-8.448c6.464 0 14.672 1.328 24.624 3.984s17.52 5.712 22.704 9.168c-2.688-4.224-5.056-9.28-7.104-15.168s-3.072-10.848-3.072-14.88c0-8.192 3.072-15.36 9.216-21.504s13.312-9.216 21.504-9.216 15.2 2.912 21.024 8.736 8.736 12.832 8.736 21.024c0 5.696-1.536 11.008-4.608 15.936 2.56-.768 4.16-1.152 4.8-1.152 7.104 0 13.456 2.176 19.056 6.528s12.464 13.696 20.592 28.032c8 14.208 14.848 23.536 20.544 27.984s12.064 6.672 19.104 6.672c7.104 0 13.584-1.824 19.44-5.472s10.656-8.784 14.4-15.408 5.616-12.848 5.616-18.672c0-5.888-1.568-10.688-4.704-14.4s-7.136-5.568-12-5.568c-3.072 0-5.6.976-7.584 2.928s-2.976 4.432-2.976 7.44c0 1.92.256 3.712.768 5.376-4.096 0-7.376-1.248-9.84-3.744s-3.696-5.728-3.696-9.696c0-4.352 1.712-8.08 5.136-11.184s7.504-4.656 12.24-4.656c8.768 0 15.824 3.104 21.168 9.312s8.016 14.272 8.016 24.192zm-45.984 45.888c-5.696 0-10.944-1.12-15.744-3.36s-9.328-5.68-13.584-10.32-9.648-12.752-16.176-24.336c-7.36-12.992-13.408-21.456-18.144-25.392s-9.952-5.904-15.648-5.904c-.768 0-2.048.128-3.84.384-1.984.256-3.392.384-4.224.384-2.048 0-3.072-1.024-3.072-3.072 0-.448.096-.896.288-1.344 2.88-5.952 4.32-11.744 4.32-17.376 0-6.784-2.128-12.384-6.384-16.8s-9.936-6.624-17.04-6.624c-6.848 0-12.656 2.336-17.424 7.008s-7.152 10.464-7.152 17.376c0 4.352 1.424 10.288 4.272 17.808s5.712 13.264 8.592 17.232c7.872 0 15.824 2.112 23.856 6.336s19.088 12.928 33.168 26.112c11.712 11.008 20.496 18.176 26.352 21.504s11.472 4.992 16.848 4.992c9.472 0 16.384-1.536 20.736-4.608z"/><path d="m564.672 88.032c-3.264.192-8.64 1.152-16.128 2.88-11.392 2.56-20.448 3.84-27.168 3.84s-13.376-.896-19.968-2.688c4.736 4.736 7.104 11.136 7.104 19.2 0 6.72-2.336 12.4-7.008 17.04s-10.336 6.96-16.992 6.96c-6.464 0-12.016-2.4-16.656-7.2s-6.96-10.784-6.96-17.952c0-2.176.192-4.416.576-6.72 4.288 5.76 8.96 8.64 14.016 8.64 7.04 0 10.56-3.776 10.56-11.328 0-5.632-2.88-11.44-8.64-17.424s-13.216-10.656-22.368-14.016-19.168-5.04-30.048-5.04c-15.488 0-27.968 3.408-37.44 10.224s-14.816 16.08-16.032 27.792c1.216-.384 3.072-1.024 5.568-1.92 12.096-4.224 23.84-6.336 35.232-6.336 10.816 0 19.152 2.368 25.008 7.104s8.784 11.456 8.784 20.16c0 8.256-3.776 15.408-11.328 21.456s-16.96 9.072-28.224 9.072c-13.376 0-24.112-3.472-32.208-10.416s-12.816-16.72-14.16-29.328c-2.56.512-5.888.768-9.984.768-24.32 0-36.48-9.28-36.48-27.84 0-6.208 1.456-12.096 4.368-17.664s7.088-10.496 12.528-14.784 9.28-6.432 11.52-6.432c1.984 0 3.76 2 5.328 6s2.352 8.112 2.352 12.336-.768 6.4-2.304 6.528c-16.64 1.6-24.96 7.168-24.96 16.704 0 12.672 9.216 19.008 27.648 19.008 3.456 0 6.656-.448 9.6-1.344 0-12.928 3.424-24.736 10.272-35.424s16.368-19.184 28.56-25.488 25.008-9.456 38.448-9.456c10.24 0 23.104.8 38.592 2.4 9.024.96 15.232 1.44 18.624 1.44 12.032 0 18.048-4.032 18.048-12.096 0-3.392-1.168-6.064-3.504-8.016s-5.392-2.928-9.168-2.928c-2.432 0-5.184.512-8.256 1.536 6.72-11.52 14.528-17.28 23.424-17.28 6.72 0 12.304 2.192 16.752 6.576s6.672 9.872 6.672 16.464c0 6.72-2.208 12.592-6.624 17.616s-10.336 8.208-17.76 9.552c6.528 2.112 12.656 5.056 18.384 8.832s12.688 9.856 20.88 18.24c5.184 5.312 9.024 8.896 11.52 10.752zm-32.544-64.992c0-5.056-1.6-9.136-4.8-12.24s-7.36-4.656-12.48-4.656c-4.16 0-7.936 1.6-11.328 4.8 4.032 0 7.536 1.584 10.512 4.752s4.464 6.832 4.464 10.992c0 8.96-3.392 15.36-10.176 19.2 15.872-2.432 23.808-10.048 23.808-22.848zm19.2 60.96c-10.944-11.2-19.712-18.688-26.304-22.464 2.56 2.56 3.84 5.824 3.84 9.792 0 3.456-1.008 6.8-3.024 10.032s-4.656 5.648-7.92 7.248h3.456c7.36 0 17.344-1.536 29.952-4.608zm-48.96 27.264c0-8.192-2.88-14.464-8.64-18.816.256 2.56.384 4.352.384 5.376 0 6.272-1.744 11.264-5.232 14.976s-7.952 5.568-13.392 5.568c-2.624 0-5.184-.832-7.68-2.496.96 3.904 2.992 7.088 6.096 9.552s6.64 3.696 10.608 3.696c5.056 0 9.296-1.696 12.72-5.088s5.136-7.648 5.136-12.768zm-63.168 9.984c0-6.656-2.32-11.84-6.96-15.552s-11.28-5.568-19.92-5.568c-9.344 0-20.096 2.048-32.256 6.144-3.968 1.344-6.88 2.24-8.736 2.688.384 24.448 12.128 36.672 35.232 36.672 9.344 0 17.12-2.448 23.328-7.344s9.312-10.576 9.312-17.04z"/></g><text fill="#e6594c" font-family="SFProText-Regular, SF Pro Text" font-size="16"><tspan x="360.40625" y="328">Ornaments</tspan></text></g></svg>