<svg style="background-color: #27272a" height="400" viewBox="0 0 800 400" width="800" xmlns="http://www.w3.org/2000/svg" xmlns:xlink="http://www.w3.org/1999/xlink"><defs><path id="a" d="m90 185h280v30h-280z"/><mask id="b" fill="#fff" height="30" width="280" x="0" y="0"><use xlink:href="#a"/></mask><path id="c" d="m0 0h280v30h-280z"/><mask id="d" fill="#fff" height="30" width="280" x="0" y="0"><use xlink:href="#c"/></mask></defs><g fill="none" fill-rule="evenodd"><use mask="url(#b)" stroke="#f5f5f5" stroke-dasharray="4 3" stroke-width="4" xlink:href="#a"/><g fill="#e6594c"><path d="m90 155h280v30h-280z" fill-opacity=".5" opacity=".25" transform="matrix(1 0 0 -1 0 340)"/><path d="m90 215h280v30h-280z" fill-opacity=".5" opacity=".25" transform="matrix(1 0 0 -1 0 460)"/><g fill-rule="nonzero" transform="translate(225.319082 157.480136)"><path d="m.68091839 24.0198644v-1h4v-20.09099997l-3.56421223 6.33613062-.24513062.43578777-.87157554-.49026124.24513062-.43578777 4.5-8 .43578777-.77473381.43578777.77473381 4.50000004 8 .2451306.43578777-.87157556.49026124-.24513062-.43578777-3.56421223-6.33613062v20.09099997h4v1z"/><g transform="translate(15.149668 9.727872)"><path d="m0 5.38574219c0 .80566406 1.01074219 1.54785156 2.32910156 1.54785156 1.46972656 0 2.50488282-.81542969 2.50488282-1.98242187 0-.84472657-.61035157-1.53808594-1.42089844-1.61621094v-.08300782c.67382812-.09765624 1.21582031-.76171874 1.21582031-1.484375 0-1.04003906-.94726563-1.76757812-2.29492187-1.76757812-1.27441407 0-2.2265625.71777344-2.2265625 1.49902344 0 .31738281.22460937.53710937.53710937.53710937.22949219 0 .40039063-.10253906.546875-.34667969.25878906-.43945312.63476563-.6640625 1.11816406-.6640625.62011719 0 1.04980469.36621094 1.04980469.90332032 0 .53710937-.43945312.92773437-1.04003906.92773437h-.45410156c-.29785157 0-.50781251.21972657-.50781251.51269531 0 .30273438.21484375.52246094.50781251.52246094h.47851562c.71777344 0 1.20117187.41015625 1.20117187 1.015625s-.47363281 1.00097656-1.20605468 1.00097656c-.546875 0-.98144532-.23925781-1.26464844-.68847656-.18066406-.26367187-.34179687-.36621094-.55664062-.36621094-.29785157 0-.51757813.22460938-.51757813.53222657z"/><path d="m5.58105469 3.62304688c0 2.01171874.94238281 3.31054687 2.52441406 3.31054687s2.54882815-1.31347656 2.54882815-3.31054687v-.3125c0-2.01660157-.93750002-3.31054688-2.5292969-3.31054688-1.58691406 0-2.54394531 1.30859375-2.54394531 3.31054688zm1.31835937-.30761719c0-1.40625.45898438-2.24121094 1.21582032-2.24121094.75683593 0 1.21582031.83984375 1.21582031 2.24121094v.29785156c0 1.40625-.45898438 2.24609375-1.21582031 2.24609375-.75683594 0-1.21582032-.83984375-1.21582032-2.24609375z"/><path d="m12.9589844 7.92480469v-1.92382813h.0634765c.2294922.546875.7617188.859375 1.4697266.859375 1.2158203 0 1.9482422-.86914062 1.9482422-2.30957031v-.71777344c0-1.44042969-.7226563-2.3046875-1.9287109-2.3046875-.7275391 0-1.2988282.34667969-1.5087891.90332031h-.0634766v-.24902343c-.0292969-.40039063-.2539062-.62011719-.6347656-.62011719-.4052734 0-.6298828.25390625-.6298828.71289062v5.64941407c0 .45410156.2294922.70800781.6396484.70800781.4150391 0 .6445313-.25390625.6445313-.70800781zm0-3.35449219v-.68847656c0-.83007813.415039-1.32324219 1.0888672-1.32324219.6884765 0 1.0791015.5078125 1.0791015 1.40136719v.46875c0 .88867187-.390625 1.40136718-1.0693359 1.40136718-.6591797 0-1.0986328-.49804687-1.0986328-1.25976562z"/><path d="m17.2070312 6.25c0 .33691406.2587891.59082031.5712891.59082031.2832031 0 .4589844-.12695312.6738281-.45410156l.9033204-1.38671875h.0634765l.9228516 1.39160156c.2050781.31738282.3955078.44921875.6835937.44921875.3125 0 .5712891-.25390625.5712891-.59570312 0-.17089844-.0634766-.32226563-.2001953-.46386719l-1.2646485-1.57714844 1.2988282-1.61621094c.102539-.11230468.15625-.26367187.15625-.41992187 0-.34179687-.2539063-.59082031-.5761719-.59082031-.2783203 0-.4541016.12695312-.6689453.44921875l-.9228516 1.38671875h-.0634765l-.9277344-1.38671875c-.209961-.32226563-.390625-.44921875-.6689453-.44921875-.3222657 0-.5859375.24902344-.5859375.5859375 0 .16113281.0683593.33203125.1708984.43945312l1.3037109 1.6015625-1.2841797 1.62109375c-.0976562.10742188-.15625.26855469-.15625.42480469z"/></g></g><g fill-rule="nonzero" transform="translate(225.319082 218.5)"><path d="m9.68091839 0v1l-4-.001v20.092l3.56421223-6.3361306.24513062-.4357878.87157556.4902613-.2451306.4357877-4.50000004 8-.43578777.7747338-.43578777-.7747338-4.5-8-.24513062-.4357877.87157554-.4902613.24513062.4357878 3.56421223 6.3361306v-20.091h-4v-1l4 .001v-.001z"/><g transform="translate(15.149668 8.708008)"><path d="m0 5.38574219c0 .80566406 1.01074219 1.54785156 2.32910156 1.54785156 1.46972656 0 2.50488282-.81542969 2.50488282-1.98242187 0-.84472657-.61035157-1.53808594-1.42089844-1.61621094v-.08300782c.67382812-.09765624 1.21582031-.76171874 1.21582031-1.484375 0-1.04003906-.94726563-1.76757812-2.29492187-1.76757812-1.27441407 0-2.2265625.71777344-2.2265625 1.49902344 0 .31738281.22460937.53710937.53710937.53710937.22949219 0 .40039063-.10253906.546875-.34667969.25878906-.43945312.63476563-.6640625 1.11816406-.6640625.62011719 0 1.04980469.36621094 1.04980469.90332032 0 .53710937-.43945312.92773437-1.04003906.92773437h-.45410156c-.29785157 0-.50781251.21972657-.50781251.51269531 0 .30273438.21484375.52246094.50781251.52246094h.47851562c.71777344 0 1.20117187.41015625 1.20117187 1.015625s-.47363281 1.00097656-1.20605468 1.00097656c-.546875 0-.98144532-.23925781-1.26464844-.68847656-.18066406-.26367187-.34179687-.36621094-.55664062-.36621094-.29785157 0-.51757813.22460938-.51757813.53222657z"/><path d="m5.58105469 3.62304688c0 2.01171874.94238281 3.31054687 2.52441406 3.31054687s2.54882815-1.31347656 2.54882815-3.31054687v-.3125c0-2.01660157-.93750002-3.31054688-2.5292969-3.31054688-1.58691406 0-2.54394531 1.30859375-2.54394531 3.31054688zm1.31835937-.30761719c0-1.40625.45898438-2.24121094 1.21582032-2.24121094.75683593 0 1.21582031.83984375 1.21582031 2.24121094v.29785156c0 1.40625-.45898438 2.24609375-1.21582031 2.24609375-.75683594 0-1.21582032-.83984375-1.21582032-2.24609375z"/><path d="m12.9589844 7.92480469v-1.92382813h.0634765c.2294922.546875.7617188.859375 1.4697266.859375 1.2158203 0 1.9482422-.86914062 1.9482422-2.30957031v-.71777344c0-1.44042969-.7226563-2.3046875-1.9287109-2.3046875-.7275391 0-1.2988282.34667969-1.5087891.90332031h-.0634766v-.24902343c-.0292969-.40039063-.2539062-.62011719-.6347656-.62011719-.4052734 0-.6298828.25390625-.6298828.71289062v5.64941407c0 .45410156.2294922.70800781.6396484.70800781.4150391 0 .6445313-.25390625.6445313-.70800781zm0-3.35449219v-.68847656c0-.83007813.415039-1.32324219 1.0888672-1.32324219.6884765 0 1.0791015.5078125 1.0791015 1.40136719v.46875c0 .88867187-.390625 1.40136718-1.0693359 1.40136718-.6591797 0-1.0986328-.49804687-1.0986328-1.25976562z"/><path d="m17.2070312 6.25c0 .33691406.2587891.59082031.5712891.59082031.2832031 0 .4589844-.12695312.6738281-.45410156l.9033204-1.38671875h.0634765l.9228516 1.39160156c.2050781.31738282.3955078.44921875.6835937.44921875.3125 0 .5712891-.25390625.5712891-.59570312 0-.17089844-.0634766-.32226563-.2001953-.46386719l-1.2646485-1.57714844 1.2988282-1.61621094c.102539-.11230468.15625-.26367187.15625-.41992187 0-.34179687-.2539063-.59082031-.5761719-.59082031-.2783203 0-.4541016.12695312-.6689453.44921875l-.9228516 1.38671875h-.0634765l-.9277344-1.38671875c-.209961-.32226563-.390625-.44921875-.6689453-.44921875-.3222657 0-.5859375.24902344-.5859375.5859375 0 .16113281.0683593.33203125.1708984.43945312l1.3037109 1.6015625-1.2841797 1.62109375c-.0976562.10742188-.15625.26855469-.15625.42480469z"/></g></g><path d="m226 210.5v-1h4v-19h-4v-1h9v1h-4v19h4v1z" fill-rule="nonzero"/><g fill-rule="nonzero" transform="translate(240.366211 196.208008)"><path d="m0 3.62304688c0 2.01171874.94238281 3.31054687 2.52441406 3.31054687s2.54882813-1.31347656 2.54882813-3.31054687v-.3125c0-2.01660157-.9375-3.31054688-2.52929688-3.31054688-1.58691406 0-2.54394531 1.30859375-2.54394531 3.31054688zm1.31835938-.30761719c0-1.40625.45898437-2.24121094 1.21582031-2.24121094.75683593 0 1.21582031.83984375 1.21582031 2.24121094v.29785156c0 1.40625-.45898438 2.24609375-1.21582031 2.24609375-.75683594 0-1.21582031-.83984375-1.21582031-2.24609375z"/><path d="m7.37792969 7.92480469v-1.92382813h.06347656c.22949219.546875.76171875.859375 1.46972656.859375 1.21582029 0 1.94824219-.86914062 1.94824219-2.30957031v-.71777344c0-1.44042969-.7226562-2.3046875-1.92871094-2.3046875-.72753906 0-1.29882812.34667969-1.50878906.90332031h-.06347656v-.24902343c-.02929688-.40039063-.25390625-.62011719-.63476563-.62011719-.40527343 0-.62988281.25390625-.62988281.71289062v5.64941407c0 .45410156.22949219.70800781.63964844.70800781.41503906 0 .64453125-.25390625.64453125-.70800781zm0-3.35449219v-.68847656c0-.83007813.41503906-1.32324219 1.08886719-1.32324219.68847656 0 1.07910156.5078125 1.07910156 1.40136719v.46875c0 .88867187-.390625 1.40136718-1.06933594 1.40136718-.65917969 0-1.09863281-.49804687-1.09863281-1.25976562z"/><path d="m11.6259766 6.25c0 .33691406.258789.59082031.571289.59082031.2832032 0 .4589844-.12695312.6738282-.45410156l.9033203-1.38671875h.0634765l.9228516 1.39160156c.2050781.31738282.3955078.44921875.6835937.44921875.3125 0 .5712891-.25390625.5712891-.59570312 0-.17089844-.0634766-.32226563-.2001953-.46386719l-1.2646485-1.57714844 1.2988282-1.61621094c.102539-.11230468.15625-.26367187.15625-.41992187 0-.34179687-.2539063-.59082031-.5761719-.59082031-.2783203 0-.4541016.12695312-.6689453.44921875l-.9228516 1.38671875h-.0634765l-.9277344-1.38671875c-.2099609-.32226563-.390625-.44921875-.6689453-.44921875-.3222656 0-.5859375.24902344-.5859375.5859375 0 .16113281.0683593.33203125.1708984.43945312l1.3037109 1.6015625-1.2841796 1.62109375c-.0976563.10742188-.15625.26855469-.15625.42480469z"/></g></g><g transform="translate(430 185)"><use mask="url(#d)" stroke="#f5f5f5" stroke-dasharray="4 3" stroke-width="4" xlink:href="#c"/><g fill="#e6594c" fill-rule="nonzero"><path d="m136 25.5v-1h4v-19h-4v-1h9v1h-4v19h4v1z"/><g transform="translate(150.366211 11.208008)"><path d="m0 3.62304688c0 2.01171874.94238281 3.31054687 2.52441406 3.31054687s2.54882813-1.31347656 2.54882813-3.31054687v-.3125c0-2.01660157-.9375-3.31054688-2.52929688-3.31054688-1.58691406 0-2.54394531 1.30859375-2.54394531 3.31054688zm1.31835938-.30761719c0-1.40625.45898437-2.24121094 1.21582031-2.24121094.75683593 0 1.21582031.83984375 1.21582031 2.24121094v.29785156c0 1.40625-.45898438 2.24609375-1.21582031 2.24609375-.75683594 0-1.21582031-.83984375-1.21582031-2.24609375z"/><path d="m7.37792969 7.92480469v-1.92382813h.06347656c.22949219.546875.76171875.859375 1.46972656.859375 1.21582029 0 1.94824219-.86914062 1.94824219-2.30957031v-.71777344c0-1.44042969-.7226562-2.3046875-1.92871094-2.3046875-.72753906 0-1.29882812.34667969-1.50878906.90332031h-.06347656v-.24902343c-.02929688-.40039063-.25390625-.62011719-.63476563-.62011719-.40527343 0-.62988281.25390625-.62988281.71289062v5.64941407c0 .45410156.22949219.70800781.63964844.70800781.41503906 0 .64453125-.25390625.64453125-.70800781zm0-3.35449219v-.68847656c0-.83007813.41503906-1.32324219 1.08886719-1.32324219.68847656 0 1.07910156.5078125 1.07910156 1.40136719v.46875c0 .88867187-.390625 1.40136718-1.06933594 1.40136718-.65917969 0-1.09863281-.49804687-1.09863281-1.25976562z"/><path d="m11.6259766 6.25c0 .33691406.258789.59082031.571289.59082031.2832032 0 .4589844-.12695312.6738282-.45410156l.9033203-1.38671875h.0634765l.9228516 1.39160156c.2050781.31738282.3955078.44921875.6835937.44921875.3125 0 .5712891-.25390625.5712891-.59570312 0-.17089844-.0634766-.32226563-.2001953-.46386719l-1.2646485-1.57714844 1.2988282-1.61621094c.102539-.11230468.15625-.26367187.15625-.41992187 0-.34179687-.2539063-.59082031-.5761719-.59082031-.2783203 0-.4541016.12695312-.6689453.44921875l-.9228516 1.38671875h-.0634765l-.9277344-1.38671875c-.2099609-.32226563-.390625-.44921875-.6689453-.44921875-.3222656 0-.5859375.24902344-.5859375.5859375 0 .16113281.0683593.33203125.1708984.43945312l1.3037109 1.6015625-1.2841796 1.62109375c-.0976563.10742188-.15625.26855469-.15625.42480469z"/></g></g></g></g></svg>