<svg style="background-color: #27272a" height="507" viewBox="0 0 800 507" width="800" xmlns="http://www.w3.org/2000/svg"
     xmlns:xlink="http://www.w3.org/1999/xlink">
    <defs>
        <path id="a2" d="m0 0h276v30h-276z"/>
        <mask id="b2" fill="#fff">
            <use fill="#fff" fill-rule="evenodd" transform="matrix(1 0 0 -1 0 30)" xlink:href="#a2"/>
        </mask>
    </defs>
    <g fill="none" fill-rule="evenodd">
        <path d="m370 130v280h-280v-280" stroke="#f5f5f5" stroke-width="2"/>
        <path d="m431 131h278v278h-278z" stroke="#f5f5f5" stroke-width="2"/>
        <path d="m89 130h282" stroke="#f5f5f5" stroke-width="4"/>
        <path d="m90 163h138v138h-138z" fill="#525252" stroke="#f5f5f5" stroke-width="2"/>
        <g transform="translate(430 162)">
            <path d="m1 31h138v138h-138z" fill="#525252" stroke="#f5f5f5" stroke-width="2"/>
            <g fill="#e6594c">
                <path d="m0 0h140v30h-140z" fill-opacity=".5" opacity=".25" transform="matrix(1 0 0 -1 0 30)"/>
                <path d="m66 27.5v-1h4v-23h-4v-1h.5 8 .5v1l-4-.001v23.001h4v1z" fill-rule="nonzero"/>
                <g fill-rule="nonzero" transform="translate(80.46875 13.208008)">
                    <path d="m0 5.38574219c0 .80566406 1.01074219 1.54785156 2.32910156 1.54785156 1.46972656 0 2.50488282-.81542969 2.50488282-1.98242187 0-.84472657-.61035157-1.53808594-1.42089844-1.61621094v-.08300782c.67382812-.09765624 1.21582031-.76171874 1.21582031-1.484375 0-1.04003906-.94726563-1.76757812-2.29492187-1.76757812-1.27441407 0-2.2265625.71777344-2.2265625 1.49902344 0 .31738281.22460937.53710937.53710937.53710937.22949219 0 .40039063-.10253906.546875-.34667969.25878906-.43945312.63476563-.6640625 1.11816406-.6640625.62011719 0 1.04980469.36621094 1.04980469.90332032 0 .53710937-.43945312.92773437-1.04003906.92773437h-.45410156c-.29785157 0-.50781251.21972657-.50781251.51269531 0 .30273438.21484375.52246094.50781251.52246094h.47851562c.71777344 0 1.20117187.41015625 1.20117187 1.015625s-.47363281 1.00097656-1.20605468 1.00097656c-.546875 0-.98144532-.23925781-1.26464844-.68847656-.18066406-.26367187-.34179687-.36621094-.55664062-.36621094-.29785157 0-.51757813.22460938-.51757813.53222657z"/>
                    <path d="m5.58105469 3.62304688c0 2.01171874.94238281 3.31054687 2.52441406 3.31054687s2.54882815-1.31347656 2.54882815-3.31054687v-.3125c0-2.01660157-.93750002-3.31054688-2.5292969-3.31054688-1.58691406 0-2.54394531 1.30859375-2.54394531 3.31054688zm1.31835937-.30761719c0-1.40625.45898438-2.24121094 1.21582032-2.24121094.75683593 0 1.21582031.83984375 1.21582031 2.24121094v.29785156c0 1.40625-.45898438 2.24609375-1.21582031 2.24609375-.75683594 0-1.21582032-.83984375-1.21582032-2.24609375z"/>
                    <path d="m12.9589844 7.92480469v-1.92382813h.0634765c.2294922.546875.7617188.859375 1.4697266.859375 1.2158203 0 1.9482422-.86914062 1.9482422-2.30957031v-.71777344c0-1.44042969-.7226563-2.3046875-1.9287109-2.3046875-.7275391 0-1.2988282.34667969-1.5087891.90332031h-.0634766v-.24902343c-.0292969-.40039063-.2539062-.62011719-.6347656-.62011719-.4052734 0-.6298828.25390625-.6298828.71289062v5.64941407c0 .45410156.2294922.70800781.6396484.70800781.4150391 0 .6445313-.25390625.6445313-.70800781zm0-3.35449219v-.68847656c0-.83007813.415039-1.32324219 1.0888672-1.32324219.6884765 0 1.0791015.5078125 1.0791015 1.40136719v.46875c0 .88867187-.390625 1.40136718-1.0693359 1.40136718-.6591797 0-1.0986328-.49804687-1.0986328-1.25976562z"/>
                    <path d="m17.2070312 6.25c0 .33691406.2587891.59082031.5712891.59082031.2832031 0 .4589844-.12695312.6738281-.45410156l.9033204-1.38671875h.0634765l.9228516 1.39160156c.2050781.31738282.3955078.44921875.6835937.44921875.3125 0 .5712891-.25390625.5712891-.59570312 0-.17089844-.0634766-.32226563-.2001953-.46386719l-1.2646485-1.57714844 1.2988282-1.61621094c.102539-.11230468.15625-.26367187.15625-.41992187 0-.34179687-.2539063-.59082031-.5761719-.59082031-.2783203 0-.4541016.12695312-.6689453.44921875l-.9228516 1.38671875h-.0634765l-.9277344-1.38671875c-.209961-.32226563-.390625-.44921875-.6689453-.44921875-.3222657 0-.5859375.24902344-.5859375.5859375 0 .16113281.0683593.33203125.1708984.43945312l1.3037109 1.6015625-1.2841797 1.62109375c-.0976562.10742188-.15625.26855469-.15625.42480469z"/>
                </g>
            </g>
        </g>
        <g fill="#e6594c">
            <path d="m89 98h282v30h-282z" fill-opacity=".5" opacity=".25" transform="matrix(1 0 0 -1 0 226)"/>
            <path d="m90 132h140v30h-140z" fill-opacity=".5" opacity=".25" transform="matrix(1 0 0 -1 0 294)"/>
            <path d="m155 125.5v-1h4v-23h-4v-1h9v1h-4v23h4v1z" fill-rule="nonzero"/>
            <g fill-rule="nonzero" transform="translate(169.46875 109.208008)">
                <path d="m0 5.38574219c0 .80566406 1.01074219 1.54785156 2.32910156 1.54785156 1.46972656 0 2.50488282-.81542969 2.50488282-1.98242187 0-.84472657-.61035157-1.53808594-1.42089844-1.61621094v-.08300782c.67382812-.09765624 1.21582031-.76171874 1.21582031-1.484375 0-1.04003906-.94726563-1.76757812-2.29492187-1.76757812-1.27441407 0-2.2265625.71777344-2.2265625 1.49902344 0 .31738281.22460937.53710937.53710937.53710937.22949219 0 .40039063-.10253906.546875-.34667969.25878906-.43945312.63476563-.6640625 1.11816406-.6640625.62011719 0 1.04980469.36621094 1.04980469.90332032 0 .53710937-.43945312.92773437-1.04003906.92773437h-.45410156c-.29785157 0-.50781251.21972657-.50781251.51269531 0 .30273438.21484375.52246094.50781251.52246094h.47851562c.71777344 0 1.20117187.41015625 1.20117187 1.015625s-.47363281 1.00097656-1.20605468 1.00097656c-.546875 0-.98144532-.23925781-1.26464844-.68847656-.18066406-.26367187-.34179687-.36621094-.55664062-.36621094-.29785157 0-.51757813.22460938-.51757813.53222657z"/>
                <path d="m5.58105469 3.62304688c0 2.01171874.94238281 3.31054687 2.52441406 3.31054687s2.54882815-1.31347656 2.54882815-3.31054687v-.3125c0-2.01660157-.93750002-3.31054688-2.5292969-3.31054688-1.58691406 0-2.54394531 1.30859375-2.54394531 3.31054688zm1.31835937-.30761719c0-1.40625.45898438-2.24121094 1.21582032-2.24121094.75683593 0 1.21582031.83984375 1.21582031 2.24121094v.29785156c0 1.40625-.45898438 2.24609375-1.21582031 2.24609375-.75683594 0-1.21582032-.83984375-1.21582032-2.24609375z"/>
                <path d="m12.9589844 7.92480469v-1.92382813h.0634765c.2294922.546875.7617188.859375 1.4697266.859375 1.2158203 0 1.9482422-.86914062 1.9482422-2.30957031v-.71777344c0-1.44042969-.7226563-2.3046875-1.9287109-2.3046875-.7275391 0-1.2988282.34667969-1.5087891.90332031h-.0634766v-.24902343c-.0292969-.40039063-.2539062-.62011719-.6347656-.62011719-.4052734 0-.6298828.25390625-.6298828.71289062v5.64941407c0 .45410156.2294922.70800781.6396484.70800781.4150391 0 .6445313-.25390625.6445313-.70800781zm0-3.35449219v-.68847656c0-.83007813.415039-1.32324219 1.0888672-1.32324219.6884765 0 1.0791015.5078125 1.0791015 1.40136719v.46875c0 .88867187-.390625 1.40136718-1.0693359 1.40136718-.6591797 0-1.0986328-.49804687-1.0986328-1.25976562z"/>
                <path d="m17.2070312 6.25c0 .33691406.2587891.59082031.5712891.59082031.2832031 0 .4589844-.12695312.6738281-.45410156l.9033204-1.38671875h.0634765l.9228516 1.39160156c.2050781.31738282.3955078.44921875.6835937.44921875.3125 0 .5712891-.25390625.5712891-.59570312 0-.17089844-.0634766-.32226563-.2001953-.46386719l-1.2646485-1.57714844 1.2988282-1.61621094c.102539-.11230468.15625-.26367187.15625-.41992187 0-.34179687-.2539063-.59082031-.5761719-.59082031-.2783203 0-.4541016.12695312-.6689453.44921875l-.9228516 1.38671875h-.0634765l-.9277344-1.38671875c-.209961-.32226563-.390625-.44921875-.6689453-.44921875-.3222657 0-.5859375.24902344-.5859375.5859375 0 .16113281.0683593.33203125.1708984.43945312l1.3037109 1.6015625-1.2841797 1.62109375c-.0976562.10742188-.15625.26855469-.15625.42480469z"/>
            </g>
            <path d="m155 159.5v-1h4v-23h-4v-1h9v1h-4v23h4v1z" fill-rule="nonzero"/>
            <g fill-rule="nonzero" transform="translate(170.46875 145.208008)">
                <path d="m0 5.38574219c0 .80566406 1.01074219 1.54785156 2.32910156 1.54785156 1.46972656 0 2.50488282-.81542969 2.50488282-1.98242187 0-.84472657-.61035157-1.53808594-1.42089844-1.61621094v-.08300782c.67382812-.09765624 1.21582031-.76171874 1.21582031-1.484375 0-1.04003906-.94726563-1.76757812-2.29492187-1.76757812-1.27441407 0-2.2265625.71777344-2.2265625 1.49902344 0 .31738281.22460937.53710937.53710937.53710937.22949219 0 .40039063-.10253906.546875-.34667969.25878906-.43945312.63476563-.6640625 1.11816406-.6640625.62011719 0 1.04980469.36621094 1.04980469.90332032 0 .53710937-.43945312.92773437-1.04003906.92773437h-.45410156c-.29785157 0-.50781251.21972657-.50781251.51269531 0 .30273438.21484375.52246094.50781251.52246094h.47851562c.71777344 0 1.20117187.41015625 1.20117187 1.015625s-.47363281 1.00097656-1.20605468 1.00097656c-.546875 0-.98144532-.23925781-1.26464844-.68847656-.18066406-.26367187-.34179687-.36621094-.55664062-.36621094-.29785157 0-.51757813.22460938-.51757813.53222657z"/>
                <path d="m5.58105469 3.62304688c0 2.01171874.94238281 3.31054687 2.52441406 3.31054687s2.54882815-1.31347656 2.54882815-3.31054687v-.3125c0-2.01660157-.93750002-3.31054688-2.5292969-3.31054688-1.58691406 0-2.54394531 1.30859375-2.54394531 3.31054688zm1.31835937-.30761719c0-1.40625.45898438-2.24121094 1.21582032-2.24121094.75683593 0 1.21582031.83984375 1.21582031 2.24121094v.29785156c0 1.40625-.45898438 2.24609375-1.21582031 2.24609375-.75683594 0-1.21582032-.83984375-1.21582032-2.24609375z"/>
                <path d="m12.9589844 7.92480469v-1.92382813h.0634765c.2294922.546875.7617188.859375 1.4697266.859375 1.2158203 0 1.9482422-.86914062 1.9482422-2.30957031v-.71777344c0-1.44042969-.7226563-2.3046875-1.9287109-2.3046875-.7275391 0-1.2988282.34667969-1.5087891.90332031h-.0634766v-.24902343c-.0292969-.40039063-.2539062-.62011719-.6347656-.62011719-.4052734 0-.6298828.25390625-.6298828.71289062v5.64941407c0 .45410156.2294922.70800781.6396484.70800781.4150391 0 .6445313-.25390625.6445313-.70800781zm0-3.35449219v-.68847656c0-.83007813.415039-1.32324219 1.0888672-1.32324219.6884765 0 1.0791015.5078125 1.0791015 1.40136719v.46875c0 .88867187-.390625 1.40136718-1.0693359 1.40136718-.6591797 0-1.0986328-.49804687-1.0986328-1.25976562z"/>
                <path d="m17.2070312 6.25c0 .33691406.2587891.59082031.5712891.59082031.2832031 0 .4589844-.12695312.6738281-.45410156l.9033204-1.38671875h.0634765l.9228516 1.39160156c.2050781.31738282.3955078.44921875.6835937.44921875.3125 0 .5712891-.25390625.5712891-.59570312 0-.17089844-.0634766-.32226563-.2001953-.46386719l-1.2646485-1.57714844 1.2988282-1.61621094c.102539-.11230468.15625-.26367187.15625-.41992187 0-.34179687-.2539063-.59082031-.5761719-.59082031-.2783203 0-.4541016.12695312-.6689453.44921875l-.9228516 1.38671875h-.0634765l-.9277344-1.38671875c-.209961-.32226563-.390625-.44921875-.6689453-.44921875-.3222657 0-.5859375.24902344-.5859375.5859375 0 .16113281.0683593.33203125.1708984.43945312l1.3037109 1.6015625-1.2841797 1.62109375c-.0976562.10742188-.15625.26855469-.15625.42480469z"/>
            </g>
            <path d="m430 100h280v30h-280z" fill-opacity=".5" opacity=".25" transform="matrix(1 0 0 -1 0 230)"/>
            <path d="m566 127.5v-1h4v-23h-4v-1h9v1h-4v23h4v1z" fill-rule="nonzero"/>
            <g fill-rule="nonzero" transform="translate(578.46875 111.208008)">
                <path d="m0 5.38574219c0 .80566406 1.01074219 1.54785156 2.32910156 1.54785156 1.46972656 0 2.50488282-.81542969 2.50488282-1.98242187 0-.84472657-.61035157-1.53808594-1.42089844-1.61621094v-.08300782c.67382812-.09765624 1.21582031-.76171874 1.21582031-1.484375 0-1.04003906-.94726563-1.76757812-2.29492187-1.76757812-1.27441407 0-2.2265625.71777344-2.2265625 1.49902344 0 .31738281.22460937.53710937.53710937.53710937.22949219 0 .40039063-.10253906.546875-.34667969.25878906-.43945312.63476563-.6640625 1.11816406-.6640625.62011719 0 1.04980469.36621094 1.04980469.90332032 0 .53710937-.43945312.92773437-1.04003906.92773437h-.45410156c-.29785157 0-.50781251.21972657-.50781251.51269531 0 .30273438.21484375.52246094.50781251.52246094h.47851562c.71777344 0 1.20117187.41015625 1.20117187 1.015625s-.47363281 1.00097656-1.20605468 1.00097656c-.546875 0-.98144532-.23925781-1.26464844-.68847656-.18066406-.26367187-.34179687-.36621094-.55664062-.36621094-.29785157 0-.51757813.22460938-.51757813.53222657z"/>
                <path d="m5.58105469 3.62304688c0 2.01171874.94238281 3.31054687 2.52441406 3.31054687s2.54882815-1.31347656 2.54882815-3.31054687v-.3125c0-2.01660157-.93750002-3.31054688-2.5292969-3.31054688-1.58691406 0-2.54394531 1.30859375-2.54394531 3.31054688zm1.31835937-.30761719c0-1.40625.45898438-2.24121094 1.21582032-2.24121094.75683593 0 1.21582031.83984375 1.21582031 2.24121094v.29785156c0 1.40625-.45898438 2.24609375-1.21582031 2.24609375-.75683594 0-1.21582032-.83984375-1.21582032-2.24609375z"/>
                <path d="m12.9589844 7.92480469v-1.92382813h.0634765c.2294922.546875.7617188.859375 1.4697266.859375 1.2158203 0 1.9482422-.86914062 1.9482422-2.30957031v-.71777344c0-1.44042969-.7226563-2.3046875-1.9287109-2.3046875-.7275391 0-1.2988282.34667969-1.5087891.90332031h-.0634766v-.24902343c-.0292969-.40039063-.2539062-.62011719-.6347656-.62011719-.4052734 0-.6298828.25390625-.6298828.71289062v5.64941407c0 .45410156.2294922.70800781.6396484.70800781.4150391 0 .6445313-.25390625.6445313-.70800781zm0-3.35449219v-.68847656c0-.83007813.415039-1.32324219 1.0888672-1.32324219.6884765 0 1.0791015.5078125 1.0791015 1.40136719v.46875c0 .88867187-.390625 1.40136718-1.0693359 1.40136718-.6591797 0-1.0986328-.49804687-1.0986328-1.25976562z"/>
                <path d="m17.2070312 6.25c0 .33691406.2587891.59082031.5712891.59082031.2832031 0 .4589844-.12695312.6738281-.45410156l.9033204-1.38671875h.0634765l.9228516 1.39160156c.2050781.31738282.3955078.44921875.6835937.44921875.3125 0 .5712891-.25390625.5712891-.59570312 0-.17089844-.0634766-.32226563-.2001953-.46386719l-1.2646485-1.57714844 1.2988282-1.61621094c.102539-.11230468.15625-.26367187.15625-.41992187 0-.34179687-.2539063-.59082031-.5761719-.59082031-.2783203 0-.4541016.12695312-.6689453.44921875l-.9228516 1.38671875h-.0634765l-.9277344-1.38671875c-.209961-.32226563-.390625-.44921875-.6689453-.44921875-.3222657 0-.5859375.24902344-.5859375.5859375 0 .16113281.0683593.33203125.1708984.43945312l1.3037109 1.6015625-1.2841797 1.62109375c-.0976562.10742188-.15625.26855469-.15625.42480469z"/>
            </g>
            <g transform="translate(432 132)">
                <use fill-opacity=".1" transform="matrix(1 0 0 -1 0 30)" xlink:href="#a2"/>
                <path d="m31.8087452-2.20709356.7114183.70276883-32.31371111 32.71141833-.71141829-.7027689zm-7.9027356 0 .7114183.70276883-32.31371107 32.71141833-.71141829-.7027689zm-7.9027355 0 .7114182.70276883-32.313711 32.71141833-.7114183-.7027689zm-7.90273561 0 .71141829.70276883-32.31371108 32.71141833-.7114183-.7027689zm31.61094221 0 .7114183.70276883-32.31371105 32.71141833-.71141828-.7027689zm7.9027356 0 .7114183.70276883-32.3137111 32.71141833-.7114183-.7027689zm7.9027356 0 .7114183.70276883-32.3137111 32.71141833-.7114183-.7027689zm7.9027355 0 .7114183.70276883-32.3137111 32.71141833-.7114182-.7027689zm7.9027356 0 .7114183.70276883-32.3137111 32.71141833-.7114183-.7027689zm7.9027356 0 .7114182.70276883-32.313711 32.71141833-.7114183-.7027689zm7.9027355 0 .7114183.70276883-32.3137111 32.71141833-.7114183-.7027689zm7.9027356 0 .7114183.70276883-32.3137111 32.71141833-.7114183-.7027689zm7.9027353 0 .711419.70276883-32.3137115 32.71141833-.7114183-.7027689zm7.902736 0 .711418.70276883-32.313711 32.71141833-.7114183-.7027689zm7.902735 0 .711419.70276883-32.3137114 32.71141833-.7114183-.7027689zm7.902736 0 .711418.70276883-32.3137109 32.71141833-.7114182-.7027689zm7.902735 0 .711419.70276883-32.313711 32.71141833-.711419-.7027689zm7.902736 0 .711418.70276883-32.313711 32.71141833-.711418-.7027689zm7.902736 0 .711418.70276883-32.313711 32.71141833-.711418-.7027689zm7.902735 0 .711418.70276883-32.313711 32.71141833-.711418-.7027689zm7.902736 0 .711418.70276883-32.313711 32.71141833-.711418-.7027689zm7.902735 0 .711419.70276883-32.313711 32.71141833-.711419-.7027689zm7.902736 0 .711418.70276883-32.313711 32.71141833-.711418-.7027689zm7.902735 0 .711419.70276883-32.313711 32.71141833-.711419-.7027689zm7.902736 0 .711418.70276883-32.313711 32.71141833-.711418-.7027689zm7.902736 0 .711418.70276883-32.313711 32.71141833-.711419-.7027689zm7.902735 0 .711418.70276883-32.313711 32.71141833-.711418-.7027689zm7.902736 0 .711418.70276883-32.313711 32.71141833-.711418-.7027689zm7.902735 0 .711419.70276883-32.313712 32.71141833-.711418-.7027689zm7.902736 0 .711418.70276883-32.313711 32.71141833-.711418-.7027689zm7.902735 0 .711419.70276883-32.313711 32.71141833-.711419-.7027689zm7.902736 0 .711418.70276883-32.313711 32.71141833-.711418-.7027689zm7.902735 0 .711419.70276883-32.313711 32.71141833-.711419-.7027689zm7.902736 0 .711418.70276883-32.313711 32.71141833-.711418-.7027689zm7.902736 0 .711418.70276883-32.313711 32.71141833-.711418-.7027689zm7.902735 0 .711418.70276883-32.313711 32.71141833-.711418-.7027689zm7.902736 0 .711418.70276883-32.313711 32.71141833-.711418-.7027689zm7.902735 0 .711419.70276883-32.313711 32.71141833-.711419-.7027689z"
                      fill-rule="nonzero" mask="url(#b2)"/>
            </g>
        </g>
    </g>
</svg>