<svg style="background-color: #27272a" height="440" viewBox="0 0 800 440" width="800" xmlns="http://www.w3.org/2000/svg"><g fill="none" fill-rule="evenodd"><path d="m107.000849 192-.000849 1 3 .002546.000848-1zm4.999998.004243-.000849 1 3 .002546.000848-1zm4.999998.004244-.000849 1 3 .002545.000848-1zm4.999998.004243-.000848 1 3 .002545.000847-.999999zm4.999998.004243-.000848 1 3 .002546.000847-1zm4.999999.004243-.000849 1 3 .002546.000848-1zm4.999998.004244-.000849 1 3 .002545.000848-.999999zm4.999998.004243-.000849 1 3 .002545.000848-.999999zm4.999998.004243-.000848 1 3 .002546.000847-1zm4.999998.004243-.000848 1 3 .002546.000847-1zm4.999999.004244-.000849 1 3 .002545.000848-.999999zm4.999998.004243-.000849 1 3 .002545.000848-.999999zm4.999998.004243-.000849 1 3 .002546.000848-1zm4.999998.004243-.000848 1 3 .002546.000847-1zm4.999998.004244-.000848 1 3 .002545.000847-.999999zm4.999999.004243-.000849 1 3 .002546.000848-1zm4.999998.004243-.000849 1 3 .002546.000848-1zm4.999998.004243-.000849 1 3 .002546.000848-1zm4.999998.004244-.000848 1 3 .002545.000847-.999999zm4.999998.004243-.000848 1 3 .002546.000847-1zm4.999999.004243-.000849 1 3 .002546.000848-1zm4.999998.004243-.000849 1 3 .002546.000848-1zm4.999998.004244-.000849 1 3 .002545.000848-.999999zm4.999998.004243-.000848 1 3 .002546.000847-1zm4.999998.004243-.000848 1 3 .002546.000847-1zm4.999999.004244-.000849 1 3 .002545.000848-1zm4.999998.004243-.000849 1 3 .002545.000848-.999999zm4.999998.004243-.000849 1 3 .002546.000848-1zm4.999998.004243-.000848 1 3 .002546.000847-1zm4.999998.004244-.000848 1 3 .002545.000847-.999999zm4.999999.004243-.000849 1 3 .002545.000848-.999999zm4.999998.004243-.000849 1 3 .002546.000848-1zm4.999998.004243-.000849 1 3 .002546.000848-1zm4.999998.004244-.000848 1 3 .002545.000847-.999999zm4.999998.004243-.000848 1 3 .002545.000847-.999999zm4.999999.004243-.000849 1 3 .002546.000848-1zm4.999998.004243-.000849 1 3 .002546.000848-1zm4.999998.004244-.000849 1 3 .002545.000848-.999999zm4.999998.004243-.000848 1 3 .002546.000847-1zm4.999998.004243-.000848 1 3 .002546.000847-1zm4.999999.004243-.000849 1 3 .002546.000848-1zm4.999998.004244-.000849 1 3 .002545.000848-.999999zm4.999998.004243-.000849 1 3 .002546.000848-1zm4.999998.004243-.000848 1 3 .002546.000847-1zm4.999998.004243-.000848 1 3 .002546.000847-1zm4.999999.004244-.000849 1 3 .002545.000848-.999999zm4.999998.004243-.000849 1 3 .002546.000848-1zm4.999998.004243-.000849 1 3 .002546.000848-1zm4.999998.004244-.000848 1 3 .002545.000847-1zm4.999998.004243-.000848 1 3 .002545.000847-.999999zm4.999999.004243-.000849 1 3 .002546.000848-1zm4.999998.004243-.000849 1 3 .002546.000848-1zm4.999998.004244-.000849 1 3 .002545.000848-.999999zm4.999998.004243-.000848 1 3 .002545.000847-.999999zm4.999998.004243-.000848 1 3 .002546.000847-1zm4.999999.004243-.000849 1 3 .002546.000848-1zm4.999998.004244-.000849 1 3 .002545.000848-.999999zm4.999998.004243-.000849 1 3 .002545.000848-.999999zm4.999998.004243-.000848 1 3 .002546.000847-1zm4.999998.004243-.000848 1 3 .002546.000847-1zm4.999999.004244-.000849 1 3 .002545.000848-.999999zm4.999998.004243-.000849 1 3 .002546.000848-1zm4.999998.004243-.000849 1 3 .002546.000848-1zm4.999998.004243-.000848 1 3 .002546.000847-1zm4.999998.004244-.000848 1 3 .002545.000847-.999999zm4.999999.004243-.000849 1 3 .002546.000848-1zm4.999998.004243-.000849 1 3 .002546.000848-1zm4.999998.004243-.000849 1 3 .002546.000848-1zm4.999998.004244-.000848 1 3 .002545.000847-.999999zm4.999998.004243-.000848 1 3 .002546.000847-1zm4.999999.004243-.000849 1 3 .002546.000848-1zm4.999998.004244-.000849 1 3 .002545.000848-1zm4.999998.004243-.000849 1 3 .002545.000848-.999999zm4.999998.004243-.000848 1 3 .002546.000847-1zm4.999998.004243-.000848 1 3 .002546.000847-1zm4.999999.004244-.000849 1 3 .002545.000848-.999999zm4.999998.004243-.000849 1 3 .002545.000848-.999999zm4.999998.004243-.000849 1 3 .002546.000848-1zm4.999998.004243-.000848 1 3 .002546.000847-1zm4.999998.004244-.000848 1 3 .002545.000847-.999999zm4.999999.004243-.000849 1 3 .002545.000848-.999999zm4.999998.004243-.000849 1 3 .002546.000848-1zm4.999998.004243-.000849 1 3 .002546.000848-1zm4.999998.004244-.000848 1 3 .002545.000847-.999999zm4.999998.004243-.000848 1 3 .002546.000847-1zm4.999999.004243-.000849 1 3 .002546.000848-1zm4.999998.004243-.000849 1 3 .002546.000848-1zm4.999998.004244-.000849 1 3 .002545.000848-.999999zm4.999998.004243-.000848 1 3 .002546.000847-1zm4.999998.004243-.000848 1 3 .002546.000847-1zm4.999999.004243-.000849 1 3 .002546.000848-1zm4.999998.004244-.000849 1 3 .002545.000848-.999999zm4.999998.004243-.000849 1 3 .002546.000848-1zm4.999998.004243-.000848 1 3 .002546.000847-1zm4.999998.004244-.000848 1 3 .002545.000847-1zm4.999999.004243-.000849 1 3 .002545.000848-.999999zm4.999998.004243-.000849 1 3 .002546.000848-1zm4.999998.004243-.000849 1 3 .002546.000848-1zm4.999998.004244-.000848 1 3 .002545.000847-.999999zm4.999998.004243-.000848 1 3 .002545.000847-.999999zm4.999999.004243-.000849 1 3 .002546.000848-1zm4.999998.004243-.000849 1 3 .002546.000848-1zm4.999998.004244-.000849 1 3 .002545.000848-.999999zm4.999998.004243-.000848 1 3 .002545.000847-.999999zm4.999998.004243-.000848 1 3 .002546.000847-1zm4.999999.004243-.000849 1 3 .002546.000848-1zm4.999998.004244-.000849 1 3 .002545.000848-.999999zm4.999998.004243-.000849 1 3 .002546.000848-1zm4.999998.004243-.000848 1 3 .002546.000847-1zm4.999998.004243-.000848 1 3 .002546.000847-1zm4.999999.004244-.000849 1 3 .002545.000848-.999999zm4.999998.004243-.000849 1 3 .002546.000848-1zm4.999998.004243-.000849 1 3 .002546.000848-1zm4.999998.004243-.000848 1 3 .002546.000847-1zm4.999998.004244-.000848 1 3 .002545.000847-.999999zm4.999999.004243-.000849 1 3 .002546.000848-1zm4.999998.004243-.000849 1 3 .002546.000848-1zm4.999998.004244-.000849 1 3 .002545.000848-1z" fill="#e6594c" fill-rule="nonzero"/><path d="m106 124.5 589.169298.5" stroke="#e6594c" stroke-linecap="square"/><path d="m105.835565 258.62 589.169298.5" stroke="#e6594c" stroke-linecap="square"/><text fill="#e6594c" font-family="IdealSans-Book, Ideal Sans" font-size="16"><tspan x="212.069142" y="358">Stacked fractions off</tspan></text><text fill="#e6594c" font-family="IdealSans-Book, Ideal Sans" font-size="16"><tspan x="524.037142" y="358">Stacked fractions on</tspan></text><g fill="#f5f5f5" fill-rule="nonzero"><g transform="translate(135.789142 107)"><path d="m80.1131105 152.895038.8637533-8.410305h-33.6863754v-130.4675574l-9.5012853.8625954v14.879771l-36.06169667 4.9599236.2159383 6.9007634 35.84575837-2.5877863v105.4522903h-37.7892031v8.410305z"/><path d="m189.485861 0-101.922879 188.26145 8.6375321 2.372138 101.2750639-186.96755747z"/><path d="m291.51671 152.895038v-8.625954h-74.282777c44.699229-37.091603 69.100257-61.2442748 69.100257-88.8473283 0-21.7805343-16.411311-38.601145-75.362468-37.9541984l-.863753 9.0572519c52.688946 0 66.940874 12.5076335 66.940874 30.6221374 0 24.7996183-24.832905 48.0896944-71.043702 87.5534354l.863754 8.194656z"/></g><path d="m625.822561 168.062977.647815-7.332061h-25.912596v-81.730916l-8.205656.6469466v13.1545801l-27.856041 4.0973283.215938 6.038168 27.640103-2.372138v60.166031h-28.935733v7.332061zm-79.033419 29.543893h91.557841v-7.116412h-91.557841zm77.305913 107.39313v-7.54771h-51.177378c31.095115-22.427481 47.938303-37.522901 47.938303-54.774809 0-14.017176-12.308483-25.015267-55.280206-24.58397l-.647815 7.332062c37.357327.431297 47.722366 7.763358 47.722366 19.192748 0 14.879771-17.706941 29.328244-50.745502 53.265267l.863753 7.116412z"/></g></g></svg>