<svg style="background-color: #27272a" height="440" viewBox="0 0 800 440" width="800" xmlns="http://www.w3.org/2000/svg"><g fill="none" fill-rule="evenodd"><path d="m146.64 159.36v-18.72c0-15.36.48-48.72 1.68-58.08-14.16.72-21.12.96-37.92.96-10.8 0-18-.24-32.64-.72.48 5.76.48 13.44 0 21.6 13.68-.48 20.64-.72 32.64-.72 7.44 0 5.52 0 12.72.24.48 4.32.48 10.8.48 14.4v30c-10.08 5.28-20.64 7.68-34.08 7.68-35.52 0-65.28-24.48-65.28-67.2 0-38.88 25.92-67.44 64.8-67.44 16.32 0 36.96 5.76 48.96 15.36l6.72-21.6c-13.2-8.64-35.28-15.12-53.28-15.12-52.32 0-91.44 40.32-91.44 90.72 0 48.24 37.68 86.4 86.88 86.4 29.04 0 46.32-8.88 59.76-17.76z" fill="#f5f5f5" fill-rule="nonzero" transform="translate(171 105)"/><path d="m146.64 140.88c0-15.6 1.44-53.52 1.44-53.52h-25.2s.72 27.6.72 31.2v29.76c-10.08 5.28-20.64 7.68-34.08 7.68-35.52 0-65.28-24.48-65.28-67.2 0-38.88 25.92-67.44 64.8-67.44 16.32 0 36.96 5.76 48.96 15.36l6.72-21.6c-13.2-8.64-35.28-15.12-53.28-15.12-52.32 0-91.44 40.32-91.44 90.72 0 48.24 37.68 86.4 86.88 86.4 29.04 0 46.32-8.88 59.76-17.76z" fill="#f5f5f5" fill-rule="nonzero" transform="translate(475 105)"/><g fill="#e6594c"><text font-family="SFProText-Regular, SF Pro Text" font-size="16"><tspan x="483.335938" y="330">Stylistic alternate</tspan></text><text font-family="SFProText-Regular, SF Pro Text" font-size="16"><tspan x="172.316406" y="330">Standard character</tspan></text><path d="m608.834697 219.886543-.053573.998564c.43669.023164.876413.034893 1.318876.034893.211862 0 .423096-.002689.63367-.008035l-.025459-.999676c-.202403.005138-.40515.007711-.608211.007711-.423243 0-.845103-.011179-1.265303-.033457zm5.900204.595652-.188552-.982063c-.626577.119959-1.259315.214518-1.897105.283284l.107615.994193c.667754-.072008 1.327468-.170846 1.978042-.295414zm-9.701336-1.109508-.214382.97675c.647332.142207 1.304257.258817 1.969659.348714l.13445-.990921c-.635828-.085886-1.266117-.197542-1.889727-.334543zm13.601487.019662-.348609-.937268c-.5988.222557-1.207024.420613-1.823412.593567l.270358.96276c.645047-.181002 1.279328-.387748 1.901663-.619059zm-17.284466-1.154839-.372182.928159c.615932.247233 1.244234.470173 1.883718.667634l.29568-.955288c-.611504-.188802-1.214335-.402515-1.807216-.640505zm20.93716-.559284-.49791-.867229c-.554494.318598-1.12185.614444-1.700734.886701l.425882.904779c.604857-.284483 1.196187-.592976 1.772762-.924251zm-24.362783-1.153812-.518969.854794c.568713.345181 1.152594.667868 1.750407.966825l.447226-.89442c-.572022-.286062-1.132023-.595417-1.678664-.927199zm27.67608-1.130639-.632494-.774566c-.49524.405108-1.006731.789926-1.533159 1.153395l.568061.822986c.54919-.379179 1.082139-.780203 1.597592-1.201815zm-30.808484-1.142549-.650975.759099c.505087.43398 1.028059.847729 1.567659 1.239991l.587646-.809119c-.517303-.376067-1.01918-.773088-1.50433-1.189971zm33.651924-1.591041-.748264-.663401c-.42429.478924-.8679.940487-1.329633 1.383456l.691933.721962c.481216-.461641.943625-.942735 1.385964-1.442017zm-36.355534-1.144522-.766404.642359c.429069.511393.878642 1.005003 1.347454 1.479563l.711268-.702921c-.449799-.455321-.880962-.928741-1.292318-1.419001zm38.781591-2.095889-.847128-.531389c-.340021.54213-.702073 1.070221-1.085154 1.582942l.800998.598666c.398756-.533693.776268-1.084184 1.131284-1.650219zm-40.987705-1.012471-.859193.511652c.341186.574086.70516 1.133043 1.090675 1.675625l.814991-.579473c-.370534-.521513-.719682-1.057892-1.046473-1.607804zm42.838351-2.561538-.922931-.384964c-.246281.59037-.516624 1.170131-.810258 1.73796l.888173.45951c.305396-.590563.587475-1.195138.845016-1.812506zm-44.532059-.912652-.931972.362532c.242614.623958.510056 1.235517.801112 1.833462l.898847-.438262c-.279826-.574915-.536067-1.161265-.767987-1.757732zm45.76287-2.891479-.97363-.228135c-.146459.623754-.3183 1.240172-.514981 1.848025l.951226.308493c.204496-.631944.384012-1.275126.537385-1.928383zm-46.861861-.822939-.979108.203341c.136207.656594.298692 1.303565.486305 1.939764l.959143-.282924c-.180601-.612424-.336218-1.232886-.46634-1.860181zm47.454653-3.140781-.99775-.067045c-.04281.64081-.111476 1.277274-.205648 1.908324l.989021.147769c.097738-.654907.169555-1.318282.214377-1.989048zm-47.926526-.722466-.999222.03944c.026299.672072.079671 1.337191.159054 1.994298l.992665-.120898c-.07645-.633048-.12739-1.271006-.152497-1.91284zm47.98013-1.21902c-.007631-.672797-.04238-1.33908-.103207-1.997806l-.995773.091839c.058624.634851.091736 1.274121.099038 1.91681zm-48.820056-2.687615c-.079399.65678-.132811 1.321565-.159178 1.993298l.999225.039359c.025184-.641678.076189-1.279479.152692-1.912371zm48.441635-1.35094c-.117605-.660735-.261694-1.312305-.431132-1.953575l-.966707.255887c.163065.617198.30099 1.241875.4133 1.872854zm-47.636728-2.571714c-.186299.636561-.347453 1.283859-.482316 1.940747l.979508.201404c.128803-.627412.283096-1.248034.462373-1.860663zm46.599791-1.337239c-.224879-.630591-.474864-1.249262-.748752-1.85481l-.911108.412167c.263442.582457.503003 1.17576.717985 1.778607zm-45.147112-2.432002c-.289862.598681-.556076 1.210945-.797428 1.835579l.932936.360043c.230647-.5969.485631-1.183726.764218-1.759165zm43.483734-1.239288c-.325312-.584185-.673829-1.153676-1.044305-1.707228l-.830835.556519c.355823.531677.689834 1.077644 1.0011 1.636564zm-41.461825-2.192376c-.38351.544336-.745406 1.104995-1.084439 1.68073l.861555.507664c.324709-.551425.671849-1.089391 1.040452-1.612562zm39.225035-1.147108c-.41549-.522226-.851856-1.0271-1.307837-1.51336l-.730049.683395c.437837.466878.85656.951356 1.255023 1.452159zm-36.633572-1.954747c-.468072.474945-.916901.968907-1.345221 1.480621l.76679.641898c.410782-.490764.841394-.964709 1.290665-1.420577zm33.924946-.937839c-.492844-.44799-1.004025-.876164-1.532283-1.283263l-.610577.791957c.506641.390433.997286.801364 1.470652 1.231669zm-30.935672-1.644307c-.538538.394427-1.060369.810318-1.564232 1.246412l.654476.756083c.483818-.418743.984443-.817672 1.500576-1.195691zm27.736817-.81636c-.558958-.361042-1.133554-.699948-1.722548-1.015479l-.472217.881482c.563867.30207 1.115124.627093 1.652432.974161zm-24.307127-1.286625c-.596493.301316-1.17899.626306-1.746255.973733l.522236.852802c.545358-.334012 1.104161-.64565 1.675072-.934038zm20.791783-.59707c-.609171-.264861-1.231207-.505685-1.864912-.721274l-.322644.94652c.606001.206148 1.202752.437 1.788961.691881zm-17.053825-.917164c-.639511.199157-1.267781.423813-1.88362.672777l.37459.927191c.592446-.239514 1.194898-.454762 1.806076-.645105zm13.238572-.377826c-.643229-.160324-1.296515-.295227-1.958731-.403579l-.161429.986884c.63255.1035 1.259058.232659 1.87836.387021zm-9.287976-.50001c-.665068.090745-1.321642.208181-1.968607.351191l.216094.976373c.623064-.13772 1.252824-.25013 1.888139-.336804zm3.343187-.226198c-.431638 0-.860669.011162-1.28682.033214l.052027.998645.616313-.023885.61848-.007974c.642738 0 1.282242.025779 1.917527.077052l.079895-.996803c-.658791-.053155-1.324943-.080249-1.997422-.080249z" fill-rule="nonzero"/></g></g></svg>