<svg style="background-color: #27272a" height="440" viewBox="0 0 800 440" width="800" xmlns="http://www.w3.org/2000/svg"><g fill="none" fill-rule="evenodd"><path d="m129.513957 123.62 540.972086.5" stroke="#e6594c" stroke-linecap="square"/><path d="m129.718915 180.999537-.000926 1 3 .002778.000925-1zm4.999998.00463-.000926 1 3 .002778.000925-1zm4.999998.00463-.000926 1 3 .002777.000924-.999999zm4.999998.00463-.000926 1 3 .002777.000924-.999999zm4.999997.00463-.000926 1 3 .002777.000925-.999999zm4.999998.004629-.000926 1 3 .002778.000925-1zm4.999998.00463-.000926 1 3 .002778.000925-1zm4.999998.00463-.000926 1 3 .002778.000925-1zm4.999998.00463-.000926 1 3 .002778.000925-1zm4.999998.00463-.000926 1 3 .002777.000924-.999999zm4.999998.00463-.000926 1 3 .002777.000924-.999999zm4.999997.00463-.000926 1 3 .002777.000925-1zm4.999998.004629-.000926 1 3 .002778.000925-1zm4.999998.00463-.000926 1 3 .002778.000925-1zm4.999998.00463-.000926 1 3 .002778.000925-1zm4.999998.00463-.000926 1 3 .002777.000925-.999999zm4.999998.00463-.000926 1 3 .002777.000924-.999999zm4.999998.00463-.000926 1 3 .002777.000924-.999999zm4.999997.00463-.000926 1 3 .002777.000925-1zm4.999998.004629-.000926 1 3 .002778.000925-1zm4.999998.00463-.000926 1 3 .002778.000925-1zm4.999998.00463-.000926 1 3 .002778.000925-1zm4.999998.00463-.000926 1 3 .002777.000925-.999999zm4.999998.00463-.000926 1 3 .002777.000924-.999999zm4.999998.00463-.000926 1 3 .002777.000924-.999999zm4.999997.004629-.000926 1 3 .002778.000925-1zm4.999998.00463-.000926 1 3 .002778.000925-1zm4.999998.00463-.000926 1 3 .002778.000925-1zm4.999998.00463-.000926 1 3 .002778.000925-1zm4.999998.00463-.000926 1 3 .002777.000925-.999999zm4.999998.00463-.000926 1 3 .002777.000924-.999999zm4.999998.00463-.000926 1 3 .002777.000924-.999999zm4.999997.004629-.000926 1 3 .002778.000925-1zm4.999998.00463-.000926 1 3 .002778.000925-1zm4.999998.00463-.000926 1 3 .002778.000925-1zm4.999998.00463-.000926 1 3 .002777.000925-.999999zm4.999998.00463-.000926 1 3 .002777.000925-.999999zm4.999998.00463-.000926 1 3 .002777.000924-.999999zm4.999998.00463-.000926 1 3 .002777.000924-1zm4.999997.004629-.000926 1 3 .002778.000925-1zm4.999998.00463-.000926 1 3 .002778.000925-1zm4.999998.00463-.000926 1 3 .002778.000925-1zm4.999998.00463-.000926 1 3 .002777.000925-.999999zm4.999998.00463-.000926 1 3 .002777.000925-.999999zm4.999998.00463-.000926 1 3 .002777.000924-.999999zm4.999998.00463-.000926 1 3 .002777.000924-1zm4.999997.004629-.000926 1 3 .002778.000925-1zm4.999998.00463-.000926 1 3 .002778.000925-1zm4.999998.00463-.000926 1 3 .002778.000925-1zm4.999998.00463-.000926 1 3 .002777.000925-.999999zm4.999998.00463-.000926 1 3 .002777.000925-.999999zm4.999998.00463-.000926 1 3 .002777.000924-.999999zm4.999998.004629-.000926 1 3 .002778.000924-1zm4.999997.00463-.000926 1 3 .002778.000925-1zm4.999998.00463-.000926 1 3 .002778.000925-1zm4.999998.00463-.000926 1 3 .002778.000925-1zm4.999998.00463-.000926 1 3 .002777.000925-.999999zm4.999998.00463-.000926 1 3 .002777.000925-.999999zm4.999998.00463-.000926 1 3 .002777.000924-1zm4.999998.004629-.000926 1 3 .002778.000924-1zm4.999997.00463-.000926 1 3 .002778.000925-1zm4.999998.00463-.000926 1 3 .002778.000925-1zm4.999998.00463-.000926 1 3 .002777.000925-.999999zm4.999998.00463-.000926 1 3 .002777.000925-.999999zm4.999998.00463-.000926 1 3 .002777.000925-.999999zm4.999998.00463-.000926 1 3 .002777.000924-1zm4.999998.004629-.000926 1 3 .002778.000924-1zm4.999997.00463-.000926 1 3 .002778.000925-1zm4.999998.00463-.000926 1 3 .002778.000925-1zm4.999998.00463-.000926 1 3 .002777.000925-.999999zm4.999998.00463-.000926 1 3 .002777.000925-.999999zm4.999998.00463-.000926 1 3 .002777.000925-.999999zm4.999998.004629-.000926 1 3 .002778.000924-1zm4.999998.00463-.000926 1 3 .002778.000924-1zm4.999997.00463-.000926 1 3 .002778.000925-1zm4.999998.00463-.000926 1 3 .002778.000925-1zm4.999998.00463-.000926 1 3 .002777.000925-.999999zm4.999998.00463-.000926 1 3 .002777.000925-.999999zm4.999998.00463-.000926 1 3 .002777.000925-1zm4.999998.004629-.000926 1 3 .002778.000924-1zm4.999998.00463-.000926 1 3 .002778.000924-1zm4.999997.00463-.000926 1 3 .002778.000925-1zm4.999998.00463-.000926 1 3 .002777.000925-.999999zm4.999998.00463-.000926 1 3 .002777.000925-.999999zm4.999998.00463-.000926 1 3 .002777.000925-.999999zm4.999998.00463-.000926 1 3 .002777.000925-1zm4.999998.004629-.000926 1 3 .002778.000924-1zm4.999997.00463-.000925 1 3 .002778.000924-1zm4.999998.00463-.000926 1 3 .002778.000925-1zm4.999998.00463-.000926 1 3 .002777.000925-.999999zm4.999998.00463-.000926 1 3 .002777.000925-.999999zm4.999998.00463-.000926 1 3 .002777.000925-.999999zm4.999998.004629-.000926 1 3 .002778.000924-1zm4.999998.00463-.000926 1 3 .002778.000924-1zm4.999997.00463-.000925 1 3 .002778.000924-1zm4.999998.00463-.000926 1 3 .002778.000925-1zm4.999998.00463-.000926 1 3 .002777.000925-.999999zm4.999998.00463-.000926 1 3 .002777.000925-.999999zm4.999998.00463-.000926 1 3 .002777.000925-.999999zm4.999998.004629-.000926 1 3 .002778.000924-1zm4.999998.00463-.000926 1 3 .002778.000924-1zm4.999997.00463-.000925 1 3 .002778.000924-1zm4.999998.00463-.000926 1 3 .002777.000925-.999999zm4.999998.00463-.000926 1 3 .002777.000925-.999999zm4.999998.00463-.000926 1 3 .002777.000925-.999999zm4.999998.00463-.000926 1 3 .002777.000925-1zm4.999998.004629-.000926 1 3 .002778.000924-1zm4.999998.00463-.000926 1 3 .002778.000924-1z" fill="#e6594c" fill-rule="nonzero"/><path d="m129.513957 273.62 540.972086.5" stroke="#e6594c" stroke-linecap="square"/><text fill="#e6594c" font-family="SFProText-Regular, SF Pro Text" font-size="16"><tspan x="493.648438" y="324">Titling caps on</tspan></text><text fill="#e6594c" font-family="SFProText-Regular, SF Pro Text" font-size="16"><tspan x="201.527344" y="324">Titling caps off</tspan></text><g fill="#f5f5f5" fill-rule="nonzero"><g transform="translate(129 122)"><path d="m158.560889 150.646238c0-1.729081-1.2958-2.809757-2.159667-3.025892-17.27733-1.945217-23.540363-10.590626-27.427762-21.613521l-44.9210599-124.27774335c-.2159666-.86454083-1.2957998-1.72908165-3.0235328-1.72908165-1.5117665 0-2.5915996.64840562-3.0235329 1.72908165l-50.5361923 124.27774335c-5.6151325 12.751977-9.9344652 20.316709-25.05212955 21.613521-.86386654.216135-2.37563297 1.296811-2.37563297 3.025892-.21596664 1.729082.43193326 3.025893 1.51176643 3.025893 10.15043179 0 14.68573109-1.296811 24.18826299-1.296811 11.8781649 0 14.9016977 1.296811 27.6437291 1.296811.8638666 0 1.7277331-1.296811 1.7277331-3.025893 0-1.729081-.4319333-3.025892-1.2957998-3.025892-13.6058979-.648406-17.4932973-4.53884-17.4932973-10.37449 0-3.025893 1.0798331-6.700192 2.3756329-10.37449l12.3100982-33.5009571h44.4891265l12.5260643 36.0945791c1.079834 3.458164 1.9437 6.484056 1.9437 9.077679 0 5.40338-4.103366 8.429273-18.141197 9.077679-.8638666 0-1.2957998 1.296811-1.2957998 3.025892 0 1.729082.8638665 3.025893 1.727733 3.025893 14.2537978 0 20.5168298-1.296811 33.9067618-1.296811 11.878165 0 16.413464 1.296811 30.667262 1.296811.863866 0 1.727733-1.296811 1.727733-3.025893zm-65.4378902-64.1921557h-39.521894l20.5168302-55.3306127z"/><path d="m256.609741 144.162182c0-2.593622-2.159667-4.538839-3.2395-3.674298-2.5916 2.377487-5.399166 4.322704-8.422699 4.322704-3.239499 0-7.558832-1.729082-7.342865-12.103572l1.511766-48.8465561c.6479-17.9392221-11.662198-26.8007656-26.131962-26.8007656-16.629431 0-43.193327 15.1294644-43.193327 26.5846304 0 4.7549745 3.455466 7.5647322 7.774799 7.5647322 6.910932 0 12.742031-4.5388394 12.957998-14.697194.215966-6.7001914 7.558832-10.8067603 15.333631-10.8067603 8.206732 0 14.253797 6.2679209 14.037831 17.5069516l-.6479 16.8585458c-14.037831 3.674299-52.479892 14.264924-52.479892 35.878444 0 11.239031 8.422699 20.965115 22.028597 20.965115 12.310098 0 23.108429-4.538839 30.235328-11.887436 2.159667 6.700191 8.638666 11.022896 16.629431 11.022896 8.422699 0 15.117664-4.106569 20.084897-9.94222.6479-.648405.6479-1.080676.863867-1.945217zm-37.578195-36.742985-.863866 28.962118c-2.807566 6.051786-11.878165 9.942219-18.789097 9.942219-7.558833 0-11.878165-5.619515-11.878165-15.345599 0-13.616518 15.333631-19.884439 31.531128-23.558738z"/></g><path d="m582.578511 275.325702c1.2958 0 1.727733-2.377488-.215967-2.809758-5.183199-1.296811-12.742031-1.945217-15.549598-3.458163-5.831099-3.458164-11.446231-17.290817-58.526957-151.078509-.431934-1.080676-5.615133-1.512947-6.263033 0-30.019362 82.563648-50.536192 137.678126-57.015191 146.539669-3.2395 4.53884-5.831099 6.700192-16.845397 7.997003-1.727734.216135-1.2958 2.809758-.215967 2.809758 5.831099-.648406 10.798332-.864541 22.244563-.864541 11.662198 0 13.821865.216135 19.86893.864541 1.079834 0 1.511767-2.593623-.431933-2.809758-12.310098-1.945217-14.037831-3.890434-14.037831-7.780868 0-4.322704 7.342866-26.152359 17.493297-53.817666 5.399166-.216135 15.117665-.43227 33.474829-.43227h17.27733c3.671433 10.37449 7.342866 20.74898 10.798332 30.258929 8.854632 25.287819 7.126899 27.665306 4.319333 29.394388-2.807567 1.512946-10.150432 1.080676-15.333631 2.377487-1.727733.43227-1.511767 2.809758-.215967 2.809758 5.831099-.648406 22.028597-.864541 33.690795-.864541 11.446232 0 19.652964.216135 25.484063.864541zm-60.686624-69.595537c-4.319333 0-9.286566 0-15.333631 0-16.197498 0-25.70003 0-31.531129-.216135 6.910932-19.452169 15.117664-41.065689 22.892463-61.598534.215967-.648405 1.079833-.86454 1.2958 0 6.910932 18.371493 14.901698 40.201149 22.676497 61.814669z"/><path d="m670.908864 266.680293c.431933-.648405-.6479-1.729081-1.511766-1.080676-2.5916 2.161352-4.103367 2.809758-7.774799 2.809758-4.5353 0-7.126899-3.890434-7.126899-9.726084 0-16.426276 1.943699-33.717092 1.943699-50.359503 0-18.155358-9.718498-27.016901-26.995829-27.016901-16.845397 0-36.498361 15.77787-36.930294 26.800765-.215967 4.322705 2.591599 7.132462 6.910932 7.132462 6.047066 0 9.502532-3.025893 10.150432-12.968112.6479-9.726084 6.047066-16.210141 14.901698-16.210141 11.014298 0 16.413464 6.051786 16.413464 22.261927v11.23903c-.215967 3.242028-.431933 4.106569-2.375633 4.754975-30.667262 10.590625-49.672326 16.642411-49.672326 35.446174 0 9.293814 9.502532 17.506951 20.300864 17.506951 12.094131 0 22.028596-6.700191 28.507595-12.319706.6479-.648406 1.511767-.432271 1.9437.216135 2.375633 6.051786 6.263032 11.887436 12.957998 11.887436 7.558832 0 15.981531-5.40338 18.357164-10.37449zm-30.667262-37.175255c0 5.187245-.431933 21.18125-1.2958 27.881441-.215966 2.377488-10.150432 11.022896-20.300863 11.022896-9.070599 0-14.037832-3.890434-14.037832-14.048788 0-12.103572 11.446232-19.668304 33.906762-26.15236 1.079833-.216136 1.727733.43227 1.727733 1.296811z"/></g></g></svg>